<svg version="1" xmlns="http://www.w3.org/2000/svg" width="360" height="360" viewBox="0 0 270.000000 270.000000"><path d="M118.8 2.7c.7.3 1.6.2 1.9-.1.4-.3-.2-.6-1.3-.5-1.1 0-1.4.3-.6.6zM109.6 3.7c-.2.2-1.2.5-2.2.7-3 .6-11.8 3.7-12.9 4.6-.5.4-2.8 1.3-5 2-3.8 1.2-13.7 6.3-15.9 8.2-.6.5-3.3 2.3-6 4-2.7 1.8-5.9 4.1-7 5.2-1.2 1.2-4.8 4.4-7.9 7.3C47.6 40.4 36.9 53 33 58.9c-.8 1.3-2.3 3.4-3.2 4.6-1 1.3-1.8 3-1.8 3.8 0 .9-.4 1.8-1 2.2-.8.5-6.5 12.2-6.5 13.5 0 .3-.3.9-.6 1.5-1 1.7-4.6 13.7-5.8 19.3-3.3 16.1-3.5 41.8-.4 56.2 3.6 16.2 13.6 40.3 19.4 46.6 1 1.1 1.9 2.3 1.9 2.7 0 .8.7 1.6 8.3 10.7 6 7 11.6 12.5 18.7 18.2 5.7 4.6 14.9 10.8 16 10.8.5 0 1 .3 1.2.7.7 1.7 12.8 7.3 24.1 11.2 6.4 2.2 11.7 3.9 11.7 3.6 0-.2 1.2 0 2.7.6 1.5.5 4.5 1.2 6.7 1.4 2.3.2 6.8.7 10.1 1.1 7.4.8 22.8.8 27.5-.1 1.9-.3 4.9-.8 6.5-1.1 1.7-.2 3.9-.5 5-.8 1.1-.2 4-.7 6.5-1.1 2.5-.4 5.2-1.1 6.1-1.6.9-.4 2.7-1 4.1-1.3 7.4-1.3 25.4-10.3 36.8-18.4 10.1-7.2 28-25.7 28-29 0-.4.5-1.3 1.2-2 .6-.6 1.3-2.2 1.5-3.4l.3-2.3-1.3 2.3c-1.6 2.8-12.1 13.7-17.8 18.4-4.7 3.9-23.5 15.9-29.9 19.1-2.5 1.2-4.6 2.5-4.8 2.9-.2.5-1.1.8-2.1.8-.9 0-2.2.5-2.9 1.2-.7.7-1.2.9-1.2.5s-1.2-.1-2.8.7c-1.5.8-7 2.6-12.2 4-8.5 2.2-11.4 2.8-21 4.2-3.6.5-21.7.5-26.8 0-3.5-.4-10.6-1.5-13.2-2.1-.3-.1-2.5-.5-5-.9-6.5-1.2-19.5-6.1-27-10.1-3.6-1.9-7.6-3.9-8.9-4.5-2.2-1-13.2-8.7-18.2-12.8-10.4-8.4-23.4-24.9-31.4-39.6-4.1-7.7-13.1-33.7-13.9-40.6-.6-5-1.8-19.9-1.8-21.5.5-8.2 1.3-14.2 2.7-19.8.9-3.8 1.5-7.7 1.2-8.8-.3-1-.1-2.1.3-2.4.5-.3 2-4.3 3.4-8.9 3-9.4 8.6-21.5 10.9-23.4.8-.7 2.1-2.7 2.8-4.5C39 55.7 45.7 47.2 54 39c7.6-7.4 11.6-11 12.4-11 .3 0 2.3-1.7 4.6-3.8 2.3-2 4.5-3.7 4.8-3.7.4 0 1.3-.4 2-.8.6-.5 1.2-.5 1.2 0 0 .4.5 0 1.1-1 1-1.6 12.6-7.7 14.9-7.7.5 0 1-.5 1-1.1 0-.5.4-.8.8-.5.4.2 2.8-.4 5.2-1.5 4-1.8 6.5-2.5 12.2-3.3 3.4-.5 3-1.5-.6-1.4-2 .1-3.8.3-4 .5z"/><path d="M137.7 15.6c-.1.1-2.7.5-5.8.8-5.5.6-6.8.9-13.4 2.2-1.6.3-7 1.9-12 3.6-20.6 7-32.6 15.2-51.8 35.8-2.9 3.1-11 15.6-14.1 21.9-5.8 11.6-9.3 22.3-11.2 35.1-.3 1.9-.7 4.6-1 6-2 11.8.8 35.1 6.1 50 3.7 10.7 11.7 26 16 30.6.5.6 2.4 2.9 4 5 3.8 4.9 13.5 14.7 13.5 13.7 0-.4.6.2 1.4 1.3 1.5 2.1 14.6 11.3 15.7 11 .4 0 1.5.6 2.5 1.5 5.5 4.8 26 12 40.4 14.2 11.5 1.8 28.1 1.4 39.5-.8 2.8-.6 12.8-3.2 15-3.9.6-.2 2-.7 3.3-1.1 11.3-3.6 29.6-15.3 40.2-25.6 11.1-10.8 10.8-10.2 6.8-14.1-8-7.8-6.8-7.7-13.9-.7-6.1 5.8-17.1 14.9-18.3 14.9-.3 0-2.1 1.1-4.1 2.5-6.5 4.4-24.2 10.5-35.5 12.2-7 1.1-24.7.8-32.3-.6-19.9-3.4-39.5-13.7-53.7-28-5.3-5.3-12.9-14.5-14.8-18-.8-1.3-2.3-3.9-3.3-5.8-1.9-3.4-6.7-14.4-7.5-17.3-4-14.6-5.4-34.1-3.3-45.5.5-2.8 1.2-6.3 1.5-7.9.7-4.2 4-13.7 7-20.3C62.3 71.6 79 53 93.5 45c2.2-1.2 5.4-3 7-4 3.6-2.2 16-6.6 22.4-8.1 7.8-1.8 8.3-1.9 18.1-2.5 5.2-.3 9.7-.7 9.9-.9.6-.7.4-12.6-.3-13.3-.6-.5-12.3-1.1-12.9-.6z"/></svg>