<svg height="14" viewBox="0 0 21 14" width="21" xmlns="http://www.w3.org/2000/svg" xmlns:xlink="http://www.w3.org/1999/xlink"><mask id="a" fill="#fff"><path d="m0 13.981h21v-13.981h-21z" fill="#fff" fill-rule="evenodd"/></mask><g fill="#4c9f38" fill-rule="nonzero" mask="url(#a)"><path d="m1.446 2.109c5.965-.2 11.925.491 17.891.288 1.937-.066 2.026-2.139.046-2.071-5.966.2-11.925-.492-17.891-.288-1.937.066-2.026 2.139-.046 2.071" transform="translate(0 5.396)"/><path d="m.869 1.593c1.099 1.143 5.583 4.603 5.019 6.28-.282.837-1.945 1.977-2.577 2.62l-3.22 3.276c-.637.647 2.263 1.672 2.942.982l3.864-3.931c.686-.7 2.4-1.809 2.463-2.885.055-.946-1.327-1.93-1.849-2.471l-3.805-3.953c-.6-.622-3.656-.769-2.837.081" transform="translate(11.638 -1)"/></g></svg>