<?xml version="1.0" encoding="utf-8"?>
<!-- Generator: Adobe Illustrator 23.0.6, SVG Export Plug-In . SVG Version: 6.00 Build 0)  -->
<svg version="1.1" id="Layer_1" xmlns="http://www.w3.org/2000/svg" xmlns:xlink="http://www.w3.org/1999/xlink" x="0px" y="0px"
	 viewBox="0 0 21 14" style="enable-background:new 0 0 21 14;" xml:space="preserve">
<style type="text/css">
	.st0{fill:#FFFFFF;}
</style>
<g>
	<g id="Arrow_Right">
		<g id="Group_658" transform="translate(0 5.396)">
			<path id="Path_328" class="st0" d="M1.4,2.1c6-0.2,11.9,0.5,17.9,0.3c1.9-0.1,2-2.1,0-2.1C13.4,0.5,7.5-0.2,1.5,0
				C-0.4,0.1-0.5,2.2,1.4,2.1"/>
		</g>
		<g id="Group_659" transform="translate(11.638 0)">
			<path id="Path_329" class="st0" d="M0.9,0.6c1.1,1.1,5.6,4.6,5,6.3c-0.3,0.8-1.9,2-2.6,2.6l-3.2,3.3c-0.6,0.6,2.3,1.7,2.9,1
				l3.9-3.9C7.6,9.1,9.3,8,9.4,6.9C9.4,6,8,5,7.5,4.5l-3.8-4C3.1-0.1,0-0.3,0.9,0.6"/>
		</g>
	</g>
</g>
</svg>
