<svg xmlns="http://www.w3.org/2000/svg" width="48.54" height="63.705" viewBox="0 0 48.54 63.705">
  <g id="arrow" transform="matrix(0.988, 0.156, -0.156, 0.988, 7.265, -0.14)">
    <g id="Group_2114" data-name="Group 2114" transform="translate(0 0)">
      <g id="Group_2113" data-name="Group 2113" transform="translate(0 0)">
        <path id="Path_13152" data-name="Path 13152" d="M.168.03C-.114.165.388.286,0,.2.012.058.052-.057.168.03Z" transform="translate(0 1.411)" fill="#282828"/>
        <path id="Path_13153" data-name="Path 13153" d="M35.784,50.829c-.624-1.127.537-2.093.242-3.216-.008-.124.46.142.414-.146-.393-1.109.292-2.532,1.039-3.619l.119.1c.142-.207-.247-.569-.137-.8.089.014.111.1.243.068-.256-.112-.039-.456-.219-.595.124-.075.334-.027.475-.128l-.278-.192c-.657-.509.247-.912-.055-1.5.068.036.116.1.191.067a9.594,9.594,0,0,1-.141-2.9.689.689,0,0,0,.426.071c-.318-.088-.361-.386-.39-.643.348-.075-.247-.465-.023-.735l.071.032c-.323-.254.25-.3-.157-.52l.272-.112c-.463-.142.266-.292.039-.5l-.1,0c-.1-.18.138-.248.07-.413l.056-.01c-.1-.378.178-.573-.19-.591.3-.108.11.368.551.2a17.49,17.49,0,0,1-.128-3.716c.148-.137.192-.226.331-.256-.075-.123-.07-.465-.259-.575.008.041.188-.08.206-.145.138-.226-.407-.241-.243-.488a.355.355,0,0,0,.355.093c-.288-.206-.244-.485-.339-.731.062.037.1.1.216.083-.328-.26.066-.5-.142-.727l.213.081c.254-.394-.438-.095-.3-.43.074.076.154.044.243.054-.415-.288-.331-.787-.489-1.083a.2.2,0,0,0,.089.007c-.077-.329.012-.687-.189-1.035.084-.142.522-.007.413-.354-.424.058-.227-.58-.69-.317.04-.3.174-.8-.022-.976.186.111.492-.218.573.025l.222-.225c.179,0-.024.2.183.113-.039-.124-.273-.466-.225-.588-.3-.192-.822-.323-.942-.68.2.145.446-.183.541-.077l-.9-.364c-.041-.118.326-.092.184-.247-.11.031-.191-.031-.29-.067.039-.055-.195-.481.206-.626.152-.09.123.181.244.013-.051-.226-.175-.207-.247-.426l.054-.017c.018-.163-.3-.387-.478-.174.016.1.235-.1.159.08a.641.641,0,0,1-.471-.5c.086.056.192.02.316.02a2.408,2.408,0,0,1-.817-.773c-.194.051.385.017.3.1.146-.5-.62-.742-.332-1.214.05.046-.261.121-.209.1-.03-.209.244-.294.091-.384.157-.069-.115-.141-.216-.251-.144-.024.063-.062.128.044a1.682,1.682,0,0,1-.679-1.256.622.622,0,0,1-.508-.188l.257-.069c.11-.151-.149-.309.051-.417-.375-.074.565.675.227.5.173-.16-.537-.214-.186-.3-.092-.187-.416-.255-.29-.529-.012.068.409-.008.314-.149-.183-.239-.154-.02-.347-.19l-.167-.083c-.234.107-.093-.244-.3-.018.172-.129-.315-.309.076-.482l.316-.121c-.084-.1-.412-.018-.588-.033a.3.3,0,0,1,.113-.112c-.458.231-.1-.286-.521-.221.025-.316-.287-.6-.1-.862-.248-.085-.507-.133-.546-.382.067.012.115.055.214,0,.044-.2-.09-.157-.234-.219.081-.017.082-.406.136-.647-.241-.08-.425.139-.575.221.3-.45-.581-.266-.345-.731.093.013.364.091.37-.126.3-.47-.519-.07-.527-.443l-.278.32c.114-.264-.471-.167-.124-.42-.18.024-.124-.353-.413-.059-.07-.587-.9-.746-.609-1.452-.1,0-.181-.166-.3.008-.075.241.234-.007.157.133-.055-.032-.144.038-.189.074-.045-.167-.113-.27.231-.417-.078-.414-.739.269-.941-.131.128-.112.148-.182.037-.247l-.367.059c-.157-.234.137-.4.32-.619-.144-.063-.27-.2-.456-.08l.091-.4c-.058.282-.21.061-.31.075l.1-.013c.054-.112-.134-.156-.226-.18-.093.153,0,.314.048.409-.141.054-.217-.038-.388.02.2-.2-.071-.3-.148-.393-.073-.129-.274.113-.3.082.085-.12-.161-.15.044-.252.066-.01,0,.176.138.119-.007-.139.152-.339-.107-.3-.195.03-.3.47-.4.172.1-.016.172-.1.274-.151l-.115-.266-.157.2c.012-.074.043-.077.05-.115-.214.178-.35-.156-.566.062-.111-.054-.111-.3-.2-.382l.031-.007c-.043-.2-.265-.218-.461-.133l.036-.044a.392.392,0,0,0-.4-.04c-.071-.267.438-.867.08-.7-.183-.1-.511.243-.522.428-.228-.341-.776-.184-.9-.671-.095.07-.093.142-.219.15C23.9,5.78,23.2,5.9,23.02,5.248c.184-.031.112-.231.166-.367-.21.159-.053-.278-.25.068-.078.218-.134.317-.029.458-.348,0-.8-.171-.886-.437.044.133-.046.173-.136.213.156-.335-.048-.474-.26-.416l-.1.2-.03-.259c-.089.043-.231.417-.322.15a.757.757,0,0,0,.031-.244c-.233.1-.58.323-.712.085l-.056-.36c-.095.009-.292.157-.176.29-.267-.288-.474-.376-.5-.68a2.644,2.644,0,0,1-2.244.116l.056-.16c-.146-.2-.157.266-.257.122.092-.143-.065-.373.12-.534-.224-.234-.4.209-.577.246-.069.211.163-.108.075.16-.043.066-.326-.241-.43.084a.877.877,0,0,1,.118-.5l-.191.131c-.127-.418.583-.611.467-1.119l-.163.025c-.081-.37.481-.319.118-.5-.2.134-.429.588-.309.758-.358.033-.3.76-.657.671-.066-.211.3,0,.275-.281-.124-.3-.37.091-.5-.029.148.154-.051.463-.168.506-.158-.188.171-.293-.084-.371-.074.183-.333.286-.149.454-.159.417-.25-.166-.439.146-.042-.319.371-.66.106-.862,0,.3-.411.356-.32.811a.452.452,0,0,1,.026-.5c-.138-.2-.461.493-.438-.1l-.093.3c-.038-.1-.1-.186-.164-.358-.144-.023-.5.355-.441-.1-.051.043-.373-.017-.281.315.18.216.256-.2.32.236-.1-.365-.294.01-.42.114V3.544c-.075.06-.231,0-.29.189a.228.228,0,0,0,0-.267l-.1.263c-.292.114-.023-.478-.305-.42l.228-.194c-.05.042-.123-.217-.263-.142l-.25.718c-.161.1-.048-.282-.218-.04l.221-.282c.037-.078-.1-.415-.314-.423-.141.075-.368.416-.168.565a.224.224,0,0,1-.146-.337c-.241.068.014.266-.2.406-.073-.169-.317-.424-.463-.671l.235-.4L10.93,2.5c.2-.317-.082-.259.04-.6-.1-.061-.222.056-.322.144.263.565-.355.753-.289,1.264-.39.128-.2-1.245-.635-.46.063.135-.136.516.111.377-.24-.063-.174.506-.452.287.214-.2-.219-.523.092-.817-.023.168.168.133.217.086-.1-.2.033-.512-.219-.519-.153.045-.364.048-.337.314,0,.292.233-.024.131.267-.3.091-.35-.347-.48.169.191-.041.236.258.232.459l-.22.123L8.843,3.4c-.352-.137-.1.352-.444.3l-.163-.382c.081-.33.5.142.438-.394-.225-.02-.3.254-.509.116.047-.046.111-.06.158-.108-.08-.017-.167-.727-.485-.308-.164.164-.04.191-.042.392-.358.067-.46.264-.689.308.036-.394-.409-.02-.167-.431.126.219.642.188.764-.184-.139-.463.285.062.357-.408-.292-.008-.286-.466-.338-.765-.083-.02-.16.107-.209.154-.029.282.078.278.09.568a.745.745,0,0,0-.808.377c-.113-.135-.09-.417.039-.45A2.776,2.776,0,0,1,5.659,2.2c.264.445-.4.131-.219.5a.548.548,0,0,1,.293.621c-.123-.024-.008-.2-.065-.3-.139.259-.265-.386-.393.021.34-.174.033-.565.075-.93-.243.222-.006-.256-.259-.237a2.577,2.577,0,0,1-.822.5c-.386-.316-.9.082-1.215.124-.186-.165-.118-.581-.308-.633-.212.03.207.42-.128.269l.021-.084c-.083.106-.612-.2-.63.391l.042-.451c-.065-.032-.106.075-.149.127-.021-.142-.106-.263-.022-.369-.235-.275-.406.1-.614.144l.173.237c-.331.257-.61.035-.943.181L.465,2.059l-.182.186C.293,1.992.075,1.866,0,2.09l.44-.71c.176.126-.116.332.02.566.114.2.426.088.443-.164-.128-.01-.127.047-.209.152-.1-.346.1-.36.154-.609-.063.024-.174-.069-.171.044a.525.525,0,0,1,.446-.278c-.127.159.111.206.07.315-.028-.312.166-.44.446-.385.237.334.475-.294.8-.234a1.568,1.568,0,0,1-.391.754c.212.135.213-.036.425.1.066-.248.091-.617.331-.784l.039.232C3.063.946,3.027.6,3.329.636A12.711,12.711,0,0,0,4.753.662l.031.232c.18-.513.7-.242.98-.47.5.2,1.065-.269,1.331.122A7.136,7.136,0,0,1,9.635.273L9.476.609c.166-.246.1.2.259.153-.175-.278.228-.347.347-.551.4.278.922-.007,1.3-.211V.234c.388-.413.8,0,1.245.1.044.1.106.326.242.309.278-.363.4-.312.787-.508a2.35,2.35,0,0,1,.928.352c1.06-.418,2.017.119,3.1-.01L17.7.766c1.116-.349,2.217.444,3.125.433l-.216.425a.4.4,0,0,0,.662-.277c.218.22.733-.025.771.407.234.182.393-.082.635-.056a2.232,2.232,0,0,0,1.209.516l-.113-.075c-.095.075-.174.258-.062.333.237-.059.624.39.664-.2.384.542,1.329.342,1.639.977.028-.158.168-.122.27-.188.466.213.755.786,1.239.76.03.107-.242.158-.074.278.134.012.1-.171.278-.167.882.159,1.254,1.141,1.886,1.531a11.751,11.751,0,0,1,3.158,2.483l-.091.067c.6.032.339,1.05,1.05.878-.014.148.219.327,0,.409.469.063.408.893.977,1.075-.017-.044-.051-.051-.12-.065.084.552.612.716.725,1.275-.07-.017-.154-.077-.257-.027-.067.28.671.133.277.516.069.091.277-.077.222-.128a20,20,0,0,0,1.917,3.007c.024.92-.816.417-.2.871-.076.091.206-.045.106.007.237.182-.411.6-.082.656.281-.191.217.04.407-.029-.009.557-.256.75.134,1.039l-.178.03c.65.274.512.892,1.179,1.108l.644,1.863c.189.62.334,1.244.5,1.864s.338,1.245.466,1.872c.1.627.186,1.259.258,1.894.025.632.086,1.259.128,1.882l.036,1.864a15.7,15.7,0,0,1-.244,3.739c-.5.561-.491.6-.349,1.259-.073-.031-.086-.074-.159-.036.373.061,0,.455.36.546-.113.926-.122,1.779-.255,2.721-.021-.154-.317-.266-.317-.086l.214.214-.108.017c.039.127.206.284.343.173a12.184,12.184,0,0,1-.59,3.512,22.624,22.624,0,0,0-.928,3.386,6.622,6.622,0,0,0-.342,1.905,10.645,10.645,0,0,0-1.8,4.858S35.824,51.6,35.784,50.829Z" transform="translate(0.894 0)" fill="#282828"/>
        <path id="Path_13154" data-name="Path 13154" d="M0,0C.1.173.315.242.2.518A2.684,2.684,0,0,1,0,0Z" transform="translate(0.512 1.338)" fill="#282828"/>
        <path id="Path_13155" data-name="Path 13155" d="M.073.014c0-.056.081.071.1.1C.107.134.058.3,0,.2.065.184.048.1.073.014Z" transform="translate(5.996 2.617)" fill="#282828"/>
        <path id="Path_13156" data-name="Path 13156" d="M.461,0C.447.169.168.314,0,.341Z" transform="translate(6.956 2.675)" fill="#282828"/>
        <path id="Path_13157" data-name="Path 13157" d="M.064,0C.174.142.145.22,0,.217-.011.128.037.082.064,0Z" transform="translate(8.614 3.332)" fill="#282828"/>
        <path id="Path_13158" data-name="Path 13158" d="M0,0c.1,0,.157.095.207.19C.2.046-.027.283,0,0Z" transform="translate(8.757 2.948)" fill="#282828"/>
        <path id="Path_13159" data-name="Path 13159" d="M.009.058C.073.047.219-.089.269.1.208-.033-.051.3.009.058Z" transform="translate(11.425 3.413)" fill="#282828"/>
        <path id="Path_13160" data-name="Path 13160" d="M0,0C.039.014.053.046.1,0,.171.083.084.2.022.212Z" transform="translate(12.685 3.292)" fill="#282828"/>
        <path id="Path_13161" data-name="Path 13161" d="M.151.137,0,.089.142,0Z" transform="translate(32.511 11.532)" fill="#282828"/>
        <path id="Path_13162" data-name="Path 13162" d="M.152,0C.291.1.025.13.006.158-.043.046.22.148.152,0Z" transform="translate(36.771 20.441)" fill="#282828"/>
        <path id="Path_13163" data-name="Path 13163" d="M.008.063,0,.022.343,0Z" transform="translate(38.697 25.574)" fill="#282828"/>
      </g>
    </g>
    <g id="Group_2115" data-name="Group 2115" transform="translate(28.484 39.48)">
      <path id="Path_13164" data-name="Path 13164" d="M.19.051C.091-.04-.085.172.048.008.182-.006.288-.008.19.051Z" transform="translate(2.087 0)" fill="#282828"/>
      <path id="Path_13165" data-name="Path 13165" d="M17.082,10.231c.022.947-.758.316-.893.984-.028.052-.18-.447-.228-.3-.076.776-.781.635-1.411.333l-.028-.136c-.12-.056-.039.4-.15.378a.909.909,0,0,0-.092-.234c.086.259-.1.181-.06.383-.075-.083-.157-.282-.248-.373l.074.305c.157.735-.348.093-.383.523a.515.515,0,0,0-.066-.187c-.12.538-.523.621-.79.915a1.735,1.735,0,0,0-.165-.4c.113.307.044.426-.02.523-.173-.292-.032.347-.209.221l-.021-.073c.061.356-.195-.136-.091.278l-.152-.221c.152.448-.209-.177-.177.07l.04.089c-.014.131-.139-.073-.164.024l-.027-.048c-.081.171-.26-.039-.112.3-.163-.251.073-.178-.168-.542a1.979,1.979,0,0,1-1.178.846,1.074,1.074,0,0,1-.224-.266c-.013.088-.135.133-.1.323.013-.013-.1-.161-.131-.169-.134-.093.074.41-.077.3a.8.8,0,0,0-.106-.34c.04.3-.076.3-.126.418a.585.585,0,0,0-.054-.21c.035.34-.2.01-.2.236l-.054-.21c-.236-.18.137.426-.039.335a.688.688,0,0,0-.071-.227c.046.4-.18.36-.236.527a.417.417,0,0,0-.03-.083c-.1.1-.269.037-.331.248-.085-.067-.19-.484-.284-.358.173.391-.142.252.122.665-.129-.021-.365-.093-.408.083,0-.176-.231-.47-.153-.543l-.15-.218c-.05-.169.08.03-.014-.169-.027.03-.088.241-.143.189,0,.286.022.808-.133.935.044-.2-.107-.468-.073-.562a7.719,7.719,0,0,1-.119.943c-.055.046-.035-.353-.1-.2a1.037,1.037,0,0,1-.045.318c-.02-.044-.25.224-.249-.235-.013-.175.086-.134.038-.275-.089.043-.1.205-.2.254l0-.063c-.048-.047-.21.287-.176.524.046,0,.021-.284.071-.173a.7.7,0,0,1-.337.491A1.842,1.842,0,0,0,6.344,16a3.055,3.055,0,0,1-.634.9c-.07.249.19-.478.177-.357-.1-.259-.62.7-.62.254.047-.06-.126.363-.1.29-.1.015.062-.37-.063-.2.088-.224-.113.107-.218.209-.112.183.031-.1.1-.156a2.291,2.291,0,0,1-.657.567.945.945,0,0,1,.014-.413c-.081.158-.34.379-.346.3l.2-.31c.106-.252-.062-.172.107-.456-.267.278.305.121.084.27.156-.319-.363.3-.088-.116-.031-.1-.284.134-.119-.267-.025.084.3-.334.267-.4-.07-.1-.107.1-.2.071l-.1.036c-.2.27-.006-.187-.219.18.164-.241-.16-.126.186-.531l.274-.312c-.033-.037-.309.241-.443.323a1.01,1.01,0,0,1,.12-.169c-.423.467,0-.209-.35.056.113-.311-.078-.428.181-.742-.158,0-.346.014-.279-.2a.2.2,0,0,0,.167-.043c.115-.183-.008-.112-.1-.138a5.9,5.9,0,0,0,.377-.529c-.161-.02-.4.159-.56.239.439-.356-.377-.193.017-.535.076.015.267.059.367-.085.453-.294-.394-.05-.2-.308l-.391.178c.232-.158-.293-.2.124-.3-.16-.021.09-.234-.305-.124.3-.27-.307-.421.384-.7-.073-.013-.018-.1-.221-.037-.213.095.173.029.024.08-.017-.022-.128,0-.183.006.078-.08.1-.133.441-.149.219-.187-.71.013-.591-.19.168-.028.228-.055.191-.1l-.3-.031c.041-.123.362-.145.643-.209-.062-.048-.063-.122-.279-.1l.338-.148c-.244.107-.18-.012-.255-.023l.075.012c.116-.037.028-.088-.015-.114a.455.455,0,0,0-.269.179c-.13,0-.112-.054-.266-.062.279-.047.175-.137.194-.19.048-.066-.259,0-.254-.023.143-.032.006-.091.214-.095.05.008-.13.073,0,.075.1-.059.348-.109.151-.142-.149-.025-.541.134-.39-.008a2.6,2.6,0,0,0,.289-.008l.121-.128L2.9,11.12a1.065,1.065,0,0,1,.116-.037c-.27.03-.113-.13-.415-.086-.037-.044.151-.142.169-.195l.023,0c.135-.09.022-.144-.158-.154l.055-.01c.013-.035-.044-.1-.2-.107.172-.12.941-.234.606-.252-.027-.077-.486-.024-.64.044.137-.181-.308-.255.052-.474-.1,0-.166.029-.235,0,.053-.233-.4-.38.061-.657.119.038.251-.051.394-.084-.235,0,.219-.112-.169-.045-.226.055-.337.074-.415.153a.224.224,0,0,1,0-.407.316.316,0,0,1-.247.033c.363-.07.4-.175.255-.217l-.222.038.217-.1c-.077-.012-.468.073-.272-.044a1.816,1.816,0,0,0,.229-.073c-.2-.033-.523-.068-.355-.188l.308-.135a.376.376,0,0,0-.329.039c.165-.177.169-.27.438-.373-.728-.082-.83-.413-.84-.693L1.5,7.076c.138-.106-.3.027-.194-.05.161-.01.329-.13.535-.115.151-.142-.316-.071-.4-.122-.219.038.15.024-.127.071-.081.006.137-.181-.195-.124a2.169,2.169,0,0,1,.5-.1L1.45,6.606c.365-.163.723.025,1.176-.159L2.561,6.4c.331-.131.421.069.506-.1a1.79,1.79,0,0,0-.794.109c-.12-.112-.794.111-.8-.037.184-.082.071.1.335.017.249-.126-.177-.1-.1-.182a.825.825,0,0,1-.521.081c.138-.107.32-.022.331-.131-.192.024-.355-.038-.468.071-.437.058.095-.133-.25-.115.294-.1.72-.047.847-.194-.288.083-.426-.052-.844.1a1.029,1.029,0,0,1,.486-.124c.165-.1-.564-.036.008-.183L1,5.755,1.311,5.6c-.007-.056-.441-.09.008-.183-.051-.008-.058-.139-.357-.022-.172.12.247.04-.164.176.331-.13-.069-.1-.194-.124L.776,5.4C.7,5.391.727,5.321.535,5.345a.506.506,0,0,0,.257-.069l-.27.03C.366,5.225.98,5.178.88,5.088l.222.036c-.047-.008.191-.1.1-.131l-.734.083c-.118-.038.266-.088.006-.092L.78,5c.081-.006.386-.139.362-.219a.82.82,0,0,0-.574.074c-.013-.04.121-.129.3-.136-.1-.073-.256.069-.423.023.153-.068.36-.219.58-.331L1.45,4.4,1.44,4.347c.339,0,.24-.091.588-.126.046-.05-.081-.069-.177-.085-.52.229-.772.04-1.262.182C.42,4.2,1.777,3.957.964,3.972.841,4.026.446,4.035.61,4.1c.033-.106-.513.046-.332-.11.222.037.485-.2.808-.146-.167.029-.112.093-.06.1.181-.081.5-.1.481-.2C1.446,3.7,1.42,3.62,1.163,3.69c-.284.065.051.082-.245.108-.124-.094.3-.21-.211-.146.055.065-.234.148-.43.189L.139,3.782l.192-.025c.106-.167-.352.035-.331-.11L.361,3.5c.329-.039-.1.225.417.085,0-.091-.27-.061-.152-.172.05.008.068.03.119.038.01-.036.7-.219.264-.252-.172-.029-.19.024-.386.066-.09-.126-.3-.122-.349-.205C.661,3,.276,2.9.689,2.909.474,3,.54,3.2.917,3.169c.443-.151-.04.122.426.051-.015-.113.433-.206.722-.288.014-.036-.116-.038-.166-.046-.279.047-.265.086-.549.151C1.4,2.9,1.218,2.81.935,2.8c.127-.071.4-.119.441-.076a.445.445,0,0,1-.059-.453c-.429.189-.139-.134-.5.01a1.064,1.064,0,0,1-.6.235c.018-.053.2-.041.289-.083-.259,0,.373-.179-.028-.152.175.1.554-.095.912-.148-.22-.053.251-.051.231-.146a1.208,1.208,0,0,1-.5-.231c.3-.209-.069-.343-.108-.461.164-.1.572-.148.625-.232-.025-.078-.416.154-.261,0l.082-.006c-.1-.016.222-.278-.357-.188l.44-.058c.033-.031-.069-.03-.119-.038A1.161,1.161,0,0,1,1.787.7C2.069.563,1.705.557,1.675.48L1.432.588C1.2.495,1.435.347,1.316.235L1.567.183,1.4.138C1.647.1,1.787,0,1.575,0l.657.07c-.135.09-.316,0-.554.095-.207.077-.113.184.131.152.017-.053-.038-.044-.136-.06A1.6,1.6,0,0,1,2.259.224C2.239.2,2.337.144,2.226.163c.181.01.218.054.243.133C2.323.27,2.261.372,2.157.373c.308-.061.418,0,.355.113-.338.149.267.136.2.273A2.383,2.383,0,0,1,1.985.733c-.139.107.027.078-.114.186a2.437,2.437,0,0,1,.76-.006L2.4.968c.135.06.474-.014.433.108a1.461,1.461,0,0,0-.027.551l-.226.056c.5-.029.237.224.478.282-.18.229.3.346-.068.524a1.314,1.314,0,0,1,.468.873l-.345.017c.257.006-.182.081-.121.128.251-.124.362.006.574,0-.225.2.1.331.36.41L3.7,3.977c.458.038.116.279.083.459-.091.039-.3.116-.263.16a1.412,1.412,0,0,1,.633.141.525.525,0,0,1-.159.4c.6.246.347.686.742.991l-.263.086c.654.236.231.8.592,1.042l-.466.07c-.12.128.169.195.489.1-.119.128.277.194-.086.338-.063.119.239.075.318.144-.13.237-.074.3.053.471L5.4,8.327c-.106,0-.3.043-.32.1.143.041-.067.285.466.095-.273.27.361.41-.023.7.146-.05.186-.007.29-.008.045.174-.219.425.066.511-.069.044-.264.01-.264.086.066.03.195-.043.29-.009.342.224-.16.641-.031.884.39.4.349.909.5,1.339l-.112.02c.448.038-.346.479.3.382a1.44,1.44,0,0,1-.254.093c.3-.076-.247.21.123.1.009-.009-.013,0-.059.017-.214.179.1.036-.086.226a1.837,1.837,0,0,0-.177.107c-.181.179.429-.266-.04.131a1.234,1.234,0,0,0,.222-.183c-.148.31.179.177.286.092-.226.483-.681,1.153-.362.726-.075.146.154-.269.073-.119.106-.158-.335.705-.252.6l.045-.076c.226-.46.151-.269.292-.549-.09.274-.234.664-.024.3l-.1.235A5.526,5.526,0,0,0,6.787,13a.892.892,0,0,0,.247-.386.452.452,0,0,0,.02-.161,6.126,6.126,0,0,1,.59-.35,12.944,12.944,0,0,1,2.568-.935c.382.338.392.319.536.054a.341.341,0,0,0,.056.151c-.138-.35.139-.1.018-.439a4.667,4.667,0,0,0,.913-.431c-.036.06.061.355.112.305l-.031-.249.052.092a.463.463,0,0,0-.1-.353c.684-.649,1.783-.3,2.542-.724.251.065.462-.184.637-.343.808.2,1.517.339,2-.251C16.942,8.981,17.247,9.914,17.082,10.231Z" transform="translate(0 0.435)" fill="#282828"/>
      <path id="Path_13166" data-name="Path 13166" d="M.524,0A1.141,1.141,0,0,1,0,.156C.172.11.357.028.524,0Z" transform="translate(1.818 0.172)" fill="#282828"/>
      <path id="Path_13167" data-name="Path 13167" d="M.214,0C.269-.008.146.046.116.059.1.037-.064.048.028.007.048.029.134.007.214,0Z" transform="translate(0.671 2.597)" fill="#282828"/>
      <path id="Path_13168" data-name="Path 13168" d="M.355.113A.381.381,0,0,1,0,0Z" transform="translate(0.533 3.022)" fill="#282828"/>
      <path id="Path_13169" data-name="Path 13169" d="M.217,0C.086.071.008.077,0,.021A.885.885,0,0,1,.217,0Z" transform="translate(0.1 3.763)" fill="#282828"/>
      <path id="Path_13170" data-name="Path 13170" d="M.169,0C.181.039.089.08,0,.12.139.088-.11.047.169,0Z" transform="translate(0.529 3.715)" fill="#282828"/>
      <path id="Path_13171" data-name="Path 13171" d="M.088,0C.107.022.255.046.078.109.2.055-.157.033.088,0Z" transform="translate(0.36 4.858)" fill="#282828"/>
      <path id="Path_13172" data-name="Path 13172" d="M.2,0C.2.017.167.03.217.038A.258.258,0,0,1,0,.059Z" transform="translate(0.6 5.287)" fill="#282828"/>
      <path id="Path_13173" data-name="Path 13173" d="M.1.1,0,.045.16,0Z" transform="translate(3.342 14.022)" fill="#282828"/>
      <path id="Path_13174" data-name="Path 13174" d="M0,.043C.1-.115.015.208.023.232-.05.283.095-.024,0,.043Z" transform="translate(6.089 17.185)" fill="#282828"/>
      <path id="Path_13175" data-name="Path 13175" d="M.144.308.131.318,0,0Z" transform="translate(8.366 14.966)" fill="#282828"/>
    </g>
  </g>
</svg>
