<svg xmlns="http://www.w3.org/2000/svg" width="196" height="193.355" viewBox="0 0 196 193.355">
  <g id="circle-hollow" transform="translate(-200.336 -2151.594)">
    <g id="Group_2284" data-name="Group 2284" transform="translate(200.336 2151.594)">
      <g id="Down_arrow_-_OFF" data-name="Down arrow - OFF" transform="translate(196 0) rotate(90)">
        <g id="Group_1058" data-name="Group 1058" transform="translate(0 0)">
          <path id="Path_2276" data-name="Path 2276" d="M.631,1.495C.631-.747-.491,2.616.257,0,.631.374,1,.747.631,1.495Z" transform="translate(188.988 98.835)" fill="#fff"/>
          <path id="Path_2277" data-name="Path 2277" d="M188.871,92.108A21.61,21.61,0,0,1,187,86.876c-.374-1.869-.747-3.737-1.121-5.979a34.985,34.985,0,0,0-1.495-5.979,13.1,13.1,0,0,0-2.242-5.232c-.374-.747,1.869-.374.747-2.242-1.121-1.495-2.242-3.363-3.363-5.232a33.127,33.127,0,0,1-2.99-6.353c-2.242-4.111-4.111-8.969-5.979-13.08h.747c-.747-1.495-2.99-2.242-4.111-3.737.374-.374.747,0,.747-.374-1.121.374-2.616-2.242-3.737-2.242-.374-.747.374-1.121,0-2.242h-1.495c-3.737,0-4.858-4.858-8.6-6.353.374,0,.747,0,.747-.374-5.979-2.616-11.959-7.1-18.312-9.343.374-.374,1.121-.747.747-1.495-.747.747-2.99.374-4.485-.374-.374-1.495-3.363,0-4.858-1.495l.374-.374c-1.869.747-1.869-1.495-3.737-.374l-1.121-.747c-1.121,1.495-1.869-1.495-3.363-.747v.374c-1.121,0-1.869-.747-2.99-.747V11.76c-2.616-.374-4.111-1.495-4.111,0-.747-1.121,2.616,0,1.495-1.869-8.969-.374-17.938-.747-26.907,0-1.121-.374-1.869-.374-1.869-.747-.747.374-3.363.747-4.111,1.495.374,0-.747-.747-1.121-.747-1.869-.374-1.495,1.495-3.363,1.495A.924.924,0,0,0,77.5,9.891c-1.121,1.495-3.363,1.869-4.858,2.616.374-.374.747-.374.374-.747-1.495,1.495-3.737.747-4.858,1.869l.374-1.121c-2.99,0-.374,1.869-2.616,2.242.374-.374,0-.747,0-1.121-1.495,1.869-5.232,2.99-6.727,4.485v-.374c-1.869,1.121-4.485,1.869-6.727,3.737-1.121.374-.747-1.869-2.616-.374.747,1.121-3.363,2.99-1.121,3.363A23.327,23.327,0,0,0,42.75,28.2c.374-1.121-1.869-.747-.747-1.869H40.507c-.374-.747,1.121-.747.374-1.121a24.178,24.178,0,0,1-3.363,2.99c-.374,2.242-.374,4.485-2.242,6.353.374-1.121-1.869-.747-1.121-1.495a18.934,18.934,0,0,0-.747,4.858c-.374.747-1.121-.747-1.495.374.374.374,0,.747,0,1.495-.374,0-2.242,2.99-3.737,2.242-.747,0,.747-1.121-.374-.747-1.121,1.121-.747,1.869-1.869,2.99h0c-.747.747-1.495,2.99,0,2.616.374-.747-.747-.374,0-1.121.374,1.121-.374,2.616-1.495,4.111,0-.747-.374-.747-.374-1.121a49.784,49.784,0,0,1-1.869,7.1c.747.374-.747-1.495,0-1.495a8.908,8.908,0,0,0-2.242,4.111c-.374,1.495-.747,2.99-1.869,3.737,0-.374,1.121.374.747,0-.747,1.121-1.495.747-1.869,1.869-.747,0-.374,1.121-.374,2.242.374.747-.374,0,0-.747a29.167,29.167,0,0,1-2.616,9.717c.374,0,.747,2.242.747,2.99l-.747-.374c-.747.374-.374,2.242-1.495,2.242.747,1.869.747-6.353.747-3.737-.747.374.747,3.363-.374,2.616-.374,1.495.374,2.99-.747,4.485.374-.374-1.121-1.495-1.121-.374,0,2.242.374.747.374,2.616l.374,1.121c.747.374-.374,1.869.747,1.121-.747,0,0,2.99-1.495,2.616L9.863,90.24c0,1.121,1.121,1.495,1.495,2.242l-.374.374c1.869.374-.374,2.242,1.121,3.363-.374,1.121-.374,2.242-.747,3.363a3.153,3.153,0,0,1-.747,2.616c0,.747.747,2.242.374,3.737a.8.8,0,0,0-.747-.747,2.294,2.294,0,0,0,.374,2.242c-.374,0-.747,2.242-1.121,3.363.747,1.495,1.495,1.121,2.242,1.121-1.495,1.495,1.495,3.737.374,5.606-.374-.374-1.495-1.869-1.495-.747-1.495,1.869,1.869,2.242,1.495,4.485l1.495-.747c-.747,1.121,1.495,2.99,0,2.99.747.374.374,2.616,1.495,1.869,0,1.869,1.121,3.737,1.495,5.606.747,1.869,1.495,3.363.747,4.858.374.374.747,1.495,1.495,1.121.374-1.121-1.121-.747-.747-1.495a1.157,1.157,0,0,0,.747.374c0,1.121.374,1.869-1.121,1.495.747,3.363,3.737,1.869,4.858,4.485q-1.121,0,0,1.121l1.869.747c.747,1.869-.747,1.869-1.495,2.242.747.747,1.495,1.869,2.242,1.869l-.374,1.869c0-1.495,1.121.374,1.495.747l-.374-.374c-.374.374.747,1.121,1.121,1.869.374-.374,0-1.869-.374-2.242.747,0,1.121.747,1.869,1.121-1.121.374.374,1.869.747,2.616.374,1.121,1.495.374,1.495.374-.374.374,1.121,1.121,0,1.121-.374,0,0-.747-.747-1.121,0,.747-.747,1.121.747,1.869,1.121.374,1.495-1.495,2.242.374-.374-.374-.747,0-1.495,0l.747,1.869.747-.747c0,.374,0,.374-.374.374,1.121-.374,2.242,1.869,2.99,1.495.747.374,1.121,1.869,1.495,2.242h0a3.244,3.244,0,0,0,2.616,1.869h0A4.262,4.262,0,0,0,42,164.235c.747,1.495-1.869,2.99.374,2.99,1.121.747,2.99,0,2.616-.747.747,1.121,2.242,1.869,3.363,2.616s2.242,1.121,2.99,2.616c.374,0,.374-.374,1.121-.374,2.99,2.616,7.474,2.616,9.716,5.979-1.121,0-.374.747-.747,1.121,1.121-.374.747,1.121,1.495,0,.374-.747.374-1.121-.374-1.869,2.242.374,5.606,1.495,6.353,2.616-.374-.747,0-.747.747-.747-.747,1.121,1.121,1.869,2.242,1.869l.374-.747.747,1.121c.374,0,1.121-1.495,1.869-.374v.747c1.495-.374,3.363-.747,4.858,0l1.121,1.495c.747,0,1.869-.747.747-1.121,2.242,1.121,3.737,1.495,4.485,2.616,5.232-1.121,11.211-1.121,16.07-1.121v.747c1.495.374.747-1.121,1.495-.747-.374.747,1.121,1.121,0,1.869,1.869.747,2.242-1.121,3.363-1.869,0-.747-.747.747-.747-.374,0-.374,2.616.374,2.616-1.121a1.7,1.7,0,0,1,0,1.869l1.121-.747c1.495,1.121-2.99,2.99-1.121,4.485l1.121-.374c1.121,1.121-2.616,1.869,0,1.869,1.121-.747,1.869-2.616.747-2.99,2.242-.747.747-2.99,3.363-3.363.747.747-1.869.747-1.495,1.495,1.495.747,2.242-1.121,3.363-1.121-1.121,0-.374-1.495,0-1.869,1.495.374-.374,1.495,1.121,1.121,0-.747,1.495-1.495,0-1.869.374-1.495,1.869,0,2.616-1.495.747.747-1.121,2.99,1.121,2.99-.747-.747,1.869-2.242.374-3.363.747,0,1.121.747.747,1.495,1.121.374,1.869-2.616,2.99-.747v-1.121c.374.374,1.121.374,1.869.747,1.121-.374,2.616-2.616,2.99-1.121.374-.374,2.242-1.121,1.121-1.869-1.495,0-1.121,1.495-2.616.374,1.495.747,1.869-1.121,2.242-1.869l.374.374c.374-.374,1.495-.747,1.495-1.495a.8.8,0,0,0,.747.747v-1.121c1.495-1.121,1.121,1.495,2.616.374a5.158,5.158,0,0,0-1.121,1.495c.374-.374,1.121.374,1.869-.374v-2.99c.747-.747.747.747,1.495-.747l.374,1.495c0,.374,1.495.747,2.616,0,.747-.747,1.121-2.616-.374-2.242.747-.374,1.869-.374,1.495.374,1.121-1.121-.747-.747.374-1.869.747.374,2.616-.374,4.111-.374l-.374,2.242.747-.747c-.374,1.869,1.121.374,1.121,1.869a3.731,3.731,0,0,0,1.495-1.869c-2.99-.374,0-3.363-1.495-4.485,1.869-1.869,4.111,2.242,4.485-1.869-.747,0-.747-1.869-1.495-.374,1.495-1.121-.374-2.242,1.495-2.99-.747,1.495,2.616.374,1.495,2.616-.374-.374-1.121.374-1.495.747,1.121,0,1.121,1.495,2.242.374.747-.747,1.869-1.869,1.121-2.242-.747-.747-1.121,1.121-1.495,0,1.495-1.495,2.616-.747,1.869-2.616-.747,1.121-1.869.374-2.242,0,.374-.374.374-1.121.747-1.495l.374.747c1.869-1.495-.374-1.495,1.121-2.99h1.869c.374,1.121-2.616,2.242-1.121,3.363,1.121-1.121.747-2.242,2.242-2.99,0,.374-.374.747-.374,1.121.374-.374,2.616.747,2.99-1.869.374-1.121-.374-.747-.747-1.121,1.495-2.242,1.121-3.363,2.242-4.485.747,1.121,1.869-2.242,1.869,0-1.121.374-3.363,2.99-2.616,4.858q1.121,0,0,1.121c-.374.374-1.121,1.121-.747,1.869,1.495-1.495,2.616-.374,3.737,0a2.247,2.247,0,0,0,.374-1.495c-.747-.747-1.121-.374-1.869-.747,1.495-1.869,2.616-3.737,2.616-5.232a.826.826,0,0,1,1.121,1.121c1.495-2.242,2.99-4.858,4.485-7.1-2.242.747,1.121-2.616-.747-2.242-1.121,1.121-2.616,1.495-2.99.374.374-.747.747.374,1.121.374-.374-1.495,2.242-.747,1.495-2.242-.747,2.616,1.495,1.495,2.616,2.242,0-1.869.747.374,1.495-1.121a33.653,33.653,0,0,1,1.121-5.979c1.869-1.869,2.242-5.979,2.99-8.222.747-1.121,2.242.374,2.616-1.121s-1.869.747-.747-1.495l.374.374c0-.747,1.869-3.737,0-4.858l1.495,1.121c.374-.374,0-.747,0-1.121.374,0,1.121-.374,1.121.374,1.495-1.121.374-2.99.747-4.485l-1.121.747c-.374-2.616.747-4.111.747-6.727h.747l-.374-1.495c.747.374,1.495-.747.747-1.869a20.027,20.027,0,0,1,1.869,4.111c-.747,1.121-1.121-1.495-1.869-.747-.747.374-1.121,2.99,0,3.363.374-.747,0-1.121,0-1.869,1.121,0,1.121,1.121,1.869,1.869,0-.374.374-1.121,0-1.121a10.414,10.414,0,0,1,.374,3.737c-.374-1.121-.747.374-1.121,0,1.121.374,1.121,1.869.747,3.737-1.495,1.121,0,3.737-1.121,5.979a7.836,7.836,0,0,1-1.495-4.111c-.747,1.121-.374,1.495-1.121,2.616a5.128,5.128,0,0,1,1.869,3.737h-.747c0,1.869,1.121,2.242,0,4.111-.747,1.869-1.495,3.363-2.242,5.232l-2.242,4.485-.747-.374c1.121,2.242-1.869,4.858-2.242,7.1a21.188,21.188,0,0,0-2.99,4.858,5.789,5.789,0,0,1-2.99,2.99,25.139,25.139,0,0,1-2.616,4.111c-.747,1.121-1.869,2.616-2.616,3.737a32.677,32.677,0,0,0-2.99,3.737,33.7,33.7,0,0,1-3.737,3.363v-1.495c-.374,1.495-1.121,0-1.869.747,1.495,0-.374,1.869-.374,2.99-2.99,1.121-5.232,4.111-7.1,6.353l-.374-.747c-1.495,2.616-4.858,3.363-7.848,4.858-.374,0-1.495-.374-2.242,0-1.121,1.869-1.869,2.242-4.111,4.111-1.869,1.121-4.858,1.495-6.727,1.869-6.353,4.485-14.2,4.858-21.675,7.1l-.374-1.869a31.934,31.934,0,0,1-11.959,1.495c-4.111-.374-7.848-.374-11.211-.747l.747-1.495c-1.869-.747-4.485-.374-4.111,1.121a10.346,10.346,0,0,0-3.363-.374c-1.121-.374-2.242-.374-2.616-1.121-1.869-.747-2.616,0-4.485,0a87.468,87.468,0,0,0-8.969-3.363l.747.374c.374-.374.747-.747,0-1.121-1.495,0-4.858-2.616-4.111,0-1.495-1.495-4.111-2.242-6.353-2.99a12.359,12.359,0,0,1-5.606-3.737c0,.747-.747.374-1.495.374-.747-.374-1.495-1.121-2.242-1.495-.747-.747-1.495-1.121-1.869-1.869-1.495-1.121-2.616-2.242-4.111-2.616-.374-.747,1.495,0,0-1.121-.747-.374-.374.374-1.495,0-2.616-1.495-4.485-3.737-6.727-5.979-1.869-2.242-3.363-4.858-5.232-6.727-7.1-6.727-11.959-15.7-15.7-23.918h.374c-2.616-2.242-1.121-7.474-4.111-8.969,0-.747-.374-2.616.374-2.616a7.97,7.97,0,0,1-1.121-4.485c-.374-1.869-.374-3.737-1.495-5.606,0,.374,0,.374.374.747a24.672,24.672,0,0,0-.374-5.232c-.747-2.616-1.121-4.111-.747-5.979.374.374.374,1.121.747,1.121.747-1.495-1.869-3.363,0-4.111,0-.747-1.121-.374-.747,0C.52,95.472.147,86.5,1.268,77.907c2.616-5.606,3.363.374,2.99-4.485.374-.374-.747-.374-.374-.374,0-1.869,2.99-2.242,2.242-3.737-1.495,0-.374-1.121-1.121-1.121,1.869-3.363,3.363-3.737,3.363-6.727l.374.374c0-3.737,2.242-7.1,2.242-10.464C20.327,34.556,33.407,19.982,50.6,11.013c8.6-4.485,17.564-7.1,26.533-9.343a80.424,80.424,0,0,1,28.4-.747c4.111,2.242,4.485,2.242,9.343,2.242l-.374.374c.374-1.495,3.363.747,4.111-.374,3.363,1.121,6.727,1.869,10.09,2.99a74.873,74.873,0,0,1,9.716,3.737c-1.121-.374-2.242.374-.747.747h1.495v.374c1.869,0,2.99,0,2.242-.747a73.462,73.462,0,0,1,22.423,15.7c3.363,2.99,5.979,6.727,8.969,10.09l3.737,5.606a48.686,48.686,0,0,1,3.737,5.606c.747,1.869,2.242,4.111,3.363,6.353s2.616,4.485,3.737,6.727c3.737,13.454,4.485,25.412,5.979,38.866A9.438,9.438,0,0,1,188.871,92.108Z" fill="#fff"/>
          <path id="Path_2278" data-name="Path 2278" d="M1.869,0C1.121.374.747,1.869,0,.747.747.747,1.495,0,1.869,0Z" transform="translate(187.75 102.946)" fill="#fff"/>
          <path id="Path_2279" data-name="Path 2279" d="M.747.747A1.3,1.3,0,0,1,0,1.121C0,.747,0,0,.374,0,0,.374.374.374.747.747Z" transform="translate(172.801 137.701)" fill="#fff"/>
          <path id="Path_2280" data-name="Path 2280" d="M.1,3.363C-.272,2.99.476,1.121.849,0Z" transform="translate(168.215 142.933)" fill="#fff"/>
          <path id="Path_2281" data-name="Path 2281" d="M.619.747C-.128,1.121-.128.747.245,0,.619,0,.619.374.619.747Z" transform="translate(160.597 151.155)" fill="#fff"/>
          <path id="Path_2282" data-name="Path 2282" d="M1.495.178A2.833,2.833,0,0,1,0,.926C.374,1.3.747-.569,1.495.178Z" transform="translate(160.469 152.845)" fill="#fff"/>
          <path id="Path_2283" data-name="Path 2283" d="M1.495.354C1.121.728.747,1.475,0,1.475.747,1.1,1.495-.767,1.495.354Z" transform="translate(145.52 164.628)" fill="#fff"/>
          <path id="Path_2284" data-name="Path 2284" d="M1.179.374c-.374,0-.374,0-.747.374C-.316.747.058,0,.432,0Z" transform="translate(139.483 170.214)" fill="#fff"/>
          <path id="Path_2285" data-name="Path 2285" d="M0,0,.747.747H0Z" transform="translate(12.853 119.389)" fill="#fff"/>
          <path id="Path_2286" data-name="Path 2286" d="M0,.618C.374-.5.747.244,1.121.244.747.991.747-.13,0,.618Z" transform="translate(24.812 50.382)" fill="#fff"/>
          <path id="Path_2287" data-name="Path 2287" d="M.747.747v.374L0,0Z" transform="translate(50.224 21.477)" fill="#fff"/>
        </g>
      </g>
    </g>
  </g>
</svg>
