<svg xmlns="http://www.w3.org/2000/svg" width="20" height="20.306" viewBox="0 0 20 20.306">
  <g id="X_ON" data-name="X ON" transform="translate(0.001 0.283)">
    <circle id="Ellipse_267" data-name="Ellipse 267" cx="10" cy="10" r="10" transform="translate(-0.001 -0.283)" fill="#33a6dd"/>
    <g id="Group_990" data-name="Group 990" transform="translate(4.429 4.927)">
      <g id="Group_989" data-name="Group 989">
        <g id="Group_988" data-name="Group 988">
          <g id="Group_987" data-name="Group 987">
            <g id="Group_986" data-name="Group 986">
              <path id="Path_1803" data-name="Path 1803" d="M31.47,42.68a.3.3,0,0,0,.087.166A.252.252,0,0,0,31.47,42.68Z" transform="translate(-31.47 -41.607)" fill="#fff"/>
              <path id="Path_1804" data-name="Path 1804" d="M32.1,43.861h0S32.1,43.86,32.1,43.861Z" transform="translate(-32.007 -42.621)" fill="#fff"/>
              <path id="Path_1805" data-name="Path 1805" d="M105.731,101.968l-.041-.038A.353.353,0,0,0,105.731,101.968Z" transform="translate(-95.242 -92.517)" fill="#fff"/>
              <path id="Path_1806" data-name="Path 1806" d="M34.273,38.745l.056-.039c.111.115-.024.087.091.183.11-.024.163.184.235.187-.006,0,.042.059.017.076.053-.02.061.045.1.069.023,0,0-.02.006-.039l.086.063c.017.041,0,.069-.034.041.176.211,1.052,1.2,1.275,1.391,0-.055-.08-.1-.059-.17.079.032.07.091.121.091-.045.084.1.139.077.246l.053-.02,0,.051c.277.211.073.038.276.266.128.121.238.132.286.221-.01-.011-.014-.061.028-.037-.028.037.108.065.09.113.035.028.131.137.142.059-.006.039.075.141,0,.1.03.032.052.069.083.083l-.027-.052c.108.1.13.191.236.221L37.4,41.8c.063.061.118.111.1.179l-.076-.052a1.315,1.315,0,0,0,.274.231l-.028-.032c.152.069.75.619.905.67l-.011-.08.114.061c-.01-.011-.153.065-.151.045.186.187,1.16,1.15,1.3,1.347.049.089-.042.065-.049.07.1.073.072,0,.139.079.013.025-.031.021-.046.015.035.028.052.069.07.056-.025-.052.034-.076.045-.12l.087.1-.031.021c.02.021.125-.018.2.089.138.168.31.328.455.491-.018.013-.059-.011-.1-.035.02.023.055.051.062.08-.007-.065.082.048.066.007.176.052.259.259.4.317.068-.048,1.23-.762,1.3-.829a.289.289,0,0,1,.061.08c.008-.024-.042-.094-.084-.117l-.044.031c-.086-.063.006-.039-.068-.111.027-.034.1.028.159.086-.048-.058-.077-.132-.132-.122-.035-.063.044-.031,0-.1-.051-.035-.137-.063-.166-.131l.006,0c-.084-.152-.225-.141-.3-.283h.023c-.02-.056-.118-.111-.166-.2.013.027.007.065-.037.027-.059-.1-.131-.137-.165-.22l-.084-.028c-.266-.289-1.382-1.368-1.661-1.648l.015.007c-.431-.419-1.282-1.312-1.755-1.72a1.183,1.183,0,0,0-.2-.267c.027.052-.008.059-.037.027-.208-.224-.035.006-.262-.206a18.312,18.312,0,0,1-1.378-1.495c-.162-.08-.274-.265-.418-.358l.023,0c-.141-.113-.8-.881-.957-1.016l.013.027c-.152-.1-.087-.132-.17-.251-.037.061-.172-.024-.217-.063l.013-.008c-.07-.056-.253-.16-.362-.26l.031-.021a1.9,1.9,0,0,1-.325-.3,3.02,3.02,0,0,0-.519-.587l-.044-.2L33.2,35.06s-1.125.69-1.077,1.137l-.031.021.052.048c.045.073.1.072.073.094l-.077-.087c.051.069,0,.039-.042.031a.351.351,0,0,1,.053.084c.023,0,0-.02,0-.035.041.024.111.045.137.1.058.065-.039.046.027.122.349.407.677.811,1.057,1.2,0,.02-.013.008-.028,0,.124.107.221.215.335.311a.127.127,0,0,1,0,.084A5.408,5.408,0,0,1,34.273,38.745Z" transform="translate(-32.003 -35.06)" fill="#fff"/>
            </g>
          </g>
        </g>
      </g>
    </g>
    <g id="Group_991" data-name="Group 991" transform="translate(4.66 5.044)">
      <path id="Path_1807" data-name="Path 1807" d="M97.466,35.89a.3.3,0,0,0-.166.087A.255.255,0,0,0,97.466,35.89Z" transform="translate(-88.264 -35.89)" fill="#fff"/>
      <path id="Path_1808" data-name="Path 1808" d="M97.286,36.52Z" transform="translate(-88.252 -36.431)" fill="#fff"/>
      <path id="Path_1809" data-name="Path 1809" d="M38.96,110.151,39,110.11A.208.208,0,0,0,38.96,110.151Z" transform="translate(-38.137 -99.662)" fill="#fff"/>
      <path id="Path_1810" data-name="Path 1810" d="M39.7,38.669l.039.056c-.115.111-.087-.024-.183.091.024.11-.184.163-.187.235,0-.006-.059.042-.076.017.02.053-.045.061-.069.1,0,.023.02,0,.039.006l-.063.086c-.041.017-.069,0-.041-.034-.211.176-1.2,1.052-1.391,1.275.055,0,.1-.08.17-.059-.032.079-.091.07-.091.121-.084-.045-.139.1-.246.077l.02.053-.051,0c-.211.277-.038.073-.266.276-.121.128-.132.238-.221.286.011-.01.061-.014.037.028-.037-.028-.065.108-.113.09-.028.035-.137.131-.059.142-.039-.006-.141.075-.1,0-.032.03-.069.052-.083.083l.052-.027c-.1.108-.191.13-.221.236l.056-.02c-.061.063-.111.118-.179.1l.052-.076a1.315,1.315,0,0,0-.231.274l.032-.028c-.069.152-.619.75-.67.905l.08-.011-.061.114c.011-.01-.065-.153-.045-.151-.187.186-1.15,1.16-1.347,1.3-.089.049-.065-.042-.07-.049-.073.1,0,.072-.079.139-.025.013-.021-.031-.015-.046-.028.035-.069.052-.056.07.052-.025.076.034.12.045l-.1.087-.021-.031c-.021.02.018.125-.089.2-.168.138-.328.31-.491.455-.013-.018.011-.059.035-.1-.023.02-.051.055-.08.062.065-.007-.048.082-.007.066-.052.176-.259.259-.317.4.048.068.762,1.23.829,1.3a.289.289,0,0,1-.08.061c.024.008.094-.042.117-.084l-.031-.044c.063-.086.039.006.111-.068.034.027-.028.1-.084.159.058-.048.132-.077.122-.132.063-.035.031.044.1,0,.035-.051.063-.137.131-.166l0,.006c.152-.084.141-.225.283-.3v.023c.056-.02.111-.118.2-.166-.027.013-.065.007-.027-.037.1-.059.137-.131.22-.165l.028-.084c.289-.266,1.368-1.382,1.648-1.661l-.007.015c.419-.431,1.312-1.282,1.72-1.755a1.183,1.183,0,0,0,.267-.2c-.052.027-.059-.008-.027-.037.224-.208,0-.035.206-.262a18.312,18.312,0,0,1,1.495-1.378c.08-.162.265-.274.358-.418v.017c.113-.141.881-.8,1.016-.957l-.027.013c.1-.152.132-.087.251-.17-.061-.037.024-.172.063-.217l.008.013c.056-.07.16-.253.26-.362l.021.031a1.9,1.9,0,0,1,.3-.325,3.02,3.02,0,0,0,.587-.519l.2-.044.011-.025s-.69-1.125-1.137-1.077l-.021-.031-.048.052c-.073.045-.072.1-.094.073l.087-.077c-.069.051-.039,0-.031-.042a.351.351,0,0,1-.084.053c0,.023.02,0,.035,0-.024.041-.045.111-.1.137-.065.058-.046-.039-.122.028-.407.349-.811.677-1.2,1.057-.02,0-.008-.013,0-.028-.107.124-.215.221-.311.335a.127.127,0,0,1-.084,0A5.625,5.625,0,0,1,39.7,38.669Z" transform="translate(-33.11 -36.397)" fill="#fff"/>
    </g>
    <g id="Group_996" data-name="Group 996" transform="translate(-0.001 -0.01)">
      <path id="Path_1811" data-name="Path 1811" d="M138.9,71.935c-.013-.222-.075.118-.028-.145A.118.118,0,0,1,138.9,71.935Z" transform="translate(-119.312 -61.683)" fill="#33a6dd"/>
      <path id="Path_1812" data-name="Path 1812" d="M19.516,9.361A6.45,6.45,0,0,1,19.26,8.2a3.842,3.842,0,0,0-.36-1.175c-.038-.083.118-.015.025-.2a12.307,12.307,0,0,1-.631-1.212c-.221-.452-.46-.922-.687-1.33l.061.024c-.093-.153-.305-.259-.417-.407.015-.015.063.025.058-.027-.083.008-.242-.238-.335-.259-.031-.07.013-.1-.034-.191l-.128-.025a.932.932,0,0,1-.422-.311,1.714,1.714,0,0,0-.457-.386c.027,0,.066.013.052-.021A18.041,18.041,0,0,0,14.1,1.613c.037-.011.083-.042.058-.089-.066.052-.276-.021-.456-.084-.045-.115-.332-.055-.522-.18l.024-.01c-.184.024-.217-.127-.376-.073l-.08-.094c-.1.089-.214-.124-.362-.106V1c-.131-.01-.183-.077-.3-.086L12.068.9C11.789.863,11.64.777,11.63.866c-.084-.089.273.015.142-.114-.466-.046-.935-.077-1.4-.1a11.643,11.643,0,0,0-1.4.041C8.857.67,8.788.668,8.76.638a1.729,1.729,0,0,0-.424.124C8.367.754,8.269.726,8.22.73c-.175,0-.165.127-.353.131q.1-.061.055-.1A2.8,2.8,0,0,1,7.4.974C7.42.951,7.461.93,7.447.9c-.176.134-.367.083-.522.193l.048-.072c-.3.034-.046.131-.3.176.051-.035.024-.048.028-.07a6.449,6.449,0,0,1-.745.41.019.019,0,0,0,0-.024c-.114.055-.231.111-.349.172a1.767,1.767,0,0,0-.348.214c-.1.031-.034-.127-.259.024.061.082-.362.283-.166.3l-.169.09-.177.108a1.155,1.155,0,0,0-.27.208c.056-.1-.166-.032-.021-.158l-.153.039c-.008-.048.127-.082.058-.1-.073.065-.273.269-.348.314a2.217,2.217,0,0,1-.336.567c.069-.122-.135-.031-.082-.107-.052.141-.1.28-.142.422-.062.072-.073-.042-.148.076.025.014,0,.069-.015.114-.035.017-.236.311-.343.276-.059.006.084-.131-.013-.075-.115.134-.087.166-.2.3L2.468,4.3a.484.484,0,0,0-.1.17c-.015.056-.007.094.052.061.051-.062-.069-.014.028-.089a1.056,1.056,0,0,1-.2.415c.021-.058-.006-.068-.015-.1A3.55,3.55,0,0,1,2.1,5.1c-.049.114-.106.228-.153.349.039.028-.028-.128.013-.149a1.446,1.446,0,0,0-.238.442A1.12,1.12,0,0,1,1.5,6.15c.011-.045.073.007.059,0-.07.142-.132.107-.152.213-.042-.007-.044.124-.069.229.008.063-.03.018,0-.07a4.351,4.351,0,0,1-.118.46,4.243,4.243,0,0,1-.2.583c.03,0,.037.229.018.3L.981,7.828c-.053.061-.053.259-.111.259.02.09.039-.07.056-.227s.042-.3.038-.186c-.072.044.023.334-.052.265-.034.156,0,.32-.083.457.018-.041-.065-.145-.083-.015-.028.227.018.069.007.253q0,.059.008.118c.061.017-.034.2.046.125C.753,8.9.8,9.2.7,9.172L.627,9.127c0,.1.073.169.1.248C.721,9.388.7,9.412.69,9.406c.124.024-.031.232.066.352A2.213,2.213,0,0,0,.72,10.1a.536.536,0,0,1-.048.269,1.448,1.448,0,0,1,.083.476c-.014-.035-.021-.083-.049-.091-.028.115.007.141.035.241-.024-.021-.046.231-.075.363.056.152.117.087.16.1-.052.08-.01.186.03.294a.507.507,0,0,1,.051.32c-.031-.048-.108-.211-.113-.077-.086.168.151.265.152.5l.084-.08c-.034.115.149.308.042.315.053.065.049.269.137.214.03.391.37.832.305,1.116.035.044.084.172.117.124.008-.1-.093-.1-.072-.142a.06.06,0,0,0,.066.039c.032.114.069.2-.056.138.068.263.269.166.4.47-.044.007-.045.038.01.118.051.042.1.082.156.12.1.189-.014.153-.07.2.073.091.146.214.222.225l.01.166c-.007-.121.09.053.135.087l-.045-.034c-.011.035.08.134.131.18.024-.038-.045-.156-.076-.225.059.03.106.108.184.146-.07.021.077.177.128.253.053.093.124.051.141.076-.025.025.107.132.015.1-.032-.02-.027-.084-.09-.108.025.069-.028.1.1.183.1.059.084-.11.184.073-.048-.03-.075-.018-.121-.034.034.056.065.114.1.168l.052-.037c.006.03-.01.02-.008.035.087,0,.217.2.3.177a2.253,2.253,0,0,1,.177.241l-.017-.008a.463.463,0,0,0,.124.139.557.557,0,0,0,.159.079l-.013.007a.688.688,0,0,0,.242.153c.091.132-.107.217.079.262.128.1.266.062.239-.008a2.164,2.164,0,0,0,.359.255,1.081,1.081,0,0,1,.336.263c.048,0,.034-.025.114,0a9.13,9.13,0,0,1,1.05.593c-.121-.025-.032.053-.044.089.113-.01.089.1.159.025.013-.056.031-.076-.068-.144a3.5,3.5,0,0,1,.4.137,1.357,1.357,0,0,1,.305.151c-.056-.046,0-.046.055-.045-.045.08.124.153.267.158l.034-.048.07.079c.056,0,.086-.094.2-.008A.092.092,0,0,0,7.689,19a1.029,1.029,0,0,1,.5.034l.11.1c.068,0,.184-.025.073-.069.251.1.421.113.5.2a9.677,9.677,0,0,1,1.644-.125l-.013.042c.144.028.068-.077.168-.056-.042.042.115.077.007.134.208.03.255-.1.383-.131.013-.056-.1.048-.083-.024.02-.023.283.007.3-.079.055.024.025.09,0,.127.039-.017.077-.039.115-.059.082.034,0,.091-.073.152s-.159.114-.069.163c.038-.01.077-.017.114-.028.125.07-.3.138,0,.128.122-.063.208-.2.091-.214.256-.07.086-.21.36-.259.042.015-.011.031-.068.048s-.115.034-.083.062c.145.045.252-.093.372-.094-.134,0-.045-.107.032-.139.146.006-.07.1.127.059.021-.055.187-.139.027-.128.041-.122.207-.028.287-.137.084.053-.149.224.075.2-.053-.056.229-.177.086-.244.087-.007.114.044.069.107.132,0,.238-.22.325-.1l.013-.084c.044.008.1.006.175.02a1.949,1.949,0,0,0,.186-.111c.062-.039.115-.062.134-.007.027-.025.255-.122.135-.153-.159.02-.138.124-.256.063.132.034.2-.1.263-.163l.031.034c.041-.035.153-.082.16-.139-.024.041.007.058.049.048l.018-.084c.173-.127.1.082.273-.032-.038.041-.077.079-.117.118.025-.027.12,0,.2-.07,0-.072.032-.172.038-.228.087-.08.08.032.148-.077l-.094.138c-.011.028.139.038.274-.048.075-.073.158-.229.007-.172.065-.042.177-.072.149,0,.138-.114-.055-.042.053-.155.075,0,.265-.068.4-.09l-.073.176.089-.062c-.068.148.094.008.079.124a.486.486,0,0,0,.17-.172c-.253.025.077-.3-.049-.356.207-.2.336.117.443-.231-.059.008-.013-.156-.128-.01.145-.11.014-.169.2-.279-.08.146.21-.025.093.187-.015-.039-.115.065-.135.1.089-.015.073.107.213-.024.076-.089.189-.2.128-.231-.053-.048-.122.127-.118.024.148-.173.251-.127.225-.283-.091.111-.169.083-.2.046.034-.044.062-.093.093-.139l.011.056c.207-.168-.008-.115.176-.291l.148-.028c.023.1-.28.249-.153.307.121-.118.11-.2.238-.3-.014.034-.044.073-.058.107.042-.042.214.025.3-.224.048-.122-.015-.055-.051-.089.153-.224.169-.313.262-.459.056.086.184-.245.153-.031a.716.716,0,0,0-.2.21.529.529,0,0,0-.121.276c.075,0,.038.037-.01.091s-.115.121-.09.182c.146-.165.225-.087.3-.069a.427.427,0,0,0,.07-.149c-.038-.063-.087,0-.145-.039a1.141,1.141,0,0,0,.3-.546c.076-.048.117.013.066.1.08-.124.158-.255.241-.38l.242-.366c-.187.1.131-.283-.013-.221-.094.117-.228.186-.231.091.052-.076.041.027.082.006.006-.13.176-.111.142-.259-.087.252.1.11.153.194.045-.2.052.037.139-.135.049-.194.108-.429.18-.631a1.373,1.373,0,0,0,.2-.428c.044-.162.076-.324.113-.438.077-.108.149,0,.2-.125.042-.156-.137.086-.027-.132l.013.028c0-.038.048-.138.073-.246s.038-.217-.024-.267l.089.1a.242.242,0,0,0,0-.127c.035.006.077-.039.083.038.11-.131.046-.313.075-.472l-.082.091c0-.279.08-.455.091-.722l.062.014-.025-.162c.058.044.107-.1.063-.189.039.141.082.286.118.431-.051.113-.061-.135-.131-.068a.386.386,0,0,0-.02.352.336.336,0,0,0-.007-.177c.09-.021.069.122.117.2,0-.051.038-.12.013-.134a.811.811,0,0,1,0,.37c-.014-.117-.063.052-.08.006.073.025.069.187.01.386-.122.124-.024.391-.117.617a1.048,1.048,0,0,1-.076-.4c-.073.134-.031.162-.111.294a.529.529,0,0,1,.087.356l-.058-.007c-.025.177.052.2-.034.414-.075.18-.16.358-.229.529s-.152.325-.218.457l-.056-.015a.657.657,0,0,1-.1.358,2.7,2.7,0,0,0-.179.366A4.416,4.416,0,0,0,18,15.52a.952.952,0,0,1-.284.335,6.432,6.432,0,0,1-1.251,1.481l.028-.141c-.048.13-.09.021-.172.108.149-.041-.069.175-.1.27a2.094,2.094,0,0,0-.4.3c-.125.118-.246.238-.342.343l-.041-.041a.965.965,0,0,1-.355.284c-.142.076-.307.132-.459.213a.344.344,0,0,0-.214.032,1.6,1.6,0,0,1-.441.373,3.393,3.393,0,0,1-.7.224,7.747,7.747,0,0,1-2.234.649l-.065-.059a3.327,3.327,0,0,1-.6.108,5.467,5.467,0,0,1-.626.013L9.437,20l-.3-.024c-.193-.011-.374-.028-.541-.032l.077-.106c-.2-.056-.466-.038-.428.051a1.919,1.919,0,0,0-.348-.061.5.5,0,0,1-.279-.107c-.2-.066-.263-.011-.438-.044-.2-.076-.335-.131-.469-.179-.068-.023-.135-.044-.21-.066l-.249-.083.09.044c.051-.007.07-.052-.018-.094a2.31,2.31,0,0,1-.293-.1c-.093-.035-.158-.045-.117.048a7.082,7.082,0,0,1-1.233-.7c.01.051-.082,0-.134,0-.08-.051-.158-.106-.234-.162L4.1,18.21a2.627,2.627,0,0,0-.415-.293c-.035-.052.114.008,0-.089-.08-.045-.032.037-.134-.017a6.644,6.644,0,0,1-1.23-1.3,6.859,6.859,0,0,1-.914-1.18,11.454,11.454,0,0,1-.677-1.3h.03a1.152,1.152,0,0,1-.2-.481.767.767,0,0,0-.2-.434c0-.079-.068-.279,0-.239a1.255,1.255,0,0,1-.13-.474c-.014-.094-.03-.191-.052-.286A1.266,1.266,0,0,0,.1,11.847a.211.211,0,0,0,.031.087,3.978,3.978,0,0,0-.065-.528c-.014-.086-.028-.173-.039-.263a1.851,1.851,0,0,1,0-.28c.014.038.028.108.056.117.042-.151-.145-.343-.014-.432,0-.084-.068-.058-.063-.006.01-.211,0-.427.01-.643l0-.327.013-.329c0-.221.03-.442.044-.664.031-.22.048-.443.1-.66.11-.3.166-.294.2-.28s.034.041.055-.21C.452,7.4.376,7.386.4,7.387a.36.36,0,0,1,.114-.214c.052-.053.1-.1.087-.175C.511,7.026.59,6.9.545,6.881a3.265,3.265,0,0,1,.213-.36A.976.976,0,0,0,.88,6.192l.03.038c.031-.373.27-.714.3-1.043A10.022,10.022,0,0,1,5.276,1.106,10.6,10.6,0,0,1,7.989.165,9.741,9.741,0,0,1,9.42-.006,9.136,9.136,0,0,1,10.873.06a2.6,2.6,0,0,0,.971.2c-.024.014-.055.013-.025.035.044-.09.345.065.411-.01a11.407,11.407,0,0,1,2.01.694c-.111-.039-.2,0-.068.056.052,0,.106,0,.156.01l.01.034c.09.031.2.038.13-.034a7.9,7.9,0,0,1,2.278,1.6,11.7,11.7,0,0,1,.915,1.03c.277.363.545.733.787,1.119.2.386.518.909.717,1.339A12.653,12.653,0,0,1,19.627,8.1c.1.649.169,1.3.213,2a.608.608,0,0,1-.13-.162A1.748,1.748,0,0,1,19.516,9.361Z" transform="translate(0.001 0.01)" fill="#33a6dd"/>
      <path id="Path_1813" data-name="Path 1813" d="M138.375,74.713c-.045.046-.082.2-.135.073C138.284,74.774,138.334,74.695,138.375,74.713Z" transform="translate(-118.78 -64.192)" fill="#33a6dd"/>
      <path id="Path_1814" data-name="Path 1814" d="M128.365,101.147c.01.011-.042.042-.055.049.02-.045.006-.1.045-.127C128.334,101.115,128.358,101.118,128.365,101.147Z" transform="translate(-110.248 -86.841)" fill="#33a6dd"/>
      <path id="Path_1815" data-name="Path 1815" d="M124.87,105.633c-.027-.035.063-.234.127-.343Z" transform="translate(-107.289 -90.467)" fill="#33a6dd"/>
      <path id="Path_1816" data-name="Path 1816" d="M119.638,111.912c-.077.039-.077.011-.01-.072C119.65,111.847,119.636,111.882,119.638,111.912Z" transform="translate(-102.745 -96.095)" fill="#33a6dd"/>
      <path id="Path_1817" data-name="Path 1817" d="M119.387,113.053a.25.25,0,0,1-.137.086C119.278,113.158,119.35,112.989,119.387,113.053Z" transform="translate(-102.463 -97.125)" fill="#33a6dd"/>
      <path id="Path_1818" data-name="Path 1818" d="M108.342,122.328c-.035.032-.1.124-.162.113C108.241,122.439,108.333,122.256,108.342,122.328Z" transform="translate(-92.952 -105.092)" fill="#33a6dd"/>
      <path id="Path_1819" data-name="Path 1819" d="M103.53,126.388a.181.181,0,0,0-.066.042c-.058.011-.023-.042.015-.07Z" transform="translate(-88.873 -108.571)" fill="#33a6dd"/>
      <path id="Path_1820" data-name="Path 1820" d="M6.86,87.15l.042.1-.042,0Z" transform="translate(-5.894 -74.881)" fill="#33a6dd"/>
      <path id="Path_1821" data-name="Path 1821" d="M16.04,35.063c.035-.1.073-.038.087-.048C16.077,35.094,16.1,34.958,16.04,35.063Z" transform="translate(-13.782 -30.076)" fill="#33a6dd"/>
      <path id="Path_1822" data-name="Path 1822" d="M35.9,13.9l-.027.017-.034-.077Z" transform="translate(-30.795 -11.89)" fill="#33a6dd"/>
    </g>
  </g>
</svg>
