<svg xmlns="http://www.w3.org/2000/svg" width="64.911" height="64.911" viewBox="0 0 64.911 64.911">
  <g id="tick-purple" transform="translate(-655.174 -490.066)">
    <g id="cirlce" transform="matrix(-0.259, 0.966, -0.966, -0.259, 720.085, 503.784)">
      <ellipse id="Ellipse_266" data-name="Ellipse 266" cx="23.955" cy="24.997" rx="23.955" ry="24.997" transform="translate(0.949 50.181) rotate(-90)" fill="#8a56b7"/>
      <g id="Group_1058" data-name="Group 1058" transform="translate(0 0)">
        <path id="Path_2276" data-name="Path 2276" d="M.173.4c0-.606-.307.3-.1-.4C.173.1.275.2.173.4Z" transform="translate(51.803 26.726)" fill="#8a56b7"/>
        <path id="Path_2277" data-name="Path 2277" d="M51.771,24.907a5.792,5.792,0,0,1-.512-1.415c-.1-.505-.2-1.011-.307-1.617a9.357,9.357,0,0,0-.41-1.617,3.519,3.519,0,0,0-.615-1.415c-.1-.2.512-.1.2-.606-.307-.4-.615-.909-.922-1.415A8.9,8.9,0,0,1,48.39,15.1c-.615-1.112-1.127-2.425-1.639-3.537h.2c-.2-.4-.819-.606-1.127-1.011.1-.1.2,0,.2-.1-.307.1-.717-.606-1.024-.606-.1-.2.1-.3,0-.606H44.6c-1.024,0-1.332-1.314-2.356-1.718.1,0,.2,0,.2-.1C40.81,6.717,39.171,5.5,37.43,4.9c.1-.1.307-.2.2-.4-.2.2-.819.1-1.229-.1-.1-.4-.922,0-1.332-.4l.1-.1c-.512.2-.512-.4-1.024-.1l-.307-.2c-.307.4-.512-.4-.922-.2v.1c-.307,0-.512-.2-.819-.2v-.1c-.717-.1-1.127-.4-1.127,0-.2-.3.717,0,.41-.505a59.868,59.868,0,0,0-7.375,0c-.307-.1-.512-.1-.512-.2-.2.1-.922.2-1.127.4.1,0-.2-.2-.307-.2-.512-.1-.41.4-.922.4a.248.248,0,0,0,.1-.4c-.307.4-.922.505-1.332.707.1-.1.2-.1.1-.2-.41.4-1.024.2-1.332.505l.1-.3c-.819,0-.1.505-.717.606.1-.1,0-.2,0-.3-.41.505-1.434.808-1.844,1.213V4.8a11.486,11.486,0,0,0-1.844,1.011c-.307.1-.2-.505-.717-.1.2.3-.922.808-.307.909a6.408,6.408,0,0,0-1.639,1.011c.1-.3-.512-.2-.2-.505H11.1c-.1-.2.307-.2.1-.3a6.6,6.6,0,0,1-.922.808,2.721,2.721,0,0,1-.615,1.718c.1-.3-.512-.2-.307-.4a5.056,5.056,0,0,0-.2,1.314c-.1.2-.307-.2-.41.1.1.1,0,.2,0,.4-.1,0-.615.808-1.024.606-.2,0,.2-.3-.1-.2-.307.3-.2.505-.512.808h0c-.2.2-.41.808,0,.707.1-.2-.2-.1,0-.3.1.3-.1.707-.41,1.112,0-.2-.1-.2-.1-.3a13.316,13.316,0,0,1-.512,1.92c.2.1-.2-.4,0-.4a2.4,2.4,0,0,0-.615,1.112,1.607,1.607,0,0,1-.512,1.011c0-.1.307.1.2,0-.2.3-.41.2-.512.505-.2,0-.1.3-.1.606.1.2-.1,0,0-.2a7.8,7.8,0,0,1-.717,2.627c.1,0,.2.606.2.808l-.2-.1c-.2.1-.1.606-.41.606.2.505.2-1.718.2-1.011-.2.1.2.909-.1.707-.1.4.1.808-.2,1.213.1-.1-.307-.4-.307-.1,0,.606.1.2.1.707l.1.3c.2.1-.1.505.2.3-.2,0,0,.808-.41.707L2.7,24.4c0,.3.307.4.41.606l-.1.1c.512.1-.1.606.307.909-.1.3-.1.606-.2.909a.845.845,0,0,1-.2.707,2.78,2.78,0,0,1,.1,1.011.219.219,0,0,0-.2-.2c-.1.3,0,.4.1.606-.1,0-.2.606-.307.909.2.4.41.3.615.3-.41.4.41,1.011.1,1.516-.1-.1-.41-.505-.41-.2-.41.505.512.606.41,1.213l.41-.2c-.2.3.41.808,0,.808.2.1.1.707.41.505a8.328,8.328,0,0,0,.41,1.516c.2.505.41.909.2,1.314.1.1.2.4.41.3.1-.3-.307-.2-.2-.4a.319.319,0,0,0,.2.1c0,.3.1.505-.307.4.2.909,1.024.505,1.332,1.213q-.307,0,0,.3l.512.2c.2.505-.2.505-.41.606.2.2.41.505.615.505l-.1.505c0-.4.307.1.41.2l-.1-.1c-.1.1.2.3.307.505.1-.1,0-.505-.1-.606.2,0,.307.2.512.3-.307.1.1.505.2.707.1.3.41.1.41.1-.1.1.307.3,0,.3-.1,0,0-.2-.2-.3,0,.2-.2.3.2.505.307.1.41-.4.615.1-.1-.1-.2,0-.41,0l.2.505.2-.2c0,.1,0,.1-.1.1.307-.1.615.505.819.4.2.1.307.505.41.606h0a.889.889,0,0,0,.717.505h0a1.174,1.174,0,0,0,.615.3c.2.4-.512.808.1.808.307.2.819,0,.717-.2a3.184,3.184,0,0,0,.922.707c.307.2.615.3.819.707.1,0,.1-.1.307-.1.819.707,2.049.707,2.663,1.617-.307,0-.1.2-.2.3.307-.1.2.3.41,0,.1-.2.1-.3-.1-.505a3.464,3.464,0,0,1,1.741.707c-.1-.2,0-.2.2-.2-.2.3.307.505.615.505l.1-.2.2.3c.1,0,.307-.4.512-.1v.2a2.007,2.007,0,0,1,1.332,0l.307.4c.2,0,.512-.2.2-.3.615.3,1.024.4,1.229.707a22.041,22.041,0,0,1,4.4-.3v.2c.41.1.2-.3.41-.2-.1.2.307.3,0,.505.512.2.615-.3.922-.505,0-.2-.2.2-.2-.1,0-.1.717.1.717-.3a.454.454,0,0,1,0,.505l.307-.2c.41.3-.819.808-.307,1.213l.307-.1c.307.3-.717.505,0,.505.307-.2.512-.707.2-.808.615-.2.2-.808.922-.91.2.2-.512.2-.41.4.41.2.615-.3.922-.3-.307,0-.1-.4,0-.505.41.1-.1.4.307.3,0-.2.41-.4,0-.505.1-.4.512,0,.717-.4.2.2-.307.808.307.808-.2-.2.512-.606.1-.909.2,0,.307.2.2.4.307.1.512-.707.819-.2v-.3c.1.1.307.1.512.2.307-.1.717-.707.819-.3.1-.1.615-.3.307-.505-.41,0-.307.4-.717.1.41.2.512-.3.615-.505l.1.1c.1-.1.41-.2.41-.4a.219.219,0,0,0,.2.2v-.3c.41-.3.307.4.717.1a1.4,1.4,0,0,0-.307.4c.1-.1.307.1.512-.1v-.808c.2-.2.2.2.41-.2l.1.4c0,.1.41.2.717,0,.2-.2.307-.707-.1-.606.2-.1.512-.1.41.1.307-.3-.2-.2.1-.505.2.1.717-.1,1.127-.1l-.1.606.2-.2c-.1.505.307.1.307.505a1.012,1.012,0,0,0,.41-.505c-.819-.1,0-.909-.41-1.213.512-.505,1.127.606,1.229-.505-.2,0-.2-.505-.41-.1.41-.3-.1-.606.41-.808-.2.4.717.1.41.707-.1-.1-.307.1-.41.2.307,0,.307.4.615.1.2-.2.512-.505.307-.606-.2-.2-.307.3-.41,0,.41-.4.717-.2.512-.707-.2.3-.512.1-.615,0,.1-.1.1-.3.2-.4l.1.2c.512-.4-.1-.4.307-.808h.512c.1.3-.717.606-.307.909.307-.3.2-.606.615-.808,0,.1-.1.2-.1.3.1-.1.717.2.819-.505.1-.3-.1-.2-.2-.3.41-.606.307-.909.615-1.213.2.3.512-.606.512,0-.307.1-.922.808-.717,1.314q.307,0,0,.3c-.1.1-.307.3-.2.505.41-.4.717-.1,1.024,0a.6.6,0,0,0,.1-.4c-.2-.2-.307-.1-.512-.2a2.64,2.64,0,0,0,.717-1.415.225.225,0,0,1,.307.3c.41-.606.819-1.314,1.229-1.92-.615.2.307-.707-.2-.606-.307.3-.717.4-.819.1.1-.2.2.1.307.1-.1-.4.615-.2.41-.606-.2.707.41.4.717.606,0-.505.2.1.41-.3a8.99,8.99,0,0,1,.307-1.617c.512-.505.615-1.617.819-2.223.2-.3.615.1.717-.3s-.512.2-.2-.4l.1.1c0-.2.512-1.011,0-1.314l.41.3c.1-.1,0-.2,0-.3.1,0,.307-.1.307.1.41-.3.1-.808.2-1.213l-.307.2c-.1-.707.2-1.112.2-1.819h.2l-.1-.4c.2.1.41-.2.2-.505a5.38,5.38,0,0,1,.512,1.112c-.2.3-.307-.4-.512-.2-.2.1-.307.808,0,.909.1-.2,0-.3,0-.505.307,0,.307.3.512.505,0-.1.1-.3,0-.3a2.78,2.78,0,0,1,.1,1.011c-.1-.3-.2.1-.307,0,.307.1.307.505.2,1.011-.41.3,0,1.011-.307,1.617a2.1,2.1,0,0,1-.41-1.112c-.2.3-.1.4-.307.707a1.381,1.381,0,0,1,.512,1.011h-.2c0,.505.307.606,0,1.112-.2.505-.41.909-.615,1.415l-.615,1.213-.2-.1c.307.606-.512,1.314-.615,1.92a5.717,5.717,0,0,0-.819,1.314,1.577,1.577,0,0,1-.819.808,6.786,6.786,0,0,1-.717,1.112c-.2.3-.512.707-.717,1.011a8.859,8.859,0,0,0-.819,1.011,9.193,9.193,0,0,1-1.024.909v-.4c-.1.4-.307,0-.512.2.41,0-.1.505-.1.808a5.3,5.3,0,0,0-1.946,1.718l-.1-.2c-.41.707-1.332.91-2.151,1.314-.1,0-.41-.1-.615,0a3.869,3.869,0,0,1-1.127,1.112,6.284,6.284,0,0,1-1.844.505c-1.741,1.213-3.893,1.314-5.941,1.92l-.1-.505a8.865,8.865,0,0,1-3.278.4c-1.127-.1-2.151-.1-3.073-.2l.2-.4c-.512-.2-1.229-.1-1.127.3a2.873,2.873,0,0,0-.922-.1c-.307-.1-.615-.1-.717-.3-.512-.2-.717,0-1.229,0a24.183,24.183,0,0,0-2.458-.909l.2.1c.1-.1.2-.2,0-.3-.41,0-1.332-.707-1.127,0a4.6,4.6,0,0,0-1.741-.808,3.39,3.39,0,0,1-1.537-1.011c0,.2-.2.1-.41.1-.2-.1-.41-.3-.615-.4-.2-.2-.41-.3-.512-.505a3.467,3.467,0,0,0-1.127-.707c-.1-.2.41,0,0-.3-.2-.1-.1.1-.41,0a9.172,9.172,0,0,1-1.844-1.617c-.512-.606-.922-1.314-1.434-1.819a20.466,20.466,0,0,1-4.3-6.467h.1c-.717-.606-.307-2.021-1.127-2.425,0-.2-.1-.707.1-.707a2.133,2.133,0,0,1-.307-1.213,4.19,4.19,0,0,0-.41-1.516c0,.1,0,.1.1.2a6.584,6.584,0,0,0-.1-1.415,3.184,3.184,0,0,1-.2-1.617c.1.1.1.3.2.3.2-.4-.512-.909,0-1.112,0-.2-.307-.1-.2,0,.1-2.223,0-4.649.307-6.973.717-1.516.922.1.819-1.213.1-.1-.2-.1-.1-.1,0-.505.819-.606.615-1.011-.41,0-.1-.3-.307-.3.512-.909.922-1.011.922-1.819l.1.1c0-1.011.615-1.92.615-2.83A26.712,26.712,0,0,1,13.869,2.978,32.7,32.7,0,0,1,21.142.452a22.341,22.341,0,0,1,7.785-.2,3.742,3.742,0,0,0,2.561.606l-.1.1c.1-.4.922.2,1.127-.1.922.3,1.844.505,2.766.808a20.7,20.7,0,0,1,2.663,1.011c-.307-.1-.615.1-.2.2h.41v.1c.512,0,.819,0,.615-.2A20.14,20.14,0,0,1,44.907,7.02a31.3,31.3,0,0,1,2.458,2.728l1.024,1.516a13.152,13.152,0,0,1,1.024,1.516c.2.505.615,1.112.922,1.718s.717,1.213,1.024,1.819A62.211,62.211,0,0,1,53,26.827,2.554,2.554,0,0,1,51.771,24.907Z" transform="translate(0)" fill="#8a56b7"/>
        <path id="Path_2278" data-name="Path 2278" d="M.512,0C.307.1.2.505,0,.2.2.2.41,0,.512,0Z" transform="translate(51.463 27.837)" fill="#8a56b7"/>
        <path id="Path_2279" data-name="Path 2279" d="M.2.2A.359.359,0,0,1,0,.3C0,.2,0,0,.1,0,0,.1.1.1.2.2Z" transform="translate(47.366 37.235)" fill="#8a56b7"/>
        <path id="Path_2280" data-name="Path 2280" d="M.028.909C-.075.808.13.3.233,0Z" transform="translate(46.109 38.65)" fill="#8a56b7"/>
        <path id="Path_2281" data-name="Path 2281" d="M.17.2c-.2.1-.2,0-.1-.2C.17,0,.17.1.17.2Z" transform="translate(44.021 40.873)" fill="#8a56b7"/>
        <path id="Path_2282" data-name="Path 2282" d="M.41.048A.781.781,0,0,1,0,.25C.1.351.2-.154.41.048Z" transform="translate(43.986 41.331)" fill="#8a56b7"/>
        <path id="Path_2283" data-name="Path 2283" d="M.41.1C.307.2.2.4,0,.4.2.3.41-.207.41.1Z" transform="translate(39.888 44.517)" fill="#8a56b7"/>
        <path id="Path_2284" data-name="Path 2284" d="M.323.1c-.1,0-.1,0-.2.1-.2,0-.1-.2,0-.2Z" transform="translate(38.233 46.027)" fill="#8a56b7"/>
        <path id="Path_2285" data-name="Path 2285" d="M0,0,.2.2H0Z" transform="translate(3.523 32.284)" fill="#8a56b7"/>
        <path id="Path_2286" data-name="Path 2286" d="M0,.167c.1-.3.2-.1.307-.1C.2.268.2-.035,0,.167Z" transform="translate(6.801 13.624)" fill="#8a56b7"/>
        <path id="Path_2287" data-name="Path 2287" d="M.2.2V.3L0,0Z" transform="translate(13.767 5.807)" fill="#8a56b7"/>
      </g>
    </g>
    <path id="Checkbox" d="M8.328,14.008,0,5.953,1.69,4.319l6.638,6.3L22.169-4.78l1.69,1.634Z" transform="translate(677 515.992)" fill="#fff"/>
  </g>
</svg>
