<?xml version="1.0" encoding="utf-8"?>
<!-- Generator: Adobe Illustrator 23.0.0, SVG Export Plug-In . SVG Version: 6.00 Build 0)  -->
<svg version="1.1" id="YouTube" xmlns="http://www.w3.org/2000/svg" xmlns:xlink="http://www.w3.org/1999/xlink" x="0px" y="0px"
	 viewBox="0 0 30 21.2" style="enable-background:new 0 0 30 21.2;" xml:space="preserve">
<style type="text/css">
	.st0{fill:#F5F5F1;}
</style>
<path id="Path_410" class="st0" d="M29.6,4.5c-0.2-1.1-0.6-2.1-1.2-3c-0.8-0.8-1.9-1.3-3-1.3C21.2,0,14.9,0,14.9,0S7.1,0.1,4.8,0.3
	c-1.2,0-2.4,0.4-3.3,1.2c-0.6,0.9-1,1.9-1.1,3C0.1,6.2,0,7.8,0,9.4v2.3c0,1.6,0.1,3.3,0.3,4.9c0.2,1.1,0.6,2.1,1.2,3
	c0.8,0.8,1.9,1.3,3,1.3C8.8,21.2,15,21.2,15,21.2l0,0c0,0,6.2,0,10.5-0.3c1.1,0,2.2-0.5,3-1.3c0.6-0.9,1.1-1.9,1.2-3
	c0.2-1.6,0.3-3.2,0.3-4.9V9.4C29.8,7,29.6,4.5,29.6,4.5z M11.8,15V6.6l8.1,4.2L11.8,15z"/>
</svg>
