<svg xmlns="http://www.w3.org/2000/svg" width="316.718" height="87.525" viewBox="0 0 316.718 87.525">
  <g id="IFPMA_-_Full_logo" data-name="IFPMA - Full logo" opacity="0.6">
    <g id="Group_673" data-name="Group 673">
      <path id="Path_335" data-name="Path 335" d="M59.574,18.446a13.849,13.849,0,0,0-11.139-3.8c-5.285.5-11.966,5.005-14.725,11a49.157,49.157,0,0,0-2.089,5.24c.436-.223.871-.436,1.318-.648a31.491,31.491,0,0,1,9.865-2.8c8.7-.961,16.122,2.19,19.362,8.212a15.041,15.041,0,0,1,1.452,3.955,31.24,31.24,0,0,0,1.441-6.234,19.087,19.087,0,0,0-5.486-14.926" transform="translate(3.707 1.709)" fill="#fff"/>
      <path id="Path_336" data-name="Path 336" d="M22.207,43.1a74.821,74.821,0,0,1-2.626-7.508C17.19,27.18,15.6,17.4,19.034,5.17A31.192,31.192,0,0,0,21.927,57.8c-4.111-4.983-1.978-10.849.279-14.7" transform="translate(0.697 0.606)" fill="#fff"/>
      <path id="Path_337" data-name="Path 337" d="M27.994,4.592c-3.162,4.179-4.759,11.061-4.6,19.932a69.621,69.621,0,0,0,1.732,13.184c.413-.369.827-.737,1.274-1.095a45.209,45.209,0,0,1,2.447-13.541A23.021,23.021,0,0,1,47.87,8.223a17.176,17.176,0,0,1,9.687,1.318A31.1,31.1,0,0,0,36.407.011C36.284.011,36.139,0,36,0a10.987,10.987,0,0,0-8.011,4.592" transform="translate(2.741)" fill="#fff"/>
      <path id="Path_338" data-name="Path 338" d="M57.169,39.24c-2.681-5.218-9.016-8.089-16.122-7.307A23.319,23.319,0,0,0,33.539,34.1a24.32,24.32,0,0,0-3.363,1.933c-.8,5.832-.492,12.647.838,22.423.659.067,1.33.123,2,.156a31.092,31.092,0,0,0,23.328-9.061,10.084,10.084,0,0,0,.827-10.312" transform="translate(3.487 3.729)" fill="#fff"/>
      <path id="Path_339" data-name="Path 339" d="M29.3,56.5A129.048,129.048,0,0,1,22.979,44.63a11.7,11.7,0,0,0-.1,7.966c.771,2.19,4.2,3.441,6.447,3.977h.022A.28.28,0,0,0,29.3,56.5" transform="translate(2.606 5.233)" fill="#fff"/>
      <path id="Path_340" data-name="Path 340" d="M8,63.1a.936.936,0,0,1,.972-.883h9.407v2.815H11.754v4.38h6.614v2.8H11.754v7.8H8Z" transform="translate(0.938 7.295)" fill="#fff"/>
      <path id="Path_341" data-name="Path 341" d="M25.137,62.23H21.372a.928.928,0,0,0-.972.883V80.039h3.743V73.28h1.586c4.011,0,7.2-1.508,7.2-5.664-.011-4.257-3.732-5.385-7.787-5.385m.324,8.234H24.154v-5.43h1.307c1.922,0,3.553.715,3.553,2.771s-1.687,2.659-3.553,2.659" transform="translate(2.392 7.296)" fill="#fff"/>
      <path id="Path_342" data-name="Path 342" d="M0,63.1a.932.932,0,0,1,.961-.883H3.732v17.8H0Z" transform="translate(0 7.295)" fill="#fff"/>
      <path id="Path_343" data-name="Path 343" d="M39.141,62.231a.966.966,0,0,1,.927.637L44.3,75.728h.045l4.234-12.871a.972.972,0,0,1,.927-.626h4.3a.918.918,0,0,1,.961.883V80.04H51.2v-14.7H51.14L46.124,80.029H42.549L37.521,65.337l-.056.056V80.029H33.89V63.1a.936.936,0,0,1,.972-.883h4.279Z" transform="translate(3.974 7.295)" fill="#fff"/>
      <path id="Path_344" data-name="Path 344" d="M65.5,62.23H61.944a.975.975,0,0,0-.916.581L54,80.028h3.877l1.631-4.078h7.564l1.609,4.078h4.145Zm-4.916,10.9,2.693-7.34h.056l2.7,7.34Z" transform="translate(6.332 7.296)" fill="#fff"/>
    </g>
    <g id="Group_676" data-name="Group 676" transform="translate(102.653 25.786)">
      <path id="Path_345" data-name="Path 345" d="M93.958,23.62V34.994H91.88V23.62Z" transform="translate(-91.88 -23.017)" fill="#fff"/>
      <path id="Path_346" data-name="Path 346" d="M95.877,28.907c0-.95-.034-1.743-.067-2.447h1.81l.1,1.229h.045A3.022,3.022,0,0,1,100.4,26.27c1.43,0,2.916.927,2.916,3.531v4.882H101.24V30.046c0-1.184-.436-2.078-1.564-2.078a1.736,1.736,0,0,0-1.62,1.218,1.947,1.947,0,0,0-.1.659v4.849H95.877V28.907Z" transform="translate(-91.419 -22.706)" fill="#fff"/>
      <path id="Path_347" data-name="Path 347" d="M106.918,24.56v2.112H108.9v1.553h-1.978v3.631c0,1.017.268,1.519,1.061,1.519a3.087,3.087,0,0,0,.8-.078l.034,1.575a4.713,4.713,0,0,1-1.508.223,2.357,2.357,0,0,1-1.788-.67,3.218,3.218,0,0,1-.659-2.313V28.247H103.7V26.694h1.162V25.152Z" transform="translate(-90.494 -22.906)" fill="#fff"/>
      <path id="Path_348" data-name="Path 348" d="M111.169,31.164c.045,1.486,1.2,2.123,2.536,2.123a6.548,6.548,0,0,0,2.279-.38l.3,1.419a7.4,7.4,0,0,1-2.871.525,3.889,3.889,0,0,1-4.234-4.156c0-2.279,1.385-4.424,4.022-4.424,2.67,0,3.542,2.19,3.542,4a5.228,5.228,0,0,1-.067.883h-5.508Zm3.609-1.464a1.767,1.767,0,0,0-1.7-2.011,2.035,2.035,0,0,0-1.91,2.011Z" transform="translate(-89.852 -22.706)" fill="#fff"/>
      <path id="Path_349" data-name="Path 349" d="M117.457,29.107c0-1.106-.022-1.922-.067-2.648h1.788l.089,1.553h.056a2.44,2.44,0,0,1,2.257-1.732,3.209,3.209,0,0,1,.492.045v1.944a3.331,3.331,0,0,0-.626-.056,1.819,1.819,0,0,0-1.855,1.575,3.62,3.62,0,0,0-.056.626v4.268h-2.078Z" transform="translate(-88.889 -22.705)" fill="#fff"/>
      <path id="Path_350" data-name="Path 350" d="M122.837,28.907c0-.95-.034-1.743-.067-2.447h1.81l.1,1.229h.056a3.022,3.022,0,0,1,2.637-1.419c1.43,0,2.927.927,2.927,3.531v4.882h-2.078V30.046c0-1.184-.436-2.078-1.575-2.078a1.747,1.747,0,0,0-1.62,1.218,1.947,1.947,0,0,0-.1.659v4.849h-2.078V28.907Z" transform="translate(-88.258 -22.706)" fill="#fff"/>
      <path id="Path_351" data-name="Path 351" d="M137.92,32.705a11.21,11.21,0,0,0,.134,1.978h-1.877l-.156-.916h-.056a3.017,3.017,0,0,1-2.424,1.095,2.437,2.437,0,0,1-2.581-2.447c0-2.056,1.843-3.117,4.882-3.106v-.134c0-.547-.223-1.441-1.676-1.441a4.351,4.351,0,0,0-2.212.614l-.4-1.352a5.8,5.8,0,0,1,2.972-.726c2.637,0,3.4,1.676,3.4,3.475Zm-2.033-2.033c-1.464-.022-2.871.29-2.871,1.542A1.091,1.091,0,0,0,134.2,33.4a1.7,1.7,0,0,0,1.631-1.128,1.29,1.29,0,0,0,.056-.458Z" transform="translate(-87.298 -22.706)" fill="#fff"/>
      <path id="Path_352" data-name="Path 352" d="M141.517,24.56v2.112h1.978v1.553h-1.978v3.631c0,1.017.268,1.519,1.061,1.519a3.239,3.239,0,0,0,.816-.078l.034,1.575a4.713,4.713,0,0,1-1.508.223,2.357,2.357,0,0,1-1.788-.67,3.218,3.218,0,0,1-.659-2.313V28.247H138.31V26.694h1.162V25.152Z" transform="translate(-86.436 -22.906)" fill="#fff"/>
      <path id="Path_353" data-name="Path 353" d="M146.575,24.508A1.168,1.168,0,1,1,145.4,23.38,1.108,1.108,0,0,1,146.575,24.508Zm-2.212,10.513V26.8h2.078v8.223Z" transform="translate(-85.741 -23.045)" fill="#fff"/>
      <path id="Path_354" data-name="Path 354" d="M156.1,30.493a4.07,4.07,0,0,1-4.223,4.368,3.976,3.976,0,0,1-4.123-4.234,4.062,4.062,0,0,1,4.257-4.357A3.96,3.96,0,0,1,156.1,30.493Zm-6.2.089c0,1.586.793,2.782,2.045,2.782,1.184,0,2.011-1.151,2.011-2.815,0-1.285-.57-2.771-1.989-2.771C150.487,27.778,149.9,29.22,149.9,30.583Z" transform="translate(-85.329 -22.706)" fill="#fff"/>
      <path id="Path_355" data-name="Path 355" d="M156.757,28.907c0-.95-.034-1.743-.067-2.447h1.81l.1,1.229h.056a3.022,3.022,0,0,1,2.637-1.419c1.43,0,2.927.927,2.927,3.531v4.882h-2.078V30.046c0-1.184-.436-2.078-1.575-2.078a1.747,1.747,0,0,0-1.62,1.218,1.947,1.947,0,0,0-.1.659v4.849h-2.078V28.907Z" transform="translate(-84.281 -22.706)" fill="#fff"/>
      <path id="Path_356" data-name="Path 356" d="M171.84,32.705a11.21,11.21,0,0,0,.134,1.978H170.1l-.145-.916H169.9a3.025,3.025,0,0,1-2.436,1.095,2.437,2.437,0,0,1-2.581-2.447c0-2.056,1.843-3.117,4.882-3.106v-.134c0-.547-.223-1.441-1.665-1.441a4.319,4.319,0,0,0-2.212.614L165.472,27a5.833,5.833,0,0,1,2.972-.726c2.637,0,3.4,1.676,3.4,3.475Zm-2.033-2.033c-1.464-.022-2.871.29-2.871,1.542A1.091,1.091,0,0,0,168.12,33.4a1.676,1.676,0,0,0,1.631-1.128,1.29,1.29,0,0,0,.056-.458Z" transform="translate(-83.321 -22.706)" fill="#fff"/>
      <path id="Path_357" data-name="Path 357" d="M173.08,23.08h2.078V35.057H173.08Z" transform="translate(-82.359 -23.08)" fill="#fff"/>
      <path id="Path_358" data-name="Path 358" d="M180.161,23.62h6.581v1.709h-4.514v3.139h4.19v1.687h-4.19V35H180.15V23.62Z" transform="translate(-81.53 -23.017)" fill="#fff"/>
      <path id="Path_359" data-name="Path 359" d="M188.869,31.164c.056,1.486,1.2,2.123,2.536,2.123a6.547,6.547,0,0,0,2.279-.38l.3,1.419a7.443,7.443,0,0,1-2.871.525,3.889,3.889,0,0,1-4.234-4.156c0-2.279,1.385-4.424,4.022-4.424,2.67,0,3.542,2.19,3.542,4a5.226,5.226,0,0,1-.067.883h-5.508Zm3.609-1.464a1.76,1.76,0,0,0-1.7-2.011,2.035,2.035,0,0,0-1.911,2.011Z" transform="translate(-80.741 -22.706)" fill="#fff"/>
      <path id="Path_360" data-name="Path 360" d="M202.781,23.08v9.675c0,.849.034,1.754.067,2.313H201l-.1-1.3h-.034a2.946,2.946,0,0,1-2.67,1.486c-1.978,0-3.531-1.665-3.531-4.2-.022-2.748,1.709-4.391,3.676-4.391a2.62,2.62,0,0,1,2.313,1.061h.034V23.091h2.089ZM200.7,30.264a3.139,3.139,0,0,0-.045-.559,1.81,1.81,0,0,0-1.788-1.452c-1.33,0-2.078,1.184-2.078,2.7s.749,2.614,2.067,2.614a1.82,1.82,0,0,0,1.788-1.475,2.128,2.128,0,0,0,.067-.6V30.264Z" transform="translate(-79.828 -23.08)" fill="#fff"/>
      <path id="Path_361" data-name="Path 361" d="M205.448,31.164c.056,1.486,1.2,2.123,2.536,2.123a6.5,6.5,0,0,0,2.279-.38l.313,1.419a7.4,7.4,0,0,1-2.871.525,3.889,3.889,0,0,1-4.234-4.156c0-2.279,1.385-4.424,4.022-4.424,2.67,0,3.542,2.19,3.542,4a5.228,5.228,0,0,1-.067.883h-5.519Zm3.62-1.464a1.775,1.775,0,0,0-1.709-2.011,2.035,2.035,0,0,0-1.911,2.011Z" transform="translate(-78.796 -22.706)" fill="#fff"/>
      <path id="Path_362" data-name="Path 362" d="M211.737,29.107c0-1.106-.011-1.922-.067-2.648h1.788l.078,1.553h.056a2.464,2.464,0,0,1,2.268-1.732,3.209,3.209,0,0,1,.492.045v1.944a3.331,3.331,0,0,0-.626-.056,1.819,1.819,0,0,0-1.855,1.575,3.662,3.662,0,0,0-.045.626v4.268h-2.078V29.107Z" transform="translate(-77.835 -22.705)" fill="#fff"/>
      <path id="Path_363" data-name="Path 363" d="M223.4,32.705a11.21,11.21,0,0,0,.134,1.978h-1.877l-.145-.916h-.045a3.017,3.017,0,0,1-2.424,1.095,2.437,2.437,0,0,1-2.581-2.447c0-2.056,1.843-3.117,4.882-3.106v-.134c0-.547-.223-1.441-1.676-1.441a4.351,4.351,0,0,0-2.212.614L217.041,27a5.833,5.833,0,0,1,2.972-.726c2.637,0,3.4,1.676,3.4,3.475v2.961Zm-2.022-2.033c-1.464-.022-2.871.29-2.871,1.542a1.091,1.091,0,0,0,1.184,1.184,1.712,1.712,0,0,0,1.642-1.128,1.6,1.6,0,0,0,.045-.458v-1.14Z" transform="translate(-77.273 -22.706)" fill="#fff"/>
      <path id="Path_364" data-name="Path 364" d="M226.987,24.56v2.112h1.978v1.553h-1.978v3.631c0,1.017.268,1.519,1.061,1.519a3.239,3.239,0,0,0,.816-.078l.034,1.575a4.713,4.713,0,0,1-1.508.223,2.374,2.374,0,0,1-1.788-.67,3.218,3.218,0,0,1-.659-2.313V28.247H223.78V26.694h1.162V25.152Z" transform="translate(-76.415 -22.906)" fill="#fff"/>
      <path id="Path_365" data-name="Path 365" d="M232.015,24.508a1.168,1.168,0,1,1-1.173-1.128A1.1,1.1,0,0,1,232.015,24.508ZM229.8,35.022V26.8h2.078v8.223Z" transform="translate(-75.723 -23.045)" fill="#fff"/>
      <path id="Path_366" data-name="Path 366" d="M241.506,30.493a4.065,4.065,0,0,1-4.223,4.368,3.976,3.976,0,0,1-4.123-4.234,4.062,4.062,0,0,1,4.257-4.357A3.96,3.96,0,0,1,241.506,30.493Zm-6.2.089c0,1.586.793,2.782,2.045,2.782,1.184,0,2.011-1.151,2.011-2.815,0-1.285-.581-2.771-1.989-2.771C235.9,27.778,235.305,29.22,235.305,30.583Z" transform="translate(-75.315 -22.706)" fill="#fff"/>
      <path id="Path_367" data-name="Path 367" d="M242.137,28.907c0-.95-.034-1.743-.067-2.447h1.81l.1,1.229h.045a3.037,3.037,0,0,1,2.637-1.419c1.43,0,2.927.927,2.927,3.531v4.882h-2.078V30.046c0-1.184-.436-2.078-1.575-2.078a1.747,1.747,0,0,0-1.62,1.218,1.947,1.947,0,0,0-.1.659v4.849h-2.078V28.907Z" transform="translate(-74.27 -22.706)" fill="#fff"/>
    </g>
    <g id="Group_677" data-name="Group 677" transform="translate(102.038 50.366)">
      <path id="Path_368" data-name="Path 368" d="M99.676,52.672a4.074,4.074,0,0,1-4.223,4.38,3.976,3.976,0,0,1-4.123-4.234,4.062,4.062,0,0,1,4.257-4.357A3.939,3.939,0,0,1,99.676,52.672Zm-6.19.089c0,1.586.793,2.782,2.045,2.782,1.184,0,2.011-1.151,2.011-2.815,0-1.285-.57-2.771-1.989-2.771C94.078,49.957,93.486,51.4,93.486,52.761Z" transform="translate(-91.33 -44.684)" fill="#fff"/>
      <path id="Path_369" data-name="Path 369" d="M100.657,57.258v-6.67H99.54V49.035h1.117v-.358a3.879,3.879,0,0,1,.994-2.8,3.076,3.076,0,0,1,2.145-.793,4.359,4.359,0,0,1,1.318.2l-.134,1.609a2.377,2.377,0,0,0-.894-.156c-1.028,0-1.363.86-1.363,1.877v.425h1.788v1.553h-1.776v6.67Z" transform="translate(-90.367 -45.08)" fill="#fff"/>
      <path id="Path_370" data-name="Path 370" d="M108.36,45.955a18.4,18.4,0,0,1,3.173-.235,5.053,5.053,0,0,1,3.341.927,3.234,3.234,0,0,1,1.117,2.514,3.429,3.429,0,0,1-.961,2.559,5.059,5.059,0,0,1-3.6,1.229,4.641,4.641,0,0,1-1.017-.078v4.3H108.36V45.955Zm2.056,5.285a3.356,3.356,0,0,0,1.017.1c1.553,0,2.491-.771,2.491-2.089,0-1.262-.871-1.922-2.313-1.922a6.24,6.24,0,0,0-1.2.1v3.81Z" transform="translate(-89.333 -45.005)" fill="#fff"/>
      <path id="Path_371" data-name="Path 371" d="M116.69,45.25h2.078v4.882h.034a2.577,2.577,0,0,1,1.028-.927,2.928,2.928,0,0,1,1.43-.369c1.4,0,2.871.927,2.871,3.564v4.849h-2.078V52.624c0-1.184-.436-2.1-1.587-2.1a1.732,1.732,0,0,0-1.62,1.162,1.849,1.849,0,0,0-.078.626v4.927H116.69Z" transform="translate(-88.357 -45.06)" fill="#fff"/>
      <path id="Path_372" data-name="Path 372" d="M131.78,54.887a11.209,11.209,0,0,0,.134,1.978h-1.877l-.156-.916h-.045a3.025,3.025,0,0,1-2.436,1.095A2.443,2.443,0,0,1,124.82,54.6c0-2.067,1.843-3.128,4.882-3.117v-.134c0-.547-.223-1.441-1.676-1.441a4.351,4.351,0,0,0-2.212.614l-.4-1.352a5.833,5.833,0,0,1,2.972-.726c2.637,0,3.4,1.676,3.4,3.475Zm-2.033-2.045c-1.464-.011-2.871.29-2.871,1.542a1.091,1.091,0,0,0,1.184,1.184,1.7,1.7,0,0,0,1.631-1.128,1.29,1.29,0,0,0,.056-.458Z" transform="translate(-87.403 -44.686)" fill="#fff"/>
      <path id="Path_373" data-name="Path 373" d="M133.027,51.3c0-1.117-.022-1.922-.067-2.648h1.788l.078,1.553h.056a2.44,2.44,0,0,1,2.257-1.732,3.209,3.209,0,0,1,.492.045v1.944A3.331,3.331,0,0,0,137,50.4a1.819,1.819,0,0,0-1.855,1.564,3.62,3.62,0,0,0-.056.626v4.268h-2.078V51.3Z" transform="translate(-86.449 -44.683)" fill="#fff"/>
      <path id="Path_374" data-name="Path 374" d="M138.407,51.1c0-.95-.034-1.743-.067-2.447h1.776l.1,1.218h.056a2.8,2.8,0,0,1,2.536-1.408,2.374,2.374,0,0,1,2.279,1.519h.034a3.252,3.252,0,0,1,.994-1.028,2.818,2.818,0,0,1,1.687-.492c1.352,0,2.737.927,2.737,3.564v4.849h-2.033V52.326c0-1.363-.469-2.179-1.464-2.179a1.593,1.593,0,0,0-1.452,1.095,2.255,2.255,0,0,0-.1.693v4.927h-2.022V52.1c0-1.151-.458-1.955-1.419-1.955a1.675,1.675,0,0,0-1.508,1.162,2.416,2.416,0,0,0-.1.693v4.86h-2.022V51.1Z" transform="translate(-85.818 -44.684)" fill="#fff"/>
      <path id="Path_375" data-name="Path 375" d="M157.659,54.887a11.209,11.209,0,0,0,.134,1.978h-1.877l-.145-.916h-.056a3.017,3.017,0,0,1-2.424,1.095A2.443,2.443,0,0,1,150.71,54.6c0-2.067,1.843-3.128,4.882-3.117v-.134c0-.547-.223-1.441-1.676-1.441a4.319,4.319,0,0,0-2.212.614l-.413-1.352a5.833,5.833,0,0,1,2.972-.726c2.637,0,3.4,1.676,3.4,3.475Zm-2.033-2.045c-1.464-.011-2.871.29-2.871,1.542a1.091,1.091,0,0,0,1.184,1.184,1.712,1.712,0,0,0,1.642-1.128,1.6,1.6,0,0,0,.045-.458v-1.14Z" transform="translate(-84.368 -44.686)" fill="#fff"/>
      <path id="Path_376" data-name="Path 376" d="M165,56.6a6.056,6.056,0,0,1-2.335.425,3.956,3.956,0,0,1-4.234-4.2A4.231,4.231,0,0,1,163,48.46a5.571,5.571,0,0,1,2.011.369l-.369,1.575a3.412,3.412,0,0,0-1.564-.324,2.663,2.663,0,0,0,0,5.318,4.073,4.073,0,0,0,1.631-.324Z" transform="translate(-83.463 -44.684)" fill="#fff"/>
      <path id="Path_377" data-name="Path 377" d="M167.069,53.342c.056,1.486,1.2,2.123,2.536,2.123a6.791,6.791,0,0,0,2.279-.369l.3,1.419a7.4,7.4,0,0,1-2.871.525,3.889,3.889,0,0,1-4.234-4.156c0-2.279,1.385-4.424,4.022-4.424,2.67,0,3.542,2.2,3.542,4a5.228,5.228,0,0,1-.067.883Zm3.62-1.464a1.775,1.775,0,0,0-1.709-2.011,2.035,2.035,0,0,0-1.91,2.011Z" transform="translate(-82.683 -44.684)" fill="#fff"/>
      <path id="Path_378" data-name="Path 378" d="M180.706,54.384c0,.983.034,1.788.067,2.469h-1.81l-.1-1.229h-.045a2.994,2.994,0,0,1-2.648,1.419c-1.486,0-2.86-.894-2.86-3.586V48.63h2.078V53.1c0,1.374.436,2.246,1.542,2.246a1.686,1.686,0,0,0,1.586-1.117,1.41,1.41,0,0,0,.123-.637V48.63h2.078v5.754Z" transform="translate(-81.718 -44.664)" fill="#fff"/>
      <path id="Path_379" data-name="Path 379" d="M184.417,46.73v2.112h1.978v1.553h-1.978v3.631c0,1.017.268,1.519,1.061,1.519a3.3,3.3,0,0,0,.816-.078l.034,1.564a4.417,4.417,0,0,1-1.508.223,2.379,2.379,0,0,1-1.788-.682,3.218,3.218,0,0,1-.659-2.313V50.395H181.21V48.842h1.162V47.3Z" transform="translate(-80.792 -44.887)" fill="#fff"/>
      <path id="Path_380" data-name="Path 380" d="M189.475,46.688A1.168,1.168,0,1,1,188.3,45.56,1.1,1.1,0,0,1,189.475,46.688ZM187.263,57.2V48.979h2.078V57.2Z" transform="translate(-80.096 -45.024)" fill="#fff"/>
      <path id="Path_381" data-name="Path 381" d="M197.231,56.6a6.056,6.056,0,0,1-2.335.425,3.965,3.965,0,0,1-4.246-4.2,4.234,4.234,0,0,1,4.581-4.368,5.571,5.571,0,0,1,2.011.369l-.38,1.575a3.43,3.43,0,0,0-1.575-.324,2.663,2.663,0,0,0,0,5.318,4.133,4.133,0,0,0,1.642-.324Z" transform="translate(-79.685 -44.684)" fill="#fff"/>
      <path id="Path_382" data-name="Path 382" d="M204.349,54.887a11.209,11.209,0,0,0,.134,1.978h-1.877l-.145-.916h-.056a3.017,3.017,0,0,1-2.424,1.095A2.443,2.443,0,0,1,197.4,54.6c0-2.067,1.843-3.128,4.882-3.117v-.134c0-.547-.223-1.441-1.676-1.441a4.351,4.351,0,0,0-2.212.614l-.4-1.352a5.8,5.8,0,0,1,2.972-.726c2.637,0,3.4,1.676,3.4,3.475v2.972Zm-2.022-2.045c-1.464-.011-2.871.29-2.871,1.542a1.091,1.091,0,0,0,1.184,1.184,1.712,1.712,0,0,0,1.642-1.128,1.29,1.29,0,0,0,.056-.458v-1.14Z" transform="translate(-78.893 -44.686)" fill="#fff"/>
      <path id="Path_383" data-name="Path 383" d="M205.59,45.25h2.078V57.238H205.59Z" transform="translate(-77.933 -45.06)" fill="#fff"/>
    </g>
    <g id="Group_678" data-name="Group 678" transform="translate(102.362 75.146)">
      <path id="Path_384" data-name="Path 384" d="M101.519,74.706c-.067-1.464-.156-3.24-.134-4.782h-.056c-.369,1.385-.849,2.916-1.352,4.357L98.3,79.22H96.715L95.2,74.36c-.436-1.452-.849-3.005-1.151-4.424h-.034c-.045,1.486-.112,3.285-.2,4.849l-.246,4.581H91.62l.76-11.374h2.737l1.486,4.57c.4,1.33.76,2.681,1.05,3.944h.056c.3-1.229.693-2.626,1.128-3.966L100.4,67.98h2.7l.659,11.374h-2.022Z" transform="translate(-91.62 -67.176)" fill="#fff"/>
      <path id="Path_385" data-name="Path 385" d="M110.779,77.065a11.29,11.29,0,0,0,.134,1.978h-1.877l-.145-.916h-.045a3.025,3.025,0,0,1-2.436,1.095,2.437,2.437,0,0,1-2.581-2.447c0-2.056,1.843-3.128,4.882-3.106v-.134c0-.536-.223-1.43-1.665-1.43a4.315,4.315,0,0,0-2.212.6l-.413-1.352a5.949,5.949,0,0,1,2.972-.726c2.637,0,3.4,1.676,3.4,3.475v2.961Zm-2.022-2.045c-1.464-.022-2.871.279-2.871,1.542a1.1,1.1,0,0,0,1.184,1.184,1.686,1.686,0,0,0,1.631-1.128,1.29,1.29,0,0,0,.056-.458Z" transform="translate(-90.188 -66.865)" fill="#fff"/>
      <path id="Path_386" data-name="Path 386" d="M112.027,73.267c0-.95-.034-1.743-.067-2.447h1.81l.1,1.229h.056a3.022,3.022,0,0,1,2.637-1.419c1.441,0,2.927.927,2.927,3.531v4.882h-2.078V74.4c0-1.184-.436-2.078-1.575-2.078a1.747,1.747,0,0,0-1.62,1.218,1.947,1.947,0,0,0-.1.659v4.849h-2.078V73.267Z" transform="translate(-89.235 -66.865)" fill="#fff"/>
      <path id="Path_387" data-name="Path 387" d="M128.027,76.554c0,.983.034,1.788.067,2.469h-1.81l-.1-1.24h-.056A3.017,3.017,0,0,1,123.48,79.2c-1.486,0-2.86-.894-2.86-3.575V70.8H122.7v4.469c0,1.363.436,2.246,1.531,2.246a1.675,1.675,0,0,0,1.587-1.117,1.41,1.41,0,0,0,.123-.637V70.8h2.067v5.754Z" transform="translate(-88.22 -66.845)" fill="#fff"/>
      <path id="Path_388" data-name="Path 388" d="M129.6,79.438v-6.67H128.48V71.215H129.6v-.358a3.879,3.879,0,0,1,.994-2.8,3.128,3.128,0,0,1,2.145-.793,4.359,4.359,0,0,1,1.318.2l-.134,1.6a2.624,2.624,0,0,0-.894-.156c-1.028,0-1.363.86-1.363,1.877V71.2h1.788v1.553h-1.765v6.67H129.6Z" transform="translate(-87.298 -67.26)" fill="#fff"/>
      <path id="Path_389" data-name="Path 389" d="M140.529,77.065a11.29,11.29,0,0,0,.134,1.978h-1.877l-.156-.916h-.045a3.017,3.017,0,0,1-2.424,1.095,2.437,2.437,0,0,1-2.581-2.447c0-2.056,1.843-3.128,4.882-3.106v-.134c0-.536-.223-1.43-1.676-1.43a4.346,4.346,0,0,0-2.212.6l-.4-1.352a5.916,5.916,0,0,1,2.972-.726c2.637,0,3.4,1.676,3.4,3.475v2.961Zm-2.022-2.045c-1.464-.022-2.871.279-2.871,1.542a1.1,1.1,0,0,0,1.184,1.184,1.712,1.712,0,0,0,1.642-1.128,1.29,1.29,0,0,0,.056-.458v-1.14Z" transform="translate(-86.7 -66.865)" fill="#fff"/>
      <path id="Path_390" data-name="Path 390" d="M147.869,78.786a6.01,6.01,0,0,1-2.335.425A3.959,3.959,0,0,1,141.3,75a4.231,4.231,0,0,1,4.57-4.368,5.571,5.571,0,0,1,2.011.369l-.38,1.575a3.412,3.412,0,0,0-1.564-.324,2.663,2.663,0,0,0,0,5.318,4.133,4.133,0,0,0,1.642-.324Z" transform="translate(-85.795 -66.865)" fill="#fff"/>
      <path id="Path_391" data-name="Path 391" d="M151.237,68.91v2.112h1.978v1.553h-1.978v3.631c0,1.006.268,1.519,1.073,1.519a2.661,2.661,0,0,0,.8-.089l.034,1.575a4.713,4.713,0,0,1-1.508.223,2.338,2.338,0,0,1-1.788-.682,3.218,3.218,0,0,1-.659-2.313V72.575H148.03V71.022h1.162V69.48Z" transform="translate(-85.006 -67.067)" fill="#fff"/>
      <path id="Path_392" data-name="Path 392" d="M161.437,76.554c0,.983.034,1.788.067,2.469h-1.81l-.1-1.24h-.056A3.017,3.017,0,0,1,156.89,79.2c-1.486,0-2.86-.894-2.86-3.575V70.8h2.078v4.469c0,1.363.436,2.246,1.531,2.246a1.675,1.675,0,0,0,1.587-1.117,1.583,1.583,0,0,0,.112-.637V70.8h2.078v5.754Z" transform="translate(-84.302 -66.845)" fill="#fff"/>
      <path id="Path_393" data-name="Path 393" d="M162.687,73.467c0-1.117-.022-1.922-.067-2.648h1.788l.089,1.553h.056a2.44,2.44,0,0,1,2.257-1.732,1.7,1.7,0,0,1,.492.056v1.933a3.419,3.419,0,0,0-.626-.045,1.819,1.819,0,0,0-1.855,1.564,3.661,3.661,0,0,0-.045.626v4.268H162.7V73.467Z" transform="translate(-83.295 -66.864)" fill="#fff"/>
      <path id="Path_394" data-name="Path 394" d="M169.449,75.512c.056,1.486,1.2,2.123,2.536,2.123a6.842,6.842,0,0,0,2.279-.369l.3,1.419a7.443,7.443,0,0,1-2.871.525,3.889,3.889,0,0,1-4.234-4.156c0-2.279,1.385-4.424,4.022-4.424,2.67,0,3.542,2.19,3.542,4a5.228,5.228,0,0,1-.067.883Zm3.609-1.452a1.76,1.76,0,0,0-1.7-2.011,2.035,2.035,0,0,0-1.911,2.011Z" transform="translate(-82.728 -66.865)" fill="#fff"/>
      <path id="Path_395" data-name="Path 395" d="M175.727,73.467c0-1.117-.022-1.922-.067-2.648h1.788l.089,1.553h.056a2.44,2.44,0,0,1,2.257-1.732,1.7,1.7,0,0,1,.492.056v1.933a3.342,3.342,0,0,0-.626-.045,1.819,1.819,0,0,0-1.855,1.564,3.617,3.617,0,0,0-.056.626v4.268h-2.078Z" transform="translate(-81.766 -66.864)" fill="#fff"/>
      <path id="Path_396" data-name="Path 396" d="M181.076,77.12a4.6,4.6,0,0,0,2.089.6c.916,0,1.318-.391,1.318-.927,0-.559-.335-.827-1.352-1.207-1.6-.536-2.257-1.419-2.257-2.391,0-1.452,1.2-2.559,3.106-2.559a4.7,4.7,0,0,1,2.19.492l-.425,1.452A3.661,3.661,0,0,0,184,72.115c-.749,0-1.151.369-1.151.883s.391.76,1.441,1.151c1.5.525,2.179,1.285,2.19,2.5,0,1.508-1.162,2.592-3.341,2.592a5.208,5.208,0,0,1-2.5-.581Z" transform="translate(-81.182 -66.864)" fill="#fff"/>
      <path id="Path_397" data-name="Path 397" d="M197.853,79.376c-.29-.29-.536-.581-.894-.95a4.771,4.771,0,0,1-3.206,1.128c-2.491,0-3.743-1.575-3.743-3.218a3.684,3.684,0,0,1,2.19-3.3v-.056a3.682,3.682,0,0,1-.9-2.279,2.961,2.961,0,0,1,3.173-2.916,2.59,2.59,0,0,1,2.838,2.547c0,1.184-.693,2.145-2.346,2.994l-.022.056c.793.9,1.676,1.922,2.3,2.592a7.658,7.658,0,0,0,1.028-3.028h1.855a8.46,8.46,0,0,1-1.765,4.268c.637.715,1.24,1.4,1.944,2.145h-2.447Zm-1.877-2.123c-.693-.7-1.776-1.922-2.86-3.162a2.349,2.349,0,0,0-1.151,1.933,1.976,1.976,0,0,0,2.1,2A2.681,2.681,0,0,0,195.976,77.253ZM193.161,70.5a2.714,2.714,0,0,0,.827,1.821c.961-.6,1.519-1.128,1.519-1.922a1.184,1.184,0,0,0-1.151-1.285A1.265,1.265,0,0,0,193.161,70.5Z" transform="translate(-80.084 -67.198)" fill="#fff"/>
      <path id="Path_398" data-name="Path 398" d="M205.858,76.136l-.983,3.218H202.73l3.653-11.374h2.648l3.7,11.374h-2.246l-1.028-3.218h-3.6Zm3.251-1.575-.894-2.8c-.223-.693-.413-1.464-.57-2.123h-.034c-.168.659-.358,1.452-.536,2.123l-.883,2.8Z" transform="translate(-78.592 -67.176)" fill="#fff"/>
      <path id="Path_399" data-name="Path 399" d="M212.933,77.12a4.61,4.61,0,0,0,2.1.6c.9,0,1.318-.391,1.318-.927,0-.559-.335-.827-1.352-1.207-1.6-.536-2.268-1.419-2.268-2.391,0-1.452,1.207-2.559,3.117-2.559a4.772,4.772,0,0,1,2.19.492l-.425,1.452a3.651,3.651,0,0,0-1.732-.469c-.737,0-1.151.369-1.151.883s.391.76,1.441,1.151c1.5.525,2.179,1.285,2.19,2.5,0,1.508-1.162,2.592-3.341,2.592a5.208,5.208,0,0,1-2.5-.581Z" transform="translate(-77.444 -66.864)" fill="#fff"/>
      <path id="Path_400" data-name="Path 400" d="M219.246,77.12a4.6,4.6,0,0,0,2.089.6c.916,0,1.318-.391,1.318-.927,0-.559-.335-.827-1.352-1.207-1.6-.536-2.257-1.419-2.257-2.391,0-1.452,1.2-2.559,3.106-2.559a4.7,4.7,0,0,1,2.19.492l-.425,1.452a3.661,3.661,0,0,0-1.743-.469c-.737,0-1.151.369-1.151.883s.391.76,1.441,1.151c1.5.525,2.179,1.285,2.19,2.5,0,1.508-1.162,2.592-3.341,2.592a5.241,5.241,0,0,1-2.5-.581Z" transform="translate(-76.707 -66.864)" fill="#fff"/>
      <path id="Path_401" data-name="Path 401" d="M233.446,74.852a4.074,4.074,0,0,1-4.223,4.38A3.976,3.976,0,0,1,225.1,75a4.062,4.062,0,0,1,4.257-4.357A3.933,3.933,0,0,1,233.446,74.852Zm-6.19.089c0,1.586.793,2.782,2.045,2.782,1.173,0,2.011-1.151,2.011-2.815,0-1.285-.57-2.771-1.989-2.771C227.848,72.137,227.256,73.567,227.256,74.941Z" transform="translate(-75.969 -66.864)" fill="#fff"/>
      <path id="Path_402" data-name="Path 402" d="M240.2,78.786a5.991,5.991,0,0,1-2.324.425A3.959,3.959,0,0,1,233.64,75a4.231,4.231,0,0,1,4.57-4.368,5.57,5.57,0,0,1,2.011.369l-.369,1.575a3.412,3.412,0,0,0-1.564-.324,2.663,2.663,0,0,0,0,5.318,4.073,4.073,0,0,0,1.631-.324Z" transform="translate(-74.968 -66.865)" fill="#fff"/>
      <path id="Path_403" data-name="Path 403" d="M243.115,68.868a1.117,1.117,0,0,1-1.184,1.117,1.124,1.124,0,1,1,1.184-1.117ZM240.9,79.382V71.159h2.078v8.223Z" transform="translate(-74.131 -67.204)" fill="#fff"/>
      <path id="Path_404" data-name="Path 404" d="M251.2,77.065a11.293,11.293,0,0,0,.134,1.978h-1.877l-.145-.916h-.056a3.017,3.017,0,0,1-2.424,1.095,2.447,2.447,0,0,1-2.592-2.447c0-2.056,1.843-3.128,4.882-3.106v-.134c0-.536-.223-1.43-1.676-1.43a4.346,4.346,0,0,0-2.212.6l-.4-1.352a5.949,5.949,0,0,1,2.972-.726c2.637,0,3.4,1.676,3.4,3.475Zm-2.022-2.045c-1.464-.022-2.871.279-2.871,1.542a1.1,1.1,0,0,0,1.184,1.184,1.712,1.712,0,0,0,1.642-1.128,1.6,1.6,0,0,0,.045-.458Z" transform="translate(-73.725 -66.865)" fill="#fff"/>
      <path id="Path_405" data-name="Path 405" d="M254.8,68.91v2.112h1.978v1.553H254.8v3.631c0,1.006.268,1.519,1.061,1.519a2.66,2.66,0,0,0,.8-.089l.034,1.575a4.689,4.689,0,0,1-1.5.223,2.338,2.338,0,0,1-1.788-.682,3.218,3.218,0,0,1-.659-2.313V72.575H251.59V71.022h1.162V69.48Z" transform="translate(-72.863 -67.067)" fill="#fff"/>
      <path id="Path_406" data-name="Path 406" d="M259.865,68.868a1.117,1.117,0,0,1-1.184,1.117,1.124,1.124,0,1,1,1.184-1.117Zm-2.212,10.513V71.159h2.078v8.223Z" transform="translate(-72.167 -67.204)" fill="#fff"/>
      <path id="Path_407" data-name="Path 407" d="M269.375,74.852a4.074,4.074,0,0,1-4.223,4.38A3.968,3.968,0,0,1,261.04,75,4.056,4.056,0,0,1,265.3,70.64,3.93,3.93,0,0,1,269.375,74.852Zm-6.19.089c0,1.586.793,2.782,2.045,2.782,1.184,0,2.011-1.151,2.011-2.815,0-1.285-.57-2.771-1.989-2.771C263.777,72.137,263.185,73.567,263.185,74.941Z" transform="translate(-71.755 -66.864)" fill="#fff"/>
      <path id="Path_408" data-name="Path 408" d="M270.047,73.267c0-.95-.034-1.743-.067-2.447h1.81l.1,1.229h.056a3.022,3.022,0,0,1,2.637-1.419c1.43,0,2.916.927,2.916,3.531v4.882h-2.078V74.4c0-1.184-.447-2.078-1.575-2.078a1.747,1.747,0,0,0-1.62,1.218,1.948,1.948,0,0,0-.1.659v4.849h-2.078V73.267Z" transform="translate(-70.707 -66.865)" fill="#fff"/>
      <path id="Path_409" data-name="Path 409" d="M278.652,77.12a4.61,4.61,0,0,0,2.1.6c.9,0,1.318-.391,1.318-.927,0-.559-.335-.827-1.352-1.207-1.6-.536-2.257-1.419-2.257-2.391,0-1.452,1.207-2.559,3.117-2.559a4.772,4.772,0,0,1,2.19.492l-.425,1.452a3.65,3.65,0,0,0-1.732-.469c-.737,0-1.151.369-1.151.883s.391.76,1.441,1.151c1.5.525,2.179,1.285,2.19,2.5,0,1.508-1.162,2.592-3.341,2.592a5.208,5.208,0,0,1-2.5-.581Z" transform="translate(-69.738 -66.864)" fill="#fff"/>
    </g>
  </g>
</svg>
