<svg xmlns="http://www.w3.org/2000/svg" width="28.789" height="29.42" viewBox="0 0 28.789 29.42">
  <path id="W_P" data-name="W&amp;P" d="M28.789,18.409,23.506,0,17.7,5.879a12.145,12.145,0,0,0-6.592,0L5.295,0,0,18.409l2.045.666-.362,2.151a25.564,25.564,0,0,0,7.282,2.782c.432,1.671,1.145,3.951,1.929,4.594a6.536,6.536,0,0,0,3.436.818h.117A6.583,6.583,0,0,0,17.9,28.6c.795-.655,1.52-2.969,1.952-4.652a30.089,30.089,0,0,0,7.27-2.712l-.362-2.151Zm-11.011.281c-2.045.14-2.63-.713-2.794-1.134A5.543,5.543,0,0,0,16.7,20.887H11.887a6.434,6.434,0,0,0,2-3.565h-.012s-.14,1.555-2.852,1.368A2.391,2.391,0,0,1,9.561,14.9,49.1,49.1,0,0,1,14.4,9.561,52.68,52.68,0,0,1,19.251,14.9,2.4,2.4,0,0,1,17.778,18.69Z" transform="translate(0 0)" fill="#c9c9c9"/>
</svg>
