<?xml version="1.0" encoding="utf-8"?>
<!-- Generator: Adobe Illustrator 23.0.0, SVG Export Plug-In . SVG Version: 6.00 Build 0)  -->
<svg version="1.1" id="Layer_1" xmlns="http://www.w3.org/2000/svg" xmlns:xlink="http://www.w3.org/1999/xlink" x="0px" y="0px"
	 viewBox="0 0 22.4 22.4" style="enable-background:new 0 0 22.4 22.4;" xml:space="preserve">
<style type="text/css">
	.st0{opacity:0.6;}
	.st1{fill:#F5F5F1;}
</style>
<g id="LinkedIn" class="st0">
	<path id="Path_228" class="st1" d="M0.4,7.4H5v15H0.4V7.4z M2.7,0c1.5,0,2.7,1.2,2.7,2.7S4.2,5.4,2.7,5.4S0,4.2,0,2.7c0,0,0,0,0,0
		C0,1.2,1.2,0,2.7,0C2.7,0,2.7,0,2.7,0"/>
	<path id="Path_229" class="st1" d="M7.9,7.4h4.5v2h0.1c0.9-1.6,2.6-2.5,4.4-2.4c4.7,0,5.6,3.1,5.6,7.1v8.2h-4.7v-7.3
		c0-1.7,0-4-2.4-4c-2.4,0-2.8,1.9-2.8,3.8v7.4H7.9V7.4z"/>
</g>
</svg>
