<svg height="87.525" viewBox="0 0 316.718 87.525" width="316.718" xmlns="http://www.w3.org/2000/svg"><g fill="#fff" opacity=".6"><path d="m59.574 18.446a13.849 13.849 0 0 0 -11.139-3.8c-5.285.5-11.966 5.005-14.725 11a49.157 49.157 0 0 0 -2.089 5.24c.436-.223.871-.436 1.318-.648a31.491 31.491 0 0 1 9.865-2.8c8.7-.961 16.122 2.19 19.362 8.212a15.041 15.041 0 0 1 1.452 3.955 31.24 31.24 0 0 0 1.441-6.234 19.087 19.087 0 0 0 -5.486-14.926" transform="translate(3.707 1.709)"/><path d="m22.207 43.1a74.821 74.821 0 0 1 -2.626-7.508c-2.391-8.412-3.981-18.192-.547-30.422a31.192 31.192 0 0 0 2.893 52.63c-4.111-4.983-1.978-10.849.279-14.7" transform="translate(.697 .606)"/><path d="m27.994 4.592c-3.162 4.179-4.759 11.061-4.6 19.932a69.621 69.621 0 0 0 1.732 13.184c.413-.369.827-.737 1.274-1.095a45.209 45.209 0 0 1 2.447-13.541 23.021 23.021 0 0 1 19.023-14.849 17.176 17.176 0 0 1 9.687 1.318 31.1 31.1 0 0 0 -21.15-9.53c-.123 0-.268-.011-.407-.011a10.987 10.987 0 0 0 -8.011 4.592" transform="translate(2.741)"/><path d="m57.169 39.24c-2.681-5.218-9.016-8.089-16.122-7.307a23.319 23.319 0 0 0 -7.508 2.167 24.32 24.32 0 0 0 -3.363 1.933c-.8 5.832-.492 12.647.838 22.423.659.067 1.33.123 2 .156a31.092 31.092 0 0 0 23.328-9.061 10.084 10.084 0 0 0 .827-10.312" transform="translate(3.487 3.729)"/><path d="m29.3 56.5a129.048 129.048 0 0 1 -6.321-11.87 11.7 11.7 0 0 0 -.1 7.966c.771 2.19 4.2 3.441 6.447 3.977h.022a.28.28 0 0 0 -.048-.073" transform="translate(2.606 5.233)"/><path d="m8 63.1a.936.936 0 0 1 .972-.883h9.407v2.815h-6.625v4.38h6.614v2.8h-6.614v7.8h-3.754z" transform="translate(.938 7.295)"/><path d="m25.137 62.23h-3.765a.928.928 0 0 0 -.972.883v16.926h3.743v-6.759h1.586c4.011 0 7.2-1.508 7.2-5.664-.011-4.257-3.732-5.385-7.787-5.385m.324 8.234h-1.312v-5.43h1.307c1.922 0 3.553.715 3.553 2.771s-1.687 2.659-3.553 2.659" transform="translate(2.392 7.296)"/><path d="m0 63.1a.932.932 0 0 1 .961-.883h2.771v17.8h-3.732z" transform="translate(0 7.295)"/><path d="m39.141 62.231a.966.966 0 0 1 .927.637l4.232 12.86h.045l4.234-12.871a.972.972 0 0 1 .927-.626h4.3a.918.918 0 0 1 .961.883v16.926h-3.567v-14.7h-.06l-5.016 14.689h-3.575l-5.028-14.692-.056.056v14.636h-3.575v-16.929a.936.936 0 0 1 .972-.883h4.279z" transform="translate(3.974 7.295)"/><path d="m65.5 62.23h-3.556a.975.975 0 0 0 -.916.581l-7.028 17.217h3.877l1.631-4.078h7.564l1.609 4.078h4.145zm-4.916 10.9 2.693-7.34h.056l2.7 7.34z" transform="translate(6.332 7.296)"/><path d="m93.958 23.62v11.374h-2.078v-11.374z" transform="translate(10.773 2.769)"/><path d="m95.877 28.907c0-.95-.034-1.743-.067-2.447h1.81l.1 1.229h.045a3.022 3.022 0 0 1 2.635-1.419c1.43 0 2.916.927 2.916 3.531v4.882h-2.076v-4.637c0-1.184-.436-2.078-1.564-2.078a1.736 1.736 0 0 0 -1.62 1.218 1.947 1.947 0 0 0 -.1.659v4.849h-2.079z" transform="translate(11.234 3.08)"/><path d="m106.918 24.56v2.112h1.982v1.553h-1.978v3.631c0 1.017.268 1.519 1.061 1.519a3.087 3.087 0 0 0 .8-.078l.034 1.575a4.713 4.713 0 0 1 -1.508.223 2.357 2.357 0 0 1 -1.788-.67 3.218 3.218 0 0 1 -.659-2.313v-3.865h-1.162v-1.553h1.162v-1.542z" transform="translate(12.159 2.88)"/><path d="m111.169 31.164c.045 1.486 1.2 2.123 2.536 2.123a6.548 6.548 0 0 0 2.279-.38l.3 1.419a7.4 7.4 0 0 1 -2.871.525 3.889 3.889 0 0 1 -4.234-4.156c0-2.279 1.385-4.424 4.022-4.424 2.67 0 3.542 2.19 3.542 4a5.228 5.228 0 0 1 -.067.883h-5.508zm3.609-1.464a1.767 1.767 0 0 0 -1.7-2.011 2.035 2.035 0 0 0 -1.91 2.011z" transform="translate(12.801 3.08)"/><path d="m117.457 29.107c0-1.106-.022-1.922-.067-2.648h1.788l.089 1.553h.056a2.44 2.44 0 0 1 2.257-1.732 3.209 3.209 0 0 1 .492.045v1.944a3.331 3.331 0 0 0 -.626-.056 1.819 1.819 0 0 0 -1.855 1.575 3.62 3.62 0 0 0 -.056.626v4.268h-2.078z" transform="translate(13.764 3.081)"/><path d="m122.837 28.907c0-.95-.034-1.743-.067-2.447h1.81l.1 1.229h.056a3.022 3.022 0 0 1 2.637-1.419c1.43 0 2.927.927 2.927 3.531v4.882h-2.078v-4.637c0-1.184-.436-2.078-1.575-2.078a1.747 1.747 0 0 0 -1.62 1.218 1.947 1.947 0 0 0 -.1.659v4.849h-2.078v-5.787z" transform="translate(14.395 3.08)"/><path d="m137.92 32.705a11.21 11.21 0 0 0 .134 1.978h-1.877l-.156-.916h-.056a3.017 3.017 0 0 1 -2.424 1.095 2.437 2.437 0 0 1 -2.581-2.447c0-2.056 1.843-3.117 4.882-3.106v-.134c0-.547-.223-1.441-1.676-1.441a4.351 4.351 0 0 0 -2.212.614l-.4-1.352a5.8 5.8 0 0 1 2.972-.726c2.637 0 3.4 1.676 3.4 3.475zm-2.033-2.033c-1.464-.022-2.871.29-2.871 1.542a1.091 1.091 0 0 0 1.184 1.186 1.7 1.7 0 0 0 1.631-1.128 1.29 1.29 0 0 0 .056-.458z" transform="translate(15.355 3.08)"/><path d="m141.517 24.56v2.112h1.978v1.553h-1.978v3.631c0 1.017.268 1.519 1.061 1.519a3.239 3.239 0 0 0 .816-.078l.034 1.575a4.713 4.713 0 0 1 -1.508.223 2.357 2.357 0 0 1 -1.788-.67 3.218 3.218 0 0 1 -.659-2.313v-3.865h-1.163v-1.553h1.162v-1.542z" transform="translate(16.217 2.88)"/><path d="m146.575 24.508a1.168 1.168 0 1 1 -1.175-1.128 1.108 1.108 0 0 1 1.175 1.128zm-2.212 10.513v-8.221h2.078v8.223z" transform="translate(16.912 2.741)"/><path d="m156.1 30.493a4.07 4.07 0 0 1 -4.223 4.368 3.976 3.976 0 0 1 -4.123-4.234 4.062 4.062 0 0 1 4.257-4.357 3.96 3.96 0 0 1 4.089 4.223zm-6.2.089c0 1.586.793 2.782 2.045 2.782 1.184 0 2.011-1.151 2.011-2.815 0-1.285-.57-2.771-1.989-2.771-1.48 0-2.067 1.442-2.067 2.805z" transform="translate(17.324 3.08)"/><path d="m156.757 28.907c0-.95-.034-1.743-.067-2.447h1.81l.1 1.229h.056a3.022 3.022 0 0 1 2.637-1.419c1.43 0 2.927.927 2.927 3.531v4.882h-2.078v-4.637c0-1.184-.436-2.078-1.575-2.078a1.747 1.747 0 0 0 -1.62 1.218 1.947 1.947 0 0 0 -.1.659v4.849h-2.078v-5.787z" transform="translate(18.372 3.08)"/><path d="m171.84 32.705a11.21 11.21 0 0 0 .134 1.978h-1.874l-.145-.916h-.055a3.025 3.025 0 0 1 -2.436 1.095 2.437 2.437 0 0 1 -2.581-2.447c0-2.056 1.843-3.117 4.882-3.106v-.134c0-.547-.223-1.441-1.665-1.441a4.319 4.319 0 0 0 -2.212.614l-.416-1.348a5.833 5.833 0 0 1 2.972-.726c2.637 0 3.4 1.676 3.4 3.475zm-2.033-2.033c-1.464-.022-2.871.29-2.871 1.542a1.091 1.091 0 0 0 1.184 1.186 1.676 1.676 0 0 0 1.631-1.128 1.29 1.29 0 0 0 .056-.458z" transform="translate(19.332 3.08)"/><path d="m173.08 23.08h2.078v11.977h-2.078z" transform="translate(20.294 2.706)"/><path d="m180.161 23.62h6.581v1.709h-4.514v3.139h4.19v1.687h-4.19v4.845h-2.078v-11.38z" transform="translate(21.123 2.769)"/><path d="m188.869 31.164c.056 1.486 1.2 2.123 2.536 2.123a6.547 6.547 0 0 0 2.279-.38l.3 1.419a7.443 7.443 0 0 1 -2.871.525 3.889 3.889 0 0 1 -4.234-4.156c0-2.279 1.385-4.424 4.022-4.424 2.67 0 3.542 2.19 3.542 4a5.226 5.226 0 0 1 -.067.883h-5.508zm3.609-1.464a1.76 1.76 0 0 0 -1.7-2.011 2.035 2.035 0 0 0 -1.911 2.011z" transform="translate(21.912 3.08)"/><path d="m202.781 23.08v9.675c0 .849.034 1.754.067 2.313h-1.848l-.1-1.3h-.034a2.946 2.946 0 0 1 -2.67 1.486c-1.978 0-3.531-1.665-3.531-4.2-.022-2.748 1.709-4.391 3.676-4.391a2.62 2.62 0 0 1 2.313 1.061h.034v-4.633h2.089zm-2.081 7.184a3.139 3.139 0 0 0 -.045-.559 1.81 1.81 0 0 0 -1.788-1.452c-1.33 0-2.078 1.184-2.078 2.7s.749 2.614 2.067 2.614a1.82 1.82 0 0 0 1.788-1.475 2.128 2.128 0 0 0 .067-.6v-1.228z" transform="translate(22.825 2.706)"/><path d="m205.448 31.164c.056 1.486 1.2 2.123 2.536 2.123a6.5 6.5 0 0 0 2.279-.38l.313 1.419a7.4 7.4 0 0 1 -2.871.525 3.889 3.889 0 0 1 -4.234-4.156c0-2.279 1.385-4.424 4.022-4.424 2.67 0 3.542 2.19 3.542 4a5.228 5.228 0 0 1 -.067.883h-5.519zm3.62-1.464a1.775 1.775 0 0 0 -1.709-2.011 2.035 2.035 0 0 0 -1.911 2.011z" transform="translate(23.857 3.08)"/><path d="m211.737 29.107c0-1.106-.011-1.922-.067-2.648h1.788l.078 1.553h.056a2.464 2.464 0 0 1 2.268-1.732 3.209 3.209 0 0 1 .492.045v1.944a3.331 3.331 0 0 0 -.626-.056 1.819 1.819 0 0 0 -1.855 1.575 3.662 3.662 0 0 0 -.045.626v4.268h-2.078v-5.575z" transform="translate(24.818 3.081)"/><path d="m223.4 32.705a11.21 11.21 0 0 0 .134 1.978h-1.877l-.145-.916h-.045a3.017 3.017 0 0 1 -2.424 1.095 2.437 2.437 0 0 1 -2.581-2.447c0-2.056 1.843-3.117 4.882-3.106v-.134c0-.547-.223-1.441-1.676-1.441a4.351 4.351 0 0 0 -2.212.614l-.415-1.348a5.833 5.833 0 0 1 2.972-.726c2.637 0 3.4 1.676 3.4 3.475v2.961zm-2.022-2.033c-1.464-.022-2.871.29-2.871 1.542a1.091 1.091 0 0 0 1.184 1.184 1.712 1.712 0 0 0 1.642-1.128 1.6 1.6 0 0 0 .045-.458z" transform="translate(25.38 3.08)"/><path d="m226.987 24.56v2.112h1.978v1.553h-1.978v3.631c0 1.017.268 1.519 1.061 1.519a3.239 3.239 0 0 0 .816-.078l.034 1.575a4.713 4.713 0 0 1 -1.508.223 2.374 2.374 0 0 1 -1.788-.67 3.218 3.218 0 0 1 -.659-2.313v-3.865h-1.163v-1.553h1.162v-1.542z" transform="translate(26.238 2.88)"/><path d="m232.015 24.508a1.168 1.168 0 1 1 -1.173-1.128 1.1 1.1 0 0 1 1.173 1.128zm-2.215 10.514v-8.222h2.078v8.223z" transform="translate(26.93 2.741)"/><path d="m241.506 30.493a4.065 4.065 0 0 1 -4.223 4.368 3.976 3.976 0 0 1 -4.123-4.234 4.062 4.062 0 0 1 4.257-4.357 3.96 3.96 0 0 1 4.089 4.223zm-6.2.089c0 1.586.793 2.782 2.045 2.782 1.184 0 2.011-1.151 2.011-2.815 0-1.285-.581-2.771-1.989-2.771-1.473 0-2.068 1.442-2.068 2.805z" transform="translate(27.338 3.08)"/><path d="m242.137 28.907c0-.95-.034-1.743-.067-2.447h1.81l.1 1.229h.045a3.037 3.037 0 0 1 2.637-1.419c1.43 0 2.927.927 2.927 3.531v4.882h-2.078v-4.637c0-1.184-.436-2.078-1.575-2.078a1.747 1.747 0 0 0 -1.62 1.218 1.947 1.947 0 0 0 -.1.659v4.849h-2.078v-5.787z" transform="translate(28.383 3.08)"/><path d="m99.676 52.672a4.074 4.074 0 0 1 -4.223 4.38 3.976 3.976 0 0 1 -4.123-4.234 4.062 4.062 0 0 1 4.257-4.357 3.939 3.939 0 0 1 4.089 4.211zm-6.19.089c0 1.586.793 2.782 2.045 2.782 1.184 0 2.011-1.151 2.011-2.815 0-1.285-.57-2.771-1.989-2.771-1.475 0-2.067 1.443-2.067 2.804z" transform="translate(10.708 5.682)"/><path d="m100.657 57.258v-6.67h-1.117v-1.553h1.117v-.358a3.879 3.879 0 0 1 .994-2.8 3.076 3.076 0 0 1 2.145-.793 4.359 4.359 0 0 1 1.318.2l-.134 1.609a2.377 2.377 0 0 0 -.894-.156c-1.028 0-1.363.86-1.363 1.877v.425h1.788v1.553h-1.776v6.67z" transform="translate(11.671 5.286)"/><path d="m108.36 45.955a18.4 18.4 0 0 1 3.173-.235 5.053 5.053 0 0 1 3.341.927 3.234 3.234 0 0 1 1.117 2.514 3.429 3.429 0 0 1 -.961 2.559 5.059 5.059 0 0 1 -3.6 1.229 4.641 4.641 0 0 1 -1.017-.078v4.3h-2.053zm2.056 5.285a3.356 3.356 0 0 0 1.017.1c1.553 0 2.491-.771 2.491-2.089 0-1.262-.871-1.922-2.313-1.922a6.24 6.24 0 0 0 -1.2.1v3.81z" transform="translate(12.705 5.361)"/><path d="m116.69 45.25h2.078v4.882h.034a2.577 2.577 0 0 1 1.028-.927 2.928 2.928 0 0 1 1.43-.369c1.4 0 2.871.927 2.871 3.564v4.849h-2.078v-4.625c0-1.184-.436-2.1-1.587-2.1a1.732 1.732 0 0 0 -1.62 1.162 1.849 1.849 0 0 0 -.078.626v4.927h-2.078z" transform="translate(13.681 5.306)"/><path d="m131.78 54.887a11.209 11.209 0 0 0 .134 1.978h-1.877l-.156-.916h-.045a3.025 3.025 0 0 1 -2.436 1.095 2.443 2.443 0 0 1 -2.58-2.444c0-2.067 1.843-3.128 4.882-3.117v-.134c0-.547-.223-1.441-1.676-1.441a4.351 4.351 0 0 0 -2.212.614l-.4-1.352a5.833 5.833 0 0 1 2.972-.726c2.637 0 3.4 1.676 3.4 3.475zm-2.033-2.045c-1.464-.011-2.871.29-2.871 1.542a1.091 1.091 0 0 0 1.184 1.184 1.7 1.7 0 0 0 1.631-1.128 1.29 1.29 0 0 0 .056-.458z" transform="translate(14.635 5.68)"/><path d="m133.027 51.3c0-1.117-.022-1.922-.067-2.648h1.788l.078 1.553h.056a2.44 2.44 0 0 1 2.257-1.732 3.209 3.209 0 0 1 .492.045v1.944a3.331 3.331 0 0 0 -.631-.062 1.819 1.819 0 0 0 -1.855 1.564 3.62 3.62 0 0 0 -.056.626v4.268h-2.078v-5.558z" transform="translate(15.589 5.683)"/><path d="m138.407 51.1c0-.95-.034-1.743-.067-2.447h1.776l.1 1.218h.056a2.8 2.8 0 0 1 2.536-1.408 2.374 2.374 0 0 1 2.279 1.519h.034a3.252 3.252 0 0 1 .994-1.028 2.818 2.818 0 0 1 1.687-.492c1.352 0 2.737.927 2.737 3.564v4.849h-2.033v-4.549c0-1.363-.469-2.179-1.464-2.179a1.593 1.593 0 0 0 -1.452 1.095 2.255 2.255 0 0 0 -.1.693v4.927h-2.022v-4.762c0-1.151-.458-1.955-1.419-1.955a1.675 1.675 0 0 0 -1.508 1.162 2.416 2.416 0 0 0 -.1.693v4.86h-2.022v-5.76z" transform="translate(16.22 5.682)"/><path d="m157.659 54.887a11.209 11.209 0 0 0 .134 1.978h-1.877l-.145-.916h-.056a3.017 3.017 0 0 1 -2.424 1.095 2.443 2.443 0 0 1 -2.581-2.444c0-2.067 1.843-3.128 4.882-3.117v-.134c0-.547-.223-1.441-1.676-1.441a4.319 4.319 0 0 0 -2.212.614l-.413-1.352a5.833 5.833 0 0 1 2.972-.726c2.637 0 3.4 1.676 3.4 3.475zm-2.033-2.045c-1.464-.011-2.871.29-2.871 1.542a1.091 1.091 0 0 0 1.184 1.184 1.712 1.712 0 0 0 1.642-1.128 1.6 1.6 0 0 0 .045-.458z" transform="translate(17.67 5.68)"/><path d="m165 56.6a6.056 6.056 0 0 1 -2.335.425 3.956 3.956 0 0 1 -4.234-4.2 4.231 4.231 0 0 1 4.569-4.365 5.571 5.571 0 0 1 2.011.369l-.369 1.575a3.412 3.412 0 0 0 -1.564-.324 2.663 2.663 0 0 0 0 5.318 4.073 4.073 0 0 0 1.631-.324z" transform="translate(18.575 5.682)"/><path d="m167.069 53.342c.056 1.486 1.2 2.123 2.536 2.123a6.791 6.791 0 0 0 2.279-.369l.3 1.419a7.4 7.4 0 0 1 -2.871.525 3.889 3.889 0 0 1 -4.234-4.156c0-2.279 1.385-4.424 4.022-4.424 2.67 0 3.542 2.2 3.542 4a5.228 5.228 0 0 1 -.067.883zm3.62-1.464a1.775 1.775 0 0 0 -1.709-2.011 2.035 2.035 0 0 0 -1.91 2.011z" transform="translate(19.355 5.682)"/><path d="m180.706 54.384c0 .983.034 1.788.067 2.469h-1.81l-.1-1.229h-.045a2.994 2.994 0 0 1 -2.648 1.419c-1.486 0-2.86-.894-2.86-3.586v-4.827h2.078v4.47c0 1.374.436 2.246 1.542 2.246a1.686 1.686 0 0 0 1.586-1.117 1.41 1.41 0 0 0 .123-.637v-4.962h2.078v5.754z" transform="translate(20.32 5.702)"/><path d="m184.417 46.73v2.112h1.978v1.553h-1.978v3.631c0 1.017.268 1.519 1.061 1.519a3.3 3.3 0 0 0 .816-.078l.034 1.564a4.417 4.417 0 0 1 -1.508.223 2.379 2.379 0 0 1 -1.788-.682 3.218 3.218 0 0 1 -.659-2.313v-3.864h-1.163v-1.553h1.162v-1.542z" transform="translate(21.246 5.479)"/><path d="m189.475 46.688a1.168 1.168 0 1 1 -1.175-1.128 1.1 1.1 0 0 1 1.175 1.128zm-2.212 10.512v-8.221h2.078v8.221z" transform="translate(21.942 5.342)"/><path d="m197.231 56.6a6.056 6.056 0 0 1 -2.335.425 3.965 3.965 0 0 1 -4.246-4.2 4.234 4.234 0 0 1 4.581-4.368 5.571 5.571 0 0 1 2.011.369l-.38 1.575a3.43 3.43 0 0 0 -1.575-.324 2.663 2.663 0 0 0 0 5.318 4.133 4.133 0 0 0 1.642-.324z" transform="translate(22.353 5.682)"/><path d="m204.349 54.887a11.209 11.209 0 0 0 .134 1.978h-1.877l-.145-.916h-.056a3.017 3.017 0 0 1 -2.424 1.095 2.443 2.443 0 0 1 -2.581-2.444c0-2.067 1.843-3.128 4.882-3.117v-.134c0-.547-.223-1.441-1.676-1.441a4.351 4.351 0 0 0 -2.212.614l-.4-1.352a5.8 5.8 0 0 1 2.972-.726c2.637 0 3.4 1.676 3.4 3.475v2.972zm-2.022-2.045c-1.464-.011-2.871.29-2.871 1.542a1.091 1.091 0 0 0 1.184 1.184 1.712 1.712 0 0 0 1.642-1.128 1.29 1.29 0 0 0 .056-.458v-1.14z" transform="translate(23.145 5.68)"/><path d="m205.59 45.25h2.078v11.988h-2.078z" transform="translate(24.105 5.306)"/><path d="m101.519 74.706c-.067-1.464-.156-3.24-.134-4.782h-.056c-.369 1.385-.849 2.916-1.352 4.357l-1.677 4.939h-1.585l-1.515-4.86c-.436-1.452-.849-3.005-1.151-4.424h-.034c-.045 1.486-.112 3.285-.2 4.849l-.246 4.581h-1.949l.76-11.374h2.737l1.486 4.57c.4 1.33.76 2.681 1.05 3.944h.056c.3-1.229.693-2.626 1.128-3.966l1.563-4.56h2.7l.659 11.374h-2.022z" transform="translate(10.742 7.97)"/><path d="m110.779 77.065a11.29 11.29 0 0 0 .134 1.978h-1.877l-.145-.916h-.045a3.025 3.025 0 0 1 -2.436 1.095 2.437 2.437 0 0 1 -2.581-2.447c0-2.056 1.843-3.128 4.882-3.106v-.134c0-.536-.223-1.43-1.665-1.43a4.315 4.315 0 0 0 -2.212.6l-.413-1.352a5.949 5.949 0 0 1 2.972-.726c2.637 0 3.4 1.676 3.4 3.475v2.961zm-2.022-2.045c-1.464-.022-2.871.279-2.871 1.542a1.1 1.1 0 0 0 1.184 1.184 1.686 1.686 0 0 0 1.631-1.128 1.29 1.29 0 0 0 .056-.458z" transform="translate(12.174 8.281)"/><path d="m112.027 73.267c0-.95-.034-1.743-.067-2.447h1.81l.1 1.229h.056a3.022 3.022 0 0 1 2.637-1.419c1.441 0 2.927.927 2.927 3.531v4.882h-2.078v-4.643c0-1.184-.436-2.078-1.575-2.078a1.747 1.747 0 0 0 -1.62 1.218 1.947 1.947 0 0 0 -.1.659v4.849h-2.078v-5.781z" transform="translate(13.127 8.281)"/><path d="m128.027 76.554c0 .983.034 1.788.067 2.469h-1.81l-.1-1.24h-.056a3.017 3.017 0 0 1 -2.648 1.417c-1.486 0-2.86-.894-2.86-3.575v-4.825h2.08v4.469c0 1.363.436 2.246 1.531 2.246a1.675 1.675 0 0 0 1.587-1.117 1.41 1.41 0 0 0 .123-.637v-4.961h2.067v5.754z" transform="translate(14.142 8.301)"/><path d="m129.6 79.438v-6.67h-1.12v-1.553h1.12v-.358a3.879 3.879 0 0 1 .994-2.8 3.128 3.128 0 0 1 2.145-.793 4.359 4.359 0 0 1 1.318.2l-.134 1.6a2.624 2.624 0 0 0 -.894-.156c-1.028 0-1.363.86-1.363 1.877v.415h1.788v1.553h-1.765v6.67h-2.089z" transform="translate(15.064 7.886)"/><path d="m140.529 77.065a11.29 11.29 0 0 0 .134 1.978h-1.877l-.156-.916h-.045a3.017 3.017 0 0 1 -2.424 1.095 2.437 2.437 0 0 1 -2.581-2.447c0-2.056 1.843-3.128 4.882-3.106v-.134c0-.536-.223-1.43-1.676-1.43a4.346 4.346 0 0 0 -2.212.6l-.4-1.352a5.916 5.916 0 0 1 2.972-.726c2.637 0 3.4 1.676 3.4 3.475v2.961zm-2.022-2.045c-1.464-.022-2.871.279-2.871 1.542a1.1 1.1 0 0 0 1.184 1.184 1.712 1.712 0 0 0 1.642-1.128 1.29 1.29 0 0 0 .056-.458v-1.14z" transform="translate(15.662 8.281)"/><path d="m147.869 78.786a6.01 6.01 0 0 1 -2.335.425 3.959 3.959 0 0 1 -4.234-4.211 4.231 4.231 0 0 1 4.57-4.368 5.571 5.571 0 0 1 2.011.369l-.38 1.575a3.412 3.412 0 0 0 -1.564-.324 2.663 2.663 0 0 0 0 5.318 4.133 4.133 0 0 0 1.642-.324z" transform="translate(16.567 8.281)"/><path d="m151.237 68.91v2.112h1.978v1.553h-1.978v3.631c0 1.006.268 1.519 1.073 1.519a2.661 2.661 0 0 0 .8-.089l.034 1.575a4.713 4.713 0 0 1 -1.508.223 2.338 2.338 0 0 1 -1.788-.682 3.218 3.218 0 0 1 -.659-2.313v-3.864h-1.159v-1.553h1.162v-1.542z" transform="translate(17.356 8.079)"/><path d="m161.437 76.554c0 .983.034 1.788.067 2.469h-1.81l-.1-1.24h-.056a3.017 3.017 0 0 1 -2.648 1.417c-1.486 0-2.86-.894-2.86-3.575v-4.825h2.078v4.469c0 1.363.436 2.246 1.531 2.246a1.675 1.675 0 0 0 1.587-1.117 1.583 1.583 0 0 0 .112-.637v-4.961h2.078v5.754z" transform="translate(18.06 8.301)"/><path d="m162.687 73.467c0-1.117-.022-1.922-.067-2.648h1.788l.089 1.553h.056a2.44 2.44 0 0 1 2.257-1.732 1.7 1.7 0 0 1 .492.056v1.933a3.419 3.419 0 0 0 -.626-.045 1.819 1.819 0 0 0 -1.855 1.564 3.661 3.661 0 0 0 -.045.626v4.268h-2.076v-5.575z" transform="translate(19.067 8.282)"/><path d="m169.449 75.512c.056 1.486 1.2 2.123 2.536 2.123a6.842 6.842 0 0 0 2.279-.369l.3 1.419a7.443 7.443 0 0 1 -2.871.525 3.889 3.889 0 0 1 -4.234-4.156c0-2.279 1.385-4.424 4.022-4.424 2.67 0 3.542 2.19 3.542 4a5.228 5.228 0 0 1 -.067.883zm3.609-1.452a1.76 1.76 0 0 0 -1.7-2.011 2.035 2.035 0 0 0 -1.911 2.011z" transform="translate(19.634 8.281)"/><path d="m175.727 73.467c0-1.117-.022-1.922-.067-2.648h1.788l.089 1.553h.056a2.44 2.44 0 0 1 2.257-1.732 1.7 1.7 0 0 1 .492.056v1.933a3.342 3.342 0 0 0 -.626-.045 1.819 1.819 0 0 0 -1.855 1.564 3.617 3.617 0 0 0 -.056.626v4.268h-2.078z" transform="translate(20.596 8.282)"/><path d="m181.076 77.12a4.6 4.6 0 0 0 2.089.6c.916 0 1.318-.391 1.318-.927 0-.559-.335-.827-1.352-1.207-1.6-.536-2.257-1.419-2.257-2.391 0-1.452 1.2-2.559 3.106-2.559a4.7 4.7 0 0 1 2.19.492l-.425 1.452a3.661 3.661 0 0 0 -1.745-.465c-.749 0-1.151.369-1.151.883s.391.76 1.441 1.151c1.5.525 2.179 1.285 2.19 2.5 0 1.508-1.162 2.592-3.341 2.592a5.208 5.208 0 0 1 -2.5-.581z" transform="translate(21.18 8.282)"/><path d="m197.853 79.376c-.29-.29-.536-.581-.894-.95a4.771 4.771 0 0 1 -3.206 1.128c-2.491 0-3.743-1.575-3.743-3.218a3.684 3.684 0 0 1 2.19-3.3v-.056a3.682 3.682 0 0 1 -.9-2.279 2.961 2.961 0 0 1 3.173-2.916 2.59 2.59 0 0 1 2.838 2.547c0 1.184-.693 2.145-2.346 2.994l-.022.056c.793.9 1.676 1.922 2.3 2.592a7.658 7.658 0 0 0 1.028-3.028h1.855a8.46 8.46 0 0 1 -1.765 4.268c.637.715 1.24 1.4 1.944 2.145h-2.447zm-1.877-2.123c-.693-.7-1.776-1.922-2.86-3.162a2.349 2.349 0 0 0 -1.151 1.933 1.976 1.976 0 0 0 2.1 2 2.681 2.681 0 0 0 1.911-.771zm-2.815-6.753a2.714 2.714 0 0 0 .827 1.821c.961-.6 1.519-1.128 1.519-1.922a1.184 1.184 0 0 0 -1.151-1.285 1.265 1.265 0 0 0 -1.195 1.386z" transform="translate(22.278 7.948)"/><path d="m205.858 76.136-.983 3.218h-2.145l3.653-11.374h2.648l3.7 11.374h-2.246l-1.028-3.218h-3.6zm3.251-1.575-.894-2.8c-.223-.693-.413-1.464-.57-2.123h-.034c-.168.659-.358 1.452-.536 2.123l-.883 2.8z" transform="translate(23.77 7.97)"/><path d="m212.933 77.12a4.61 4.61 0 0 0 2.1.6c.9 0 1.318-.391 1.318-.927 0-.559-.335-.827-1.352-1.207-1.6-.536-2.268-1.419-2.268-2.391 0-1.452 1.207-2.559 3.117-2.559a4.772 4.772 0 0 1 2.19.492l-.425 1.452a3.651 3.651 0 0 0 -1.732-.469c-.737 0-1.151.369-1.151.883s.391.76 1.441 1.151c1.5.525 2.179 1.285 2.19 2.5 0 1.508-1.162 2.592-3.341 2.592a5.208 5.208 0 0 1 -2.5-.581z" transform="translate(24.918 8.282)"/><path d="m219.246 77.12a4.6 4.6 0 0 0 2.089.6c.916 0 1.318-.391 1.318-.927 0-.559-.335-.827-1.352-1.207-1.6-.536-2.257-1.419-2.257-2.391 0-1.452 1.2-2.559 3.106-2.559a4.7 4.7 0 0 1 2.19.492l-.425 1.452a3.661 3.661 0 0 0 -1.743-.469c-.737 0-1.151.369-1.151.883s.391.76 1.441 1.151c1.5.525 2.179 1.285 2.19 2.5 0 1.508-1.162 2.592-3.341 2.592a5.241 5.241 0 0 1 -2.5-.581z" transform="translate(25.655 8.282)"/><path d="m233.446 74.852a4.074 4.074 0 0 1 -4.223 4.38 3.976 3.976 0 0 1 -4.123-4.232 4.062 4.062 0 0 1 4.257-4.357 3.933 3.933 0 0 1 4.089 4.209zm-6.19.089c0 1.586.793 2.782 2.045 2.782 1.173 0 2.011-1.151 2.011-2.815 0-1.285-.57-2.771-1.989-2.771-1.475 0-2.067 1.43-2.067 2.804z" transform="translate(26.393 8.282)"/><path d="m240.2 78.786a5.991 5.991 0 0 1 -2.324.425 3.959 3.959 0 0 1 -4.236-4.211 4.231 4.231 0 0 1 4.57-4.368 5.57 5.57 0 0 1 2.011.369l-.369 1.575a3.412 3.412 0 0 0 -1.564-.324 2.663 2.663 0 0 0 0 5.318 4.073 4.073 0 0 0 1.631-.324z" transform="translate(27.394 8.281)"/><path d="m243.115 68.868a1.117 1.117 0 0 1 -1.184 1.117 1.124 1.124 0 1 1 1.184-1.117zm-2.215 10.514v-8.223h2.078v8.223z" transform="translate(28.231 7.942)"/><path d="m251.2 77.065a11.293 11.293 0 0 0 .134 1.978h-1.877l-.145-.916h-.056a3.017 3.017 0 0 1 -2.424 1.095 2.447 2.447 0 0 1 -2.592-2.447c0-2.056 1.843-3.128 4.882-3.106v-.134c0-.536-.223-1.43-1.676-1.43a4.346 4.346 0 0 0 -2.212.6l-.4-1.352a5.949 5.949 0 0 1 2.972-.726c2.637 0 3.4 1.676 3.4 3.475zm-2.022-2.045c-1.464-.022-2.871.279-2.871 1.542a1.1 1.1 0 0 0 1.184 1.184 1.712 1.712 0 0 0 1.642-1.128 1.6 1.6 0 0 0 .045-.458z" transform="translate(28.637 8.281)"/><path d="m254.8 68.91v2.112h1.978v1.553h-1.978v3.631c0 1.006.268 1.519 1.061 1.519a2.66 2.66 0 0 0 .8-.089l.034 1.575a4.689 4.689 0 0 1 -1.5.223 2.338 2.338 0 0 1 -1.788-.682 3.218 3.218 0 0 1 -.659-2.313v-3.864h-1.158v-1.553h1.162v-1.542z" transform="translate(29.499 8.079)"/><path d="m259.865 68.868a1.117 1.117 0 0 1 -1.184 1.117 1.124 1.124 0 1 1 1.184-1.117zm-2.212 10.513v-8.222h2.078v8.223z" transform="translate(30.195 7.942)"/><path d="m269.375 74.852a4.074 4.074 0 0 1 -4.223 4.38 3.968 3.968 0 0 1 -4.112-4.232 4.056 4.056 0 0 1 4.26-4.36 3.93 3.93 0 0 1 4.075 4.212zm-6.19.089c0 1.586.793 2.782 2.045 2.782 1.184 0 2.011-1.151 2.011-2.815 0-1.285-.57-2.771-1.989-2.771-1.475 0-2.067 1.43-2.067 2.804z" transform="translate(30.607 8.282)"/><path d="m270.047 73.267c0-.95-.034-1.743-.067-2.447h1.81l.1 1.229h.056a3.022 3.022 0 0 1 2.637-1.419c1.43 0 2.916.927 2.916 3.531v4.882h-2.078v-4.643c0-1.184-.447-2.078-1.575-2.078a1.747 1.747 0 0 0 -1.62 1.218 1.948 1.948 0 0 0 -.1.659v4.849h-2.078v-5.781z" transform="translate(31.655 8.281)"/><path d="m278.652 77.12a4.61 4.61 0 0 0 2.1.6c.9 0 1.318-.391 1.318-.927 0-.559-.335-.827-1.352-1.207-1.6-.536-2.257-1.419-2.257-2.391 0-1.452 1.207-2.559 3.117-2.559a4.772 4.772 0 0 1 2.19.492l-.425 1.452a3.65 3.65 0 0 0 -1.732-.469c-.737 0-1.151.369-1.151.883s.391.76 1.441 1.151c1.5.525 2.179 1.285 2.19 2.5 0 1.508-1.162 2.592-3.341 2.592a5.208 5.208 0 0 1 -2.5-.581z" transform="translate(32.624 8.282)"/></g></svg>