<?xml version="1.0" encoding="utf-8"?>
<!-- Generator: Adobe Illustrator 23.0.0, SVG Export Plug-In . SVG Version: 6.00 Build 0)  -->
<svg version="1.1" id="Layer_1" xmlns="http://www.w3.org/2000/svg" xmlns:xlink="http://www.w3.org/1999/xlink" x="0px" y="0px"
	 viewBox="0 0 23.4 19" style="enable-background:new 0 0 23.4 19;" xml:space="preserve">
<style type="text/css">
	.st0{fill-rule:evenodd;clip-rule:evenodd;fill:#F5F5F1;}
</style>
<path id="Twitter" class="st0" d="M7.4,19c7.5,0.1,13.6-5.9,13.7-13.4c0-0.1,0-0.2,0-0.2V4.7C22,4,22.8,3.2,23.4,2.2
	c-0.9,0.4-1.8,0.6-2.7,0.8c1-0.6,1.7-1.5,2.1-2.6c-0.9,0.5-1.9,0.9-3,1.2c-0.9-1-2.2-1.6-3.5-1.6c-2.6,0-4.8,2.2-4.8,4.8
	c0,0.4,0,0.7,0.1,1c-3.9-0.2-7.5-2-9.9-5.1C1.3,1.5,1,2.4,1,3.3c0,1.6,0.8,3.1,2.1,4C2.3,7.3,1.6,7,0.9,6.6l0,0
	c0,2.3,1.6,4.3,3.9,4.7c-0.4,0.1-0.9,0.2-1.3,0.1c-0.3,0-0.6,0-0.9-0.1c0.7,2,2.5,3.3,4.6,3.4c-1.7,1.3-3.8,2.1-6,2.1
	c-0.4,0-0.8,0-1.2-0.1C2.2,18.2,4.8,19,7.4,19"/>
</svg>
