<svg id="sdg-03" xmlns="http://www.w3.org/2000/svg" width="158.142" height="158.142" viewBox="0 0 158.142 158.142">
  <g id="Group_1071" data-name="Group 1071">
    <rect id="Rectangle_1162" data-name="Rectangle 1162" width="158.142" height="158.142" rx="4" fill="#4c9f38"/>
  </g>
  <g id="Group_1076" data-name="Group 1076" transform="translate(31.276 31.452)">
    <g id="Group_1072" data-name="Group 1072">
      <path id="Path_2288" data-name="Path 2288" d="M459.487,408.969c0-3.4-2.176-6.159-5.5-6.159-1.651,0-3.653,1.807-4.74,2.935-1.089-1.107-2.953-2.935-4.6-2.935-3.3,0-5.634,2.758-5.634,6.159a6.162,6.162,0,0,0,1.749,4.351l8.472,8.49,8.472-8.49h0a6.046,6.046,0,0,0,1.785-4.351" transform="translate(-371.106 -343.26)" fill="#fff"/>
      <path id="Path_2289" data-name="Path 2289" d="M215.611,353.939h-.077a1.386,1.386,0,0,1-1.283-1.145l-4.315-25.084-6.529,12.1a1.425,1.425,0,0,1-1.477.718,1.361,1.361,0,0,1-1.127-1.166L198.023,320l-5.072,11.386a1.379,1.379,0,0,1-1.263.816h-19.7a1.4,1.4,0,0,1,0-2.8h18.787l6.665-14.981a1.409,1.409,0,0,1,1.457-.816,1.362,1.362,0,0,1,1.186,1.186l2.876,19.953,6.432-11.928a1.393,1.393,0,0,1,2.6.427l3.983,23.238,14.533-48.3a1.391,1.391,0,0,1,2.585-.215l7.654,15.855a1.4,1.4,0,1,1-2.508,1.224l-6.1-12.629L216.951,352.95a1.435,1.435,0,0,1-1.34.99" transform="translate(-163.327 -261.499)" fill="#fff"/>
      <path id="Path_2290" data-name="Path 2290" d="M144.053,164.184c4.139,0,5.946-2.2,5.946-5.576v-3.594c0-2.234-.971-3.671-3.032-4.139a3.9,3.9,0,0,0,2.8-3.963V144.8c0-3.459-1.651-5.576-5.44-5.576-4.254,0-5.711,2.526-5.711,6.12V147.5h3.75V145.01c0-1.516.465-2.37,1.769-2.37s1.769.854,1.769,2.2v2.623c0,1.3-.854,1.981-2.2,1.981h-1.554v3.129h1.728c1.437,0,2.02.68,2.02,1.981v4.021c0,1.3-.583,2.2-1.825,2.2-1.4,0-1.9-.933-1.9-2.37v-3.5h-3.73v3.206c-.02,3.707,1.437,6.077,5.614,6.077" transform="translate(-138.439 -139.22)" fill="#fff"/>
      <path id="Path_2291" data-name="Path 2291" d="M243.473,145.843H245.9v5.44h-1.243v-1.107a1.527,1.527,0,0,1-1.631,1.224c-1.478,0-2.158-1.166-2.158-2.758v-4.934c0-1.593.757-2.758,2.564-2.758,1.9,0,2.449,1.048,2.449,2.564v.895h-1.534v-1.03c0-.621-.233-.992-.854-.992s-.895.427-.895,1.048v5.478c0,.621.253,1.048.836,1.048.563,0,.836-.312.836-.971v-1.807h-.816v-1.34Z" transform="translate(-217.729 -140.559)" fill="#fff"/>
      <path id="Path_2292" data-name="Path 2292" d="M271.007,148.9v-5.479c0-.621-.271-1.048-.895-1.048-.6,0-.874.427-.874,1.048V148.9c0,.621.271,1.048.874,1.048.623,0,.895-.425.895-1.048m-3.477-.271V143.7c0-1.593.777-2.758,2.585-2.758a2.434,2.434,0,0,1,2.6,2.758v4.934a2.442,2.442,0,0,1-2.6,2.758c-1.807,0-2.585-1.166-2.585-2.758" transform="translate(-238.366 -140.551)" fill="#fff"/>
      <path id="Path_2293" data-name="Path 2293" d="M298.267,148.9v-5.479c0-.621-.271-1.048-.895-1.048-.6,0-.874.427-.874,1.048V148.9c0,.621.271,1.048.874,1.048.624,0,.895-.425.895-1.048m-3.477-.271V143.7c0-1.593.777-2.758,2.584-2.758a2.434,2.434,0,0,1,2.6,2.758v4.934a2.442,2.442,0,0,1-2.6,2.758c-1.807,0-2.584-1.166-2.584-2.758" transform="translate(-259.468 -140.551)" fill="#fff"/>
      <path id="Path_2294" data-name="Path 2294" d="M324.491,150.34c.7,0,.971-.427.971-1.03v-5.361c0-.6-.271-1.03-.971-1.03h-.718v7.4h.718Zm2.679-6.061V149c0,1.554-.642,2.74-2.487,2.74H322.04v-10.2h2.643c1.848,0,2.487,1.145,2.487,2.738" transform="translate(-280.561 -141.016)" fill="#fff"/>
    </g>
    <path id="Path_2295" data-name="Path 2295" d="M363.872,147.231h-1.651v4.509h-1.73v-10.2h1.73v4.313h1.651V141.54H365.6v10.2h-1.728Z" transform="translate(-310.325 -141.016)" fill="#fff"/>
    <path id="Path_2296" data-name="Path 2296" d="M387.41,141.54h4.1v1.4h-2.39v2.914h1.71v1.378h-1.71v3.109h2.39v1.4h-4.1Z" transform="translate(-331.163 -141.016)" fill="#fff"/>
    <path id="Path_2297" data-name="Path 2297" d="M410.527,148.494h1.36l-.68-4.1h-.02Zm-2.137,3.246,1.923-10.2h1.963l1.943,10.2H412.45l-.312-1.866h-1.825l-.291,1.866Z" transform="translate(-347.403 -141.016)" fill="#fff"/>
    <path id="Path_2298" data-name="Path 2298" d="M437.29,141.54H439v8.8h2.04v1.4h-3.75Z" transform="translate(-369.774 -141.016)" fill="#fff"/>
    <path id="Path_2299" data-name="Path 2299" d="M452.17,141.54h4.566v1.4h-1.419v8.8h-1.728v-8.8H452.17Z" transform="translate(-381.293 -141.016)" fill="#fff"/>
    <path id="Path_2300" data-name="Path 2300" d="M479.2,147.231h-1.651v4.509H475.82v-10.2h1.728v4.313H479.2V141.54h1.73v10.2H479.2Z" transform="translate(-399.6 -141.016)" fill="#fff"/>
    <path id="Path_2301" data-name="Path 2301" d="M241.905,211.724h1.36l-.68-4.1h-.02Zm-2.155,3.226,1.923-10.2h1.963l1.943,10.2H243.81l-.312-1.866h-1.825l-.291,1.866Z" transform="translate(-216.862 -189.946)" fill="#fff"/>
    <path id="Path_2302" data-name="Path 2302" d="M270.079,208.539v6.412H268.64v-10.2h1.692l1.846,5.847V204.75h1.417v10.2h-1.5Z" transform="translate(-239.225 -189.946)" fill="#fff"/>
    <g id="Group_1073" data-name="Group 1073" transform="translate(35.359 14.804)">
      <path id="Path_2303" data-name="Path 2303" d="M297.381,213.549c.7,0,.971-.427.971-1.03v-5.341c0-.6-.271-1.03-.971-1.03h-.718v7.4h.718Zm2.7-6.061v4.722c0,1.554-.642,2.74-2.487,2.74H294.95v-10.2h2.643c1.828,0,2.487,1.166,2.487,2.738" transform="translate(-294.95 -204.75)" fill="#fff"/>
    </g>
    <path id="Path_2304" data-name="Path 2304" d="M336.225,208.654l-.971,6.3H333.66l-1.38-10.2h1.651l.8,6.468h.02l.854-6.468H337l.953,6.468h.018l.777-6.468h1.439l-1.322,10.2h-1.613l-1.01-6.3Z" transform="translate(-288.488 -189.946)" fill="#fff"/>
    <path id="Path_2305" data-name="Path 2305" d="M370.55,204.75h4.1v1.4h-2.39v2.914h1.71v1.378h-1.71v3.109h2.39v1.4h-4.1Z" transform="translate(-318.112 -189.946)" fill="#fff"/>
    <path id="Path_2306" data-name="Path 2306" d="M392.74,204.75h1.71v8.8h2.04v1.4h-3.75Z" transform="translate(-335.289 -189.946)" fill="#fff"/>
    <path id="Path_2307" data-name="Path 2307" d="M412.87,204.75h1.708v8.8h2.04v1.4H412.87Z" transform="translate(-350.871 -189.946)" fill="#fff"/>
    <rect id="Rectangle_1163" data-name="Rectangle 1163" width="2.408" height="1.38" transform="translate(65.514 19.583)" fill="#fff"/>
    <g id="Group_1074" data-name="Group 1074" transform="translate(68.799 14.804)">
      <path id="Path_2308" data-name="Path 2308" d="M444.678,210.364v3.185h.757a.742.742,0,0,0,.836-.836V211.18c0-.544-.253-.836-.854-.836h-.739v.02Zm0-1.322h.6a.727.727,0,0,0,.815-.836v-1.243a.727.727,0,0,0-.836-.836h-.583v2.914Zm-1.708-4.292h2.487c1.71,0,2.293.8,2.293,2.234v1.03a1.494,1.494,0,0,1-1.03,1.631,1.555,1.555,0,0,1,1.283,1.69v1.36c0,1.437-.642,2.234-2.37,2.234h-2.661l0-10.18Z" transform="translate(-442.97 -204.75)" fill="#fff"/>
    </g>
    <path id="Path_2309" data-name="Path 2309" d="M469.02,204.75h4.08v1.4h-2.37v2.914h1.71v1.378h-1.71v3.109h2.37v1.4h-4.08Z" transform="translate(-394.336 -189.946)" fill="#fff"/>
    <rect id="Rectangle_1164" data-name="Rectangle 1164" width="1.71" height="10.2" transform="translate(79.697 14.804)" fill="#fff"/>
    <path id="Path_2310" data-name="Path 2310" d="M504.607,208.539v6.412H503.17v-10.2h1.69l1.846,5.847V204.75h1.419v10.2h-1.5Z" transform="translate(-420.771 -189.946)" fill="#fff"/>
    <g id="Group_1075" data-name="Group 1075" transform="translate(88.325 14.671)">
      <path id="Path_2311" data-name="Path 2311" d="M532,209.053h2.429v5.44h-1.242v-1.107a1.526,1.526,0,0,1-1.631,1.225c-1.477,0-2.158-1.166-2.158-2.758v-4.934c0-1.593.757-2.758,2.564-2.758,1.9,0,2.449,1.048,2.449,2.564v.895h-1.575v-1.01c0-.621-.233-.992-.854-.992s-.895.427-.895,1.048v5.478c0,.621.253,1.048.836,1.048.563,0,.836-.312.836-.971v-1.807H532v-1.36Z" transform="translate(-529.4 -204.16)" fill="#fff"/>
    </g>
  </g>
</svg>
