<svg id="sdg-17-on" xmlns="http://www.w3.org/2000/svg" width="146.722" height="146.722" viewBox="0 0 146.722 146.722">
  <rect id="Rectangle_1171" data-name="Rectangle 1171" width="146.722" height="146.722" rx="4" fill="#19486a"/>
  <g id="Group_1096" data-name="Group 1096" transform="translate(24.984 23.621)">
    <g id="Group_1088" data-name="Group 1088" transform="translate(19.926 36.853)">
      <path id="Path_2353" data-name="Path 2353" d="M261.785,318.457a15.593,15.593,0,0,0,5-11.44,15.109,15.109,0,0,0-.133-2,12.458,12.458,0,0,1,7.042,21.614,15.628,15.628,0,0,0-11.907-8.175m10.6,15.483A12.486,12.486,0,0,1,259.919,346.4a12.305,12.305,0,0,1-6.153-1.644,15.6,15.6,0,0,0,4.287-10.729,16.3,16.3,0,0,0-.289-2.977,15.538,15.538,0,0,0,7.553,1.955,15.312,15.312,0,0,0,6.82-1.577,13.54,13.54,0,0,1,.244,2.51m-42.407.111a12.216,12.216,0,0,1,.267-2.577,15.554,15.554,0,0,0,14.328-.4,15.283,15.283,0,0,0-.267,2.866,15.56,15.56,0,0,0,4.421,10.863,12.259,12.259,0,0,1-6.264,1.711,12.476,12.476,0,0,1-12.484-12.462m-5.42-16.638a12.489,12.489,0,0,1,11.129-12.4,14.619,14.619,0,0,0-.133,2,15.567,15.567,0,0,0,5.109,11.529,15.667,15.667,0,0,0-11.973,8.108,12.42,12.42,0,0,1-4.132-9.241m26.613-22.881a12.5,12.5,0,0,1,11.44,7.508,15.7,15.7,0,0,0-11.44,8.775,15.616,15.616,0,0,0-11.44-8.775,12.5,12.5,0,0,1,11.44-7.508m2.977,28.368a12.439,12.439,0,0,1,16.949,5.553,12.439,12.439,0,0,1-16.949-5.553m-5.976.089a12.436,12.436,0,0,1-16.861,5.487,12.436,12.436,0,0,1,16.861-5.487m-9.308-17.9A12.488,12.488,0,0,1,249.5,317.413a13.568,13.568,0,0,1-.156,1.91A12.488,12.488,0,0,1,238.7,306.994a13.571,13.571,0,0,1,.156-1.91m12.373,37.786a12.419,12.419,0,0,1-.111-17.771,12.419,12.419,0,0,1,.111,17.771m12.418-35.876a12.5,12.5,0,0,1-10.641,12.329,13.573,13.573,0,0,1-.155-1.91A12.5,12.5,0,0,1,263.5,305.084a13.571,13.571,0,0,1,.155,1.91m17.283,10.418a15.608,15.608,0,0,0-15.039-15.594,15.619,15.619,0,0,0-29.456,0,15.6,15.6,0,0,0-9.019,27.9,15.589,15.589,0,0,0,14.995,19.948,15.641,15.641,0,0,0,8.819-2.732,15.619,15.619,0,0,0,24.28-13,14.95,14.95,0,0,0-.6-4.243,15.571,15.571,0,0,0,6.02-12.284" transform="translate(-221.4 -291.4)" fill="#fff"/>
    </g>
    <path id="Path_2354" data-name="Path 2354" d="M138.7,126.4v24.169h-4.065v-18.5h-.044l-2.843,2.954H131.7v-4.243l3.754-4.376Z" transform="translate(-131.7 -126.2)" fill="#fff"/>
    <path id="Path_2355" data-name="Path 2355" d="M171.5,126.4h10.2v3.732l-5.309,20.437h-4.043l5.42-20.859H171.5Z" transform="translate(-162.659 -126.2)" fill="#fff"/>
    <g id="Group_1089" data-name="Group 1089" transform="translate(27.99 0.089)">
      <path id="Path_2356" data-name="Path 2356" d="M259.41,127.3v3.976h.622a.743.743,0,0,0,.844-.844v-2.31c0-.555-.244-.822-.844-.822Zm-1.71-1.4h2.51c1.711,0,2.333.844,2.333,2.266V130.3c0,1.422-.622,2.288-2.333,2.288h-.822v3.421H257.7Z" transform="translate(-257.7 -125.9)" fill="#fff"/>
    </g>
    <path id="Path_2357" data-name="Path 2357" d="M281.833,132.809h1.355l-.666-4.065H282.5Zm-2.133,3.2,1.91-10.107h1.933l1.933,10.107h-1.733l-.311-1.844h-1.8l-.289,1.844Z" transform="translate(-246.823 -125.811)" fill="#fff"/>
    <g id="Group_1090" data-name="Group 1090" transform="translate(39.341 0.089)">
      <path id="Path_2358" data-name="Path 2358" d="M310.488,127.3v3.154h.578a.743.743,0,0,0,.844-.844v-1.488c0-.555-.244-.822-.844-.822Zm0,4.087v4.643H308.8V125.9h2.466c1.71,0,2.332.844,2.332,2.266v1.311c0,1.089-.378,1.733-1.355,1.955l1.622,4.6h-1.777Z" transform="translate(-308.8 -125.9)" fill="#fff"/>
    </g>
    <path id="Path_2359" data-name="Path 2359" d="M333.1,125.9h4.51v1.4h-1.4v8.708H334.5V127.3h-1.4Z" transform="translate(-288.361 -125.811)" fill="#fff"/>
    <path id="Path_2360" data-name="Path 2360" d="M358.344,129.676v6.331H356.9V125.9h1.688l1.822,5.8v-5.8h1.422v10.107h-1.488Z" transform="translate(-306.874 -125.811)" fill="#fff"/>
    <path id="Path_2361" data-name="Path 2361" d="M383.4,125.9h4.065v1.4H385.11v2.888H386.8v1.377H385.11v3.066h2.355v1.377H383.4Z" transform="translate(-327.487 -125.811)" fill="#fff"/>
    <g id="Group_1091" data-name="Group 1091" transform="translate(60.889)">
      <path id="Path_2362" data-name="Path 2362" d="M407.488,127.3v3.154h.578a.743.743,0,0,0,.844-.844v-1.488c0-.555-.244-.822-.844-.822Zm0,4.087v4.643H405.8V125.9h2.466c1.71,0,2.332.844,2.332,2.266v1.311c0,1.089-.378,1.733-1.355,1.955l1.622,4.6h-1.777Z" transform="translate(-405.8 -125.811)" fill="#fff"/>
      <path id="Path_2363" data-name="Path 2363" d="M430.9,133.519v-1.355h1.577v1.377c0,.578.244.889.844.889.533,0,.777-.355.777-.889v-.378a1.836,1.836,0,0,0-.755-1.422l-1-1c-.977-.955-1.422-1.533-1.422-2.688v-.333A2.11,2.11,0,0,1,433.3,125.5c1.711,0,2.377.844,2.377,2.288v.822h-1.555v-.889q0-.866-.8-.866a.749.749,0,0,0-.8.844v.2c0,.578.311.889.8,1.377l1.089,1.066a3.373,3.373,0,0,1,1.377,2.621v.489a2.2,2.2,0,0,1-2.466,2.377,2.117,2.117,0,0,1-2.421-2.31" transform="translate(-425.324 -125.5)" fill="#fff"/>
    </g>
    <path id="Path_2364" data-name="Path 2364" d="M460.132,131.642H458.51v4.443H456.8V126h1.711v4.265h1.622V126h1.733v10.085h-1.733Z" transform="translate(-384.582 -125.889)" fill="#fff"/>
    <rect id="Rectangle_1172" data-name="Rectangle 1172" width="1.71" height="10.107" transform="translate(78.238 0.089)" fill="#fff"/>
    <g id="Group_1092" data-name="Group 1092" transform="translate(80.926)">
      <path id="Path_2365" data-name="Path 2365" d="M497.688,127.3v3.976h.622a.743.743,0,0,0,.844-.844v-2.31c0-.555-.244-.822-.844-.822ZM496,125.9h2.51c1.711,0,2.332.844,2.332,2.266V130.3c0,1.422-.622,2.288-2.332,2.288h-.822v3.421H496Z" transform="translate(-496 -125.811)" fill="#fff"/>
      <path id="Path_2366" data-name="Path 2366" d="M521.4,133.519v-1.355h1.577v1.377c0,.578.244.889.844.889.533,0,.777-.355.777-.889v-.378a1.836,1.836,0,0,0-.755-1.422l-1-1c-.977-.955-1.422-1.533-1.422-2.688v-.333A2.11,2.11,0,0,1,523.8,125.5c1.711,0,2.377.844,2.377,2.288v.822h-1.555v-.889q0-.866-.8-.866a.749.749,0,0,0-.8.844v.2c0,.578.311.889.8,1.377l1.088,1.066a3.373,3.373,0,0,1,1.377,2.621v.489a2.2,2.2,0,0,1-2.466,2.377,2.117,2.117,0,0,1-2.421-2.31" transform="translate(-515.758 -125.5)" fill="#fff"/>
    </g>
    <path id="Path_2367" data-name="Path 2367" d="M257.7,189.7h4v1.377H259.41v2.888H261.1v1.377H259.41v4.465H257.7Z" transform="translate(-229.71 -175.438)" fill="#fff"/>
    <g id="Group_1093" data-name="Group 1093" transform="translate(32.566 14.128)">
      <path id="Path_2368" data-name="Path 2368" d="M281.743,196.986v-5.42c0-.622-.267-1.044-.889-1.044-.6,0-.866.422-.866,1.044v5.42c0,.622.267,1.044.866,1.044.622,0,.889-.422.889-1.044m-3.443-.267v-4.887c0-1.577.778-2.732,2.555-2.732a2.414,2.414,0,0,1,2.577,2.732v4.887a2.424,2.424,0,0,1-2.577,2.732c-1.777,0-2.555-1.155-2.555-2.732" transform="translate(-278.3 -189.1)" fill="#fff"/>
      <path id="Path_2369" data-name="Path 2369" d="M307.588,191.077v3.154h.578a.743.743,0,0,0,.844-.844V191.9c0-.555-.244-.822-.844-.822Zm0,4.087v4.643H305.9V189.7h2.466c1.711,0,2.333.844,2.333,2.266v1.288c0,1.089-.378,1.733-1.355,1.955l1.622,4.6h-1.777Z" transform="translate(-299.769 -189.567)" fill="#fff"/>
    </g>
    <path id="Path_2370" data-name="Path 2370" d="M342.3,189.7h4.509v1.377h-1.4v8.73H343.7v-8.73h-1.4Z" transform="translate(-295.517 -175.438)" fill="#fff"/>
    <path id="Path_2371" data-name="Path 2371" d="M369.532,195.342h-1.644v4.465H366.2V189.7h1.688v4.265h1.644V189.7h1.71v10.107h-1.71Z" transform="translate(-314.108 -175.438)" fill="#fff"/>
    <path id="Path_2372" data-name="Path 2372" d="M393.3,189.7h4.043v1.377h-2.355v2.888h1.688v1.377h-1.688v3.066h2.355v1.4H393.3Z" transform="translate(-335.188 -175.438)" fill="#fff"/>
    <g id="Group_1094" data-name="Group 1094" transform="translate(65.621 14.128)">
      <path id="Path_2373" data-name="Path 2373" d="M429.677,193.943H432.1v5.4h-1.244V198.23a1.54,1.54,0,0,1-1.622,1.222c-1.466,0-2.133-1.155-2.133-2.732v-4.887c0-1.577.755-2.732,2.555-2.732,1.888,0,2.421,1.044,2.421,2.532v.889h-1.555V191.5c0-.622-.244-.977-.844-.977s-.889.422-.889,1.044v5.42c0,.622.244,1.044.844,1.044.555,0,.844-.311.844-.977v-1.777h-.8v-1.333Z" transform="translate(-427.1 -189.1)" fill="#fff"/>
      <path id="Path_2374" data-name="Path 2374" d="M457.343,196.986v-5.42c0-.622-.267-1.044-.889-1.044-.6,0-.866.422-.866,1.044v5.42c0,.622.267,1.044.866,1.044.622,0,.889-.422.889-1.044m-3.443-.267v-4.887c0-1.577.777-2.732,2.555-2.732a2.414,2.414,0,0,1,2.577,2.732v4.887a2.424,2.424,0,0,1-2.577,2.732c-1.777,0-2.555-1.155-2.555-2.732" transform="translate(-447.947 -189.1)" fill="#fff"/>
    </g>
    <path id="Path_2375" data-name="Path 2375" d="M481.31,196.586h1.355L482,192.521h-.022Zm-2.11,3.221,1.91-10.107h1.933l1.933,10.107h-1.733l-.311-1.844h-1.8l-.289,1.844Z" transform="translate(-402.006 -175.438)" fill="#fff"/>
    <path id="Path_2376" data-name="Path 2376" d="M508.3,189.7h1.688v8.708h2.021v1.4H508.3Z" transform="translate(-424.642 -175.438)" fill="#fff"/>
    <g id="Group_1095" data-name="Group 1095" transform="translate(87.99 14.173)">
      <path id="Path_2377" data-name="Path 2377" d="M527.8,197.319v-1.355h1.577v1.377c0,.578.244.889.844.889.533,0,.778-.355.778-.889v-.378a1.836,1.836,0,0,0-.755-1.422l-1-1c-.977-.955-1.422-1.533-1.422-2.688v-.333A2.11,2.11,0,0,1,530.2,189.3c1.711,0,2.377.844,2.377,2.288v.822h-1.555v-.889q0-.866-.8-.866a.749.749,0,0,0-.8.844v.2c0,.578.311.889.8,1.377l1.089,1.066a3.373,3.373,0,0,1,1.377,2.621v.489a2.2,2.2,0,0,1-2.466,2.377,2.136,2.136,0,0,1-2.421-2.31" transform="translate(-527.8 -189.3)" fill="#fff"/>
    </g>
  </g>
</svg>
