<svg id="sdg-10-on" xmlns="http://www.w3.org/2000/svg" width="146.722" height="146.722" viewBox="0 0 146.722 146.722">
  <rect id="Rectangle_1167" data-name="Rectangle 1167" width="146.722" height="146.722" rx="4" fill="#dd1367"/>
  <g id="Group_1087" data-name="Group 1087" transform="translate(23.6 23.868)">
    <g id="Group_1081" data-name="Group 1081" transform="translate(28.75 0.286)">
      <path id="Path_2329" data-name="Path 2329" d="M254.148,127.163h.549c.549,0,.791.264.791.813v1.451c0,.528-.242.813-.791.813h-.549Zm0,4,1.517,4.55h1.714l-1.561-4.506c.923-.22,1.3-.857,1.3-1.912V128.02c0-1.385-.594-2.22-2.242-2.22H252.5v9.913h1.627v-4.55Z" transform="translate(-252.5 -125.8)" fill="#fff"/>
    </g>
    <path id="Path_2330" data-name="Path 2330" d="M282.09,134.35h-2.264v-3.011h1.627V130h-1.627v-2.835h2.264V125.8H278.2v9.891h3.89Z" transform="translate(-243.802 -125.514)" fill="#fff"/>
    <g id="Group_1082" data-name="Group 1082" transform="translate(39.3 0.154)">
      <path id="Path_2331" data-name="Path 2331" d="M303.731,133.339c0,.593-.264,1.011-.923,1.011h-.681v-7.187h.681c.659,0,.923.418.923.989Zm-.725-7.539H300.5v9.913h2.506c1.736,0,2.352-1.143,2.352-2.66V128.46c0-1.539-.615-2.66-2.352-2.66" transform="translate(-300.5 -125.668)" fill="#fff"/>
      <path id="Path_2332" data-name="Path 2332" d="M329.127,125.8H327.5v7.5c0,1.539.7,2.528,2.418,2.528,1.649,0,2.308-.989,2.308-2.528v-7.5h-1.495v7.649c0,.593-.22.989-.791.989s-.791-.4-.791-.989V125.8Z" transform="translate(-321.565 -125.668)" fill="#fff"/>
      <path id="Path_2333" data-name="Path 2333" d="M353.9,127.882v4.792c0,1.539.7,2.682,2.418,2.682,1.736,0,2.286-1.055,2.286-2.462v-1.714h-1.473V133c0,.593-.2.967-.791.967s-.835-.418-.835-1.011v-5.341c0-.593.242-1.033.835-1.033s.791.352.791.967v1.3H358.6v-1.165c0-1.451-.505-2.484-2.286-2.484-1.714.022-2.418,1.143-2.418,2.682" transform="translate(-342.163 -125.2)" fill="#fff"/>
    </g>
    <path id="Path_2334" data-name="Path 2334" d="M380,135.691h3.89V134.35h-2.264v-3.011h1.6V130h-1.6v-2.835h2.264V125.8H380Z" transform="translate(-323.226 -125.514)" fill="#fff"/>
    <g id="Group_1083" data-name="Group 1083" transform="translate(61.675 0.286)">
      <path id="Path_2335" data-name="Path 2335" d="M405.531,128.152v5.187c0,.593-.264,1.011-.923,1.011h-.681v-7.187h.681c.659,0,.923.4.923.989M402.3,125.8v9.913h2.506c1.736,0,2.352-1.143,2.352-2.66V128.46c0-1.539-.615-2.66-2.352-2.66Z" transform="translate(-402.3 -125.8)" fill="#fff"/>
    </g>
    <rect id="Rectangle_1168" data-name="Rectangle 1168" width="1.627" height="9.913" transform="translate(28.772 14.463)" fill="#fff"/>
    <path id="Path_2336" data-name="Path 2336" d="M269.5,190.3h-1.341v5.671L266.4,190.3h-1.6v9.891h1.363v-6.22l1.912,6.22H269.5Z" transform="translate(-233.347 -175.837)" fill="#fff"/>
    <path id="Path_2337" data-name="Path 2337" d="M294.268,191.641V190.3H290.4v9.891h3.868v-1.363h-2.242v-2.989h1.6v-1.363h-1.6v-2.835Z" transform="translate(-253.32 -175.837)" fill="#fff"/>
    <g id="Group_1084" data-name="Group 1084" transform="translate(41.542 14.331)">
      <path id="Path_2338" data-name="Path 2338" d="M314,197.525c0,.593-.264,1.011-.835,1.011s-.835-.44-.835-1.011v-5.407c0-.593.264-1.033.835-1.033.593,0,.835.418.835,1.033Zm-.835-7.825c-1.714,0-2.462,1.121-2.462,2.682v4.792a2.253,2.253,0,0,0,1.846,2.55v.681l3.077.593v-1.231l-1.209-.242a2.387,2.387,0,0,0,1.209-2.33V192.4c0-1.583-.725-2.7-2.462-2.7" transform="translate(-310.7 -189.7)" fill="#fff"/>
      <path id="Path_2339" data-name="Path 2339" d="M337.3,190.3v7.5c0,1.539.7,2.528,2.418,2.528,1.648,0,2.308-.989,2.308-2.528v-7.5h-1.495v7.649c0,.593-.22.989-.791.989s-.791-.4-.791-.989V190.3Z" transform="translate(-331.453 -190.168)" fill="#fff"/>
    </g>
    <path id="Path_2340" data-name="Path 2340" d="M363.244,197.048l.637-3.978h.022l.637,3.978Zm-.22-6.748-1.824,9.913h1.539l.286-1.8h1.736l.308,1.8h1.671l-1.846-9.913Z" transform="translate(-308.558 -175.837)" fill="#fff"/>
    <path id="Path_2341" data-name="Path 2341" d="M389.3,190.3v9.891h3.561v-1.363h-1.934V190.3Z" transform="translate(-330.482 -175.837)" fill="#fff"/>
    <rect id="Rectangle_1169" data-name="Rectangle 1169" width="1.627" height="9.913" transform="translate(63.104 14.463)" fill="#fff"/>
    <path id="Path_2342" data-name="Path 2342" d="M422.589,200.191v-8.55h1.341V190.3H419.6v1.341h1.341v8.55Z" transform="translate(-354.122 -175.837)" fill="#fff"/>
    <rect id="Rectangle_1170" data-name="Rectangle 1170" width="1.627" height="9.913" transform="translate(70.533 14.463)" fill="#fff"/>
    <path id="Path_2343" data-name="Path 2343" d="M458.168,198.828h-2.242v-2.989h1.6v-1.363h-1.6v-2.835h2.242V190.3H454.3v9.891h3.868Z" transform="translate(-381.195 -175.837)" fill="#fff"/>
    <g id="Group_1085" data-name="Group 1085" transform="translate(77.611 14.353)">
      <path id="Path_2344" data-name="Path 2344" d="M474.8,196.35v1.319a2.036,2.036,0,0,0,2.308,2.242,2.13,2.13,0,0,0,2.374-2.33V197.1a3.378,3.378,0,0,0-1.319-2.572l-1.033-1.055c-.462-.462-.769-.791-.769-1.341v-.2a.718.718,0,0,1,.769-.813c.506,0,.769.286.769.835v.857h1.473v-.769a1.971,1.971,0,0,0-2.264-2.242,2.041,2.041,0,0,0-2.286,2.176v.33a3.29,3.29,0,0,0,1.363,2.638l.945.989a1.789,1.789,0,0,1,.725,1.407v.374c0,.528-.22.879-.747.879-.55,0-.791-.33-.791-.879V196.35Z" transform="translate(-474.8 -189.8)" fill="#fff"/>
    </g>
    <path id="Path_2345" data-name="Path 2345" d="M124.535,131.527v18.441h3.956V125.9h-3.165l-3.627,4.352v4.242h.022l2.769-2.967Z" transform="translate(-121.7 -125.592)" fill="#fff"/>
    <g id="Group_1086" data-name="Group 1086" transform="translate(9.517)">
      <path id="Path_2346" data-name="Path 2346" d="M168.956,143.293V130.369c0-1.451.528-2.484,1.868-2.484,1.385,0,1.912,1.033,1.912,2.484v12.924c0,1.451-.528,2.484-1.912,2.484-1.341,0-1.868-1.033-1.868-2.484m7.737-.637V131.006c0-3.759-1.846-6.506-5.869-6.506-3.978,0-5.825,2.726-5.825,6.506v11.649c0,3.737,1.846,6.506,5.825,6.506,4.022,0,5.869-2.769,5.869-6.506" transform="translate(-165 -124.5)" fill="#fff"/>
      <path id="Path_2347" data-name="Path 2347" d="M320.69,436H298.842a.249.249,0,0,0-.242.264v6.572a.249.249,0,0,0,.242.264H320.69a.249.249,0,0,0,.242-.264v-6.572a.264.264,0,0,0-.242-.264" transform="translate(-269.235 -367.533)" fill="#fff"/>
      <path id="Path_2348" data-name="Path 2348" d="M320.69,372.5H298.842a.249.249,0,0,0-.242.264v6.572a.249.249,0,0,0,.242.264H320.69a.249.249,0,0,0,.242-.264v-6.572a.249.249,0,0,0-.242-.264" transform="translate(-269.235 -317.99)" fill="#fff"/>
      <path id="Path_2349" data-name="Path 2349" d="M322.142,289.909l-10.484-10.484a.2.2,0,0,0-.264,0l-10.484,10.484a.179.179,0,0,0,.132.308H322.01a.182.182,0,0,0,.132-.308" transform="translate(-270.995 -245.334)" fill="#fff"/>
      <path id="Path_2350" data-name="Path 2350" d="M441.308,393.158l10.484-10.484a.2.2,0,0,0,0-.264l-10.484-10.484a.184.184,0,0,0-.308.132v20.969a.184.184,0,0,0,.308.132" transform="translate(-380.336 -317.504)" fill="#fff"/>
      <path id="Path_2351" data-name="Path 2351" d="M300.926,512.408l10.484,10.484a.2.2,0,0,0,.264,0l10.484-10.484a.179.179,0,0,0-.132-.308H301.058a.184.184,0,0,0-.132.308" transform="translate(-271.011 -426.906)" fill="#fff"/>
      <path id="Path_2352" data-name="Path 2352" d="M218.909,371.926,208.424,382.41a.2.2,0,0,0,0,.264l10.484,10.484a.184.184,0,0,0,.308-.132V372.058a.184.184,0,0,0-.308-.132" transform="translate(-198.841 -317.504)" fill="#fff"/>
    </g>
  </g>
</svg>
