<svg id="sdg-17" xmlns="http://www.w3.org/2000/svg" width="158.142" height="158.142" viewBox="0 0 158.142 158.142">
  <rect id="Rectangle_1171" data-name="Rectangle 1171" width="158.142" height="158.142" rx="4" fill="#19486a"/>
  <g id="Group_1096" data-name="Group 1096" transform="translate(29.753 28.353)">
    <g id="Group_1088" data-name="Group 1088" transform="translate(20.265 37.48)">
      <path id="Path_2353" data-name="Path 2353" d="M262.472,318.917a15.858,15.858,0,0,0,5.083-11.635,15.369,15.369,0,0,0-.136-2.033,12.67,12.67,0,0,1,7.162,21.982,15.893,15.893,0,0,0-12.109-8.314m10.776,15.746a12.7,12.7,0,0,1-12.674,12.674,12.514,12.514,0,0,1-6.258-1.672,15.862,15.862,0,0,0,4.36-10.912,16.572,16.572,0,0,0-.294-3.027,15.8,15.8,0,0,0,7.681,1.988,15.572,15.572,0,0,0,6.936-1.6,13.775,13.775,0,0,1,.248,2.553m-43.128.113a12.424,12.424,0,0,1,.271-2.621,15.818,15.818,0,0,0,14.572-.407,15.542,15.542,0,0,0-.271,2.914,15.825,15.825,0,0,0,4.5,11.047,12.467,12.467,0,0,1-6.371,1.74,12.688,12.688,0,0,1-12.7-12.674m-5.512-16.921a12.7,12.7,0,0,1,11.318-12.606,14.871,14.871,0,0,0-.136,2.033,15.832,15.832,0,0,0,5.2,11.725,15.933,15.933,0,0,0-12.177,8.246,12.632,12.632,0,0,1-4.2-9.4m27.065-23.27a12.707,12.707,0,0,1,11.635,7.636,15.964,15.964,0,0,0-11.635,8.924,15.882,15.882,0,0,0-11.635-8.924,12.707,12.707,0,0,1,11.635-7.636m3.027,28.85a12.65,12.65,0,0,1,17.237,5.648,12.65,12.65,0,0,1-17.237-5.648m-6.077.09a12.647,12.647,0,0,1-17.147,5.58,12.648,12.648,0,0,1,17.147-5.58m-9.466-18.209a12.7,12.7,0,0,1,10.821,12.538,13.8,13.8,0,0,1-.158,1.943A12.7,12.7,0,0,1,239,307.259a13.8,13.8,0,0,1,.158-1.943m12.584,38.429a12.63,12.63,0,0,1-.113-18.073,12.63,12.63,0,0,1,.113,18.073m12.629-36.486A12.715,12.715,0,0,1,253.548,319.8a13.8,13.8,0,0,1-.158-1.943,12.715,12.715,0,0,1,10.821-12.538,13.8,13.8,0,0,1,.158,1.943m17.576,10.6A15.873,15.873,0,0,0,266.651,302a15.885,15.885,0,0,0-29.957,0,15.865,15.865,0,0,0-9.172,28.375,15.731,15.731,0,0,0-.633,4.405,15.878,15.878,0,0,0,24.851,13.1,15.885,15.885,0,0,0,24.693-13.216,15.2,15.2,0,0,0-.61-4.315,15.835,15.835,0,0,0,6.122-12.493" transform="translate(-221.4 -291.4)" fill="#fff"/>
    </g>
    <path id="Path_2354" data-name="Path 2354" d="M138.816,126.4v24.58h-4.134V132.161h-.045l-2.892,3H131.7v-4.315l3.818-4.451Z" transform="translate(-131.7 -126.197)" fill="#fff"/>
    <path id="Path_2355" data-name="Path 2355" d="M171.5,126.4h10.37v3.8l-5.4,20.784h-4.112l5.512-21.214H171.5Z" transform="translate(-162.508 -126.197)" fill="#fff"/>
    <g id="Group_1089" data-name="Group 1089" transform="translate(28.466 0.09)">
      <path id="Path_2356" data-name="Path 2356" d="M259.439,127.323v4.044h.633a.756.756,0,0,0,.859-.859v-2.35c0-.565-.249-.836-.859-.836ZM257.7,125.9h2.553c1.74,0,2.372.858,2.372,2.3v2.169c0,1.446-.633,2.327-2.372,2.327h-.836v3.479H257.7Z" transform="translate(-257.7 -125.9)" fill="#fff"/>
    </g>
    <path id="Path_2357" data-name="Path 2357" d="M281.869,132.926h1.378l-.678-4.134h-.023Zm-2.169,3.253,1.943-10.279h1.966l1.965,10.279h-1.762L283.5,134.3h-1.83l-.294,1.875Z" transform="translate(-246.264 -125.81)" fill="#fff"/>
    <g id="Group_1090" data-name="Group 1090" transform="translate(40.01 0.09)">
      <path id="Path_2358" data-name="Path 2358" d="M310.517,127.323v3.208h.587a.756.756,0,0,0,.858-.858v-1.514c0-.565-.248-.836-.858-.836Zm0,4.157V136.2H308.8V125.9h2.508c1.74,0,2.372.858,2.372,2.3v1.333c0,1.107-.384,1.762-1.378,1.988l1.649,4.676h-1.807Z" transform="translate(-308.8 -125.9)" fill="#fff"/>
    </g>
    <path id="Path_2359" data-name="Path 2359" d="M333.1,125.9h4.586v1.423h-1.423v8.856h-1.74v-8.856H333.1Z" transform="translate(-287.6 -125.81)" fill="#fff"/>
    <path id="Path_2360" data-name="Path 2360" d="M358.368,129.741v6.439H356.9V125.9h1.717l1.853,5.9v-5.9h1.446v10.279H360.4Z" transform="translate(-306.023 -125.81)" fill="#fff"/>
    <path id="Path_2361" data-name="Path 2361" d="M383.4,125.9h4.134v1.423H385.14v2.937h1.717v1.4H385.14v3.118h2.395v1.4H383.4Z" transform="translate(-326.537 -125.81)" fill="#fff"/>
    <g id="Group_1091" data-name="Group 1091" transform="translate(61.924)">
      <path id="Path_2362" data-name="Path 2362" d="M407.517,127.323v3.208h.587a.756.756,0,0,0,.859-.858v-1.514c0-.565-.249-.836-.859-.836Zm0,4.157V136.2H405.8V125.9h2.508c1.74,0,2.372.858,2.372,2.3v1.333c0,1.107-.384,1.762-1.378,1.988l1.649,4.676h-1.807Z" transform="translate(-405.8 -125.81)" fill="#fff"/>
      <path id="Path_2363" data-name="Path 2363" d="M430.9,133.656v-1.378h1.6v1.4c0,.587.249.9.858.9.542,0,.791-.361.791-.9v-.384a1.867,1.867,0,0,0-.768-1.446l-1.017-1.017c-.994-.971-1.446-1.559-1.446-2.734v-.339a2.146,2.146,0,0,1,2.417-2.259c1.74,0,2.417.858,2.417,2.327v.836h-1.581v-.9q0-.881-.813-.881a.762.762,0,0,0-.813.858v.2c0,.587.316.9.813,1.4l1.107,1.084a3.43,3.43,0,0,1,1.4,2.666v.5a2.236,2.236,0,0,1-2.508,2.417,2.153,2.153,0,0,1-2.462-2.35" transform="translate(-425.229 -125.5)" fill="#fff"/>
    </g>
    <path id="Path_2364" data-name="Path 2364" d="M460.189,131.738H458.54v4.518H456.8V126h1.74v4.338h1.649V126h1.762v10.257h-1.762Z" transform="translate(-383.354 -125.887)" fill="#fff"/>
    <rect id="Rectangle_1172" data-name="Rectangle 1172" width="1.74" height="10.279" transform="translate(79.568 0.09)" fill="#fff"/>
    <g id="Group_1092" data-name="Group 1092" transform="translate(82.302)">
      <path id="Path_2365" data-name="Path 2365" d="M497.717,127.323v4.044h.633a.756.756,0,0,0,.858-.859v-2.35c0-.565-.248-.836-.858-.836ZM496,125.9h2.553c1.74,0,2.372.858,2.372,2.3v2.169c0,1.446-.633,2.327-2.372,2.327h-.836v3.479H496Z" transform="translate(-496 -125.81)" fill="#fff"/>
      <path id="Path_2366" data-name="Path 2366" d="M521.4,133.656v-1.378H523v1.4c0,.587.249.9.859.9.542,0,.791-.361.791-.9v-.384a1.868,1.868,0,0,0-.768-1.446l-1.017-1.017c-.994-.971-1.446-1.559-1.446-2.734v-.339a2.146,2.146,0,0,1,2.417-2.259c1.74,0,2.417.858,2.417,2.327v.836h-1.581v-.9q0-.881-.813-.881a.762.762,0,0,0-.813.858v.2c0,.587.316.9.813,1.4l1.107,1.084a3.43,3.43,0,0,1,1.4,2.666v.5a2.236,2.236,0,0,1-2.508,2.417,2.153,2.153,0,0,1-2.463-2.35" transform="translate(-515.662 -125.5)" fill="#fff"/>
    </g>
    <path id="Path_2367" data-name="Path 2367" d="M257.7,189.7h4.066v1.4H259.44v2.937h1.717v1.4H259.44v4.541H257.7Z" transform="translate(-229.234 -175.196)" fill="#fff"/>
    <g id="Group_1093" data-name="Group 1093" transform="translate(33.119 14.368)">
      <path id="Path_2368" data-name="Path 2368" d="M281.8,197.12v-5.512c0-.633-.271-1.062-.9-1.062-.61,0-.881.429-.881,1.062v5.512c0,.633.271,1.062.881,1.062.633,0,.9-.429.9-1.062m-3.5-.271v-4.97c0-1.6.791-2.779,2.6-2.779a2.455,2.455,0,0,1,2.621,2.779v4.97a2.465,2.465,0,0,1-2.621,2.779c-1.807,0-2.6-1.175-2.6-2.779" transform="translate(-278.3 -189.1)" fill="#fff"/>
      <path id="Path_2369" data-name="Path 2369" d="M307.617,191.1v3.208h.587a.756.756,0,0,0,.858-.858v-1.514c0-.565-.248-.836-.858-.836Zm0,4.157v4.722H305.9V189.7h2.508c1.74,0,2.372.858,2.372,2.3v1.31c0,1.107-.384,1.762-1.378,1.988l1.649,4.676h-1.807Z" transform="translate(-299.665 -189.564)" fill="#fff"/>
    </g>
    <path id="Path_2370" data-name="Path 2370" d="M342.3,189.7h4.586v1.4h-1.423v8.879h-1.74V191.1H342.3Z" transform="translate(-294.722 -175.196)" fill="#fff"/>
    <path id="Path_2371" data-name="Path 2371" d="M369.589,195.438h-1.672v4.541H366.2V189.7h1.717v4.338h1.672V189.7h1.74v10.279h-1.74Z" transform="translate(-313.222 -175.196)" fill="#fff"/>
    <path id="Path_2372" data-name="Path 2372" d="M393.3,189.7h4.112v1.4h-2.395v2.937h1.717v1.4h-1.717v3.118h2.395v1.423H393.3Z" transform="translate(-334.2 -175.196)" fill="#fff"/>
    <g id="Group_1094" data-name="Group 1094" transform="translate(66.736 14.368)">
      <path id="Path_2373" data-name="Path 2373" d="M429.721,194.025h2.462v5.49h-1.265v-1.13a1.566,1.566,0,0,1-1.649,1.243c-1.491,0-2.169-1.175-2.169-2.779v-4.97c0-1.6.768-2.779,2.6-2.779,1.92,0,2.462,1.062,2.462,2.575v.9h-1.581V191.54c0-.633-.249-.994-.858-.994s-.9.429-.9,1.062v5.512c0,.633.249,1.062.858,1.062.565,0,.859-.316.859-.994v-1.807h-.813v-1.355Z" transform="translate(-427.1 -189.1)" fill="#fff"/>
      <path id="Path_2374" data-name="Path 2374" d="M457.4,197.12v-5.512c0-.633-.271-1.062-.9-1.062-.61,0-.881.429-.881,1.062v5.512c0,.633.271,1.062.881,1.062.633,0,.9-.429.9-1.062m-3.5-.271v-4.97c0-1.6.791-2.779,2.6-2.779a2.455,2.455,0,0,1,2.621,2.779v4.97a2.465,2.465,0,0,1-2.621,2.779c-1.807,0-2.6-1.175-2.6-2.779" transform="translate(-447.845 -189.1)" fill="#fff"/>
    </g>
    <path id="Path_2375" data-name="Path 2375" d="M481.346,196.7h1.378l-.678-4.134h-.023Zm-2.146,3.276,1.943-10.279h1.966l1.965,10.279h-1.762L483,198.1h-1.83l-.294,1.875Z" transform="translate(-400.694 -175.196)" fill="#fff"/>
    <path id="Path_2376" data-name="Path 2376" d="M508.3,189.7h1.717v8.856h2.056v1.423H508.3Z" transform="translate(-423.22 -175.196)" fill="#fff"/>
    <g id="Group_1095" data-name="Group 1095" transform="translate(89.486 14.414)">
      <path id="Path_2377" data-name="Path 2377" d="M527.8,197.456v-1.378h1.6v1.4c0,.587.248.9.858.9.542,0,.791-.361.791-.9v-.384a1.868,1.868,0,0,0-.768-1.446l-1.017-1.017c-.994-.971-1.446-1.559-1.446-2.734v-.339a2.146,2.146,0,0,1,2.417-2.259c1.74,0,2.417.859,2.417,2.327v.836h-1.581v-.9q0-.881-.813-.881a.762.762,0,0,0-.813.859v.2c0,.587.316.9.813,1.4l1.107,1.084a3.43,3.43,0,0,1,1.4,2.666v.5a2.236,2.236,0,0,1-2.508,2.417,2.172,2.172,0,0,1-2.462-2.35" transform="translate(-527.8 -189.3)" fill="#fff"/>
    </g>
  </g>
</svg>
