<svg id="sdg-09" xmlns="http://www.w3.org/2000/svg" width="158.142" height="158.142" viewBox="0 0 158.142 158.142">
  <rect id="white" width="158.142" height="158.142" rx="4" fill="#fff"/>
  <g id="Group_2464" data-name="Group 2464" opacity="0.3">
    <rect id="Rectangle_1167" data-name="Rectangle 1167" width="158.142" height="158.142" rx="4" fill="#fd6925"/>
    <g id="Group_2445" data-name="Group 2445" transform="translate(22.966 27.696)">
      <g id="Group_2445-2" data-name="Group 2445" transform="translate(0 0)">
        <path id="Path_14633" data-name="Path 14633" d="M239.384,121.4c0-3.83-1.679-6.6-6.055-6.6-4.413,0-6.127,2.4-6.127,6.234v3.647c0,4.049,1.6,6.091,4.6,6.091a3.557,3.557,0,0,0,3.427-2.005h.035v5.323c0,1.5-.583,2.554-2.078,2.554s-2.043-.876-2.043-2.408v-1.64h-3.793v1.315c0,3.645,1.314,6.2,5.909,6.2,4.375,0,6.127-2.807,6.127-6.674Zm-4.123,3.794c-.074,1.385-.656,2.26-1.968,2.26-1.421,0-1.969-.875-1.969-2.48v-4.3c0-1.568.581-2.479,2.005-2.479,1.386,0,1.932.947,1.932,2.479Z" transform="translate(-227.203 -114.797)" fill="#fff"/>
        <rect id="Rectangle_1218" data-name="Rectangle 1218" width="1.74" height="10.341" transform="translate(18.18 0.399)" fill="#fff"/>
        <path id="Path_14634" data-name="Path 14634" d="M245.1,118.961v6.5h-1.464V115.117h1.709l1.876,5.934v-5.934h1.449v10.341h-1.525Z" transform="translate(-223.155 -114.718)" fill="#fff"/>
        <path id="Path_14635" data-name="Path 14635" d="M253.315,117.894v4.787c0,1.588-.656,2.777-2.516,2.777h-2.685V115.117H250.8c1.861,0,2.516,1.177,2.516,2.777m-2.729,6.146c.717,0,.991-.426.991-1.052v-5.415a.906.906,0,0,0-.991-1.037h-.732v7.5Z" transform="translate(-222.053 -114.718)" fill="#fff"/>
        <path id="Path_14636" data-name="Path 14636" d="M257.776,115.117v7.826c0,1.6-.688,2.636-2.455,2.636a2.332,2.332,0,0,1-2.595-2.636v-7.826h1.74v7.993c0,.609.244,1.021.855,1.021s.854-.411.854-1.021v-7.993Z" transform="translate(-220.917 -114.718)" fill="#fff"/>
        <path id="Path_14637" data-name="Path 14637" d="M257.143,123.256v-1.387h1.616v1.417c0,.581.26.916.854.916.55,0,.794-.366.794-.916v-.4a1.867,1.867,0,0,0-.778-1.463l-1.022-1.022c-.992-.976-1.449-1.572-1.449-2.761v-.351a2.157,2.157,0,0,1,2.44-2.273c1.739,0,2.425.855,2.425,2.351v.839h-1.587v-.9c0-.594-.274-.885-.824-.885a.762.762,0,0,0-.823.854v.213c0,.58.319.916.823,1.4l1.114,1.1c.946.961,1.4,1.54,1.4,2.685v.5A2.238,2.238,0,0,1,259.6,125.6a2.153,2.153,0,0,1-2.455-2.348" transform="translate(-219.829 -114.742)" fill="#fff"/>
        <path id="Path_14638" data-name="Path 14638" d="M261.18,115.117H265.8v1.418h-1.433v8.922h-1.755v-8.922H261.18Z" transform="translate(-218.834 -114.718)" fill="#fff"/>
        <path id="Path_14639" data-name="Path 14639" d="M266.92,120.715v4.743h-1.74V115.118h2.532c1.754,0,2.4.869,2.4,2.317v1.329c0,1.113-.4,1.769-1.39,2l1.664,4.7h-1.831Zm0-4.179v3.218h.579a.752.752,0,0,0,.854-.854v-1.525c0-.565-.259-.839-.854-.839Z" transform="translate(-217.849 -114.718)" fill="#fff"/>
        <path id="Path_14640" data-name="Path 14640" d="M272.8,121.523v3.935h-1.74v-3.935l-1.937-6.4h1.816l1.052,3.92H272l1.052-3.92h1.663Z" transform="translate(-216.879 -114.718)" fill="#fff"/>
        <path id="Path_14641" data-name="Path 14641" d="M274.823,122.218l-.885,2.333h-.976l.213-2.47h1.648Z" transform="translate(-215.932 -113.003)" fill="#fff"/>
        <rect id="Rectangle_1219" data-name="Rectangle 1219" width="1.74" height="10.341" transform="translate(60.598 0.399)" fill="#fff"/>
        <path id="Path_14642" data-name="Path 14642" d="M279.137,118.961v6.5h-1.464V115.117h1.709l1.876,5.934v-5.934h1.449v10.341h-1.525Z" transform="translate(-214.772 -114.718)" fill="#fff"/>
        <path id="Path_14643" data-name="Path 14643" d="M283.614,118.961v6.5H282.15V115.117h1.709l1.876,5.934v-5.934h1.449v10.341h-1.525Z" transform="translate(-213.669 -114.718)" fill="#fff"/>
        <path id="Path_14644" data-name="Path 14644" d="M286.628,122.812v-5c0-1.616.794-2.792,2.623-2.792a2.466,2.466,0,0,1,2.64,2.792v5a2.636,2.636,0,1,1-5.263,0m3.523.275v-5.551c0-.626-.275-1.068-.9-1.068s-.885.442-.885,1.068v5.551c0,.624.274,1.067.885,1.067s.9-.442.9-1.067" transform="translate(-212.566 -114.742)" fill="#fff"/>
        <path id="Path_14645" data-name="Path 14645" d="M296.662,115.117,294.7,125.458H292.8l-1.967-10.341h1.768l1.19,7.215h.015l1.22-7.215Z" transform="translate(-211.53 -114.718)" fill="#fff"/>
        <path id="Path_14646" data-name="Path 14646" d="M294.776,125.457l1.952-10.339h1.983l1.968,10.339h-1.785l-.32-1.891h-1.846l-.3,1.891Zm2.181-3.279h1.387l-.685-4.148h-.015Z" transform="translate(-210.559 -114.718)" fill="#fff"/>
        <path id="Path_14647" data-name="Path 14647" d="M298.96,115.117h4.621v1.418h-1.433v8.922h-1.754v-8.922H298.96Z" transform="translate(-209.529 -114.718)" fill="#fff"/>
        <rect id="Rectangle_1220" data-name="Rectangle 1220" width="1.74" height="10.341" transform="translate(94.418 0.399)" fill="#fff"/>
        <path id="Path_14648" data-name="Path 14648" d="M304.808,122.812v-5c0-1.616.794-2.792,2.623-2.792,1.846,0,2.638,1.175,2.638,2.792v5a2.635,2.635,0,1,1-5.262,0m3.523.275v-5.551c0-.626-.274-1.068-.9-1.068s-.885.442-.885,1.068v5.551c0,.624.274,1.067.885,1.067s.9-.442.9-1.067" transform="translate(-208.088 -114.742)" fill="#fff"/>
        <path id="Path_14649" data-name="Path 14649" d="M310.934,118.961v6.5h-1.465V115.117h1.709l1.876,5.934v-5.934H314.5v10.341h-1.525Z" transform="translate(-206.94 -114.718)" fill="#fff"/>
        <path id="Path_14650" data-name="Path 14650" d="M241.569,137.08l1.952-10.341H245.5l1.968,10.341h-1.785l-.32-1.891h-1.846l-.3,1.891Zm2.181-3.279h1.387l-.685-4.149h-.015Z" transform="translate(-223.665 -111.856)" fill="#fff"/>
        <path id="Path_14651" data-name="Path 14651" d="M247.988,130.583v6.5h-1.464V126.739h1.709l1.876,5.935v-5.935h1.449V137.08h-1.526Z" transform="translate(-222.444 -111.856)" fill="#fff"/>
        <path id="Path_14652" data-name="Path 14652" d="M256.2,129.514v4.79c0,1.587-.656,2.776-2.516,2.776H251V126.74h2.685c1.861,0,2.516,1.174,2.516,2.774m-2.729,6.148c.717,0,.991-.427.991-1.053V129.2a.906.906,0,0,0-.991-1.037h-.732v7.5Z" transform="translate(-221.341 -111.855)" fill="#fff"/>
        <rect id="Rectangle_1221" data-name="Rectangle 1221" width="1.74" height="10.342" transform="translate(36.567 14.883)" fill="#fff"/>
        <path id="Path_14653" data-name="Path 14653" d="M259.855,130.583v6.5h-1.464V126.739H260.1l1.876,5.935v-5.935h1.449V137.08H261.9Z" transform="translate(-219.521 -111.856)" fill="#fff"/>
        <path id="Path_14654" data-name="Path 14654" d="M262.869,126.739h4.072v1.418h-2.332v2.959h1.737v1.4h-1.737v4.56h-1.74Z" transform="translate(-218.418 -111.856)" fill="#fff"/>
        <path id="Path_14655" data-name="Path 14655" d="M268.131,132.337v4.743h-1.74V126.74h2.533c1.754,0,2.4.87,2.4,2.317v1.329c0,1.113-.4,1.769-1.39,2l1.664,4.7h-1.831Zm0-4.179v3.218h.58a.752.752,0,0,0,.854-.854V129c0-.565-.259-.839-.854-.839Z" transform="translate(-217.551 -111.855)" fill="#fff"/>
        <path id="Path_14656" data-name="Path 14656" d="M270.528,137.08l1.95-10.341h1.983l1.969,10.341h-1.786l-.319-1.891h-1.847l-.3,1.891Zm2.181-3.279h1.386l-.685-4.149H273.4Z" transform="translate(-216.532 -111.856)" fill="#fff"/>
        <path id="Path_14657" data-name="Path 14657" d="M275.287,134.878v-1.387H276.9v1.417c0,.581.26.916.854.916.55,0,.794-.366.794-.916v-.4a1.867,1.867,0,0,0-.778-1.463l-1.022-1.022c-.992-.976-1.449-1.572-1.449-2.761v-.351a2.157,2.157,0,0,1,2.44-2.273c1.739,0,2.425.854,2.425,2.351v.839h-1.587v-.9c0-.594-.274-.885-.824-.885a.763.763,0,0,0-.823.855v.213c0,.58.319.915.823,1.4l1.114,1.1c.946.961,1.4,1.54,1.4,2.685v.5a2.238,2.238,0,0,1-2.531,2.424,2.153,2.153,0,0,1-2.455-2.348" transform="translate(-215.36 -111.88)" fill="#fff"/>
        <path id="Path_14658" data-name="Path 14658" d="M279.324,126.739h4.621v1.418h-1.433v8.924h-1.755v-8.924h-1.433Z" transform="translate(-214.365 -111.856)" fill="#fff"/>
        <path id="Path_14659" data-name="Path 14659" d="M285.064,132.337v4.743h-1.74V126.74h2.533c1.754,0,2.4.87,2.4,2.317v1.329c0,1.113-.4,1.769-1.39,2l1.664,4.7H286.7Zm0-4.179v3.218h.579a.752.752,0,0,0,.854-.854V129c0-.565-.259-.839-.854-.839Z" transform="translate(-213.38 -111.855)" fill="#fff"/>
        <path id="Path_14660" data-name="Path 14660" d="M292.729,126.739v7.826c0,1.6-.687,2.637-2.455,2.637a2.333,2.333,0,0,1-2.594-2.637v-7.826h1.74v7.993c0,.609.244,1.021.854,1.021s.854-.411.854-1.021v-7.993Z" transform="translate(-212.307 -111.856)" fill="#fff"/>
        <path id="Path_14661" data-name="Path 14661" d="M292.17,134.435v-5c0-1.616.763-2.792,2.592-2.792,1.922,0,2.456,1.068,2.456,2.595v1.219h-1.587V129.1c0-.642-.213-1.008-.839-1.008s-.884.442-.884,1.068v5.552c0,.624.258,1.067.884,1.067s.839-.4.839-1.006v-1.908h1.587v1.785c0,1.479-.611,2.577-2.456,2.577-1.83,0-2.592-1.189-2.592-2.79" transform="translate(-211.201 -111.88)" fill="#fff"/>
        <path id="Path_14662" data-name="Path 14662" d="M296.342,126.739h4.621v1.418H299.53v8.924h-1.753v-8.924h-1.435Z" transform="translate(-210.174 -111.856)" fill="#fff"/>
        <path id="Path_14663" data-name="Path 14663" d="M305.391,126.739v7.826c0,1.6-.687,2.637-2.455,2.637a2.333,2.333,0,0,1-2.594-2.637v-7.826h1.74v7.993c0,.609.244,1.021.854,1.021s.854-.411.854-1.021v-7.993Z" transform="translate(-209.189 -111.856)" fill="#fff"/>
        <path id="Path_14664" data-name="Path 14664" d="M306.571,132.337v4.743h-1.74V126.74h2.533c1.755,0,2.4.87,2.4,2.317v1.329c0,1.113-.4,1.769-1.39,2l1.664,4.7H308.2Zm0-4.179v3.218h.58a.752.752,0,0,0,.854-.854V129c0-.565-.259-.839-.854-.839Z" transform="translate(-208.083 -111.855)" fill="#fff"/>
        <path id="Path_14665" data-name="Path 14665" d="M309.188,126.739h4.149v1.418h-2.409v2.959h1.722v1.4h-1.722v3.141h2.409v1.42h-4.149Z" transform="translate(-207.01 -111.856)" fill="#fff"/>
      </g>
    </g>
    <path id="Path_14632" data-name="Path 14632" d="M304.042,177.619,289.808,169.4V152.971a.969.969,0,0,0-.485-.84l-14.716-8.5a.968.968,0,0,0-.971,0l-14.716,8.5a.968.968,0,0,0-.487.84V169.4L244.2,177.619a.97.97,0,0,0-.485.842v17a.97.97,0,0,0,.485.84l14.717,8.495a.97.97,0,0,0,.971,0l14.232-8.215,14.23,8.215a.97.97,0,0,0,.971,0l14.72-8.495a.971.971,0,0,0,.484-.84v-17a.97.97,0,0,0-.484-.842m-30.891,16.155-11.805-6.815,11.805-6.817Zm13.743-23.809-11.8,6.813V163.149Zm-13.743,6.814-11.8-6.814,11.8-6.816Zm2.912,1.682,12.774-7.374,12.777,7.374-12.777,7.376Zm11.8-10.177-11.8-6.817,11.8-6.814Zm-15.688-6.817-11.8,6.817V154.653Zm-13.745,40.8L245.658,194.9V180.142l12.775,7.377Zm1.942,0v-13.63l11.8,6.817Zm42.209-7.373-12.777,7.373v-14.75l12.777-7.377Z" transform="translate(-194.625 -78.927)" fill="#fff"/>
  </g>
</svg>
