<svg id="sdg-03-on" xmlns="http://www.w3.org/2000/svg" width="146.722" height="146.722" viewBox="0 0 146.722 146.722">
  <g id="Group_1071" data-name="Group 1071">
    <rect id="Rectangle_1162" data-name="Rectangle 1162" width="146.722" height="146.722" rx="4" fill="#4c9f38"/>
  </g>
  <g id="Group_1076" data-name="Group 1076" transform="translate(26.402 25.592)">
    <g id="Group_1072" data-name="Group 1072">
      <path id="Path_2288" data-name="Path 2288" d="M459.155,408.869c0-3.345-2.14-6.059-5.41-6.059-1.625,0-3.594,1.778-4.663,2.887-1.071-1.089-2.9-2.887-4.53-2.887-3.249,0-5.543,2.714-5.543,6.059a6.062,6.062,0,0,0,1.72,4.281l8.335,8.352,8.335-8.352h0a5.948,5.948,0,0,0,1.756-4.281" transform="translate(-372.206 -344.225)" fill="#fff"/>
      <path id="Path_2289" data-name="Path 2289" d="M214.882,353.02h-.076a1.364,1.364,0,0,1-1.262-1.127L209.3,327.216l-6.423,11.909a1.4,1.4,0,0,1-1.454.707,1.339,1.339,0,0,1-1.109-1.147l-2.734-19.056-4.99,11.2a1.357,1.357,0,0,1-1.242.8H171.966a1.376,1.376,0,0,1,0-2.752h18.483l6.557-14.738a1.386,1.386,0,0,1,1.434-.8,1.34,1.34,0,0,1,1.167,1.167l2.829,19.63,6.328-11.735a1.37,1.37,0,0,1,2.56.42l3.918,22.862,14.3-47.519a1.369,1.369,0,0,1,2.543-.211l7.53,15.6a1.373,1.373,0,1,1-2.467,1.2l-6-12.424L216.2,352.047a1.411,1.411,0,0,1-1.318.973" transform="translate(-163.444 -262.077)" fill="#fff"/>
      <path id="Path_2290" data-name="Path 2290" d="M143.962,163.779c4.072,0,5.85-2.16,5.85-5.485v-3.536c0-2.2-.956-3.612-2.983-4.072a3.835,3.835,0,0,0,2.752-3.9v-2.083c0-3.4-1.625-5.485-5.352-5.485-4.185,0-5.619,2.485-5.619,6.021v2.123H142.3v-2.447c0-1.491.458-2.331,1.74-2.331s1.74.84,1.74,2.16v2.58c0,1.28-.84,1.949-2.16,1.949h-1.529v3.078h1.7c1.414,0,1.987.669,1.987,1.949v3.956c0,1.28-.573,2.16-1.8,2.16-1.376,0-1.874-.918-1.874-2.331v-3.441h-3.669V157.8c-.02,3.647,1.414,5.979,5.523,5.979" transform="translate(-138.439 -139.22)" fill="#fff"/>
      <path id="Path_2291" data-name="Path 2291" d="M243.43,145.764h2.389v5.352H244.6v-1.089a1.5,1.5,0,0,1-1.6,1.2c-1.454,0-2.123-1.147-2.123-2.714v-4.854c0-1.567.745-2.714,2.523-2.714,1.874,0,2.409,1.031,2.409,2.523v.88h-1.509v-1.014c0-.611-.229-.976-.84-.976s-.88.42-.88,1.031v5.39c0,.611.249,1.031.822,1.031.553,0,.822-.307.822-.956v-1.778h-.8v-1.318Z" transform="translate(-218.104 -140.565)" fill="#fff"/>
      <path id="Path_2292" data-name="Path 2292" d="M270.951,148.775v-5.39c0-.611-.267-1.031-.88-1.031-.593,0-.86.42-.86,1.031v5.39c0,.611.267,1.031.86,1.031.613,0,.88-.418.88-1.031m-3.421-.267v-4.854c0-1.567.765-2.714,2.543-2.714a2.394,2.394,0,0,1,2.56,2.714v4.854a2.4,2.4,0,0,1-2.56,2.714c-1.778,0-2.543-1.147-2.543-2.714" transform="translate(-238.838 -140.558)" fill="#fff"/>
      <path id="Path_2293" data-name="Path 2293" d="M298.211,148.775v-5.39c0-.611-.267-1.031-.88-1.031-.593,0-.86.42-.86,1.031v5.39c0,.611.267,1.031.86,1.031.613,0,.88-.418.88-1.031m-3.42-.267v-4.854c0-1.567.765-2.714,2.543-2.714a2.394,2.394,0,0,1,2.56,2.714v4.854a2.4,2.4,0,0,1-2.56,2.714c-1.778,0-2.543-1.147-2.543-2.714" transform="translate(-260.04 -140.558)" fill="#fff"/>
      <path id="Path_2294" data-name="Path 2294" d="M324.451,150.2c.689,0,.956-.42.956-1.014v-5.274c0-.593-.267-1.013-.956-1.013h-.707v7.283h.707Zm2.636-5.963v4.645c0,1.529-.631,2.7-2.447,2.7h-2.6V141.54h2.6c1.818,0,2.447,1.127,2.447,2.694" transform="translate(-281.233 -141.024)" fill="#fff"/>
    </g>
    <path id="Path_2295" data-name="Path 2295" d="M363.817,147.139h-1.625v4.436h-1.7V141.54h1.7v4.243h1.625V141.54h1.7v10.035h-1.7Z" transform="translate(-311.137 -141.024)" fill="#fff"/>
    <path id="Path_2296" data-name="Path 2296" d="M387.41,141.54h4.034v1.376h-2.351v2.867h1.683v1.356h-1.683V150.2h2.351v1.378H387.41Z" transform="translate(-332.074 -141.024)" fill="#fff"/>
    <path id="Path_2297" data-name="Path 2297" d="M410.493,148.381h1.338l-.669-4.034h-.02Zm-2.1,3.194,1.891-10.035h1.931l1.911,10.035h-1.74l-.307-1.836h-1.8l-.287,1.836Z" transform="translate(-348.391 -141.024)" fill="#fff"/>
    <path id="Path_2298" data-name="Path 2298" d="M437.29,141.54h1.683V150.2h2.007v1.378h-3.69Z" transform="translate(-370.868 -141.024)" fill="#fff"/>
    <path id="Path_2299" data-name="Path 2299" d="M452.17,141.54h4.492v1.376h-1.4v8.659h-1.7v-8.659h-1.4Z" transform="translate(-382.441 -141.024)" fill="#fff"/>
    <path id="Path_2300" data-name="Path 2300" d="M479.145,147.139H477.52v4.436h-1.7V141.54h1.7v4.243h1.625V141.54h1.7v10.035h-1.7Z" transform="translate(-400.834 -141.024)" fill="#fff"/>
    <path id="Path_2301" data-name="Path 2301" d="M241.87,211.611h1.338l-.669-4.034h-.02Zm-2.12,3.174,1.891-10.035h1.931l1.911,10.035h-1.74l-.307-1.836h-1.8l-.287,1.836Z" transform="translate(-217.233 -190.185)" fill="#fff"/>
    <path id="Path_2302" data-name="Path 2302" d="M270.056,208.477v6.308H268.64V204.75H270.3l1.816,5.752V204.75h1.394v10.035h-1.471Z" transform="translate(-239.702 -190.185)" fill="#fff"/>
    <g id="Group_1073" data-name="Group 1073" transform="translate(34.786 14.565)">
      <path id="Path_2303" data-name="Path 2303" d="M297.341,213.407c.689,0,.956-.42.956-1.014v-5.254c0-.593-.267-1.013-.956-1.013h-.707v7.283h.707ZM300,207.444v4.645c0,1.529-.631,2.7-2.447,2.7h-2.6V204.75h2.6c1.8,0,2.447,1.147,2.447,2.694" transform="translate(-294.95 -204.75)" fill="#fff"/>
    </g>
    <path id="Path_2304" data-name="Path 2304" d="M336.161,208.591l-.956,6.194h-1.567L332.28,204.75H333.9l.785,6.363h.02l.84-6.363h1.376l.938,6.363h.018l.765-6.363h1.416l-1.3,10.035h-1.587l-.993-6.194Z" transform="translate(-289.197 -190.185)" fill="#fff"/>
    <path id="Path_2305" data-name="Path 2305" d="M370.55,204.75h4.034v1.376h-2.352v2.867h1.682v1.356h-1.682v3.058h2.352v1.378H370.55Z" transform="translate(-318.962 -190.185)" fill="#fff"/>
    <path id="Path_2306" data-name="Path 2306" d="M392.74,204.75h1.682v8.657h2.007v1.378H392.74Z" transform="translate(-336.22 -190.185)" fill="#fff"/>
    <path id="Path_2307" data-name="Path 2307" d="M412.87,204.75h1.68v8.657h2.007v1.378H412.87Z" transform="translate(-351.875 -190.185)" fill="#fff"/>
    <rect id="Rectangle_1163" data-name="Rectangle 1163" width="2.369" height="1.358" transform="translate(64.453 19.265)" fill="#fff"/>
    <g id="Group_1074" data-name="Group 1074" transform="translate(67.684 14.565)">
      <path id="Path_2308" data-name="Path 2308" d="M444.65,210.273v3.134h.745a.73.73,0,0,0,.822-.822v-1.509c0-.536-.249-.822-.84-.822h-.727v.02Zm0-1.3h.594a.716.716,0,0,0,.8-.822v-1.222a.715.715,0,0,0-.822-.822h-.573v2.867Zm-1.68-4.223h2.447c1.683,0,2.256.785,2.256,2.2v1.013a1.47,1.47,0,0,1-1.013,1.6,1.53,1.53,0,0,1,1.262,1.662v1.338c0,1.414-.631,2.2-2.331,2.2h-2.618l0-10.015Z" transform="translate(-442.97 -204.75)" fill="#fff"/>
    </g>
    <path id="Path_2309" data-name="Path 2309" d="M469.02,204.75h4.014v1.376H470.7v2.867h1.683v1.356H470.7v3.058h2.331v1.378H469.02Z" transform="translate(-395.546 -190.185)" fill="#fff"/>
    <rect id="Rectangle_1164" data-name="Rectangle 1164" width="1.682" height="10.035" transform="translate(78.406 14.565)" fill="#fff"/>
    <path id="Path_2310" data-name="Path 2310" d="M504.584,208.477v6.308H503.17V204.75h1.662l1.816,5.752V204.75h1.4v10.035h-1.474Z" transform="translate(-422.106 -190.185)" fill="#fff"/>
    <g id="Group_1075" data-name="Group 1075" transform="translate(86.894 14.433)">
      <path id="Path_2311" data-name="Path 2311" d="M531.96,208.974h2.389v5.352h-1.222v-1.089a1.5,1.5,0,0,1-1.6,1.2c-1.454,0-2.123-1.147-2.123-2.714v-4.854c0-1.567.745-2.714,2.523-2.714,1.873,0,2.409,1.031,2.409,2.523v.88h-1.549v-.994c0-.611-.229-.976-.84-.976s-.88.42-.88,1.031v5.39c0,.611.249,1.031.822,1.031.553,0,.822-.307.822-.956v-1.778h-.745v-1.338Z" transform="translate(-529.4 -204.16)" fill="#fff"/>
    </g>
  </g>
</svg>
