<svg id="sdg-10" xmlns="http://www.w3.org/2000/svg" width="158.142" height="158.142" viewBox="0 0 158.142 158.142">
  <rect id="Rectangle_1167" data-name="Rectangle 1167" width="158.142" height="158.142" rx="4" fill="#dd1367"/>
  <g id="Group_1087" data-name="Group 1087" transform="translate(27.494 28.127)">
    <g id="Group_1081" data-name="Group 1081" transform="translate(29.55 0.294)">
      <path id="Path_2329" data-name="Path 2329" d="M254.194,127.2h.565c.565,0,.813.271.813.836v1.491c0,.542-.249.836-.813.836h-.565Zm0,4.112,1.559,4.676h1.762l-1.6-4.631c.949-.226,1.333-.881,1.333-1.965v-1.31c0-1.423-.61-2.282-2.3-2.282H252.5v10.189h1.672v-4.676Z" transform="translate(-252.5 -125.8)" fill="#fff"/>
    </g>
    <path id="Path_2330" data-name="Path 2330" d="M282.2,134.588h-2.327v-3.1h1.672v-1.378h-1.672V127.2H282.2v-1.4h-4v10.166h4Z" transform="translate(-242.844 -125.506)" fill="#fff"/>
    <g id="Group_1082" data-name="Group 1082" transform="translate(40.394 0.158)">
      <path id="Path_2331" data-name="Path 2331" d="M303.821,133.549c0,.61-.271,1.039-.949,1.039h-.7V127.2h.7c.678,0,.949.429.949,1.017Zm-.746-7.749H300.5v10.189h2.575c1.785,0,2.417-1.175,2.417-2.734v-4.722c0-1.581-.633-2.734-2.417-2.734" transform="translate(-300.5 -125.664)" fill="#fff"/>
      <path id="Path_2332" data-name="Path 2332" d="M329.172,125.8H327.5v7.7c0,1.581.723,2.6,2.485,2.6,1.694,0,2.372-1.017,2.372-2.6v-7.7h-1.536v7.862c0,.61-.226,1.017-.813,1.017s-.813-.407-.813-1.017V125.8Z" transform="translate(-321.4 -125.664)" fill="#fff"/>
      <path id="Path_2333" data-name="Path 2333" d="M353.9,127.956v4.925c0,1.581.723,2.756,2.485,2.756,1.785,0,2.35-1.084,2.35-2.53v-1.762h-1.514v1.875c0,.61-.2.994-.813.994s-.858-.429-.858-1.039v-5.49c0-.61.248-1.062.858-1.062s.813.361.813.994v1.333h1.514v-1.2c0-1.491-.52-2.553-2.35-2.553-1.762.023-2.485,1.175-2.485,2.756" transform="translate(-341.836 -125.2)" fill="#fff"/>
    </g>
    <path id="Path_2334" data-name="Path 2334" d="M380,135.966h4v-1.378h-2.327v-3.1h1.649v-1.378h-1.649V127.2H384v-1.4h-4Z" transform="translate(-321.646 -125.506)" fill="#fff"/>
    <g id="Group_1083" data-name="Group 1083" transform="translate(63.392 0.294)">
      <path id="Path_2335" data-name="Path 2335" d="M405.621,128.217v5.332c0,.61-.271,1.039-.949,1.039h-.7V127.2h.7c.678,0,.949.407.949,1.017M402.3,125.8v10.189h2.575c1.785,0,2.417-1.175,2.417-2.734v-4.722c0-1.581-.633-2.734-2.417-2.734Z" transform="translate(-402.3 -125.8)" fill="#fff"/>
    </g>
    <rect id="Rectangle_1168" data-name="Rectangle 1168" width="1.672" height="10.189" transform="translate(29.573 14.865)" fill="#fff"/>
    <path id="Path_2336" data-name="Path 2336" d="M269.635,190.3h-1.378v5.829l-1.807-5.829H264.8v10.166h1.4v-6.393l1.966,6.393h1.468Z" transform="translate(-232.471 -175.435)" fill="#fff"/>
    <path id="Path_2337" data-name="Path 2337" d="M294.376,191.678V190.3H290.4v10.166h3.976v-1.4h-2.3v-3.072h1.649v-1.4h-1.649v-2.914Z" transform="translate(-252.288 -175.435)" fill="#fff"/>
    <g id="Group_1084" data-name="Group 1084" transform="translate(42.698 14.73)">
      <path id="Path_2338" data-name="Path 2338" d="M314.089,197.743c0,.61-.271,1.039-.859,1.039s-.858-.452-.858-1.039v-5.558c0-.61.271-1.062.858-1.062.61,0,.859.429.859,1.062Zm-.859-8.043c-1.762,0-2.53,1.152-2.53,2.756v4.925c0,1.378.565,2.395,1.9,2.621v.7l3.163.61v-1.265l-1.243-.248a2.454,2.454,0,0,0,1.243-2.395v-4.925c0-1.627-.745-2.779-2.53-2.779" transform="translate(-310.7 -189.7)" fill="#fff"/>
      <path id="Path_2339" data-name="Path 2339" d="M337.3,190.3V198c0,1.581.723,2.6,2.485,2.6,1.694,0,2.372-1.017,2.372-2.6v-7.7h-1.536v7.862c0,.61-.226,1.017-.813,1.017s-.813-.407-.813-1.017V190.3Z" transform="translate(-331.291 -190.164)" fill="#fff"/>
    </g>
    <path id="Path_2340" data-name="Path 2340" d="M363.3,197.236l.655-4.089h.023l.655,4.089Zm-.226-6.936L361.2,200.489h1.581l.294-1.853h1.785l.316,1.853h1.717L365,190.3Z" transform="translate(-307.093 -175.435)" fill="#fff"/>
    <path id="Path_2341" data-name="Path 2341" d="M389.3,190.3v10.166h3.66v-1.4h-1.988V190.3Z" transform="translate(-328.845 -175.435)" fill="#fff"/>
    <rect id="Rectangle_1169" data-name="Rectangle 1169" width="1.672" height="10.189" transform="translate(64.861 14.865)" fill="#fff"/>
    <path id="Path_2342" data-name="Path 2342" d="M422.672,200.466v-8.788h1.378V190.3H419.6v1.378h1.378v8.788Z" transform="translate(-352.299 -175.435)" fill="#fff"/>
    <rect id="Rectangle_1170" data-name="Rectangle 1170" width="1.672" height="10.189" transform="translate(72.497 14.865)" fill="#fff"/>
    <path id="Path_2343" data-name="Path 2343" d="M458.276,199.066h-2.3v-3.072h1.649v-1.4h-1.649v-2.914h2.3V190.3H454.3v10.166h3.976Z" transform="translate(-379.16 -175.435)" fill="#fff"/>
    <g id="Group_1085" data-name="Group 1085" transform="translate(79.771 14.752)">
      <path id="Path_2344" data-name="Path 2344" d="M474.8,196.532v1.356a2.093,2.093,0,0,0,2.372,2.3,2.189,2.189,0,0,0,2.44-2.395v-.5a3.472,3.472,0,0,0-1.355-2.643l-1.062-1.084c-.474-.474-.791-.813-.791-1.378v-.2a.739.739,0,0,1,.791-.836c.52,0,.791.294.791.858v.881H479.5V192.1a2.025,2.025,0,0,0-2.327-2.3,2.1,2.1,0,0,0-2.35,2.237v.339a3.381,3.381,0,0,0,1.4,2.711l.971,1.017a1.839,1.839,0,0,1,.745,1.446v.384c0,.542-.226.9-.768.9-.565,0-.813-.339-.813-.9v-1.4Z" transform="translate(-474.8 -189.8)" fill="#fff"/>
    </g>
    <path id="Path_2345" data-name="Path 2345" d="M124.614,131.683v18.954h4.067V125.9h-3.253l-3.728,4.473v4.36h.023l2.847-3.05Z" transform="translate(-121.7 -125.584)" fill="#fff"/>
    <g id="Group_1086" data-name="Group 1086" transform="translate(9.782)">
      <path id="Path_2346" data-name="Path 2346" d="M169.067,143.816V130.532c0-1.491.542-2.553,1.92-2.553,1.423,0,1.965,1.062,1.965,2.553v13.284c0,1.491-.542,2.553-1.965,2.553-1.378,0-1.92-1.062-1.92-2.553m7.952-.655V131.187c0-3.863-1.9-6.687-6.032-6.687-4.089,0-5.987,2.8-5.987,6.687v11.974c0,3.841,1.9,6.687,5.987,6.687,4.134,0,6.032-2.847,6.032-6.687" transform="translate(-165 -124.5)" fill="#fff"/>
      <path id="Path_2347" data-name="Path 2347" d="M321.3,436H298.849a.256.256,0,0,0-.249.271v6.755a.256.256,0,0,0,.249.271H321.3a.256.256,0,0,0,.249-.271v-6.755A.271.271,0,0,0,321.3,436" transform="translate(-268.418 -365.627)" fill="#fff"/>
      <path id="Path_2348" data-name="Path 2348" d="M321.3,372.5H298.849a.256.256,0,0,0-.249.271v6.755a.256.256,0,0,0,.249.271H321.3a.256.256,0,0,0,.249-.271v-6.755a.256.256,0,0,0-.249-.271" transform="translate(-268.418 -316.472)" fill="#fff"/>
      <path id="Path_2349" data-name="Path 2349" d="M322.734,290.2l-10.776-10.776a.206.206,0,0,0-.271,0L300.911,290.2a.184.184,0,0,0,.136.316H322.6a.187.187,0,0,0,.136-.316" transform="translate(-270.163 -244.386)" fill="#fff"/>
      <path id="Path_2350" data-name="Path 2350" d="M441.316,393.751l10.776-10.776a.206.206,0,0,0,0-.271l-10.776-10.776a.19.19,0,0,0-.316.136v21.552a.19.19,0,0,0,.316.136" transform="translate(-378.647 -315.99)" fill="#fff"/>
      <path id="Path_2351" data-name="Path 2351" d="M300.927,512.416,311.7,523.192a.205.205,0,0,0,.271,0l10.776-10.776a.184.184,0,0,0-.136-.316H301.063a.19.19,0,0,0-.136.316" transform="translate(-270.18 -424.534)" fill="#fff"/>
      <path id="Path_2352" data-name="Path 2352" d="M219.2,371.927,208.426,382.7a.206.206,0,0,0,0,.271L219.2,393.751a.189.189,0,0,0,.316-.136V372.063a.189.189,0,0,0-.316-.136" transform="translate(-198.576 -315.99)" fill="#fff"/>
    </g>
  </g>
</svg>
