<?xml version="1.0" encoding="utf-8"?>
<!-- Generator: Adobe Illustrator 23.1.1, SVG Export Plug-In . SVG Version: 6.00 Build 0)  -->
<svg version="1.1" id="sdg-09" xmlns="http://www.w3.org/2000/svg" xmlns:xlink="http://www.w3.org/1999/xlink" x="0px" y="0px"
	 viewBox="0 0 158.1 158.1" style="enable-background:new 0 0 158.1 158.1;" xml:space="preserve">
<style type="text/css">
	.st0{fill:#FFFFFF;}
	.st1{opacity:0.3;}
	.st2{opacity:0.5;}
	.st3{opacity:0.5;fill:#FFFFFF;}
</style>
<path id="Rectangle_1167_1_" class="st0" d="M4,0h150.1c2.2,0,4,1.8,4,4v150.1c0,2.2-1.8,4-4,4H4c-2.2,0-4-1.8-4-4V4
	C0,1.8,1.8,0,4,0z"/>
<path id="white" class="st0" d="M4,0h150.1c2.2,0,4,1.8,4,4v150.1c0,2.2-1.8,4-4,4H4c-2.2,0-4-1.8-4-4V4C0,1.8,1.8,0,4,0z"/>
<g id="Group_2464" class="st1">
	<path id="Rectangle_1167" class="st2" d="M4,0h150.1c2.2,0,4,1.8,4,4v150.1c0,2.2-1.8,4-4,4H4c-2.2,0-4-1.8-4-4V4C0,1.8,1.8,0,4,0z
		"/>
	<g id="Group_2445" transform="translate(22.966 27.696)" class="st2">
		<g id="Group_2445-2" transform="translate(0 0)">
			<path id="Path_14633" class="st0" d="M12.2,6.6c0-3.8-1.7-6.6-6.1-6.6C1.7,0,0,2.4,0,6.2v3.6c0,4,1.6,6.1,4.6,6.1
				C6,16.1,7.4,15.3,8,14h0v5.3c0,1.5-0.6,2.6-2.1,2.6s-2-0.9-2-2.4v-1.6H0.1v1.3c0,3.6,1.3,6.2,5.9,6.2c4.4,0,6.1-2.8,6.1-6.7
				L12.2,6.6z M8.1,10.4c-0.1,1.4-0.7,2.3-2,2.3c-1.4,0-2-0.9-2-2.5V5.9c0-1.6,0.6-2.5,2-2.5c1.4,0,1.9,0.9,1.9,2.5L8.1,10.4z"/>
			<rect id="Rectangle_1218" x="18.2" y="0.4" class="st0" width="1.7" height="10.3"/>
			<path id="Path_14634" class="st0" d="M21.9,4.2v6.5h-1.5V0.4h1.7l1.9,5.9V0.4h1.4v10.3H24L21.9,4.2z"/>
			<path id="Path_14635" class="st0" d="M31.3,3.2V8c0,1.6-0.7,2.8-2.5,2.8h-2.7V0.4h2.7C30.6,0.4,31.3,1.6,31.3,3.2 M28.5,9.3
				c0.7,0,1-0.4,1-1.1V2.9c0.1-0.5-0.3-1-0.8-1c-0.1,0-0.2,0-0.2,0h-0.7v7.5L28.5,9.3z"/>
			<path id="Path_14636" class="st0" d="M36.9,0.4v7.8c0,1.6-0.7,2.6-2.5,2.6c-1.3,0.2-2.4-0.8-2.6-2c0-0.2,0-0.4,0-0.6V0.4h1.7v8
				c0,0.6,0.2,1,0.9,1s0.9-0.4,0.9-1v-8L36.9,0.4z"/>
			<path id="Path_14637" class="st0" d="M37.3,8.5V7.1h1.6v1.4c0,0.6,0.3,0.9,0.9,0.9c0.5,0,0.8-0.4,0.8-0.9V8.1
				c0-0.6-0.3-1.1-0.8-1.5l-1-1c-1-1-1.4-1.6-1.4-2.8V2.5c-0.1-1.2,0.8-2.2,2-2.3c0.1,0,0.3,0,0.4,0c1.7,0,2.4,0.9,2.4,2.4v0.8h-1.6
				V2.6c0-0.6-0.3-0.9-0.8-0.9C39.4,1.6,39,2,39,2.4c0,0.1,0,0.1,0,0.2v0.2c0,0.6,0.3,0.9,0.8,1.4l1.1,1.1c0.9,1,1.4,1.5,1.4,2.7
				v0.5c0.1,1.2-0.8,2.3-2,2.4c-0.2,0-0.3,0-0.5,0c-1.2,0.2-2.3-0.6-2.4-1.8C37.3,8.9,37.3,8.7,37.3,8.5"/>
			<path id="Path_14638" class="st0" d="M42.3,0.4H47v1.4h-1.4v8.9h-1.8V1.8h-1.4V0.4z"/>
			<path id="Path_14639" class="st0" d="M49.1,6v4.7h-1.7V0.4h2.5c1.8,0,2.4,0.9,2.4,2.3V4c0,1.1-0.4,1.8-1.4,2l1.7,4.7h-1.8L49.1,6
				z M49.1,1.8V5h0.6c0.4,0.1,0.8-0.2,0.9-0.6c0-0.1,0-0.1,0-0.2V2.7c0-0.6-0.3-0.8-0.9-0.8L49.1,1.8z"/>
			<path id="Path_14640" class="st0" d="M55.9,6.8v3.9h-1.7V6.8l-1.9-6.4h1.8l1.1,3.9h0l1.1-3.9h1.7L55.9,6.8z"/>
			<path id="Path_14641" class="st0" d="M58.9,9.2L58,11.5h-1l0.2-2.5h1.6V9.2z"/>
			<rect id="Rectangle_1219" x="60.6" y="0.4" class="st0" width="1.7" height="10.3"/>
			<path id="Path_14642" class="st0" d="M64.4,4.2v6.5h-1.5V0.4h1.7l1.9,5.9V0.4h1.4v10.3h-1.5L64.4,4.2z"/>
			<path id="Path_14643" class="st0" d="M69.9,4.2v6.5h-1.5V0.4h1.7l1.9,5.9V0.4h1.4v10.3H72L69.9,4.2z"/>
			<path id="Path_14644" class="st0" d="M74.1,8.1v-5c0-1.6,0.8-2.8,2.6-2.8c1.4-0.1,2.5,0.9,2.7,2.3c0,0.2,0,0.4,0,0.5v5
				c0.1,1.5-1,2.7-2.5,2.8s-2.7-1-2.8-2.5C74.1,8.3,74.1,8.2,74.1,8.1 M77.6,8.3V2.8c0-0.6-0.3-1.1-0.9-1.1s-0.9,0.4-0.9,1.1v5.6
				c0,0.6,0.3,1.1,0.9,1.1S77.6,9,77.6,8.3"/>
			<path id="Path_14645" class="st0" d="M85.1,0.4l-2,10.3h-1.9l-2-10.3h1.8l1.2,7.2h0l1.2-7.2L85.1,0.4z"/>
			<path id="Path_14646" class="st0" d="M84.2,10.7l2-10.3h2l2,10.3h-1.8L88,8.8h-1.8l-0.3,1.9H84.2z M86.4,7.5h1.4l-0.7-4.1h0
				L86.4,7.5z"/>
			<path id="Path_14647" class="st0" d="M89.4,0.4h4.6v1.4h-1.4v8.9h-1.8V1.8h-1.4V0.4z"/>
			<rect id="Rectangle_1220" x="94.4" y="0.4" class="st0" width="1.7" height="10.3"/>
			<path id="Path_14648" class="st0" d="M96.7,8.1v-5c0-1.6,0.8-2.8,2.6-2.8c1.8,0,2.6,1.2,2.6,2.8v5c0.1,1.5-1,2.7-2.5,2.8
				c-1.5,0.1-2.7-1-2.8-2.5C96.7,8.3,96.7,8.2,96.7,8.1 M100.2,8.3V2.8c0-0.6-0.3-1.1-0.9-1.1s-0.9,0.4-0.9,1.1v5.6
				c0,0.6,0.3,1.1,0.9,1.1S100.2,9,100.2,8.3"/>
			<path id="Path_14649" class="st0" d="M104,4.2v6.5h-1.5V0.4h1.7l1.9,5.9V0.4h1.4v10.3H106L104,4.2z"/>
			<path id="Path_14650" class="st0" d="M17.9,25.2l2-10.3h2l2,10.3H22l-0.3-1.9h-1.8l-0.3,1.9H17.9z M20.1,21.9h1.4l-0.7-4.1h0
				L20.1,21.9z"/>
			<path id="Path_14651" class="st0" d="M25.5,18.7v6.5h-1.5V14.9h1.7l1.9,5.9v-5.9h1.4v10.3h-1.5L25.5,18.7z"/>
			<path id="Path_14652" class="st0" d="M34.9,17.7v4.8c0,1.6-0.7,2.8-2.5,2.8h-2.7V14.9h2.7C34.2,14.9,34.9,16.1,34.9,17.7
				 M32.1,23.8c0.7,0,1-0.4,1-1.1v-5.4c0.1-0.5-0.3-1-0.8-1c-0.1,0-0.2,0-0.2,0h-0.7v7.5L32.1,23.8z"/>
			<rect id="Rectangle_1221" x="36.6" y="14.9" class="st0" width="1.7" height="10.3"/>
			<path id="Path_14653" class="st0" d="M40.3,18.7v6.5h-1.5V14.9h1.7l1.9,5.9v-5.9h1.4v10.3h-1.5L40.3,18.7z"/>
			<path id="Path_14654" class="st0" d="M44.5,14.9h4.1v1.4h-2.3v3h1.7v1.4h-1.7v4.6h-1.7V14.9z"/>
			<path id="Path_14655" class="st0" d="M50.6,20.5v4.7h-1.7V14.9h2.5c1.8,0,2.4,0.9,2.4,2.3v1.3c0,1.1-0.4,1.8-1.4,2l1.7,4.7h-1.8
				L50.6,20.5z M50.6,16.3v3.2h0.6c0.4,0.1,0.8-0.2,0.9-0.6c0-0.1,0-0.1,0-0.2v-1.5c0-0.6-0.3-0.8-0.9-0.8L50.6,16.3z"/>
			<path id="Path_14656" class="st0" d="M54,25.2l2-10.3h2l2,10.3h-1.8l-0.3-1.9h-1.8l-0.3,1.9H54z M56.2,21.9h1.4l-0.7-4.1h0
				L56.2,21.9z"/>
			<path id="Path_14657" class="st0" d="M59.9,23v-1.4h1.6V23c0,0.6,0.3,0.9,0.9,0.9c0.5,0,0.8-0.4,0.8-0.9v-0.4
				c0-0.6-0.3-1.1-0.8-1.5l-1-1c-1-1-1.4-1.6-1.4-2.8V17c-0.1-1.2,0.8-2.2,2-2.3c0.1,0,0.3,0,0.4,0c1.7,0,2.4,0.9,2.4,2.4v0.8h-1.6
				V17c0-0.6-0.3-0.9-0.8-0.9c-0.4,0-0.8,0.3-0.8,0.7c0,0.1,0,0.1,0,0.2v0.2c0,0.6,0.3,0.9,0.8,1.4l1.1,1.1c0.9,1,1.4,1.5,1.4,2.7
				v0.5c0.1,1.2-0.8,2.3-2,2.4c-0.2,0-0.3,0-0.5,0c-1.2,0.2-2.3-0.6-2.4-1.8C59.9,23.3,59.9,23.2,59.9,23"/>
			<path id="Path_14658" class="st0" d="M65,14.9h4.6v1.4h-1.4v8.9h-1.8v-8.9H65L65,14.9z"/>
			<path id="Path_14659" class="st0" d="M71.7,20.5v4.7h-1.7V14.9h2.5c1.8,0,2.4,0.9,2.4,2.3v1.3c0,1.1-0.4,1.8-1.4,2l1.7,4.7h-1.8
				L71.7,20.5z M71.7,16.3v3.2h0.6c0.4,0.1,0.8-0.2,0.9-0.6c0-0.1,0-0.1,0-0.2v-1.5c0-0.6-0.3-0.8-0.9-0.8L71.7,16.3z"/>
			<path id="Path_14660" class="st0" d="M80.4,14.9v7.8c0,1.6-0.7,2.6-2.5,2.6c-1.3,0.2-2.4-0.8-2.6-2c0-0.2,0-0.4,0-0.6v-7.8h1.7v8
				c0,0.6,0.2,1,0.9,1s0.9-0.4,0.9-1v-8H80.4z"/>
			<path id="Path_14661" class="st0" d="M81,22.6v-5c0-1.6,0.8-2.8,2.6-2.8c1.9,0,2.5,1.1,2.5,2.6v1.2h-1.6v-1.4c0-0.6-0.2-1-0.8-1
				s-0.9,0.4-0.9,1.1v5.6c0,0.6,0.3,1.1,0.9,1.1s0.8-0.4,0.8-1V21H86v1.8c0,1.5-0.6,2.6-2.5,2.6C81.7,25.3,81,24.2,81,22.6"/>
			<path id="Path_14662" class="st0" d="M86.2,14.9h4.6v1.4h-1.4v8.9h-1.8v-8.9h-1.4V14.9z"/>
			<path id="Path_14663" class="st0" d="M96.2,14.9v7.8c0,1.6-0.7,2.6-2.5,2.6c-1.3,0.2-2.4-0.8-2.6-2c0-0.2,0-0.4,0-0.6v-7.8h1.7v8
				c0,0.6,0.2,1,0.9,1s0.9-0.4,0.9-1v-8H96.2z"/>
			<path id="Path_14664" class="st0" d="M98.5,20.5v4.7h-1.7V14.9h2.5c1.8,0,2.4,0.9,2.4,2.3v1.3c0,1.1-0.4,1.8-1.4,2l1.7,4.7h-1.8
				L98.5,20.5z M98.5,16.3v3.2h0.6c0.4,0.1,0.8-0.2,0.9-0.6c0-0.1,0-0.1,0-0.2v-1.5c0-0.6-0.3-0.8-0.9-0.8L98.5,16.3z"/>
			<path id="Path_14665" class="st0" d="M102.2,14.9h4.1v1.4h-2.4v3h1.7v1.4h-1.7v3.1h2.4v1.4h-4.1V14.9z"/>
		</g>
	</g>
	<path id="Path_14632" class="st3" d="M109.4,98.7l-14.2-8.2V74c0-0.3-0.2-0.7-0.5-0.8L80,64.7c-0.3-0.2-0.7-0.2-1,0l-14.7,8.5
		c-0.3,0.2-0.5,0.5-0.5,0.8v16.4l-14.2,8.2c-0.3,0.2-0.5,0.5-0.5,0.8v17c0,0.3,0.2,0.7,0.5,0.8l14.7,8.5c0.3,0.2,0.7,0.2,1,0
		l14.2-8.2l14.2,8.2c0.3,0.2,0.7,0.2,1,0l14.7-8.5c0.3-0.2,0.5-0.5,0.5-0.8v-17C109.9,99.2,109.7,98.9,109.4,98.7 M78.5,114.8
		L66.7,108l11.8-6.8V114.8z M92.3,91l-11.8,6.8V84.2L92.3,91z M78.5,97.9L66.7,91l11.8-6.8V97.9z M81.4,99.5l12.8-7.4l12.8,7.4
		l-12.8,7.4L81.4,99.5z M93.2,89.4l-11.8-6.8l11.8-6.8V89.4z M77.5,82.5l-11.8,6.8V75.7L77.5,82.5z M63.8,123.3L51,116v-14.8
		l12.8,7.4L63.8,123.3z M65.7,123.3v-13.6l11.8,6.8L65.7,123.3z M108,116l-12.8,7.4v-14.8l12.8-7.4V116z"/>
</g>
</svg>
