<svg id="sdg-05" xmlns="http://www.w3.org/2000/svg" width="158.142" height="158.142" viewBox="0 0 158.142 158.142">
  <rect id="Rectangle_1165" data-name="Rectangle 1165" width="158.142" height="158.142" rx="4" fill="#ff3a21"/>
  <g id="Group_2467" data-name="Group 2467" transform="translate(31.357 28.669)">
    <g id="Group_1077" data-name="Group 1077">
      <path id="Path_2312" data-name="Path 2312" d="M282.581,328.237A14.617,14.617,0,1,1,297.2,313.62a14.626,14.626,0,0,1-14.617,14.617M310.64,285.9H295.481a.185.185,0,0,0-.181.2v5.015a.2.2,0,0,0,.181.2h6.032l-6.71,6.71a19.846,19.846,0,1,0-14.82,35.288v5.806H274a.2.2,0,0,0-.2.181v5.4a.2.2,0,0,0,.2.2h5.987v5.716a.2.2,0,0,0,.181.2h5.4a.2.2,0,0,0,.2-.2v-5.738h5.987a.2.2,0,0,0,.2-.2v-5.4a.184.184,0,0,0-.2-.181h-5.942v-5.9a19.84,19.84,0,0,0,13.013-31l6.6-6.6v5.648a.2.2,0,0,0,.2.2h5.038a.2.2,0,0,0,.2-.2V286.1a.24.24,0,0,0-.226-.2" transform="translate(-234.709 -249.979)" fill="#fff"/>
      <path id="Path_2313" data-name="Path 2313" d="M328.815,382.1H311.1a.2.2,0,0,0-.2.181v4.292a.2.2,0,0,0,.2.181h17.712a.184.184,0,0,0,.2-.181v-4.292a.2.2,0,0,0-.2-.181" transform="translate(-272.02 -324.446)" fill="#fff"/>
      <path id="Path_2314" data-name="Path 2314" d="M328.815,416H311.1a.2.2,0,0,0-.2.181v4.292a.2.2,0,0,0,.2.181h17.712a.184.184,0,0,0,.2-.181v-4.292a.2.2,0,0,0-.2-.181" transform="translate(-272.02 -350.687)" fill="#fff"/>
      <path id="Path_2315" data-name="Path 2315" d="M146.165,134.694a3.763,3.763,0,0,0-3.479,1.694h-.045v-6.122h7.116V126.9H138.89v13.849h3.773v-.542c0-1.446.655-2.259,1.807-2.259,1.265,0,1.785.881,1.785,2.214V146.1c0,1.31-.474,2.214-1.74,2.214-1.423,0-1.92-.949-1.92-2.395V142.85h-3.8v2.8c0,3.728,1.491,6.122,5.693,6.122,4.179,0,5.874-2.214,5.874-5.625v-6.009c0-3.886-1.988-5.445-4.2-5.445" transform="translate(-138.8 -126.9)" fill="#fff"/>
      <path id="Path_2316" data-name="Path 2316" d="M244.7,133.225h2.463v5.49h-1.243v-1.13a1.566,1.566,0,0,1-1.649,1.243c-1.491,0-2.169-1.175-2.169-2.779v-4.97c0-1.6.768-2.779,2.6-2.779,1.92,0,2.463,1.062,2.463,2.575v.9h-1.581V130.74c0-.633-.249-.994-.858-.994s-.9.452-.9,1.062v5.512c0,.633.249,1.062.859,1.062.565,0,.858-.316.858-.994v-1.807h-.813v-1.355Z" transform="translate(-218.763 -127.984)" fill="#fff"/>
    </g>
    <path id="Path_2317" data-name="Path 2317" d="M268.8,128.9h4.112v1.4h-2.395v2.937h1.717v1.4h-1.717v3.118h2.395v1.423H268.8Z" transform="translate(-239.431 -128.448)" fill="#fff"/>
    <path id="Path_2318" data-name="Path 2318" d="M292.568,132.718v6.461H291.1V128.9h1.694l1.875,5.9v-5.9h1.446v10.279H294.6Z" transform="translate(-256.693 -128.448)" fill="#fff"/>
    <g id="Group_1078" data-name="Group 1078" transform="translate(40.394 0.452)">
      <path id="Path_2319" data-name="Path 2319" d="M320.063,137.756a.907.907,0,0,0,.994-1.039V131.34a.907.907,0,0,0-.994-1.039h-.723v7.455Zm2.711-6.1v4.767c0,1.581-.655,2.756-2.508,2.756H317.6V128.9h2.666c1.853,0,2.508,1.175,2.508,2.756" transform="translate(-317.6 -128.9)" fill="#fff"/>
    </g>
    <path id="Path_2320" data-name="Path 2320" d="M344.8,128.9h4.134v1.4H346.54v2.937h1.717v1.4H346.54v3.118h2.395v1.423H344.8Z" transform="translate(-298.261 -128.448)" fill="#fff"/>
    <g id="Group_1079" data-name="Group 1079" transform="translate(51.6 0.452)">
      <path id="Path_2321" data-name="Path 2321" d="M368.917,130.3v3.208h.587a.756.756,0,0,0,.858-.858v-1.514c0-.565-.248-.836-.858-.836Zm0,4.157v4.722H367.2V128.9h2.508c1.74,0,2.372.858,2.372,2.3v1.31c0,1.107-.384,1.762-1.378,1.988l1.649,4.676h-1.807Z" transform="translate(-367.2 -128.9)" fill="#fff"/>
    </g>
    <path id="Path_2322" data-name="Path 2322" d="M242,192.6h4.134V194H243.74v2.96h1.694v1.378H243.74v3.14h2.395v1.4H242Z" transform="translate(-218.685 -177.757)" fill="#fff"/>
    <g id="Group_1080" data-name="Group 1080" transform="translate(28.217 14.73)">
      <path id="Path_2323" data-name="Path 2323" d="M267.2,200.21v-5.6c0-.633-.271-1.062-.9-1.062-.61,0-.881.429-.881,1.062v5.6c0,.61.271,1.062.881,1.062.633,0,.9-.474.9-1.062m-1.536,2.982v-.7a2.365,2.365,0,0,1-1.965-2.643v-4.97c0-1.6.791-2.779,2.6-2.779a2.455,2.455,0,0,1,2.621,2.779v4.97a2.425,2.425,0,0,1-1.265,2.417l1.265.249V203.8Z" transform="translate(-263.7 -192.1)" fill="#fff"/>
      <path id="Path_2324" data-name="Path 2324" d="M296.215,192.6v7.772c0,1.581-.678,2.621-2.44,2.621a2.316,2.316,0,0,1-2.575-2.621V192.6h1.717v7.952c0,.61.248,1.017.858,1.017s.858-.407.858-1.017V192.6Z" transform="translate(-284.987 -192.487)" fill="#fff"/>
    </g>
    <path id="Path_2325" data-name="Path 2325" d="M317.669,199.626h1.378l-.678-4.134h-.023Zm-2.169,3.253,1.943-10.279h1.965l1.943,10.279h-1.762L319.273,201h-1.83l-.294,1.875Z" transform="translate(-275.58 -177.757)" fill="#fff"/>
    <path id="Path_2326" data-name="Path 2326" d="M344.6,192.6h1.74v8.879H348.4v1.4h-3.8Z" transform="translate(-298.106 -177.757)" fill="#fff"/>
    <rect id="Rectangle_1166" data-name="Rectangle 1166" width="1.74" height="10.279" transform="translate(51.08 14.843)" fill="#fff"/>
    <path id="Path_2327" data-name="Path 2327" d="M376.1,192.6h4.586V194h-1.423v8.879h-1.74V194H376.1Z" transform="translate(-322.49 -177.757)" fill="#fff"/>
    <path id="Path_2328" data-name="Path 2328" d="M402.36,198.971v3.908h-1.74v-3.908L398.7,192.6h1.807l1.039,3.908h.022l1.039-3.908h1.649Z" transform="translate(-339.984 -177.757)" fill="#fff"/>
  </g>
</svg>
