<svg id="goals-logo" xmlns="http://www.w3.org/2000/svg" width="158.142" height="158.142" viewBox="0 0 158.142 158.142">
  <rect id="Rectangle_1162" data-name="Rectangle 1162" width="158.142" height="158.142" rx="4" transform="translate(0 0)" fill="#fff"/>
  <g id="Global_Goals_logo" data-name="Global Goals logo" transform="translate(24.418 53.72)">
    <path id="Path_14666" data-name="Path 14666" d="M503.062,291.533v7.577h1.384c1.9,0,3.2-1.332,3.2-3.737v-.086c0-2.405-1.3-3.754-3.2-3.754Zm-2.508-2.266h3.91c3.511,0,5.777,2.422,5.777,5.968v.155c0,3.546-2.266,5.985-5.777,5.985h-3.91Z" transform="translate(-499.672 -271.888)" fill="#009fe3"/>
    <path id="Path_14667" data-name="Path 14667" d="M518.842,289.267h7.8v2.266h-5.311v2.612H526v2.266h-4.671v2.7h5.38v2.266h-7.871Z" transform="translate(-506.941 -271.887)" fill="#009fe3"/>
    <path id="Path_14668" data-name="Path 14668" d="M532.594,289.267h2.716l2.56,8.338,2.56-8.338h2.647l-4.083,12.178h-2.318Z" transform="translate(-512.407 -271.887)" fill="#009fe3"/>
    <path id="Path_14669" data-name="Path 14669" d="M551.427,289.267h7.8v2.266h-5.311v2.612h4.671v2.266h-4.671v2.7h5.38v2.266h-7.871Z" transform="translate(-519.893 -271.887)" fill="#009fe3"/>
    <path id="Path_14670" data-name="Path 14670" d="M566.7,289.267h2.508v9.808h4.9v2.3h-7.4Z" transform="translate(-525.964 -271.887)" fill="#009fe3"/>
    <path id="Path_14671" data-name="Path 14671" d="M587.315,295.253v-.121c0-2.387-1.211-3.892-2.889-3.892-1.7,0-2.889,1.488-2.889,3.875v.12c0,2.387,1.228,3.893,2.906,3.893s2.872-1.488,2.872-3.875m-8.356.052V295.1c0-3.633,2.283-6.176,5.484-6.176,3.217,0,5.467,2.526,5.467,6.141v.208c0,3.616-2.284,6.176-5.484,6.176-3.218,0-5.466-2.526-5.466-6.141" transform="translate(-530.837 -271.751)" fill="#009fe3"/>
    <path id="Path_14672" data-name="Path 14672" d="M603.281,295.443a1.849,1.849,0,0,0,2.024-1.938v-.017a1.809,1.809,0,0,0-2.059-1.955h-1.367v3.91Zm-3.91-6.176H603.4c2.716,0,4.429,1.574,4.429,4.152v.034c0,2.785-1.989,4.186-4.533,4.239h-1.418v3.684h-2.508Z" transform="translate(-538.951 -271.888)" fill="#009fe3"/>
    <path id="Path_14673" data-name="Path 14673" d="M615.076,289.267h2.629l2.7,4.913,2.664-4.913h2.647v12.109h-2.456v-7.733l-2.855,5h-.052l-2.837-4.965v7.7h-2.439Z" transform="translate(-545.193 -271.887)" fill="#009fe3"/>
    <path id="Path_14674" data-name="Path 14674" d="M635.688,289.267h7.8v2.266h-5.311v2.612h4.671v2.266h-4.671v2.7h5.38v2.266h-7.871Z" transform="translate(-553.387 -271.887)" fill="#009fe3"/>
    <path id="Path_14675" data-name="Path 14675" d="M650.961,289.267h2.3l4.636,7.058v-7.058h2.456v12.109h-2.146l-4.792-7.317v7.317h-2.456Z" transform="translate(-559.458 -271.887)" fill="#009fe3"/>
    <path id="Path_14676" data-name="Path 14676" d="M671.347,291.584H668.3v-2.318h8.581v2.318h-3.045v9.791h-2.491Z" transform="translate(-566.35 -271.887)" fill="#009fe3"/>
    <path id="Path_14677" data-name="Path 14677" d="M499.09,272.09l1.632-2.03a5.1,5.1,0,0,0,3.3,1.5c1.062,0,1.707-.531,1.707-1.309v-.019c0-.664-.38-1.081-2.277-1.8-2.352-.91-3.813-1.8-3.813-4.078v-.039c0-2.314,1.783-3.889,4.345-3.889a6.318,6.318,0,0,1,4.288,1.632l-1.537,2.087a4.65,4.65,0,0,0-2.827-1.233c-.948,0-1.537.475-1.537,1.157v.019c0,.759.456,1.119,2.523,1.973,2.315.911,3.567,1.9,3.567,3.966v.038c0,2.466-1.878,3.984-4.459,3.984a7.129,7.129,0,0,1-4.913-1.954" transform="translate(-499.09 -260.422)" fill="#009fe3"/>
    <path id="Path_14678" data-name="Path 14678" d="M516.564,268.826v-8.12h2.75v8.139c0,1.879.892,2.808,2.315,2.808s2.314-.911,2.314-2.751v-8.2h2.732v8.063c0,3.662-2.011,5.426-5.085,5.426-3.054,0-5.027-1.783-5.027-5.369" transform="translate(-506.036 -260.535)" fill="#009fe3"/>
    <path id="Path_14679" data-name="Path 14679" d="M534.7,272.09l1.632-2.03a5.1,5.1,0,0,0,3.3,1.5c1.062,0,1.708-.531,1.708-1.309v-.019c0-.664-.38-1.081-2.277-1.8-2.352-.91-3.813-1.8-3.813-4.078v-.039c0-2.314,1.783-3.889,4.345-3.889a6.319,6.319,0,0,1,4.288,1.632l-1.537,2.087a4.65,4.65,0,0,0-2.827-1.233c-.948,0-1.536.475-1.536,1.157v.019c0,.759.455,1.119,2.523,1.973,2.314.911,3.566,1.9,3.566,3.966v.038c0,2.466-1.878,3.984-4.459,3.984a7.13,7.13,0,0,1-4.913-1.954" transform="translate(-513.245 -260.422)" fill="#009fe3"/>
    <path id="Path_14680" data-name="Path 14680" d="M554,263.248h-3.339v-2.542h9.41v2.542h-3.339v10.739H554Z" transform="translate(-519.59 -260.535)" fill="#009fe3"/>
    <path id="Path_14681" data-name="Path 14681" d="M571.74,268.624,570.3,264.3l-1.46,4.325Zm-2.713-8.044h2.618l4.762,13.356h-2.846l-.987-2.884H568l-.968,2.884h-2.769Z" transform="translate(-524.997 -260.485)" fill="#009fe3"/>
    <rect id="Rectangle_1222" data-name="Rectangle 1222" width="2.75" height="13.28" transform="translate(52.453 0.171)" fill="#009fe3"/>
    <path id="Path_14682" data-name="Path 14682" d="M594.113,260.706h2.523l5.084,7.74v-7.74h2.694v13.28h-2.353l-5.255-8.025v8.025h-2.694Z" transform="translate(-536.861 -260.535)" fill="#009fe3"/>
    <path id="Path_14683" data-name="Path 14683" d="M620.259,268.624l-1.443-4.325-1.461,4.325Zm-2.713-8.044h2.618l4.762,13.356H622.08l-.987-2.884h-4.573l-.968,2.884h-2.769Z" transform="translate(-544.282 -260.485)" fill="#009fe3"/>
    <path id="Path_14684" data-name="Path 14684" d="M639.593,268.446h-2.409v3.111h2.466c1.233,0,2.011-.531,2.011-1.556v-.019c0-.949-.7-1.537-2.068-1.537m1.5-3.832c0-.968-.683-1.48-1.859-1.48h-2.049v3H639.1c1.215,0,1.992-.493,1.992-1.5Zm-6.583-3.908h4.933a4.849,4.849,0,0,1,3.472,1.157,3.072,3.072,0,0,1,.892,2.258v.057a3.107,3.107,0,0,1-1.8,2.9,3.161,3.161,0,0,1,2.371,3.169v.095c0,2.391-1.917,3.643-4.8,3.643h-5.066Z" transform="translate(-552.917 -260.535)" fill="#009fe3"/>
    <path id="Path_14685" data-name="Path 14685" d="M653.022,260.706h2.751v10.757h5.369v2.523h-8.12Z" transform="translate(-560.277 -260.535)" fill="#009fe3"/>
    <path id="Path_14686" data-name="Path 14686" d="M668.387,260.706h8.556v2.485h-5.825v2.865h5.123v2.485h-5.123v2.96h5.9v2.485h-8.632Z" transform="translate(-566.384 -260.535)" fill="#009fe3"/>
    <path id="Path_14687" data-name="Path 14687" d="M513.866,325.453h11.723c-.2,9.426-5.405,14.155-12.4,14.155-7.534,0-12.365-6.351-12.365-13.176s4.831-13.176,12.365-13.176c8.345,0,10.642,5.2,11.588,7.905l-5.3.337c-.912-2.229-2.737-3.716-6.284-3.716-3.986,0-7.1,3.243-7.1,8.649,0,4.56,2.872,8.648,7.433,8.648a6.265,6.265,0,0,0,6.419-5.3h-6.081Z" transform="translate(-499.78 -281.423)" fill="#6b89c1"/>
    <path id="Path_14688" data-name="Path 14688" d="M625.064,314.157h5.054v20.62h9.738v4.717H625.064Z" transform="translate(-549.164 -281.781)" fill="#6b89c1"/>
    <path id="Path_14689" data-name="Path 14689" d="M664.419,320.515c0-1.752-1.685-2.83-3.706-2.83-2.528,0-4.043,1.112-4.043,2.8,0,1.753,1.685,2.594,2.931,3l4.65,1.483c3.37,1.078,5.762,3.032,5.762,6.94,0,3.1-2.224,7.749-9.232,7.749-8.794,0-9.6-5.693-9.6-7.952l5.055-.1c0,2.7,2.123,3.74,4.582,3.74,1.718,0,4.144-.843,4.144-2.8,0-1.348-.572-2.055-3.066-2.966l-5.526-1.988a6.867,6.867,0,0,1-4.751-6.334c0-3.235,2.224-7.886,8.794-7.886,7.818,0,9.064,5.19,9.064,7.043Z" transform="translate(-559.543 -281.469)" fill="#6b89c1"/>
    <path id="Path_14690" data-name="Path 14690" d="M552.111,326.345a7.1,7.1,0,0,1,1.121-1.442l-3.675-4.03a12.586,12.586,0,0,0-2.333,3.037Z" transform="translate(-518.222 -284.451)" fill="#62b22f"/>
    <path id="Path_14691" data-name="Path 14691" d="M570.288,321.868a6.99,6.99,0,0,1,1.541.966l3.685-4.024a12.561,12.561,0,0,0-3.267-2.038Z" transform="translate(-527.391 -282.821)" fill="#e8b91c"/>
    <path id="Path_14692" data-name="Path 14692" d="M581.074,327.241l-4.885,2.435a7.026,7.026,0,0,1,.489,1.726l5.433-.513a12.4,12.4,0,0,0-1.038-3.648" transform="translate(-529.736 -286.982)" fill="#c41723"/>
    <path id="Path_14693" data-name="Path 14693" d="M574.892,326.5l4.884-2.435a12.55,12.55,0,0,0-2.282-3.03l-3.685,4.023a7.053,7.053,0,0,1,1.084,1.442" transform="translate(-528.79 -284.517)" fill="#4a9a34"/>
    <path id="Path_14694" data-name="Path 14694" d="M550.126,335.333c0-.11,0-.219.008-.328l-5.435-.487c-.017.27-.028.542-.028.815a12.526,12.526,0,0,0,.37,3.023l5.249-1.506a7.069,7.069,0,0,1-.165-1.517" transform="translate(-517.208 -289.875)" fill="#427d3c"/>
    <path id="Path_14695" data-name="Path 14695" d="M573.6,343.285a7.124,7.124,0,0,1-1.325,1.247l2.87,4.647a12.615,12.615,0,0,0,2.81-2.61Z" transform="translate(-528.179 -293.359)" fill="#fac600"/>
    <path id="Path_14696" data-name="Path 14696" d="M577.021,335.365a7,7,0,0,1-.161,1.5l5.248,1.507a12.475,12.475,0,0,0,.367-3.008q0-.386-.025-.767l-5.434.513c0,.085,0,.169,0,.254" transform="translate(-530.003 -289.906)" fill="#e6331f"/>
    <path id="Path_14697" data-name="Path 14697" d="M553.659,343.458l-4.344,3.3a12.592,12.592,0,0,0,2.837,2.57l2.869-4.641a7.123,7.123,0,0,1-1.362-1.23" transform="translate(-519.054 -293.428)" fill="#f69f0f"/>
    <path id="Path_14698" data-name="Path 14698" d="M550.281,331.264a6.97,6.97,0,0,1,.521-1.751l-4.883-2.432a12.429,12.429,0,0,0-1.078,3.7Z" transform="translate(-517.276 -286.918)" fill="#2295d3"/>
    <path id="Path_14699" data-name="Path 14699" d="M572.934,350.7l-2.866-4.64a7.012,7.012,0,0,1-1.672.679l1.011,5.368a12.421,12.421,0,0,0,3.527-1.407" transform="translate(-526.639 -294.464)" fill="#a6183c"/>
    <path id="Path_14700" data-name="Path 14700" d="M576.009,339.621a7.067,7.067,0,0,1-.763,1.571l4.358,3.287a12.448,12.448,0,0,0,1.649-3.352Z" transform="translate(-529.361 -291.903)" fill="#3abbe3"/>
    <path id="Path_14701" data-name="Path 14701" d="M565.234,347.45a6.974,6.974,0,0,1-1.838.025l-1.01,5.368a12.562,12.562,0,0,0,3.858-.03Z" transform="translate(-524.25 -295.015)" fill="#eb601f"/>
    <path id="Path_14702" data-name="Path 14702" d="M566.173,320.592a7.025,7.025,0,0,1,1.745.337l1.96-5.094a12.4,12.4,0,0,0-3.7-.7Z" transform="translate(-525.755 -282.169)" fill="#e2162f"/>
    <path id="Path_14703" data-name="Path 14703" d="M559.738,346.838a7.006,7.006,0,0,1-1.73-.654l-2.871,4.643a12.439,12.439,0,0,0,3.592,1.373Z" transform="translate(-521.368 -294.512)" fill="#da035e"/>
    <path id="Path_14704" data-name="Path 14704" d="M560.607,320.9a6.99,6.99,0,0,1,1.781-.317v-5.458a12.439,12.439,0,0,0-3.755.684Z" transform="translate(-522.758 -282.166)" fill="#1f4468"/>
    <path id="Path_14705" data-name="Path 14705" d="M551.722,341.317a6.977,6.977,0,0,1-.831-1.667l-5.245,1.505a12.453,12.453,0,0,0,1.732,3.464Z" transform="translate(-517.595 -291.914)" fill="#cd9b12"/>
    <path id="Path_14706" data-name="Path 14706" d="M555.749,322.732a7.039,7.039,0,0,1,1.512-.915l-1.972-5.089a12.5,12.5,0,0,0-3.217,1.97Z" transform="translate(-520.15 -282.804)" fill="#02629b"/>
    <path id="Path_14707" data-name="Path 14707" d="M595.713,319.753h-.068l-3.245,9.973h6.592Zm4.645,14.14h-9.393l-1.674,5.362h-5.533l9.358-25.684h5.4l9.222,25.684H602.1Z" transform="translate(-532.745 -281.548)" fill="#6b89c1"/>
  </g>
</svg>
