<svg id="sdg-05-on" xmlns="http://www.w3.org/2000/svg" width="146.722" height="146.722" viewBox="0 0 146.722 146.722">
  <rect id="Rectangle_1165" data-name="Rectangle 1165" width="146.722" height="146.722" rx="4" fill="#ff3a21"/>
  <g id="Group_2466" data-name="Group 2466" transform="translate(-2.328 -3.082)">
    <g id="Group_1077" data-name="Group 1077" transform="translate(29.093 26.599)">
      <path id="Path_2312" data-name="Path 2312" d="M282.36,327.768a14.455,14.455,0,1,1,14.455-14.455,14.464,14.464,0,0,1-14.455,14.455M310.108,285.9H295.117a.182.182,0,0,0-.179.2v4.96a.2.2,0,0,0,.179.2h5.965l-6.635,6.635a19.626,19.626,0,1,0-14.656,34.9v5.742h-5.921a.2.2,0,0,0-.2.179v5.34a.2.2,0,0,0,.2.2h5.921v5.652a.2.2,0,0,0,.179.2h5.34a.2.2,0,0,0,.2-.2v-5.675h5.92a.2.2,0,0,0,.2-.2v-5.34a.182.182,0,0,0-.2-.179h-5.876v-5.831a19.62,19.62,0,0,0,12.869-30.652l6.524-6.524v5.585a.2.2,0,0,0,.2.2h4.982a.2.2,0,0,0,.2-.2V286.1a.238.238,0,0,0-.223-.2" transform="translate(-235.019 -250.377)" fill="#fff"/>
      <path id="Path_2313" data-name="Path 2313" d="M328.617,382.1H311.1a.2.2,0,0,0-.2.179v4.245a.2.2,0,0,0,.2.179h17.516a.182.182,0,0,0,.2-.179v-4.245a.2.2,0,0,0-.2-.179" transform="translate(-272.451 -325.085)" fill="#fff"/>
      <path id="Path_2314" data-name="Path 2314" d="M328.617,416H311.1a.2.2,0,0,0-.2.179v4.245a.2.2,0,0,0,.2.179h17.516a.182.182,0,0,0,.2-.179v-4.245a.2.2,0,0,0-.2-.179" transform="translate(-272.451 -351.411)" fill="#fff"/>
      <path id="Path_2315" data-name="Path 2315" d="M146.083,134.608a3.721,3.721,0,0,0-3.441,1.676H142.6v-6.055h7.038V126.9H138.889v13.7h3.731v-.536c0-1.43.648-2.234,1.787-2.234,1.251,0,1.765.871,1.765,2.189v5.876c0,1.3-.469,2.189-1.72,2.189-1.407,0-1.9-.938-1.9-2.368v-3.038H138.8v2.77c0,3.686,1.475,6.055,5.63,6.055,4.133,0,5.809-2.189,5.809-5.563v-5.943c0-3.843-1.966-5.384-4.156-5.384" transform="translate(-138.8 -126.9)" fill="#fff"/>
      <path id="Path_2316" data-name="Path 2316" d="M244.669,133.17H247.1V138.6h-1.229v-1.117a1.549,1.549,0,0,1-1.631,1.229c-1.475,0-2.145-1.162-2.145-2.748v-4.915c0-1.586.76-2.748,2.569-2.748,1.9,0,2.435,1.05,2.435,2.547v.894h-1.564v-1.028c0-.626-.246-.983-.849-.983s-.894.447-.894,1.05v5.451c0,.626.246,1.05.849,1.05.559,0,.849-.313.849-.983v-1.787h-.8v-1.34Z" transform="translate(-219.021 -127.987)" fill="#fff"/>
    </g>
    <path id="Path_2317" data-name="Path 2317" d="M268.8,128.9h4.066v1.385H270.5v2.9h1.7v1.385h-1.7v3.083h2.368v1.408H268.8Z" transform="translate(-210.663 -101.855)" fill="#fff"/>
    <path id="Path_2318" data-name="Path 2318" d="M292.552,132.676v6.39H291.1V128.9h1.676l1.854,5.831V128.9h1.43v10.165h-1.5Z" transform="translate(-227.981 -101.855)" fill="#fff"/>
    <g id="Group_1078" data-name="Group 1078" transform="translate(69.039 27.045)">
      <path id="Path_2319" data-name="Path 2319" d="M320.035,137.658a.9.9,0,0,0,.983-1.028v-5.317a.9.9,0,0,0-.983-1.028h-.715v7.373Zm2.681-6.032v4.714c0,1.564-.648,2.726-2.48,2.726H317.6V128.9h2.636c1.832,0,2.48,1.162,2.48,2.726" transform="translate(-317.6 -128.9)" fill="#fff"/>
    </g>
    <path id="Path_2320" data-name="Path 2320" d="M344.8,128.9h4.088v1.385H346.52v2.9h1.7v1.385h-1.7v3.083h2.368v1.408H344.8Z" transform="translate(-269.684 -101.855)" fill="#fff"/>
    <g id="Group_1079" data-name="Group 1079" transform="translate(80.12 27.045)">
      <path id="Path_2321" data-name="Path 2321" d="M368.9,130.285v3.172h.581a.747.747,0,0,0,.849-.849v-1.5c0-.559-.246-.827-.849-.827Zm0,4.111v4.669h-1.7V128.9h2.48c1.72,0,2.346.849,2.346,2.279v1.3c0,1.095-.38,1.743-1.363,1.966l1.631,4.625h-1.787Z" transform="translate(-367.2 -128.9)" fill="#fff"/>
    </g>
    <path id="Path_2322" data-name="Path 2322" d="M242,192.6h4.088v1.385H243.72v2.927H245.4v1.363H243.72v3.105h2.368v1.385H242Z" transform="translate(-189.851 -151.323)" fill="#fff"/>
    <g id="Group_1080" data-name="Group 1080" transform="translate(56.997 41.165)">
      <path id="Path_2323" data-name="Path 2323" d="M267.163,200.121V194.58c0-.626-.268-1.05-.894-1.05-.6,0-.871.424-.871,1.05v5.541c0,.6.268,1.05.871,1.05.626,0,.894-.469.894-1.05m-1.519,2.949v-.693a2.339,2.339,0,0,1-1.944-2.614v-4.915c0-1.586.782-2.748,2.569-2.748a2.428,2.428,0,0,1,2.592,2.748v4.915a2.4,2.4,0,0,1-1.251,2.391l1.251.246v1.273Z" transform="translate(-263.7 -192.1)" fill="#fff"/>
      <path id="Path_2324" data-name="Path 2324" d="M296.16,192.6v7.685c0,1.564-.67,2.592-2.413,2.592a2.29,2.29,0,0,1-2.547-2.592V192.6h1.7v7.864c0,.6.246,1.005.849,1.005s.849-.4.849-1.005V192.6Z" transform="translate(-285.056 -192.488)" fill="#fff"/>
    </g>
    <path id="Path_2325" data-name="Path 2325" d="M317.645,199.548h1.363l-.67-4.088h-.022Zm-2.145,3.217,1.921-10.165h1.944l1.921,10.165h-1.743l-.313-1.854h-1.81l-.29,1.854Z" transform="translate(-246.93 -151.323)" fill="#fff"/>
    <path id="Path_2326" data-name="Path 2326" d="M344.6,192.6h1.72v8.78h2.033v1.385H344.6Z" transform="translate(-269.529 -151.323)" fill="#fff"/>
    <rect id="Rectangle_1166" data-name="Rectangle 1166" width="1.72" height="10.165" transform="translate(79.607 41.277)" fill="#fff"/>
    <path id="Path_2327" data-name="Path 2327" d="M376.1,192.6h4.535v1.385h-1.408v8.78h-1.72v-8.78H376.1Z" transform="translate(-293.991 -151.323)" fill="#fff"/>
    <path id="Path_2328" data-name="Path 2328" d="M402.319,198.9v3.865H400.6V198.9l-1.9-6.3h1.787l1.028,3.865h.022l1.028-3.865H404.2Z" transform="translate(-311.542 -151.323)" fill="#fff"/>
  </g>
</svg>
