<svg xmlns="http://www.w3.org/2000/svg" width="102" height="102" viewBox="0 0 102 102">
  <g id="icon-intro-2" transform="translate(-1027 -417)">
    <g id="Group_2436" data-name="Group 2436" transform="translate(1027 417)">
      <g id="Group_1053" data-name="Group 1053">
        <ellipse id="Ellipse_261" data-name="Ellipse 261" cx="49.195" cy="48.846" rx="49.195" ry="48.846" transform="translate(1.77 2.609)" fill="#1fad8e"/>
        <g id="Group_1052" data-name="Group 1052">
          <g id="Group_1051" data-name="Group 1051">
            <g id="Group_1050" data-name="Group 1050">
              <g id="Group_1049" data-name="Group 1049">
                <path id="Path_2263" data-name="Path 2263" d="M150.562,77.915c-.084-1.414-.335.749-.084-.915A1.376,1.376,0,0,1,150.562,77.915Z" transform="translate(-49.65 -25.66)" fill="#1fad8e"/>
                <path id="Path_2264" data-name="Path 2264" d="M100.775,47.524c-.47-1.8-.806-3.872-1.141-6.009a22.067,22.067,0,0,0-1.813-6.076c-.2-.4.47,0,0-1-1.007-1.736-1.947-4.006-3.156-6.343s-2.484-4.74-3.76-6.743l.269.134c-.537-.734-1.477-1.4-2.081-2.2.067-.067.269.134.2-.067-.336,0-1.209-1.269-1.611-1.4-.2-.334,0-.467-.269-.868l-.6-.2a6.739,6.739,0,0,1-2.081-1.669,11.279,11.279,0,0,0-2.35-2c.134,0,.336.134.2-.067a79.163,79.163,0,0,0-9.736-5.675c.2,0,.4-.134.2-.334a6.275,6.275,0,0,1-2.283-.6c-.269-.467-1.679-.4-2.686-1h.134c-.94,0-1.141-.6-1.947-.467l-.47-.4c-.537.334-1.209-.534-1.947-.534v.067c-.671-.067-.94-.334-1.611-.4l-.067-.067c-1.477-.267-2.216-.6-2.283-.267-.47-.334,1.41.134.671-.4q-3.525-.4-7.251-.6a66.519,66.519,0,0,0-7.319.2,7.269,7.269,0,0,1-1.074-.134,11.923,11.923,0,0,0-2.216.534c.134-.067-.336-.134-.6-.067-.873,0-.873.467-1.813.6.336-.2.47-.334.336-.4a26.328,26.328,0,0,1-2.753,1c.134-.067.336-.2.269-.267-.94.6-1.88.467-2.753.935l.269-.267c-1.477.267-.269.534-1.611.8.336-.2.2-.267.2-.334-1.007.734-2.887,1.335-3.961,2,.067-.067,0-.067,0-.067-.6.267-1.209.6-1.813.868A16.126,16.126,0,0,0,26.65,8.8c-.47.2-.067-.467-1.276.267.2.267-1.947,1.4-1.007,1.335-.269.134-.537.334-.873.467-.269.2-.6.4-.94.6a10.615,10.615,0,0,0-1.41,1.068c.336-.467-.739,0,0-.668l-.739.267c0-.2.671-.467.336-.467-.4.334-1.477,1.335-1.813,1.6a16.207,16.207,0,0,1-1.947,2.671c.4-.6-.6,0-.269-.4-.336.668-.671,1.269-1.007,1.936-.336.334-.269-.134-.739.467.067.067-.067.334-.134.534-.134.067-1.276,1.6-1.679,1.536-.269.067.47-.668,0-.334-.6.668-.47.8-1.074,1.536h-.067a4.015,4.015,0,0,0-.6.868c-.134.267-.067.467.2.267.269-.334-.269,0,.2-.4a11.139,11.139,0,0,1-1.141,2.07c.134-.267,0-.334,0-.467-.269.6-.47,1.135-.806,1.736-.269.6-.6,1.135-.873,1.8.134.134,0-.6.134-.734A10.887,10.887,0,0,0,7.85,28.63a9.218,9.218,0,0,1-1.141,2.136c.067-.2.269,0,.2,0-.336.734-.6.6-.739,1.135-.134,0-.269.668-.4,1.2,0,.334-.134.134.067-.334-.067.4-.4,1.335-.739,2.4s-.739,2.2-1.007,3.071c.134,0,0,1.135-.067,1.536l-.2-.2c-.2.334-.269,1.335-.47,1.4.067.467.2-.4.269-1.2.269-.935.47-1.669.4-1.068-.269.267-.067,1.736-.269,1.4a13.851,13.851,0,0,1-.47,2.4c.067-.2-.2-.734-.269-.067-.2,1.2.067.334-.067,1.335v.6c.2.067-.134,1.068.134.668-.2.134-.134,1.736-.47,1.536l-.269-.2a5.788,5.788,0,0,0,.336,1.269c0,.067-.134.2-.134.134.47.134-.134,1.2.2,1.8a15.149,15.149,0,0,0-.134,1.8,3.913,3.913,0,0,1-.134,1.4,13.728,13.728,0,0,1,.336,2.47c-.134-.134-.134-.4-.269-.467A3.881,3.881,0,0,0,2.68,56.07a12.363,12.363,0,0,0-.2,1.869c.269.8.47.467.6.534-.2.4,0,.935.2,1.536a3.928,3.928,0,0,1,.269,1.669c-.134-.267-.47-1.135-.47-.4-.269.8.671,1.4.739,2.6l.269-.4c-.067.6.671,1.669.269,1.6.2.334.336,1.4.6,1.135.269,2,1.88,4.406,1.813,5.742.134.267.47.868.537.668-.067-.534-.4-.534-.4-.734.134.2.2.267.269.267.2.6.4,1-.134.668.47,1.335,1.141,1,1.947,2.537-.134,0-.134.134.134.6a3.512,3.512,0,0,0,.739.668c.537,1,.067.734-.134.868.336.467.739,1.135,1.074,1.2l.2.8c-.134-.6.4.334.6.534l-.2-.2a5.057,5.057,0,0,0,.671.935c.067-.134-.336-.734-.47-1.135a10.3,10.3,0,0,0,.873.8c-.269.067.47.868.739,1.269.269.467.537.334.671.467-.067.067.6.668.134.467-.134-.134-.2-.4-.47-.534.134.334,0,.467.6.935.47.334.269-.4.873.467-.2-.2-.336-.134-.537-.267.2.267.4.6.6.868l.2-.134c.067.134,0,.067,0,.134.4.067,1.141,1.068,1.477,1.068.4.334.671.868,1.007,1.2l-.067-.067a6.663,6.663,0,0,0,.671.734,5.013,5.013,0,0,0,.806.467H19.13a6.26,6.26,0,0,0,1.209.868c.537.6-.336.8.6,1.135.671.534,1.276.467,1.074.134a13.427,13.427,0,0,0,1.88,1.335,7.482,7.482,0,0,1,1.813,1.335c.2.067.134-.067.537.067,1.813,1.2,4.163,1.936,5.573,3-.6-.2-.134.2-.134.334.537.067.537.467.806.2,0-.2.134-.267-.4-.6.6.2,1.41.467,2.081.734a9.58,9.58,0,0,1,1.611.734c-.336-.2,0-.2.269-.134-.2.267.739.668,1.477.734l.134-.134.4.334c.269,0,.4-.334,1.074.067,0,.067.067.134.134.267a8.525,8.525,0,0,1,2.619.267l.6.4c.336,0,.94-.067.336-.2.671.2,1.209.334,1.679.467a2.066,2.066,0,0,1,.94.4c2.484-.334,5.909-.2,8.661-.4L54.044,99c.739.067.336-.267.873-.2-.2.134.6.267,0,.467,1.074.067,1.343-.4,2.014-.534.067-.2-.537.2-.4-.067.134-.067,1.477-.067,1.611-.334.269.067.134.334,0,.467a2.392,2.392,0,0,0,.6-.267c.4.067,0,.334-.4.534s-.873.467-.4.6c.2-.067.4-.067.6-.134.6.2-1.544.534,0,.467.671-.267,1.141-.8.537-.8,1.343-.334.537-.8,1.947-1.068.2.067-.067.134-.336.2s-.6.134-.47.267c.739.134,1.343-.4,1.947-.467-.671.067-.2-.4.2-.534.739,0-.4.4.6.2.134-.2,1.007-.6.2-.467.269-.467,1.074-.2,1.544-.6.4.134-.873.868.269.734-.269-.2,1.276-.8.537-.935.47-.067.537.134.269.334.671-.067,1.343-.935,1.679-.534l.134-.334a3.765,3.765,0,0,1,.873,0c.269-.134.671-.334,1.007-.534s.6-.334.671-.134c.134-.134,1.343-.6.806-.668-.806.2-.739.534-1.343.4.671.067,1.074-.534,1.41-.8l.134.134c.2-.134.806-.4.873-.668-.134.2,0,.2.2.134l.134-.334c.94-.6.4.267,1.343-.334-.2.2-.47.334-.671.534.134-.134.6-.067,1.007-.4.067-.267.269-.734.336-.935.47-.4.336.067.806-.4l-.537.6c-.067.134.671.067,1.343-.4.4-.334.94-1.068.2-.734.336-.2.94-.4.739-.134.739-.534-.2-.134.4-.668.336-.067,1.276-.467,1.947-.668l-.47.8.47-.334c-.47.668.4-.067.269.467a3.823,3.823,0,0,0,.94-.868c-1.209.334.6-1.335.067-1.469,1.141-1,1.477.2,2.216-1.335-.269.067.067-.668-.6.067.739-.6.2-.734,1.141-1.4-.47.734.94-.267.269.734-.067-.134-.6.4-.671.534.4-.134.269.4,1.007-.267.4-.467,1.007-1,.739-1.135-.2-.134-.671.668-.537.2.806-.868,1.209-.734,1.209-1.4-.47.6-.806.534-.94.4.2-.2.336-.467.537-.668v.267c1.074-.935.067-.534,1.007-1.469l.671-.267c0,.467-1.41,1.335-.94,1.536.6-.6.671-1,1.276-1.536a3.724,3.724,0,0,0-.336.534c.2-.2.873-.067,1.477-1.269.336-.6,0-.267-.134-.334.806-1.135,1.007-1.6,1.477-2.337.134.334.94-1.269.671-.267A6.38,6.38,0,0,0,89.093,80.3a3.368,3.368,0,0,0-.739,1.335c.336-.067.134.134-.134.4s-.6.668-.537.868c.739-.868,1.007-.6,1.343-.534a2.714,2.714,0,0,0,.4-.734c-.134-.267-.336.067-.6-.067A7.88,7.88,0,0,0,90.5,78.836c.336-.267.47,0,.2.4.4-.668.873-1.335,1.276-2,.47-.668.873-1.335,1.276-1.936-.806.6.739-1.469.134-1.068-.47.668-1.074,1.068-1.007.6.269-.4.134.067.336,0,.134-.6.806-.668.739-1.335-.537,1.269.336.467.47.868.336-1,.2.134.671-.734.336-1,.671-2.136,1.074-3.2a8.912,8.912,0,0,0,1.007-2.27c.269-.868.47-1.669.671-2.27.336-.6.537-.067.806-.734.2-.8-.537.467-.067-.668l.067.134c0-.2.269-.734.4-1.269s.2-1.135,0-1.335l.269.467a2.259,2.259,0,0,0,.067-.668c.134,0,.269-.2.269.134.47-.668.269-1.6.4-2.47l-.336.467a12.473,12.473,0,0,1,.269-1.869c.067-.6.2-1.135.269-1.869l.2.067L99.9,55.4c.2.2.4-.534.269-1l.4,2.2c-.2.6-.2-.668-.47-.334a2.815,2.815,0,0,0-.134,1.8,2.187,2.187,0,0,0,0-.935c.336-.134.2.6.4,1,0-.267.134-.6.067-.668a6.046,6.046,0,0,1-.067,1.869c0-.6-.269.267-.269.067.269.134.2.935-.067,1.936-.47.668-.2,2-.671,3.138a6.125,6.125,0,0,1-.134-2c-.336.734-.134.868-.537,1.536a3.607,3.607,0,0,1,.2,1.736h-.2c-.2.868.067,1-.336,2.07-.336.935-.806,1.869-1.141,2.737-.4.868-.806,1.669-1.141,2.337l-.2-.067a4.716,4.716,0,0,1-.6,1.8c-.336.668-.739,1.335-.94,1.869-.537.8-1.141,1.669-1.611,2.537a7.015,7.015,0,0,1-1.41,1.736,36.7,36.7,0,0,1-6.58,7.544,2.365,2.365,0,0,1,.269-.6c-.336.6-.4.134-.873.6.671-.267-.47.8-.671,1.2a21.746,21.746,0,0,0-2.081,1.6,23.113,23.113,0,0,0-1.813,1.669l-.134-.134a6.888,6.888,0,0,1-1.88,1.4c-.739.4-1.544.734-2.35,1.135a3.041,3.041,0,0,0-1.074.267A12.513,12.513,0,0,1,71.77,97.2a22.563,22.563,0,0,1-3.559,1.269c-3.559,1.736-7.52,2.4-11.548,3.138l-.336-.2a21.393,21.393,0,0,1-3.089.467,25.97,25.97,0,0,1-3.223.067c-.537,0-1.074-.067-1.611-.067a12.051,12.051,0,0,1-1.544-.134c-1.007-.067-1.947-.134-2.753-.2l.4-.334c-1.007-.267-2.417-.267-2.149.067-.537-.134-1.209-.2-1.813-.334a5.486,5.486,0,0,1-1.477-.467,16.335,16.335,0,0,0-2.216-.334c-1.007-.4-1.746-.6-2.417-.868-.336-.134-.671-.2-1.074-.334s-.806-.267-1.276-.467l.47.2c.269,0,.336-.134-.134-.334a8,8,0,0,1-1.477-.534c-.47-.2-.806-.267-.537.134-1.88-1.068-4.7-2.07-6.379-3.472.067.2-.4-.067-.6-.134l-1.209-.8c-.4-.267-.739-.6-1.141-.868a21.411,21.411,0,0,0-2.149-1.536c-.2-.267.537.134-.067-.4-.4-.267-.134.134-.6-.2-2.619-1.8-4.5-4.473-6.379-6.543A37.32,37.32,0,0,1,7.246,77.9a62.786,62.786,0,0,1-3.491-6.61h.134a9.09,9.09,0,0,1-1.007-2.47,5.675,5.675,0,0,0-.873-2.07c-.067-.4-.336-1.4-.134-1.2a9.445,9.445,0,0,1-.671-2.4c-.067-.467-.2-1-.269-1.469a11,11,0,0,0-.4-1.4,1.232,1.232,0,0,0,.134.467C.6,59.808.4,58.94.33,58.072.263,57.605.2,57.2.129,56.737a9.8,9.8,0,0,1-.067-1.4,3.092,3.092,0,0,0,.2.6c.134-.734-.537-1.8-.067-2.2,0-.4-.269-.334-.2,0A64.188,64.188,0,0,1,.935,40.38c.537-1.669.739-1.669.806-1.6.134.067.134.2.269-1.068.134-.2-.134-.2,0-.2a2.974,2.974,0,0,1,.537-1.135,1.5,1.5,0,0,0,.4-.935c-.336.2,0-.467-.2-.534a14.141,14.141,0,0,1,1.007-1.869,10.729,10.729,0,0,0,.671-1.669l.067.134c.336-1.8,1.477-3.605,1.813-5.208A50.965,50.965,0,0,1,27.255,5.663,53.968,53.968,0,0,1,41.086.856,53.406,53.406,0,0,1,48.4-.012a55.633,55.633,0,0,1,7.453.267,19.286,19.286,0,0,0,4.969.935c-.134.067-.269,0-.134.134.2-.334,1.746.334,2.081.067A58.423,58.423,0,0,1,73.046,4.929c-.537-.2-.94-.067-.269.2.269.067.537.067.739.134l.067.134c.47.2,1.007.267.6-.067A44.439,44.439,0,0,1,85.87,13.408a69.639,69.639,0,0,1,4.767,5.208c1.41,1.869,2.82,3.739,4.029,5.675,1.074,1.936,2.686,4.607,3.626,6.81a60.46,60.46,0,0,1,2.619,9.948,72.09,72.09,0,0,1,1.074,10.215,5.733,5.733,0,0,1-.47-.8A9.991,9.991,0,0,1,100.775,47.524Z" transform="translate(0.016 0.036)" fill="#1fad8e"/>
                <path id="Path_2265" data-name="Path 2265" d="M150.486,80.1c-.167.333-.418,1.248-.586.5C150.067,80.514,150.235,80.015,150.486,80.1Z" transform="translate(-49.573 -26.677)" fill="#1fad8e"/>
                <path id="Path_2266" data-name="Path 2266" d="M140.135,109.7c0,.083-.251.25-.335.333.167-.25.084-.666.335-.832C139.967,109.533,140.051,109.533,140.135,109.7Z" transform="translate(-47.923 -36.388)" fill="#1fad8e"/>
                <path id="Path_2267" data-name="Path 2267" d="M136,116.163A6.294,6.294,0,0,1,137,114Z" transform="translate(-47.301 -38.19)" fill="#1fad8e"/>
                <path id="Path_2268" data-name="Path 2268" d="M130.939,121.916c-.418.333-.418.166,0-.416C131.022,121.5,130.939,121.75,130.939,121.916Z" transform="translate(-46.424 -40.45)" fill="#1fad8e"/>
                <path id="Path_2269" data-name="Path 2269" d="M130.837,122.687a2.624,2.624,0,0,1-.837.666C130.167,123.436,130.753,122.354,130.837,122.687Z" transform="translate(-46.322 -42.23)" fill="#1fad8e"/>
                <path id="Path_2270" data-name="Path 2270" d="M118.888,133.187c-.251.25-.669.749-1.088.749C118.218,133.936,118.971,132.854,118.888,133.187Z" transform="translate(-38.865 -47.444)" fill="#1fad8e"/>
                <path id="Path_2271" data-name="Path 2271" d="M113.187,137.683a1.116,1.116,0,0,0-.418.25c-.335.083-.084-.166.167-.333Z" transform="translate(-37.075 -48.196)" fill="#1fad8e"/>
                <path id="Path_2272" data-name="Path 2272" d="M5.8,93.9l.251.582H5.8Z" transform="translate(-0.934 -31.256)" fill="#1fad8e"/>
                <path id="Path_2273" data-name="Path 2273" d="M15.9,36.722c.251-.666.418-.25.5-.333C16.067,36.888,16.318,36.057,15.9,36.722Z" transform="translate(-2.584 -12.071)" fill="#1fad8e"/>
                <path id="Path_2274" data-name="Path 2274" d="M38.435,13.85l-.167.166L38.1,13.6Z" transform="translate(-12.525 -2.256)" fill="#1fad8e"/>
              </g>
            </g>
          </g>
        </g>
      </g>
    </g>
    <g id="Icon_-_Partner" data-name="Icon - Partner" transform="translate(1047.931 452.535)">
      <g id="Group_721" data-name="Group 721">
        <g id="Group_720" data-name="Group 720">
          <g id="Group_719" data-name="Group 719">
            <g id="Group_718" data-name="Group 718">
              <g id="Group_717" data-name="Group 717">
                <path id="Path_508" data-name="Path 508" d="M41.22,10.465c.214.138,0-.2.17.059C41.311,10.552,41.244,10.56,41.22,10.465Z" transform="translate(-24.916 -6.3)" fill="#fff"/>
                <path id="Path_509" data-name="Path 509" d="M16.949,4.818a.785.785,0,0,1,.146.312,2.338,2.338,0,0,1,.024.376,6.014,6.014,0,0,1-.075.787,5.523,5.523,0,0,0-.15,1.578c0,.119-.237-.071-.222.2a4.392,4.392,0,0,1-.162,1.752,11.194,11.194,0,0,1-.7,1.8l-.051-.083c-.1.206.063.522-.024.748-.047-.008-.047-.087-.123-.051.123.091-.036.431.044.554-.075.079-.182.044-.269.146l.123.17c.277.455-.249.882-.186,1.428-.032-.032-.044-.091-.091-.059a15.311,15.311,0,0,1-.451,2.761c-.044-.051-.134-.111-.21-.075.15.087.115.376.079.621-.2.059.04.451-.131.708l-.032-.036c.115.257-.186.277-.028.506l-.166.095c.21.158-.206.265-.138.471l.051.008c.012.178-.131.229-.134.388l-.032.008c-.036.368-.229.534-.044.577-.182.079.032-.356-.237-.225a22.144,22.144,0,0,1-.87,3.532c-.111.111-.158.186-.237.194,0,.127-.095.443-.032.577.008-.04-.115.047-.142.107-.131.19.134.289-.016.494-.02-.107-.071-.154-.146-.142a1.8,1.8,0,0,1-.036.74c-.02-.044-.024-.107-.083-.115.091.3-.17.455-.127.708l-.083-.115c-.225.328.194.166.036.459-.016-.083-.063-.067-.1-.091a1.011,1.011,0,0,1,.04.328,1.024,1.024,0,0,1-.04.328,2.4,2.4,0,0,1-.289.451.054.054,0,0,0-.02-.044,2.148,2.148,0,0,1-1.017.49c-.146-.044.028-.265-.316-.222.012.222-.589.091-.384.34a2.931,2.931,0,0,0-.965-.044c.134-.083-.146-.269.1-.289l-.186-.134c.028-.091.19.032.134-.083a2.821,2.821,0,0,1-.593.059,1.753,1.753,0,0,1-.811.415c.174-.087-.1-.241.02-.281l-.518.423c-.123.012-.028-.174-.206-.115.008.059-.067.095-.123.142-.047-.024-.514.055-.566-.162-.055-.087.2-.047.063-.123-.229,0-.237.075-.467.079l0-.028c-.15-.032-.443.091-.281.214.1.008-.04-.131.115-.067a.854.854,0,0,1-.6.162c.079-.036.067-.091.1-.154a3.27,3.27,0,0,1-.973.3c0,.1.127-.186.178-.134-.439-.142-.906.2-1.27-.008.059-.02.032.146.028.119-.21-.012-.2-.162-.34-.107-.012-.087-.174.028-.312.055-.079.055-.036-.051.087-.059a1.43,1.43,0,0,1-.823,0,1.362,1.362,0,0,1-.9-.74c-.02.02-.123-.036-.218-.131a.769.769,0,0,1-.21-.316l.15.02c.024-.158-.119-.506.008-.534-.087-.146-.059.142.059.423s.3.475.142.324c.024-.075-.079-.182-.158-.293s-.131-.206-.032-.178c-.032-.146-.079-.285-.1-.419a.379.379,0,0,1,.036-.3c-.024.059.186.17.178,0C.617,26.03.577,26.244.53,26l-.055-.15C.344,25.84.49,25.583.344,25.7c.111-.036-.067-.435.15-.4l.174.04c-.012-.131-.182-.214-.257-.312.016-.016.051-.051.079-.044-.265-.02.024-.309-.182-.463.091-.273.008-.688.174-.819a1.045,1.045,0,0,1-.119-.637c.024.047.032.111.091.127.079-.15.008-.186-.036-.324.04.032.154-.3.249-.463-.079-.206-.221-.134-.309-.158.261-.19-.166-.585.067-.823.036.071.127.3.194.131.261-.19-.194-.384-.067-.688l-.218.075c.134-.134-.127-.451.095-.419-.079-.1.071-.36-.138-.324.178-.5-.107-1.218.269-1.527-.036-.071,0-.253-.107-.214-.119.119.083.166,0,.21a.107.107,0,0,0-.095-.087c.047-.154.063-.277.237-.131.131-.348-.36-.356-.277-.8.087.02.119-.012.107-.142l-.15-.245c.036-.285.2-.162.348-.17-.024-.154-.02-.34-.131-.407l.186-.186c-.134.134-.091-.127-.127-.2l.036.071c.063-.028.024-.206,0-.293-.083.024-.123.2-.15.3-.063-.079-.051-.2-.127-.3.146.036.1-.249.119-.372.032-.138-.131-.158-.127-.2.075,0,.012-.225.119-.119.024.047-.071.107-.008.186.055-.091.186-.083.091-.273-.071-.142-.285.036-.194-.233.036.071.095.083.146.138l.075-.253-.131-.012c.032-.036.044-.012.063-.028-.138-.075-.044-.388-.2-.447-.012-.131.091-.269.107-.392L.4,14.1a.477.477,0,0,0-.063-.475l.028.008a.641.641,0,0,0-.087-.38c.1-.206.5-.071.332-.3,0-.21-.241-.328-.328-.245.091-.376-.127-.807.079-1.155C.3,11.5.269,11.538.237,11.427c.051-.554-.158-1.171.1-1.61.055.154.134,0,.21,0-.119-.131.123-.158-.079-.206-.119.012-.178,0-.225.154A1.922,1.922,0,0,1,.293,8.753C.237,8.844.2,8.773.162,8.7c.19.024.218-.222.15-.4L.2,8.271l.119-.119C.281,8.081.075,8.073.186,7.891a.206.206,0,0,0,.123-.055C.214,7.646.051,7.377.15,7.167L.32,7C.3,6.91.2,6.76.15,6.914c.1-.352.115-.581.261-.692a4.262,4.262,0,0,1-.344-2.2l.087.02C.237,3.856,0,3.947.063,3.817c.083.059.182-.146.281,0,.091-.273-.15-.352-.19-.53C.04,3.267.229,3.433.083,3.4.044,3.37.174,3.026,0,2.982c.067-.067.194-.016.265.02L.182,2.836c.2-.2.36.463.609.253L.763,2.935c.178-.146.2.4.265.02C.941,2.789.692,2.646.617,2.792.593,2.618.49,2.583.4,2.535c-.087-.063-.2-.15-.131-.451.071-.067.044.047.036.174s.016.253.087.2a.838.838,0,0,0,.075-.388.618.618,0,0,1,.079-.356c-.15.19-.241-.059-.2-.218.186-.194.067.214.245-.091C.526,1.313.649.977.431,1.195.368,1.076.439,1,.522.918A.6.6,0,0,0,.74.6c.115,0,.087.154.107.257s.055.166.237.028C1,.858,1.06.716,1.147.574S1.329.3,1.115.3c.261-.107.328,0,.218.17.312-.107.744-.522.831-.214L2.239.095c.044.02.067.04.134.067a.519.519,0,0,1,.178.111C2.694.289,3.034.1,3,.336c.047-.02.38.016.265-.158-.2-.115-.249.1-.344-.131.131.194.3,0,.423-.047l.012.091c.071-.028.233,0,.289-.091a.078.078,0,0,0,.016.138L3.746.008c.293-.044.047.249.332.233L3.856.328c.047-.02.134.119.273.087C4.193.293,4.3.15,4.359.055c.162-.044.059.15.225.032L4.367.222c-.036.04.119.222.332.237.138-.032.368-.2.158-.285.107.008.249.1.158.182.245-.024-.02-.138.2-.2C5.292.249,5.545.4,5.7.53L5.458.72,5.6.736c-.2.154.083.138-.04.309a.49.49,0,0,0,.32-.051c-.261-.312.36-.36.3-.629.4-.032.182.657.637.293C6.764.581,6.977.4,6.72.451c.245.055.194-.245.475-.107-.225.083.2.289-.127.411C7.1.672,6.9.672,6.851.692c.091.111-.047.261.2.285C7.207.969,7.42.989,7.4.846,7.416.7,7.167.835,7.282.7c.312-.016.336.214.494-.036A.209.209,0,0,1,7.563.4L7.8.364,7.741.459c.356.115.127-.166.479-.1l.142.214c-.1.158-.5-.134-.471.146.225.04.32-.095.526,0C8.366.74,8.3.74,8.251.759c.079.02.115.392.467.222C8.9.918,8.773.89,8.793.787c.368.016.494-.071.732-.055-.075.194.415.079.123.245A.724.724,0,0,0,8.86.953c.1.253-.281-.071-.392.162.293.044.245.273.273.431A.378.378,0,0,0,8.959,1.5c.051-.138-.051-.15-.04-.3a1.18,1.18,0,0,0,.842-.067.123.123,0,0,1-.087.222,4.9,4.9,0,0,1,1.163.2c-.2-.273.419.016.293-.206-.19-.087-.332-.281-.2-.368.123.036-.02.1.024.158.182-.1.21.249.4.075-.368.012-.119.273-.218.443.273-.055-.036.127.218.174a3.459,3.459,0,0,1,.886-.055c.316.245.89.2,1.21.277.138.134-.024.3.142.388.206.055-.095-.261.186-.083l-.04.032c.1-.012.5.312.684.055l-.162.186c.051.036.119,0,.174,0-.02.071.024.154-.083.174.134.214.392.1.593.178L14.864,2.8c.38.036.562.249.9.368l-.067.115.225.028c-.1.087.02.249.166.218a5.25,5.25,0,0,0-.617.028c-.095-.138.21-.071.19-.229-.02-.142-.336-.241-.431-.146.107.063.123.04.229.036-.04.182-.206.1-.336.178.059.02.119.107.154.059a.778.778,0,0,1-.459-.075c.154-.016-.028-.134.04-.162-.075.142-.273.119-.5,0-.115-.233-.49-.036-.759-.162a.9.9,0,0,1,.542-.214c-.158-.134-.2-.059-.36-.19a.753.753,0,0,1-.487.261l.02-.119c-.229,0-.273.174-.538.079a10.2,10.2,0,0,0-1.3-.352l.008-.123c-.249.214-.692-.032-.985.04-.447-.194-1.028-.044-1.238-.281A18.043,18.043,0,0,1,6.835,2L7,1.839c-.166.111-.091-.111-.245-.1.158.158-.229.158-.348.253a1.925,1.925,0,0,0-1.23.02l0-.123c-.364.194-.755-.04-1.183-.111C3.94,1.717,3.868,1.6,3.742,1.6a1.776,1.776,0,0,1-.724.241,3.926,3.926,0,0,1-.455-.071.962.962,0,0,1-.2-.055c-.04-.016-.119-.032-.15-.047-.134.091-.071.115-.142.21a2.912,2.912,0,0,0-.218.431.578.578,0,0,0-.044.154.477.477,0,0,0,0,.075l.008.182a6.543,6.543,0,0,0,.071.732l-.138.071A20.993,20.993,0,0,1,1.93,6.459L1.689,6.38c-.075.253.063.581.233.514-.075.257.119.637-.083.8-.044.261.111.32.142.538a3.568,3.568,0,0,0-.024,1.21l.016-.123c-.051-.055-.154-.059-.17.063.067.182-.063.676.225.494-.166.526.134,1.226-.091,1.74.079-.044.095.087.146.138a4.5,4.5,0,0,0-.024,1.317c-.04.075-.134-.119-.142.071.032.111.1,0,.146.138a14.131,14.131,0,0,1-.115,2.2,36.256,36.256,0,0,1,.1,3.627l-.059-.012c.221.388-.225.91.107,1.218-.055.091-.028.352-.138.281.158.309-.146.866.051,1.313a.184.184,0,0,0-.032-.111c-.127.451.047.85-.067,1.325-.024-.047-.044-.134-.1-.15-.111.182.245.435-.036.538,0,.107.138.075.131.012a9.033,9.033,0,0,0,0,1.6c.044.522.091,1.052.134,1.57a.389.389,0,0,1-.237.2c-.067.016-.1.032.055.1-.036.047.1-.047.051-.012.059.012.016.087,0,.166s-.02.154.059.119c.067-.162.095-.055.146-.15a.647.647,0,0,0,.17.206.245.245,0,0,0,.131.032.757.757,0,0,0,.237-.051l-.028.091c.439-.253.949-.119,1.321-.411,1.21-.028,2.4-.079,3.58-.134L9.3,26.774a9.007,9.007,0,0,0,1.285-.067c.036-.012.036-.012.04-.012s.012,0,.016-.012a.015.015,0,0,0,0-.012c.127-.574.257-.993.384-1.463.131-.455.261-.91.4-1.369.269-.906.554-1.812.886-2.713a1.516,1.516,0,0,0,.467-1.119c.032.036.028.075.075.044-.178-.083.1-.415-.063-.522.277-.831.443-1.618.68-2.484-.016.142.115.253.15.087l-.071-.2.059-.012c0-.119-.055-.265-.146-.166.431-2.215,1.357-4.26,1.776-6.416a4.819,4.819,0,0,0,.218-.87c.047-.316.079-.641.111-.922a17.581,17.581,0,0,0,.688-2.33c.036-.194.067-.388.1-.581l.04-.293.032-.265a.457.457,0,0,0-.051-.265c-.028-.028-.032-.008-.091-.016a.422.422,0,0,1,.047-.063A.534.534,0,0,1,16.47,4.6.319.319,0,0,1,16.949,4.818Z" fill="#fff"/>
                <path id="Path_510" data-name="Path 510" d="M40.531,9.659c.016-.115-.123-.257.079-.289C40.579,9.461,40.6,9.6,40.531,9.659Z" transform="translate(-24.481 -5.664)" fill="#fff"/>
                <path id="Path_511" data-name="Path 511" d="M28.643,3.508c-.012.028-.067-.051-.083-.071.067,0,.142-.063.186,0C28.679,3.428,28.683,3.476,28.643,3.508Z" transform="translate(-17.264 -2.06)" fill="#fff"/>
                <path id="Path_512" data-name="Path 512" d="M25.38,2.807c.032-.083.332-.107.506-.087Z" transform="translate(-15.341 -1.64)" fill="#fff"/>
                <path id="Path_513" data-name="Path 513" d="M22.225,1.445c-.1-.087-.063-.123.083-.1C22.312,1.389,22.26,1.405,22.225,1.445Z" transform="translate(-13.4 -0.808)" fill="#fff"/>
                <path id="Path_514" data-name="Path 514" d="M21.718,1.893a.275.275,0,0,1-.2-.123C21.516,1.841,21.773,1.75,21.718,1.893Z" transform="translate(-13.008 -1.07)" fill="#fff"/>
                <path id="Path_515" data-name="Path 515" d="M14.749.6c-.067,0-.218.059-.269-.044C14.543.629,14.812.479,14.749.6Z" transform="translate(-8.753 -0.332)" fill="#fff"/>
                <path id="Path_516" data-name="Path 516" d="M11.705.535C11.666.527,11.65.507,11.6.527c-.071-.047.012-.1.079-.107Z" transform="translate(-6.994 -0.254)" fill="#fff"/>
                <path id="Path_517" data-name="Path 517" d="M.94,53.294.9,53.16l.083.02Z" transform="translate(-0.544 -32.133)" fill="#fff"/>
                <path id="Path_518" data-name="Path 518" d="M12.35,72.38c.138-.055.095.083.119.095C12.342,72.483,12.512,72.364,12.35,72.38Z" transform="translate(-7.465 -43.743)" fill="#fff"/>
                <path id="Path_519" data-name="Path 519" d="M26.064,71.034l-.044,0,.016-.178Z" transform="translate(-15.728 -42.832)" fill="#fff"/>
              </g>
            </g>
          </g>
        </g>
      </g>
      <g id="Group_726" data-name="Group 726" transform="translate(21.763 4.849)">
        <g id="Group_725" data-name="Group 725">
          <g id="Group_724" data-name="Group 724">
            <g id="Group_723" data-name="Group 723">
              <g id="Group_722" data-name="Group 722">
                <path id="Path_520" data-name="Path 520" d="M109.018,62.544c-.261,0,.111.174-.178.036C108.887,62.516,108.947,62.473,109.018,62.544Z" transform="translate(-87.553 -42.633)" fill="#fff"/>
                <path id="Path_521" data-name="Path 521" d="M64.268,20.8a3.964,3.964,0,0,1,1.97-.059,2.825,2.825,0,0,0,.593-.7c.063-.087.15.2.285-.012a2.446,2.446,0,0,1,.194-.336l.024-.032-.036,0a1.651,1.651,0,0,1-.692-.111,2.3,2.3,0,0,0-.352-.091c-.127-.012-.253-.02-.384-.032-.063,0-.131-.02-.194-.02l-.194.04c-.131.024-.261.051-.388.075-.261.051-.514.1-.752.146l.032-.091c-.214.044-.34.364-.55.431-.024-.04.032-.091-.04-.123,0,.075-.055.131-.142.166s-.2.091-.221.158c-.1-.02-.134-.127-.265-.138l-.055.2a.548.548,0,0,1-.506.352,2.447,2.447,0,0,0-.684.1c.024-.04.067-.067.032-.1a1.878,1.878,0,0,0-.585.253,2.43,2.43,0,0,0-.459.443c-.115.186-.229.372-.344.562-.131.178-.249.368-.38.542-.02-.063-.075-.154-.158-.158.095.138-.044.372-.19.554-.194-.059-.186.4-.483.487l0-.044c-.059.277-.309.083-.34.356l-.178-.051c.024.253-.32.02-.431.186l.024.044c-.138.1-.253.028-.388.095l-.02-.024a1.059,1.059,0,0,1-.4.079c-.095.008-.142.024-.131.119-.131-.138.336-.1.123-.3a2.693,2.693,0,0,1-1.384,0,3.433,3.433,0,0,1-.7-.253,1.9,1.9,0,0,1-.324-.194.375.375,0,0,1-.131-.332h0a2.2,2.2,0,0,1-.02-.645c.095-.134.127-.21.206-.221-.02-.115.063-.407.008-.534-.008.036.111-.04.142-.091.138-.162-.123-.281.044-.459.012.1.059.15.134.15a1.309,1.309,0,0,1,.119-.676c.012.047.008.1.063.123-.047-.3.233-.38.241-.617l.059.123c.281-.233-.15-.2.067-.419-.008.079.044.079.075.115-.032-.344.269-.692.376-.953a.056.056,0,0,0,.032.036,8.418,8.418,0,0,0,.534-.8c.115-.063.182.2.352-.071-.178-.134.289-.467-.02-.49.21-.186.577-.443.653-.621-.028.146.285.1.134.269l.214-.024c.047.083-.146.1-.028.142.075-.087.249-.38.344-.423a1.469,1.469,0,0,1,.249-.815c-.059.174.233.115.178.218l.059-.633c.075-.087.134.111.218-.044-.047-.04-.016-.111-.008-.182.047-.008.324-.356.5-.225.095.032-.111.158.036.131.158-.138.115-.206.273-.34l.02.02c.127-.063.261-.328.067-.328-.079.055.111.079-.04.119,0-.158.17-.344.336-.479-.036.075.008.115.02.182a2.489,2.489,0,0,1,.57-.783c-.055-.087.008.225-.063.21a1.48,1.48,0,0,0,.518-.368.728.728,0,0,1,.522-.273c-.043.044-.1-.115-.079-.091.194-.083.253.055.348-.055.051.075.138-.1.253-.186.044-.083.047.02-.055.083a2.16,2.16,0,0,1,.534-.336,1.859,1.859,0,0,1,.8-.19c-.024-.063.241-.257.352-.265l-.024.138c.107.067.356-.059.384.055.2-.194-.839.257-.554.087.091.1.392-.273.352-.079.206-.04.407-.2.617-.075-.059-.02-.162.19,0,.178.293-.028.083-.067.324-.115a1.151,1.151,0,0,1,.154-.047c.016-.131.265.04.162-.115.028.111.447-.028.388.19l-.063.166c.127,0,.229-.158.34-.214.012.02.04.059.032.087.063-.257.293.079.483-.095.245.138.653.182.728.368a.839.839,0,0,1,.617.079c-.051.008-.111,0-.142.044.111.123.166.067.3.071-.044.032.221.233.324.384.206,0,.2-.158.245-.233.063.309.566.055.676.352-.071.016-.3.012-.182.134.067.3.388-.059.605.158l.012-.225c.067.17.435.032.324.229.115-.04.281.186.332-.02.364.336,1.084.312,1.206.767.075-.008.214.087.221-.028-.059-.15-.174.024-.182-.067.055.016.091-.032.107-.059.115.1.214.154.024.265.249.237.435-.214.779.012-.047.075-.032.115.083.146l.261-.059c.229.127.067.237.02.38.138.028.3.095.4.012l.091.233c-.067-.17.138-.044.214-.055l-.075.012c0,.067.166.087.249.1.016-.091-.127-.186-.2-.241.091-.036.186.016.3-.024-.079.127.174.174.273.225.107.071.178-.075.21-.055-.024.071.19.083.059.146-.047.008-.067-.1-.158-.063.059.079.008.2.2.17.146-.024.063-.281.265-.115-.071.012-.1.063-.166.095l.194.146.051-.123c.02.044,0,.047,0,.067.111-.107.348.075.447-.059.115.024.2.166.3.214l-.024,0a.408.408,0,0,0,.431.071l-.016.024a1.391,1.391,0,0,0,.554.079c.119.087.059.2.024.285s-.028.111.083.182c.115.214.384.218.4.059a2.082,2.082,0,0,0,.174.384l.146.253a.824.824,0,0,1,.15.522c.067.024.087-.02.158.063.162.494.577.941.49,1.42-.107-.115-.127.04-.194.071.158.067-.059.182.146.146.107-.055.166-.067.154-.218a1.608,1.608,0,0,1,.309.89c.02-.1.079-.051.134,0-.186.051-.127.269,0,.4l.119-.02-.071.146c.059.047.253-.02.21.178a.245.245,0,0,0-.1.091c.15.131.392.3.368.514l-.1.206c.047.071.19.162.186.008.02.34.083.542-.016.688a3.592,3.592,0,0,1,1.032,1.772l-.087.012c-.016.194.174.032.158.166-.1-.024-.123.186-.265.095,0,.265.253.249.344.388.115-.016-.115-.1.032-.119.047.012.036.356.214.332-.044.083-.178.079-.257.071l.131.115c-.127.245-.487-.277-.649-.008l.075.123c-.123.186-.32-.277-.257.075.131.115.411.15.435,0,.154.281.435,0,.542.324-.063.123-.115-.249-.229-.138-.075.2.186.277.186.431.008-.174.218-.107.281-.02-.016.19-.194-.051-.123.186.107,0,.257.194.253-.016.241.008.028.265.237.328-.123.131-.431-.115-.415.166.131-.091.309.245.475.032,0,.115-.115.166-.229.127-.036.174.388.253.119.4l.182.016c-.032.063-.044.138-.1.241.044.127.344.336.119.4.036.032.131.324.245.158.032-.214-.186-.166-.012-.34-.127.186.115.249.21.332l-.079.047c.055.051.087.2.194.2a.081.081,0,0,0-.119.071l.154.016c.154.225-.21.142-.083.372l-.166-.15c.036.032-.055.158.028.261.134,0,.309.036.415.044.1.119-.115.111.059.2l-.206-.127c-.047-.012-.154.19-.087.372.083.1.32.222.32.016.036.091.008.245-.107.206.115.194.119-.071.257.079-.055.1-.087.372-.154.55l-.265-.119.044.127c-.218-.1-.095.127-.3.095,0,.095.1.178.17.245.182-.344.471.15.692-.012.186.316-.526.427-.012.645.044-.083.293.02.142-.17.024.111.1.127.166.146s.115.016.15.289c-.111-.154-.142-.04-.19.044s-.111.142-.257-.04c.047.008.036-.079.024-.115a.24.24,0,0,0-.063-.111c-.059.131-.261.051-.17.3.087.174.182.427.309.38.15-.024-.123-.3.075-.2.206.427-.02.475.332.672-.119-.273.02-.344.131-.344l.194.36-.134-.079c.115.546.261.194.431.763a1.673,1.673,0,0,1-.146.178c-.245-.19-.182-.748-.463-.716.095.309.3.471.324.755-.055-.083-.095-.178-.146-.257.016.055-.079.071-.127.134s-.055.158.162.451c.19.289.154.138.289.218.229.558.439.842.593,1.234-.083-.083-.111-.083-.115-.051,0,0,.008.024-.008.024l-.055-.016-.1-.024c-.131-.028-.214-.047-.162-.146a1.075,1.075,0,0,0,.15.063c.083.044.059-.008.051-.047a2.268,2.268,0,0,0-.1-.328,2.379,2.379,0,0,0-.419-.708c-.257-.012-.095-.368-.439-.621.123.364-.2.162-.388.087a1.145,1.145,0,0,0,.178.273c.214.174.17.055.372.178a2.657,2.657,0,0,0,.233.593c.032.055.059.111.087.162l.024.04-.016.008-.032.012a.18.18,0,0,0-.083.079c-.249-.115-.38-.289-.245-.277a8.679,8.679,0,0,1-1.456-.277c.443.32-.5-.032-.2.222.289.1.657.34.55.431-.206-.051-.051-.115-.162-.186-.087.051-.21-.024-.316-.087s-.2-.111-.289-.024c.257.008.249-.067.19-.166s-.162-.218-.158-.309c-.269.059-.032-.138-.312-.19a2.909,2.909,0,0,1-.467.055l-.134,0-.1.008c-.067,0-.134,0-.2,0-.289-.229-.811-.146-1.1-.19-.134-.119,0-.309-.15-.372-.19-.028.1.249-.162.1l.036-.036c-.095.032-.494-.233-.629.051l.127-.21c-.047-.028-.107.012-.154.028.012-.071-.04-.15.055-.182-.146-.186-.372-.04-.562-.067l.1.154c-.344.047-.538-.123-.858-.131l.032-.127-.2.044c.067-.119-.091-.229-.206-.142l.542-.233c.123.1-.174.131-.115.273a.288.288,0,0,0,.419.024c-.107-.036-.119-.008-.214.024,0-.186.162-.15.269-.257-.059,0-.134-.071-.154-.016a.642.642,0,0,1,.439-.032c-.142.047.051.123-.008.166.044-.154.233-.174.463-.087.134.214.463-.04.728.059a.952.952,0,0,1-.479.281c.158.111.19.028.348.142.1-.107.194-.277.431-.312l-.008.123c.214-.024.245-.2.494-.123.218.067.435.123.645.17.186.04.356.079.5.111l.012.123a.244.244,0,0,1,.281-.111c.107.012.237.047.281,0a.941.941,0,0,0,.439.091.489.489,0,0,1,.178.028l.055.02c.024.012.04.02.04.012a.1.1,0,0,1,.063.008,7.507,7.507,0,0,1-.676-1.511,1.511,1.511,0,0,0,.2.051c-.158-.059.067-.111,0-.225-.079.2-.237-.123-.368-.182a1.675,1.675,0,0,0-.5-1.017l.111-.051c-.32-.225-.261-.649-.356-1.032.032-.059.115-.166.063-.273-.257-.138-.281-.249-.5-.5a3.364,3.364,0,0,1-.166-.831,21.936,21.936,0,0,1-1.151-2.4l.111-.111c-.585-.712-.7-1.812-1.111-2.448l.253-.02c-.012-.245-.249-.475-.388-.356-.012-.245-.32-.5-.186-.708-.044-.237-.21-.229-.312-.4a2.843,2.843,0,0,0-.384-1.028l.028.107c.067.028.166-.008.138-.119-.123-.131-.174-.593-.376-.328-.028-.506-.554-.965-.53-1.475-.055.067-.119-.032-.186-.051a2.5,2.5,0,0,1-.111-.285l-.047-.146a.575.575,0,0,1-.032-.115c0-.059-.032-.131-.1-.1.008-.04.123-.1.075-.127-.047.016-.067.087-.119.119a.161.161,0,0,1-.063.016c-.008,0,0,0-.02,0l-.063-.02-.123-.044a4.3,4.3,0,0,1-.479-.214,5.493,5.493,0,0,0-.914-.419,23.2,23.2,0,0,1-3.172-1.108l.032-.047c-.411.075-.692-.518-1.076-.312-.059-.083-.285-.142-.19-.222-.3.047-.716-.423-1.147-.4.032.02.055.016.1.008a1.457,1.457,0,0,0-.526-.261,1.8,1.8,0,0,1-.538-.225c.047-.008.127,0,.154-.051-.115-.158-.431.107-.427-.186-.087-.02-.1.119-.047.123a4.391,4.391,0,0,0-2.575-.218c-.605-.083-.1-.463-.546-.186-.051-.044-.008.111-.024.055-.158.123-.364-.229-.455-.051.1.15-.059.111-.028.214-.384.04-.538-.1-.759.166l-.016-.091a1.635,1.635,0,0,1-.419.435.911.911,0,0,0-.332.463,15.887,15.887,0,0,0-2.3,2.069c-.364.368-.732.775-1.076,1.147a13.543,13.543,0,0,0-.914,1.139A9.105,9.105,0,0,0,56.9,21.167a5.964,5.964,0,0,0-.364.926,1.319,1.319,0,0,0-.047.19l-.024.083-.008.02c-.008.012,0,.024,0,.04l0,.012,0,.008.047.02.107.044.142.051c.3.3.372.3.736.194-.012.04-.036.051-.008.083,0-.1.063-.107.131-.119s.131-.036.127-.131a2.564,2.564,0,0,0,1.373-.926c-.055.091.02.245.1.138v-.182l.055.02c.04-.079.024-.221-.079-.19.115-.19.249-.348.364-.546l.265-.4a2.7,2.7,0,0,1,.253-.261c.063-.059.138-.127.225-.194a2.426,2.426,0,0,1,1.416-.542l.19,0,.079,0,.115.008a1.4,1.4,0,0,0,.186-.008,2.983,2.983,0,0,0,.574-.162l.415-.134a.619.619,0,0,1,.091-.024h.02l.044-.016.091-.04c.483-.214,1.013-.435,1.531-.633a.759.759,0,0,0,.115-.028l.17-.047c.059-.016.115-.036.178-.051a1.52,1.52,0,0,1,.19,0c.344,0,.293,0,.6,0a3.011,3.011,0,0,1,.7.123,3.353,3.353,0,0,0,.36.079c.02.012.032.024.032.032-.024.15-.051.261-.063.4a2.085,2.085,0,0,0-.02.3l.748,1.191c-.21.146-.419.289-.625.427l-.158.111-.245.2-.471.384-1.06-.131c-.229-.032-.459-.055-.688-.075a11.318,11.318,0,0,0-1.424-.024A.986.986,0,0,1,64.268,20.8Z" transform="translate(-55.021 -12.26)" fill="#fff"/>
                <path id="Path_522" data-name="Path 522" d="M110.065,62.68c.04.107.206.19.044.293C110.1,62.882,110.03,62.763,110.065,62.68Z" transform="translate(-88.288 -42.737)" fill="#fff"/>
                <path id="Path_523" data-name="Path 523" d="M122.163,67.4c0-.028.111.059.142.083-.087-.008-.162.063-.245,0C122.151,67.489,122.127,67.437,122.163,67.4Z" transform="translate(-95.544 -45.588)" fill="#fff"/>
                <path id="Path_524" data-name="Path 524" d="M126.318,68.41c.079.1-.281.107-.538.075C125.978,68.461,126.156,68.438,126.318,68.41Z" transform="translate(-97.792 -46.201)" fill="#fff"/>
                <path id="Path_525" data-name="Path 525" d="M129.23,66.775c.036-.119.1-.043.186.2C129.364,66.953,129.305,66.855,129.23,66.775Z" transform="translate(-99.878 -45.179)" fill="#fff"/>
                <path id="Path_526" data-name="Path 526" d="M128.408,65.771c-.055-.154-.016-.194.02-.245C128.337,65.487,128.618,65.926,128.408,65.771Z" transform="translate(-99.364 -44.456)" fill="#fff"/>
                <path id="Path_527" data-name="Path 527" d="M126,57.277c-.028-.055-.138-.154-.067-.237C125.895,57.123,126.136,57.281,126,57.277Z" transform="translate(-97.871 -39.328)" fill="#fff"/>
                <path id="Path_528" data-name="Path 528" d="M124.8,54.777c-.008-.036,0-.055-.036-.091.016-.079.1-.032.127.02Z" transform="translate(-97.176 -37.879)" fill="#fff"/>
                <path id="Path_529" data-name="Path 529" d="M92.84,15.5l.127,0-.047.071Z" transform="translate(-77.881 -14.218)" fill="#fff"/>
                <path id="Path_530" data-name="Path 530" d="M69.086,16.921c-.071.123-.119-.008-.146,0C69.031,16.834,68.972,17.028,69.086,16.921Z" transform="translate(-63.435 -15.062)" fill="#fff"/>
                <path id="Path_531" data-name="Path 531" d="M60.71,26.512l.02-.032.127.127Z" transform="translate(-58.46 -20.855)" fill="#fff"/>
              </g>
            </g>
          </g>
        </g>
      </g>
      <g id="Group_731" data-name="Group 731" transform="translate(41.373 1.574)">
        <g id="Group_730" data-name="Group 730">
          <g id="Group_729" data-name="Group 729">
            <g id="Group_728" data-name="Group 728">
              <g id="Group_727" data-name="Group 727">
                <path id="Path_532" data-name="Path 532" d="M150.99,6.218c.293-.044-.158-.15.19-.071C151.14,6.218,151.085,6.273,150.99,6.218Z" transform="translate(-132.641 -5.272)" fill="#fff"/>
                <path id="Path_533" data-name="Path 533" d="M123.9,5.08a.706.706,0,0,1,.51.475,2.141,2.141,0,0,1,.055.815,5.6,5.6,0,0,0,.079,1.653c.02.123-.249-.032-.19.245a7.993,7.993,0,0,1-.131,3.821l-.071-.075c-.051.233.182.518.15.767-.047,0-.067-.079-.131-.024.138.063.063.447.17.554-.055.1-.166.087-.225.214l.158.142c.38.4-.028.957.17,1.5-.036-.028-.067-.079-.1-.036a18.8,18.8,0,0,1,.273,2.907c-.055-.04-.158-.075-.222-.016.166.047.21.344.245.605-.174.115.158.443.063.748l-.04-.028c.182.225-.1.332.111.514l-.135.142c.245.1-.127.324,0,.51l.051-.008c.059.174-.063.265-.024.427l-.028.016c.063.38-.071.6.119.589-.15.134-.067-.368-.289-.158a25.329,25.329,0,0,1,.162,3.793c-.075.142-.1.233-.17.265.04.127.036.475.131.585,0-.044-.1.083-.107.146-.071.229.21.249.123.5-.051-.1-.111-.134-.182-.1a1.923,1.923,0,0,1,.174.755c-.032-.04-.051-.1-.111-.091.166.277-.036.506.071.748l-.111-.091c-.134.392.229.115.15.455-.036-.083-.079-.051-.123-.067a3.494,3.494,0,0,1,.2,1.139.051.051,0,0,0-.044-.016c.012.17,0,.348,0,.526s.012.368.012.589c-.091.134-.229-.095-.316.249.1.04.059.2-.012.328s-.138.233.044.229a1.683,1.683,0,0,1-.577.312c-.214.067-.415.087-.53.131.142-.091-.17-.257.087-.3a1.289,1.289,0,0,1-.19-.119c.024-.091.182.02.119-.087a2.3,2.3,0,0,1-.6.067,1.85,1.85,0,0,1-.846.415c.182-.087-.1-.241.02-.281l-.538.423c-.131.012-.028-.174-.214-.115.008.059-.071.095-.127.142-.047-.024-.534.055-.589-.162-.055-.087.21-.047.067-.123-.237,0-.249.075-.487.079l0-.028c-.158-.032-.463.091-.293.214.111.008-.04-.131.119-.067a.92.92,0,0,1-.625.162c.079-.036.071-.091.1-.154a3.546,3.546,0,0,1-1.017.3c0,.1.134-.186.186-.134-.459-.142-.945.2-1.325-.008.063-.02.036.146.028.119-.222-.012-.21-.162-.352-.107-.016-.087-.182.028-.328.055-.075.063-.04-.043.091-.051a3.369,3.369,0,0,1-.653.119,4.22,4.22,0,0,1-.447.016,2.21,2.21,0,0,1-.467-.059c0,.028-.107.079-.253.095a.809.809,0,0,1-.388-.051c.04-.032.075-.063.115-.1-.107-.119-.487-.265-.419-.372-.083-.016-.067.016.008.067a1.52,1.52,0,0,0,.368.178c.293.1.581.075.352.107-.044-.067-.2-.055-.336-.075s-.249-.044-.158-.095c-.142-.079-.281-.138-.4-.214a.543.543,0,0,1-.257-.312c.036.075.281.036.138-.115-.245-.273-.119-.036-.328-.261-.051-.051-.111-.107-.162-.166-.055.02-.123-.067-.131-.15s-.032-.134-.079-.028c.024-.024.02-.075,0-.15s-.028-.1-.04-.15c-.028-.1-.04-.19.071-.2h.178c-.044-.127-.229-.166-.324-.245.012-.02.036-.063.067-.063-.257.047-.063-.312-.3-.407.012-.293-.182-.68-.067-.854a1.085,1.085,0,0,1-.3-.6c.04.04.063.1.123.1.028-.17-.047-.186-.131-.309.047.02.055-.34.091-.534-.142-.182-.253-.067-.344-.063.186-.265-.344-.526-.2-.835.055.059.218.261.225.067.186-.269-.3-.316-.289-.657l-.182.142c.083-.178-.265-.4-.047-.443-.107-.075-.051-.38-.241-.277.008-.554-.51-1.167-.257-1.59-.059-.059-.083-.249-.174-.174-.071.154.134.138.075.206a.112.112,0,0,0-.119-.055c-.008-.17-.036-.3.182-.206,0-.384-.459-.233-.534-.7.091-.008.111-.051.051-.174l-.225-.19c-.067-.293.131-.225.269-.281-.075-.142-.134-.328-.261-.36l.111-.245c-.079.178-.127-.095-.186-.15l.059.059c.047-.047-.051-.21-.1-.289-.079.051-.051.241-.04.344-.087-.055-.119-.178-.225-.253.15-.016.008-.277-.02-.4-.02-.146-.178-.111-.186-.15.071-.028-.067-.225.067-.154.04.04-.032.131.059.186.02-.111.146-.142-.012-.3-.119-.115-.257.134-.265-.162.059.059.119.051.186.087l-.02-.277-.127.036c.02-.044.04-.028.047-.047-.158-.028-.178-.368-.348-.368-.059-.123-.012-.3-.043-.419l.02.02a.525.525,0,0,0-.229-.443l.028,0a.684.684,0,0,0-.218-.336c.02-.237.443-.241.206-.407-.083-.2-.348-.237-.4-.123-.055-.4-.415-.74-.352-1.151-.071-.036-.087.012-.158-.087-.158-.558-.585-1.076-.51-1.6.111.134.127-.04.2-.067-.158-.087.055-.2-.154-.17-.107.055-.166.063-.15.233a2.084,2.084,0,0,1-.348-1c-.016.111-.079.055-.138,0,.186-.047.119-.293-.016-.447l-.119.02.063-.162c-.063-.055-.257.016-.225-.2a.219.219,0,0,0,.091-.1c-.162-.146-.419-.34-.411-.577l.087-.229c-.051-.079-.206-.178-.19-.012-.051-.376-.134-.593-.044-.759a3.228,3.228,0,0,1-.736-.854c-.1-.162-.19-.348-.289-.5-.091-.17-.182-.332-.269-.49l.1-.012c-.1-.312-.233-.079-.281-.32.115.067.083-.285.269-.087a1.128,1.128,0,0,0-.174-.451.979.979,0,0,1-.182-.376c-.119-.051.087.245-.059.186-.055-.063.067-.641-.1-.763.107-.087.182.032.265.115,0-.024-.016-.051-.02-.075l.02-.059.043-.123c.2-.087.162.1.154.257.095.206.2.36.324.249l-.016-.1c-.008-.036-.012-.067.012-.091.158-.032.083.063.15.162.04.091.051.131.095-.059.036-.142-.067-.411-.269-.3.257-.364-.182-.411.214-.8.036,0,.044.012.032.036a.51.51,0,0,1-.079.107c-.083.1-.166.206-.067.206.3-.123.237-.293.439-.49a.342.342,0,0,1,.067-.028.348.348,0,0,1-.079.016c-.083.028-.111-.032-.091-.119a.418.418,0,0,1,.15-.178c.316-.051-.063.174.257.075a.132.132,0,0,0,.047-.02.471.471,0,0,1,.154-.245c.028-.024.047-.036.032-.055s-.067-.036-.17-.012a.2.2,0,0,1,.083-.111.285.285,0,0,1,.142,0c-.012-.012-.055-.032-.044-.032l.04,0a.487.487,0,0,0,.079-.008.161.161,0,0,0,.127-.107c.138.119-.154.443.166.415-.1-.131.3-.324.067-.483.131,0,.182.111.127.229.2.032.316-.4.471-.134l.008-.166c.067.032.158.044.269.095.146-.047.415-.352.471-.123.04-.04.384-.131.206-.245-.241-.032-.21.186-.392.012.2.127.3-.115.407-.21l.047.083c.063-.055.237-.091.257-.194-.044.067,0,.119.071.123l.04-.154c.281-.15.138.218.415.095l-.19.166c.043-.036.174.063.3-.02.02-.138.083-.312.1-.419.15-.1.111.119.237-.051l-.174.2c-.02.047.2.162.415.107.127-.079.3-.309.063-.32.111-.032.285.008.218.119.237-.107-.067-.123.131-.253.107.059.411.107.605.194l-.178.257.15-.032c-.154.21.127.107.059.3a.543.543,0,0,0,.3-.15c-.36-.214.245-.459.107-.7.4-.162.388.562.732.075-.083-.051.079-.289-.166-.162.261-.024.123-.293.447-.245-.206.15.293.214,0,.431,0-.091-.194-.028-.237,0,.127.079.032.261.293.21.154-.055.372-.1.313-.233-.036-.146-.241.063-.166-.107.309-.115.4.1.487-.186a.213.213,0,0,1-.293-.186l.225-.107-.028.107c.392,0,.079-.2.451-.233l.206.166c-.059.182-.546.016-.431.277.237-.028.293-.182.53-.146-.047.032-.115.051-.158.083.087,0,.233.34.534.075.162-.111.032-.107.02-.206.376-.1.475-.21.72-.261-.024.206.439-.04.194.2a.774.774,0,0,0-.8.2c.174.214-.3.016-.348.269.3-.047.328.19.4.332.087,0,.158-.083.2-.115.012-.15-.095-.131-.127-.277a1.3,1.3,0,0,0,.831-.3.122.122,0,0,1-.024.237,4.825,4.825,0,0,1,1.222-.134c-.277-.21.423-.1.233-.281-.214-.032-.411-.178-.309-.3.131,0,.008.1.067.146.15-.146.281.178.419-.044-.364.115-.04.3-.091.487.257-.134,0,.131.265.1a3.53,3.53,0,0,1,.866-.312c.388.146.941-.071,1.278-.1.182.079.075.3.265.324.221-.016-.178-.218.154-.138l-.028.044c.095-.055.605.115.688-.19l-.091.233c.063.016.115-.036.166-.063,0,.075.079.138-.016.19.21.146.423-.044.641-.063l-.146-.127c.372-.127.629.008.993-.047l-.008.131.214-.083c-.051.127.15.206.261.1l-.554.332c-.158-.075.166-.162.067-.289-.087-.111-.423-.071-.471.055.131.012.134-.016.233-.067.047.182-.146.178-.241.3.067-.008.162.047.178-.012a.84.84,0,0,1-.479.119c.146-.079-.083-.111-.032-.166-.012.162-.218.221-.49.19-.2-.178-.5.142-.819.107a1.039,1.039,0,0,1,.463-.384c-.2-.071-.221.016-.423-.059-.087.127-.146.312-.4.4l-.02-.119c-.229.079-.218.257-.514.245a11.986,11.986,0,0,0-1.416.047l-.028-.119c-.19.281-.7.17-.977.316-.506-.059-1.044.257-1.321.083-.831.2-1.562.415-2.448.55l.115-.2c-.134.158-.123-.079-.273-.024.206.1-.178.222-.265.348a2.069,2.069,0,0,0-1.2.411l-.044-.115c-.293.309-.755.21-1.191.3a.34.34,0,0,0-.3-.075c-.182.249-.3.273-.609.49a4.434,4.434,0,0,1-.93.162,4.1,4.1,0,0,1-.439.257l-.229.111-.115.051-.059.024-.028.012-.075.028c-.036.02-.063.032-.1.047s-.059.036-.083.063l-.166.178-.1.115c-.091.063-.028.19.02.269-.047.012-.095.024-.142.04a1.386,1.386,0,0,0,.142.131c.024.028.04.016.079.063l.119.178a5.093,5.093,0,0,1,.4.752,11,11,0,0,0,.657,1.361l-.257.032c.04.277.3.538.435.407.036.277.368.574.249.811.063.269.233.269.348.467a3.912,3.912,0,0,0,.451,1.191l-.032-.127c-.071-.032-.166,0-.135.127.135.154.2.684.4.4.043.574.6,1.151.574,1.732.059-.071.119.051.19.083a4.932,4.932,0,0,0,.467,1.3c-.012.087-.166-.067-.107.119.067.1.1-.032.19.087a14.726,14.726,0,0,1,.684,2.2,32.668,32.668,0,0,1,1.361,3.552l-.059,0c.344.312.095.977.51,1.179-.024.111.091.356-.036.324.253.257.146.906.479,1.293a.18.18,0,0,0-.067-.1c.024.49.32.835.356,1.353-.04-.04-.083-.127-.142-.123-.051.218.368.368.131.55a.067.067,0,1,0,.131-.028,13.624,13.624,0,0,0,.471,1.645l.138.427c.032.1.028.071.044.1a.249.249,0,0,0,.043.047c.008,0,.043.047.075.079s.063.063.095.091a.9.9,0,0,0,.186.138.418.418,0,0,1-.008.309c-.032.059-.044.095.119.02.016.055.028-.107.024-.047.036-.016.028-.008.083.016a.662.662,0,0,1,.138.095c.087.071.166.131.249.055-.071-.17.115-.095.119-.2.494.111.6.265.989.134l-.028.091c.459-.253.989-.119,1.376-.411,1.266-.028,2.5-.079,3.734-.134l.922-.04.447-.02c.059,0,.063-.02.071-.024a.069.069,0,0,0,.02-.047c0-.008,0-.012,0-.02l0-.245c.055-2.44-.075-4.826.079-7.3a1.659,1.659,0,0,0,.134-1.262c.04.024.047.067.083.024-.194-.032-.02-.447-.206-.51.036-.918-.016-1.76-.02-2.7.02.15.178.225.166.047l-.127-.174.055-.032c-.028-.123-.127-.253-.186-.127-.17-2.365.222-4.7.174-7.013a10.217,10.217,0,0,0-.032-1.93c.131-.886.245-1.728.309-2.575l.02-.316.008-.15a.582.582,0,0,0,0-.083.472.472,0,0,0-.071-.249.41.41,0,0,0-.2-.154.551.551,0,0,0-.281,0,.682.682,0,0,1,.134-.257A.478.478,0,0,1,123.9,5.08Z" transform="translate(-104.6 -3.98)" fill="#fff"/>
                <path id="Path_534" data-name="Path 534" d="M149.844,6c-.063-.095-.269-.146-.107-.281C149.757,5.815,149.863,5.914,149.844,6Z" transform="translate(-131.847 -5.032)" fill="#fff"/>
                <path id="Path_535" data-name="Path 535" d="M135.873,4.514c0,.028-.083-.032-.1-.044.067-.016.123-.1.182-.059C135.885,4.427,135.9,4.471,135.873,4.514Z" transform="translate(-123.441 -4.234)" fill="#fff"/>
                <path id="Path_536" data-name="Path 536" d="M132.43,4.613c.008-.087.3-.2.483-.233Z" transform="translate(-121.422 -4.222)" fill="#fff"/>
                <path id="Path_537" data-name="Path 537" d="M128.838,4.373c-.127-.051-.1-.1.055-.123C128.909,4.294,128.866,4.325,128.838,4.373Z" transform="translate(-119.203 -4.143)" fill="#fff"/>
                <path id="Path_538" data-name="Path 538" d="M128.443,4.989a.29.29,0,0,1-.233-.059C128.23,5,128.459,4.838,128.443,4.989Z" transform="translate(-118.871 -4.549)" fill="#fff"/>
                <path id="Path_539" data-name="Path 539" d="M121.035,5.785c-.067.024-.2.127-.285.047C120.833,5.879,121.059,5.65,121.035,5.785Z" transform="translate(-114.362 -5.045)" fill="#fff"/>
                <path id="Path_540" data-name="Path 540" d="M117.982,6.825c-.044,0-.067-.008-.107.032-.087-.02-.024-.1.044-.127Z" transform="translate(-112.599 -5.642)" fill="#fff"/>
                <path id="Path_541" data-name="Path 541" d="M122.537,59.507l-.087-.123.091,0Z" transform="translate(-115.39 -37.467)" fill="#fff"/>
                <path id="Path_542" data-name="Path 542" d="M141.04,75.18c.142-.055.1.083.123.095C141.036,75.283,141.21,75.164,141.04,75.18Z" transform="translate(-126.627 -47.01)" fill="#fff"/>
                <path id="Path_543" data-name="Path 543" d="M154.85,71.734l-.016.047-.154-.091Z" transform="translate(-134.872 -44.908)" fill="#fff"/>
              </g>
            </g>
          </g>
        </g>
      </g>
      <g id="Group_736" data-name="Group 736" transform="translate(10.375 7.31)">
        <g id="Group_735" data-name="Group 735">
          <g id="Group_734" data-name="Group 734">
            <g id="Group_733" data-name="Group 733">
              <g id="Group_732" data-name="Group 732">
                <path id="Path_544" data-name="Path 544" d="M74.9,35.842c-.463-.316.142.309-.328-.174A.338.338,0,0,1,74.9,35.842Z" transform="translate(-55.45 -28.869)" fill="#fff"/>
                <path id="Path_545" data-name="Path 545" d="M38.555,19.639a11.723,11.723,0,0,1-3.018.055c-.534-.036-1.068-.079-1.6-.1a10.478,10.478,0,0,0-1.511.028c-.1,0-.127-.059-.182-.119a.273.273,0,0,0-.131-.079A.736.736,0,0,0,32,19.4c-.02,0-.059-.012-.071.008s-.008.063-.012.1a14.355,14.355,0,0,1-.19,1.713c-.1.581-.241,1.195-.4,1.816a35.054,35.054,0,0,1-1.191,3.607l-.036-.154c-.158.415-.071,1-.225,1.448-.047-.008-.024-.162-.115-.075.107.15-.158.839-.111,1.056-.1.166-.2.119-.324.332l.083.3c.166.823-.518,1.74-.625,2.777-.02-.059-.02-.162-.079-.095a16.693,16.693,0,0,1-.364,1.689c-.154.585-.348,1.195-.514,1.732.233.221.435.423.668.661s.459.463.68.684c-.091-.016-.214,0-.186.127.186-.047.6.34.965.661.016.138.194.257.415.388.107.059.225.127.348.194a1.042,1.042,0,0,1,.194.131,1.419,1.419,0,0,1,.154.154H31c.443.134.419.487.823.538l.123.277c.3-.071.4.487.748.617l.02-.044c.3.162.352.368.617.526l0,.04c.6.4.846.767.949.609.1.277-.589-.38-.415.04,1.978,1.329,3.888,2.852,5.8,4.284.17.225.3.348.3.439a6.879,6.879,0,0,0,.973.562c-.067-.044.067.17.162.253.3.316.506.115.839.467-.182-.071-.269-.059-.261.032a6.514,6.514,0,0,1,1.254.712c-.083-.02-.186-.071-.206-.012.534.17.728.629,1.143.85l-.2-.032c.467.593.316-.024.748.455-.138-.075-.127-.008-.178.008a6.365,6.365,0,0,1,.933.558,1.464,1.464,0,0,0,.9.34.044.044,0,0,0-.024.047c.261-.044.633-.127.906-.2a2.914,2.914,0,0,0,.819-.332.606.606,0,0,1,.3.04c.1.016.241.024.479-.218a.094.094,0,0,1-.063-.055c-.012-.028-.012-.071-.028-.123-.02-.119-.174-.186-.269-.257-.2-.162-.348-.265-.4-.142-.063-.075-.138-.166-.214-.257-.131-.158-.269-.32-.431-.49a3.509,3.509,0,0,0-.471-.431c.245.127-.012-.392.348-.059l-.166-.356c.1-.024.249.289.245.127a10.7,10.7,0,0,1-.878-.791,5.272,5.272,0,0,1-1.428-.842c.3.182.032-.312.225-.17l-1.024-.427c-.178-.158.079-.178-.2-.348-.028.055-.154-.008-.265-.032-.04-.063-.854-.562-.8-.823-.032-.134.348.229.182-.008l-.38-.3a1.411,1.411,0,0,1-.154-.154.62.62,0,0,1-.146-.328l.028-.016a.553.553,0,0,1,.107-.356c.075-.111.131-.17.186-.241.1-.131.154-.225-.055-.162-.21.154.146.036-.174.233a.993.993,0,0,1,.455-.463,1.549,1.549,0,0,1,.9-.166c-.214.016-.186.079-.265.142a1.547,1.547,0,0,1,1.365.352l-.028-.028c.225.154.455.316.692.479.075-.071-.312-.024-.352-.131.566.676,1.491,1.02,1.9,1.649-.1-.063.047-.154.036-.127.309.285.2.384.439.522-.036.083.277.2.506.368.15.047.028.079-.162-.071a12.351,12.351,0,0,1,2.219,1.808c.024-.051.467.158.661.3l.043.04c.012.008.02.012.024.02a.87.87,0,0,1-.1.059l-.036-.032-.024.008s0,.008.008.012l.036.032a.246.246,0,0,0,.138.142c.051.028.1.04.107.1.071-.04.024-.047-.04-.055a.6.6,0,0,1-.281-.111l-.028-.028c-.3-.21-.55-.384-.3-.249.02.083.166.166.312.237l.028.028c.131.059.218.024.142.1.091.047.17.024.3,0a1.42,1.42,0,0,1,.55-.02c-.119-.012-.332.225.016.178a.786.786,0,0,0,.115-.016c.206-.1.032-.059.257-.225a1.024,1.024,0,0,0,.127-.166c-.071-.1.194-.2.008-.2.055.02.1-.079.138-.166s.079-.166.2-.154a1.221,1.221,0,0,1,.17.055.2.2,0,0,0-.044-.2c-.012-.028-.067-.04-.119-.051a1.339,1.339,0,0,0-.134-.032c.008-.016.016-.055.047-.063-.146.044-.186-.008-.237-.075l-.044-.055-.028-.028-.051-.051a.565.565,0,0,0-.241-.134c-.316-.447-.961-.973-1.024-1.27a3.81,3.81,0,0,1-.977-.811c.083.047.182.134.241.115-.154-.265-.257-.265-.479-.427a5.476,5.476,0,0,0-.475-.827c-.348-.233-.348-.036-.439,0-.083-.451-.941-.7-1.1-1.2.127.075.514.332.32.047-.083-.451-.672-.4-1.013-.918l-.047.257a1.124,1.124,0,0,0-.372-.4c-.15-.119-.269-.237-.162-.285a1.232,1.232,0,0,1-.352-.435c-.115-.194-.182-.431-.269-.332a1.369,1.369,0,0,1,.134-.874,1.812,1.812,0,0,1,.439-.534,2.049,2.049,0,0,1,1.163-.518,1.768,1.768,0,0,1,1.139.281,1.445,1.445,0,0,1,.344.328.535.535,0,0,1,.083.15.842.842,0,0,1,.044.131c.127.075.352.352.376.225-.083-.249-.293-.174-.3-.293a.169.169,0,0,0,.186.055c.186.253.348.435.016.352.4.577.755.249,1.317.926-.091.032-.067.1.127.277l.451.237c.376.423.087.368-.008.483.233.2.49.463.664.483l.131.392c-.095-.285.237.115.364.19l-.127-.075c0,.083.269.3.407.415.036-.095-.19-.372-.309-.53.154.063.316.245.514.336-.15.055.277.423.435.6.174.218.312.127.364.19-.047.059.309.328.083.249-.083-.051-.1-.206-.257-.269.091.17-.02.245.316.447.253.15.15-.253.467.194-.127-.075-.186-.051-.3-.095l.3.411.107-.079c.024.071-.016.047-.008.083.206.008.577.514.767.487a1.736,1.736,0,0,1,.249.309c.04.055.075.111.111.166l.095.131L55.46,45a.22.22,0,0,0,.178.17.377.377,0,0,0,.245-.055l-.012.028a1.078,1.078,0,0,0,.6-.111.294.294,0,0,1,.182.091c.028.044.047.095.071.138.04.083.1.134.214.02a.253.253,0,0,0,.087-.04.271.271,0,0,0,.028-.265.161.161,0,0,0-.127-.111A.4.4,0,0,0,57,44.776c.04-.063.087-.15.127-.229a1.877,1.877,0,0,0,.131-.312.8.8,0,0,1,.044-.1l.024-.051c.012-.016.02-.036,0-.047a.422.422,0,0,1-.075-.2c-.079,0-.091.032-.17-.008a15.7,15.7,0,0,1-2.124-2.357c.261.19.111-.075.158-.134-.269-.107-.131-.312-.34-.241-.067.1-.127.123.051.38a7.489,7.489,0,0,1-1.365-1.487c.087.17-.036.095-.162.016.17-.1-.146-.467-.447-.684l-.119.044L52.66,39.1c-.123-.075-.281.059-.455-.281a.216.216,0,0,0,.016-.162,3.019,3.019,0,0,1-1.028-.842l-.111-.36c-.134-.115-.411-.253-.233,0-.051-.071-.1-.134-.142-.2a.536.536,0,0,0-.067-.095,1.752,1.752,0,0,0-.214-.2,1.89,1.89,0,0,1-.479-.5l-.075-.055c-.024-.024-.051-.055-.079-.087s-.047-.063-.071-.1a.919.919,0,0,1-.063-.142.936.936,0,0,1-.008-.6,1.707,1.707,0,0,1,.324-.558,2.193,2.193,0,0,1,.8-.609,2.163,2.163,0,0,1,1.175-.178,2.041,2.041,0,0,1,1.139.538c.431.384.823.755,1.195,1.115l-.091.036c.218.316.245.024.4.245-.146-.024.087.328-.2.2.332.435.609.364.894.577.119-.047-.257-.138-.107-.2.071.012.483.574.665.506.051.142-.111.162-.214.162l.3.166c.154.423-.918-.364-.779.1l.241.19c.087.328-.728-.4-.214.166.3.166.676.174.514-.083.534.435.514-.083,1.044.435.079.214-.451-.388-.443-.186.158.34.566.423.755.668-.206-.285.127-.21.309-.083.218.316-.289-.047.087.328.131-.012.542.269.281-.071.3-.032.364.427.692.494.02.233-.653-.107-.277.352.036-.174.668.344.6-.036.138.19.071.293-.115.249.174.293.771.34.645.637l.19-.036c.04.107.123.237.186.411.21.2.827.483.645.637.083.047.558.506.487.21-.233-.352-.427-.237-.443-.554.087.328.447.388.661.506l-.036.095c.067.016.075.047.127-.04a.223.223,0,0,0-.044.146.769.769,0,0,0,.059-.142c.047-.079-.008.281.107.194a.43.43,0,0,1-.1.15c.02-.024.107.095.186,0a1.159,1.159,0,0,0-.036-.21,1.386,1.386,0,0,1,.063-.245c.047-.036.032-.028.036-.032a.012.012,0,0,1,.008,0l.028.028c.02.02.04.024,0-.032a.3.3,0,0,1,.04.079.224.224,0,0,1,.012.071.154.154,0,0,0,.111.083.144.144,0,0,0,.162-.083.3.3,0,0,0-.055-.233.1.1,0,0,0-.166,0c.032-.071.115-.178.2-.095-.024-.21-.131,0-.206-.154A.4.4,0,0,0,61.6,41.2a1.6,1.6,0,0,0,.024-.4,1.847,1.847,0,0,1,.324.2,2.048,2.048,0,0,0-.083-.206c.281.214.051-.2.289-.111a.692.692,0,0,0-.138-.237,2.368,2.368,0,0,0-.214-.194c.024.293-.138.225-.316.138-.194-.095-.407-.214-.463-.075-.518-.487.178-.771-.661-1.06.04.138-.36.012.024.3-.309-.356-.4-.044-.724-.51.372.214-.131-.5.407-.194-.091.032.194.281.273.332-.067-.21.222-.158-.131-.5-.229-.194-.53-.475-.581-.332-.095.119.34.3.1.281-.467-.372-.384-.609-.748-.581.293.241.249.419.174.49l-.36-.253.131-.016c-.467-.53-.273-.008-.755-.487l-.1-.36c.233-.016.684.724.779.439-.32-.309-.522-.3-.787-.637.087.044.186.127.269.17-.111-.115.016-.494-.605-.755-.3-.154-.131.016-.206.087-.558-.447-.791-.51-1.151-.8.206-.091-.609-.546-.083-.372a2.662,2.662,0,0,0,1.21.937c-.04-.352.4.4.676.32-.427-.388-.249-.546-.218-.724a1.33,1.33,0,0,0-.36-.214c-.146.063.012.2-.075.32a4.01,4.01,0,0,0-1.341-.918c-.119-.194.028-.261.233-.107-.609-.467-1.226-1.009-1.756-1.507.21.483-.661-.475-.538-.119.265.289.415.633.182.577-.178-.166.071-.075.028-.178-.32-.1-.237-.467-.605-.506.585.388.289-.134.506-.2-.455-.241.1-.087-.285-.407a14.03,14.03,0,0,1-1.444-.894,10.328,10.328,0,0,0-1.875-1.515c-.2-.281.107-.3-.15-.554-.328-.257.1.372-.324-.091l.071,0c-.178-.079-.8-.823-1.131-.7l.293-.059a.746.746,0,0,0-.285-.154c.044-.059-.02-.2.158-.119-.2-.36-.645-.483-.973-.736l.127.273c-.625-.36-.914-.763-1.483-1.155l.1-.091-.372-.194c.158-.04-.087-.336-.32-.388l1.036.411c.182.245-.352-.075-.289.142a1.178,1.178,0,0,0,.736.522,1.031,1.031,0,0,0-.388-.229c.051-.194.336.044.558.059-.1-.075-.214-.229-.269-.2a2.782,2.782,0,0,1,.791.49c-.265-.123.051.186-.067.158.127-.107.471.1.846.463.174.376.835.514,1.27.93a2.367,2.367,0,0,1-.941-.293c.241.3.332.257.574.558a1.482,1.482,0,0,1,.866.206L51,29.8c.384.233.5.091.918.475.72.657,1.5,1.289,2.057,1.772l-.055.111c.483.063,1.123.8,1.622,1.072.653.7,1.645,1.238,1.879,1.713a31.187,31.187,0,0,1,3.7,3.192l-.332-.083c.312.131.075.21.3.411-.146-.348.431.174.657.269a12.165,12.165,0,0,0,.823,1.032,4.8,4.8,0,0,1,.431.6,2.869,2.869,0,0,1,.3.653l-.115.055a1.561,1.561,0,0,1,.032,1.076,2.124,2.124,0,0,1-.261.542,2.092,2.092,0,0,1-.447.487l-.225.1-.158.075-.194.1c-.071.036-.146.075-.218.107-.146.008-.352,0-.672.04a.852.852,0,0,1-.8-.087,4.12,4.12,0,0,1-.4-.285c-.131-.1-.233-.162-.384-.261a14.644,14.644,0,0,1-1.238-1.329c-1.554-1.084-2.832-2.52-4.367-3.734l0-.2a16.1,16.1,0,0,1-2.005-1.677.43.43,0,0,0-.261-.127.483.483,0,0,0-.15.012.565.565,0,0,0-.186.071.74.74,0,0,0-.166.119.236.236,0,0,0-.032.032s0,.012-.016.008a1.311,1.311,0,0,0-.487-.293c-.067-.024-.087.024.051-.063a1.565,1.565,0,0,0,.214-.206c.024-.028.024-.036.063-.079l.087-.1h0c.083.04.166.075.241.115-.083.044-.174.087-.249.134.182.146.5.3.748.479.032.02.063.04.091.059s.044.024.063.032a.354.354,0,0,0,.1.036c.059.012.1,0,.111-.059.3.419.961.831,1.044,1.2.328.4.518.38.842.668a14.23,14.23,0,0,0,1.645,1.748l-.158-.186c-.115-.04-.194.024-.036.21.3.218.882,1.013.839.55a9,9,0,0,0,1.187,1.27c.221.21.439.419.633.633.1.111.182.2.289.336.154.182.3.36.419.526-.028-.146.293.17.487.293l.178.186c.024.032.071.059.075.095l-.059.115-.245.467c-.162.3-.32.6-.483.894-.119.2-.237.392-.348.581a4.588,4.588,0,0,1-.546.708c-.222.075-.423.158-.633.225-.257.016.344-.214-.273-.087-.281.079,0,.107-.324.2a3.655,3.655,0,0,1-.7.067c-.059,0-.123,0-.19,0s-.162-.016-.245-.024a2.344,2.344,0,0,1-.49-.123,1.624,1.624,0,0,1-.435-.245,2.437,2.437,0,0,1-.182-.17l-.15-.162-.368-.415c-.483-.558-.945-1.108-1.436-1.574-.9-.8-1.784-1.649-2.642-2.5-.427-.431-.854-.858-1.274-1.278-.21-.21-.419-.419-.625-.629l-.15-.146c-.02-.016-.036-.032-.051-.044a.3.3,0,0,0-.095-.047l.024-.051c-.123.079-.174.024-.32.071a.426.426,0,0,0-.095.051s0,0,0,0c-.02-.016-.107-.063-.127-.079a.514.514,0,0,0-.115-.055c-.032-.012-.044-.02-.071-.028-.071-.024-.087,0,.036-.024L47,39.381c.04-.012.055-.024.111-.044.1-.032.21-.115.206-.1-.079.016.261.344.1.332.514.3,1.1,1.313,1.863,1.792a.57.57,0,0,0-.178-.134c.542.724,1.226,1.159,1.812,1.906-.087-.051-.221-.162-.281-.138.178.336.783.439.728.779.15.146.206.008.107-.079.293.324.6.649.918.965.158.158.32.316.483.475.218.21.439.423.657.637.142.131.253.269.38.4l.186.206.024.028-.012.032-.02.067-.044.131a8.479,8.479,0,0,1-.384,1.056,2.747,2.747,0,0,1-.688.918,2.621,2.621,0,0,1-.447.3,4.461,4.461,0,0,1-.546.237,4.06,4.06,0,0,0-.577.063,2.655,2.655,0,0,1-.752.02,1.777,1.777,0,0,1-.819-.4,1.025,1.025,0,0,1-.241-.3l.044.044c-.095-.269.384-.016-.388-.479-.04-.107-.123.036-.1-.02-.407-.249-.352-.716-.7-.819-.012.218-.225-.071-.3,0-.641-.7-.684-.941-1.333-1.329l.1-.032c-.827-.376-1.5-1.139-2.255-1.4-.312-.261-.625-.526-.926-.775l-.055-.051a.28.28,0,0,0-.265-.079.357.357,0,0,0-.115.067c-.012.008-.02.024-.032.032l0,0-.384-.384v0l0,0-.008-.012c-.012-.012-.024-.028-.036-.04a.315.315,0,0,0-.091-.051c.008-.008-.051-.008.036-.008a.116.116,0,0,0,.036-.008l.016-.008.044-.008a.544.544,0,0,0,.158-.059c.032-.024.131-.063.2-.107a.658.658,0,0,0,.111-.071c.036-.024.079-.059.063-.051a.178.178,0,0,1,.028.028,1.813,1.813,0,0,0,.142.127c.123.1.269.21.435.328s.344.241.542.392l.158.127.178.158.229.218q.914.872,1.819,1.74l.906.87.225.218.115.111.028.028.051.055.1.107.415.435.206.218c.083.067.21.123.261.2a1.528,1.528,0,0,1,.241.237l.158.245a2.673,2.673,0,0,1,.146.447.508.508,0,0,1,.028.174,1.166,1.166,0,0,1-.012.221,1.37,1.37,0,0,1-.158.475,1.869,1.869,0,0,1-.728.72,6,6,0,0,1-1.195.506l-.411.119-.344.087-.237.051-.32.063a2.507,2.507,0,0,1-.419.04,2.924,2.924,0,0,1-.415-.063,2.506,2.506,0,0,1-.4-.127,3.4,3.4,0,0,1-.36-.178,6.732,6.732,0,0,1-.87-.609c-.253-.2-.483-.4-.7-.6a14.114,14.114,0,0,0-1.23-1.024L40.6,47.991c-1.859-1.373-3.706-2.781-5.526-4.3a5.974,5.974,0,0,0-1.808-1.6c.063,0,.127.04.087-.036-.17.115-.68-.522-.886-.451-.676-.558-1.329-1.092-1.982-1.63l-.494-.4a.365.365,0,0,0-.051-.036,1.9,1.9,0,0,1-.17-.127c-.111-.083-.21-.166-.3-.249a13.528,13.528,0,0,1-1.017-1c.218.2.431.2.186-.047l-.336-.178v-.079c-.178-.15-.419-.273-.3-.055-.589-.6-1.183-1.195-1.768-1.788.245-.708.487-1.42.728-2.124.15-.455.3-.906.455-1.361q.445-1.371.89-2.733c.577-1.827,1.123-3.659,1.55-5.518a28.107,28.107,0,0,0,.779-3.56l.091-.3.134-.526c.091-.36.178-.72.269-1.08l.063-.261.016-.063c0-.032.04,0,.059-.012l.142.012.558.047,1.08.095c.423.044.846.091,1.266.134l1.2.115c1.6.142,3.216.229,4.932.222A2.888,2.888,0,0,1,38.555,19.639Z" transform="translate(-26.23 -18.481)" fill="#fff"/>
                <path id="Path_546" data-name="Path 546" d="M76.712,37.13c.032.15.309.435-.02.344C76.72,37.379,76.625,37.174,76.712,37.13Z" transform="translate(-56.722 -29.754)" fill="#fff"/>
                <path id="Path_547" data-name="Path 547" d="M95.5,55.606c.028-.012.091.127.1.158-.1-.075-.249-.091-.3-.194C95.417,55.645,95.433,55.6,95.5,55.606Z" transform="translate(-67.986 -40.9)" fill="#fff"/>
                <path id="Path_548" data-name="Path 548" d="M99.611,59.353c-.087.04-.566-.277-.831-.483Z" transform="translate(-70.084 -42.895)" fill="#fff"/>
                <path id="Path_549" data-name="Path 549" d="M104.754,64.828c.111.194.04.186-.174,0C104.6,64.773,104.683,64.82,104.754,64.828Z" transform="translate(-73.59 -46.479)" fill="#fff"/>
                <path id="Path_550" data-name="Path 550" d="M105.641,64.79a.757.757,0,0,1,.237.344C105.922,65.071,105.491,64.853,105.641,64.79Z" transform="translate(-74.212 -46.473)" fill="#fff"/>
                <path id="Path_551" data-name="Path 551" d="M114.505,74.47c.063.075.253.222.186.316a.11.11,0,0,0-.028-.083,1.3,1.3,0,0,0-.107-.1C114.493,74.533,114.426,74.474,114.505,74.47Z" transform="translate(-79.568 -52.324)" fill="#fff"/>
                <path id="Path_552" data-name="Path 552" d="M115.4,77.383c-.016.012-.028.012-.024.044-.051,0-.075-.067-.079-.087C115.336,77.356,115.367,77.372,115.4,77.383Z" transform="translate(-80.07 -54.059)" fill="#fff"/>
                <path id="Path_553" data-name="Path 553" d="M78.662,76.284l-.221-.162.087-.032Z" transform="translate(-57.789 -53.303)" fill="#fff"/>
                <path id="Path_554" data-name="Path 554" d="M70.838,77.654c-.4-.059-.261-.142-.328-.174C70.886,77.547,70.364,77.543,70.838,77.654Z" transform="translate(-52.996 -54.144)" fill="#fff"/>
                <path id="Path_555" data-name="Path 555" d="M81.52,96.8a.269.269,0,0,0,.047-.047l.261.1Z" transform="translate(-59.651 -65.792)" fill="#fff"/>
              </g>
            </g>
          </g>
        </g>
      </g>
    </g>
  </g>
</svg>
