<svg xmlns="http://www.w3.org/2000/svg" width="25.222" height="25.222" viewBox="0 0 25.222 25.222">
  <g id="Group_1146" data-name="Group 1146" transform="translate(0)">
    <g id="Group_1145" data-name="Group 1145">
      <rect id="Rectangle_1176" data-name="Rectangle 1176" width="25.222" height="25.222" fill="#ff3a21"/>
    </g>
    <path id="Path_2783" data-name="Path 2783" d="M75.351,46.2a2.172,2.172,0,0,0-2.008.978h-.026V43.643h4.108V41.7H71.152v7.994H73.33v-.313c0-.835.378-1.3,1.043-1.3.73,0,1.03.509,1.03,1.278v3.43c0,.756-.274,1.278-1,1.278-.822,0-1.109-.548-1.109-1.382V50.907H71.1v1.617c0,2.152.861,3.534,3.286,3.534s3.391-1.278,3.391-3.247V49.342c0-2.243-1.148-3.143-2.426-3.143" transform="translate(-61.828 -36.262)" fill="#fff"/>
  </g>
</svg>
