<svg xmlns="http://www.w3.org/2000/svg" width="25.222" height="25.222" viewBox="0 0 25.222 25.222">
  <g id="Group_1144" data-name="Group 1144" transform="translate(0)">
    <g id="Group_1143" data-name="Group 1143">
      <rect id="Rectangle_1175" data-name="Rectangle 1175" width="25.222" height="25.222" fill="#4c9f38"/>
    </g>
    <path id="Path_2782" data-name="Path 2782" d="M74.346,55.911c2.387,0,3.43-1.265,3.43-3.221V50.616a2.162,2.162,0,0,0-1.748-2.387,2.243,2.243,0,0,0,1.617-2.282V44.721c0-2-.952-3.221-3.143-3.221-2.452,0-3.3,1.461-3.3,3.534v1.252h2.165V44.852c0-.874.274-1.369,1.017-1.369s1.017.5,1.017,1.265V46.26c0,.756-.5,1.148-1.265,1.148h-.9V49.22h.991c.835,0,1.161.391,1.161,1.148v2.321c0,.756-.339,1.265-1.056,1.265-.809,0-1.1-.535-1.1-1.369V50.564H71.1v1.852c-.013,2.126.835,3.5,3.247,3.5" transform="translate(-61.827 -36.088)" fill="#fff"/>
  </g>
</svg>
