<svg xmlns="http://www.w3.org/2000/svg" width="25.222" height="25.222" viewBox="0 0 25.222 25.222">
  <path id="Path_2207" data-name="Path 2207" d="M0,5.031V0H25.222V25.222H0V20.191c.283-.181.564-.374.855-.547.652-.385,1.312-.759,1.966-1.139q1.028-.595,2.057-1.184l2.379-1.371q.982-.569,1.966-1.139c.666-.385,1.331-.765,2-1.15.595-.343,1.19-.688,1.813-1.048-.445-.261-.864-.507-1.283-.748-.626-.363-1.255-.722-1.881-1.082L7.931,9.665C7.257,9.274,6.58,8.886,5.906,8.5l-2-1.153c-.793-.459-1.586-.912-2.377-1.377C1.017,5.662.51,5.342,0,5.031ZM12.254,19.987a2.1,2.1,0,0,0,.278-.116l12.56-7.24a1.794,1.794,0,0,0-.144-.116q-1.321-.765-2.643-1.527c-.94-.541-1.884-1.076-2.824-1.62C18.4,8.739,17.313,8.1,16.225,7.475q-1.746-1.011-3.5-2.017a.923.923,0,0,0-.516-.2c-.161.113-.11.275-.11.414,0,1.371-.006,2.742,0,4.113,0,.49-.113.524.476.841,1.025.55,2.023,1.156,3.028,1.742a.741.741,0,0,1,.34.269c-.048.037-.082.065-.119.088l-1.32.765c-.705.408-1.4.821-2.116,1.218a.485.485,0,0,0-.295.479c.011.793.006,1.586.006,2.379,0,.68,0,1.36,0,2.04C12.107,19.729,12.064,19.88,12.254,19.987Z" transform="translate(0)" fill="#ef6234"/>
</svg>
