<svg id="Group_1149" data-name="Group 1149" xmlns="http://www.w3.org/2000/svg" width="25.222" height="25.222" viewBox="0 0 25.222 25.222">
  <g id="Group_1147" data-name="Group 1147">
    <rect id="Rectangle_1177" data-name="Rectangle 1177" width="25.222" height="25.222" fill="#dd1367"/>
  </g>
  <g id="Group_1148" data-name="Group 1148" transform="translate(6.325 5.295)">
    <path id="Path_2784" data-name="Path 2784" d="M50.182,45.339V56.28H52.53V42H50.652L48.5,44.582V47.1h.013l1.643-1.761Z" transform="translate(-48.5 -41.817)" fill="#fff"/>
    <path id="Path_2785" data-name="Path 2785" d="M94.147,51.75V44.082c0-.861.313-1.474,1.109-1.474.822,0,1.135.613,1.135,1.474V51.75c0,.861-.313,1.474-1.135,1.474-.8,0-1.109-.613-1.109-1.474m4.591-.378V44.46c0-2.23-1.1-3.86-3.482-3.86-2.36,0-3.456,1.617-3.456,3.86v6.912c0,2.217,1.1,3.86,3.456,3.86,2.387,0,3.482-1.643,3.482-3.86" transform="translate(-86.153 -40.6)" fill="#fff"/>
  </g>
</svg>
