<?xml version="1.0" encoding="utf-8"?>
<!-- Generator: Adobe Illustrator 23.0.0, SVG Export Plug-In . SVG Version: 6.00 Build 0)  -->
<svg version="1.1" xmlns="http://www.w3.org/2000/svg" xmlns:xlink="http://www.w3.org/1999/xlink" x="0px" y="0px"
	 viewBox="0 0 1083.5 236.5" style="enable-background:new 0 0 1083.5 236.5;" xml:space="preserve">
<style type="text/css">
	.st0{fill:#5A5A5A;}
	.st1{fill:#F26E26;}
	.st2{fill:#8F1738;}
	.st3{fill:#E01485;}
	.st4{fill:#FCB812;}
	.st5{fill:#FA9E26;}
	.st6{fill:#CF8C29;}
	.st7{fill:#47783D;}
	.st8{fill:#007DBD;}
	.st9{fill:#5CBA45;}
	.st10{fill:#03548C;}
	.st11{fill:#173669;}
</style>
<g id="Layer_1">
</g>
<g id="Layer_4">
</g>
<g id="Layer_3">
</g>
<g id="Layer_2">
	<g>
		<path class="st0" d="M1065.8,146.9v-0.4c0-1.6,0.6-3,1.7-4.2c1.1-1.1,2.5-1.7,4.2-1.7c1.6,0,3,0.6,4.2,1.7
			c1.1,1.1,1.7,2.5,1.7,4.2v0.4H1065.8z M1071.7,164h7.9c0.3,0,0.5-0.1,0.7-0.3c0.2-0.2,0.3-0.4,0.3-0.7v-3.6c0-0.3-0.1-0.5-0.3-0.7
			s-0.4-0.3-0.7-0.3h-7.9c-1.6,0-3-0.6-4.2-1.7c-1.1-1.1-1.7-2.5-1.7-4.2v-0.2h15.6c0.6,0,1.1-0.2,1.5-0.6c0.4-0.4,0.6-0.9,0.6-1.5
			v-3.3c0-2.2-0.5-4.1-1.6-6c-1.1-1.8-2.5-3.3-4.3-4.3c-1.8-1.1-3.8-1.6-5.9-1.6s-4.1,0.5-5.9,1.6c-1.8,1.1-3.2,2.5-4.3,4.3
			s-1.6,3.8-1.6,6v5.4c0,2.2,0.5,4.1,1.6,6s2.5,3.3,4.3,4.3C1067.5,163.5,1069.5,164,1071.7,164 M1034.8,164h14.5
			c0.3,0,0.5-0.1,0.7-0.3c0.2-0.2,0.3-0.4,0.3-0.7v-3.7c0-0.3-0.1-0.5-0.3-0.7c-0.2-0.2-0.4-0.3-0.7-0.3h-4.9v-12.5l2.7-2.2
			c1.3-1,2.3-1.7,2.9-2c0.6-0.3,1.4-0.4,2.2-0.4h1.3c0.3,0,0.5-0.1,0.7-0.3c0.2-0.2,0.3-0.4,0.3-0.7v-3.8c0-0.3-0.1-0.5-0.3-0.7
			c-0.2-0.2-0.4-0.3-0.7-0.3h-1.5c-1,0-1.9,0.2-2.6,0.5c-0.7,0.3-1.6,0.9-2.6,1.7l-2.7,2.1v-1.8c0-0.6-0.2-1.1-0.6-1.5
			c-0.4-0.4-0.9-0.6-1.5-0.6h-7.7c-0.3,0-0.5,0.1-0.7,0.3c-0.2,0.2-0.3,0.4-0.3,0.7v3.5c0,0.3,0.1,0.5,0.3,0.7
			c0.2,0.2,0.4,0.3,0.7,0.3h4.3v17.1h-3.8c-0.3,0-0.5,0.1-0.7,0.3c-0.2,0.2-0.3,0.4-0.3,0.7v3.7c0,0.3,0.1,0.5,0.3,0.7
			C1034.3,163.9,1034.5,164,1034.8,164 M1012.1,164.7c1.5,0,2.9-0.4,4.2-1.1c1.3-0.7,2.4-1.7,3.3-3v2.3c0,0.3,0.1,0.5,0.3,0.7
			c0.2,0.2,0.4,0.3,0.7,0.3h3.9c0.3,0,0.5-0.1,0.7-0.3c0.2-0.2,0.3-0.4,0.3-0.7v-26.4c0-0.3-0.1-0.5-0.3-0.7
			c-0.2-0.2-0.4-0.3-0.7-0.3h-3.9c-0.3,0-0.5,0.1-0.7,0.3c-0.2,0.2-0.3,0.4-0.3,0.7v15.2c0,2.2-0.6,4-1.7,5.2
			c-1.1,1.3-2.7,1.9-4.7,1.9c-1.6,0-2.9-0.5-3.8-1.4c-0.9-0.9-1.3-2.3-1.3-4.1v-16.9c0-0.3-0.1-0.5-0.3-0.7
			c-0.2-0.2-0.4-0.3-0.7-0.3h-3.9c-0.3,0-0.5,0.1-0.7,0.3c-0.2,0.2-0.3,0.4-0.3,0.7v17.7c0,2,0.4,3.8,1.3,5.4s2.1,2.8,3.6,3.7
			C1008.5,164.2,1010.2,164.7,1012.1,164.7 M987.9,164h5.7c0.3,0,0.5-0.1,0.7-0.3c0.2-0.2,0.3-0.4,0.3-0.7v-3.5
			c0-0.3-0.1-0.5-0.3-0.7c-0.2-0.2-0.4-0.3-0.7-0.3l-5.2,0c-1,0-1.7-0.3-2.3-0.9c-0.6-0.6-0.9-1.4-0.9-2.4v-14h8.4
			c0.3,0,0.5-0.1,0.7-0.3c0.2-0.2,0.3-0.4,0.3-0.7v-3.5c0-0.3-0.1-0.5-0.3-0.7c-0.2-0.2-0.4-0.3-0.7-0.3h-8.4v-5.4
			c0-0.3-0.1-0.5-0.3-0.7c-0.2-0.2-0.4-0.3-0.7-0.3h-3.9c-0.3,0-0.5,0.1-0.7,0.3c-0.2,0.2-0.3,0.4-0.3,0.7v5.4h-3.4
			c-0.3,0-0.5,0.1-0.7,0.3c-0.2,0.2-0.3,0.4-0.3,0.7v3.5c0,0.3,0.1,0.5,0.3,0.7c0.2,0.2,0.4,0.3,0.7,0.3h3.4v14.3
			c0,2.6,0.8,4.7,2.4,6.3S985.4,164,987.9,164 M954,164.7c1.5,0,2.9-0.4,4.2-1.1c1.3-0.7,2.4-1.7,3.3-3v2.3c0,0.3,0.1,0.5,0.3,0.7
			c0.2,0.2,0.4,0.3,0.7,0.3h3.9c0.3,0,0.5-0.1,0.7-0.3c0.2-0.2,0.3-0.4,0.3-0.7v-26.4c0-0.3-0.1-0.5-0.3-0.7
			c-0.2-0.2-0.4-0.3-0.7-0.3h-3.9c-0.3,0-0.5,0.1-0.7,0.3c-0.2,0.2-0.3,0.4-0.3,0.7v15.2c0,2.2-0.6,4-1.7,5.2
			c-1.1,1.3-2.7,1.9-4.6,1.9c-1.6,0-2.9-0.5-3.8-1.4c-0.9-0.9-1.3-2.3-1.3-4.1v-16.9c0-0.3-0.1-0.5-0.3-0.7
			c-0.2-0.2-0.4-0.3-0.7-0.3h-3.9c-0.3,0-0.5,0.1-0.7,0.3c-0.2,0.2-0.3,0.4-0.3,0.7v17.7c0,2,0.4,3.8,1.3,5.4c0.9,1.6,2,2.8,3.6,3.7
			C950.4,164.2,952.1,164.7,954,164.7 M924.1,164h3.9c0.3,0,0.5-0.1,0.7-0.3c0.2-0.2,0.3-0.4,0.3-0.7v-21.9h6.4
			c0.3,0,0.5-0.1,0.7-0.3c0.2-0.2,0.3-0.4,0.3-0.7v-3.5c0-0.3-0.1-0.5-0.3-0.7c-0.2-0.2-0.4-0.3-0.7-0.3H929v-1.9
			c0-0.9,0.2-1.5,0.7-2.1c0.5-0.5,1.1-0.8,2-0.8h4.7c0.3,0,0.5-0.1,0.7-0.3c0.2-0.2,0.3-0.4,0.3-0.7v-3.4c0-0.3-0.1-0.5-0.3-0.7
			c-0.2-0.2-0.4-0.3-0.7-0.3h-4.7c-2.6,0-4.7,0.8-6.3,2.4c-1.6,1.6-2.4,3.7-2.4,6.3v1.6h-3.9c-0.3,0-0.5,0.1-0.7,0.3
			c-0.2,0.2-0.3,0.4-0.3,0.7v3.5c0,0.3,0.1,0.5,0.3,0.7c0.2,0.2,0.4,0.3,0.7,0.3h3.9V163c0,0.3,0.1,0.5,0.3,0.7
			C923.5,163.9,923.8,164,924.1,164 M880.6,146.9v-0.4c0-1.6,0.6-3,1.7-4.2c1.1-1.1,2.5-1.7,4.2-1.7c1.6,0,3,0.6,4.2,1.7
			c1.1,1.1,1.7,2.5,1.7,4.2v0.4H880.6z M886.5,164h7.9c0.3,0,0.5-0.1,0.7-0.3c0.2-0.2,0.3-0.4,0.3-0.7v-3.6c0-0.3-0.1-0.5-0.3-0.7
			c-0.2-0.2-0.4-0.3-0.7-0.3h-7.9c-1.6,0-3-0.6-4.2-1.7c-1.1-1.1-1.7-2.5-1.7-4.2v-0.2h15.6c0.6,0,1.1-0.2,1.5-0.6
			c0.4-0.4,0.6-0.9,0.6-1.5v-3.3c0-2.2-0.5-4.1-1.6-6c-1.1-1.8-2.5-3.3-4.3-4.3c-1.8-1.1-3.8-1.6-5.9-1.6c-2.2,0-4.1,0.5-5.9,1.6
			c-1.8,1.1-3.2,2.5-4.3,4.3c-1.1,1.8-1.6,3.8-1.6,6v5.4c0,2.2,0.5,4.1,1.6,6c1.1,1.8,2.5,3.3,4.3,4.3
			C882.3,163.5,884.3,164,886.5,164 M859.8,164h8.4c0.3,0,0.5-0.1,0.7-0.3c0.2-0.2,0.3-0.4,0.3-0.7v-3.7c0-0.3-0.1-0.5-0.3-0.7
			c-0.2-0.2-0.4-0.3-0.7-0.3h-4.5v-30.2c0-0.6-0.2-1.1-0.6-1.5c-0.4-0.4-0.9-0.6-1.5-0.6h-8.4c-0.3,0-0.5,0.1-0.7,0.3
			c-0.2,0.2-0.3,0.4-0.3,0.7v3.7c0,0.3,0.1,0.5,0.3,0.7c0.2,0.2,0.4,0.3,0.7,0.3h4.5v30.2c0,0.6,0.2,1.1,0.6,1.5
			C858.7,163.8,859.2,164,859.8,164 M835.9,158.9c-1.6,0-3-0.6-4.2-1.7s-1.7-2.5-1.7-4.2v-6.6c0-1.6,0.6-3,1.7-4.2
			c1.2-1.1,2.6-1.7,4.2-1.7c1.6,0,3,0.6,4.2,1.7c1.1,1.1,1.7,2.5,1.7,4.2v6.6c0,1.6-0.6,3-1.7,4.2S837.5,158.9,835.9,158.9
			 M836.6,164.7c2,0,3.8-0.5,5.5-1.6c1.7-1,3.1-2.4,4.1-4.2c1-1.8,1.5-3.6,1.5-5.7v-6.9c0-2-0.5-3.9-1.5-5.7c-1-1.8-2.3-3.2-4-4.2
			c-1.7-1.1-3.5-1.6-5.6-1.6c-1.3,0-2.5,0.3-3.7,0.8c-1.2,0.5-2.2,1.3-3,2.4V127c0-0.3-0.1-0.5-0.3-0.7c-0.2-0.2-0.4-0.3-0.7-0.3
			H825c-0.3,0-0.5,0.1-0.7,0.3c-0.2,0.2-0.3,0.4-0.3,0.7v36c0,0.3,0.1,0.5,0.3,0.7c0.2,0.2,0.4,0.3,0.7,0.3h3.2
			c0.3,0,0.5-0.1,0.7-0.3c0.2-0.2,0.3-0.4,0.3-0.7v-2.1c0.9,1.3,1.9,2.2,3.2,2.9C833.8,164.3,835.2,164.7,836.6,164.7 M801.9,159.3
			c-1.3,0-2.3-0.3-3-0.9c-0.8-0.6-1.1-1.4-1.1-2.5c0-1.9,1.4-3,4.1-3.5c0.6-0.1,1.9-0.3,3.9-0.5l3.7-0.5v1c0,1.2-0.4,2.3-1.1,3.4
			c-0.7,1.1-1.6,2-2.8,2.6C804.4,159,803.1,159.3,801.9,159.3 M801.4,164.7c3.2,0,5.9-1.2,8.2-3.6v1.9c0,0.3,0.1,0.6,0.3,0.8
			c0.2,0.2,0.4,0.3,0.7,0.3h3.4c0.3,0,0.5-0.1,0.7-0.3c0.2-0.2,0.3-0.4,0.3-0.7v-18.1c0-2-0.5-3.7-1.4-5.3c-0.9-1.5-2.2-2.7-3.9-3.5
			c-1.7-0.8-3.6-1.2-5.8-1.2c-2.4,0-4.5,0.5-6.4,1.5c-1.9,1-3.3,2.4-4.3,4.3c-0.1,0.2-0.1,0.3-0.1,0.4c0,0.4,0.1,0.6,0.4,0.8
			l2.8,1.9c0.2,0.1,0.4,0.2,0.6,0.2c0.4,0,0.7-0.2,0.9-0.6c1.2-2,3.2-2.9,5.9-2.9c1.5,0,2.8,0.4,3.8,1.1c1,0.7,1.5,1.7,1.5,3
			c0,1.2-0.6,1.9-1.8,2.1c-0.5,0.1-1.9,0.3-4.2,0.6c-0.7,0.1-1.4,0.2-2.1,0.3c-2.9,0.5-5.1,1.5-6.7,3c-1.6,1.5-2.4,3.4-2.4,5.7
			c0,2.5,0.9,4.6,2.6,6.1C796.4,163.9,798.6,164.7,801.4,164.7 M762.5,164h3.9c0.3,0,0.5-0.1,0.7-0.3c0.2-0.2,0.3-0.4,0.3-0.7v-15.2
			c0-2.2,0.6-4,1.7-5.3c1.1-1.3,2.7-1.9,4.6-1.9c1.6,0,2.9,0.5,3.8,1.4c0.9,0.9,1.3,2.3,1.3,4.1V163c0,0.3,0.1,0.5,0.3,0.7
			c0.2,0.2,0.4,0.3,0.7,0.3h3.9c0.3,0,0.5-0.1,0.7-0.3c0.2-0.2,0.3-0.4,0.3-0.7v-17.7c0-2-0.4-3.8-1.3-5.4c-0.9-1.6-2-2.8-3.6-3.7
			c-1.5-0.9-3.2-1.3-5.1-1.3c-1.5,0-2.9,0.4-4.2,1.1c-1.3,0.7-2.4,1.7-3.3,3v-2.3c0-0.3-0.1-0.5-0.3-0.7c-0.2-0.2-0.4-0.3-0.7-0.3
			h-3.9c-0.3,0-0.5,0.1-0.7,0.3c-0.2,0.2-0.3,0.4-0.3,0.7V163c0,0.3,0.1,0.5,0.3,0.7C762,163.9,762.2,164,762.5,164 M745.9,164h7.5
			c0.3,0,0.5-0.1,0.7-0.3c0.2-0.2,0.3-0.4,0.3-0.7v-3.6c0-0.3-0.1-0.5-0.3-0.7c-0.2-0.2-0.4-0.3-0.7-0.3h-4V138
			c0-0.7-0.2-1.3-0.7-1.8c-0.5-0.5-1.1-0.7-1.8-0.7h-7.5c-0.3,0-0.5,0.1-0.7,0.3c-0.2,0.2-0.3,0.4-0.3,0.7v3.6
			c0,0.3,0.1,0.5,0.3,0.7c0.2,0.2,0.4,0.3,0.7,0.3h4v20.3c0,0.7,0.2,1.3,0.7,1.8C744.7,163.8,745.2,164,745.9,164 M744.7,132.2h3.4
			c0.3,0,0.5-0.1,0.7-0.3c0.2-0.2,0.3-0.4,0.3-0.7v-5.4c0-0.3-0.1-0.5-0.3-0.7c-0.2-0.2-0.4-0.3-0.7-0.3h-3.4
			c-0.3,0-0.5,0.1-0.7,0.3c-0.2,0.2-0.3,0.4-0.3,0.7v5.4c0,0.3,0.1,0.5,0.3,0.7C744.2,132.1,744.5,132.2,744.7,132.2 M718.4,159.3
			c-1.3,0-2.3-0.3-3-0.9c-0.8-0.6-1.1-1.4-1.1-2.5c0-1.9,1.4-3,4.1-3.5c0.6-0.1,1.9-0.3,3.9-0.5l3.7-0.5v1c0,1.2-0.4,2.3-1.1,3.4
			c-0.7,1.1-1.7,2-2.8,2.6C720.9,159,719.7,159.3,718.4,159.3 M717.9,164.7c3.2,0,5.9-1.2,8.2-3.6v1.9c0,0.3,0.1,0.6,0.3,0.8
			c0.2,0.2,0.4,0.3,0.7,0.3h3.4c0.3,0,0.5-0.1,0.7-0.3c0.2-0.2,0.3-0.4,0.3-0.7v-18.1c0-2-0.5-3.7-1.4-5.3c-0.9-1.5-2.2-2.7-3.9-3.5
			c-1.7-0.8-3.6-1.2-5.8-1.2c-2.4,0-4.5,0.5-6.4,1.5c-1.9,1-3.3,2.4-4.3,4.3c-0.1,0.2-0.1,0.3-0.1,0.4c0,0.4,0.1,0.6,0.4,0.8
			l2.8,1.9c0.2,0.1,0.4,0.2,0.6,0.2c0.4,0,0.7-0.2,0.9-0.6c1.2-2,3.2-2.9,5.9-2.9c1.5,0,2.8,0.4,3.8,1.1c1,0.7,1.5,1.7,1.5,3
			c0,1.2-0.6,1.9-1.8,2.1c-0.5,0.1-1.9,0.3-4.2,0.6c-0.7,0.1-1.4,0.2-2.1,0.3c-2.9,0.5-5.1,1.5-6.7,3c-1.6,1.5-2.4,3.4-2.4,5.7
			c0,2.5,0.9,4.6,2.6,6.1C712.9,163.9,715.2,164.7,717.9,164.7 M696.1,164h5.7c0.3,0,0.5-0.1,0.7-0.3c0.2-0.2,0.3-0.4,0.3-0.7v-3.5
			c0-0.3-0.1-0.5-0.3-0.7c-0.2-0.2-0.4-0.3-0.7-0.3l-5.2,0c-1,0-1.7-0.3-2.3-0.9c-0.6-0.6-0.9-1.4-0.9-2.4v-14h8.4
			c0.3,0,0.5-0.1,0.7-0.3c0.2-0.2,0.3-0.4,0.3-0.7v-3.5c0-0.3-0.1-0.5-0.3-0.7c-0.2-0.2-0.4-0.3-0.7-0.3h-8.4v-5.4
			c0-0.3-0.1-0.5-0.3-0.7c-0.2-0.2-0.4-0.3-0.7-0.3h-3.9c-0.3,0-0.5,0.1-0.7,0.3s-0.3,0.4-0.3,0.7v5.4H684c-0.3,0-0.5,0.1-0.7,0.3
			c-0.2,0.2-0.3,0.4-0.3,0.7v3.5c0,0.3,0.1,0.5,0.3,0.7c0.2,0.2,0.4,0.3,0.7,0.3h3.4v14.3c0,2.6,0.8,4.7,2.4,6.3
			C691.4,163.2,693.5,164,696.1,164 M667.4,164.7c2,0,3.8-0.4,5.4-1.1c1.6-0.7,2.8-1.8,3.7-3.1c0.9-1.3,1.3-2.9,1.3-4.6
			c0-1.8-0.4-3.2-1.3-4.3c-0.9-1.1-1.8-1.9-2.9-2.4c-1-0.5-2.5-1.1-4.4-1.9c-2-0.8-3.3-1.4-4-2c-0.7-0.6-1.1-1.3-1.1-2.2
			c0-0.9,0.3-1.5,1-2c0.6-0.5,1.5-0.7,2.7-0.7c2,0,4.1,0.7,6.4,2.2c0.2,0.1,0.5,0.2,0.7,0.2c0.4,0,0.7-0.2,0.9-0.5
			c0.7-1.4,1.2-2.4,1.5-3.1c0.1-0.2,0.1-0.4,0-0.6c0-0.2-0.2-0.4-0.3-0.5c-1.2-1-2.7-1.7-4.3-2.3c-1.6-0.5-3.3-0.8-5-0.8
			c-2.9,0-5.2,0.8-6.9,2.3c-1.7,1.5-2.6,3.6-2.6,6.2c0,1.7,0.4,3.1,1.1,4.2s1.6,2,2.6,2.7c1,0.6,2.3,1.3,3.7,1.8l1.8,0.7
			c1.8,0.7,3,1.2,3.6,1.6s0.9,1,0.9,1.8c0,0.9-0.4,1.6-1.1,2.1c-0.7,0.5-1.8,0.8-3.2,0.8c-1.2,0-2.3-0.2-3.3-0.6
			c-1-0.4-2.2-1-3.4-1.8c-0.2-0.1-0.5-0.2-0.7-0.2c-0.4,0-0.7,0.2-1,0.6c-0.9,1.6-1.5,2.6-1.7,3.1c-0.1,0.2-0.1,0.4,0,0.6
			c0,0.2,0.2,0.4,0.3,0.5c1.3,1,2.8,1.8,4.4,2.3S665.6,164.7,667.4,164.7 M636.6,164.7c1.5,0,2.9-0.4,4.2-1.1c1.3-0.7,2.4-1.7,3.3-3
			v2.3c0,0.3,0.1,0.5,0.3,0.7c0.2,0.2,0.4,0.3,0.7,0.3h3.9c0.3,0,0.5-0.1,0.7-0.3c0.2-0.2,0.3-0.4,0.3-0.7v-26.4
			c0-0.3-0.1-0.5-0.3-0.7c-0.2-0.2-0.4-0.3-0.7-0.3h-3.9c-0.3,0-0.5,0.1-0.7,0.3c-0.2,0.2-0.3,0.4-0.3,0.7v15.2c0,2.2-0.6,4-1.7,5.2
			c-1.1,1.3-2.7,1.9-4.6,1.9c-1.6,0-2.9-0.5-3.8-1.4c-0.9-0.9-1.3-2.3-1.3-4.1v-16.9c0-0.3-0.1-0.5-0.3-0.7
			c-0.2-0.2-0.4-0.3-0.7-0.3h-3.9c-0.3,0-0.5,0.1-0.7,0.3c-0.2,0.2-0.3,0.4-0.3,0.7v17.7c0,2,0.4,3.8,1.3,5.4c0.9,1.6,2,2.8,3.6,3.7
			C633,164.2,634.7,164.7,636.6,164.7 M609.1,164.7c2,0,3.8-0.4,5.4-1.1c1.6-0.7,2.8-1.8,3.7-3.1c0.9-1.3,1.3-2.9,1.3-4.6
			c0-1.8-0.4-3.2-1.3-4.3c-0.9-1.1-1.8-1.9-2.9-2.4c-1-0.5-2.5-1.1-4.4-1.9c-2-0.8-3.3-1.4-4-2c-0.7-0.6-1.1-1.3-1.1-2.2
			c0-0.9,0.3-1.5,1-2c0.6-0.5,1.5-0.7,2.7-0.7c2,0,4.1,0.7,6.4,2.2c0.2,0.1,0.5,0.2,0.7,0.2c0.4,0,0.7-0.2,0.9-0.5
			c0.7-1.4,1.2-2.4,1.5-3.1c0.1-0.2,0.1-0.4,0-0.6c0-0.2-0.2-0.4-0.3-0.5c-1.2-1-2.7-1.7-4.3-2.3s-3.3-0.8-5-0.8
			c-2.9,0-5.2,0.8-6.9,2.3c-1.7,1.5-2.6,3.6-2.6,6.2c0,1.7,0.4,3.1,1.1,4.2s1.6,2,2.6,2.7c1,0.6,2.3,1.3,3.7,1.8l1.8,0.7
			c1.8,0.7,3,1.2,3.6,1.6s0.9,1,0.9,1.8c0,0.9-0.4,1.6-1.1,2.1c-0.7,0.5-1.8,0.8-3.2,0.8c-1.2,0-2.3-0.2-3.3-0.6
			c-1-0.4-2.2-1-3.4-1.8c-0.2-0.1-0.5-0.2-0.7-0.2c-0.4,0-0.7,0.2-1,0.6c-0.9,1.6-1.5,2.6-1.7,3.1c-0.1,0.2-0.1,0.4,0,0.6
			c0.1,0.2,0.2,0.4,0.3,0.5c1.3,1,2.8,1.8,4.4,2.3C605.6,164.4,607.3,164.7,609.1,164.7"/>
		<path class="st0" d="M1056.9,100.4c-1.6,0-2.9-0.4-3.9-1.2s-1.5-1.9-1.5-3.3c0-2.6,1.7-4.2,5-4.7l1.4-0.2c4.3-0.6,6.9-0.9,7.7-1v2
			c0,1.3-0.4,2.5-1.1,3.9c-0.7,1.3-1.8,2.4-3.1,3.3C1060,100,1058.5,100.4,1056.9,100.4 M1056.5,103.9c1.9,0,3.6-0.4,5.3-1.3
			c1.6-0.8,2.9-2,4-3.5v3.4c0,0.2,0.1,0.4,0.2,0.5c0.1,0.1,0.3,0.2,0.5,0.2h2.1c0.2,0,0.4-0.1,0.5-0.2c0.1-0.1,0.2-0.3,0.2-0.5V83.4
			c0-1.8-0.4-3.4-1.3-4.7c-0.8-1.4-2.1-2.4-3.6-3.2c-1.6-0.7-3.3-1.1-5.3-1.1c-2.2,0-4.1,0.5-5.8,1.4c-1.7,0.9-3,2.2-4,3.8
			c-0.1,0.2-0.1,0.4-0.1,0.5c0,0.3,0.1,0.6,0.4,0.8l1.3,0.9c0.2,0.2,0.4,0.2,0.6,0.2c0.4,0,0.7-0.2,1-0.6c0.6-1,1.5-1.8,2.6-2.4
			c1.1-0.6,2.3-0.9,3.8-0.9c1.9,0,3.4,0.5,4.7,1.5c1.2,1,1.9,2.3,1.9,3.9v0.4c0,1-0.2,1.7-0.6,2.2c-0.4,0.5-1.1,0.8-2.1,1l-6.5,0.9
			c-2.7,0.4-4.7,1.3-6.2,2.7c-1.5,1.4-2.2,3.2-2.2,5.4c0,2.4,0.8,4.3,2.4,5.7C1051.8,103.1,1053.9,103.9,1056.5,103.9 M1009,103.2
			h13.8c0.2,0,0.4-0.1,0.5-0.2c0.1-0.1,0.2-0.3,0.2-0.5v-2.3c0-0.2-0.1-0.4-0.2-0.5c-0.1-0.1-0.3-0.2-0.5-0.2h-5.8V83.7l2.9-2.3
			c1.5-1.2,2.6-1.9,3.3-2.3c0.7-0.3,1.5-0.5,2.3-0.5h1.1c0.2,0,0.4-0.1,0.5-0.2c0.1-0.1,0.2-0.3,0.2-0.5v-2.4c0-0.2-0.1-0.4-0.2-0.5
			c-0.1-0.1-0.3-0.2-0.5-0.2h-1.5c-0.8,0-1.6,0.2-2.4,0.5c-0.7,0.3-1.7,0.9-2.9,1.9l-2.9,2.2v-2.5c0-0.5-0.2-0.9-0.5-1.3
			c-0.3-0.3-0.8-0.5-1.3-0.5h-6.2c-0.2,0-0.4,0.1-0.5,0.2c-0.1,0.1-0.2,0.3-0.2,0.5v2.1c0,0.2,0.1,0.4,0.2,0.5
			c0.1,0.1,0.3,0.2,0.5,0.2h4.1v20.9h-4.1c-0.2,0-0.4,0.1-0.5,0.2c-0.1,0.1-0.2,0.3-0.2,0.5v2.3c0,0.2,0.1,0.4,0.2,0.5
			C1008.7,103.2,1008.8,103.2,1009,103.2 M991.1,100.2c-1.3,0-2.4-0.3-3.5-0.9c-1.1-0.6-1.9-1.4-2.5-2.5c-0.6-1.1-0.9-2.2-0.9-3.5
			V85c0-1.3,0.3-2.4,0.9-3.5c0.6-1.1,1.4-1.9,2.5-2.5c1.1-0.6,2.2-0.9,3.5-0.9s2.4,0.3,3.5,0.9c1.1,0.6,1.9,1.4,2.5,2.5
			c0.6,1.1,0.9,2.2,0.9,3.5v8.3c0,1.3-0.3,2.4-0.9,3.5c-0.6,1.1-1.5,1.9-2.5,2.5C993.5,99.9,992.3,100.2,991.1,100.2 M991.1,103.9
			c2,0,3.8-0.5,5.4-1.4c1.7-1,3-2.3,3.9-4c1-1.7,1.4-3.5,1.4-5.4v-7.8c0-2-0.5-3.8-1.4-5.4c-1-1.7-2.3-3-3.9-4
			c-1.7-1-3.5-1.4-5.4-1.4c-2,0-3.8,0.5-5.4,1.4s-3,2.3-3.9,4c-1,1.7-1.4,3.5-1.4,5.4V93c0,2,0.5,3.8,1.4,5.4c1,1.7,2.3,3,3.9,4
			S989.1,103.9,991.1,103.9 M963.2,103.2h2.5c0.2,0,0.4-0.1,0.5-0.2c0.1-0.1,0.2-0.3,0.2-0.5V78.8h6.8c0.2,0,0.4-0.1,0.5-0.2
			c0.1-0.1,0.2-0.3,0.2-0.5v-2.3c0-0.2-0.1-0.4-0.2-0.5c-0.1-0.1-0.3-0.2-0.5-0.2h-6.8v-2.2c0-1.2,0.3-2.1,1-2.8
			c0.7-0.7,1.6-1.1,2.7-1.1h4c0.2,0,0.4-0.1,0.5-0.2c0.1-0.1,0.2-0.3,0.2-0.5v-2.1c0-0.2-0.1-0.4-0.2-0.5c-0.1-0.1-0.3-0.2-0.5-0.2
			h-4c-2.4,0-4.3,0.7-5.6,2.2c-1.4,1.4-2,3.3-2,5.4v2h-3.8c-0.2,0-0.4,0.1-0.5,0.2c-0.1,0.1-0.2,0.3-0.2,0.5v2.3
			c0,0.2,0.1,0.4,0.2,0.5c0.1,0.1,0.3,0.2,0.5,0.2h3.8v23.8c0,0.2,0.1,0.4,0.2,0.5C962.8,103.2,963,103.2,963.2,103.2 M924.8,110
			c-2.2,0-4-0.3-5.4-1c-1.4-0.7-2.1-1.8-2.1-3.3c0-0.8,0.2-1.5,0.6-2.2c0.4-0.7,0.9-1.3,1.6-1.8c0.5,0.1,1.2,0.2,2,0.3
			c1.3,0.2,2.5,0.3,3.7,0.4c1.1,0.1,1.8,0.1,2.1,0.2c1.4,0.1,2.4,0.3,3.2,0.4c0.7,0.2,1.3,0.4,1.7,0.8c0.4,0.4,0.6,1,0.6,1.8
			c0,1.6-0.7,2.7-2.2,3.4C929,109.7,927.1,110,924.8,110 M924.2,90.2c-2,0-3.5-0.6-4.7-1.7c-1.2-1.1-1.8-2.6-1.8-4.4
			c0-1.8,0.6-3.3,1.8-4.4c1.2-1.1,2.7-1.7,4.7-1.7c2,0,3.5,0.6,4.7,1.7c1.2,1.1,1.8,2.6,1.8,4.4c0,1.8-0.6,3.3-1.8,4.4
			C927.7,89.6,926.1,90.2,924.2,90.2 M924.4,113.5c3.5,0,6.4-0.7,8.6-2.1c2.2-1.4,3.3-3.5,3.3-6.2c0-1.7-0.4-2.9-1.2-3.8
			s-1.8-1.4-2.9-1.7c-1.1-0.3-2.5-0.5-4.1-0.6l-1.9-0.1c-2.2-0.2-3.8-0.4-4.8-0.5c-1-0.1-1.8-0.3-2.3-0.6c-0.7-0.4-1-0.9-1-1.7
			c0-0.6,0.2-1.2,0.6-1.7c0.4-0.5,1-1,1.7-1.3c1.4,0.4,2.7,0.6,3.9,0.6c1.9,0,3.6-0.4,5.2-1.2c1.6-0.8,2.8-1.9,3.7-3.4
			c0.9-1.5,1.4-3.1,1.4-5c0-2-0.5-3.8-1.5-5.3h5c0.2,0,0.4-0.1,0.5-0.2c0.1-0.1,0.2-0.3,0.2-0.5v-2.3c0-0.2-0.1-0.4-0.2-0.5
			c-0.1-0.1-0.3-0.2-0.5-0.2h-9.8c-1.3-0.4-2.6-0.6-3.9-0.6c-1.9,0-3.6,0.4-5.2,1.2c-1.6,0.8-2.8,1.9-3.7,3.4
			c-0.9,1.5-1.4,3.1-1.4,5c0,1.6,0.3,3,0.9,4.3c0.6,1.3,1.5,2.3,2.6,3.2c-1,0.6-1.8,1.4-2.4,2.3c-0.6,0.9-0.9,1.9-0.9,2.9
			c0,0.8,0.2,1.5,0.6,2.1c0.4,0.6,1,1.2,1.8,1.7c-0.9,0.7-1.6,1.6-2.1,2.6c-0.5,1.1-0.8,2.2-0.8,3.3c0,2.3,1,4,3,5.2
			C918.7,112.9,921.2,113.5,924.4,113.5 M884.6,103.2h2.5c0.2,0,0.4-0.1,0.5-0.2c0.1-0.1,0.2-0.3,0.2-0.5V86.2c0-2.6,0.7-4.6,2-6
			c1.4-1.5,3.2-2.2,5.4-2.2c1.9,0,3.4,0.6,4.5,1.7c1.1,1.1,1.7,2.7,1.7,4.9v18c0,0.2,0.1,0.4,0.2,0.5c0.1,0.1,0.3,0.2,0.5,0.2h2.5
			c0.2,0,0.4-0.1,0.5-0.2c0.1-0.1,0.2-0.3,0.2-0.5V83.8c0-2.8-0.9-5.1-2.6-6.8c-1.7-1.7-4-2.6-6.8-2.6c-1.7,0-3.3,0.3-4.7,1
			c-1.4,0.7-2.5,1.7-3.4,3.1v-2.7c0-0.2-0.1-0.4-0.2-0.5c-0.1-0.1-0.3-0.2-0.5-0.2h-2.5c-0.2,0-0.4,0.1-0.5,0.2
			c-0.1,0.1-0.2,0.3-0.2,0.5v26.7c0,0.2,0.1,0.4,0.2,0.5C884.3,103.1,884.4,103.2,884.6,103.2 M868.3,103.2h7.2
			c0.2,0,0.4-0.1,0.5-0.2c0.1-0.1,0.2-0.3,0.2-0.5v-2.3c0-0.2-0.1-0.4-0.2-0.5c-0.1-0.1-0.3-0.2-0.5-0.2h-5.1V76.9
			c0-0.5-0.2-0.9-0.5-1.3c-0.3-0.3-0.8-0.5-1.3-0.5h-7.3c-0.2,0-0.4,0.1-0.5,0.2c-0.1,0.1-0.2,0.3-0.2,0.5v2.3
			c0,0.2,0.1,0.4,0.2,0.5c0.1,0.1,0.3,0.2,0.5,0.2h5.2v22.7c0,0.5,0.2,0.9,0.5,1.3C867.4,103.1,867.8,103.2,868.3,103.2 M867.3,71.2
			h2.4c0.2,0,0.4-0.1,0.5-0.2c0.1-0.1,0.2-0.3,0.2-0.5v-4.3c0-0.2-0.1-0.4-0.2-0.5c-0.1-0.1-0.3-0.2-0.5-0.2h-2.4
			c-0.2,0-0.4,0.1-0.5,0.2c-0.1,0.1-0.2,0.3-0.2,0.5v4.3c0,0.2,0.1,0.4,0.2,0.5C866.9,71.1,867.1,71.2,867.3,71.2 M848.5,103.2h5
			c0.2,0,0.4-0.1,0.5-0.2c0.1-0.1,0.2-0.3,0.2-0.5v-2.3c0-0.2-0.1-0.4-0.2-0.5c-0.1-0.1-0.3-0.2-0.5-0.2l-4.5,0
			c-1.3,0-2.3-0.4-3.1-1.2c-0.8-0.8-1.2-1.8-1.2-3.1V78.8h8.8c0.2,0,0.4-0.1,0.5-0.2c0.1-0.1,0.2-0.3,0.2-0.5v-2.3
			c0-0.2-0.1-0.4-0.2-0.5c-0.1-0.1-0.3-0.2-0.5-0.2h-8.8v-5.2c0-0.2-0.1-0.4-0.2-0.5c-0.1-0.1-0.3-0.2-0.5-0.2h-2.5
			c-0.2,0-0.4,0.1-0.5,0.2c-0.1,0.1-0.2,0.3-0.2,0.5v5.2h-3.3c-0.2,0-0.4,0.1-0.5,0.2c-0.1,0.1-0.2,0.3-0.2,0.5V78
			c0,0.2,0.1,0.4,0.2,0.5c0.1,0.1,0.3,0.2,0.5,0.2h3.3v16.9c0,2.2,0.7,4,2,5.4C844.3,102.5,846.1,103.2,848.5,103.2 M817.4,100.4
			c-1.6,0-2.9-0.4-3.9-1.2c-1-0.8-1.5-1.9-1.5-3.3c0-2.6,1.7-4.2,5-4.7l1.4-0.2c4.3-0.6,6.9-0.9,7.7-1v2c0,1.3-0.4,2.5-1.1,3.9
			c-0.7,1.3-1.8,2.4-3.1,3.3C820.5,100,819,100.4,817.4,100.4 M817,103.9c1.9,0,3.6-0.4,5.2-1.3c1.6-0.8,2.9-2,4-3.5v3.4
			c0,0.2,0.1,0.4,0.2,0.5c0.1,0.1,0.3,0.2,0.5,0.2h2.1c0.2,0,0.4-0.1,0.5-0.2c0.1-0.1,0.2-0.3,0.2-0.5V83.4c0-1.8-0.4-3.4-1.3-4.7
			c-0.8-1.4-2-2.4-3.6-3.2c-1.6-0.7-3.3-1.1-5.3-1.1c-2.2,0-4.1,0.5-5.8,1.4c-1.7,0.9-3,2.2-4,3.8c-0.1,0.2-0.1,0.4-0.1,0.5
			c0,0.3,0.1,0.6,0.4,0.8l1.3,0.9c0.2,0.2,0.4,0.2,0.6,0.2c0.4,0,0.7-0.2,1-0.6c0.6-1,1.5-1.8,2.6-2.4c1.1-0.6,2.3-0.9,3.8-0.9
			c1.9,0,3.4,0.5,4.6,1.5c1.2,1,1.9,2.3,1.9,3.9v0.4c0,1-0.2,1.7-0.6,2.2c-0.4,0.5-1.1,0.8-2.1,1l-6.5,0.9c-2.7,0.4-4.7,1.3-6.2,2.7
			c-1.5,1.4-2.2,3.2-2.2,5.4c0,2.4,0.8,4.3,2.4,5.7C812.3,103.1,814.4,103.9,817,103.9 M784.7,103.2h13.8c0.2,0,0.4-0.1,0.5-0.2
			c0.1-0.1,0.2-0.3,0.2-0.5v-2.3c0-0.2-0.1-0.4-0.2-0.5c-0.1-0.1-0.3-0.2-0.5-0.2h-5.8V83.7l2.9-2.3c1.5-1.2,2.6-1.9,3.3-2.3
			c0.7-0.3,1.5-0.5,2.3-0.5h1.1c0.2,0,0.4-0.1,0.5-0.2c0.1-0.1,0.2-0.3,0.2-0.5v-2.4c0-0.2-0.1-0.4-0.2-0.5
			c-0.1-0.1-0.3-0.2-0.5-0.2h-1.5c-0.8,0-1.6,0.2-2.4,0.5c-0.7,0.3-1.7,0.9-2.9,1.9l-2.9,2.2v-2.5c0-0.5-0.2-0.9-0.5-1.3
			c-0.3-0.3-0.8-0.5-1.3-0.5h-6.2c-0.2,0-0.4,0.1-0.5,0.2c-0.1,0.1-0.2,0.3-0.2,0.5v2.1c0,0.2,0.1,0.4,0.2,0.5
			c0.1,0.1,0.3,0.2,0.5,0.2h4.1v20.9h-4.1c-0.2,0-0.4,0.1-0.5,0.2c-0.1,0.1-0.2,0.3-0.2,0.5v2.3c0,0.2,0.1,0.4,0.2,0.5
			C784.3,103.2,784.5,103.2,784.7,103.2 M766.7,100.2c-1.3,0-2.4-0.3-3.5-0.9c-1.1-0.6-1.9-1.4-2.5-2.5c-0.6-1.1-0.9-2.2-0.9-3.5V85
			c0-1.3,0.3-2.4,0.9-3.5c0.6-1.1,1.5-1.9,2.5-2.5c1.1-0.6,2.2-0.9,3.5-0.9c1.3,0,2.4,0.3,3.5,0.9c1.1,0.6,1.9,1.4,2.5,2.5
			c0.6,1.1,0.9,2.2,0.9,3.5v8.3c0,1.3-0.3,2.4-0.9,3.5c-0.6,1.1-1.4,1.9-2.5,2.5C769.2,99.9,768,100.2,766.7,100.2 M766.7,103.9
			c2,0,3.8-0.5,5.4-1.4c1.7-1,3-2.3,3.9-4c1-1.7,1.4-3.5,1.4-5.4v-7.8c0-2-0.5-3.8-1.4-5.4c-1-1.7-2.3-3-3.9-4
			c-1.7-1-3.5-1.4-5.4-1.4c-2,0-3.8,0.5-5.4,1.4s-3,2.3-3.9,4c-1,1.7-1.4,3.5-1.4,5.4V93c0,2,0.5,3.8,1.4,5.4c1,1.7,2.3,3,3.9,4
			S764.8,103.9,766.7,103.9 M736.9,100.2c-1.3,0-2.4-0.3-3.5-0.9c-1.1-0.6-1.9-1.4-2.5-2.5c-0.6-1.1-0.9-2.2-0.9-3.5V85
			c0-1.3,0.3-2.4,0.9-3.5c0.6-1.1,1.5-1.9,2.5-2.5c1.1-0.6,2.2-0.9,3.5-0.9c1.3,0,2.4,0.3,3.5,0.9c1.1,0.6,1.9,1.4,2.5,2.5
			c0.6,1.1,0.9,2.2,0.9,3.5v8.3c0,1.3-0.3,2.4-0.9,3.5c-0.6,1.1-1.4,1.9-2.5,2.5C739.4,99.9,738.2,100.2,736.9,100.2 M737.3,103.9
			c1.9,0,3.6-0.5,5.2-1.4c1.6-0.9,2.9-2.2,3.8-3.8c0.9-1.6,1.4-3.3,1.4-5.2v-8.7c0-1.9-0.5-3.6-1.4-5.2c-0.9-1.6-2.2-2.9-3.8-3.8
			c-1.6-0.9-3.3-1.4-5.2-1.4c-1.4,0-2.8,0.3-4.1,0.9c-1.3,0.6-2.4,1.5-3.3,2.6V66.2c0-0.2-0.1-0.4-0.2-0.5c-0.1-0.1-0.3-0.2-0.5-0.2
			h-2.5c-0.2,0-0.4,0.1-0.5,0.2c-0.1,0.1-0.2,0.3-0.2,0.5v36.4c0,0.2,0.1,0.4,0.2,0.5c0.1,0.1,0.3,0.2,0.5,0.2h2.3
			c0.2,0,0.4-0.1,0.5-0.2c0.1-0.1,0.2-0.3,0.2-0.5v-1.9c1,1,2.1,1.8,3.4,2.4C734.5,103.6,735.9,103.9,737.3,103.9 M703.9,100.4
			c-1.6,0-2.9-0.4-3.9-1.2c-1-0.8-1.5-1.9-1.5-3.3c0-2.6,1.7-4.2,5-4.7l1.4-0.2c4.3-0.6,6.9-0.9,7.7-1v2c0,1.3-0.4,2.5-1.1,3.9
			c-0.7,1.3-1.8,2.4-3.1,3.3C707,100,705.5,100.4,703.9,100.4 M703.5,103.9c1.9,0,3.6-0.4,5.2-1.3c1.6-0.8,2.9-2,4-3.5v3.4
			c0,0.2,0.1,0.4,0.2,0.5c0.1,0.1,0.3,0.2,0.5,0.2h2.1c0.2,0,0.4-0.1,0.5-0.2c0.1-0.1,0.2-0.3,0.2-0.5V83.4c0-1.8-0.4-3.4-1.3-4.7
			c-0.8-1.4-2-2.4-3.6-3.2c-1.6-0.7-3.3-1.1-5.3-1.1c-2.2,0-4.1,0.5-5.8,1.4c-1.7,0.9-3,2.2-4,3.8c-0.1,0.2-0.1,0.4-0.1,0.5
			c0,0.3,0.1,0.6,0.4,0.8l1.3,0.9c0.2,0.2,0.4,0.2,0.6,0.2c0.4,0,0.7-0.2,1-0.6c0.6-1,1.5-1.8,2.6-2.4c1.1-0.6,2.3-0.9,3.8-0.9
			c1.9,0,3.4,0.5,4.6,1.5c1.2,1,1.9,2.3,1.9,3.9v0.4c0,1-0.2,1.7-0.6,2.2c-0.4,0.5-1.1,0.8-2.1,1l-6.5,0.9c-2.7,0.4-4.7,1.3-6.2,2.7
			c-1.5,1.4-2.2,3.2-2.2,5.4c0,2.4,0.8,4.3,2.4,5.7C698.8,103.1,700.9,103.9,703.5,103.9 M680.7,103.2h7.4c0.2,0,0.4-0.1,0.5-0.2
			c0.1-0.1,0.2-0.3,0.2-0.5v-2.3c0-0.2-0.1-0.4-0.2-0.5c-0.1-0.1-0.3-0.2-0.5-0.2h-5.3V67.3c0-0.5-0.2-0.9-0.5-1.3
			c-0.3-0.3-0.8-0.5-1.3-0.5h-6.7c-0.2,0-0.4,0.1-0.5,0.2c-0.1,0.1-0.2,0.3-0.2,0.5v2.3c0,0.2,0.1,0.4,0.2,0.5
			c0.1,0.1,0.3,0.2,0.5,0.2h4.6v32.3c0,0.5,0.2,0.9,0.5,1.3C679.8,103.1,680.2,103.2,680.7,103.2 M662.1,103.2h7.4
			c0.2,0,0.4-0.1,0.5-0.2c0.1-0.1,0.2-0.3,0.2-0.5v-2.3c0-0.2-0.1-0.4-0.2-0.5c-0.1-0.1-0.3-0.2-0.5-0.2h-5.3V67.3
			c0-0.5-0.2-0.9-0.5-1.3c-0.3-0.3-0.8-0.5-1.3-0.5h-6.7c-0.2,0-0.4,0.1-0.5,0.2c-0.1,0.1-0.2,0.3-0.2,0.5v2.3
			c0,0.2,0.1,0.4,0.2,0.5c0.1,0.1,0.3,0.2,0.5,0.2h4.6v32.3c0,0.5,0.2,0.9,0.5,1.3C661.2,103.1,661.6,103.2,662.1,103.2
			 M639.2,100.2c-1.3,0-2.4-0.3-3.5-0.9c-1.1-0.6-1.9-1.4-2.5-2.5c-0.6-1.1-0.9-2.2-0.9-3.5V85c0-1.3,0.3-2.4,0.9-3.5
			c0.6-1.1,1.4-1.9,2.5-2.5c1.1-0.6,2.2-0.9,3.5-0.9s2.4,0.3,3.5,0.9s1.9,1.4,2.5,2.5c0.6,1.1,0.9,2.2,0.9,3.5v8.3
			c0,1.3-0.3,2.4-0.9,3.5c-0.6,1.1-1.4,1.9-2.5,2.5C641.6,99.9,640.5,100.2,639.2,100.2 M639.2,103.9c2,0,3.8-0.5,5.4-1.4
			s3-2.3,3.9-4c1-1.7,1.4-3.5,1.4-5.4v-7.8c0-2-0.5-3.8-1.4-5.4c-1-1.7-2.3-3-3.9-4s-3.5-1.4-5.4-1.4s-3.8,0.5-5.4,1.4s-3,2.3-3.9,4
			c-1,1.7-1.4,3.5-1.4,5.4V93c0,2,0.5,3.8,1.4,5.4c1,1.7,2.3,3,3.9,4S637.2,103.9,639.2,103.9 M612.1,103.9c1.8,0,3.4-0.3,4.9-0.9
			c1.5-0.6,2.9-1.5,4-2.7c0.2-0.2,0.2-0.4,0.2-0.6c0-0.3-0.1-0.5-0.2-0.6c-0.7-0.8-1.1-1.3-1.3-1.5c-0.2-0.2-0.5-0.2-0.7-0.2
			c-0.3,0-0.5,0.1-0.7,0.3c-1.7,1.6-3.7,2.4-6.1,2.4c-1.4,0-2.7-0.4-3.9-1.1c-1.2-0.8-2.1-1.8-2.8-3.1c-0.7-1.3-1-2.6-1-4.1V80.1
			c0-1.5,0.3-2.8,1-4.1c0.7-1.3,1.6-2.3,2.8-3.1c1.2-0.8,2.5-1.1,3.9-1.1c2.4,0,4.5,0.8,6.1,2.4c0.2,0.2,0.5,0.3,0.7,0.3
			c0.2,0,0.5-0.1,0.7-0.2c0.2-0.2,0.6-0.7,1.3-1.5c0.2-0.2,0.2-0.4,0.2-0.6c0-0.3-0.1-0.5-0.2-0.6c-1.2-1.2-2.5-2-4-2.7
			c-1.5-0.6-3.2-0.9-4.9-0.9c-2.2,0-4.1,0.5-6,1.6c-1.8,1.1-3.3,2.6-4.3,4.4c-1.1,1.9-1.6,3.9-1.6,6.1v11.6c0,2.2,0.5,4.2,1.6,6.1
			c1.1,1.9,2.5,3.3,4.3,4.4S610,103.9,612.1,103.9"/>
	</g>
	<g>
		<rect x="523.5" y="49.2" class="st0" width="2.8" height="143"/>
	</g>
	<g>
		<path class="st1" d="M130.4,206l-0.3-1.5c-3.3,0.4-6.6,0.5-9.9,0.5c-6.7,0-13.2-0.7-19.4-2.1l-0.5,1.8l-2,7.2l-1.5,5.5
			c7.3,1.6,14.8,2.5,22.5,2.5c4.6,0,9.2-0.3,13.7-0.9l-1.1-5.6L130.4,206z"/>
		<path class="st2" d="M166.2,202.2l-4-6.3l-0.6-0.9c-8.6,4.5-18.1,7.6-28.1,9.1c-1.1,0.2-2.2,0.3-3.4,0.4l0.3,1.5l1.4,7.4l1.1,5.6
			c0.7-0.1,1.3-0.2,2-0.3c12.3-1.9,23.9-5.9,34.3-11.7L166.2,202.2z"/>
		<path class="st3" d="M97.4,202.1c-9.6-2.5-18.6-6.6-26.7-11.9l-1.2,1.6l-4.5,6l-3.4,4.5c10,6.7,21.2,11.7,33.2,14.6
			c0.6,0.2,1.3,0.3,1.9,0.4l1.5-5.5l2-7.2l0.5-1.8C99.6,202.7,98.5,202.4,97.4,202.1"/>
		<path class="st4" d="M195.8,177.5l-5.5-5l-0.4-0.4c-7,8.6-15.6,15.8-25.3,21.3c-1,0.6-2,1.1-2.9,1.6l0.6,0.9l4,6.3l3,4.8
			c0.6-0.3,1.1-0.6,1.7-1c11.1-6.4,21-14.9,29-24.8L195.8,177.5z"/>
		<path class="st5" d="M67.9,188.2c-8-5.7-15-12.7-20.7-20.6l-1.8,1.1l-6.4,4l-4.7,3c7,9.9,15.7,18.6,25.7,25.6
			c0.5,0.4,1.1,0.8,1.6,1.1l3.4-4.5l4.5-6l1.2-1.6C69.7,189.5,68.8,188.9,67.9,188.2"/>
		<path class="st6" d="M45.2,164.8c-5.4-8.1-9.4-17-12-26.6l-2,0.4l-7.4,1.4l-5.4,1c2.9,12,8,23.2,14.7,33.1
			c0.4,0.5,0.7,1.1,1.1,1.6l4.7-3l6.4-4l1.8-1.1C46.5,166.7,45.8,165.7,45.2,164.8"/>
		<path class="st7" d="M32.4,134.8c-1.4-6.3-2.2-12.9-2.2-19.7c0-3.2,0.2-6.4,0.5-9.6l-1.8-0.3l-7.4-1.4l-5.3-1
			c-0.6,4.3-0.8,8.7-0.8,13.2c0,7.9,0.9,15.5,2.5,22.9c0.1,0.6,0.3,1.3,0.5,1.9l5.4-1l7.4-1.4l2-0.4C32.9,137,32.7,135.9,32.4,134.8
			"/>
		<path class="st8" d="M38.9,73.3l-6.4-3.9L28,66.6c-5.7,10.5-9.6,22-11.4,34.3c-0.1,0.7-0.2,1.3-0.3,2l5.3,1l7.4,1.4l1.8,0.3
			c0.1-1.1,0.3-2.3,0.4-3.4c1.4-10,4.5-19.4,8.9-28.1L38.9,73.3z"/>
		<path class="st9" d="M59.7,47.2l-4.5-6L52,37.1c-9.2,7.8-17,17.2-23,27.8c-0.3,0.6-0.7,1.2-1,1.7l4.5,2.8l6.4,3.9l1.2,0.8
			c0.5-1,1.1-2,1.6-3c4.9-8.7,11.2-16.5,18.6-23.1L59.7,47.2z"/>
		<path class="st10" d="M88.4,30.3l-2.1-7.2l-1.4-5c-11.5,4-22.2,10-31.4,17.6c-0.5,0.4-1,0.9-1.5,1.3l3.2,4.2l4.5,6l0.6,0.8
			c0.8-0.7,1.7-1.5,2.5-2.2c7.6-6.3,16.3-11.4,25.8-15L88.4,30.3z"/>
		<path class="st11" d="M124.6,25.1l0-7.5l0-5.1c-1.8-0.1-3.6-0.1-5.3-0.1c-11.3,0-22.2,1.8-32.3,5.1c-0.6,0.2-1.3,0.4-1.9,0.6
			l1.4,5l2.1,7.2l0.2,0.5c1-0.4,2.1-0.8,3.1-1.1c9-3,18.5-4.6,28.5-4.6c1.5,0,3,0,4.4,0.1V25.1z"/>
		<path d="M4.7,107c-0.1,0.5,0,1.2,0.1,1.5C4.8,108.1,4.8,107.6,4.7,107"/>
		<path d="M4.6,111.9c0-0.1,0-0.1,0-0.2C4.6,111.7,4.6,111.8,4.6,111.9"/>
		<path d="M9.8,81.6L9.8,81.6C9.8,81.6,9.8,81.6,9.8,81.6L9.8,81.6z"/>
		<path d="M8.2,87.5c-0.1,0.1-0.1,0.2-0.2,0.4C8.1,87.8,8.2,87.7,8.2,87.5"/>
		<path d="M5.6,127L5.6,127C5.6,127,5.6,127,5.6,127C5.6,127,5.6,127,5.6,127"/>
		<path d="M25.8,179.7c-3.3-4.6-7.2-11-9.5-16.2c-0.8-1-1.5-2.7-2.3-4.3l0.3-0.3c-0.2-0.4-0.5-0.9-0.7-1.4c-0.1-0.6,0.5,1.1,0.2,0
			l-0.4-0.4c0.1-0.2-1.3-3.7-0.1-1.4l-1-2.7l-0.9-2.8c-0.4-1.2-0.6-0.6-0.9-2c0-0.3,0.2,0.5,0.3,0.3c-0.5-2.1-0.9-3.2-1.5-4.4
			c-0.5-1.1-1.1-2.2-1.4-4.2l0.1,0.3c-0.2-0.6-0.5-1.9-0.6-1.9C7.4,139,8,139,8,140.3c-0.4,0-0.5-1.5-0.7-1.3
			c-0.1-1-0.4-1.5-0.6-2.3c-0.1-1.4-0.5-3.4-0.4-4.5c-0.2-0.7-0.7-1.4-0.9-2.8c0.2-1.1,0.3,0.2,0.2-1.2L5.5,128c-0.1-1.2,0-1,0.1-1
			c-0.1-1.3-0.4-1-0.4-2.6l0.3,0.9c-0.2-1.2-0.2-1.6-0.2-3.3c0.1,0,0.1,0.7,0.1,1.2c0.2-0.9-0.2-1.5-0.2-2c-0.1,0.1-0.1,1.3-0.3,0.7
			c0-0.8-0.4-1.7-0.2-2.3l0.2,0.9c-0.2-1.7-0.3-0.9-0.3-2.8c0,0.1,0.1,0.1,0.1,0.1c-0.3-1.2,0-2.8,0-4.6l0.1,0.3
			c-0.1-0.7-0.2-1.1-0.2-1.5c-0.2,1-0.2,0.8-0.4,0.8c0.4-1.4-0.3-2.1,0-4.3c0.1,0,0.2,0.6,0.1,1.2c0.3,0.8,0.6,0.9,0.7,2.3
			c0-0.9,0-1.8,0.1-1.6l-0.3-0.3c0-0.5,0-0.9,0.1-1.3c-0.2-0.2-0.4,1-0.4-0.2c0-1.4,0.4-0.7,0.2-0.9c0-1.9-0.3-0.8,0-2.6
			c0,0.2,0,0.5,0,0.7c0.2-1.3,0.2-3.1,0.7-3.5c0.1,0.2,0.2,0.2,0.1,0.7l-0.1,0c0.1,1.4,0-1.2,0.3-0.7c-0.2,0.1,0-1.7,0.2-2.5
			l-0.3,0.2c-0.3-2.8,0.4,0.2,0.7-2.4c0.1-1.7-0.2,0.6-0.2-0.4c0.2-1.1,0.5-1.5,0.7-3.2c0.2-0.4,0.5-1.3,0.8-1.4
			c0.1-1,0.7-3,0.6-3.6c-0.6,1.6-0.1,1.7-0.9,3.6l-0.1-0.6c0.3-1.4,0.6-3.1,0.9-4.1C8,88.1,7.9,88.1,7.9,88c0.4-2,0.2-2.6,0.9-4.4
			c0.3-0.2-0.1,0.9-0.3,1.7c0.5-1.2,0.4-1.3,1-3.1c0.2,0-0.4,1.2-0.3,1.5l0.6-2.1c0,0,0,0,0,0c-0.2-0.4,0.5-1.6,0.8-2.8
			c1-2.9,0.8-3.5,1.1-5.3c0.3-0.4,0.4-0.5,0.4-0.3c-0.4,0.7-0.3,0.6-0.3,0.9c0.3-1,1.2-2,1.1-1.4c0.5-1.6-0.4,0.5-0.1-0.5l0.9-2.1
			c-0.3,0.2-0.6,0.9-0.3-0.2c0.3-1,0.5-1.4,1.1-2.6c0,0.2,0.4-0.3,0,0.6c0.3-0.5,0.8-1.4,0.8-1.9c-0.8,1.2,0.9-2.2,0.2-1.3l0.8-1.2
			c-0.1,0.3-0.1,0.4-0.3,0.8c0.4-0.3,0.4-1.1,0.6-1.5c0.3-0.4,0.9-1.6,1.1-1.6c0.1-0.4,0.7-1.4,0.9-1.5c0.3-0.6-0.1-0.1-0.1-0.3
			c0.3-0.7,0.7-1.3,1.1-2c0.2,0,0.6,0,0.5,0.3c0.3-0.8-0.2-0.5,0.5-1.6c-0.1,0.8,1.1-1.4,0.8-0.3c0.5-0.5,1.6-2.4,2.2-3.4
			c0.2-0.7-0.8,1-1,0.8c1.8-2.8,1.3-3.4,2.8-5.3l-0.4,0.5c0.8-1.3,0.7-1.1,1.1-2c0,0.5,1.6-1,3.1-3c0-0.2-1.1,0.9-1,0.5l1-1.3
			c0.1-0.1,0,0.1-0.1,0.3c0.9-1.2,2-1.9,2-2.5c0.4-0.3,0.9-0.6,1.3-0.9l-0.5,0.3c0-0.2,1.1-1.5,1.3-1.8c1-1.4,1.5-1.8,2.3-2.3
			c-0.3,0.1-1,0.5-0.1-0.5c0.3,0.3,2.1-1.9,2.2-1.7c0.4-0.4,1.1-1,1.1-1.2l0.1,0.3c-0.2-0.4,1.2-1.7,2.3-2.8c0.1,0.6,1.2-1.2,2-1.2
			c-0.1-0.5,1.9-1.9,1.9-2.3c0.9-0.8,1-0.4,1.3-0.5l0.3-0.5c0.5-0.3,2.3-1.6,3.4-2.3l0.8-1l0.4-0.2c0.1-0.2,0.9-0.8,0.3-0.6l0.5-0.4
			c-0.2-0.3,0.7-0.6,1.7-1.5c0.3-0.1,0.3,0,0.1,0.2c0.5-0.4,0.4-0.1,0.8-0.2c-0.4,0.2,1.6-1.9,0-1c-0.2,0,0.6-0.7,1.2-1l0.5,0
			c0.1-0.2,0.3-0.5,0.5-0.7c0.8-0.6,1.3-0.6,2-1c-0.7,0.5-1.2,1.5,0.6,0.4c-0.9,0.6-1.3,1.1-1.8,1.4c0.4-0.2,0.6-0.3,0.1,0.2
			c1.4-1,0.4-0.5,1.7-1.4c0.1,0.3,0.5,0.1,1.8-0.6l-1,0.4c0-0.1,0.1-0.1,0.1-0.2c-0.4,0.2-0.5,0.2-0.6,0.2c0.3-0.2,1.4-1.3,1.8-1.3
			c-0.8,0.3-0.3-0.2,0.4-0.7c0.7-0.4,1.4-0.9,0.9-0.8c0.1-0.2,1.1-0.7,1.3-0.7c-1.1,0.9,1.1-0.2,1,0.1c0.4-0.3-1.1,0.3-0.5-0.1
			c0.7-0.4,1.3-0.6,1.8-0.7l-0.3,0.2c0.4-0.2,0.8-0.3,1.2-0.5c0.1-0.2-1.2,0.3-0.2-0.3c0.3-0.1,1.3-0.7,1.4-0.6
			c-0.4,0.4,0.1,0.5-0.8,1c0.7-0.4,3.1-1.6,2-1.3l0.9-0.4c-0.6,0.2-2.3,0.7-0.5-0.2l0,0.1l1.2-0.8L71.8,9c0-0.1,0.1-0.2,0.6-0.4
			c0.2,0,0.6-0.1,0.6,0c1.4-0.6,1.2-0.7,1.3-0.8c0.8-0.3,1.1-0.4,0.8-0.1c0.5-0.2,1.3-0.5,1.9-0.8c0.7-0.3,1.4-0.5,1.7-0.5
			c1.4-0.7-0.3,0.1,0.5-0.4c0.7,0,1.9-0.4,3.2-0.9c1.3-0.5,2.8-1,4-1.4c-0.8-0.2,0.6-0.3,1-0.8c-0.5,0.3,2.4-0.4,0.3,0.4
			C88.1,3,88.6,2.9,89,2.7c0.9,0-2.1,0.8-0.7,0.7c1.4-0.4,2.3-1.1,4-1.4c-0.5,0.5,1.3-0.4,0.9,0c-0.3,0.2-0.8,0.3-1.3,0.4l0.3,0
			c3.2-0.7,0.8-0.6,2.4-1.2c1.9-0.4,1.6-0.1,1.7,0c0.3,0,1.3-0.3,1.8-0.4c-1.1,0.4-2.2,0.3-1.7,0C97.5,1,99.4,0.2,99.9,0
			c-2.9,0.2-1.9,0.4-4.7,0.5c-0.3,0.2-0.2,0.5-1.8,0.7c0.9-0.4-0.1-0.2-0.4-0.1c0.3,0.1-1.1,0.4-1.5,0.6c-0.5,0,0.8-0.7-0.8-0.3
			l-0.2,0.5C90,2,90.8,1.5,89.5,1.9c0.7-0.4-0.3-0.3,1.5-0.8c-2.2,0.2-3.2,1-4.8,1.7c0.2-0.1,0.2-0.1,0.3-0.2
			c-0.3,0.2-1,0.4-1.4,0.6c-1.1,0.2,0.8-0.5,0.5-0.5l-1.7,0.6c0,0,0,0-0.1,0c-0.4,0.2-0.9,0.4-1.1,0.3c0.5-0.3,0.6-0.5,1-0.7
			c-0.6,0.3-1.2,0.6-1.7,0.9c0.2-0.2-1.6,0.3-0.3-0.2l-2.7,1.1l-0.3-0.2c-0.6,0.3-0.6,0.3,0.2,0.1c-0.5,0.1-1.4,0.6-2.2,1
			c-0.8,0.4-1.5,0.7-1.3,0.3c-2,1.1-2.8,1.3-5.2,2.6c1.8-1.2-2.3,0.8-0.4-0.3c-1.2,0.5-1.3,0.9-2.2,1.4c-0.9,0.3-0.7-0.1,0.2-0.7
			l-1,0.7l0-0.1L65.7,10c-1.1,0.4-0.3-0.1-1.4,0.4l-0.1,0.3L63.5,11c0.3,0-0.3,0.3-1,0.8l0-0.1l-0.9,0.5c0.8-0.6-0.8,0.4-0.5,0
			c-0.8,0.4-0.8,0.5-2.1,1.3h0.3c-1.7,1.2-0.2-0.2-1.6,0.7l0.2,0.1c-2.2,1-3.3,2.4-4.9,3.2c0.8-0.6,0.5-0.7,0.5-0.6
			c-0.6,0.5-1.4,1-2.3,1.6c-0.8,0.6-1.6,1.3-2.1,1.9c-0.6,0.1-0.8,0.1-2.2,1c-0.9,0.7-1,0.9-1.2,1.3c-1,0.7-2.5,2.2-2.7,2.1
			c-0.1,0.3-0.8,0.6-1.2,1.2l-0.2,0l0.2,0.1c-1.8,1.1-2.3,2.5-4.1,3.7l0.2-0.3c-0.2,0.2-0.4,0.4-0.6,0.7c-0.2,0,0-0.3,0-0.4
			l-2.8,2.9l0.7-0.5c-0.6,0.6-0.8,1.2-1.6,1.8c0.9-1.4-0.9,1-1.2,1l0.5-0.7c-0.8,0.9-0.8,0.9-0.6,1c-1,1.2-1,0.5-1.8,1.7l0.7-0.8
			c0.3-0.1-0.1,0.5-0.5,1c-0.1,0.1-0.5,0.4-0.2,0c-0.8,0.9-2,2.3-2.2,2.8c-0.5,0.5-0.4,0.2-0.3-0.1c-1.5,2.1-0.8,0.9-2.2,3l-0.1-0.1
			l-0.4,0.8l-0.9,0.9l0.4-0.3c-0.5,0.7-0.7,1.2-1.4,1.9l0.1-0.4c-1.4,2-1.8,2.1-2.9,4.2c-0.1,0.1,0-0.2,0.1-0.4
			c-0.9,1.9-1.2,1.2-2,3.2c0-0.1-0.2,0-0.2-0.1l-0.4,0.9l-0.2-0.2l-0.1,0.9l-0.5,0.4L17.2,55c-0.9,0.7-1.4,2.1-2.3,3.2l0.4-0.1
			c-1.2,3.4-4.1,7.1-5.4,11.3l-0.2-0.2L9.2,71c-0.5,0.8,0-0.6-0.2-0.4c-0.6,1.8,0,0.8-0.7,3c-0.5,1,0-0.4,0.1-1
			c-0.6,2-1.6,4.9-2.1,6.3c0,0,0,0.1,0.1,0.1c-0.3,1.4-0.9,3.1-1.4,4.6c-0.1-0.1,0-0.4,0.1-0.8C5,83.3,4.7,84,4.7,84.5l0-0.6
			c-0.3,1.1-0.7,3.4-1,3.6c0.1-0.1,0.3,0,0,1c-0.5,0.5-0.4,2.7-0.9,4.3c0-0.2,0.2-1.4,0.1-1.1c-0.2,0.8-0.2,1.5-0.3,2.3l-0.1-0.2
			c-0.2,1.2-0.3,2.5-0.4,3.8c-0.4,0.5-0.5,3.6-0.7,3.3c-0.1,1.3,0.3-1.1,0.1,0.6c-0.2,0.4-0.1,1.5-0.3,1.5l0-0.2l-0.1,1.2L1,103
			c-0.1,1,0.1,1.8,0.3,1.9c-0.2,1-0.2,2.4-0.4,2.8l0-0.4c0,2.7-0.9,4.5-0.5,6.7c0,0.2-0.1,0.1-0.1-0.2l0,1.7L0,115.1l0.3,2.8l-0.1,0
			c0,1.9,0.2,4.8,0.4,7.2l-0.1-0.4c0.4,2.6,0.1,2.5,0.5,4.4c0-0.1-0.1-0.1-0.1-0.2l0.2,1.7l-0.1-0.4c0.4,1.2,0.2,3.7,0.3,2.8
			c0.2,0.7,0.5,1.9,0.7,2.1c0.3,1.9-0.1,0.5,0,1.6c0.2,1.3,0.5,1.5,0.8,3.4l-0.1,0c0.2,0.8,0.4,1.3,0.6,2.5l-0.1-0.3
			c0.7,1.9,0.3,2.4,1.1,3.8c0.1,0.8,0.6,2.3,0.3,2.3c0.8,2.3,1.5,4.1,2.3,6.4c-0.2,0.5,0.2,0.5,0.5,1.9l0.2-0.2
			c1.2,3.2,2.2,7,3.9,10.4l-0.1,0.2l0.5,0.6c0.9,1.8,1.8,4,2.9,5.9c0.5,1,1.1,1.9,1.5,2.8c0.5,0.9,1,1.7,1.4,2.4
			c0.7,0.8,1.7,2.1,2.6,3.5l-0.1-0.1c1.7,2.4,3.6,4.9,5.5,7.4c-0.2-0.1,0,0.2-0.3-0.1c0.6,0.5,1.1,1.5,1.6,2
			c-0.1-0.2-0.3-0.5-0.4-0.7c0.7,0.6,1.4,1.7,1.6,2.1l1.1,1c0,0.1,0.1,0.2,0.1,0.3l0.2,0.1l0.3,0.8c0.2,0.3,1.6,1.6,2.2,1.9
			c0,0.2,0.9,1.2,0.2,0.5c1.2,1.3,2.3,2.6,3.6,3.8l-0.5-0.6c0.1-0.2,1.3,0.8,1.8,1.4c-0.9-0.6-0.3,0.1,0,0.6c0.6,0.4-0.3-0.6,0-0.4
			c0.7,0.5,2.1,1.8,2.5,2.2l-0.5-0.3c1,0.8,1.1,1.4,2.1,2.2c0.9,0.6,1.4,1.2,1.5,0.8c1.2,1,0.3,0.6,0.7,0.9c0.7,0.3,2.3,1.8,2.4,2.1
			c0.5,0.1,1.3,0.8,2,1.4c0.8,0.6,1.5,1.2,1.7,1.1l0.9,1c0.1-0.1,0.5-0.1,1.3,0.4c0.7,0.7,0.4,0.7,0.6,1l0.8,0c4.4,3.6,11,7,16.5,10
			c2.5,1.1,5.8,2.3,8.8,3.5l-0.4-0.1l3,1.2l-2.1-1c0.7,0.2,1.2,0.3,1.9,0.5c0.8,0.3,1.7,0.7,2.6,1.1c1,0.3,1.9,0.7,3,1
			c2,0.7,4.2,1.2,6.4,1.7c2.8,0.2,1.7,0.9,4.4,1.1c-0.2,0-0.3,0-0.5,0.1c1.4,0.2,2.5,0.3,3.7,0.5c1.1,0.1,2.2,0.2,3.7,0.2
			c-0.4,0.4,1.9,0.3,1.6,0.5l0.3-0.2c0.6,0.2,2.1,0.4,1.9,0.5l1.3-0.1l0.1,0.2c0.8,0.1,2.2,0.2,3.4,0.3c1.2,0.1,2.4,0.2,2.8,0.4
			c4.2,0,10.8-0.1,16.1-0.5c0.7-0.2,2.2-0.4,3.4-0.6l1.3,0.1c1.2-0.2,2.4-0.8,3.6-0.8c0,0,0,0.1-0.1,0.1c1.2-0.3,2.4-0.3,3.5-0.7
			c1.3-0.3,2.7-0.4,2.3-0.1c0-0.4,2.8-0.5,2.8-0.5s0.3-0.1,0.8-0.2c0.5-0.1,1.2-0.3,2.2-0.5c0.9-0.2,2.1-0.5,3.4-0.9
			c1.3-0.4,2.8-0.9,4.4-1.3c6.5-2.1,15.2-5.6,23.7-10.6c8.5-5,16.7-11.5,22.9-18c6.3-6.4,10.6-12.7,12.7-16.4c0.2-0.6,1-1.9,0.4-1.6
			c0.6-1,1.2-1.3,1.2-1.6c-1.1,1.3-0.1-0.7-1.3,0.5l0.6-0.9c0-0.3-0.7,1.2-0.7,0.9l0.1,0.4c-0.5,0.6-0.9,1-1.1,1.1
			c-0.3,0.7-0.2,1.4-1.5,2.8l0.3-0.4c-0.9,1.2-0.8,0.6-1,0.8l0.2-0.3l-0.9,0.9c0.7-0.7,1.5-2.1,1-1.4c-1.2,1.4,0.4-0.3-0.4,0.8
			c-0.5,0.7-0.5,0.4-0.6,0.3l-0.9,1.2c-0.1-0.1,0.6-0.8,0.1-0.4l-1,1.6c-0.5,0-1.2,1.7-2,2.1c0.8-1.1-0.2,0-0.2-0.3l-2.2,2.5
			c-0.3,0.2,0.5-0.8,0.2-0.4c-0.5,0.4-0.6,0.8-0.8,1.1c-0.3,0.1-1.7,1.8-1.9,1.5c-1.7,1.5-0.4,1-2,2.3c-0.3,0.1,1.1-1.2,0.4-0.7
			c-0.5,0.5-1,1-1.5,1.6c0.1-0.2,0.1-0.5,0.7-1c-2.2,1.9-4,3.3-5.9,4.5c-0.9,0.6-1.8,1.2-2.7,1.9c-0.9,0.7-1.9,1.4-2.9,2.2
			c-0.7,0.3,0.3-0.4,0.7-0.9c-2.9,2.6-4.6,2.9-7.3,4.8l0,0.2c-4.1,2-8.6,5.2-13.4,7.2l0.6-0.2c-0.6,0.5-1.6,1-2.3,1.4
			c-0.2,0,0.4-0.6-0.9,0.1c0.3-0.1,0.9-0.3,0.8-0.1c-2.1,0.7-5.3,2.1-8.9,3.3c-1.8,0.7-3.7,1.2-5.6,1.8c-1.9,0.6-3.8,1.1-5.5,1.5
			c-4.7,1.3-9.8,2.2-14.8,2.8c-2.5,0.2-5.1,0.5-7.6,0.6c-1.3,0.1-2.5,0.1-3.7,0.2c-1.2,0-2.4,0-3.7,0c1.5,0,0.8,0.4-0.3,0.3
			c-1.5-0.3-2.8-0.4-4.1-0.4c-1.3,0-2.7,0.1-4.2-0.3c-5.6-0.2-10.5-1.7-15.7-2.2l0-0.2c-0.7-0.3-1-0.2-1.8-0.4l0,0
			c-1.9-0.5-4.2-0.9-5.2-1.3l-0.1,0.2c-1.1-0.3-0.5-0.3-1.7-0.6l0.1-0.1l-1.4-0.2c0.2-0.3-3.1-1.1-3.9-1.6c-1.4-0.4-4.1-1.3-6.2-2.2
			c-0.3-0.3-2.8-1.5-4.4-2.3c-3.1-1.4-7.5-3.7-11.2-6l-0.1,0.3c-0.3-0.2-0.6-0.4-1-0.6c0,0-0.1-0.1,0.1-0.1c-0.6-0.7-2.2-1.4-2.9-2
			c0.4,0.5,0.7,0.5,1.2,0.8c0.7,0.6-0.2,0.3-1.2-0.5l0,0l-0.8-0.4c0-0.2-0.6-0.7-0.5-1c-1.5-1.1-2.9-1.9-4.2-2.8
			c-1.3-0.9-2.6-1.9-4.1-3.1c0.4,0.1-2.1-1.8-1.3-1.6c-1.8-1.4,0.1,0.5-0.9,0c-0.5-0.4-1.1-0.8-1.1-1c0.3,0.1-0.2-0.5,0.2-0.2
			l-1.2-1c-0.1-0.1,0.2,0.1,0.3,0.2c-1.3-1-2.2-2-3.1-3c-1-1-1.8-2-2.9-2.9c-0.2-0.1,0.7,0.9,0.5,0.8c-2.1-1.9-1.6-2-3.5-3.9
			l0.5,0.3c-0.7-0.6-1-0.7-1.8-1.9c0-0.3,0.9,0.8,1.4,1.2c-0.6-0.7-2.2-2.6-1.9-1.9c-0.8-0.9-0.9-1.3-1.3-1.8c-0.1,0,0.6,1,0,0.5
			c-0.9-1.3-2.4-3.3-3.5-4.8c0.1,0,0-0.2,0.2-0.1C26.5,181.6,27,181.5,25.8,179.7"/>
		<path d="M10.1,80.9l-0.3,0.7c0,0,0.1,0.1,0,0.4L10.1,80.9z"/>
		<path d="M4.7,117.7c0,0.1,0,0.2,0.1,0.3C4.8,117.8,4.8,117.7,4.7,117.7"/>
		<path d="M5.7,126.7c-0.1-0.6-0.1-0.1-0.1,0.3C5.6,127,5.7,127,5.7,126.7"/>
		<path d="M17.6,61.1c0,0.1-0.1,0.2,0,0.2C17.7,61.1,17.7,61.1,17.6,61.1"/>
		<path d="M56.7,18c-0.1,0-0.1,0.1-0.2,0.1C56.6,18.1,56.6,18.1,56.7,18"/>
		<path d="M53.8,19.6c-0.1,0.1-0.3,0.2-0.5,0.4C53.6,19.8,53.7,19.7,53.8,19.6"/>
		<path d="M11.9,74.1c-0.1,0.2-0.1,0.4-0.1,0.6C11.8,74.4,11.8,74.2,11.9,74.1"/>
		<path d="M52.8,20.4c-0.2,0.2-0.5,0.3-0.7,0.5c0,0,0,0,0,0C52.3,20.7,52.6,20.6,52.8,20.4"/>
		<path d="M57.6,17.5c-0.3,0.2-0.6,0.4-0.9,0.5C57.1,17.8,57.4,17.7,57.6,17.5"/>
		<path d="M29.2,42.8C29.1,42.8,29.1,42.9,29.2,42.8C28.8,43.5,29,43.1,29.2,42.8"/>
		<path d="M75.5,100.4c-2.2-1.3-3.9-3-5.2-5.2c-1.3-2.2-1.9-4.6-1.9-7.2V76.3c0-2.6,0.6-5,1.9-7.2c1.3-2.2,3-3.9,5.2-5.2
			c2.2-1.3,4.6-1.9,7.2-1.9c2.3,0,4.4,0.4,6.4,1.2c2,0.8,3.6,2,5,3.6c0.2,0.3,0.3,0.6,0.3,0.9c0,0.4-0.1,0.7-0.4,1.1l-2.4,2.5
			c-0.3,0.3-0.6,0.4-0.9,0.4c-0.4,0-0.7-0.2-1-0.5c-1.8-1.9-4.1-2.9-7-2.9c-1.4,0-2.7,0.4-3.9,1.1s-2.1,1.7-2.9,2.9
			c-0.7,1.2-1.1,2.6-1.1,4v11.6c0,1.4,0.4,2.7,1.1,4c0.7,1.2,1.7,2.2,2.9,2.9c1.2,0.7,2.5,1.1,3.9,1.1c1.4,0,2.7-0.3,3.9-1
			c1.2-0.7,2.1-1.6,2.8-2.8c0.7-1.2,1-2.5,1-3.9v-2.7h-7.3c-0.3,0-0.6-0.1-0.8-0.3c-0.2-0.2-0.3-0.5-0.3-0.8v-3.9
			c0-0.3,0.1-0.6,0.3-0.8c0.2-0.2,0.5-0.3,0.8-0.3h11.5c0.7,0,1.2,0.2,1.7,0.7c0.5,0.5,0.7,1,0.7,1.7v6.3c0,2.6-0.6,5-1.9,7.2
			c-1.3,2.2-3,3.9-5.2,5.2c-2.2,1.3-4.6,1.9-7.2,1.9C80.2,102.3,77.7,101.7,75.5,100.4"/>
		<path d="M104.5,100.9c-0.5-0.5-0.7-1-0.7-1.7V63.8c0-0.3,0.1-0.6,0.3-0.8c0.2-0.2,0.5-0.3,0.8-0.3h4.4c0.3,0,0.6,0.1,0.8,0.3
			c0.2,0.2,0.3,0.5,0.3,0.8v31.4h12.6c0.3,0,0.6,0.1,0.8,0.3c0.2,0.2,0.3,0.5,0.3,0.8v4.1c0,0.3-0.1,0.6-0.3,0.8
			c-0.2,0.2-0.5,0.3-0.8,0.3h-16.9C105.5,101.6,104.9,101.4,104.5,100.9"/>
		<path d="M145.9,94.9c1.2-0.7,2.1-1.7,2.9-2.9c0.7-1.2,1.1-2.6,1.1-4V76.3c0-1.4-0.4-2.7-1.1-4c-0.7-1.2-1.7-2.2-2.9-2.9
			c-1.2-0.7-2.5-1.1-3.9-1.1c-1.4,0-2.7,0.4-3.9,1.1c-1.2,0.7-2.1,1.7-2.9,2.9c-0.7,1.2-1.1,2.6-1.1,4v11.6c0,1.4,0.4,2.7,1.1,4
			c0.7,1.2,1.7,2.2,2.9,2.9c1.2,0.7,2.5,1.1,3.9,1.1C143.4,95.9,144.7,95.6,145.9,94.9 M134.8,100.4c-2.2-1.3-4-3-5.3-5.2
			c-1.3-2.2-1.9-4.6-1.9-7.2V76.3c0-2.6,0.6-5,1.9-7.2c1.3-2.2,3-3.9,5.3-5.2c2.2-1.3,4.6-1.9,7.2-1.9c2.6,0,5,0.6,7.2,1.9
			c2.2,1.3,4,3,5.3,5.2c1.3,2.2,1.9,4.6,1.9,7.2v11.6c0,2.6-0.6,5-1.9,7.2c-1.3,2.2-3,3.9-5.3,5.2c-2.2,1.3-4.6,1.9-7.2,1.9
			C139.4,102.3,137,101.7,134.8,100.4"/>
		<path d="M177,95.4c1.6,0,3-0.5,4-1.6c1.1-1.1,1.6-2.4,1.6-4.1c0-1.6-0.5-2.9-1.6-3.9c-1.1-1-2.4-1.6-4-1.6h-6.8v11.1H177z
			 M175.1,78.4c1.4,0,2.6-0.5,3.6-1.4c1-0.9,1.5-2.1,1.5-3.3c0-1.3-0.5-2.5-1.5-3.4c-1-0.9-2.2-1.4-3.6-1.4h-5v9.6H175.1z
			 M164.3,100.9c-0.5-0.5-0.7-1-0.7-1.7V65c0-0.7,0.2-1.2,0.7-1.7c0.5-0.5,1-0.7,1.7-0.7h9.6c2,0,3.9,0.5,5.6,1.5c1.7,1,3,2.3,4,3.9
			c1,1.7,1.5,3.5,1.5,5.5c0,2.7-1.1,5-3.4,6.9c1.9,0.8,3.3,2,4.3,3.6c1,1.6,1.5,3.5,1.5,5.7c0,2.2-0.5,4.2-1.6,6
			c-1.1,1.8-2.5,3.2-4.3,4.3c-1.8,1.1-3.8,1.6-6,1.6H166C165.3,101.6,164.8,101.4,164.3,100.9"/>
		<path d="M212.6,86.4l-4.5-14.5l-4.5,14.5H212.6z M192.9,101.2c-0.3-0.2-0.4-0.5-0.4-0.9c0-0.2,0-0.3,0.1-0.4l11.8-36.3
			c0.1-0.4,0.3-0.7,0.6-0.9c0.3-0.2,0.7-0.3,1.1-0.3h4.3c0.4,0,0.8,0.1,1.1,0.3c0.3,0.2,0.5,0.5,0.6,0.9l11.8,36.3
			c0,0.1,0.1,0.3,0.1,0.4c0,0.4-0.1,0.7-0.4,0.9c-0.3,0.2-0.6,0.4-0.9,0.4h-3.9c-0.4,0-0.8-0.1-1.1-0.4c-0.3-0.2-0.5-0.5-0.6-0.9
			l-2.4-7.8h-12.7l-2.4,7.8c-0.1,0.4-0.3,0.7-0.6,0.9c-0.3,0.2-0.7,0.4-1.1,0.4h-3.8C193.4,101.6,193.1,101.5,192.9,101.2"/>
		<path d="M230.2,100.9c-0.5-0.5-0.7-1-0.7-1.7V63.8c0-0.3,0.1-0.6,0.3-0.8c0.2-0.2,0.5-0.3,0.8-0.3h4.4c0.3,0,0.6,0.1,0.8,0.3
			c0.2,0.2,0.3,0.5,0.3,0.8v31.4h12.6c0.3,0,0.6,0.1,0.8,0.3c0.2,0.2,0.3,0.5,0.3,0.8v4.1c0,0.3-0.1,0.6-0.3,0.8
			c-0.2,0.2-0.5,0.3-0.8,0.3h-16.9C231.2,101.6,230.7,101.4,230.2,100.9"/>
		<path d="M268.9,101.3c-0.2-0.2-0.3-0.5-0.3-0.8V63.8c0-0.3,0.1-0.6,0.3-0.8c0.2-0.2,0.5-0.3,0.8-0.3h4.4c0.3,0,0.6,0.1,0.8,0.3
			c0.2,0.2,0.3,0.5,0.3,0.8v14.7h16.1V63.8c0-0.3,0.1-0.6,0.3-0.8c0.2-0.2,0.5-0.3,0.8-0.3h4.4c0.3,0,0.6,0.1,0.8,0.3
			c0.2,0.2,0.3,0.5,0.3,0.8v36.6c0,0.3-0.1,0.6-0.3,0.8c-0.2,0.2-0.5,0.3-0.8,0.3h-4.4c-0.3,0-0.6-0.1-0.8-0.3
			c-0.2-0.2-0.3-0.5-0.3-0.8V84.8h-16.1v15.7c0,0.3-0.1,0.6-0.3,0.8c-0.2,0.2-0.5,0.3-0.8,0.3h-4.4
			C269.4,101.6,269.1,101.5,268.9,101.3"/>
		<path d="M306.8,100.9c-0.5-0.5-0.7-1-0.7-1.7V65c0-0.7,0.2-1.2,0.7-1.7c0.5-0.5,1-0.7,1.7-0.7H327c0.3,0,0.6,0.1,0.8,0.3
			c0.2,0.2,0.3,0.5,0.3,0.8v4.1c0,0.3-0.1,0.6-0.3,0.8c-0.2,0.2-0.5,0.3-0.8,0.3h-14.3v9.3h10.6c0.3,0,0.6,0.1,0.8,0.3
			c0.2,0.2,0.3,0.5,0.3,0.8v3.9c0,0.3-0.1,0.6-0.3,0.8c-0.2,0.2-0.5,0.3-0.8,0.3h-10.6v10.8H327c0.3,0,0.6,0.1,0.8,0.3
			c0.2,0.2,0.3,0.5,0.3,0.8v4.1c0,0.3-0.1,0.6-0.3,0.8c-0.2,0.2-0.5,0.3-0.8,0.3h-18.6C307.8,101.6,307.3,101.4,306.8,100.9"/>
		<path d="M353,86.4l-4.5-14.5L344,86.4H353z M333.3,101.2c-0.3-0.2-0.4-0.5-0.4-0.9c0-0.2,0-0.3,0.1-0.4l11.8-36.3
			c0.1-0.4,0.3-0.7,0.6-0.9c0.3-0.2,0.7-0.3,1.1-0.3h4.2c0.4,0,0.8,0.1,1.1,0.3c0.3,0.2,0.5,0.5,0.6,0.9l11.8,36.3
			c0,0.1,0.1,0.3,0.1,0.4c0,0.4-0.1,0.7-0.4,0.9c-0.3,0.2-0.6,0.4-0.9,0.4H359c-0.4,0-0.8-0.1-1.1-0.4c-0.3-0.2-0.5-0.5-0.6-0.9
			l-2.4-7.8h-12.7l-2.4,7.8c-0.1,0.4-0.3,0.7-0.6,0.9c-0.3,0.2-0.7,0.4-1.1,0.4h-3.8C333.8,101.6,333.5,101.5,333.3,101.2"/>
		<path d="M370.6,100.9c-0.5-0.5-0.7-1-0.7-1.7V63.8c0-0.3,0.1-0.6,0.3-0.8c0.2-0.2,0.5-0.3,0.8-0.3h4.4c0.3,0,0.6,0.1,0.8,0.3
			c0.2,0.2,0.3,0.5,0.3,0.8v31.4h12.6c0.3,0,0.6,0.1,0.8,0.3c0.2,0.2,0.3,0.5,0.3,0.8v4.1c0,0.3-0.1,0.6-0.3,0.8
			c-0.2,0.2-0.5,0.3-0.8,0.3h-16.9C371.6,101.6,371.1,101.4,370.6,100.9"/>
		<path d="M399.5,101.3c-0.2-0.2-0.3-0.5-0.3-0.8V69H390c-0.3,0-0.6-0.1-0.8-0.3c-0.2-0.2-0.3-0.5-0.3-0.8v-4.1
			c0-0.3,0.1-0.6,0.3-0.8c0.2-0.2,0.5-0.3,0.8-0.3h24.9c0.3,0,0.6,0.1,0.8,0.3c0.2,0.2,0.3,0.5,0.3,0.8v4.1c0,0.3-0.1,0.6-0.3,0.8
			c-0.2,0.2-0.5,0.3-0.8,0.3h-9.1v31.4c0,0.3-0.1,0.6-0.3,0.8c-0.2,0.2-0.5,0.3-0.8,0.3h-4.4C400,101.6,399.7,101.5,399.5,101.3"/>
		<path d="M422.4,101.3c-0.2-0.2-0.3-0.5-0.3-0.8V63.8c0-0.3,0.1-0.6,0.3-0.8c0.2-0.2,0.5-0.3,0.8-0.3h4.4c0.3,0,0.6,0.1,0.8,0.3
			c0.2,0.2,0.3,0.5,0.3,0.8v14.7h16.1V63.8c0-0.3,0.1-0.6,0.3-0.8c0.2-0.2,0.5-0.3,0.8-0.3h4.4c0.3,0,0.6,0.1,0.8,0.3
			c0.2,0.2,0.3,0.5,0.3,0.8v36.6c0,0.3-0.1,0.6-0.3,0.8c-0.2,0.2-0.5,0.3-0.8,0.3H446c-0.3,0-0.6-0.1-0.8-0.3
			c-0.2-0.2-0.3-0.5-0.3-0.8V84.8h-16.1v15.7c0,0.3-0.1,0.6-0.3,0.8c-0.2,0.2-0.5,0.3-0.8,0.3h-4.4
			C422.9,101.6,422.6,101.5,422.4,101.3"/>
		<path d="M81,143.3c1.4,0,2.7-0.3,3.8-1c1.2-0.7,2.1-1.6,2.8-2.7c0.7-1.2,1-2.4,1-3.8c0-1.3-0.3-2.6-1-3.8
			c-0.7-1.2-1.6-2.1-2.8-2.7c-1.2-0.7-2.4-1-3.8-1h-6.4v15H81z M70.4,161.7c-0.1-0.1-0.2-0.3-0.2-0.5V126c0-0.5,0.2-1,0.6-1.4
			c0.4-0.4,0.8-0.6,1.4-0.6h9.1c2.2,0,4.2,0.5,6,1.6c1.8,1.1,3.2,2.5,4.3,4.2c1.1,1.8,1.6,3.7,1.6,5.9c0,2.1-0.5,4.1-1.6,5.9
			c-1.1,1.8-2.5,3.2-4.3,4.3c-1.8,1.1-3.8,1.6-6,1.6h-6.6v13.7c0,0.2-0.1,0.4-0.2,0.5c-0.1,0.1-0.3,0.2-0.5,0.2h-2.9
			C70.7,161.9,70.5,161.8,70.4,161.7"/>
		<path d="M111.1,141.8c2,0,3.6-0.6,4.9-1.9c1.3-1.3,1.9-2.9,1.9-4.8c0-2-0.6-3.6-1.9-4.9c-1.3-1.3-2.9-1.9-4.9-1.9h-6.6v13.6H111.1
			z M100.2,161.7c-0.1-0.1-0.2-0.3-0.2-0.5V126c0-0.5,0.2-1,0.6-1.4c0.4-0.4,0.8-0.6,1.4-0.6h9.5c2,0,3.9,0.5,5.6,1.5
			c1.7,1,3,2.3,4,4c1,1.7,1.5,3.5,1.5,5.5c0,2.7-0.8,5-2.5,7c-1.7,2-3.8,3.2-6.3,3.8l9,14.6c0.1,0.1,0.2,0.3,0.2,0.5
			c0,0.3-0.1,0.5-0.3,0.7c-0.2,0.2-0.4,0.3-0.7,0.3h-2.8c-0.4,0-0.6-0.2-0.8-0.5l-9.5-15.4h-4.2v15.1c0,0.2-0.1,0.4-0.2,0.5
			c-0.1,0.1-0.3,0.2-0.5,0.2h-2.9C100.6,161.9,100.4,161.8,100.2,161.7"/>
		<path d="M146.8,157.2c1.4-0.8,2.4-2,3.2-3.3c0.8-1.4,1.2-2.9,1.2-4.5v-12.7c0-1.6-0.4-3.1-1.2-4.5c-0.8-1.4-1.9-2.5-3.2-3.3
			c-1.4-0.8-2.8-1.3-4.4-1.3s-3.1,0.4-4.4,1.3c-1.4,0.8-2.4,2-3.2,3.3c-0.8,1.4-1.2,2.9-1.2,4.5v12.7c0,1.6,0.4,3.1,1.2,4.5
			c0.8,1.4,1.9,2.5,3.2,3.3c1.4,0.8,2.8,1.2,4.4,1.2S145.5,158,146.8,157.2 M135.7,160.8c-2.1-1.2-3.7-2.8-4.9-4.8
			c-1.2-2-1.8-4.2-1.8-6.6v-12.7c0-2.4,0.6-4.6,1.8-6.6c1.2-2,2.8-3.6,4.9-4.8c2.1-1.2,4.3-1.8,6.7-1.8c2.4,0,4.6,0.6,6.7,1.8
			c2.1,1.2,3.7,2.8,4.9,4.8c1.2,2,1.8,4.3,1.8,6.6v12.7c0,2.4-0.6,4.6-1.8,6.6c-1.2,2-2.8,3.6-4.9,4.8c-2.1,1.2-4.3,1.8-6.7,1.8
			C140,162.6,137.8,162,135.7,160.8"/>
		<path d="M170,160.7c-2-1.2-3.6-2.8-4.8-4.8c-1.2-2-1.8-4.2-1.8-6.6v-12.7c0-2.4,0.6-4.6,1.8-6.6c1.2-2,2.8-3.6,4.8-4.8
			c2-1.2,4.2-1.8,6.6-1.8c2,0,3.9,0.3,5.6,1c1.7,0.7,3.2,1.7,4.5,2.9c0.2,0.1,0.3,0.4,0.3,0.7c0,0.3-0.1,0.5-0.3,0.7
			c-0.3,0.3-0.8,0.8-1.5,1.6c-0.3,0.2-0.5,0.3-0.8,0.3c-0.3,0-0.6-0.1-0.8-0.4c-1.9-1.7-4.2-2.6-7-2.6c-1.6,0-3.1,0.4-4.4,1.3
			c-1.4,0.8-2.4,2-3.2,3.3c-0.8,1.4-1.2,2.9-1.2,4.5v12.7c0,1.6,0.4,3.1,1.2,4.5c0.8,1.4,1.9,2.5,3.2,3.3c1.4,0.8,2.8,1.2,4.4,1.2
			c1.6,0,3.1-0.4,4.4-1.2c1.3-0.8,2.4-1.9,3.2-3.2c0.8-1.4,1.2-2.8,1.2-4.4v-4.3h-7.7c-0.2,0-0.4-0.1-0.5-0.2
			c-0.1-0.1-0.2-0.3-0.2-0.5v-2.5c0-0.2,0.1-0.4,0.2-0.5c0.1-0.1,0.3-0.2,0.5-0.2h10.1c0.5,0,1,0.2,1.4,0.6c0.4,0.4,0.6,0.8,0.6,1.4
			v6.2c0,2.4-0.6,4.6-1.8,6.6c-1.2,2-2.8,3.6-4.8,4.8c-2,1.2-4.3,1.8-6.6,1.8C174.2,162.5,172,161.9,170,160.7"/>
		<path d="M208.7,141.8c2,0,3.6-0.6,4.9-1.9c1.3-1.3,1.9-2.9,1.9-4.8c0-2-0.6-3.6-1.9-4.9c-1.3-1.3-2.9-1.9-4.9-1.9H202v13.6H208.7z
			 M197.8,161.7c-0.1-0.1-0.2-0.3-0.2-0.5V126c0-0.5,0.2-1,0.6-1.4s0.8-0.6,1.4-0.6h9.5c2,0,3.9,0.5,5.6,1.5c1.7,1,3,2.3,4,4
			c1,1.7,1.5,3.5,1.5,5.5c0,2.7-0.8,5-2.5,7c-1.7,2-3.8,3.2-6.3,3.8l9,14.6c0.1,0.1,0.2,0.3,0.2,0.5c0,0.3-0.1,0.5-0.3,0.7
			c-0.2,0.2-0.4,0.3-0.7,0.3h-2.8c-0.4,0-0.6-0.2-0.8-0.5l-9.5-15.4H202v15.1c0,0.2-0.1,0.4-0.2,0.5c-0.1,0.1-0.3,0.2-0.5,0.2h-2.9
			C198.1,161.9,197.9,161.8,197.8,161.7"/>
		<path d="M228.2,161.3c-0.4-0.4-0.6-0.8-0.6-1.4V126c0-0.5,0.2-1,0.6-1.4c0.4-0.4,0.8-0.6,1.4-0.6h17.9c0.2,0,0.4,0.1,0.5,0.2
			c0.1,0.1,0.2,0.3,0.2,0.5v2.7c0,0.2-0.1,0.4-0.2,0.5c-0.1,0.1-0.3,0.2-0.5,0.2h-15.4v11.7h11.8c0.2,0,0.4,0.1,0.5,0.2
			c0.1,0.1,0.2,0.3,0.2,0.5v2.6c0,0.2-0.1,0.4-0.2,0.5c-0.1,0.1-0.3,0.2-0.5,0.2h-11.8v13.7h15.4c0.2,0,0.4,0.1,0.5,0.2
			c0.1,0.1,0.2,0.3,0.2,0.5v2.7c0,0.2-0.1,0.4-0.2,0.5c-0.1,0.1-0.3,0.2-0.5,0.2h-17.9C229.1,161.9,228.6,161.7,228.2,161.3"/>
		<path d="M258.5,161.8c-1.8-0.5-3.3-1.2-4.7-2.1c-0.1-0.1-0.2-0.2-0.3-0.4c0-0.2,0-0.4,0-0.5l1.3-2.4c0.2-0.3,0.4-0.5,0.8-0.5
			c0.2,0,0.3,0,0.4,0.1c2.8,1.7,5.4,2.5,7.9,2.5c2.3,0,4.2-0.6,5.7-1.8c1.5-1.2,2.2-2.8,2.2-4.8c0-1.3-0.3-2.4-1-3.2
			c-0.7-0.8-1.5-1.5-2.4-2c-1-0.5-2.3-1.1-4.1-1.8c-2.3-0.9-4.1-1.7-5.5-2.4c-1.4-0.7-2.6-1.8-3.6-3.2c-1-1.4-1.5-3.2-1.5-5.5
			c0-2.2,0.5-4.2,1.6-5.7c1.1-1.6,2.5-2.8,4.3-3.5c1.8-0.8,3.7-1.1,5.9-1.1c1.7,0,3.4,0.2,5.1,0.7c1.7,0.5,3.1,1.2,4.4,2
			c0.1,0.1,0.2,0.2,0.3,0.4c0,0.2,0,0.4-0.1,0.6l-1.2,2.2c-0.1,0.2-0.3,0.4-0.5,0.4c-0.2,0.1-0.4,0-0.7-0.1
			c-2.4-1.5-4.9-2.2-7.3-2.2c-2.2,0-4,0.5-5.3,1.6c-1.3,1.1-2,2.6-2,4.5c0,1.3,0.3,2.4,1,3.2c0.7,0.9,1.5,1.5,2.4,2
			c1,0.5,2.3,1.1,4.1,1.8c0.3,0.1,1.6,0.6,3.7,1.4c2.1,0.8,3.8,2,5.1,3.7c1.2,1.6,1.9,3.6,1.9,5.9c0,2.2-0.5,4.2-1.6,5.9
			s-2.6,3-4.4,3.8c-1.9,0.9-4.1,1.3-6.5,1.3C262.1,162.6,260.3,162.3,258.5,161.8"/>
		<path d="M286.4,161.8c-1.8-0.5-3.3-1.2-4.7-2.1c-0.1-0.1-0.2-0.2-0.3-0.4c0-0.2,0-0.4,0-0.5l1.3-2.4c0.2-0.3,0.4-0.5,0.8-0.5
			c0.2,0,0.3,0,0.4,0.1c2.8,1.7,5.4,2.5,7.9,2.5c2.3,0,4.2-0.6,5.7-1.8c1.5-1.2,2.2-2.8,2.2-4.8c0-1.3-0.3-2.4-1-3.2
			c-0.7-0.8-1.5-1.5-2.4-2c-1-0.5-2.3-1.1-4.1-1.8c-2.3-0.9-4.1-1.7-5.5-2.4c-1.4-0.7-2.6-1.8-3.6-3.2c-1-1.4-1.5-3.2-1.5-5.5
			c0-2.2,0.5-4.2,1.6-5.7c1.1-1.6,2.5-2.8,4.3-3.5c1.8-0.8,3.7-1.1,5.9-1.1c1.7,0,3.4,0.2,5.1,0.7c1.7,0.5,3.1,1.2,4.4,2
			c0.1,0.1,0.2,0.2,0.3,0.4c0,0.2,0,0.4-0.1,0.6l-1.2,2.2c-0.1,0.2-0.3,0.4-0.5,0.4c-0.2,0.1-0.4,0-0.7-0.1
			c-2.4-1.5-4.9-2.2-7.3-2.2c-2.2,0-4,0.5-5.3,1.6c-1.3,1.1-2,2.6-2,4.5c0,1.3,0.3,2.4,1,3.2c0.7,0.9,1.5,1.5,2.4,2
			c1,0.5,2.3,1.1,4.1,1.8c0.3,0.1,1.6,0.6,3.7,1.4c2.1,0.8,3.8,2,5.1,3.7c1.3,1.6,1.9,3.6,1.9,5.9c0,2.2-0.5,4.2-1.6,5.9
			s-2.6,3-4.4,3.8c-1.9,0.9-4.1,1.3-6.5,1.3C290,162.6,288.2,162.3,286.4,161.8"/>
	</g>
</g>
</svg>
