<svg xmlns="http://www.w3.org/2000/svg" width="37" height="37" viewBox="0 0 37 37">
  <g id="menu-off" transform="translate(-9.612 -691.335)">
    <g id="circle" transform="translate(1613.078 -176.665) rotate(90)">
      <ellipse id="Ellipse_266" data-name="Ellipse 266" cx="16.723" cy="17.451" rx="16.723" ry="17.451" transform="translate(868.663 1601.498) rotate(-90)" fill="#fff"/>
      <g id="Group_1058" data-name="Group 1058" transform="translate(868 1566.466)">
        <path id="Path_2276" data-name="Path 2276" d="M50.652,26.782c0-.423-.215.212-.072-.282C50.652,26.571,50.723,26.641,50.652,26.782Z" transform="translate(-14.367 -7.842)" fill="#fff"/>
        <path id="Path_2277" data-name="Path 2277" d="M36.1,17.441a4.044,4.044,0,0,1-.358-.988c-.072-.353-.143-.705-.215-1.129a6.532,6.532,0,0,0-.286-1.129,2.456,2.456,0,0,0-.429-.988c-.072-.141.358-.071.143-.423-.215-.282-.429-.635-.644-.988a6.216,6.216,0,0,1-.572-1.2c-.429-.776-.787-1.693-1.144-2.469h.143c-.143-.282-.572-.423-.787-.705.072-.071.143,0,.143-.071-.215.071-.5-.423-.715-.423-.072-.141.072-.212,0-.423H31.1c-.715,0-.93-.917-1.645-1.2.072,0,.143,0,.143-.071-1.144-.494-2.288-1.34-3.5-1.764.072-.071.215-.141.143-.282-.143.141-.572.071-.858-.071-.072-.282-.644,0-.93-.282l.072-.071c-.358.141-.358-.282-.715-.071l-.215-.141c-.215.282-.358-.282-.644-.141v.071c-.215,0-.358-.141-.572-.141V2.273c-.5-.071-.787-.282-.787,0-.143-.212.5,0,.286-.353a41.794,41.794,0,0,0-5.149,0c-.215-.071-.358-.071-.358-.141-.143.071-.644.141-.787.282.072,0-.143-.141-.215-.141-.358-.071-.286.282-.644.282a.173.173,0,0,0,.072-.282c-.215.282-.644.353-.93.494.072-.071.143-.071.072-.141-.286.282-.715.141-.93.353l.072-.212c-.572,0-.072.353-.5.423.072-.071,0-.141,0-.212-.286.353-1,.564-1.287.847V3.4A8.018,8.018,0,0,0,10,4.107c-.215.071-.143-.353-.5-.071.143.212-.644.564-.215.635a4.473,4.473,0,0,0-1.144.705c.072-.212-.358-.141-.143-.353H7.712c-.072-.141.215-.141.072-.212a4.607,4.607,0,0,1-.644.564,1.9,1.9,0,0,1-.429,1.2c.072-.212-.358-.141-.215-.282a3.53,3.53,0,0,0-.143.917c-.072.141-.215-.141-.286.071.072.071,0,.141,0,.282-.072,0-.429.564-.715.423-.143,0,.143-.212-.072-.141-.215.212-.143.353-.358.564h0c-.143.141-.286.564,0,.494.072-.141-.143-.071,0-.212.072.212-.072.494-.286.776,0-.141-.072-.141-.072-.212a9.3,9.3,0,0,1-.358,1.34c.143.071-.143-.282,0-.282a1.675,1.675,0,0,0-.429.776,1.122,1.122,0,0,1-.358.705c0-.071.215.071.143,0-.143.212-.286.141-.358.353-.143,0-.072.212-.072.423.072.141-.072,0,0-.141a5.447,5.447,0,0,1-.5,1.834c.072,0,.143.423.143.564l-.143-.071c-.143.071-.072.423-.286.423.143.353.143-1.2.143-.705-.143.071.143.635-.072.494-.072.282.072.564-.143.847.072-.071-.215-.282-.215-.071,0,.423.072.141.072.494l.072.212c.143.071-.072.353.143.212-.143,0,0,.564-.286.494l-.215-.071c0,.212.215.282.286.423l-.072.071c.358.071-.072.423.215.635-.072.212-.072.423-.143.635a.59.59,0,0,1-.143.494,1.941,1.941,0,0,1,.072.705.153.153,0,0,0-.143-.141c-.072.212,0,.282.072.423-.072,0-.143.423-.215.635.143.282.286.212.429.212-.286.282.286.705.072,1.058-.072-.071-.286-.353-.286-.141-.286.353.358.423.286.847l.286-.141c-.143.212.286.564,0,.564.143.071.072.494.286.353a5.814,5.814,0,0,0,.286,1.058c.143.353.286.635.143.917.072.071.143.282.286.212.072-.212-.215-.141-.143-.282a.223.223,0,0,0,.143.071c0,.212.072.353-.215.282.143.635.715.353.93.847q-.215,0,0,.212l.358.141c.143.353-.143.353-.286.423.143.141.286.353.429.353l-.072.353c0-.282.215.071.286.141l-.072-.071c-.072.071.143.212.215.353.072-.071,0-.353-.072-.423.143,0,.215.141.358.212-.215.071.072.353.143.494.072.212.286.071.286.071-.072.071.215.212,0,.212-.072,0,0-.141-.143-.212,0,.141-.143.212.143.353.215.071.286-.282.429.071-.072-.071-.143,0-.286,0l.143.353.143-.141c0,.071,0,.071-.072.071.215-.071.429.353.572.282.143.071.215.353.286.423h0a.621.621,0,0,0,.5.353h0A.82.82,0,0,0,8,31.057c.143.282-.358.564.072.564.215.141.572,0,.5-.141a2.223,2.223,0,0,0,.644.494c.215.141.429.212.572.494.072,0,.072-.071.215-.071.572.494,1.43.494,1.859,1.129-.215,0-.072.141-.143.212.215-.071.143.212.286,0,.072-.141.072-.212-.072-.353a2.418,2.418,0,0,1,1.216.494c-.072-.141,0-.141.143-.141-.143.212.215.353.429.353l.072-.141.143.212c.072,0,.215-.282.358-.071v.141a1.4,1.4,0,0,1,.93,0l.215.282c.143,0,.358-.141.143-.212.429.212.715.282.858.494a15.387,15.387,0,0,1,3.075-.212v.141c.286.071.143-.212.286-.141-.072.141.215.212,0,.353.358.141.429-.212.644-.353,0-.141-.143.141-.143-.071,0-.071.5.071.5-.212a.317.317,0,0,1,0,.353l.215-.141c.286.212-.572.564-.215.847l.215-.071c.215.212-.5.353,0,.353.215-.141.358-.494.143-.564.429-.141.143-.564.644-.635.143.141-.358.141-.286.282.286.141.429-.212.644-.212-.215,0-.072-.282,0-.353.286.071-.072.282.215.212,0-.141.286-.282,0-.353.072-.282.358,0,.5-.282.143.141-.215.564.215.564-.143-.141.358-.423.072-.635.143,0,.215.141.143.282.215.071.358-.494.572-.141V33.6c.072.071.215.071.358.141.215-.071.5-.494.572-.212.072-.071.429-.212.215-.353-.286,0-.215.282-.5.071.286.141.358-.212.429-.353l.072.071c.072-.071.286-.141.286-.282a.153.153,0,0,0,.143.141v-.212c.286-.212.215.282.5.071a.975.975,0,0,0-.215.282c.072-.071.215.071.358-.071v-.564c.143-.141.143.141.286-.141l.072.282c0,.071.286.141.5,0,.143-.141.215-.494-.072-.423.143-.071.358-.071.286.071.215-.212-.143-.141.072-.353.143.071.5-.071.787-.071l-.072.423.143-.141c-.072.353.215.071.215.353a.706.706,0,0,0,.286-.353c-.572-.071,0-.635-.286-.847.358-.353.787.423.858-.353-.143,0-.143-.353-.286-.071.286-.212-.072-.423.286-.564-.143.282.5.071.286.494-.072-.071-.215.071-.286.141.215,0,.215.282.429.071.143-.141.358-.353.215-.423-.143-.141-.215.212-.286,0,.286-.282.5-.141.358-.494-.143.212-.358.071-.429,0,.072-.071.072-.212.143-.282l.072.141c.358-.282-.072-.282.215-.564h.358c.072.212-.5.423-.215.635.215-.212.143-.423.429-.564,0,.071-.072.141-.072.212.072-.071.5.141.572-.353.072-.212-.072-.141-.143-.212.286-.423.215-.635.429-.847.143.212.358-.423.358,0-.215.071-.644.564-.5.917q.215,0,0,.212c-.072.071-.215.212-.143.353.286-.282.5-.071.715,0a.42.42,0,0,0,.072-.282c-.143-.141-.215-.071-.358-.141a1.843,1.843,0,0,0,.5-.988.157.157,0,0,1,.215.212c.286-.423.572-.917.858-1.34-.429.141.215-.494-.143-.423-.215.212-.5.282-.572.071.072-.141.143.071.215.071-.072-.282.429-.141.286-.423-.143.494.286.282.5.423,0-.353.143.071.286-.212a6.276,6.276,0,0,1,.215-1.129c.358-.353.429-1.129.572-1.552.143-.212.429.071.5-.212s-.358.141-.143-.282l.072.071c0-.141.358-.705,0-.917l.286.212c.072-.071,0-.141,0-.212.072,0,.215-.071.215.071.286-.212.072-.564.143-.847l-.215.141c-.072-.494.143-.776.143-1.27h.143l-.072-.282c.143.071.286-.141.143-.353a3.756,3.756,0,0,1,.358.776c-.143.212-.215-.282-.358-.141-.143.071-.215.564,0,.635.072-.141,0-.212,0-.353.215,0,.215.212.358.353,0-.071.072-.212,0-.212a1.941,1.941,0,0,1,.072.705c-.072-.212-.143.071-.215,0,.215.071.215.353.143.705-.286.212,0,.705-.215,1.129a1.467,1.467,0,0,1-.286-.776c-.143.212-.072.282-.215.494A.964.964,0,0,1,35.53,24h-.143c0,.353.215.423,0,.776-.143.353-.286.635-.429.988l-.429.847-.143-.071c.215.423-.358.917-.429,1.34a3.991,3.991,0,0,0-.572.917,1.1,1.1,0,0,1-.572.564,4.737,4.737,0,0,1-.5.776c-.143.212-.358.494-.5.705a6.184,6.184,0,0,0-.572.705,6.418,6.418,0,0,1-.715.635V31.9c-.072.282-.215,0-.358.141.286,0-.072.353-.072.564a3.7,3.7,0,0,0-1.359,1.2l-.072-.141c-.286.494-.93.635-1.5.917-.072,0-.286-.071-.429,0a2.7,2.7,0,0,1-.787.776,4.387,4.387,0,0,1-1.287.353c-1.216.847-2.717.917-4.148,1.34l-.072-.353a6.189,6.189,0,0,1-2.288.282c-.787-.071-1.5-.071-2.145-.141l.143-.282c-.358-.141-.858-.071-.787.212a2.005,2.005,0,0,0-.644-.071c-.215-.071-.429-.071-.5-.212-.358-.141-.5,0-.858,0a16.881,16.881,0,0,0-1.716-.635l.143.071c.072-.071.143-.141,0-.212-.286,0-.93-.494-.787,0a3.212,3.212,0,0,0-1.216-.564,2.367,2.367,0,0,1-1.073-.705c0,.141-.143.071-.286.071-.143-.071-.286-.212-.429-.282-.143-.141-.286-.212-.358-.353a2.42,2.42,0,0,0-.787-.494c-.072-.141.286,0,0-.212-.143-.071-.072.071-.286,0a6.4,6.4,0,0,1-1.287-1.129c-.358-.423-.644-.917-1-1.27a14.287,14.287,0,0,1-3-4.515h.072c-.5-.423-.215-1.411-.787-1.693,0-.141-.072-.494.072-.494a1.489,1.489,0,0,1-.215-.847,2.925,2.925,0,0,0-.286-1.058c0,.071,0,.071.072.141a4.6,4.6,0,0,0-.072-.988,2.222,2.222,0,0,1-.143-1.129c.072.071.072.212.143.212.143-.282-.358-.635,0-.776,0-.141-.215-.071-.143,0,.072-1.552,0-3.245.215-4.868.5-1.058.644.071.572-.847.072-.071-.143-.071-.072-.071,0-.353.572-.423.429-.705-.286,0-.072-.212-.215-.212.358-.635.644-.705.644-1.27l.072.071c0-.705.429-1.34.429-1.975a18.648,18.648,0,0,1,7.58-7.619A22.827,22.827,0,0,1,14.72.368,15.6,15.6,0,0,1,20.155.227a2.612,2.612,0,0,0,1.788.423l-.072.071c.072-.282.644.141.787-.071.644.212,1.287.353,1.931.564a14.448,14.448,0,0,1,1.859.705c-.215-.071-.429.071-.143.141h.286v.071c.358,0,.572,0,.429-.141a14.06,14.06,0,0,1,4.291,2.963,21.855,21.855,0,0,1,1.716,1.9l.715,1.058a9.182,9.182,0,0,1,.715,1.058c.143.353.429.776.644,1.2s.5.847.715,1.27a43.431,43.431,0,0,1,1.144,7.337A1.783,1.783,0,0,1,36.1,17.441Z" transform="translate(0.039 -0.053)" fill="#fff"/>
        <path id="Path_2278" data-name="Path 2278" d="M50.558,27.6c-.143.071-.215.353-.358.141C50.343,27.741,50.486,27.6,50.558,27.6Z" transform="translate(-14.273 -8.166)" fill="#fff"/>
        <path id="Path_2279" data-name="Path 2279" d="M46.343,37.041a.251.251,0,0,1-.143.071c0-.071,0-.212.072-.212C46.2,36.971,46.272,36.971,46.343,37.041Z" transform="translate(-13.133 -10.905)" fill="#fff"/>
        <path id="Path_2280" data-name="Path 2280" d="M44.992,38.935c-.072-.071.072-.423.143-.635Z" transform="translate(-12.784 -11.318)" fill="#fff"/>
        <path id="Path_2281" data-name="Path 2281" d="M43.053,40.641c-.143.071-.143,0-.072-.141C43.053,40.5,43.053,40.571,43.053,40.641Z" transform="translate(-12.203 -11.966)" fill="#fff"/>
        <path id="Path_2282" data-name="Path 2282" d="M43.186,40.986a.545.545,0,0,1-.286.141C42.972,41.2,43.043,40.845,43.186,40.986Z" transform="translate(-12.193 -12.099)" fill="#fff"/>
        <path id="Path_2283" data-name="Path 2283" d="M39.186,44.172c-.072.071-.143.212-.286.212C39.043,44.313,39.186,43.96,39.186,44.172Z" transform="translate(-11.054 -13.028)" fill="#fff"/>
        <path id="Path_2284" data-name="Path 2284" d="M37.51,45.671c-.072,0-.072,0-.143.071-.143,0-.072-.141,0-.141Z" transform="translate(-10.593 -13.468)" fill="#fff"/>
        <path id="Path_2285" data-name="Path 2285" d="M3.4,32l.143.141H3.4Z" transform="translate(-0.941 -9.462)" fill="#fff"/>
        <path id="Path_2286" data-name="Path 2286" d="M6.6,13.651c.072-.212.143-.071.215-.071C6.743,13.722,6.743,13.51,6.6,13.651Z" transform="translate(-1.852 -4.024)" fill="#fff"/>
        <path id="Path_2287" data-name="Path 2287" d="M13.543,5.941v.071L13.4,5.8Z" transform="translate(-3.789 -1.746)" fill="#fff"/>
      </g>
    </g>
    <g id="menu" transform="translate(-171.581 608.581)">
      <g id="Group_2118" data-name="Group 2118">
        <path id="Path_13176" data-name="Path 13176" d="M192.008,96.554h16c1.558,0,.609-2.135-.615-2.135h-16c-1.558,0-.608,2.135.615,2.135Z" fill="#282828"/>
      </g>
      <g id="Group_2119" data-name="Group 2119">
        <path id="Path_13177" data-name="Path 13177" d="M207.393,100.419h-16c-1.558,0-.608,2.135.615,2.135h16c1.558,0,.609-2.135-.615-2.135Z" fill="#282828"/>
      </g>
      <g id="Group_2120" data-name="Group 2120">
        <path id="Path_13178" data-name="Path 13178" d="M201.393,106.419h-10c-1.558,0-.608,2.135.615,2.135h10c1.558,0,.609-2.135-.615-2.135Z" fill="#282828"/>
      </g>
    </g>
  </g>
</svg>
