<svg enable-background="new 0 0 23.4 19" viewBox="0 0 23.4 19" xmlns="http://www.w3.org/2000/svg"><path clip-rule="evenodd" d="m7.4 19c7.5.1 13.6-5.9 13.7-13.4 0-.1 0-.2 0-.2v-.7c.9-.7 1.7-1.5 2.3-2.5-.9.4-1.8.6-2.7.8 1-.6 1.7-1.5 2.1-2.6-.9.5-1.9.9-3 1.2-.9-1-2.2-1.6-3.5-1.6-2.6 0-4.8 2.2-4.8 4.8 0 .4 0 .7.1 1-3.9-.2-7.5-2-9.9-5.1-.4.8-.7 1.7-.7 2.6 0 1.6.8 3.1 2.1 4-.8 0-1.5-.3-2.2-.7 0 2.3 1.6 4.3 3.9 4.7-.4.1-.9.2-1.3.1-.3 0-.6 0-.9-.1.7 2 2.5 3.3 4.6 3.4-1.7 1.3-3.8 2.1-6 2.1-.4 0-.8 0-1.2-.1 2.2 1.5 4.8 2.3 7.4 2.3" fill="#282828" fill-rule="evenodd"/></svg>