<?xml version="1.0" encoding="UTF-8"?>
<svg width="28px" height="28px" viewBox="0 0 28 28" version="1.1" xmlns="http://www.w3.org/2000/svg" xmlns:xlink="http://www.w3.org/1999/xlink">
    <!-- Generator: Sketch 54.1 (76490) - https://sketchapp.com -->
    <title>pattern-crosses-2</title>
    <desc>Created with Sketch.</desc>
    <g id="Page-1" stroke="none" stroke-width="1" fill="none" fill-rule="evenodd">
        <g id="pattern-crosses-2" fill-rule="nonzero">
            <rect id="Rectangle" fill="#E3F1F5" x="0" y="0" width="28" height="28"></rect>
            <path d="M14.1,22.8 C13.5,22.8 13.1,22.4 13.1,21.8 L13.1,15.4 L7,15.4 C6.4,15.4 6,15 6,14.4 C6,13.8 6.4,13.4 7,13.4 L13.1,13.4 L13.1,7 C13.1,6.4 13.5,6 14.1,6 C14.7,6 15.1,6.4 15.1,7 L15.1,13.4 L21.2,13.4 C21.8,13.4 22.2,13.8 22.2,14.4 C22.2,15 21.8,15.4 21.2,15.4 L15.1,15.4 L15.1,21.8 C15.1,22.4 14.7,22.8 14.1,22.8 Z" fill="#D9E7EB"></path>
        </g>
    </g>
</svg>