<?xml version="1.0" encoding="UTF-8"?>
<svg width="68px" height="67px" viewBox="0 0 68 67" version="1.1" xmlns="http://www.w3.org/2000/svg" xmlns:xlink="http://www.w3.org/1999/xlink">
    <!-- Generator: Sketch 54.1 (76490) - https://sketchapp.com -->
    <title>scroll-down-arrow-border-white</title>
    <desc>Created with Sketch.</desc>
    <g id="Page-1" stroke="none" stroke-width="1" fill="none" fill-rule="evenodd">
        <g id="scroll-down-arrow-border-white" transform="translate(-2.000000, 0.000000)" fill-rule="nonzero">
            <g id="Down_arrow_-_OFF" transform="translate(35.248000, 33.500000) rotate(90.000000) translate(-35.248000, -33.500000) translate(1.748000, -1.000000)">
                <g id="scroll-down-arrow-border-white" transform="translate(0.000000, 0.466000)">
                    <path d="M65.092,34.441 C65.092,33.671 64.707,34.826 64.964,33.928 C65.092,34.056 65.22,34.185 65.092,34.441 Z" id="Path_2276" fill="#282828"></path>
                    <path d="M64.839,31.619 C64.5486297,31.0491421 64.3331761,30.4441243 64.198,29.819 C64.07,29.178 63.941,28.536 63.813,27.766 C63.7027341,27.0679065 63.531068,26.3809076 63.3,25.713 C63.178544,25.0637615 62.9156566,24.4492194 62.53,23.913 C62.402,23.656 63.171,23.785 62.787,23.143 C62.402,22.63 62.017,21.988 61.632,21.343 C61.2137049,20.6543982 60.8697736,19.9232928 60.606,19.162 C59.836,17.751 59.195,16.083 58.553,14.672 L58.81,14.672 C58.553,14.159 57.784,13.902 57.399,13.389 C57.527,13.261 57.656,13.389 57.656,13.261 C57.271,13.389 56.756,12.491 56.373,12.491 C56.245,12.234 56.501,12.106 56.373,11.721 L55.86,11.721 C54.577,11.721 54.192,10.053 52.909,9.54 C53.037,9.54 53.166,9.54 53.166,9.412 C51.113,8.512 49.061,6.975 46.88,6.205 C47.008,6.077 47.265,5.948 47.137,5.692 C46.88,5.949 46.111,5.82 45.598,5.564 C45.47,5.051 44.443,5.564 43.93,5.051 L44.058,4.923 C43.417,5.18 43.417,4.41 42.775,4.795 L42.385,4.547 C42,5.06 41.744,4.034 41.23,4.29 L41.23,4.418 C40.845,4.418 40.589,4.161 40.204,4.161 L40.204,4.037 C39.304,3.909 38.793,3.524 38.793,4.037 C38.536,3.652 39.693,4.037 39.306,3.396 C36.230007,3.20355686 33.144993,3.20355686 30.069,3.396 C29.684,3.268 29.428,3.268 29.428,3.139 C29.171,3.267 28.273,3.396 28.017,3.652 C28.145,3.652 27.76,3.395 27.632,3.395 C26.991,3.267 27.119,3.908 26.477,3.908 C26.5772858,3.87252078 26.6530904,3.78910609 26.6788433,3.68589364 C26.7045961,3.58268119 26.6768634,3.47343262 26.605,3.395 C26.22,3.908 25.45,4.036 24.937,4.295 C25.065,4.167 25.194,4.167 25.065,4.038 C24.552,4.551 23.782,4.295 23.397,4.679 L23.525,4.294 C22.499,4.294 23.397,4.935 22.625,5.064 C22.753,4.936 22.625,4.807 22.625,4.679 C22.112,5.32 20.825,5.705 20.316,6.218 L20.316,6.09 C19.5084613,6.44563976 18.7355093,6.87513193 18.007,7.373 C17.622,7.501 17.75,6.732 17.107,7.245 C17.364,7.63 15.952,8.271 16.722,8.4 C15.9766026,8.72115604 15.2843607,9.15376509 14.669,9.683 C14.797,9.298 14.028,9.426 14.412,9.042 L13.899,9.042 C13.771,8.785 14.284,8.785 14.027,8.657 C13.6769038,9.03348328 13.2925854,9.37662466 12.879,9.682 C12.8781805,10.4754716 12.6065367,11.2448939 12.109,11.863 C12.237,11.478 11.468,11.606 11.724,11.35 C11.5662097,11.8924687 11.479815,12.453194 11.467,13.018 C11.339,13.275 11.082,12.761 10.954,13.146 C11.082,13.274 10.954,13.403 10.954,13.659 C10.826,13.659 10.184,14.685 9.671,14.429 C9.414,14.429 9.928,14.044 9.543,14.172 C9.158,14.557 9.286,14.813 8.902,15.198 L8.902,15.198 C8.645,15.455 8.389,16.224 8.902,16.098 C9.03,15.841 8.645,15.97 8.902,15.713 C8.94981864,16.236281 8.76172929,16.7536184 8.389,17.124 C8.389,16.867 8.261,16.867 8.261,16.739 C8.10759463,17.5660004 7.89334571,18.3805473 7.62,19.176 C7.877,19.304 7.363,18.663 7.62,18.663 C7.24209945,19.0562529 6.97624796,19.5434172 6.85,20.074 C6.79778441,20.5648967 6.57017822,21.0204642 6.209,21.357 C6.209,21.229 6.594,21.485 6.466,21.357 C6.209,21.742 5.953,21.614 5.825,21.998 C5.568,21.998 5.697,22.383 5.697,22.768 C5.825,23.025 5.569,22.768 5.697,22.511 C5.59246577,23.6664105 5.28793514,24.7948656 4.797,25.846 C4.925,25.846 5.054,26.616 5.054,26.872 L4.797,26.747 C4.54,26.875 4.669,27.517 4.284,27.517 C4.541,28.158 4.541,25.336 4.541,26.234 C4.284,26.362 4.798,27.389 4.413,27.134 C4.285,27.647 4.541,28.16 4.156,28.673 C4.284,28.545 3.771,28.16 3.771,28.545 C3.771,29.315 3.899,28.802 3.899,29.445 L4.027,29.83 C4.284,29.958 3.899,30.471 4.284,30.215 C4.027,30.215 4.284,31.241 3.771,31.115 L3.386,30.987 C3.386,31.372 3.771,31.5 3.899,31.757 L3.771,31.885 C4.412,32.013 3.643,32.655 4.156,33.04 C4.028,33.425 4.028,33.81 3.899,34.195 C3.95423395,34.5184496 3.85970376,34.8494892 3.642,35.095 C3.76207314,35.5113744 3.80544507,35.9461102 3.77,36.378 C3.76078995,36.2400577 3.65094234,36.13021 3.513,36.121 C3.41661715,36.3822537 3.46527803,36.6749793 3.641,36.891 C3.513,36.891 3.384,37.661 3.256,38.046 C3.513,38.559 3.769,38.431 4.026,38.431 C3.513,38.944 4.539,39.714 4.154,40.355 C4.026,40.227 3.641,39.714 3.641,40.098 C3.128,40.739 4.282,40.868 4.154,41.637 L4.667,41.38 C4.41,41.765 5.18,42.406 4.667,42.406 C4.924,42.534 4.795,43.306 5.18,43.047 C5.29075009,43.7029009 5.46249537,44.3470295 5.693,44.971 C5.95,45.612 6.206,46.126 5.95,46.639 C6.078,46.767 6.207,47.152 6.463,47.024 C6.591,46.639 6.078,46.767 6.206,46.511 C6.27287454,46.5840007 6.36444496,46.6296078 6.463,46.639 C6.463,47.024 6.591,47.28 6.078,47.152 C6.335,48.307 7.361,47.793 7.746,48.691 C7.48933333,48.691 7.48933333,48.8193333 7.746,49.076 L8.387,49.333 C8.644,49.974 8.13,49.974 7.874,50.103 C8.131,50.36 8.387,50.744 8.644,50.744 L8.516,51.385 C8.516,50.872 8.901,51.513 9.029,51.642 L8.901,51.514 C8.773,51.642 9.158,51.899 9.286,52.155 C9.414,52.027 9.286,51.514 9.158,51.385 C9.415,51.385 9.543,51.642 9.799,51.77 C9.414,51.898 9.927,52.411 10.056,52.67 C10.184,53.055 10.569,52.798 10.569,52.798 C10.441,52.926 10.954,53.183 10.569,53.183 C10.441,53.183 10.569,52.926 10.312,52.798 C10.312,53.055 10.055,53.183 10.569,53.439 C10.954,53.567 11.082,52.926 11.339,53.567 C11.211,53.439 11.082,53.567 10.826,53.567 L11.083,54.208 L11.34,53.951 C11.34,54.079 11.34,54.079 11.212,54.079 C11.597,53.951 11.982,54.72 12.238,54.592 C12.495,54.72 12.623,55.233 12.751,55.362 L12.751,55.362 C12.9164332,55.7198743 13.2587071,55.9636494 13.651,56.003 L13.651,56.003 C13.8632451,56.2056543 14.1315295,56.3397965 14.421,56.388 C14.678,56.901 13.78,57.414 14.549,57.414 C14.934,57.671 15.575,57.414 15.449,57.157 C15.7753433,57.5255117 16.1669025,57.8306228 16.604,58.057 C16.989,58.314 17.374,58.442 17.63,58.957 C17.758,58.957 17.758,58.829 18.015,58.829 C19.041,59.729 20.581,59.729 21.35,60.882 C20.965,60.882 21.222,61.139 21.093,61.267 C21.478,61.139 21.35,61.652 21.606,61.267 C21.734,61.01 21.734,60.882 21.478,60.626 C22.2745871,60.7171945 23.0299178,61.0288853 23.659,61.526 C23.531,61.269 23.659,61.269 23.916,61.269 C23.659,61.654 24.301,61.91 24.686,61.91 L24.814,61.653 L25.071,62.038 C25.199,62.038 25.456,61.525 25.712,61.91 L25.712,62.147 C26.2513375,61.9544968 26.8406625,61.9544968 27.38,62.147 L27.765,62.66 C28.022,62.66 28.406,62.403 28.022,62.275 C28.792,62.66 29.305,62.788 29.561,63.175 C31.3818474,62.8598944 33.230034,62.7308966 35.077,62.79 L35.077,63.047 C35.59,63.175 35.334,62.662 35.59,62.79 C35.462,63.047 35.975,63.175 35.59,63.431 C36.231,63.688 36.36,63.046 36.745,62.79 C36.745,62.533 36.488,63.047 36.488,62.662 C36.488,62.534 37.388,62.79 37.388,62.277 C37.5160003,62.4714965 37.5160003,62.7235035 37.388,62.918 L37.773,62.661 C38.286,63.046 36.747,63.687 37.388,64.2 L37.773,64.072 C38.158,64.457 36.873,64.713 37.773,64.713 C38.158,64.456 38.414,63.813 38.03,63.687 C38.8,63.43 38.287,62.661 39.185,62.532 C39.442,62.789 38.544,62.789 38.672,63.045 C39.185,63.302 39.442,62.66 39.827,62.66 C39.442,62.66 39.699,62.147 39.827,62.019 C40.34,62.147 39.699,62.532 40.212,62.404 C40.212,62.147 40.725,61.891 40.212,61.763 C40.34,61.25 40.853,61.763 41.112,61.25 C41.369,61.507 40.727,62.276 41.497,62.276 C41.24,62.019 42.138,61.506 41.625,61.121 C41.882,61.121 42.01,61.378 41.882,61.634 C42.267,61.762 42.523,60.734 42.908,61.377 L42.908,60.997 C43.036,61.125 43.293,61.125 43.549,61.254 C43.934,61.126 44.449,60.354 44.575,60.869 C44.703,60.741 45.345,60.484 44.96,60.228 C44.447,60.228 44.575,60.741 44.06,60.356 C44.573,60.613 44.701,59.971 44.83,59.715 L44.958,59.843 C45.086,59.715 45.471,59.586 45.471,59.33 C45.48021,59.4679423 45.5900577,59.57779 45.728,59.587 L45.728,59.202 C46.241,58.817 46.113,59.715 46.628,59.33 C46.4695128,59.4761419 46.3390402,59.6499925 46.243,59.843 C46.371,59.715 46.628,59.971 46.884,59.715 L46.884,58.688 C47.141,58.431 47.141,58.945 47.397,58.431 L47.525,58.944 C47.525,59.072 48.038,59.201 48.425,58.944 C48.682,58.687 48.81,58.044 48.297,58.174 C48.554,58.046 48.938,58.046 48.81,58.302 C49.195,57.917 48.553,58.045 48.938,57.661 C49.195,57.789 49.838,57.533 50.349,57.533 L50.221,58.303 L50.478,58.046 C50.35,58.687 50.863,58.174 50.863,58.687 C51.0996938,58.5354017 51.2799559,58.3101619 51.376,58.046 C50.35,57.918 51.376,56.891 50.863,56.507 C51.504,55.866 52.274,57.277 52.402,55.866 C52.145,55.866 52.145,55.225 51.889,55.738 C52.402,55.353 51.761,54.968 52.402,54.712 C52.145,55.225 53.302,54.84 52.915,55.612 C52.787,55.484 52.53,55.74 52.402,55.869 C52.787,55.869 52.787,56.382 53.172,55.997 C53.429,55.74 53.813,55.356 53.557,55.227 C53.3,54.97 53.172,55.612 53.044,55.227 C53.557,54.714 53.944,54.97 53.685,54.327 C53.428,54.712 53.044,54.455 52.915,54.327 C53.043,54.199 53.043,53.942 53.172,53.814 L53.3,54.071 C53.941,53.558 53.172,53.558 53.685,53.045 L54.326,53.045 C54.454,53.43 53.426,53.815 53.941,54.2 C54.326,53.815 54.198,53.43 54.711,53.174 C54.711,53.302 54.583,53.431 54.583,53.559 C54.711,53.431 55.483,53.816 55.609,52.918 C55.737,52.533 55.481,52.661 55.352,52.533 C55.865,51.763 55.737,51.378 56.122,50.994 C56.379,51.379 56.763,50.224 56.763,50.994 C56.378,51.122 55.608,52.02 55.863,52.662 C56.1196667,52.662 56.1196667,52.7903333 55.863,53.047 C55.735,53.175 55.478,53.432 55.606,53.688 C56.119,53.175 56.506,53.56 56.889,53.688 C56.990799,53.5374323 57.0361331,53.3557418 57.017,53.175 C56.76,52.918 56.632,53.047 56.376,52.918 C56.8523828,52.4237079 57.166396,51.7956815 57.276,51.118 C57.3865018,51.056377 57.5244811,51.0755885 57.6139463,51.1650537 C57.7034115,51.2545189 57.722623,51.3924982 57.661,51.503 C58.174,50.733 58.687,49.835 59.2,49.066 C58.43,49.323 59.585,48.166 58.943,48.296 C58.558,48.681 58.043,48.809 57.917,48.424 C58.045,48.167 58.174,48.552 58.302,48.552 C58.174,48.039 59.072,48.295 58.815,47.782 C58.558,48.682 59.328,48.295 59.715,48.552 C59.715,47.911 59.972,48.68 60.228,48.167 C60.2940738,47.4724446 60.4229338,46.785303 60.613,46.114 C61.254,45.473 61.383,44.061 61.639,43.292 C61.896,42.907 62.409,43.42 62.539,42.907 C62.669,42.394 61.898,43.164 62.282,42.394 L62.41,42.522 C62.41,42.265 63.051,41.239 62.41,40.854 L62.923,41.239 C63.051,41.111 62.923,40.982 62.923,40.854 C63.051,40.854 63.308,40.726 63.308,40.982 C63.821,40.597 63.436,39.956 63.565,39.443 L63.18,39.7 C63.052,38.8 63.437,38.289 63.437,37.391 L63.694,37.391 L63.566,36.878 C63.823,37.006 64.079,36.621 63.823,36.237 C64.0891649,36.6816705 64.3041974,37.1550104 64.464,37.648 C64.207,38.033 64.079,37.135 63.823,37.391 C63.566,37.519 63.438,38.417 63.823,38.546 C63.951,38.289 63.823,38.161 63.823,37.905 C64.208,37.905 64.208,38.29 64.464,38.546 C64.464,38.418 64.592,38.161 64.464,38.161 C64.5800649,38.5791345 64.6190336,39.0149065 64.579,39.447 C64.451,39.062 64.322,39.575 64.194,39.447 C64.579,39.575 64.579,40.088 64.451,40.73 C63.938,41.115 64.451,42.013 64.066,42.783 C63.7645526,42.3708856 63.5866215,41.8814884 63.553,41.372 C63.296,41.757 63.425,41.885 63.168,42.272 C63.5521126,42.587425 63.7849493,43.0505557 63.809,43.547 L63.552,43.547 C63.552,44.188 63.937,44.317 63.552,44.958 C63.295,45.599 63.039,46.113 62.782,46.758 L62.012,48.297 L61.755,48.169 C62.14,48.939 61.114,49.837 60.985,50.606 C60.5693687,51.1132045 60.224241,51.6742893 59.959,52.274 C59.76001,52.7320246 59.3958496,53.0983271 58.939,53.3 C58.685427,53.7983836 58.3840097,54.2709389 58.039,54.711 C57.782,55.096 57.398,55.611 57.139,55.994 C56.7661005,56.3960142 56.4231811,56.8248306 56.113,57.277 C55.7146999,57.6934203 55.2858391,58.0794953 54.83,58.432 L54.83,57.919 C54.702,58.432 54.445,57.919 54.189,58.176 C54.702,58.176 54.061,58.817 54.061,59.202 C53.0800921,59.7152541 52.2425298,60.4648328 51.624,61.383 L51.496,61.126 C50.983,62.026 49.828,62.281 48.802,62.794 C48.674,62.794 48.289,62.666 48.032,62.794 C47.6638969,63.3565183 47.1835183,63.8368969 46.621,64.205 C45.8890167,64.5365224 45.1101296,64.7527487 44.312,64.846 C42.131,66.385 39.437,66.514 36.871,67.283 L36.743,66.642 C35.4196276,67.0719868 34.0264907,67.2460865 32.638,67.155 C31.227,67.027 29.944,67.027 28.789,66.898 L29.039,66.385 C28.398,66.128 27.5,66.257 27.628,66.77 C27.2526408,66.6641994 26.8624167,66.6209538 26.473,66.642 C26.088,66.514 25.703,66.514 25.573,66.257 C24.932,66 24.673,66.257 24.034,66.257 C23.0295361,65.8160439 22.0016615,65.4304657 20.955,65.102 L21.212,65.23 C21.34,65.102 21.469,64.973 21.212,64.845 C20.699,64.845 19.544,63.945 19.801,64.845 C19.1549977,64.352183 18.4115408,64.0024412 17.62,63.819 C16.8722446,63.5777254 16.2061699,63.1335602 15.696,62.536 C15.696,62.793 15.439,62.664 15.183,62.664 C14.926,62.536 14.67,62.279 14.413,62.151 C14.156,61.894 13.9,61.766 13.772,61.51 C13.3646229,61.1211558 12.8853513,60.8154546 12.361,60.61 C12.233,60.353 12.874,60.61 12.361,60.225 C12.104,60.097 12.233,60.353 11.848,60.225 C10.98994,59.6482332 10.2133172,58.958724 9.539,58.175 C8.898,57.405 8.384,56.507 7.739,55.866 C5.4380087,53.4962603 3.60942664,50.7099465 2.351,47.656 L2.479,47.656 C1.579,46.886 2.094,45.09 1.068,44.577 C1.068,44.32 0.94,43.677 1.196,43.677 C0.918491717,43.2132805 0.784525743,42.6777645 0.811,42.138 C0.761299879,41.4703174 0.587316077,40.8177933 0.298,40.214 C0.298,40.342 0.298,40.342 0.426,40.471 C0.447552848,39.8681538 0.404642713,39.2647301 0.298,38.671 C0.0379264426,38.0199694 -0.0505676155,37.31305 0.041,36.618 C0.169,36.746 0.169,37.003 0.298,37.003 C0.555,36.49 -0.343,35.848 0.298,35.592 C0.298,35.335 -0.087,35.464 0.041,35.592 C0.169,32.77 0.041,29.692 0.426,26.74 C1.326,24.816 1.581,26.868 1.452,25.201 C1.58,25.073 1.195,25.073 1.324,25.073 C1.324,24.432 2.35,24.303 2.094,23.79 C1.581,23.79 1.966,23.405 1.709,23.405 C2.35,22.25 2.864,22.122 2.864,21.096 L2.992,21.224 C2.992,19.941 3.762,18.787 3.762,17.632 C6.84005079,11.7796723 11.5722972,6.96256756 17.369,3.781 C20.2664918,2.35295748 23.3241356,1.2760008 26.477,0.573 C29.6860525,-0.0902867876 32.9875621,-0.176972578 36.227,0.317 C37.1654744,0.958098837 38.3067546,1.23211996 39.434,1.087 L39.306,1.215 C39.434,0.702 40.461,1.472 40.717,1.087 C41.872,1.472 43.026,1.728 44.181,2.113 C45.3210872,2.46277312 46.4354467,2.89147572 47.516,3.396 C47.131,3.268 46.746,3.524 47.259,3.653 L47.772,3.653 L47.772,3.781 C48.413,3.781 48.798,3.781 48.542,3.524 C51.4236034,4.82165391 54.0356182,6.64938582 56.242,8.912 C57.335143,10.0055066 58.3632399,11.1621574 59.321,12.376 L60.604,14.3 C61.0755769,14.9109409 61.5042696,15.5538127 61.887,16.224 C62.144,16.865 62.657,17.635 63.042,18.405 C63.427,19.175 63.942,19.944 64.325,20.714 C65.608,25.332 65.864,29.438 66.378,34.056 C65.5120291,33.5291339 64.9425408,32.6273515 64.839,31.619 Z" id="Path_2277" fill="#FFFFFF"></path>
                    <path d="M65.092,35.339 C64.835,35.467 64.707,35.98 64.451,35.596 C64.708,35.596 64.964,35.339 65.092,35.339 Z" id="Path_2278" fill="#282828"></path>
                    <path d="M59.576,47.527 C59.5066953,47.5967054 59.4163891,47.6416828 59.319,47.655 C59.319,47.527 59.319,47.27 59.447,47.27 C59.319,47.398 59.447,47.398 59.576,47.527 Z" id="Path_2279" fill="#282828"></path>
                    <path d="M57.78,50.221 C57.652,50.093 57.908,49.451 58.037,49.066 L57.78,50.221 Z" id="Path_2280" fill="#282828"></path>
                    <path d="M55.342,52.145 C55.085,52.273 55.085,52.145 55.214,51.888 C55.342,51.888 55.342,52.016 55.342,52.145 Z" id="Path_2281" fill="#282828"></path>
                    <path d="M55.599,52.529 C55.4577203,52.6642845 55.2789455,52.7538461 55.086,52.786 C55.214,52.916 55.343,52.273 55.599,52.529 Z" id="Path_2282" fill="#282828"></path>
                    <path d="M50.467,56.635 C50.339,56.763 50.21,57.02 49.954,57.02 C50.211,56.891 50.467,56.25 50.467,56.635 Z" id="Path_2283" fill="#282828"></path>
                    <path d="M48.286,58.559 C48.158,58.559 48.158,58.559 48.029,58.687 C47.772,58.687 47.901,58.43 48.029,58.43 L48.286,58.559 Z" id="Path_2284" fill="#282828"></path>
                    <polygon id="Path_2285" fill="#282828" points="4.412 40.984 4.669 41.241 4.412 41.241"></polygon>
                    <path d="M8.517,17.507 C8.645,17.122 8.774,17.379 8.902,17.379 C8.774,17.635 8.774,17.25 8.517,17.507 Z" id="Path_2286" fill="#282828"></path>
                    <polygon id="Path_2287" fill="#282828" points="17.498 7.629 17.498 7.757 17.241 7.372"></polygon>
                </g>
            </g>
        </g>
    </g>
</svg>