<svg height="67" viewBox="0 0 68 67" width="68" xmlns="http://www.w3.org/2000/svg"><g fill="#282828" transform="matrix(0 1 -1 0 67.748 0)"><g transform="translate(17.025 22.964)"><path d="m19.335.911c1.689 1.753 8.579 7.074 7.713 9.65-.433 1.286-2.988 3.038-3.96 4.026l-4.948 5.034c-.979.995 3.477 2.569 4.52 1.508l5.938-6.04c1.054-1.073 3.689-2.78 3.785-4.434.084-1.454-2.039-2.966-2.841-3.8l-5.848-6.069c-.915-.955-5.615-1.182-4.359.125"/><path d="m2.339 11.532c9.166-.313 18.323.755 27.491.443 2.976-.1 3.113-3.286.071-3.183-9.168.318-18.325-.756-27.488-.443-2.98.102-3.116 3.287-.074 3.183"/></g><g transform="translate(0 .466)"><path d="m65.092 34.441c0-.77-.385.385-.128-.513.128.128.256.257.128.513z"/><path d="m64.839 31.619c-.2903703-.5698579-.5058239-1.1748757-.641-1.8-.128-.641-.257-1.283-.385-2.053-.1102659-.6980935-.281932-1.3850924-.513-2.053-.121456-.6492385-.3843434-1.2637806-.77-1.8-.128-.257.641-.128.257-.77-.385-.513-.77-1.155-1.155-1.8-.4182951-.6886018-.7622264-1.4197072-1.026-2.181-.77-1.411-1.411-3.079-2.053-4.49h.257c-.257-.513-1.026-.77-1.411-1.283.128-.128.257 0 .257-.128-.385.128-.9-.77-1.283-.77-.128-.257.128-.385 0-.77h-.513c-1.283 0-1.668-1.668-2.951-2.181.128 0 .257 0 .257-.128-2.053-.9-4.105-2.437-6.286-3.207.128-.128.385-.257.257-.513-.257.257-1.026.128-1.539-.128-.128-.513-1.155 0-1.668-.513l.128-.128c-.641.257-.641-.513-1.283-.128l-.39-.248c-.385.513-.641-.513-1.155-.257v.128c-.385 0-.641-.257-1.026-.257v-.124c-.9-.128-1.411-.513-1.411 0-.257-.385.9 0 .513-.641-3.075993-.19244314-6.161007-.19244314-9.237 0-.385-.128-.641-.128-.641-.257-.257.128-1.155.257-1.411.513.128 0-.257-.257-.385-.257-.641-.128-.513.513-1.155.513.1002858-.03547922.1760904-.11889391.2018433-.22210636.0257528-.10321245-.0019799-.21246102-.0738433-.29089364-.385.513-1.155.641-1.668.9.128-.128.257-.128.128-.257-.513.513-1.283.257-1.668.641l.128-.385c-1.026 0-.128.641-.9.77.128-.128 0-.257 0-.385-.513.641-1.8 1.026-2.309 1.539v-.128c-.8075387.35563976-1.5804907.78513193-2.309 1.283-.385.128-.257-.641-.9-.128.257.385-1.155 1.026-.385 1.155-.7453974.32115604-1.4376393.75376509-2.053 1.283.128-.385-.641-.257-.257-.641h-.513c-.128-.257.385-.257.128-.385-.3500962.37648328-.7344146.71962466-1.148 1.025-.0008195.7934716-.2724633 1.5628939-.77 2.181.128-.385-.641-.257-.385-.513-.1577903.5424687-.244185 1.103194-.257 1.668-.128.257-.385-.257-.513.128.128.128 0 .257 0 .513-.128 0-.77 1.026-1.283.77-.257 0 .257-.385-.128-.257-.385.385-.257.641-.641 1.026-.257.257-.513 1.026 0 .9.128-.257-.257-.128 0-.385.04781864.523281-.14027071 1.0406184-.513 1.411 0-.257-.128-.257-.128-.385-.15340537.8270004-.36765429 1.6415473-.641 2.437.257.128-.257-.513 0-.513-.37790055.3932529-.64375204.8804172-.77 1.411-.05221559.4908967-.27982178.9464642-.641 1.283 0-.128.385.128.257 0-.257.385-.513.257-.641.641-.257 0-.128.385-.128.77.128.257-.128 0 0-.257-.10453423 1.1554105-.40906486 2.2838656-.9 3.335.128 0 .257.77.257 1.026l-.257-.125c-.257.128-.128.77-.513.77.257.641.257-2.181.257-1.283-.257.128.257 1.155-.128.9-.128.513.128 1.026-.257 1.539.128-.128-.385-.513-.385-.128 0 .77.128.257.128.9l.128.385c.257.128-.128.641.257.385-.257 0 0 1.026-.513.9l-.385-.128c0 .385.385.513.513.77l-.128.128c.641.128-.128.77.385 1.155-.128.385-.128.77-.257 1.155.05523395.3234496-.03929624.6544892-.257.9.12007314.4163744.16344507.8511102.128 1.283-.00921005-.1379423-.11905766-.24779-.257-.257-.09638285.2612537-.04772197.5539793.128.77-.128 0-.257.77-.385 1.155.257.513.513.385.77.385-.513.513.513 1.283.128 1.924-.128-.128-.513-.641-.513-.257-.513.641.641.77.513 1.539l.513-.257c-.257.385.513 1.026 0 1.026.257.128.128.9.513.641.11075009.6559009.28249537 1.3000295.513 1.924.257.641.513 1.155.257 1.668.128.128.257.513.513.385.128-.385-.385-.257-.257-.513.06687454.0730007.15844496.1186078.257.128 0 .385.128.641-.385.513.257 1.155 1.283.641 1.668 1.539-.25666667 0-.25666667.1283333 0 .385l.641.257c.257.641-.257.641-.513.77.257.257.513.641.77.641l-.128.641c0-.513.385.128.513.257l-.128-.128c-.128.128.257.385.385.641.128-.128 0-.641-.128-.77.257 0 .385.257.641.385-.385.128.128.641.257.9.128.385.513.128.513.128-.128.128.385.385 0 .385-.128 0 0-.257-.257-.385 0 .257-.257.385.257.641.385.128.513-.513.77.128-.128-.128-.257 0-.513 0l.257.641.257-.257c0 .128 0 .128-.128.128.385-.128.77.641 1.026.513.257.128.385.641.513.77.1654332.3578743.5077071.6016494.9.641.2122451.2026543.4805295.3367965.77.385.257.513-.641 1.026.128 1.026.385.257 1.026 0 .9-.257.3263433.3685117.7179025.6736228 1.155.9.385.257.77.385 1.026.9.128 0 .128-.128.385-.128 1.026.9 2.566.9 3.335 2.053-.385 0-.128.257-.257.385.385-.128.257.385.513 0 .128-.257.128-.385-.128-.641.7965871.0911945 1.5519178.4028853 2.181.9-.128-.257 0-.257.257-.257-.257.385.385.641.77.641l.128-.257.257.385c.128 0 .385-.513.641-.128v.237c.5393375-.1925032 1.1286625-.1925032 1.668 0l.385.513c.257 0 .641-.257.257-.385.77.385 1.283.513 1.539.9 1.8208474-.3151056 3.669034-.4441034 5.516-.385v.257c.513.128.257-.385.513-.257-.128.257.385.385 0 .641.641.257.77-.385 1.155-.641 0-.257-.257.257-.257-.128 0-.128.9.128.9-.385.1280003.1944965.1280003.4465035 0 .641l.385-.257c.513.385-1.026 1.026-.385 1.539l.385-.128c.385.385-.9.641 0 .641.385-.257.641-.9.257-1.026.77-.257.257-1.026 1.155-1.155.257.257-.641.257-.513.513.513.257.77-.385 1.155-.385-.385 0-.128-.513 0-.641.513.128-.128.513.385.385 0-.257.513-.513 0-.641.128-.513.641 0 .9-.513.257.257-.385 1.026.385 1.026-.257-.257.641-.77.128-1.155.257 0 .385.257.257.513.385.128.641-.9 1.026-.257v-.38c.128.128.385.128.641.257.385-.128.9-.9 1.026-.385.128-.128.77-.385.385-.641-.513 0-.385.513-.9.128.513.257.641-.385.77-.641l.128.128c.128-.128.513-.257.513-.513.00921.1379423.1190577.24779.257.257v-.385c.513-.385.385.513.9.128-.1584872.1461419-.2889598.3199925-.385.513.128-.128.385.128.641-.128v-1.027c.257-.257.257.257.513-.257l.128.513c0 .128.513.257.9 0 .257-.257.385-.9-.128-.77.257-.128.641-.128.513.128.385-.385-.257-.257.128-.641.257.128.9-.128 1.411-.128l-.128.77.257-.257c-.128.641.385.128.385.641.2366938-.1515983.4169559-.3768381.513-.641-1.026-.128 0-1.155-.513-1.539.641-.641 1.411.77 1.539-.641-.257 0-.257-.641-.513-.128.513-.385-.128-.77.513-1.026-.257.513.9.128.513.9-.128-.128-.385.128-.513.257.385 0 .385.513.77.128.257-.257.641-.641.385-.77-.257-.257-.385.385-.513 0 .513-.513.9-.257.641-.9-.257.385-.641.128-.77 0 .128-.128.128-.385.257-.513l.128.257c.641-.513-.128-.513.385-1.026h.641c.128.385-.9.77-.385 1.155.385-.385.257-.77.77-1.026 0 .128-.128.257-.128.385.128-.128.9.257 1.026-.641.128-.385-.128-.257-.257-.385.513-.77.385-1.155.77-1.539.257.385.641-.77.641 0-.385.128-1.155 1.026-.9 1.668.2566667 0 .2566667.1283333 0 .385-.128.128-.385.385-.257.641.513-.513.9-.128 1.283 0 .101799-.1505677.1471331-.3322582.128-.513-.257-.257-.385-.128-.641-.257.4763828-.4942921.790396-1.1223185.9-1.8.1105018-.061623.2484811-.0424115.3379463.0470537s.1086767.2274445.0470537.3379463c.513-.77 1.026-1.668 1.539-2.437-.77.257.385-.9-.257-.77-.385.385-.9.513-1.026.128.128-.257.257.128.385.128-.128-.513.77-.257.513-.77-.257.9.513.513.9.77 0-.641.257.128.513-.385.0660738-.6945554.1949338-1.381697.385-2.053.641-.641.77-2.053 1.026-2.822.257-.385.77.128.9-.385s-.641.257-.257-.513l.128.128c0-.257.641-1.283 0-1.668l.513.385c.128-.128 0-.257 0-.385.128 0 .385-.128.385.128.513-.385.128-1.026.257-1.539l-.385.257c-.128-.9.257-1.411.257-2.309h.257l-.128-.513c.257.128.513-.257.257-.641.2661649.4446705.4811974.9180104.641 1.411-.257.385-.385-.513-.641-.257-.257.128-.385 1.026 0 1.155.128-.257 0-.385 0-.641.385 0 .385.385.641.641 0-.128.128-.385 0-.385.1160649.4181345.1550336.8539065.115 1.286-.128-.385-.257.128-.385 0 .385.128.385.641.257 1.283-.513.385 0 1.283-.385 2.053-.3014474-.4121144-.4793785-.9015116-.513-1.411-.257.385-.128.513-.385.9.3841126.315425.6169493.7785557.641 1.275h-.257c0 .641.385.77 0 1.411-.257.641-.513 1.155-.77 1.8l-.77 1.539-.257-.128c.385.77-.641 1.668-.77 2.437-.4156313.5072045-.760759 1.0682893-1.026 1.668-.19899.4580246-.5631504.8243271-1.02 1.026-.253573.4983836-.5549903.9709389-.9 1.411-.257.385-.641.9-.9 1.283-.3728995.4020142-.7158189.8308306-1.026 1.283-.3983001.4164203-.8271609.8024953-1.283 1.155v-.513c-.128.513-.385 0-.641.257.513 0-.128.641-.128 1.026-.9809079.5132541-1.8184702 1.2628328-2.437 2.181l-.128-.257c-.513.9-1.668 1.155-2.694 1.668-.128 0-.513-.128-.77 0-.3681031.5625183-.8484817 1.0428969-1.411 1.411-.7319833.3315224-1.5108704.5477487-2.309.641-2.181 1.539-4.875 1.668-7.441 2.437l-.128-.641c-1.3233724.4299868-2.7165093.6040865-4.105.513-1.411-.128-2.694-.128-3.849-.257l.25-.513c-.641-.257-1.539-.128-1.411.385-.3753592-.1058006-.7655833-.1490462-1.155-.128-.385-.128-.77-.128-.9-.385-.641-.257-.9 0-1.539 0-1.0044639-.4409561-2.0323385-.8265343-3.079-1.155l.257.128c.128-.128.257-.257 0-.385-.513 0-1.668-.9-1.411 0-.6460023-.492817-1.3894592-.8425588-2.181-1.026-.7477554-.2412746-1.4138301-.6854398-1.924-1.283 0 .257-.257.128-.513.128-.257-.128-.513-.385-.77-.513-.257-.257-.513-.385-.641-.641-.4073771-.3888442-.8866487-.6945454-1.411-.9-.128-.257.513 0 0-.385-.257-.128-.128.128-.513 0-.85806-.5767668-1.6346828-1.266276-2.309-2.05-.641-.77-1.155-1.668-1.8-2.309-2.3009913-2.3697397-4.12957336-5.1560535-5.388-8.21h.128c-.9-.77-.385-2.566-1.411-3.079 0-.257-.128-.9.128-.9-.27750828-.4637195-.41147426-.9992355-.385-1.539-.04970012-.6676826-.22368392-1.3202067-.513-1.924 0 .128 0 .128.128.257.02155285-.6028462-.02135729-1.2062699-.128-1.8-.26007356-.6510306-.34856762-1.35795-.257-2.053.128.128.128.385.257.385.257-.513-.641-1.155 0-1.411 0-.257-.385-.128-.257 0 .128-2.822 0-5.9.385-8.852.9-1.924 1.155.128 1.026-1.539.128-.128-.257-.128-.128-.128 0-.641 1.026-.77.77-1.283-.513 0-.128-.385-.385-.385.641-1.155 1.155-1.283 1.155-2.309l.128.128c0-1.283.77-2.437.77-3.592 3.07805079-5.8523277 7.8102972-10.66943244 13.607-13.851 2.8974918-1.42804252 5.9551356-2.5049992 9.108-3.208 3.2090525-.66328679 6.5105621-.74997258 9.75-.256.9384744.64109884 2.0797546.91511996 3.207.77l-.128.128c.128-.513 1.155.257 1.411-.128 1.155.385 2.309.641 3.464 1.026 1.1400872.34977312 2.2544467.77847572 3.335 1.283-.385-.128-.77.128-.257.257h.513v.128c.641 0 1.026 0 .77-.257 2.8816034 1.29765391 5.4936182 3.12538582 7.7 5.388 1.093143 1.0935066 2.1212399 2.2501574 3.079 3.464l1.283 1.924c.4715769.6109409.9002696 1.2538127 1.283 1.924.257.641.77 1.411 1.155 2.181s.9 1.539 1.283 2.309c1.283 4.618 1.539 8.724 2.053 13.342-.8659709-.5268661-1.4354592-1.4286485-1.539-2.437z"/><path d="m65.092 35.339c-.257.128-.385.641-.641.257.257 0 .513-.257.641-.257z"/><path d="m59.576 47.527c-.0693047.0697054-.1596109.1146828-.257.128 0-.128 0-.385.128-.385-.128.128 0 .128.129.257z"/><path d="m57.78 50.221c-.128-.128.128-.77.257-1.155z"/><path d="m55.342 52.145c-.257.128-.257 0-.128-.257.128 0 .128.128.128.257z"/><path d="m55.599 52.529c-.1412797.1352845-.3200545.2248461-.513.257.128.13.257-.513.513-.257z"/><path d="m50.467 56.635c-.128.128-.257.385-.513.385.257-.129.513-.77.513-.385z"/><path d="m48.286 58.559c-.128 0-.128 0-.257.128-.257 0-.128-.257 0-.257z"/><path d="m4.412 40.984.257.257h-.257z"/><path d="m8.517 17.507c.128-.385.257-.128.385-.128-.128.256-.128-.129-.385.128z"/><path d="m17.498 7.629v.128l-.257-.385z"/></g></g></svg>