<svg xmlns="http://www.w3.org/2000/svg" width="50.5" height="49.819" viewBox="0 0 50.5 49.819">
  <g id="Down_arrow_-_OFF" data-name="Down arrow - OFF" transform="translate(1616.966 -868) rotate(90)">
    <g id="Group_659" data-name="Group 659" transform="translate(880.866 1583.352)">
      <path id="Path_329" data-name="Path 329" d="M-.077-.052c1.268,1.316,6.439,5.31,5.789,7.243-.325.965-2.243,2.28-2.972,3.022L-.974,13.991c-.735.747,2.61,1.928,3.393,1.132L6.876,10.59C7.667,9.785,9.644,8.5,9.717,7.262c.063-1.091-1.531-2.226-2.132-2.85L3.2-.146c-.69-.717-4.216-.887-3.272.094" transform="translate(14.501 0.736)" fill="#4c9f38"/>
      <path id="Path_328" data-name="Path 328" d="M-.128-.187C6.752-.422,13.625.38,20.506.146c2.234-.076,2.337-2.467.053-2.389C13.678-2.008,6.8-2.81-.075-2.575-2.31-2.5-2.412-.109-.128-.187" transform="translate(1.796 8.842)" fill="#4c9f38"/>
    </g>
    <g id="Group_1058" data-name="Group 1058" transform="translate(868 1566.466)">
      <path id="Path_2276" data-name="Path 2276" d="M50.694,26.885c0-.578-.289.289-.1-.385C50.694,26.6,50.79,26.693,50.694,26.885Z" transform="translate(-1.838 -1.035)" fill="#4c9f38"/>
      <path id="Path_2277" data-name="Path 2277" d="M48.624,23.785a5.568,5.568,0,0,1-.481-1.348c-.1-.481-.193-.963-.289-1.541a9.015,9.015,0,0,0-.385-1.541,3.376,3.376,0,0,0-.578-1.348c-.1-.193.481-.1.193-.578-.289-.385-.578-.867-.867-1.348a8.535,8.535,0,0,1-.77-1.637c-.578-1.059-1.059-2.311-1.541-3.37H44.1c-.193-.385-.77-.578-1.059-.963.1-.1.193,0,.193-.1-.289.1-.674-.578-.963-.578-.1-.193.1-.289,0-.578h-.385c-.963,0-1.252-1.252-2.215-1.637.1,0,.193,0,.193-.1C38.321,6.453,36.781,5.3,35.144,4.72c.1-.1.289-.193.193-.385-.193.193-.77.1-1.155-.1-.1-.385-.867,0-1.252-.385l.1-.1c-.481.193-.481-.385-.963-.1l-.289-.193c-.289.385-.481-.385-.867-.193v.1c-.289,0-.481-.193-.77-.193v-.1c-.674-.1-1.059-.385-1.059,0-.193-.289.674,0,.385-.481a55.516,55.516,0,0,0-6.933,0c-.289-.1-.481-.1-.481-.193-.193.1-.867.193-1.059.385.1,0-.193-.193-.289-.193-.481-.1-.385.385-.867.385a.238.238,0,0,0,.1-.385c-.289.385-.867.481-1.252.674.1-.1.193-.1.1-.193-.385.385-.963.193-1.252.481l.1-.289c-.77,0-.1.481-.674.578.1-.1,0-.193,0-.289-.385.481-1.348.77-1.733,1.155v-.1a10.752,10.752,0,0,0-1.733.963c-.289.1-.193-.481-.674-.1.193.289-.867.77-.289.867a6.01,6.01,0,0,0-1.541.963c.1-.289-.481-.193-.193-.481H10.4c-.1-.193.289-.193.1-.289a6.23,6.23,0,0,1-.867.77A2.615,2.615,0,0,1,9.05,8.957c.1-.289-.481-.193-.289-.385a4.879,4.879,0,0,0-.193,1.252c-.1.193-.289-.193-.385.1.1.1,0,.193,0,.385-.1,0-.578.77-.963.578-.193,0,.193-.289-.1-.193-.289.289-.193.481-.481.77h0c-.193.193-.385.77,0,.674.1-.193-.193-.1,0-.289A1.323,1.323,0,0,1,6.257,12.9c0-.193-.1-.193-.1-.289a12.827,12.827,0,0,1-.481,1.829c.193.1-.193-.385,0-.385A2.3,2.3,0,0,0,5.1,15.119a1.539,1.539,0,0,1-.481.963c0-.1.289.1.193,0-.193.289-.385.193-.481.481-.193,0-.1.289-.1.578.1.193-.1,0,0-.193a7.515,7.515,0,0,1-.674,2.5c.1,0,.193.578.193.77l-.193-.1c-.193.1-.1.578-.385.578.193.481.193-1.637.193-.963-.193.1.193.867-.1.674-.1.385.1.77-.193,1.155.1-.1-.289-.385-.289-.1,0,.578.1.193.1.674l.1.289c.193.1-.1.481.193.289-.193,0,0,.77-.385.674L2.5,23.3c0,.289.289.385.385.578l-.1.1c.481.1-.1.578.289.867-.1.289-.1.578-.193.867a.812.812,0,0,1-.193.674,2.683,2.683,0,0,1,.1.963.207.207,0,0,0-.193-.193.591.591,0,0,0,.1.578c-.1,0-.193.578-.289.867.193.385.385.289.578.289-.385.385.385.963.1,1.444-.1-.1-.385-.481-.385-.193-.385.481.481.578.385,1.155l.385-.193c-.193.289.385.77,0,.77.193.1.1.674.385.481A8.021,8.021,0,0,0,4.235,33.8c.193.481.385.867.193,1.252.1.1.193.385.385.289.1-.289-.289-.193-.193-.385a.3.3,0,0,0,.193.1c0,.289.1.481-.289.385.193.867.963.481,1.252,1.155q-.289,0,0,.289l.481.193c.193.481-.193.481-.385.578.193.193.385.481.578.481l-.1.481c0-.385.289.1.385.193l-.1-.1c-.1.1.193.289.289.481.1-.1,0-.481-.1-.578.193,0,.289.193.481.289-.289.1.1.481.193.674.1.289.385.1.385.1-.1.1.289.289,0,.289-.1,0,0-.193-.193-.289,0,.193-.193.289.193.481.289.1.385-.385.578.1-.1-.1-.193,0-.385,0l.193.481.193-.193c0,.1,0,.1-.1.1.289-.1.578.481.77.385.193.1.289.481.385.578h0a.836.836,0,0,0,.674.481h0a1.1,1.1,0,0,0,.578.289c.193.385-.481.77.1.77.289.193.77,0,.674-.193a3,3,0,0,0,.867.674c.289.193.578.289.77.674.1,0,.1-.1.289-.1.77.674,1.926.674,2.5,1.541-.289,0-.1.193-.193.289.289-.1.193.289.385,0,.1-.193.1-.289-.1-.481a3.233,3.233,0,0,1,1.637.674c-.1-.193,0-.193.193-.193-.193.289.289.481.578.481l.1-.193.193.289c.1,0,.289-.385.481-.1V46.7a1.862,1.862,0,0,1,1.252,0l.289.385c.193,0,.481-.193.193-.289.578.289.963.385,1.155.674a20.444,20.444,0,0,1,4.14-.289v.193c.385.1.193-.289.385-.193-.1.193.289.289,0,.481.481.193.578-.289.867-.481,0-.193-.193.193-.193-.1,0-.1.674.1.674-.289a.437.437,0,0,1,0,.481l.289-.193c.385.289-.77.77-.289,1.155l.289-.1c.289.289-.674.481,0,.481.289-.193.481-.674.193-.77.578-.193.193-.77.867-.867.193.193-.481.193-.385.385.385.193.578-.289.867-.289-.289,0-.1-.385,0-.481.385.1-.1.385.289.289,0-.193.385-.385,0-.481.1-.385.481,0,.674-.385.193.193-.289.77.289.77-.193-.193.481-.578.1-.867.193,0,.289.193.193.385.289.1.481-.674.77-.193v-.289c.1.1.289.1.481.193.289-.1.674-.674.77-.289.1-.1.578-.289.289-.481-.385,0-.289.385-.674.1.385.193.481-.289.578-.481l.1.1c.1-.1.385-.193.385-.385a.207.207,0,0,0,.193.193v-.289c.385-.289.289.385.674.1a1.329,1.329,0,0,0-.289.385c.1-.1.289.1.481-.1V44.1c.193-.193.193.193.385-.193l.1.385c0,.1.385.193.674,0,.193-.193.289-.674-.1-.578.193-.1.481-.1.385.1.289-.289-.193-.193.1-.481.193.1.674-.1,1.059-.1l-.1.578.193-.193c-.1.481.289.1.289.481a.961.961,0,0,0,.385-.481c-.77-.1,0-.867-.385-1.155.481-.481,1.059.578,1.155-.481-.193,0-.193-.481-.385-.1.385-.289-.1-.578.385-.77-.193.385.674.1.385.674-.1-.1-.289.1-.385.193.289,0,.289.385.578.1.193-.193.481-.481.289-.578-.193-.193-.289.289-.385,0,.385-.385.674-.193.481-.674-.193.289-.481.1-.578,0,.1-.1.1-.289.193-.385l.1.193c.481-.385-.1-.385.289-.77h.481c.1.289-.674.578-.289.867.289-.289.193-.578.578-.77,0,.1-.1.193-.1.289.1-.1.674.193.77-.481.1-.289-.1-.193-.193-.289.385-.578.289-.867.578-1.155.193.289.481-.578.481,0-.289.1-.867.77-.674,1.252q.289,0,0,.289c-.1.1-.289.289-.193.481.385-.385.674-.1.963,0a.579.579,0,0,0,.1-.385c-.193-.193-.289-.1-.481-.193a2.529,2.529,0,0,0,.674-1.348.213.213,0,0,1,.289.289c.385-.578.77-1.252,1.155-1.829-.578.193.289-.674-.193-.578-.289.289-.674.385-.77.1.1-.193.193.1.289.1-.1-.385.578-.193.385-.578-.193.674.385.385.674.578,0-.481.193.1.385-.289a8.671,8.671,0,0,1,.289-1.541c.481-.481.578-1.541.77-2.118.193-.289.578.1.674-.289s-.481.193-.193-.385l.1.1c0-.193.481-.963,0-1.252l.385.289c.1-.1,0-.193,0-.289.1,0,.289-.1.289.1.385-.289.1-.77.193-1.155l-.289.193c-.1-.674.193-1.059.193-1.733h.193l-.1-.385c.193.1.385-.193.193-.481a5.16,5.16,0,0,1,.481,1.059c-.193.289-.289-.385-.481-.193-.193.1-.289.77,0,.867.1-.193,0-.289,0-.481.289,0,.289.289.481.481,0-.1.1-.289,0-.289a2.683,2.683,0,0,1,.1.963c-.1-.289-.193.1-.289,0,.289.1.289.481.193.963-.385.289,0,.963-.289,1.541a2.019,2.019,0,0,1-.385-1.059c-.193.289-.1.385-.289.674a1.321,1.321,0,0,1,.481.963h-.193c0,.481.289.578,0,1.059-.193.481-.385.867-.578,1.348L46.506,36.3l-.193-.1c.289.578-.481,1.252-.578,1.829a5.459,5.459,0,0,0-.77,1.252,1.492,1.492,0,0,1-.77.77,6.477,6.477,0,0,1-.674,1.059c-.193.289-.481.674-.674.963a8.419,8.419,0,0,0-.77.963,8.682,8.682,0,0,1-.963.867v-.385c-.1.385-.289,0-.481.193.385,0-.1.481-.1.77a5,5,0,0,0-1.829,1.637l-.1-.193c-.385.674-1.252.867-2.022,1.252-.1,0-.385-.1-.578,0a3.662,3.662,0,0,1-1.059,1.059,5.845,5.845,0,0,1-1.733.481c-1.637,1.155-3.659,1.252-5.585,1.829l-.1-.481a8.228,8.228,0,0,1-3.081.385c-1.059-.1-2.022-.1-2.889-.193l.193-.385c-.481-.193-1.155-.1-1.059.289a2.666,2.666,0,0,0-.867-.1c-.289-.1-.578-.1-.674-.289-.481-.193-.674,0-1.155,0a22.537,22.537,0,0,0-2.311-.867l.193.1c.1-.1.193-.193,0-.289-.385,0-1.252-.674-1.059,0a4.3,4.3,0,0,0-1.637-.77,3.184,3.184,0,0,1-1.444-.963c0,.193-.193.1-.385.1-.193-.1-.385-.289-.578-.385-.193-.193-.385-.289-.481-.481a3.252,3.252,0,0,0-1.059-.674c-.1-.193.385,0,0-.289-.193-.1-.1.1-.385,0a8.658,8.658,0,0,1-1.733-1.541c-.481-.578-.867-1.252-1.348-1.733a19.523,19.523,0,0,1-4.044-6.162h.1c-.674-.578-.289-1.926-1.059-2.311,0-.193-.1-.674.1-.674a2.053,2.053,0,0,1-.289-1.155,4.035,4.035,0,0,0-.385-1.444c0,.1,0,.1.1.193a6.357,6.357,0,0,0-.1-1.348A3.072,3.072,0,0,1,0,27.541c.1.1.1.289.193.289.193-.385-.481-.867,0-1.059,0-.193-.289-.1-.193,0,.1-2.118,0-4.429.289-6.644.674-1.444.867.1.77-1.155.1-.1-.193-.1-.1-.1,0-.481.77-.578.578-.963-.385,0-.1-.289-.289-.289.481-.867.867-.963.867-1.733l.1.1c0-.963.578-1.829.578-2.7A25.286,25.286,0,0,1,13,2.891,30.457,30.457,0,0,1,19.834.483,20.722,20.722,0,0,1,27.152.291a3.48,3.48,0,0,0,2.407.578l-.1.1c.1-.385.867.193,1.059-.1.867.289,1.733.481,2.6.77a19.291,19.291,0,0,1,2.5.963c-.289-.1-.578.1-.193.193h.385v.1c.481,0,.77,0,.578-.193a18.928,18.928,0,0,1,5.777,4.044,29.7,29.7,0,0,1,2.311,2.6l.963,1.444a12.545,12.545,0,0,1,.963,1.444c.193.481.578,1.059.867,1.637s.674,1.155.963,1.733A60.029,60.029,0,0,1,49.78,25.615,2.432,2.432,0,0,1,48.624,23.785Z" transform="translate(0.039 -0.053)" fill="#4c9f38"/>
      <path id="Path_2278" data-name="Path 2278" d="M50.681,27.6c-.193.1-.289.481-.481.193C50.393,27.793,50.585,27.6,50.681,27.6Z" transform="translate(-1.825 -1.075)" fill="#4c9f38"/>
      <path id="Path_2279" data-name="Path 2279" d="M46.393,37.093a.336.336,0,0,1-.193.1c0-.1,0-.289.1-.289C46.2,37,46.3,37,46.393,37.093Z" transform="translate(-1.677 -1.421)" fill="#4c9f38"/>
      <path id="Path_2280" data-name="Path 2280" d="M45,39.167c-.1-.1.1-.578.193-.867Z" transform="translate(-1.631 -1.473)" fill="#4c9f38"/>
      <path id="Path_2281" data-name="Path 2281" d="M43.094,40.693c-.193.1-.193,0-.1-.193C43.094,40.5,43.094,40.6,43.094,40.693Z" transform="translate(-1.556 -1.554)" fill="#4c9f38"/>
      <path id="Path_2282" data-name="Path 2282" d="M43.285,41a.73.73,0,0,1-.385.193C43,41.287,43.093,40.806,43.285,41Z" transform="translate(-1.554 -1.571)" fill="#4c9f38"/>
      <path id="Path_2283" data-name="Path 2283" d="M39.285,44.2c-.1.1-.193.289-.385.289C39.093,44.389,39.285,43.908,39.285,44.2Z" transform="translate(-1.406 -1.688)" fill="#4c9f38"/>
      <path id="Path_2284" data-name="Path 2284" d="M37.588,45.7c-.1,0-.1,0-.193.1-.193,0-.1-.193,0-.193Z" transform="translate(-1.346 -1.743)" fill="#4c9f38"/>
      <path id="Path_2285" data-name="Path 2285" d="M3.4,32l.193.193H3.4Z" transform="translate(-0.088 -1.239)" fill="#4c9f38"/>
      <path id="Path_2286" data-name="Path 2286" d="M6.6,13.694c.1-.289.193-.1.289-.1C6.793,13.79,6.793,13.5,6.6,13.694Z" transform="translate(-0.207 -0.553)" fill="#4c9f38"/>
      <path id="Path_2287" data-name="Path 2287" d="M13.593,5.993v.1L13.4,5.8Z" transform="translate(-0.46 -0.266)" fill="#4c9f38"/>
    </g>
  </g>
</svg>
