<svg xmlns="http://www.w3.org/2000/svg" width="50" height="50" viewBox="0 0 50 50">
  <g id="Down_arrow_-_OFF" data-name="Down arrow - OFF" transform="translate(1616.466 -868) rotate(90)">
    <g id="Group_659" data-name="Group 659" transform="translate(880.866 1583.352)">
      <path id="Path_329" data-name="Path 329" d="M-.086-.058C1.17,1.248,6.295,5.211,5.65,7.13c-.322.958-2.223,2.262-2.945,3l-3.68,3.749C-1.7,14.618,1.611,15.791,2.387,15L6.8,10.5c.784-.8,2.743-2.071,2.815-3.3C9.681,6.118,8.1,4.992,7.506,4.372L3.156-.151c-.684-.711-4.178-.88-3.242.093" transform="translate(14.38 0.736)" fill="#fff"/>
      <path id="Path_328" data-name="Path 328" d="M-.143-.205C6.674-.439,13.485.357,20.3.125c2.213-.076,2.315-2.448.052-2.37-6.819.233-13.629-.563-20.447-.33C-2.3-2.5-2.406-.128-.143-.205" transform="translate(1.796 8.794)" fill="#fff"/>
    </g>
    <g id="Group_1058" data-name="Group 1058" transform="translate(868 1566.466)">
      <path id="Path_2276" data-name="Path 2276" d="M50.694,26.885c0-.578-.289.289-.1-.385C50.694,26.6,50.79,26.693,50.694,26.885Z" transform="translate(-1.657 -1.289)" fill="#fff"/>
      <path id="Path_2277" data-name="Path 2277" d="M48.8,23.55a5.465,5.465,0,0,1-.483-1.335c-.1-.477-.193-.953-.29-1.525a8.827,8.827,0,0,0-.387-1.525,3.319,3.319,0,0,0-.58-1.335c-.1-.191.483-.1.193-.572-.29-.381-.58-.858-.87-1.335a8.4,8.4,0,0,1-.773-1.621c-.58-1.049-1.063-2.288-1.546-3.337h.193c-.193-.381-.773-.572-1.063-.953.1-.1.193,0,.193-.1-.29.1-.676-.572-.966-.572-.1-.191.1-.286,0-.572h-.387c-.966,0-1.256-1.239-2.223-1.621.1,0,.193,0,.193-.1-1.546-.667-3.092-1.811-4.735-2.383.1-.1.29-.191.193-.381-.193.191-.773.1-1.16-.1-.1-.381-.87,0-1.256-.381l.1-.1c-.483.191-.483-.381-.966-.1l-.29-.191c-.29.381-.483-.381-.87-.191v.1c-.29,0-.483-.191-.773-.191v-.1c-.676-.1-1.063-.381-1.063,0-.193-.286.676,0,.387-.477a56.479,56.479,0,0,0-6.958,0c-.29-.1-.483-.1-.483-.191-.193.1-.87.191-1.063.381.1,0-.193-.191-.29-.191-.483-.1-.387.381-.87.381a.234.234,0,0,0,.1-.381c-.29.381-.87.477-1.256.667.1-.1.193-.1.1-.191-.387.381-.966.191-1.256.477l.1-.286c-.773,0-.1.477-.676.572.1-.1,0-.191,0-.286-.387.477-1.353.763-1.739,1.144v-.1a10.836,10.836,0,0,0-1.739.953c-.29.1-.193-.477-.676-.1.193.286-.87.763-.29.858a6.045,6.045,0,0,0-1.546.953c.1-.286-.483-.191-.193-.477h-.387c-.1-.191.29-.191.1-.286a6.226,6.226,0,0,1-.87.763,2.567,2.567,0,0,1-.58,1.621c.1-.286-.483-.191-.29-.381A4.77,4.77,0,0,0,8.6,9.727c-.1.191-.29-.191-.387.1.1.1,0,.191,0,.381-.1,0-.58.763-.966.572-.193,0,.193-.286-.1-.191-.29.286-.193.477-.483.763h0c-.193.191-.387.763,0,.667.1-.191-.193-.1,0-.286.1.286-.1.667-.387,1.049,0-.191-.1-.191-.1-.286A12.563,12.563,0,0,1,5.7,14.3c.193.1-.193-.381,0-.381a2.264,2.264,0,0,0-.58,1.049,1.516,1.516,0,0,1-.483.953c0-.1.29.1.193,0-.193.286-.387.191-.483.477-.193,0-.1.286-.1.572.1.191-.1,0,0-.191a7.361,7.361,0,0,1-.676,2.479c.1,0,.193.572.193.763l-.193-.1c-.193.1-.1.572-.387.572.193.477.193-1.621.193-.953-.193.1.193.858-.1.667-.1.381.1.763-.193,1.144.1-.1-.29-.381-.29-.1,0,.572.1.191.1.667l.1.286c.193.1-.1.477.193.286-.193,0,0,.763-.387.667l-.29-.1c0,.286.29.381.387.572l-.1.1c.483.1-.1.572.29.858-.1.286-.1.572-.193.858a.8.8,0,0,1-.193.667,2.623,2.623,0,0,1,.1.953.206.206,0,0,0-.193-.191c-.1.286,0,.381.1.572-.1,0-.193.572-.29.858.193.381.387.286.58.286-.387.381.387.953.1,1.43-.1-.1-.387-.477-.387-.191-.387.477.483.572.387,1.144l.387-.191c-.193.286.387.763,0,.763.193.1.1.667.387.477a7.857,7.857,0,0,0,.387,1.43c.193.477.387.858.193,1.239.1.1.193.381.387.286.1-.286-.29-.191-.193-.381a.3.3,0,0,0,.193.1c0,.286.1.477-.29.381.193.858.966.477,1.256,1.144q-.29,0,0,.286l.483.191c.193.477-.193.477-.387.572.193.191.387.477.58.477l-.1.477c0-.381.29.1.387.191l-.1-.1c-.1.1.193.286.29.477.1-.1,0-.477-.1-.572.193,0,.29.191.483.286-.29.1.1.477.193.667.1.286.387.1.387.1-.1.1.29.286,0,.286-.1,0,0-.191-.193-.286,0,.191-.193.286.193.477.29.1.387-.381.58.1-.1-.1-.193,0-.387,0l.193.477.193-.191c0,.1,0,.1-.1.1.29-.1.58.477.773.381.193.1.29.477.387.572h0a.839.839,0,0,0,.676.477h0a1.108,1.108,0,0,0,.58.286c.193.381-.483.763.1.763.29.191.773,0,.676-.191a3,3,0,0,0,.87.667c.29.191.58.286.773.667.1,0,.1-.1.29-.1.773.667,1.933.667,2.513,1.525-.29,0-.1.191-.193.286.29-.1.193.286.387,0,.1-.191.1-.286-.1-.477a3.268,3.268,0,0,1,1.643.667c-.1-.191,0-.191.193-.191-.193.286.29.477.58.477l.1-.191.193.286c.1,0,.29-.381.483-.1v.191a1.893,1.893,0,0,1,1.256,0l.29.381c.193,0,.483-.191.193-.286.58.286.966.381,1.16.667a20.794,20.794,0,0,1,4.155-.286v.191c.387.1.193-.286.387-.191-.1.191.29.286,0,.477.483.191.58-.286.87-.477,0-.191-.193.191-.193-.1,0-.1.676.1.676-.286a.428.428,0,0,1,0,.477l.29-.191c.387.286-.773.763-.29,1.144l.29-.1c.29.286-.676.477,0,.477.29-.191.483-.667.193-.763.58-.191.193-.763.87-.858.193.191-.483.191-.387.381.387.191.58-.286.87-.286-.29,0-.1-.381,0-.477.387.1-.1.381.29.286,0-.191.387-.381,0-.477.1-.381.483,0,.676-.381.193.191-.29.763.29.763-.193-.191.483-.572.1-.858.193,0,.29.191.193.381.29.1.483-.667.773-.191v-.286c.1.1.29.1.483.191.29-.1.676-.667.773-.286.1-.1.58-.286.29-.477-.387,0-.29.381-.676.1.387.191.483-.286.58-.477l.1.1c.1-.1.387-.191.387-.381a.206.206,0,0,0,.193.191v-.286c.387-.286.29.381.676.1a1.318,1.318,0,0,0-.29.381c.1-.1.29.1.483-.1v-.763c.193-.191.193.191.387-.191l.1.381c0,.1.387.191.676,0,.193-.191.29-.667-.1-.572.193-.1.483-.1.387.1.29-.286-.193-.191.1-.477.193.1.676-.1,1.063-.1l-.1.572.193-.191c-.1.477.29.1.29.477a.954.954,0,0,0,.387-.477c-.773-.1,0-.858-.387-1.144.483-.477,1.063.572,1.16-.477-.193,0-.193-.477-.387-.1.387-.286-.1-.572.387-.763-.193.381.676.1.387.667-.1-.1-.29.1-.387.191.29,0,.29.381.58.1.193-.191.483-.477.29-.572-.193-.191-.29.286-.387,0,.387-.381.676-.191.483-.667-.193.286-.483.1-.58,0,.1-.1.1-.286.193-.381l.1.191c.483-.381-.1-.381.29-.763h.483c.1.286-.676.572-.29.858.29-.286.193-.572.58-.763,0,.1-.1.191-.1.286.1-.1.676.191.773-.477.1-.286-.1-.191-.193-.286.387-.572.29-.858.58-1.144.193.286.483-.572.483,0-.29.1-.87.763-.676,1.239q.29,0,0,.286c-.1.1-.29.286-.193.477.387-.381.676-.1.966,0a.567.567,0,0,0,.1-.381c-.193-.191-.29-.1-.483-.191a2.49,2.49,0,0,0,.676-1.335.212.212,0,0,1,.29.286c.387-.572.773-1.239,1.16-1.811-.58.191.29-.667-.193-.572-.29.286-.676.381-.773.1.1-.191.193.1.29.1-.1-.381.58-.191.387-.572-.193.667.387.381.676.572,0-.477.193.1.387-.286a8.481,8.481,0,0,1,.29-1.525c.483-.477.58-1.525.773-2.1.193-.286.58.1.676-.286s-.483.191-.193-.381l.1.1c0-.191.483-.953,0-1.239l.387.286c.1-.1,0-.191,0-.286.1,0,.29-.1.29.1.387-.286.1-.763.193-1.144l-.29.191c-.1-.667.193-1.049.193-1.716h.193l-.1-.381c.193.1.387-.191.193-.477a5.076,5.076,0,0,1,.483,1.049c-.193.286-.29-.381-.483-.191-.193.1-.29.763,0,.858.1-.191,0-.286,0-.477.29,0,.29.286.483.477,0-.1.1-.286,0-.286a2.622,2.622,0,0,1,.1.953c-.1-.286-.193.1-.29,0,.29.1.29.477.193.953-.387.286,0,.953-.29,1.525a1.983,1.983,0,0,1-.387-1.049c-.193.286-.1.381-.29.667a1.3,1.3,0,0,1,.483.953h-.193c0,.477.29.572,0,1.049-.193.477-.387.858-.58,1.335l-.58,1.144-.193-.1c.29.572-.483,1.239-.58,1.811a5.393,5.393,0,0,0-.773,1.239,1.488,1.488,0,0,1-.773.763,6.4,6.4,0,0,1-.676,1.049c-.193.286-.483.667-.676.953a8.357,8.357,0,0,0-.773.953,8.673,8.673,0,0,1-.966.858v-.381c-.1.381-.29,0-.483.191.387,0-.1.477-.1.763a5,5,0,0,0-1.836,1.621l-.1-.191c-.387.667-1.256.858-2.029,1.239-.1,0-.387-.1-.58,0a3.65,3.65,0,0,1-1.063,1.049,5.929,5.929,0,0,1-1.739.477c-1.643,1.144-3.672,1.239-5.605,1.811l-.1-.477a8.363,8.363,0,0,1-3.092.381c-1.063-.1-2.029-.1-2.9-.191l.193-.381c-.483-.191-1.16-.1-1.063.286a2.71,2.71,0,0,0-.87-.1c-.29-.1-.58-.1-.676-.286-.483-.191-.676,0-1.16,0a22.814,22.814,0,0,0-2.319-.858l.193.1c.1-.1.193-.191,0-.286-.387,0-1.256-.667-1.063,0a4.341,4.341,0,0,0-1.643-.763,3.2,3.2,0,0,1-1.45-.953c0,.191-.193.1-.387.1-.193-.1-.387-.286-.58-.381-.193-.191-.387-.286-.483-.477A3.27,3.27,0,0,0,9.276,45.1c-.1-.191.387,0,0-.286-.193-.1-.1.1-.387,0A8.653,8.653,0,0,1,7.15,43.284c-.483-.572-.87-1.239-1.353-1.716a19.307,19.307,0,0,1-4.059-6.1h.1c-.676-.572-.29-1.907-1.063-2.288,0-.191-.1-.667.1-.667a2.012,2.012,0,0,1-.29-1.144,3.953,3.953,0,0,0-.387-1.43c0,.1,0,.1.1.191a6.211,6.211,0,0,0-.1-1.335A3,3,0,0,1,0,27.268c.1.1.1.286.193.286.193-.381-.483-.858,0-1.049,0-.191-.29-.1-.193,0,.1-2.1,0-4.385.29-6.578.676-1.43.87.1.773-1.144.1-.1-.193-.1-.1-.1,0-.477.773-.572.58-.953-.387,0-.1-.286-.29-.286.483-.858.87-.953.87-1.716l.1.1c0-.953.58-1.811.58-2.669a25.2,25.2,0,0,1,10.244-10.3A30.847,30.847,0,0,1,19.906.479,21.076,21.076,0,0,1,27.251.288,3.53,3.53,0,0,0,29.667.86l-.1.1c.1-.381.87.191,1.063-.1.87.286,1.739.477,2.609.763a19.524,19.524,0,0,1,2.513.953c-.29-.1-.58.1-.193.191h.387v.1c.483,0,.773,0,.58-.191a19,19,0,0,1,5.8,4A29.535,29.535,0,0,1,44.646,9.25l.966,1.43a12.409,12.409,0,0,1,.966,1.43c.193.477.58,1.049.87,1.621s.676,1.144.966,1.716a58.691,58.691,0,0,1,1.546,9.915A2.41,2.41,0,0,1,48.8,23.55Z" transform="translate(0.039 -0.053)" fill="#fff"/>
      <path id="Path_2278" data-name="Path 2278" d="M50.681,27.6c-.193.1-.289.481-.481.193C50.393,27.793,50.585,27.6,50.681,27.6Z" transform="translate(-1.644 -1.34)" fill="#fff"/>
      <path id="Path_2279" data-name="Path 2279" d="M46.393,37.093a.336.336,0,0,1-.193.1c0-.1,0-.289.1-.289C46.2,37,46.3,37,46.393,37.093Z" transform="translate(-1.496 -1.774)" fill="#fff"/>
      <path id="Path_2280" data-name="Path 2280" d="M45,39.167c-.1-.1.1-.578.193-.867Z" transform="translate(-1.45 -1.844)" fill="#fff"/>
      <path id="Path_2281" data-name="Path 2281" d="M43.094,40.693c-.193.1-.193,0-.1-.193C43.094,40.5,43.094,40.6,43.094,40.693Z" transform="translate(-1.375 -1.942)" fill="#fff"/>
      <path id="Path_2282" data-name="Path 2282" d="M43.285,41a.73.73,0,0,1-.385.193C43,41.287,43.093,40.806,43.285,41Z" transform="translate(-1.373 -1.963)" fill="#fff"/>
      <path id="Path_2283" data-name="Path 2283" d="M39.285,44.2c-.1.1-.193.289-.385.289C39.093,44.389,39.285,43.908,39.285,44.2Z" transform="translate(-1.269 -2.188)" fill="#fff"/>
      <path id="Path_2284" data-name="Path 2284" d="M37.588,45.7c-.1,0-.1,0-.193.1-.193,0-.1-.193,0-.193Z" transform="translate(-1.215 -2.244)" fill="#fff"/>
      <path id="Path_2285" data-name="Path 2285" d="M3.4,32l.193.193H3.4Z" transform="translate(-0.088 -1.545)" fill="#fff"/>
      <path id="Path_2286" data-name="Path 2286" d="M6.6,13.694c.1-.289.193-.1.289-.1C6.793,13.79,6.793,13.5,6.6,13.694Z" transform="translate(-0.207 -0.683)" fill="#fff"/>
      <path id="Path_2287" data-name="Path 2287" d="M13.593,5.993v.1L13.4,5.8Z" transform="translate(-0.412 -0.266)" fill="#fff"/>
    </g>
  </g>
</svg>
