<svg xmlns="http://www.w3.org/2000/svg" width="67.283" height="66.375" viewBox="0 0 67.283 66.375">
  <g id="Down_arrow_-_OFF" data-name="Down arrow - OFF" transform="translate(1633.748 -868) rotate(90)">
    <circle id="Ellipse_266" data-name="Ellipse 266" cx="31" cy="31" r="31" transform="translate(869.934 1630.748) rotate(-90)" fill="#fff" opacity="0.399"/>
    <g id="Group_659" data-name="Group 659" transform="translate(903.025 1588.964)">
      <path id="Path_329" data-name="Path 329" d="M.256.175c1.689,1.753,8.579,7.074,7.713,9.65-.433,1.286-2.988,3.038-3.96,4.026L-.939,18.885c-.979.995,3.477,2.569,4.52,1.508l5.938-6.04c1.054-1.073,3.689-2.78,3.785-4.434.084-1.454-2.039-2.966-2.841-3.8L4.615.05C3.7-.905-1-1.132.256.175" transform="translate(1.079 0.736)" fill="#282828"/>
      <path id="Path_328" data-name="Path 328" d="M.426.622c9.166-.313,18.323.755,27.491.443,2.976-.1,3.113-3.286.071-3.183C18.82-1.8,9.663-2.874.5-2.561-2.48-2.459-2.616.726.426.622" transform="translate(-16.087 10.91)" fill="#282828"/>
    </g>
    <g id="Group_1058" data-name="Group 1058" transform="translate(868 1566.466)">
      <path id="Path_2276" data-name="Path 2276" d="M50.748,27.013c0-.77-.385.385-.128-.513C50.748,26.628,50.876,26.757,50.748,27.013Z" transform="translate(14.344 7.428)" fill="#282828"/>
      <path id="Path_2277" data-name="Path 2277" d="M64.8,31.672a7.418,7.418,0,0,1-.641-1.8c-.128-.641-.257-1.283-.385-2.053a12.011,12.011,0,0,0-.513-2.053,4.5,4.5,0,0,0-.77-1.8c-.128-.257.641-.128.257-.77-.385-.513-.77-1.155-1.155-1.8a11.372,11.372,0,0,1-1.026-2.181c-.77-1.411-1.411-3.079-2.053-4.49h.257c-.257-.513-1.026-.77-1.411-1.283.128-.128.257,0,.257-.128-.385.128-.9-.77-1.283-.77-.128-.257.128-.385,0-.77h-.513c-1.283,0-1.668-1.668-2.951-2.181.128,0,.257,0,.257-.128-2.053-.9-4.105-2.437-6.286-3.207.128-.128.385-.257.257-.513-.257.257-1.026.128-1.539-.128-.128-.513-1.155,0-1.668-.513l.128-.128c-.641.257-.641-.513-1.283-.128L42.346,4.6c-.385.513-.641-.513-1.155-.257v.128c-.385,0-.641-.257-1.026-.257V4.09c-.9-.128-1.411-.513-1.411,0-.257-.385.9,0,.513-.641a73.966,73.966,0,0,0-9.237,0c-.385-.128-.641-.128-.641-.257-.257.128-1.155.257-1.411.513.128,0-.257-.257-.385-.257-.641-.128-.513.513-1.155.513a.317.317,0,0,0,.128-.513c-.385.513-1.155.641-1.668.9.128-.128.257-.128.128-.257-.513.513-1.283.257-1.668.641l.128-.385c-1.026,0-.128.641-.9.77.128-.128,0-.257,0-.385-.513.641-1.8,1.026-2.309,1.539V6.143a14.325,14.325,0,0,0-2.309,1.283c-.385.128-.257-.641-.9-.128.257.385-1.155,1.026-.385,1.155a8.008,8.008,0,0,0-2.053,1.283c.128-.385-.641-.257-.257-.641h-.513c-.128-.257.385-.257.128-.385A8.3,8.3,0,0,1,12.84,9.735a3.484,3.484,0,0,1-.77,2.181c.128-.385-.641-.257-.385-.513a6.5,6.5,0,0,0-.257,1.668c-.128.257-.385-.257-.513.128.128.128,0,.257,0,.513-.128,0-.77,1.026-1.283.77-.257,0,.257-.385-.128-.257-.385.385-.257.641-.641,1.026h0c-.257.257-.513,1.026,0,.9.128-.257-.257-.128,0-.385a1.763,1.763,0,0,1-.513,1.411c0-.257-.128-.257-.128-.385a17.09,17.09,0,0,1-.641,2.437c.257.128-.257-.513,0-.513a3.058,3.058,0,0,0-.77,1.411,2.05,2.05,0,0,1-.641,1.283c0-.128.385.128.257,0-.257.385-.513.257-.641.641-.257,0-.128.385-.128.77.128.257-.128,0,0-.257a10.013,10.013,0,0,1-.9,3.335c.128,0,.257.77.257,1.026L4.758,26.8c-.257.128-.128.77-.513.77.257.641.257-2.181.257-1.283-.257.128.257,1.155-.128.9-.128.513.128,1.026-.257,1.539.128-.128-.385-.513-.385-.128,0,.77.128.257.128.9l.128.385c.257.128-.128.641.257.385-.257,0,0,1.026-.513.9l-.385-.128c0,.385.385.513.513.77l-.128.128c.641.128-.128.77.385,1.155-.128.385-.128.77-.257,1.155a1.082,1.082,0,0,1-.257.9,3.575,3.575,0,0,1,.128,1.283.276.276,0,0,0-.257-.257.788.788,0,0,0,.128.77c-.128,0-.257.77-.385,1.155.257.513.513.385.77.385-.513.513.513,1.283.128,1.924-.128-.128-.513-.641-.513-.257-.513.641.641.77.513,1.539l.513-.257c-.257.385.513,1.026,0,1.026.257.128.128.9.513.641a10.687,10.687,0,0,0,.513,1.924c.257.641.513,1.155.257,1.668.128.128.257.513.513.385.128-.385-.385-.257-.257-.513a.4.4,0,0,0,.257.128c0,.385.128.641-.385.513.257,1.155,1.283.641,1.668,1.539q-.385,0,0,.385l.641.257c.257.641-.257.641-.513.77.257.257.513.641.77.641l-.128.641c0-.513.385.128.513.257l-.128-.128c-.128.128.257.385.385.641.128-.128,0-.641-.128-.77.257,0,.385.257.641.385-.385.128.128.641.257.9.128.385.513.128.513.128-.128.128.385.385,0,.385-.128,0,0-.257-.257-.385,0,.257-.257.385.257.641.385.128.513-.513.77.128-.128-.128-.257,0-.513,0l.257.641.257-.257c0,.128,0,.128-.128.128.385-.128.77.641,1.026.513.257.128.385.641.513.77h0a1.114,1.114,0,0,0,.9.641h0a1.463,1.463,0,0,0,.77.385c.257.513-.641,1.026.128,1.026.385.257,1.026,0,.9-.257a4,4,0,0,0,1.155.9c.385.257.77.385,1.026.9.128,0,.128-.128.385-.128,1.026.9,2.566.9,3.335,2.053-.385,0-.128.257-.257.385.385-.128.257.385.513,0,.128-.257.128-.385-.128-.641a4.308,4.308,0,0,1,2.181.9c-.128-.257,0-.257.257-.257-.257.385.385.641.77.641l.128-.257.257.385c.128,0,.385-.513.641-.128V62.2a2.481,2.481,0,0,1,1.668,0l.385.513c.257,0,.641-.257.257-.385.77.385,1.283.513,1.539.9a27.239,27.239,0,0,1,5.516-.385V63.1c.513.128.257-.385.513-.257-.128.257.385.385,0,.641.641.257.77-.385,1.155-.641,0-.257-.257.257-.257-.128,0-.128.9.128.9-.385a.583.583,0,0,1,0,.641l.385-.257c.513.385-1.026,1.026-.385,1.539l.385-.128c.385.385-.9.641,0,.641.385-.257.641-.9.257-1.026.77-.257.257-1.026,1.155-1.155.257.257-.641.257-.513.513.513.257.77-.385,1.155-.385-.385,0-.128-.513,0-.641.513.128-.128.513.385.385,0-.257.513-.513,0-.641.128-.513.641,0,.9-.513.257.257-.385,1.026.385,1.026-.257-.257.641-.77.128-1.155.257,0,.385.257.257.513.385.128.641-.9,1.026-.257V61.05c.128.128.385.128.641.257.385-.128.9-.9,1.026-.385.128-.128.77-.385.385-.641-.513,0-.385.513-.9.128.513.257.641-.385.77-.641l.128.128c.128-.128.513-.257.513-.513a.276.276,0,0,0,.257.257v-.385c.513-.385.385.513.9.128a1.771,1.771,0,0,0-.385.513c.128-.128.385.128.641-.128V58.741c.257-.257.257.257.513-.257l.128.513c0,.128.513.257.9,0,.257-.257.385-.9-.128-.77.257-.128.641-.128.513.128.385-.385-.257-.257.128-.641.257.128.9-.128,1.411-.128l-.128.77.257-.257c-.128.641.385.128.385.641a1.281,1.281,0,0,0,.513-.641c-1.026-.128,0-1.155-.513-1.539.641-.641,1.411.77,1.539-.641-.257,0-.257-.641-.513-.128.513-.385-.128-.77.513-1.026-.257.513.9.128.513.9-.128-.128-.385.128-.513.257.385,0,.385.513.77.128.257-.257.641-.641.385-.77-.257-.257-.385.385-.513,0,.513-.513.9-.257.641-.9-.257.385-.641.128-.77,0,.128-.128.128-.385.257-.513l.128.257c.641-.513-.128-.513.385-1.026h.641c.128.385-.9.77-.385,1.155.385-.385.257-.77.77-1.026,0,.128-.128.257-.128.385.128-.128.9.257,1.026-.641.128-.385-.128-.257-.257-.385.513-.77.385-1.155.77-1.539.257.385.641-.77.641,0-.385.128-1.155,1.026-.9,1.668q.385,0,0,.385c-.128.128-.385.385-.257.641.513-.513.9-.128,1.283,0a.771.771,0,0,0,.128-.513c-.257-.257-.385-.128-.641-.257a3.369,3.369,0,0,0,.9-1.8.283.283,0,0,1,.385.385c.513-.77,1.026-1.668,1.539-2.437-.77.257.385-.9-.257-.77-.385.385-.9.513-1.026.128.128-.257.257.128.385.128-.128-.513.77-.257.513-.77-.257.9.513.513.9.77,0-.641.257.128.513-.385a11.552,11.552,0,0,1,.385-2.053c.641-.641.77-2.053,1.026-2.822.257-.385.77.128.9-.385s-.641.257-.257-.513l.128.128c0-.257.641-1.283,0-1.668l.513.385c.128-.128,0-.257,0-.385.128,0,.385-.128.385.128.513-.385.128-1.026.257-1.539l-.385.257c-.128-.9.257-1.411.257-2.309h.257l-.128-.513c.257.128.513-.257.257-.641a6.875,6.875,0,0,1,.641,1.411c-.257.385-.385-.513-.641-.257-.257.128-.385,1.026,0,1.155.128-.257,0-.385,0-.641.385,0,.385.385.641.641,0-.128.128-.385,0-.385A3.575,3.575,0,0,1,64.54,39.5c-.128-.385-.257.128-.385,0,.385.128.385.641.257,1.283-.513.385,0,1.283-.385,2.053a2.69,2.69,0,0,1-.513-1.411c-.257.385-.128.513-.385.9A1.76,1.76,0,0,1,63.77,43.6h-.257c0,.641.385.77,0,1.411-.257.641-.513,1.155-.77,1.8l-.77,1.539-.257-.128c.385.77-.641,1.668-.77,2.437a7.273,7.273,0,0,0-1.026,1.668A1.987,1.987,0,0,1,58.9,53.353a8.629,8.629,0,0,1-.9,1.411c-.257.385-.641.9-.9,1.283a11.217,11.217,0,0,0-1.026,1.283,11.567,11.567,0,0,1-1.283,1.155v-.513c-.128.513-.385,0-.641.257.513,0-.128.641-.128,1.026a6.663,6.663,0,0,0-2.437,2.181l-.128-.257c-.513.9-1.668,1.155-2.694,1.668-.128,0-.513-.128-.77,0a4.879,4.879,0,0,1-1.411,1.411,7.787,7.787,0,0,1-2.309.641c-2.181,1.539-4.875,1.668-7.441,2.437l-.128-.641a10.962,10.962,0,0,1-4.105.513c-1.411-.128-2.694-.128-3.849-.257L29,66.438c-.641-.257-1.539-.128-1.411.385a3.551,3.551,0,0,0-1.155-.128c-.385-.128-.77-.128-.9-.385-.641-.257-.9,0-1.539,0a30.026,30.026,0,0,0-3.079-1.155l.257.128c.128-.128.257-.257,0-.385-.513,0-1.668-.9-1.411,0a5.728,5.728,0,0,0-2.181-1.026,4.243,4.243,0,0,1-1.924-1.283c0,.257-.257.128-.513.128-.257-.128-.513-.385-.77-.513-.257-.257-.513-.385-.641-.641a4.333,4.333,0,0,0-1.411-.9c-.128-.257.513,0,0-.385-.257-.128-.128.128-.513,0A11.535,11.535,0,0,1,9.5,58.228c-.641-.77-1.155-1.668-1.8-2.309a26.011,26.011,0,0,1-5.388-8.21h.128c-.9-.77-.385-2.566-1.411-3.079,0-.257-.128-.9.128-.9a2.736,2.736,0,0,1-.385-1.539,5.376,5.376,0,0,0-.513-1.924c0,.128,0,.128.128.257a8.47,8.47,0,0,0-.128-1.8,4.093,4.093,0,0,1-.257-2.053c.128.128.128.385.257.385.257-.513-.641-1.155,0-1.411,0-.257-.385-.128-.257,0,.128-2.822,0-5.9.385-8.852.9-1.924,1.155.128,1.026-1.539.128-.128-.257-.128-.128-.128,0-.641,1.026-.77.77-1.283-.513,0-.128-.385-.385-.385.641-1.155,1.155-1.283,1.155-2.309l.128.128c0-1.283.77-2.437.77-3.592A33.689,33.689,0,0,1,17.33,3.834,40.579,40.579,0,0,1,26.438.626,27.608,27.608,0,0,1,36.188.37a4.636,4.636,0,0,0,3.207.77l-.128.128c.128-.513,1.155.257,1.411-.128,1.155.385,2.309.641,3.464,1.026a25.7,25.7,0,0,1,3.335,1.283c-.385-.128-.77.128-.257.257h.513v.128c.641,0,1.026,0,.77-.257a25.218,25.218,0,0,1,7.7,5.388,39.562,39.562,0,0,1,3.079,3.464l1.283,1.924a16.713,16.713,0,0,1,1.283,1.924c.257.641.77,1.411,1.155,2.181s.9,1.539,1.283,2.309c1.283,4.618,1.539,8.724,2.053,13.342A3.24,3.24,0,0,1,64.8,31.672Z" transform="translate(0.039 -0.053)" fill="#282828"/>
      <path id="Path_2278" data-name="Path 2278" d="M50.841,27.6c-.257.128-.385.641-.641.257C50.457,27.857,50.713,27.6,50.841,27.6Z" transform="translate(14.251 7.739)" fill="#282828"/>
      <path id="Path_2279" data-name="Path 2279" d="M46.457,37.157a.448.448,0,0,1-.257.128c0-.128,0-.385.128-.385C46.2,37.028,46.328,37.028,46.457,37.157Z" transform="translate(13.119 10.37)" fill="#282828"/>
      <path id="Path_2280" data-name="Path 2280" d="M45.008,39.455c-.128-.128.128-.77.257-1.155Z" transform="translate(12.772 10.766)" fill="#282828"/>
      <path id="Path_2281" data-name="Path 2281" d="M43.147,40.757c-.257.128-.257,0-.128-.257C43.147,40.5,43.147,40.628,43.147,40.757Z" transform="translate(12.195 11.388)" fill="#282828"/>
      <path id="Path_2282" data-name="Path 2282" d="M43.413,41.013a.973.973,0,0,1-.513.257C43.028,41.4,43.157,40.757,43.413,41.013Z" transform="translate(12.186 11.516)" fill="#282828"/>
      <path id="Path_2283" data-name="Path 2283" d="M39.413,44.227c-.128.128-.257.385-.513.385C39.157,44.483,39.413,43.842,39.413,44.227Z" transform="translate(11.054 12.408)" fill="#282828"/>
      <path id="Path_2284" data-name="Path 2284" d="M37.689,45.728c-.128,0-.128,0-.257.128-.257,0-.128-.257,0-.257Z" transform="translate(10.597 12.831)" fill="#282828"/>
      <path id="Path_2285" data-name="Path 2285" d="M3.4,32l.257.257H3.4Z" transform="translate(1.012 8.984)" fill="#282828"/>
      <path id="Path_2286" data-name="Path 2286" d="M6.6,13.747c.128-.385.257-.128.385-.128C6.857,13.875,6.857,13.49,6.6,13.747Z" transform="translate(1.917 3.76)" fill="#282828"/>
      <path id="Path_2287" data-name="Path 2287" d="M13.657,6.057v.128L13.4,5.8Z" transform="translate(3.841 1.572)" fill="#282828"/>
    </g>
  </g>
</svg>
