<svg xmlns="http://www.w3.org/2000/svg" width="112.382" height="35" viewBox="0 0 112.382 35">
  <g id="sdg10" transform="translate(-2799.09 -8354.664)">
    <g id="Group_1081" data-name="Group 1081" transform="translate(2838.352 8355.055)">
      <path id="Path_2329" data-name="Path 2329" d="M254.751,127.661h.75c.75,0,1.081.36,1.081,1.111v1.981c0,.72-.33,1.111-1.081,1.111h-.75Zm0,5.463,2.071,6.213h2.341l-2.131-6.153c1.261-.3,1.771-1.171,1.771-2.611v-1.741c0-1.891-.811-3.032-3.062-3.032H252.5v13.537h2.221v-6.213Z" transform="translate(-252.5 -125.8)" fill="#dd1367"/>
    </g>
    <path id="Path_2330" data-name="Path 2330" d="M283.513,137.477h-3.092v-4.112h2.221v-1.831h-2.221v-3.872h3.092V125.8H278.2v13.508h5.313Z" transform="translate(2567.866 8229.254)" fill="#dd1367"/>
    <g id="Group_1082" data-name="Group 1082" transform="translate(2852.76 8354.875)">
      <path id="Path_2331" data-name="Path 2331" d="M304.912,136.1c0,.81-.36,1.381-1.261,1.381h-.93v-9.815h.93c.9,0,1.261.57,1.261,1.351Zm-.991-10.3H300.5v13.537h3.422c2.371,0,3.212-1.561,3.212-3.632v-6.273c0-2.1-.841-3.632-3.212-3.632" transform="translate(-300.5 -125.62)" fill="#dd1367"/>
      <path id="Path_2332" data-name="Path 2332" d="M329.721,125.8H327.5v10.236c0,2.1.961,3.452,3.3,3.452,2.251,0,3.152-1.351,3.152-3.452V125.8h-2.041v10.446c0,.81-.3,1.351-1.081,1.351s-1.081-.54-1.081-1.351V125.8Z" transform="translate(-319.396 -125.62)" fill="#dd1367"/>
      <path id="Path_2333" data-name="Path 2333" d="M353.9,128.862v6.544c0,2.1.961,3.662,3.3,3.662,2.371,0,3.122-1.441,3.122-3.362v-2.341h-2.011v2.491c0,.81-.27,1.321-1.081,1.321s-1.141-.57-1.141-1.381V128.5c0-.81.33-1.411,1.141-1.411s1.081.48,1.081,1.321v1.771h2.011v-1.591c0-1.981-.69-3.392-3.122-3.392-2.341.03-3.3,1.561-3.3,3.662" transform="translate(-337.871 -125.2)" fill="#dd1367"/>
    </g>
    <path id="Path_2334" data-name="Path 2334" d="M380,139.308h5.313v-1.831h-3.092v-4.112h2.191v-1.831h-2.191v-3.872h3.092V125.8H380Z" transform="translate(2496.623 8229.254)" fill="#dd1367"/>
    <g id="Group_1083" data-name="Group 1083" transform="translate(2883.317 8355.055)">
      <path id="Path_2335" data-name="Path 2335" d="M406.712,129.012V136.1c0,.81-.36,1.381-1.261,1.381h-.93v-9.815h.93c.9,0,1.261.54,1.261,1.351M402.3,125.8v13.537h3.422c2.371,0,3.212-1.561,3.212-3.632v-6.273c0-2.1-.84-3.632-3.212-3.632Z" transform="translate(-402.3 -125.8)" fill="#dd1367"/>
    </g>
    <rect id="Rectangle_1168" data-name="Rectangle 1168" width="2.221" height="13.538" transform="translate(2838.382 8374.415)" fill="#dd1367"/>
    <path id="Path_2336" data-name="Path 2336" d="M271.224,190.3h-1.831v7.744l-2.4-7.744H264.8v13.507h1.861v-8.495l2.611,8.495h1.951Z" transform="translate(2577.244 8184.115)" fill="#dd1367"/>
    <path id="Path_2337" data-name="Path 2337" d="M295.683,192.131V190.3H290.4v13.507h5.283v-1.861h-3.062v-4.082h2.191V196h-2.191v-3.872Z" transform="translate(2559.328 8184.115)" fill="#dd1367"/>
    <g id="Group_1084" data-name="Group 1084" transform="translate(2855.822 8374.235)">
      <path id="Path_2338" data-name="Path 2338" d="M315.2,200.386c0,.81-.36,1.381-1.141,1.381s-1.141-.6-1.141-1.381V193c0-.81.36-1.411,1.141-1.411.81,0,1.141.57,1.141,1.411ZM314.062,189.7c-2.341,0-3.362,1.531-3.362,3.662v6.544c0,1.831.75,3.182,2.521,3.482v.931l4.2.81v-1.681l-1.651-.33a3.26,3.26,0,0,0,1.651-3.182v-6.544c0-2.161-.991-3.692-3.362-3.692" transform="translate(-310.7 -189.7)" fill="#dd1367"/>
      <path id="Path_2339" data-name="Path 2339" d="M337.3,190.3v10.236c0,2.1.961,3.452,3.3,3.452,2.251,0,3.152-1.351,3.152-3.452V190.3h-2.041v10.446c0,.81-.3,1.351-1.081,1.351s-1.081-.54-1.081-1.351V190.3Z" transform="translate(-329.316 -190.12)" fill="#dd1367"/>
    </g>
    <path id="Path_2340" data-name="Path 2340" d="M363.992,199.515l.87-5.433h.03l.87,5.433Zm-.3-9.215L361.2,203.837h2.1l.39-2.461h2.371l.42,2.461h2.281L366.243,190.3Z" transform="translate(2509.78 8184.115)" fill="#dd1367"/>
    <path id="Path_2341" data-name="Path 2341" d="M389.3,190.3v13.507h4.863v-1.861h-2.641V190.3Z" transform="translate(2490.115 8184.115)" fill="#dd1367"/>
    <rect id="Rectangle_1169" data-name="Rectangle 1169" width="2.221" height="13.538" transform="translate(2885.268 8374.415)" fill="#dd1367"/>
    <path id="Path_2342" data-name="Path 2342" d="M423.682,203.807V192.131h1.831V190.3H419.6v1.831h1.831v11.676Z" transform="translate(2468.91 8184.115)" fill="#dd1367"/>
    <rect id="Rectangle_1170" data-name="Rectangle 1170" width="2.221" height="13.538" transform="translate(2895.414 8374.415)" fill="#dd1367"/>
    <path id="Path_2343" data-name="Path 2343" d="M459.583,201.946h-3.062v-4.082h2.191V196h-2.191v-3.872h3.062V190.3H454.3v13.507h5.283Z" transform="translate(2444.625 8184.115)" fill="#dd1367"/>
    <g id="Group_1085" data-name="Group 1085" transform="translate(2905.079 8374.266)">
      <path id="Path_2344" data-name="Path 2344" d="M474.8,198.745v1.8c0,1.771.871,3.062,3.152,3.062a2.908,2.908,0,0,0,3.242-3.182v-.66c0-1.5-.6-2.251-1.8-3.512l-1.411-1.441c-.63-.63-1.051-1.081-1.051-1.831v-.27a.981.981,0,0,1,1.051-1.111c.69,0,1.051.39,1.051,1.141v1.171h2.011v-1.051c0-1.951-.87-3.062-3.092-3.062a2.787,2.787,0,0,0-3.122,2.972v.45c0,1.561.57,2.341,1.861,3.6l1.291,1.351a2.443,2.443,0,0,1,.991,1.921v.51c0,.72-.3,1.2-1.021,1.2-.75,0-1.081-.45-1.081-1.2v-1.861Z" transform="translate(-474.8 -189.8)" fill="#dd1367"/>
    </g>
    <path id="Path_2345" data-name="Path 2345" d="M125.572,133.584v25.184h5.4V125.9h-4.322l-4.953,5.943v5.793h.03l3.782-4.052Z" transform="translate(2677.39 8229.185)" fill="#dd1367"/>
    <path id="Path_2346" data-name="Path 2346" d="M170.4,150.164v-17.65c0-1.981.72-3.392,2.551-3.392,1.891,0,2.611,1.411,2.611,3.392v17.65c0,1.981-.72,3.392-2.611,3.392-1.831,0-2.551-1.411-2.551-3.392m10.566-.87V133.385c0-5.133-2.521-8.885-8.014-8.885-5.433,0-7.954,3.722-7.954,8.885v15.909c0,5.1,2.521,8.885,7.954,8.885,5.493,0,8.014-3.782,8.014-8.885" transform="translate(2647.087 8230.164)" fill="#dd1367"/>
  </g>
</svg>
