<svg xmlns="http://www.w3.org/2000/svg" width="27" height="36" viewBox="0 0 27 36">
  <g id="pin-17" transform="translate(0 0.001)">
    <path id="Colour_-_Geo" data-name="Colour - Geo" d="M25.947,8.9c-.665-2.709-2.843-4.658-4.959-6.013C16.451-.023,9.98-1.278,5.2,1.728.423,4.7-.847,11.308.514,16.792c1.814,7.169,7.166,12.917,11.31,18.565a1.762,1.762,0,0,0,2.661.066,1.768,1.768,0,0,0,1.331-.958c3.205-5.417,7.166-10.241,9.224-16.352C25.977,15.306,26.673,11.87,25.947,8.9Zm-6.29,7.433a7.079,7.079,0,0,1-.06.793A5.3,5.3,0,0,1,11.13,19.3c-2.934-2.608-2.33-8.16,1.3-9.712A4.782,4.782,0,0,1,14.7,9.228a9.621,9.621,0,0,1,3.6,1.882A8.279,8.279,0,0,1,19.657,16.33Z" transform="translate(0 0)" fill="#19486a"/>
    <g id="Icon_-_Geo" data-name="Icon - Geo" transform="translate(0.753 0.753)">
      <g id="Group_686" data-name="Group 686">
        <path id="Path_411" data-name="Path 411" d="M14.9,1.194A12.456,12.456,0,0,0,2.448,13.626c0,8.509,11.143,21,11.62,21.526a1.123,1.123,0,0,0,1.584.084c.03-.027.057-.055.084-.084.476-.529,11.62-13.017,11.62-21.526A12.457,12.457,0,0,0,14.9,1.194Zm0,20.1a6.255,6.255,0,1,1,6.265-6.255h0A6.269,6.269,0,0,1,14.9,21.29Z" transform="translate(-1.357 -1.048)" fill="none"/>
        <g id="Group_682" data-name="Group 682" transform="translate(6.501 6.874)">
          <g id="Group_681" data-name="Group 681">
            <g id="Group_680" data-name="Group 680">
              <path id="Path_412" data-name="Path 412" d="M18.643,27.974c.151-.032-.075-.157.1-.062C18.723,27.978,18.688,28.03,18.643,27.974Z" transform="translate(-11.682 -14.387)" fill="#5a5a5a"/>
              <path id="Path_413" data-name="Path 413" d="M16.948,23.427a1,1,0,0,1,.745-.3,1.12,1.12,0,0,0,.745-.292c.049-.038.066.24.174.136a1.478,1.478,0,0,1,.745-.512,7.9,7.9,0,0,1,.979-.282l.011.08c.125-.035.1-.3.212-.355.032.035.014.075.075.108-.066-.129.125-.2.094-.313.075.007.146.094.236.094l-.059-.163c-.133-.4.345-.328.373-.658.021.035.028.075.069.08.08-.477.407-.87.527-1.33a.37.37,0,0,0,.2.108.319.319,0,0,1-.094-.366c.188.021-.069-.254.069-.348l.032.024c-.136-.16.151-.111-.024-.261l.151-.021c-.219-.115.16-.111.062-.233l-.049-.011c-.038-.094.09-.1.069-.188h.028c-.014-.184.129-.264-.059-.292.16-.035.041.184.275.129-.08-.626-.024-1.219-.075-1.814.066-.075.084-.122.151-.146-.049-.056-.069-.226-.174-.261.007.021.09-.056.094-.087.052-.125-.219-.08-.167-.212a.2.2,0,0,0,.191.007c-.171-.069-.181-.206-.258-.31a.161.161,0,0,0,.118.014c-.2-.084-.021-.247-.171-.324l.118.007c.062-.226-.236.021-.219-.157.045.024.084,0,.125-.011-.24-.075-.258-.324-.394-.425a.136.136,0,0,0,.045-.014c-.1-.133-.1-.32-.275-.428.011-.08.244-.115.118-.244-.188.118-.23-.2-.39.017-.035-.146-.118-.369-.233-.4.108,0,.171-.226.261-.136l.049-.157c.08-.045.035.1.108,0-.049-.045-.226-.146-.236-.209-.184,0-.446.09-.585-.024.122,0,.143-.206.212-.188-.16.032-.317.069-.48.118-.052-.032.111-.136.007-.151a.27.27,0,0,1-.139.066c0-.035-.212-.118-.094-.306.035-.084.1.032.1-.075-.084-.075-.139-.014-.23-.08l.017-.024a.14.14,0,0,0-.2,0,.142.142,0,0,0-.039.088c.035.035.062-.115.084-.021a.293.293,0,0,1-.324-.035c.049-.007.08-.059.125-.1a1.294,1.294,0,0,1-.543.007c-.056.087.146-.133.139-.075-.1-.24-.459-.028-.515-.285.032,0-.049.139-.038.111-.08-.052-.014-.188-.094-.167.028-.084-.084-.014-.151-.007-.056.049,0-.045.059-.035a.794.794,0,0,1-.654-.139c-.014.056-.181.174-.219.157l.052-.129c-.021-.09-.157-.028-.139-.143-.139.136.418-.038.255.052-.007-.118-.24.163-.167-.011-.1-.021-.216.1-.282-.032.021.024.115-.174.035-.178-.143,0-.052.059-.171.087l-.075.045c-.024.133-.118-.035-.087.118,0-.111-.2.035-.163-.181l.038-.171c-.062.007-.118.178-.167.251a.146.146,0,0,1-.014-.08c-.028.264-.139-.028-.219.174a.437.437,0,0,0-.206-.069.169.169,0,0,1-.163-.1c-.094.087-.171.184-.282.133.021-.024.049-.035.049-.09-.075-.075-.087,0-.143.041.011-.045-.151-.136-.24-.216-.087.094-.032.23-.028.317-.129-.24-.23.2-.376,0,.021-.045.108-.157.017-.206-.143-.233-.129.233-.3.146l.087.2c-.094-.115-.16.171-.209-.045-.024.084-.178-.017-.1.178-.275-.09-.463.282-.742.007-.014.045-.1.049-.041.139.1.084.032-.108.084-.045-.024.017,0,.075.007.1-.084-.014-.143,0-.16-.188-.209-.041.014.383-.191.418-.035-.08-.066-.1-.108-.059l-.014.184c-.125.035-.171-.129-.251-.255-.049.059-.129.1-.087.212l-.178-.1c.129.075,0,.108,0,.157v-.049c-.049-.041-.09.038-.115.075a.225.225,0,0,0,.206.041c.011.075-.041.094-.035.184-.075-.125-.151-.014-.209.007-.075.014.032.146.014.151-.049-.056-.084.059-.115-.056,0-.032.084.024.066-.052-.066-.014-.151-.118-.151.014,0,.1.2.206.052.219a.6.6,0,0,0-.052-.151l-.136.024.087.1c-.035-.014-.035-.032-.052-.038.069.125-.1.151-.011.279-.028.049-.146.024-.2.056V13.25c-.1,0-.125.1-.1.2l-.021-.021a.163.163,0,0,0-.045.181c-.133.011-.407-.289-.341-.1-.056.084.1.268.2.289-.087.041-.115.133-.151.209a.22.22,0,0,1-.2.171c.035.049.069.052.069.111-.188.181-.094.519-.422.585-.021-.087-.118-.059-.191-.087.08.1-.143.021.038.118.115.041.163.066.233.024.007.16-.062.362-.2.4.066-.021.09.021.115.062-.178-.069-.247.024-.2.125l.108.045-.129.017c.028.041.226.1.1.146a.387.387,0,0,0-.125-.007c.075.108.191.247.087.317l-.178.041c.014.041.1.122.163.066-.125.136-.151.233-.306.264a1.18,1.18,0,0,1,.328.971h-.087c-.075.087.151.032.1.09-.084-.021-.178.08-.282.021-.09.133.163.139.216.209.115,0-.084-.052.062-.056.041.007-.062.171.111.163a.564.564,0,0,1-.264.032l.094.059c-.184.125-.39-.151-.623-.021l.038.069c-.167.1-.233-.167-.264.032.1.069.355.094.422.011.075.151.414,0,.431.163-.094.066-.052-.122-.184-.066-.129.108.115.139.08.216.045-.09.233-.066.275-.028-.059.1-.174-.014-.16.1.1,0,.2.075.244-.028.23-.021-.032.133.151.139-.143.084-.383-.011-.428.139.139-.062.251.087.446-.045-.024.059-.139.1-.24.1-.062.1.324.066.045.2l.157-.032c-.041.038-.066.08-.133.146.017.062.268.1.052.2.032.011.084.143.209.024.052-.118-.151-.041.028-.174-.139.129.075.1.151.122l-.08.045c.045.011.056.08.151.052a.144.144,0,0,0-.118.075l.139-.035c.111.075-.209.139-.118.226-.049-.007-.09-.021-.136-.032.032.007-.075.108,0,.136.122-.038.279-.087.376-.115.084.028-.108.1.038.087l-.178.007c-.041.011-.151.157-.1.233.069.028.268,0,.282-.111.024.035-.011.133-.1.151.09.062.108-.087.219-.056-.052.075-.084.233-.143.362l-.23.049.038.052c-.191.032-.08.111-.254.178.007.056.09.062.151.075.151-.279.4-.122.585-.32.151.087-.425.495.007.362.032-.066.236-.139.111-.167.049.1.244-.125.244.038-.139.007-.129.258-.334.264.069-.052,0-.1-.035-.1-.045.1-.206.171-.125.254.066.035.136.1.226,0,.108-.108-.08-.066.059-.139.125.062-.017.24.209.087-.075-.042.021-.167.094-.236A1.106,1.106,0,0,0,13,20.6l-.084.059c.062.151.16-.1.244.011l-.084.191c-.139.1-.1-.2-.279.021.066.075.184-.007.2.108a.243.243,0,0,0-.087,0c.017.028-.2.331.052.268.111-.017.075-.062.146-.143.146.069.247.011.334.056-.136.151.129.122-.08.226.028-.129-.157-.251-.324-.136-.108.226-.075-.1-.258.052.094.094-.059.272-.139.407.024.032.1,0,.133,0,.1-.1.062-.133.151-.251a.333.333,0,0,0,.407.075c0,.087-.1.2-.151.174a1.353,1.353,0,0,1,.452.31c.024-.264.188.049.219-.163a.3.3,0,0,1,.066-.345c.038.041-.052.09-.059.146.118-.075-.007.236.151.084-.174,0-.163.244-.279.4.157-.041-.066.115.041.167a1.21,1.21,0,0,1,.456-.028c.087.226.394.151.527.191.049.111-.066.3.011.355.1.021-.011-.236.108-.108l-.024.038c.056-.038.236.209.348-.075l-.094.212c.024.028.059-.017.087-.035-.014.075,0,.146-.052.184.059.184.206.011.31.024l-.041-.143c.188-.08.285.075.459.049l-.017.133.09-.087c-.035.125.052.212.115.108-.1.1-.2.209-.3.306-.069-.087.1-.151.066-.285-.028-.118-.188-.108-.23.014.059.024.066,0,.118-.045,0,.184-.094.163-.16.279.035,0,.075.059.09,0a.256.256,0,0,1-.258.069c.087-.059-.021-.118.014-.167-.035.16-.151.191-.279.125-.056-.209-.279.052-.428-.038a.832.832,0,0,1,.324-.289c-.075-.1-.1-.021-.178-.125-.075.108-.16.279-.31.317l.028-.118c-.129.024-.184.191-.32.1a2.843,2.843,0,0,0-.348-.184l-.3-.167.045-.111c-.216.188-.376-.075-.557-.059a.7.7,0,0,0-.331-.216c-.111-.056-.2-.118-.191-.244l-.306-.146a2.538,2.538,0,0,1-.275-.174,2.944,2.944,0,0,1-.261-.2,2.413,2.413,0,0,1-.226-.261l.181-.059c-.151.024.038-.108-.035-.151-.041.163-.212.038-.334.062-.032-.247-.3-.373-.523-.459l.094-.075c-.3-.032-.247-.348-.338-.564.028-.049.111-.139.069-.2-.23-.024-.247-.09-.442-.212a.99.99,0,0,1-.075-.519,1.38,1.38,0,0,1-.4-.718,6.077,6.077,0,0,0-.236-.8l.136-.056a1.355,1.355,0,0,1-.181-.857,3.878,3.878,0,0,0,.028-.815l.233.075a.211.211,0,0,0-.067-.291.209.209,0,0,0-.121-.032c.049-.066.032-.163.035-.247a.167.167,0,0,1,.136-.184c.08-.133-.062-.206-.062-.338a1.5,1.5,0,0,0,.251-.658l-.038.059c.038.049.136.087.174.028-.032-.125.206-.328-.1-.348a.83.83,0,0,0,.244-.452.579.579,0,0,1,.31-.4c-.08-.021-.056-.094-.084-.151.133-.244.452-.358.467-.617.056-.011.066.139.136.056.014-.069-.08-.066-.066-.157a1.139,1.139,0,0,1,.456-.477,2.191,2.191,0,0,0,.527-.348,4.71,4.71,0,0,1,1.738-1.2l.017.056c.129-.3.571.028.634-.352.066.035.206-.028.2.087.139-.191.515,0,.731-.226-.024,0-.035.011-.059.041.279.094.48-.139.77-.032-.024.028-.075.049-.075.1.111.1.233-.258.306.017.059-.007.038-.143,0-.133.6.075,1.236-.041,1.882.028.4.275-.087.467.306.352.014.059.049-.1.038-.041.157-.041.108.355.236.247.017-.178.087-.069.125-.167.219.2.209.355.452.317l-.049.075c.324-.125.527.111.857-.035a7.223,7.223,0,0,1,3.089,2.867,9.1,9.1,0,0,1,.693,2,5.475,5.475,0,0,1,.028,2.117c-.275.306-.279.317-.236.693-.035-.021-.041-.045-.08-.028.2.056-.035.251.136.324-.084.251-.133.5-.226.738a4.377,4.377,0,0,1-.279.731c.017-.087-.108-.191-.139-.1l.066.151-.056-.007c0,.075.049.188.136.151a4.015,4.015,0,0,1-1.2,1.657,9.6,9.6,0,0,1-.794.623c-.285.178-.543.376-.828.55a2.484,2.484,0,0,0-.48.244c-.167.1-.331.209-.48.3-1.048.157-1.9.111-2.883.3C16.456,24.074,16.589,23.561,16.948,23.427Z" transform="translate(-9.398 -9.96)" fill="#5a5a5a"/>
              <path id="Path_414" data-name="Path 414" d="M18.378,27.926c-.028-.1-.125-.157-.038-.285A1.656,1.656,0,0,1,18.378,27.926Z" transform="translate(-11.598 -14.328)" fill="#5a5a5a"/>
              <path id="Path_415" data-name="Path 415" d="M15.429,25.86c-.017.024-.014-.049-.011-.066.032.007.09-.056.09,0C15.478,25.787,15.46,25.828,15.429,25.86Z" transform="translate(-10.884 -13.866)" fill="#5a5a5a"/>
              <path id="Path_416" data-name="Path 416" d="M14.781,25.4a.276.276,0,0,1,.268-.032Z" transform="translate(-10.728 -13.762)" fill="#5a5a5a"/>
              <path id="Path_417" data-name="Path 417" d="M14.481,24.579c.011-.087.045-.108.094-.069C14.55,24.548,14.519,24.555,14.481,24.579Z" transform="translate(-10.654 -13.55)" fill="#5a5a5a"/>
              <path id="Path_418" data-name="Path 418" d="M14.27,24.734c-.035-.028-.017-.084,0-.136C14.218,24.657,14.375,24.633,14.27,24.734Z" transform="translate(-10.597 -13.577)" fill="#5a5a5a"/>
              <path id="Path_419" data-name="Path 419" d="M13.44,23.41c-.021-.017-.115-.021-.052-.1C13.349,23.372,13.554,23.348,13.44,23.41Z" transform="translate(-10.378 -13.259)" fill="#5a5a5a"/>
              <path id="Path_420" data-name="Path 420" d="M12.914,22.932c0-.017.007-.032-.024-.038A.083.083,0,0,1,13,22.858h0Z" transform="translate(-10.261 -13.145)" fill="#5a5a5a"/>
              <path id="Path_421" data-name="Path 421" d="M17.028,12.231l-.049.059-.014-.087Z" transform="translate(-11.267 -10.514)" fill="#5a5a5a"/>
              <path id="Path_422" data-name="Path 422" d="M22.843,13.26c.084-.011-.011.094-.011.108C22.784,13.343,22.914,13.291,22.843,13.26Z" transform="translate(-12.714 -10.775)" fill="#5a5a5a"/>
              <path id="Path_423" data-name="Path 423" d="M25.575,15.289l-.014-.014.157-.087Z" transform="translate(-13.391 -11.252)" fill="#5a5a5a"/>
            </g>
          </g>
        </g>
        <g id="Group_685" data-name="Group 685">
          <g id="Group_684" data-name="Group 684">
            <g id="Group_683" data-name="Group 683">
              <path id="Path_424" data-name="Path 424" d="M18.5,1.6c.32-.056-.174-.143.209-.08C18.662,1.6,18.6,1.653,18.5,1.6Z" transform="translate(-5.157 -1.123)" fill="#5a5a5a"/>
              <path id="Path_425" data-name="Path 425" d="M15.633,1.426a2.042,2.042,0,0,1,.867-.085,3.434,3.434,0,0,1,.915.169c.3.088.61.18.909.267a4.262,4.262,0,0,0,.9.219c.134.032-.127.215.18.278a4.06,4.06,0,0,1,.934.264,5.612,5.612,0,0,1,.959.56,6.972,6.972,0,0,1,1.569,1.609h-.109a.866.866,0,0,0,.356.228.852.852,0,0,1,.352.257c-.032.035-.109-.018-.113.076.152-.046.381.321.54.338.032.116-.06.18-.018.324l.219.024a.938.938,0,0,1,.588.525,2.887,2.887,0,0,0,.5.75c-.046-.007-.1-.042-.109.018a5.082,5.082,0,0,1,.915,1.317,7.758,7.758,0,0,1,.345.782c.106.264.229.521.3.785a.179.179,0,0,0-.222.042c.176,0,.3.321.412.6-.07.085.007.193.081.338a.867.867,0,0,1,.137.493L27,11.582c.222.228-.046.391.2.57-.039.06-.07.116-.117.176.254.091-.109.381.028.581l.05-.011c.07.2-.05.3,0,.49l-.028.018c.081.436-.091.685.109.685-.159.145-.053-.426-.289-.193A10.177,10.177,0,0,1,26.3,18.13c-.127.13-.18.219-.261.228a3.307,3.307,0,0,0-.1.669c.014-.046-.127.053-.162.116-.162.215.1.342-.088.574,0-.123-.05-.183-.127-.173a2.316,2.316,0,0,1-.169.852c-.014-.053,0-.126-.063-.141.039.359-.268.5-.282.8l-.06-.141c-.3.342.159.219-.076.528.011-.1-.046-.088-.076-.123a3.9,3.9,0,0,1-.395,1.243.051.051,0,0,0-.03-.046,10.355,10.355,0,0,0-.534,1.1c-.12.113-.215-.176-.377.2.2.1-.268.648.076.567a4.461,4.461,0,0,0-.624.958c.011-.18-.324,0-.187-.254l-.229.116c-.06-.076.145-.176.011-.176a3.441,3.441,0,0,1-.314.627,2.171,2.171,0,0,1-.152,1.032c.039-.219-.271-.035-.229-.173l.024.746c-.07.126-.165-.07-.232.137.056.024.035.12.039.2-.053.032-.3.533-.515.461-.109,0,.1-.222-.06-.134-.148.228-.091.278-.247.5l-.033-.011c-.127.126-.222.483-.014.394.076-.1-.134-.039.021-.152a1.145,1.145,0,0,1-.271.676c.024-.1-.028-.12-.06-.187a4,4,0,0,1-.438,1.109c.081.067-.063-.236.018-.25-.423.334-.473.986-.906,1.2.028-.067.141.06.117.046-.162.19-.278.091-.332.254-.081-.042-.1.18-.183.331,0,.109-.06.007.021-.113a4.2,4.2,0,0,1-.991,1.394c.053.028-.042.394-.127.486l-.076-.123c-.134.035-.254.331-.36.271-.039.314.534-.88.409-.521-.148,0-.145.528-.243.349-.152.193-.191.483-.444.581.063-.039-.018-.278-.137-.116-.208.289-.014.12-.165.37l-.076.176c.1.1-.219.232-.021.228-.113-.039-.289.436-.434.264l-.1-.152c-.1.13-.014.3-.06.468-.032.011-.1.032-.109,0,.085.106-.014.215-.148.31a1.308,1.308,0,0,0-.388.334,2.664,2.664,0,0,1-.811.116.764.764,0,0,1-.578-.228,1.207,1.207,0,0,1-.8-.4,1.309,1.309,0,0,1-.12-.162c.053.028.13.1.18.1a.036.036,0,0,0,.028,0,.07.07,0,0,1-.007-.018.455.455,0,0,0-.145-.193c-.046-.032-.1-.049-.165-.1.053,0-.117-.373-.169-.585-.222-.134-.275.021-.36.06.056-.342-.582-.423-.575-.8.081.042.328.193.25-.007.06-.342-.441-.228-.571-.588l-.117.208c0-.211-.437-.334-.236-.447-.137-.046-.211-.381-.352-.215-.229-.577-.983-1.077-.9-1.6-.081-.046-.18-.239-.239-.137-.011.187.187.106.152.2a.115.115,0,0,0-.137-.024c-.076-.18-.148-.3.1-.271-.141-.408-.55-.12-.793-.6.085-.032.088-.085-.014-.2l-.3-.145c-.169-.3.053-.275.169-.37-.127-.13-.25-.317-.388-.317l.028-.289c-.021.211-.159-.07-.239-.12l.076.049c.032-.063-.12-.211-.194-.289-.063.076.028.271.076.381-.106-.039-.176-.165-.31-.222.145-.053-.085-.3-.152-.429-.067-.152-.215-.081-.236-.123.06-.046-.141-.232.021-.183.053.032.011.148.12.187-.014-.123.1-.187-.106-.321-.152-.1-.215.2-.321-.12.076.049.137.032.215.056l-.1-.3-.12.063c.007-.053.032-.035.035-.063-.165,0-.289-.362-.462-.331-.1-.12-.1-.321-.165-.451l.024.018a.66.66,0,0,0-.356-.444l.028-.011a.891.891,0,0,0-.317-.334c-.042-.264.388-.338.1-.483-.134-.211-.416-.208-.437-.076-.159-.429-.6-.761-.634-1.233-.076-.028-.088.021-.18-.076-.282-.6-.818-1.158-.825-1.751.137.148.127-.049.194-.088-.176-.088.028-.228-.183-.187-.1.067-.162.081-.123.271a2.515,2.515,0,0,1-.49-1.123c0,.123-.076.063-.145,0,.187-.056.091-.334-.063-.507l-.117.035.053-.183c-.067-.063-.265.011-.247-.239a.232.232,0,0,0,.091-.109c-.18-.173-.462-.412-.457-.69l.088-.254c-.056-.091-.219-.228-.2-.032-.06-.436-.13-.708-.035-.884a4.712,4.712,0,0,1-1.037-2.528l.091.011c.039-.254-.169-.1-.137-.276.1.06.148-.208.282-.042.028-.345-.219-.405-.286-.624-.12-.021.1.169-.056.145-.046-.035.035-.483-.145-.521.06-.091.194-.035.271,0-.035-.067-.076-.134-.106-.2.18-.264.423.542.649.254L1.847,14.5c.165-.187.261.461.271,0-.109-.187-.36-.349-.434-.158-.067-.423-.427-.176-.43-.652.1-.13.039.381.18.282.13-.222-.1-.44-.032-.637-.076.215-.247.032-.271-.113.1-.236.159.158.194-.176-.1-.06-.156-.377-.24-.109-.222-.137.081-.352-.085-.553.165-.1.356.381.457.018-.076.021-.127-.1-.18-.2s-.108-.19-.239-.106a.144.144,0,0,1,.274-.024c.127-.19-.2-.542.109-.563l-.147-.1c.06-.056.113-.145.215-.232.018-.18-.091-.627.141-.557-.011-.063.106-.464-.1-.349-.165.232.042.321-.211.412.229-.141.07-.373.05-.542h.091c-.011-.1.06-.3-.021-.381.035.085.1.063.145,0l-.11-.133c.042-.381.261-.011.342-.362l.011.289c0-.063.165-.134.18-.31-.1-.1-.2-.275-.275-.362.018-.211.169-.035.113-.271l.053.3c.028.049.261-.091.349-.342.011-.18-.035-.493-.222-.275.056-.126.211-.264.25-.13.091-.3-.145-.021-.1-.292.13-.056.391-.31.588-.433l.076.342.081-.158c.053.286.169-.042.275.152A.791.791,0,0,0,3.3,7.4c-.441.165-.145-.533-.427-.585.2-.472.712.076.631-.592-.1.035-.141-.289-.243.024.187-.25-.109-.331.2-.57-.076.282.395-.076.289.331-.056-.07-.187.134-.2.2.152-.046.2.169.391-.076.091-.165.243-.377.109-.429-.127-.085-.162.243-.211.053.191-.342.409-.247.293-.542-.134.208-.293.158-.374.091l.123-.271.046.109c.335-.321-.063-.228.258-.549l.293-.024c.06.193-.5.429-.229.553.2-.2.152-.37.391-.521-.021.06-.076.126-.1.187.076-.07.419.106.529-.338.081-.211-.035-.109-.106-.187.3-.356.338-.511.547-.729.091.193.4-.338.3.039-.187.011-.686.468-.656.722.286.049-.265.239-.152.479.247-.264.406-.081.557-.014a.608.608,0,0,0,.12-.232c-.076-.134-.165-.046-.278-.148a1.706,1.706,0,0,0,.624-.817c.148-.035.211.106.1.222a3.219,3.219,0,0,1,.55-.472c.2-.141.4-.271.592-.388-.183-.011-.1-.1.018-.187s.239-.162.1-.193c-.243.076-.508.07-.457-.1.134-.081.056.091.137.1.1-.219.377.014.43-.26-.338.3.085.292.117.493.208-.25.06.12.321-.039a3.225,3.225,0,0,1,.79-.7,1.608,1.608,0,0,0,.719-.264c.236-.13.473-.25.653-.327.222.021.165.267.381.228.236-.091-.25-.152.134-.19l-.021.053c.088-.106.7-.046.73-.373l-.046.252c.076,0,.123-.063.173-.1.021.07.117.12.018.193.261.106.457-.158.7-.2-.06-.035-.123-.076-.187-.109A6.9,6.9,0,0,1,13.1,1v.134a2.072,2.072,0,0,1,.236-.109c-.046.13.183.2.3.088a4.971,4.971,0,0,0-.6.381c-.18-.049.173-.187.05-.3-.106-.1-.483-.007-.521.13.145-.007.148-.039.254-.1.076.176-.145.2-.232.342.076-.018.187.021.194-.039a.967.967,0,0,1-.511.19c.148-.1-.109-.1-.06-.162.007.085-.046.141-.137.19a.892.892,0,0,1-.367.1c-.254-.123-.518.247-.853.3a.977.977,0,0,1,.409-.5c-.239-.021-.239.06-.479.046a.9.9,0,0,1-.317.533l-.056-.109c-.222.148-.152.317-.473.4a7.98,7.98,0,0,0-.772.3c-.123.053-.239.106-.352.158s-.208.116-.3.169l-.076-.1a.711.711,0,0,1-.367.412c-.088.056-.18.109-.261.165a1.03,1.03,0,0,0-.194.2,2.97,2.97,0,0,0-.666.483c-.187.183-.345.345-.521.359-.159.183-.328.342-.462.528s-.275.362-.416.539l-.211.254c-.067.091-.13.187-.2.282-.134.187-.278.373-.437.563L4.667,6.6c0,.219-.152.032-.236.19.229-.088.024.31.056.472a1.594,1.594,0,0,0-.395.592,3.31,3.31,0,0,0-.145.676L3.829,8.5a1.1,1.1,0,0,1-.176.609c-.1.2-.239.4-.342.624-.067.035-.208.085-.247.228a2.4,2.4,0,0,1,.1.845c-.032.137-.1.3-.152.486a3.764,3.764,0,0,1-.168.493,16.594,16.594,0,0,0,.219,3.19l-.134.1a4.245,4.245,0,0,1,.281.793c.081.275.152.56.211.838.076.278.145.557.219.813a4.146,4.146,0,0,0,.293.7H3.666c.018.3.293.6.427.472.032.3.37.63.261.876.076.292.247.292.374.507a4.17,4.17,0,0,0,.568,1.264l-.05-.134c-.076-.032-.173.007-.123.141.152.158.286.729.457.405a2.987,2.987,0,0,0,.447.9,2.367,2.367,0,0,1,.427.9c.046-.085.134.039.211.067a5.271,5.271,0,0,0,.758,1.317c.011.1-.187-.046-.081.148.091.1.091-.053.211.06.588.652.814,1.563,1.3,2.194.915,1.074,1.72,2.3,2.563,3.35l-.056.024c.451.222.469.979.962,1.049.021.12.232.334.1.345.349.18.518.876,1.009,1.142a.2.2,0,0,0-.109-.076,2.552,2.552,0,0,0,.457.609c.088.091.173.18.258.278a1.911,1.911,0,0,1,.12.152l.06.085.028.042a.1.1,0,0,0,.007.021h-.024l-.05-.024a.119.119,0,0,0-.1-.011.215.215,0,0,0,.06.1.1.1,0,0,0,.06.021c.081.014.152-.042.091.145.046.028.088-.12.067-.123a.294.294,0,0,0,.3.085.3.3,0,0,0,.145-.088.442.442,0,0,0,.053-.067,1.034,1.034,0,0,1,.076-.106c.381-.5.751-1.028,1.128-1.535.705-.592.406.26.694-.426.081-.011-.056-.1-.007-.07.113-.264.518-.137.521-.381-.187-.046,0-.162-.076-.232.43-.366.627-.356.786-.785l.053.081c.109-.563.578-.954.592-1.482a61.354,61.354,0,0,0,4.238-7.038,27.423,27.423,0,0,0,2.813-7.264,1.949,1.949,0,0,0,.271-.6,1.863,1.863,0,0,0-.014-.669c.039.028.046.07.085.028-.194-.039,0-.457-.2-.521a7.257,7.257,0,0,0-.106-1.366c-.039-.222-.076-.447-.117-.672-.06-.222-.12-.447-.18-.68.056.141.236.176.176,0l-.169-.152.046-.046c-.06-.113-.187-.215-.215-.076a20.8,20.8,0,0,0-1.509-3.218,8.841,8.841,0,0,0-2.375-2.639,3.065,3.065,0,0,0-.786-.577,6.518,6.518,0,0,0-.909-.444A7.657,7.657,0,0,0,14.559,2,1.232,1.232,0,0,1,15.633,1.426Z" transform="translate(-1 -1)" fill="#5a5a5a"/>
              <path id="Path_426" data-name="Path 426" d="M17.923,1.6c-.075-.094-.3-.136-.129-.275C17.822,1.411,17.943,1.508,17.923,1.6Z" transform="translate(-4.976 -1.08)" fill="#5a5a5a"/>
              <path id="Path_427" data-name="Path 427" d="M9.755,2.818c.007.028-.1.014-.125.011.066-.049.087-.157.167-.146C9.731,2.732,9.763,2.766,9.755,2.818Z" transform="translate(-3.051 -1.416)" fill="#5a5a5a"/>
              <path id="Path_428" data-name="Path 428" d="M7.94,3.9c-.035-.084.209-.352.373-.487Z" transform="translate(-2.648 -1.596)" fill="#5a5a5a"/>
              <path id="Path_429" data-name="Path 429" d="M6.041,5.064c-.146.049-.151-.007-.021-.143C6.065,4.945,6.041,5.008,6.041,5.064Z" transform="translate(-2.217 -1.969)" fill="#5a5a5a"/>
              <path id="Path_430" data-name="Path 430" d="M6.089,5.4a.366.366,0,0,1-.247.125C5.9,5.566,6.013,5.26,6.089,5.4Z" transform="translate(-2.196 -2.077)" fill="#5a5a5a"/>
              <path id="Path_431" data-name="Path 431" d="M3.135,8.851c-.041.075-.059.268-.178.292C3.047,9.1,3.051,8.735,3.135,8.851Z" transform="translate(-1.483 -2.934)" fill="#5a5a5a"/>
              <path id="Path_432" data-name="Path 432" d="M2.383,10.859a.2.2,0,0,0-.045.125c-.069.075-.094-.041-.075-.122Z" transform="translate(-1.31 -3.352)" fill="#5a5a5a"/>
              <path id="Path_433" data-name="Path 433" d="M14.854,43.815l-.133-.1.08-.035Z" transform="translate(-4.261 -11.154)" fill="#5a5a5a"/>
              <path id="Path_434" data-name="Path 434" d="M26.735,38.489c.049-.163.133-.045.157-.059C26.815,38.556,26.836,38.325,26.735,38.489Z" transform="translate(-7.116 -9.85)" fill="#5a5a5a"/>
              <path id="Path_435" data-name="Path 435" d="M30.787,31.044l-.021.045-.146-.1Z" transform="translate(-7.996 -8.154)" fill="#5a5a5a"/>
            </g>
          </g>
        </g>
      </g>
    </g>
  </g>
</svg>
