<svg xmlns="http://www.w3.org/2000/svg" width="132.669" height="35" viewBox="0 0 132.669 35">
  <g id="SDG17" transform="translate(-813.814 -114.931)">
    <path id="Path_2354" data-name="Path 2354" d="M141.7,126.4v34.524h-5.807V134.491h-.063l-4.062,4.22H131.7v-6.061l5.363-6.251Z" transform="translate(682.115 -11.184)" fill="#fff"/>
    <path id="Path_2355" data-name="Path 2355" d="M171.5,126.4h14.565v5.331l-7.584,29.193h-5.775l7.742-29.8H171.5Z" transform="translate(654.944 -11.184)" fill="#fff"/>
    <g id="Group_1089" data-name="Group 1089" transform="translate(853.796 115.058)">
      <path id="Path_2356" data-name="Path 2356" d="M260.143,127.9v5.68h.888a1.062,1.062,0,0,0,1.206-1.206v-3.3c0-.793-.349-1.174-1.206-1.174Zm-2.443-2h3.586c2.443,0,3.332,1.206,3.332,3.237v3.046c0,2.031-.889,3.268-3.332,3.268h-1.174v4.887H257.7Z" transform="translate(-257.7 -125.9)" fill="#fff"/>
    </g>
    <path id="Path_2357" data-name="Path 2357" d="M282.746,135.769h1.936l-.952-5.807H283.7Zm-3.046,4.569,2.729-14.438h2.761l2.761,14.438h-2.475l-.444-2.634h-2.57l-.413,2.634Z" transform="translate(581.077 -10.842)" fill="#fff"/>
    <g id="Group_1090" data-name="Group 1090" transform="translate(870.011 115.058)">
      <path id="Path_2358" data-name="Path 2358" d="M311.212,127.9V132.4h.825a1.062,1.062,0,0,0,1.206-1.206v-2.126c0-.793-.349-1.174-1.206-1.174Zm0,5.839v6.632H308.8V125.9h3.522c2.443,0,3.332,1.206,3.332,3.237v1.872c0,1.555-.539,2.475-1.935,2.792l2.316,6.568H313.5Z" transform="translate(-308.8 -125.9)" fill="#fff"/>
    </g>
    <path id="Path_2359" data-name="Path 2359" d="M333.1,125.9h6.442v2h-2v12.439H335.1V127.9h-2Z" transform="translate(544.622 -10.842)" fill="#fff"/>
    <path id="Path_2360" data-name="Path 2360" d="M358.962,131.294v9.043H356.9V125.9h2.412l2.6,8.282V125.9h2.031v14.438h-2.126Z" transform="translate(528.374 -10.842)" fill="#fff"/>
    <path id="Path_2361" data-name="Path 2361" d="M383.4,125.9h5.807v2h-3.363v4.125h2.412v1.967h-2.412v4.379h3.363v1.967H383.4Z" transform="translate(510.283 -10.842)" fill="#fff"/>
    <g id="Group_1091" data-name="Group 1091" transform="translate(900.791 114.931)">
      <path id="Path_2362" data-name="Path 2362" d="M408.211,127.9V132.4h.825a1.062,1.062,0,0,0,1.206-1.206v-2.126c0-.793-.349-1.174-1.206-1.174Zm0,5.839v6.632H405.8V125.9h3.522c2.443,0,3.332,1.206,3.332,3.237v1.872c0,1.555-.539,2.475-1.936,2.792l2.317,6.568H410.5Z" transform="translate(-405.8 -125.773)" fill="#fff"/>
      <path id="Path_2363" data-name="Path 2363" d="M430.9,136.955V135.02h2.253v1.967c0,.825.349,1.269,1.206,1.269.761,0,1.11-.508,1.11-1.269v-.539a2.623,2.623,0,0,0-1.079-2.031l-1.428-1.428c-1.4-1.364-2.031-2.189-2.031-3.84v-.476c0-1.777,1.047-3.173,3.4-3.173,2.443,0,3.4,1.206,3.4,3.268v1.174H435.5v-1.269q0-1.237-1.142-1.238a1.07,1.07,0,0,0-1.142,1.206v.286c0,.825.444,1.269,1.142,1.967l1.555,1.523c1.333,1.333,1.967,2.158,1.967,3.744v.7c0,1.967-1.079,3.4-3.522,3.4-2.507,0-3.459-1.4-3.459-3.3" transform="translate(-422.936 -125.5)" fill="#fff"/>
    </g>
    <path id="Path_2364" data-name="Path 2364" d="M461.56,134.06h-2.316v6.346H456.8V126h2.443v6.092h2.316V126h2.475v14.406H461.56Z" transform="translate(460.174 -10.911)" fill="#fff"/>
    <rect id="Rectangle_1172" data-name="Rectangle 1172" width="2.443" height="14.438" transform="translate(925.573 115.058)" fill="#fff"/>
    <g id="Group_1092" data-name="Group 1092" transform="translate(929.413 114.931)">
      <path id="Path_2365" data-name="Path 2365" d="M498.411,127.9v5.68h.889a1.062,1.062,0,0,0,1.206-1.206v-3.3c0-.793-.349-1.174-1.206-1.174Zm-2.411-2h3.585c2.443,0,3.332,1.206,3.332,3.237v3.046c0,2.031-.888,3.268-3.332,3.268h-1.174v4.887H496Z" transform="translate(-496 -125.773)" fill="#fff"/>
      <path id="Path_2366" data-name="Path 2366" d="M521.4,136.955V135.02h2.253v1.967c0,.825.349,1.269,1.206,1.269.761,0,1.111-.508,1.111-1.269v-.539a2.623,2.623,0,0,0-1.079-2.031l-1.428-1.428c-1.4-1.364-2.031-2.189-2.031-3.84v-.476c0-1.777,1.047-3.173,3.4-3.173,2.444,0,3.4,1.206,3.4,3.268v1.174H526v-1.269q0-1.237-1.142-1.238a1.07,1.07,0,0,0-1.142,1.206v.286c0,.825.444,1.269,1.142,1.967l1.555,1.523c1.333,1.333,1.967,2.158,1.967,3.744v.7c0,1.967-1.079,3.4-3.522,3.4-2.507,0-3.459-1.4-3.459-3.3" transform="translate(-513.34 -125.5)" fill="#fff"/>
    </g>
    <path id="Path_2367" data-name="Path 2367" d="M257.7,189.7h5.712v1.967h-3.268v4.125h2.412v1.967h-2.412v6.378H257.7Z" transform="translate(596.096 -54.398)" fill="#fff"/>
    <g id="Group_1093" data-name="Group 1093" transform="translate(860.333 135.112)">
      <path id="Path_2368" data-name="Path 2368" d="M283.218,200.365v-7.743c0-.888-.381-1.491-1.269-1.491-.857,0-1.238.6-1.238,1.491v7.743c0,.888.381,1.491,1.238,1.491.889,0,1.269-.6,1.269-1.491m-4.918-.381V193c0-2.253,1.111-3.9,3.649-3.9,2.57,0,3.681,1.65,3.681,3.9v6.981c0,2.221-1.11,3.9-3.681,3.9-2.538,0-3.649-1.65-3.649-3.9" transform="translate(-278.3 -189.1)" fill="#fff"/>
      <path id="Path_2369" data-name="Path 2369" d="M308.312,191.667v4.506h.825a1.062,1.062,0,0,0,1.206-1.206v-2.126c0-.793-.349-1.174-1.206-1.174Zm0,5.839v6.632H305.9V189.7h3.522c2.443,0,3.332,1.206,3.332,3.237v1.84c0,1.555-.539,2.475-1.935,2.792l2.316,6.569H310.6Z" transform="translate(-297.142 -189.51)" fill="#fff"/>
    </g>
    <path id="Path_2370" data-name="Path 2370" d="M342.3,189.7h6.441v1.967h-2v12.471H344.3V191.667h-2Z" transform="translate(538.341 -54.398)" fill="#fff"/>
    <path id="Path_2371" data-name="Path 2371" d="M370.96,197.76h-2.348v6.378H366.2V189.7h2.412v6.093h2.348V189.7H373.4v14.438H370.96Z" transform="translate(522.025 -54.398)" fill="#fff"/>
    <path id="Path_2372" data-name="Path 2372" d="M393.3,189.7h5.775v1.967h-3.363v4.125h2.411v1.967h-2.411v4.379h3.363v2H393.3Z" transform="translate(503.524 -54.398)" fill="#fff"/>
    <g id="Group_1094" data-name="Group 1094" transform="translate(907.55 135.112)">
      <path id="Path_2373" data-name="Path 2373" d="M430.781,196.017h3.459v7.711h-1.777v-1.587a2.2,2.2,0,0,1-2.316,1.745c-2.094,0-3.046-1.65-3.046-3.9V193c0-2.253,1.079-3.9,3.649-3.9,2.7,0,3.459,1.491,3.459,3.617v1.269h-2.221v-1.46c0-.889-.349-1.4-1.206-1.4s-1.269.6-1.269,1.491v7.743c0,.888.349,1.491,1.206,1.491.793,0,1.206-.444,1.206-1.4v-2.539h-1.142v-1.9Z" transform="translate(-427.1 -189.1)" fill="#fff"/>
      <path id="Path_2374" data-name="Path 2374" d="M458.818,200.365v-7.743c0-.888-.381-1.491-1.269-1.491-.857,0-1.237.6-1.237,1.491v7.743c0,.888.381,1.491,1.237,1.491.888,0,1.269-.6,1.269-1.491m-4.918-.381V193c0-2.253,1.111-3.9,3.649-3.9,2.57,0,3.681,1.65,3.681,3.9v6.981c0,2.221-1.111,3.9-3.681,3.9-2.538,0-3.649-1.65-3.649-3.9" transform="translate(-445.396 -189.1)" fill="#fff"/>
    </g>
    <path id="Path_2375" data-name="Path 2375" d="M482.214,199.537h1.936l-.952-5.807h-.032Zm-3.014,4.6,2.729-14.438h2.761l2.761,14.438h-2.475l-.444-2.634h-2.57l-.413,2.634Z" transform="translate(444.882 -54.398)" fill="#fff"/>
    <path id="Path_2376" data-name="Path 2376" d="M508.3,189.7h2.412v12.439H513.6v2h-5.3Z" transform="translate(425.016 -54.398)" fill="#fff"/>
    <g id="Group_1095" data-name="Group 1095" transform="translate(939.503 135.175)">
      <path id="Path_2377" data-name="Path 2377" d="M527.8,200.755v-1.936h2.253v1.967c0,.825.349,1.269,1.206,1.269.762,0,1.111-.508,1.111-1.269v-.539a2.622,2.622,0,0,0-1.079-2.031l-1.428-1.428c-1.4-1.365-2.031-2.189-2.031-3.839v-.476c0-1.777,1.047-3.173,3.395-3.173,2.443,0,3.4,1.206,3.4,3.268v1.174H532.4v-1.269q0-1.237-1.143-1.238a1.07,1.07,0,0,0-1.142,1.206v.286c0,.825.444,1.269,1.142,1.967l1.555,1.523c1.332,1.333,1.967,2.158,1.967,3.744v.7c0,1.967-1.079,3.4-3.522,3.4-2.507-.032-3.459-1.428-3.459-3.3" transform="translate(-527.8 -189.3)" fill="#fff"/>
    </g>
  </g>
</svg>
