<svg xmlns="http://www.w3.org/2000/svg" width="386" height="378" viewBox="0 0 386 378">
  <g id="watermark-colour" opacity="0.1">
    <path id="Path_2353" data-name="Path 2353" d="M483.246,466.926a101.183,101.183,0,0,0,32.407-74.216,98.1,98.1,0,0,0-.864-12.97,80.834,80.834,0,0,1,45.658,140.219,101.327,101.327,0,0,0-77.2-53.033m68.7,100.444a80.978,80.978,0,0,1-80.8,80.846,79.747,79.747,0,0,1-39.9-10.664,101.206,101.206,0,0,0,27.8-69.6,105.753,105.753,0,0,0-1.873-19.311,100.7,100.7,0,0,0,48.97,12.682,99.24,99.24,0,0,0,44.218-10.232,87.919,87.919,0,0,1,1.584,16.284M277,568.091a79.281,79.281,0,0,1,1.728-16.717,100.792,100.792,0,0,0,92.9-2.594,99.216,99.216,0,0,0-1.728,18.59,100.973,100.973,0,0,0,28.662,70.47,79.453,79.453,0,0,1-40.616,11.1A80.915,80.915,0,0,1,277,568.091M241.852,460.153a81,81,0,0,1,72.159-80.413,94.966,94.966,0,0,0-.864,12.97A101.012,101.012,0,0,0,346.274,467.5a101.579,101.579,0,0,0-77.632,52.6,80.594,80.594,0,0,1-26.789-59.949M414.4,311.72a81.011,81.011,0,0,1,74.175,48.709A101.78,101.78,0,0,0,414.4,417.352a101.259,101.259,0,0,0-74.175-56.923A81.013,81.013,0,0,1,414.4,311.72m19.3,184.028a80.624,80.624,0,0,1,109.895,36.027A80.624,80.624,0,0,1,433.7,495.748m-38.744.577a80.6,80.6,0,0,1-109.319,35.594,80.606,80.606,0,0,1,109.319-35.594M334.608,380.172a81,81,0,0,1,68.99,79.981,88.039,88.039,0,0,1-1.008,12.393,81,81,0,0,1-68.99-79.981,88.079,88.079,0,0,1,1.008-12.393M414.832,625.3a80.6,80.6,0,0,1-.72-115.288,80.6,80.6,0,0,1,.72,115.288m80.513-232.737c0,40.495-29.958,74.073-68.99,79.981a88.076,88.076,0,0,1-1.008-12.393c0-40.495,29.958-74.072,68.99-79.981a88.043,88.043,0,0,1,1.009,12.393M607.4,460.153a101.226,101.226,0,0,0-97.509-101.165,101.252,101.252,0,0,0-190.983,0,101.211,101.211,0,0,0-58.476,181,101.2,101.2,0,0,0,154.4,111.685,101.258,101.258,0,0,0,157.425-84.3,97.024,97.024,0,0,0-3.889-27.525A101.028,101.028,0,0,0,607.4,460.153" transform="translate(-221.4 -291.4)" fill="#19486a"/>
  </g>
</svg>
