<svg xmlns="http://www.w3.org/2000/svg" width="150.127" height="148.102" viewBox="0 0 150.127 148.102">
  <g id="_17-hand" data-name="17-hand" transform="translate(-784.13 -1297.396)">
    <g id="circle" transform="translate(2500.724 429.396) rotate(90)">
      <ellipse id="Ellipse_266" data-name="Ellipse 266" cx="67.855" cy="69.85" rx="67.855" ry="69.85" transform="translate(870.652 1708.609) rotate(-90)" fill="#19486a"/>
      <g id="Group_1058" data-name="Group 1058" transform="translate(868 1566.466)">
        <path id="Path_2276" data-name="Path 2276" d="M51.014,27.645c0-1.717-.859.859-.286-1.145C51.014,26.786,51.3,27.072,51.014,27.645Z" transform="translate(94.225 49.203)" fill="#19486a"/>
        <path id="Path_2277" data-name="Path 2277" d="M144.628,70.6A16.553,16.553,0,0,1,143.2,66.6c-.286-1.431-.573-2.862-.859-4.58a26.8,26.8,0,0,0-1.145-4.58,10.036,10.036,0,0,0-1.717-4.007c-.286-.572,1.431-.286.572-1.717-.859-1.145-1.717-2.576-2.576-4.007a25.374,25.374,0,0,1-2.29-4.866c-1.717-3.149-3.149-6.87-4.58-10.019h.572c-.572-1.145-2.29-1.717-3.149-2.862.286-.286.572,0,.572-.286-.859.286-2-1.717-2.862-1.717-.286-.572.286-.859,0-1.717H124.59c-2.862,0-3.721-3.721-6.584-4.866.286,0,.573,0,.573-.286-4.58-2-9.16-5.439-14.026-7.156.286-.286.859-.572.573-1.145-.573.572-2.29.286-3.435-.286-.286-1.145-2.576,0-3.721-1.145l.286-.286c-1.431.572-1.431-1.145-2.862-.286l-.859-.572c-.859,1.145-1.431-1.145-2.576-.572V9.92c-.859,0-1.431-.572-2.29-.572V9.061c-2-.286-3.149-1.145-3.149,0-.572-.859,2,0,1.145-1.431a165.039,165.039,0,0,0-20.61,0c-.859-.286-1.431-.286-1.431-.572-.573.286-2.576.572-3.149,1.145.286,0-.573-.572-.859-.572-1.431-.286-1.145,1.145-2.576,1.145a.708.708,0,0,0,.286-1.145c-.859,1.145-2.576,1.431-3.721,2,.286-.286.572-.286.286-.572-1.145,1.145-2.862.572-3.721,1.431l.286-.859c-2.29,0-.286,1.431-2,1.717.286-.286,0-.572,0-.859-1.145,1.431-4.007,2.29-5.152,3.435v-.286c-1.431.859-3.435,1.431-5.152,2.862-.859.286-.572-1.431-2-.286.572.859-2.576,2.29-.859,2.576a17.868,17.868,0,0,0-4.58,2.862c.286-.859-1.431-.572-.572-1.431H30.988c-.286-.572.859-.572.286-.859a18.52,18.52,0,0,1-2.576,2.29c-.286,1.717-.286,3.435-1.717,4.866.286-.859-1.431-.572-.859-1.145a14.5,14.5,0,0,0-.572,3.721c-.286.572-.859-.572-1.145.286.286.286,0,.572,0,1.145-.286,0-1.717,2.29-2.862,1.717-.572,0,.572-.859-.286-.572-.859.859-.572,1.431-1.431,2.29h0c-.572.572-1.145,2.29,0,2,.286-.572-.572-.286,0-.859.286.859-.286,2-1.145,3.149,0-.572-.286-.572-.286-.859a38.133,38.133,0,0,1-1.431,5.439c.572.286-.572-1.145,0-1.145a6.823,6.823,0,0,0-1.717,3.149A4.574,4.574,0,0,1,13.813,47.7c0-.286.859.286.572,0-.572.859-1.145.572-1.431,1.431-.572,0-.286.859-.286,1.717.286.572-.286,0,0-.572a22.341,22.341,0,0,1-2,7.442c.286,0,.572,1.717.572,2.29l-.572-.286c-.572.286-.286,1.717-1.145,1.717.572,1.431.572-4.866.572-2.862-.572.286.572,2.576-.286,2-.286,1.145.286,2.29-.572,3.435.286-.286-.859-1.145-.859-.286,0,1.717.286.573.286,2l.286.859c.572.286-.286,1.431.572.859-.572,0,0,2.29-1.145,2l-.859-.286c0,.859.859,1.145,1.145,1.717l-.286.286c1.431.286-.286,1.717.859,2.576-.286.859-.286,1.717-.572,2.576a2.415,2.415,0,0,1-.572,2c0,.572.572,1.717.286,2.862a.616.616,0,0,0-.572-.572,1.757,1.757,0,0,0,.286,1.717c-.286,0-.572,1.717-.859,2.576.572,1.145,1.145.859,1.717.859-1.145,1.145,1.145,2.862.286,4.294-.286-.286-1.145-1.431-1.145-.573-1.145,1.431,1.431,1.717,1.145,3.435l1.145-.572c-.572.859,1.145,2.29,0,2.29.572.286.286,2,1.145,1.431,0,1.431.859,2.862,1.145,4.294.572,1.431,1.145,2.576.572,3.721.286.286.572,1.145,1.145.859.286-.859-.859-.572-.572-1.145a.887.887,0,0,0,.572.286c0,.859.286,1.431-.859,1.145.572,2.576,2.862,1.431,3.721,3.435q-.859,0,0,.859l1.431.573c.572,1.431-.572,1.431-1.145,1.717.572.573,1.145,1.431,1.717,1.431l-.286,1.431c0-1.145.859.286,1.145.572l-.286-.286c-.286.286.572.859.859,1.431.286-.286,0-1.431-.286-1.717.572,0,.859.573,1.431.859-.859.286.286,1.431.572,2,.286.859,1.145.286,1.145.286-.286.286.859.859,0,.859-.286,0,0-.572-.572-.859,0,.572-.572.859.572,1.431.859.286,1.145-1.145,1.717.286-.286-.286-.572,0-1.145,0l.572,1.431.572-.573c0,.286,0,.286-.286.286.859-.286,1.717,1.431,2.29,1.145.572.286.859,1.431,1.145,1.717h0a2.485,2.485,0,0,0,2,1.431h0a3.265,3.265,0,0,0,1.717.859c.572,1.145-1.431,2.29.286,2.29.859.573,2.29,0,2-.572a8.913,8.913,0,0,0,2.576,2c.859.572,1.717.859,2.29,2,.286,0,.286-.286.859-.286,2.29,2,5.725,2,7.442,4.58-.859,0-.286.572-.572.859.859-.286.572.859,1.145,0,.286-.573.286-.859-.286-1.431,1.717.286,4.294,1.145,4.866,2-.286-.572,0-.572.572-.572-.572.859.859,1.431,1.717,1.431l.286-.573.573.859c.286,0,.859-1.145,1.431-.286v.572a5.536,5.536,0,0,1,3.721,0l.859,1.145c.572,0,1.431-.572.572-.859,1.717.859,2.862,1.145,3.435,2a60.777,60.777,0,0,1,12.309-.859v.573c1.145.286.572-.859,1.145-.573-.286.573.859.859,0,1.431,1.431.572,1.717-.859,2.576-1.431,0-.572-.573.573-.573-.286,0-.286,2,.286,2-.859a1.3,1.3,0,0,1,0,1.431l.859-.572c1.145.859-2.29,2.29-.859,3.435l.859-.286c.859.859-2,1.431,0,1.431.859-.573,1.431-2,.572-2.29,1.718-.573.573-2.29,2.576-2.576.572.572-1.431.572-1.145,1.145,1.145.572,1.717-.859,2.576-.859-.859,0-.286-1.145,0-1.431,1.145.286-.286,1.145.859.859,0-.572,1.145-1.145,0-1.431.286-1.145,1.431,0,2-1.145.573.573-.859,2.29.859,2.29-.572-.572,1.431-1.717.286-2.576.573,0,.859.572.573,1.145.859.286,1.431-2,2.29-.573v-.859c.286.286.859.286,1.431.572.859-.286,2-2,2.29-.859.286-.286,1.717-.859.859-1.431-1.145,0-.859,1.145-2,.286,1.145.572,1.431-.859,1.717-1.431l.286.286c.286-.286,1.145-.572,1.145-1.145a.616.616,0,0,0,.573.572v-.859c1.145-.859.859,1.145,2,.286a3.951,3.951,0,0,0-.859,1.145c.286-.286.859.286,1.431-.286V131c.572-.572.572.573,1.145-.572l.286,1.145c0,.286,1.145.572,2,0,.572-.573.859-2-.286-1.717.573-.286,1.431-.286,1.145.286.859-.859-.572-.573.286-1.431.572.286,2-.286,3.149-.286L112,130.144l.572-.573c-.286,1.431.859.286.859,1.431a2.858,2.858,0,0,0,1.145-1.431c-2.29-.286,0-2.576-1.145-3.435,1.431-1.431,3.149,1.717,3.435-1.431-.572,0-.572-1.431-1.145-.286,1.145-.859-.286-1.717,1.145-2.29-.572,1.145,2,.286,1.145,2-.286-.286-.859.286-1.145.572.859,0,.859,1.145,1.717.286.572-.573,1.431-1.431.859-1.717-.573-.573-.859.859-1.145,0,1.145-1.145,2-.573,1.431-2-.573.859-1.431.286-1.717,0,.286-.286.286-.859.572-1.145l.286.572c1.431-1.145-.286-1.145.859-2.29h1.431c.286.859-2,1.717-.859,2.576.859-.859.573-1.717,1.717-2.29,0,.286-.286.572-.286.859.286-.286,2,.573,2.29-1.431.286-.859-.286-.573-.573-.859,1.145-1.717.859-2.576,1.717-3.435.573.859,1.431-1.717,1.431,0-.859.286-2.576,2.29-2,3.721q.859,0,0,.859c-.286.286-.859.859-.572,1.431,1.145-1.145,2-.286,2.862,0a1.721,1.721,0,0,0,.286-1.145c-.573-.572-.859-.286-1.431-.572,1.145-1.431,2-2.862,2-4.007a.633.633,0,0,1,.859.859c1.145-1.717,2.29-3.721,3.435-5.439-1.717.572.859-2-.572-1.717-.859.859-2,1.145-2.29.286.286-.573.572.286.859.286-.286-1.145,1.717-.573,1.145-1.717-.572,2,1.145,1.145,2,1.717,0-1.431.573.286,1.145-.859a25.776,25.776,0,0,1,.859-4.58c1.431-1.431,1.717-4.58,2.29-6.3.572-.859,1.717.286,2-.859s-1.431.572-.572-1.145l.286.286c0-.572,1.431-2.862,0-3.721l1.145.859c.286-.286,0-.572,0-.859.286,0,.859-.286.859.286,1.145-.859.286-2.29.573-3.435l-.859.572c-.286-2,.572-3.149.572-5.152h.572l-.286-1.145c.572.286,1.145-.572.572-1.431a15.339,15.339,0,0,1,1.431,3.149c-.573.859-.859-1.145-1.431-.572-.572.286-.859,2.29,0,2.576.286-.572,0-.859,0-1.431.859,0,.859.859,1.431,1.431,0-.286.286-.859,0-.859a7.976,7.976,0,0,1,.286,2.862c-.286-.859-.573.286-.859,0,.859.286.859,1.431.573,2.862-1.145.859,0,2.862-.859,4.58a6,6,0,0,1-1.145-3.149c-.572.859-.286,1.145-.859,2a3.928,3.928,0,0,1,1.431,2.862h-.572c0,1.431.859,1.717,0,3.149-.572,1.431-1.145,2.576-1.717,4.007l-1.717,3.435-.572-.286c.859,1.717-1.431,3.721-1.717,5.439a16.229,16.229,0,0,0-2.29,3.721,4.434,4.434,0,0,1-2.29,2.29,19.254,19.254,0,0,1-2,3.149c-.572.859-1.431,2-2,2.862a25.029,25.029,0,0,0-2.29,2.862,25.808,25.808,0,0,1-2.862,2.576v-1.145c-.286,1.145-.859,0-1.431.572,1.145,0-.286,1.431-.286,2.29-2.29.859-4.007,3.149-5.439,4.866l-.286-.572c-1.145,2-3.721,2.576-6.011,3.721-.286,0-1.145-.286-1.717,0-.859,1.431-1.431,1.717-3.149,3.149-1.431.859-3.721,1.145-5.152,1.431-4.866,3.435-10.877,3.721-16.6,5.439l-.286-1.431a24.46,24.46,0,0,1-9.16,1.145c-3.149-.286-6.011-.286-8.587-.573l.573-1.145c-1.431-.572-3.435-.286-3.149.859a7.925,7.925,0,0,0-2.576-.286c-.859-.286-1.717-.286-2-.859-1.431-.572-2,0-3.435,0a67,67,0,0,0-6.87-2.576l.572.286c.286-.286.573-.573,0-.859-1.145,0-3.721-2-3.149,0-1.145-1.145-3.149-1.717-4.866-2.29A9.466,9.466,0,0,1,35,139.59c0,.572-.572.286-1.145.286-.572-.286-1.145-.859-1.717-1.145-.572-.572-1.145-.859-1.431-1.431a9.668,9.668,0,0,0-3.149-2c-.286-.573,1.145,0,0-.859-.572-.286-.286.286-1.145,0-2-1.145-3.435-2.862-5.152-4.58-1.431-1.717-2.576-3.721-4.007-5.152-5.439-5.152-9.16-12.022-12.022-18.32h.286c-2-1.717-.859-5.725-3.149-6.87,0-.572-.286-2,.286-2a6.1,6.1,0,0,1-.859-3.435C1.5,92.645,1.5,91.214.646,89.783c0,.286,0,.286.286.573a18.9,18.9,0,0,0-.286-4.007c-.572-2-.859-3.149-.572-4.58.286.286.286.859.572.859.572-1.145-1.431-2.576,0-3.149,0-.572-.859-.286-.572,0,.286-6.3,0-13.167.859-19.751,2-4.294,2.576.286,2.29-3.435.286-.286-.572-.286-.286-.286,0-1.431,2.29-1.717,1.717-2.862-1.145,0-.286-.859-.859-.859,1.431-2.576,2.576-2.862,2.576-5.152l.286.286c0-2.862,1.717-5.439,1.717-8.015C15.53,26.522,25.549,15.358,38.716,8.488,45.3,5.053,52.17,3.05,59.04,1.332A61.6,61.6,0,0,1,80.795.76c3.149,1.717,3.435,1.717,7.156,1.717l-.286.286c.286-1.145,2.576.572,3.149-.286,2.576.859,5.152,1.431,7.729,2.29a57.35,57.35,0,0,1,7.442,2.862c-.859-.286-1.717.286-.573.572h1.145v.286c1.431,0,2.29,0,1.717-.572a56.269,56.269,0,0,1,17.175,12.022c2.576,2.29,4.58,5.152,6.87,7.729l2.863,4.294a37.292,37.292,0,0,1,2.862,4.294c.573,1.431,1.717,3.149,2.576,4.866s2,3.435,2.862,5.152c2.863,10.3,3.435,19.465,4.58,29.77A7.229,7.229,0,0,1,144.628,70.6Z" transform="translate(0.039 -0.053)" fill="#19486a"/>
        <path id="Path_2278" data-name="Path 2278" d="M51.631,27.6c-.572.286-.859,1.431-1.431.572C50.772,28.172,51.345,27.6,51.631,27.6Z" transform="translate(93.608 51.252)" fill="#19486a"/>
        <path id="Path_2279" data-name="Path 2279" d="M46.773,37.473a1,1,0,0,1-.573.286c0-.286,0-.859.286-.859C46.2,37.186,46.486,37.186,46.773,37.473Z" transform="translate(86.158 68.573)" fill="#19486a"/>
        <path id="Path_2280" data-name="Path 2280" d="M45.051,40.876c-.286-.286.286-1.717.572-2.576Z" transform="translate(83.873 71.181)" fill="#19486a"/>
        <path id="Path_2281" data-name="Path 2281" d="M43.409,41.073c-.573.286-.573,0-.286-.572C43.409,40.5,43.409,40.786,43.409,41.073Z" transform="translate(80.076 75.278)" fill="#19486a"/>
        <path id="Path_2282" data-name="Path 2282" d="M44.045,41.089a2.17,2.17,0,0,1-1.145.573C43.186,41.948,43.472,40.516,44.045,41.089Z" transform="translate(80.012 76.12)" fill="#19486a"/>
        <path id="Path_2283" data-name="Path 2283" d="M40.045,44.376c-.286.286-.572.859-1.145.859C39.473,44.949,40.045,43.518,40.045,44.376Z" transform="translate(72.562 81.993)" fill="#19486a"/>
        <path id="Path_2284" data-name="Path 2284" d="M38.188,45.886c-.286,0-.286,0-.572.286-.572,0-.286-.573,0-.573Z" transform="translate(69.554 84.777)" fill="#19486a"/>
        <path id="Path_2285" data-name="Path 2285" d="M3.4,32l.572.573H3.4Z" transform="translate(6.445 59.447)" fill="#19486a"/>
        <path id="Path_2286" data-name="Path 2286" d="M6.6,14.008c.286-.859.572-.286.859-.286C7.172,14.294,7.172,13.435,6.6,14.008Z" transform="translate(12.405 25.056)" fill="#19486a"/>
        <path id="Path_2287" data-name="Path 2287" d="M13.972,6.372v.286L13.4,5.8Z" transform="translate(25.069 10.65)" fill="#19486a"/>
      </g>
    </g>
    <g id="hand" transform="translate(177.111 35.916)">
      <path id="Colour-Partner" d="M98.092,5.9a4.2,4.2,0,0,0-4.127-4.127A51.48,51.48,0,0,0,73.394,4.562c-2.667.952-5.778,1.9-6.666,4.952a5.991,5.991,0,0,0,.381,4.19c-.7-.19-1.27-.444-1.651-.508-2.286-.571-4.508-1.206-6.73-1.9-3.809-1.27-7.809-2.73-11.873-1.651-2.032.508-3.111,1.9-4.825,2.857-1.651.952-3.746.571-5.651.571-2.286,0-4.571,0-6.857-.063-1.27,0-2.476-.063-3.746-.063h-.571c.127-.571.254-1.143.317-1.587a25.022,25.022,0,0,0,.508-4.317,5.3,5.3,0,0,0-3.746-4.889c-2.286-.762-5.206-.7-7.619-.952C11.428.753,8.317.372,5.206-.009A3.524,3.524,0,0,0,2.1,1.451,4.024,4.024,0,0,0,.825,4.308Q-.032,22.974,0,41.64c0,1.587,1.27,3.746,3.048,4,3.936.571,8,1.016,11.809-.571a11.777,11.777,0,0,0,2.857-1.714c.254-.19.444-.381.7-.571l.127-.127a48.765,48.765,0,0,1,5.143,2.6c8.254,4.635,15.428,10.73,22.539,16.825,2.54,2.159,6.73.762,7.047-2.349.127.127.254.19.317.254,3.365,2.286,7.936-2.286,5.651-5.651A29.8,29.8,0,0,0,54.6,49.2c-.7-.635-1.4-1.206-2.032-1.841.635.508,1.333,1.079,1.968,1.587,2.349,1.9,4.571,4,6.793,6.1,3.3,3.238,8.889-.889,6.476-5.016.19.19.444.381.635.571,4.127,3.492,9.143-1.714,5.841-5.841-.889-1.079-1.778-2.159-2.73-3.175,1.9,0,3.809.127,5.778.19a7.09,7.09,0,0,0,3.682,4.571c3.492,1.778,8.825.825,12.634.762a4.2,4.2,0,0,0,4.127-4.127C98.155,30.593,98.282,18.276,98.092,5.9Z" transform="translate(631.826 1306.26)" fill="#19486a"/>
      <g id="Icon_-_Partner" data-name="Icon - Partner" transform="translate(633.04 1305.713)">
        <g id="Group_721" data-name="Group 721">
          <g id="Group_720" data-name="Group 720">
            <g id="Group_719" data-name="Group 719">
              <g id="Group_718" data-name="Group 718">
                <g id="Group_717" data-name="Group 717">
                  <path id="Path_508" data-name="Path 508" d="M41.22,10.491c.342.222,0-.323.273.1C41.366,10.63,41.258,10.643,41.22,10.491Z" transform="translate(-15.076 -3.812)" fill="#fff"/>
                  <path id="Path_509" data-name="Path 509" d="M27.178,7.725a1.259,1.259,0,0,1,.235.5,3.75,3.75,0,0,1,.038.6,9.643,9.643,0,0,1-.121,1.262,8.857,8.857,0,0,0-.241,2.531c0,.19-.381-.114-.355.317a7.043,7.043,0,0,1-.26,2.81,17.949,17.949,0,0,1-1.123,2.886l-.082-.133c-.165.33.1.837-.038,1.2-.076-.013-.076-.14-.2-.082.2.146-.057.691.07.888-.121.127-.292.07-.431.235l.2.273c.444.729-.4,1.414-.3,2.29-.051-.051-.07-.146-.146-.1a24.551,24.551,0,0,1-.723,4.427c-.07-.082-.216-.178-.336-.121.241.14.184.6.127,1-.317.1.063.723-.209,1.135l-.051-.057c.184.412-.3.444-.044.812l-.266.152c.336.254-.33.425-.222.755l.082.013c.019.285-.209.368-.216.622l-.051.013c-.057.59-.368.856-.07.926-.292.127.051-.571-.381-.362a35.507,35.507,0,0,1-1.4,5.664c-.178.178-.254.3-.381.311.006.2-.152.71-.051.926.013-.063-.184.076-.228.171-.209.3.216.463-.025.793-.032-.171-.114-.247-.235-.228a2.894,2.894,0,0,1-.057,1.186c-.032-.07-.038-.171-.133-.184.146.482-.273.729-.2,1.135l-.133-.184c-.362.526.311.266.057.736-.025-.133-.1-.108-.165-.146a1.621,1.621,0,0,1,.063.526,1.643,1.643,0,0,1-.063.526,3.845,3.845,0,0,1-.463.723.087.087,0,0,0-.032-.07,3.444,3.444,0,0,1-1.63.786c-.235-.07.044-.425-.507-.355.019.355-.945.146-.615.545a4.7,4.7,0,0,0-1.548-.07c.216-.133-.235-.431.165-.463l-.3-.216c.044-.146.3.051.216-.133a4.523,4.523,0,0,1-.951.1,2.81,2.81,0,0,1-1.3.666c.279-.14-.159-.387.032-.45l-.831.679c-.2.019-.044-.279-.33-.184.013.1-.108.152-.2.228-.076-.038-.825.089-.907-.26-.089-.14.323-.076.1-.2-.368.006-.381.121-.748.127l-.006-.044c-.241-.051-.71.146-.45.342.165.013-.063-.209.184-.108a1.37,1.37,0,0,1-.958.26c.127-.057.108-.146.159-.247a5.243,5.243,0,0,1-1.56.476c-.006.165.2-.3.285-.216-.7-.228-1.452.323-2.036-.013.1-.032.051.235.044.19-.336-.019-.323-.26-.545-.171-.019-.14-.279.044-.5.089-.127.089-.057-.082.14-.1a2.293,2.293,0,0,1-1.319,0A2.184,2.184,0,0,1,1.262,44.48c-.032.032-.2-.057-.349-.209a1.233,1.233,0,0,1-.336-.507l.241.032c.038-.254-.19-.812.013-.856-.14-.235-.1.228.1.679s.482.761.228.52c.038-.121-.127-.292-.254-.469s-.209-.33-.051-.285C.8,43.148.723,42.926.685,42.71a.607.607,0,0,1,.057-.488c-.038.1.3.273.285,0-.038-.482-.1-.14-.178-.526l-.089-.241c-.209-.019.025-.431-.209-.247.178-.057-.108-.7.241-.647l.279.063c-.019-.209-.292-.343-.412-.5.025-.025.082-.082.127-.07-.425-.032.038-.495-.292-.742.146-.438.013-1.1.279-1.313a1.675,1.675,0,0,1-.19-1.021c.038.076.051.178.146.2.127-.241.013-.3-.057-.52.063.051.247-.476.4-.742-.127-.33-.355-.216-.495-.254.419-.3-.266-.939.108-1.319.057.114.2.482.311.209.419-.3-.311-.615-.108-1.1l-.349.121c.216-.216-.2-.723.152-.672-.127-.165.114-.577-.222-.52C.755,31.573.3,30.425.9,29.93c-.057-.114,0-.406-.171-.342-.19.19.133.266.006.336a.171.171,0,0,0-.152-.14c.076-.247.1-.444.381-.209C1.173,29.017.387,29,.52,28.294c.14.032.19-.019.171-.228L.45,27.672c.057-.457.317-.26.558-.273C.97,27.152.977,26.854.8,26.746l.3-.3c-.216.216-.146-.2-.2-.317l.057.114c.1-.044.038-.33.006-.469-.133.038-.2.323-.241.482-.1-.127-.082-.317-.2-.488.235.057.165-.4.19-.6.051-.222-.209-.254-.2-.317.121-.006.019-.362.19-.19.038.076-.114.171-.013.3.089-.146.3-.133.146-.438-.114-.228-.457.057-.311-.374.057.114.152.133.235.222l.121-.406L.66,23.949c.051-.057.07-.019.1-.044-.222-.121-.07-.622-.317-.717-.019-.209.146-.431.171-.628l.019.051a.765.765,0,0,0-.1-.761l.044.013a1.028,1.028,0,0,0-.14-.609c.159-.33.8-.114.533-.476-.006-.336-.387-.526-.526-.393.146-.6-.2-1.294.127-1.852-.082-.089-.14-.032-.19-.209.082-.888-.254-1.877.165-2.581.089.247.216.006.336.006-.19-.209.2-.254-.127-.33-.19.019-.285,0-.362.247a3.083,3.083,0,0,1,.076-1.63c-.089.146-.152.032-.209-.082.3.038.349-.355.241-.647l-.184-.044.19-.19C.45,12.958.121,12.945.3,12.653a.33.33,0,0,0,.2-.089c-.152-.3-.412-.736-.254-1.072l.273-.273c-.032-.14-.19-.381-.273-.133.165-.564.184-.932.419-1.11A6.833,6.833,0,0,1,.108,6.45l.14.032C.381,6.184.006,6.33.1,6.12c.133.1.292-.235.45.006.146-.438-.241-.564-.3-.85-.184-.038.121.228-.114.178C.07,5.4.279,4.852,0,4.782c.108-.108.311-.025.425.032L.292,4.548c.323-.323.577.742.977.406l-.044-.247c.285-.235.323.647.425.032-.14-.266-.539-.495-.66-.26C.951,4.2.786,4.142.634,4.066c-.14-.1-.323-.241-.209-.723.114-.108.07.076.057.279s.025.406.14.323a1.344,1.344,0,0,0,.121-.622.991.991,0,0,1,.127-.571c-.241.3-.387-.1-.317-.349.3-.311.108.342.393-.146-.1-.152.1-.691-.254-.342C.59,1.725.7,1.6.837,1.471A.968.968,0,0,0,1.186.958c.184-.006.14.247.171.412s.089.266.381.044c-.133-.038-.038-.266.1-.495S2.131.476,1.789.476c.419-.171.526.006.349.273C2.638.577,3.33-.089,3.469.406L3.59.152c.07.032.108.063.216.108a.833.833,0,0,1,.285.178c.228.025.774-.273.717.1.076-.032.609.025.425-.254C4.915.1,4.833.444,4.681.076c.209.311.476,0,.679-.076l.019.146C5.493.1,5.753.152,5.841,0a.126.126,0,0,0,.025.222l.14-.209c.469-.07.076.4.533.374l-.355.14c.076-.032.216.19.438.14.1-.2.279-.425.368-.577.26-.07.1.241.362.051L7,.355c-.057.063.19.355.533.381.222-.051.59-.317.254-.457.171.013.4.159.254.292.393-.038-.032-.222.317-.317.127.146.533.381.774.6l-.381.3.228.025c-.323.247.133.222-.063.495a.786.786,0,0,0,.514-.082c-.419-.5.577-.577.488-1.008.647-.051.292,1.053,1.021.469-.1-.121.247-.406-.165-.33.393.089.311-.393.761-.171-.362.133.323.463-.2.66.051-.133-.266-.133-.349-.1.146.178-.076.419.323.457.247-.013.59.019.564-.209.019-.241-.381-.019-.2-.241.5-.025.539.342.793-.057a.336.336,0,0,1-.342-.419L12.5.584l-.089.152c.571.184.2-.266.767-.159l.228.342c-.165.254-.805-.216-.755.235.362.063.514-.152.844.006-.082.025-.19.025-.266.057.127.032.184.628.748.355.285-.1.089-.146.121-.311.59.025.793-.114,1.173-.089-.121.311.666.127.2.393a1.161,1.161,0,0,0-1.262-.038c.165.406-.45-.114-.628.26.469.07.393.438.438.691a.607.607,0,0,0,.349-.082c.082-.222-.082-.241-.063-.482a1.892,1.892,0,0,0,1.351-.108.2.2,0,0,1-.14.355,7.862,7.862,0,0,1,1.865.323c-.317-.438.672.025.469-.33-.3-.14-.533-.45-.323-.59.2.057-.032.165.038.254.292-.165.336.4.641.121-.59.019-.19.438-.349.71.438-.089-.057.2.349.279a5.547,5.547,0,0,1,1.421-.089c.507.393,1.427.323,1.941.444.222.216-.038.488.228.622.33.089-.152-.419.3-.133l-.063.051c.159-.019.805.5,1.1.089l-.26.3c.082.057.19.006.279-.006-.032.114.038.247-.133.279.216.342.628.165.951.285l-.127-.279c.609.057.9.4,1.446.59l-.108.184.362.044c-.165.14.032.4.266.349a8.418,8.418,0,0,0-.989.044c-.152-.222.336-.114.3-.368-.032-.228-.539-.387-.691-.235.171.1.2.063.368.057-.063.292-.33.159-.539.285.1.032.19.171.247.1a1.247,1.247,0,0,1-.736-.121c.247-.025-.044-.216.063-.26-.121.228-.438.19-.8-.006-.184-.374-.786-.057-1.218-.26a1.449,1.449,0,0,1,.869-.342c-.254-.216-.323-.1-.577-.3a1.208,1.208,0,0,1-.78.419l.032-.19c-.368.006-.438.279-.863.127a16.357,16.357,0,0,0-2.087-.564l.013-.2c-.4.342-1.11-.051-1.579.063-.717-.311-1.649-.07-1.985-.45A28.932,28.932,0,0,1,10.96,3.2l.26-.254c-.266.178-.146-.178-.393-.165.254.254-.368.254-.558.406A3.086,3.086,0,0,0,8.3,3.222l-.006-.2c-.584.311-1.211-.063-1.9-.178-.076-.1-.19-.285-.393-.279a2.848,2.848,0,0,1-1.161.387,6.3,6.3,0,0,1-.729-.114,1.542,1.542,0,0,1-.323-.089c-.063-.025-.19-.051-.241-.076-.216.146-.114.184-.228.336a4.669,4.669,0,0,0-.349.691.927.927,0,0,0-.07.247.764.764,0,0,0,0,.121l.013.292a10.492,10.492,0,0,0,.114,1.173L2.8,5.651c.482,1.529.044,3.406.292,4.706l-.387-.127c-.121.406.1.932.374.825-.121.412.19,1.021-.133,1.281-.07.419.178.514.228.863a5.721,5.721,0,0,0-.038,1.941l.025-.2c-.082-.089-.247-.1-.273.1.108.292-.1,1.085.362.793-.266.844.216,1.966-.146,2.791.127-.07.152.14.235.222A7.217,7.217,0,0,0,3.3,20.962c-.063.121-.216-.19-.228.114.051.178.165.006.235.222.235,1.2-.241,2.429-.184,3.52a58.136,58.136,0,0,1,.165,5.816l-.1-.019c.355.622-.362,1.459.171,1.953-.089.146-.044.564-.222.45.254.495-.235,1.389.082,2.106a.3.3,0,0,0-.051-.178c-.2.723.076,1.364-.108,2.125C3.032,37,3,36.856,2.9,36.831c-.178.292.393.7-.057.863.006.171.222.121.209.019a14.484,14.484,0,0,0,.006,2.569c.07.837.146,1.687.216,2.518a.624.624,0,0,1-.381.317c-.108.025-.159.051.089.165-.057.076.159-.076.082-.019.1.019.025.14,0,.266s-.032.247.1.19c.108-.26.152-.089.235-.241a1.038,1.038,0,0,0,.273.33.392.392,0,0,0,.209.051,1.214,1.214,0,0,0,.381-.082l-.044.146c.7-.406,1.522-.19,2.118-.66,1.941-.044,3.85-.127,5.74-.216l2.829-.114a14.443,14.443,0,0,0,2.061-.108c.057-.019.057-.019.063-.019s.019-.006.025-.019a.023.023,0,0,0,.006-.019c.2-.92.412-1.592.615-2.347.209-.729.419-1.459.634-2.194.431-1.452.888-2.9,1.421-4.351a2.431,2.431,0,0,0,.748-1.795c.051.057.044.121.121.07-.285-.133.165-.666-.1-.837.444-1.332.71-2.594,1.091-3.983-.025.228.184.406.241.14l-.114-.323.1-.019c.006-.19-.089-.425-.235-.266.691-3.552,2.175-6.831,2.848-10.287a7.726,7.726,0,0,0,.349-1.4c.076-.507.127-1.027.178-1.478a28.191,28.191,0,0,0,1.1-3.736c.057-.311.108-.622.159-.932l.063-.469.051-.425a.733.733,0,0,0-.082-.425c-.044-.044-.051-.013-.146-.025a.676.676,0,0,1,.076-.1.857.857,0,0,1,.235-.2A.511.511,0,0,1,27.178,7.725Z" fill="#fff"/>
                  <path id="Path_510" data-name="Path 510" d="M40.551,9.833c.025-.184-.2-.412.127-.463C40.627,9.516,40.658,9.738,40.551,9.833Z" transform="translate(-14.813 -3.427)" fill="#fff"/>
                  <path id="Path_511" data-name="Path 511" d="M28.693,3.568c-.019.044-.108-.082-.133-.114.108.006.228-.1.3-.006C28.75,3.441,28.757,3.517,28.693,3.568Z" transform="translate(-10.446 -1.246)" fill="#fff"/>
                  <path id="Path_512" data-name="Path 512" d="M25.38,2.863c.051-.133.533-.171.812-.14Z" transform="translate(-9.283 -0.992)" fill="#fff"/>
                  <path id="Path_513" data-name="Path 513" d="M22.258,1.51c-.159-.14-.1-.2.133-.165C22.4,1.421,22.316,1.447,22.258,1.51Z" transform="translate(-8.108 -0.489)" fill="#fff"/>
                  <path id="Path_514" data-name="Path 514" d="M21.837,1.967a.442.442,0,0,1-.317-.2C21.514,1.884,21.926,1.738,21.837,1.967Z" transform="translate(-7.871 -0.647)" fill="#fff"/>
                  <path id="Path_515" data-name="Path 515" d="M14.911.626c-.108,0-.349.1-.431-.07C14.581.677,15.013.436,14.911.626Z" transform="translate(-5.296 -0.201)" fill="#fff"/>
                  <path id="Path_516" data-name="Path 516" d="M11.786.6C11.723.591,11.7.56,11.615.591c-.114-.076.019-.165.127-.171Z" transform="translate(-4.232 -0.154)" fill="#fff"/>
                  <path id="Path_517" data-name="Path 517" d="M.963,53.376.9,53.16l.133.032Z" transform="translate(-0.329 -19.443)" fill="#fff"/>
                  <path id="Path_518" data-name="Path 518" d="M12.35,72.388c.222-.089.152.133.19.152C12.337,72.553,12.61,72.363,12.35,72.388Z" transform="translate(-4.517 -26.468)" fill="#fff"/>
                  <path id="Path_519" data-name="Path 519" d="M26.09,71.139l-.07.006.025-.285Z" transform="translate(-9.517 -25.917)" fill="#fff"/>
                </g>
              </g>
            </g>
          </g>
        </g>
        <g id="Group_726" data-name="Group 726" transform="translate(34.897 7.776)">
          <g id="Group_725" data-name="Group 725">
            <g id="Group_724" data-name="Group 724">
              <g id="Group_723" data-name="Group 723">
                <g id="Group_722" data-name="Group 722">
                  <path id="Path_520" data-name="Path 520" d="M109.125,62.566c-.419-.006.178.279-.285.057C108.916,62.522,109.011,62.452,109.125,62.566Z" transform="translate(-74.706 -30.638)" fill="#fff"/>
                  <path id="Path_521" data-name="Path 521" d="M69.849,25.96a6.356,6.356,0,0,1,3.159-.1,4.531,4.531,0,0,0,.951-1.129c.1-.14.241.317.457-.019a3.918,3.918,0,0,1,.311-.539l.038-.051-.057.006a2.647,2.647,0,0,1-1.11-.178,3.7,3.7,0,0,0-.564-.146c-.2-.019-.406-.032-.615-.051-.1-.006-.209-.032-.311-.032l-.311.063c-.209.038-.419.082-.622.121-.419.082-.825.159-1.205.235L70.02,24c-.342.07-.545.584-.882.691-.038-.063.051-.146-.063-.2,0,.121-.089.209-.228.266-.152.076-.317.146-.355.254-.165-.032-.216-.2-.425-.222l-.089.317a.878.878,0,0,1-.812.564,3.924,3.924,0,0,0-1.1.159c.038-.063.108-.108.051-.165a3.012,3.012,0,0,0-.939.406,3.9,3.9,0,0,0-.736.71c-.184.3-.368.6-.552.9-.209.285-.4.59-.609.869-.032-.1-.121-.247-.254-.254.152.222-.07.6-.3.888-.311-.1-.3.634-.774.78l-.006-.07c-.1.444-.495.133-.545.571l-.285-.082c.038.406-.514.032-.691.3l.038.07c-.222.165-.406.044-.622.152l-.032-.038a1.7,1.7,0,0,1-.641.127c-.152.013-.228.038-.209.19-.209-.222.539-.165.2-.488a4.319,4.319,0,0,1-2.22-.006,5.5,5.5,0,0,1-1.129-.406,3.048,3.048,0,0,1-.52-.311.6.6,0,0,1-.209-.533h0a3.536,3.536,0,0,1-.032-1.034c.152-.216.2-.336.33-.355-.032-.184.1-.653.013-.856-.013.057.178-.063.228-.146.222-.26-.2-.45.07-.736.019.165.1.241.216.241a2.1,2.1,0,0,1,.19-1.085c.019.076.013.165.1.2-.076-.476.374-.609.387-.989l.1.2c.45-.374-.241-.323.108-.672-.013.127.07.127.121.184-.051-.552.431-1.11.6-1.529a.09.09,0,0,0,.051.057,13.5,13.5,0,0,0,.856-1.275c.184-.1.292.317.564-.114-.285-.216.463-.748-.032-.786.336-.3.926-.71,1.047-1-.044.235.457.159.216.431l.342-.038c.076.133-.235.165-.044.228.121-.14.4-.609.552-.679a2.356,2.356,0,0,1,.4-1.307c-.1.279.374.184.285.349l.1-1.015c.121-.14.216.178.349-.07-.076-.063-.025-.178-.013-.292.076-.013.52-.571.805-.362.152.051-.178.254.057.209.254-.222.184-.33.438-.545l.032.032c.2-.1.419-.526.108-.526-.127.089.178.127-.063.19-.006-.254.273-.552.539-.767-.057.121.013.184.032.292a3.991,3.991,0,0,1,.913-1.256c-.089-.14.013.362-.1.336a2.374,2.374,0,0,0,.831-.59,1.167,1.167,0,0,1,.837-.438c-.07.07-.159-.184-.127-.146.311-.133.406.089.558-.089.082.121.222-.165.406-.3.07-.133.076.032-.089.133a3.464,3.464,0,0,1,.856-.539,2.981,2.981,0,0,1,1.288-.3c-.038-.1.387-.412.564-.425l-.038.222c.171.108.571-.1.615.089.323-.311-1.345.412-.888.14.146.165.628-.438.564-.127.33-.063.653-.323.989-.121-.1-.032-.26.3.006.285.469-.044.133-.108.52-.184a1.844,1.844,0,0,1,.247-.076c.025-.209.425.063.26-.184.044.178.717-.044.622.3l-.1.266c.2-.006.368-.254.545-.342.019.032.063.1.051.14.1-.412.469.127.774-.152.393.222,1.047.292,1.167.59a1.345,1.345,0,0,1,.989.127c-.082.013-.178-.006-.228.07.178.2.266.108.482.114-.07.051.355.374.52.615.33,0,.317-.254.393-.374.1.495.907.089,1.085.564-.114.025-.488.019-.292.216.108.488.622-.1.97.254l.019-.362c.108.273.7.051.52.368.184-.063.45.3.533-.032.584.539,1.738.5,1.934,1.23.12-.013.342.14.355-.044-.1-.241-.279.038-.292-.108.089.025.146-.051.171-.1.184.159.343.247.038.425.4.381.7-.342,1.249.019-.076.121-.051.184.133.235l.419-.1c.368.2.108.381.032.609.222.044.476.152.634.019l.146.374c-.108-.273.222-.07.342-.089l-.121.019c.006.108.266.14.4.159.025-.146-.2-.3-.323-.387.146-.057.3.025.482-.038-.127.2.279.279.438.362.171.114.285-.121.336-.089-.038.114.3.133.1.235-.076.013-.108-.165-.254-.1.1.127.013.323.323.273.235-.038.1-.45.425-.184-.114.019-.165.1-.266.152l.311.235.082-.2c.032.07-.006.076.006.108.178-.171.558.121.717-.1.184.038.323.266.488.342l-.038.006a.655.655,0,0,0,.691.114l-.025.038a2.23,2.23,0,0,0,.888.127c.19.14.1.323.038.457s-.044.178.133.292c.184.343.615.349.641.1a3.339,3.339,0,0,0,.279.615l.235.406a1.322,1.322,0,0,1,.241.837c.108.038.14-.032.254.1.26.793.926,1.51.786,2.277-.171-.184-.2.063-.311.114.254.108-.1.292.235.235.171-.089.266-.108.247-.349a2.579,2.579,0,0,1,.495,1.427c.032-.159.127-.082.216-.006-.3.082-.2.431-.006.647l.19-.032-.114.235c.1.076.406-.032.336.285a.393.393,0,0,0-.159.146c.241.209.628.488.59.825l-.165.33c.076.114.3.26.3.013.032.545.133.869-.025,1.1a5.759,5.759,0,0,1,1.655,2.841l-.14.019c-.025.311.279.051.254.266-.159-.038-.2.3-.425.152,0,.425.406.4.552.622.184-.025-.184-.159.051-.19.076.019.057.571.342.533-.07.133-.285.127-.412.114l.209.184c-.2.393-.78-.444-1.04-.013l.12.2c-.2.3-.514-.444-.412.121.209.184.66.241.7-.006.247.45.7-.006.869.52-.1.2-.184-.4-.368-.222-.12.317.3.444.3.691.013-.279.349-.171.45-.032-.025.3-.311-.082-.2.3.171.006.412.311.406-.025.387.013.044.425.381.526-.2.209-.691-.184-.666.266.209-.146.495.393.761.051-.006.184-.184.266-.368.2-.057.279.622.406.19.647l.292.025c-.051.1-.07.222-.159.387.07.2.552.539.19.647.057.051.209.52.393.254.051-.342-.3-.266-.019-.545-.2.3.184.4.336.533l-.127.076c.089.082.14.317.311.323a.13.13,0,0,0-.19.114l.247.025c.247.362-.336.228-.133.6l-.266-.241c.057.051-.089.254.044.419.216.006.495.057.666.07.165.19-.184.178.1.323l-.33-.2c-.076-.019-.247.3-.14.6.133.165.514.355.514.025.057.146.013.393-.171.33.184.311.19-.114.412.127-.089.165-.14.6-.247.882l-.425-.19.07.2c-.349-.165-.152.2-.476.152.006.152.159.285.273.393.292-.552.755.241,1.11-.019.3.507-.844.685-.019,1.034.07-.133.469.032.228-.273.038.178.159.2.266.235s.184.025.241.463c-.178-.247-.228-.063-.3.07s-.178.228-.412-.063c.076.013.057-.127.038-.184a.385.385,0,0,0-.1-.178c-.1.209-.419.082-.273.488.14.279.292.685.495.609.241-.038-.2-.488.12-.317.33.685-.032.761.533,1.078-.19-.438.032-.552.209-.552l.311.577-.216-.127c.184.875.419.311.691,1.224a2.683,2.683,0,0,1-.235.285c-.393-.3-.292-1.2-.742-1.148.152.495.482.755.52,1.211-.089-.133-.152-.285-.235-.412.025.089-.127.114-.2.216s-.089.254.26.723c.3.463.247.222.463.349.368.894.7,1.351.951,1.979-.133-.133-.178-.133-.184-.082-.006.006.013.038-.013.038l-.089-.025-.165-.038c-.209-.044-.342-.076-.26-.235a1.723,1.723,0,0,0,.241.1c.133.07.1-.013.082-.076a3.64,3.64,0,0,0-.165-.526,3.816,3.816,0,0,0-.672-1.135c-.412-.019-.152-.59-.7-1,.2.583-.317.26-.622.14a1.836,1.836,0,0,0,.285.438c.343.279.273.089.6.285a4.26,4.26,0,0,0,.374.951c.051.089.1.178.14.26l.038.063-.025.013-.051.019a.289.289,0,0,0-.133.127c-.4-.184-.609-.463-.393-.444a13.917,13.917,0,0,1-2.334-.444c.71.514-.8-.051-.323.355.463.165,1.053.545.882.691-.33-.082-.082-.184-.26-.3-.14.082-.336-.038-.507-.14s-.323-.178-.463-.038c.412.013.4-.108.3-.266s-.26-.349-.254-.495c-.431.1-.051-.222-.5-.3a4.664,4.664,0,0,1-.748.089l-.216.006-.165.013c-.108.006-.216.006-.323.006-.463-.368-1.3-.235-1.763-.3-.216-.19.006-.495-.241-.6-.3-.044.165.4-.26.165l.057-.057c-.152.051-.793-.374-1.008.082l.2-.336c-.076-.044-.171.019-.247.044.019-.114-.063-.241.089-.292-.235-.3-.6-.063-.9-.108l.159.247c-.552.076-.863-.2-1.376-.209l.051-.2-.323.07c.108-.19-.146-.368-.33-.228l.869-.374c.2.159-.279.209-.184.438a.462.462,0,0,0,.672.038c-.171-.057-.19-.013-.342.038-.006-.3.26-.241.431-.412-.1-.006-.216-.114-.247-.025a1.03,1.03,0,0,1,.7-.051c-.228.076.082.2-.013.266.07-.247.374-.279.742-.14.216.342.742-.063,1.167.1a1.526,1.526,0,0,1-.767.45c.254.178.3.044.558.228.165-.171.311-.444.691-.5l-.013.2c.342-.038.393-.323.793-.2.349.108.7.2,1.034.273.3.063.571.127.805.178l.019.2a.391.391,0,0,1,.45-.178c.171.019.381.076.45-.006a1.508,1.508,0,0,0,.7.146.785.785,0,0,1,.285.044l.089.032c.038.019.063.032.063.019a.158.158,0,0,1,.1.013,12.037,12.037,0,0,1-1.085-2.423,2.425,2.425,0,0,0,.323.082c-.254-.1.108-.178,0-.362-.127.317-.381-.2-.59-.292a2.687,2.687,0,0,0-.805-1.63l.178-.082c-.514-.362-.419-1.04-.571-1.655.051-.1.184-.266.1-.438-.412-.222-.45-.4-.805-.805a5.4,5.4,0,0,1-.266-1.332c-.882-1.154-1.1-2.581-1.846-3.844l.178-.178c-.939-1.142-1.123-2.9-1.782-3.926l.406-.032c-.019-.393-.4-.761-.622-.571-.019-.393-.514-.8-.3-1.135-.07-.381-.336-.368-.5-.647a4.559,4.559,0,0,0-.615-1.649l.044.171c.108.044.266-.013.222-.19-.2-.209-.279-.951-.6-.526-.044-.812-.888-1.548-.85-2.366-.089.108-.19-.051-.3-.082a4,4,0,0,1-.178-.457l-.076-.235a.925.925,0,0,1-.051-.184c-.006-.1-.051-.209-.159-.165.013-.063.2-.165.121-.2-.076.025-.108.14-.19.19a.259.259,0,0,1-.1.025c-.013,0,0,.006-.032-.006l-.1-.032-.2-.07a6.9,6.9,0,0,1-.767-.342,8.808,8.808,0,0,0-1.465-.672,37.209,37.209,0,0,1-5.087-1.776l.051-.076c-.66.121-1.11-.831-1.725-.5-.1-.133-.457-.228-.3-.355-.482.076-1.148-.679-1.839-.634.051.032.089.025.165.013a2.337,2.337,0,0,0-.844-.419,2.878,2.878,0,0,1-.863-.362c.076-.013.2,0,.247-.082-.184-.254-.691.171-.685-.3-.14-.032-.165.19-.076.2a7.04,7.04,0,0,0-4.129-.349c-.97-.133-.159-.742-.875-.3-.082-.07-.013.178-.038.089-.254.2-.583-.368-.729-.082.165.241-.1.178-.044.342-.615.063-.863-.165-1.218.266l-.025-.146a2.621,2.621,0,0,1-.672.7,1.46,1.46,0,0,0-.533.742,25.475,25.475,0,0,0-3.691,3.317c-.584.59-1.173,1.243-1.725,1.839a21.716,21.716,0,0,0-1.465,1.827,14.6,14.6,0,0,0-1.827,2.924,9.561,9.561,0,0,0-.584,1.484,2.115,2.115,0,0,0-.076.3l-.038.133-.013.032c-.013.019-.006.038.006.063l.006.019.006.013.076.032.171.07.228.082c.488.482.6.488,1.18.311-.019.063-.057.082-.013.133,0-.159.1-.171.209-.19s.209-.057.2-.209a4.112,4.112,0,0,0,2.2-1.484c-.089.146.032.393.159.222v-.292l.089.032c.063-.127.038-.355-.127-.3.184-.3.4-.558.584-.875l.425-.634a4.331,4.331,0,0,1,.406-.419c.1-.1.222-.2.362-.311a3.889,3.889,0,0,1,2.271-.869l.3-.006.127.006.184.013a2.246,2.246,0,0,0,.3-.013,4.783,4.783,0,0,0,.92-.26l.666-.216a.994.994,0,0,1,.146-.038h.032l.07-.025.146-.063c.774-.342,1.624-.7,2.455-1.015a1.216,1.216,0,0,0,.184-.044l.273-.076c.1-.025.184-.057.285-.082a2.437,2.437,0,0,1,.3,0c.552.006.469,0,.964-.006a4.828,4.828,0,0,1,1.129.2,5.378,5.378,0,0,0,.577.127c.032.019.051.038.051.051-.038.241-.082.419-.1.634a3.344,3.344,0,0,0-.032.482l1.2,1.909c-.336.235-.672.463-1,.685l-.254.178-.393.317-.755.615-1.7-.209c-.368-.051-.736-.089-1.1-.121a18.148,18.148,0,0,0-2.283-.038A1.58,1.58,0,0,1,69.849,25.96Z" transform="translate(-55.021 -12.26)" fill="#fff"/>
                  <path id="Path_522" data-name="Path 522" d="M110.071,62.68c.063.171.33.3.07.469C110.135,63,110.014,62.813,110.071,62.68Z" transform="translate(-75.15 -30.701)" fill="#fff"/>
                  <path id="Path_523" data-name="Path 523" d="M122.225,67.405c.006-.044.178.1.228.133-.14-.013-.26.1-.393-.006C122.206,67.545,122.168,67.462,122.225,67.405Z" transform="translate(-79.541 -32.426)" fill="#fff"/>
                  <path id="Path_524" data-name="Path 524" d="M126.643,68.41c.127.165-.45.171-.863.121C126.1,68.492,126.383,68.454,126.643,68.41Z" transform="translate(-80.901 -32.797)" fill="#fff"/>
                  <path id="Path_525" data-name="Path 525" d="M129.23,66.809c.057-.19.165-.07.3.317C129.446,67.094,129.351,66.936,129.23,66.809Z" transform="translate(-82.163 -32.179)" fill="#fff"/>
                  <path id="Path_526" data-name="Path 526" d="M128.425,65.921c-.089-.247-.025-.311.032-.393C128.31,65.464,128.761,66.168,128.425,65.921Z" transform="translate(-81.853 -31.741)" fill="#fff"/>
                  <path id="Path_527" data-name="Path 527" d="M126.056,57.421c-.044-.089-.222-.247-.108-.381C125.885,57.173,126.272,57.427,126.056,57.421Z" transform="translate(-80.949 -28.638)" fill="#fff"/>
                  <path id="Path_528" data-name="Path 528" d="M124.817,54.857c-.013-.057.006-.089-.057-.146.025-.127.159-.051.2.032Z" transform="translate(-80.528 -27.762)" fill="#fff"/>
                  <path id="Path_529" data-name="Path 529" d="M92.84,15.5l.2.006-.076.114Z" transform="translate(-68.854 -13.445)" fill="#fff"/>
                  <path id="Path_530" data-name="Path 530" d="M69.175,16.937c-.114.2-.19-.013-.235-.006C69.086,16.8,68.991,17.108,69.175,16.937Z" transform="translate(-60.112 -13.956)" fill="#fff"/>
                  <path id="Path_531" data-name="Path 531" d="M60.71,26.531l.032-.051.2.2Z" transform="translate(-57.102 -17.461)" fill="#fff"/>
                </g>
              </g>
            </g>
          </g>
        </g>
        <g id="Group_731" data-name="Group 731" transform="translate(66.342 2.524)">
          <g id="Group_730" data-name="Group 730">
            <g id="Group_729" data-name="Group 729">
              <g id="Group_728" data-name="Group 728">
                <g id="Group_727" data-name="Group 727">
                  <path id="Path_532" data-name="Path 532" d="M150.99,6.278c.469-.07-.254-.241.3-.114C151.231,6.278,151.142,6.367,150.99,6.278Z" transform="translate(-121.567 -4.762)" fill="#fff"/>
                  <path id="Path_533" data-name="Path 533" d="M135.545,5.743a1.132,1.132,0,0,1,.818.761,3.433,3.433,0,0,1,.089,1.307,8.983,8.983,0,0,0,.127,2.651c.032.2-.4-.051-.3.393.564,1.617.228,4.161-.209,6.127l-.114-.121c-.082.374.292.831.241,1.23-.076.006-.108-.127-.209-.038.222.1.1.717.273.888-.089.159-.266.14-.362.342l.254.228c.609.634-.044,1.535.273,2.4-.057-.044-.108-.127-.165-.057a30.13,30.13,0,0,1,.438,4.662c-.089-.063-.254-.121-.355-.025.266.076.336.552.393.97-.279.184.254.71.1,1.2l-.063-.044c.292.362-.165.533.178.825l-.216.228c.393.159-.2.52-.006.818l.082-.013c.1.279-.1.425-.038.685l-.044.025c.1.609-.114.964.19.945-.241.216-.108-.59-.463-.254a40.611,40.611,0,0,1,.26,6.082c-.121.228-.159.374-.273.425.063.2.057.761.209.939-.006-.07-.159.133-.171.235-.114.368.336.4.2.805-.082-.159-.178-.216-.292-.159a3.084,3.084,0,0,1,.279,1.211c-.051-.063-.082-.159-.178-.146.266.444-.057.812.114,1.2l-.178-.146c-.216.628.368.184.241.729-.057-.133-.127-.082-.2-.108a5.6,5.6,0,0,1,.323,1.827.081.081,0,0,0-.07-.025c.019.273.006.558,0,.844s.019.59.019.945c-.146.216-.368-.152-.507.4.165.063.1.323-.019.526s-.222.374.07.368a2.7,2.7,0,0,1-.926.5c-.342.108-.666.14-.85.209.228-.146-.273-.412.14-.476a2.067,2.067,0,0,1-.3-.19c.038-.146.292.032.19-.14a3.685,3.685,0,0,1-.964.108,2.966,2.966,0,0,1-1.357.666c.292-.14-.165-.387.032-.45l-.863.679c-.209.019-.044-.279-.342-.184.013.1-.114.152-.2.228-.076-.038-.856.089-.945-.26-.089-.14.336-.076.108-.2-.381.006-.4.121-.78.127l-.006-.044c-.254-.051-.742.146-.469.342.178.013-.063-.209.19-.108a1.475,1.475,0,0,1-1,.26c.127-.057.114-.146.165-.247a5.686,5.686,0,0,1-1.63.476c-.006.165.216-.3.3-.216-.736-.228-1.516.323-2.125-.013.1-.032.057.235.044.19-.355-.019-.336-.26-.564-.171-.025-.14-.292.044-.526.089-.12.1-.063-.07.146-.082a5.4,5.4,0,0,1-1.047.19,6.767,6.767,0,0,1-.717.025,3.544,3.544,0,0,1-.748-.1c.006.044-.171.127-.406.152a1.3,1.3,0,0,1-.622-.082c.063-.051.121-.1.184-.159-.171-.19-.78-.425-.672-.6-.133-.025-.108.025.013.108a2.435,2.435,0,0,0,.59.285c.469.165.932.121.564.171-.07-.108-.317-.089-.539-.121s-.4-.07-.254-.152c-.228-.127-.45-.222-.641-.342a.87.87,0,0,1-.412-.5c.057.121.45.057.222-.184-.393-.438-.19-.057-.526-.419-.082-.082-.178-.171-.26-.266-.089.032-.2-.108-.209-.241s-.051-.216-.127-.044c.038-.038.032-.121.006-.241-.019-.1-.044-.159-.063-.241-.044-.159-.063-.3.114-.323h.285c-.07-.2-.368-.266-.52-.393.019-.032.057-.1.108-.1-.412.076-.1-.5-.488-.653.019-.469-.292-1.091-.108-1.37a1.74,1.74,0,0,1-.488-.958c.063.063.1.165.2.159.044-.273-.076-.3-.209-.495.076.032.089-.545.146-.856-.228-.292-.406-.108-.552-.1.3-.425-.552-.844-.317-1.338.089.1.349.419.362.108.3-.431-.488-.507-.463-1.053l-.292.228c.133-.285-.425-.647-.076-.71-.171-.12-.082-.609-.387-.444.013-.888-.818-1.871-.412-2.55-.1-.1-.133-.4-.279-.279-.114.247.216.222.121.33a.18.18,0,0,0-.19-.089c-.013-.273-.057-.476.292-.33.006-.615-.736-.374-.856-1.116.146-.013.178-.082.082-.279l-.361-.3c-.108-.469.209-.362.431-.45-.121-.228-.216-.526-.419-.577l.178-.393c-.127.285-.2-.152-.3-.241l.1.1c.076-.076-.082-.336-.159-.463-.127.082-.082.387-.063.552-.14-.089-.19-.285-.362-.406.241-.025.013-.444-.032-.647-.032-.235-.285-.178-.3-.241.114-.044-.108-.362.108-.247.063.063-.051.209.1.3.032-.178.235-.228-.019-.476-.19-.184-.412.216-.425-.26.1.1.19.082.3.14l-.032-.444-.2.057c.032-.07.063-.044.076-.076-.254-.044-.285-.59-.558-.59-.1-.2-.019-.476-.07-.672l.032.032a.842.842,0,0,0-.368-.71l.044-.006a1.1,1.1,0,0,0-.349-.539c.032-.381.71-.387.33-.653-.133-.323-.558-.381-.634-.2-.089-.641-.666-1.186-.564-1.846-.114-.057-.14.019-.254-.14-.254-.894-.939-1.725-.818-2.562.178.216.2-.063.317-.108-.254-.14.089-.317-.247-.273-.171.089-.266.1-.241.374a3.342,3.342,0,0,1-.558-1.6c-.025.178-.127.089-.222,0,.3-.076.19-.469-.025-.717l-.19.032.1-.26c-.1-.089-.412.025-.362-.317a.351.351,0,0,0,.146-.159c-.26-.235-.672-.545-.66-.926l.14-.368c-.082-.127-.33-.285-.3-.019-.082-.6-.216-.951-.07-1.218a5.176,5.176,0,0,1-1.18-1.37c-.165-.26-.3-.558-.463-.8-.146-.273-.292-.533-.431-.786l.159-.019c-.165-.5-.374-.127-.45-.514.184.108.133-.457.431-.14a1.808,1.808,0,0,0-.279-.723,1.571,1.571,0,0,1-.292-.6c-.19-.082.14.393-.1.3-.089-.1.108-1.027-.165-1.224.171-.14.292.051.425.184-.006-.038-.025-.082-.032-.121l.032-.1.07-.2c.323-.14.26.165.247.412.152.33.323.577.52.4l-.025-.159c-.013-.057-.019-.108.019-.146.254-.051.133.1.241.26.063.146.082.209.152-.1.057-.228-.108-.66-.431-.476.412-.584-.292-.66.343-1.275.057,0,.07.019.051.057a.818.818,0,0,1-.127.171c-.133.159-.266.33-.108.33.482-.2.381-.469.7-.786a.548.548,0,0,1,.108-.044.559.559,0,0,1-.127.025c-.133.044-.178-.051-.146-.19a.671.671,0,0,1,.241-.285c.507-.082-.1.279.412.121a.212.212,0,0,0,.076-.032.756.756,0,0,1,.247-.393c.044-.038.076-.057.051-.089s-.108-.057-.273-.019a.325.325,0,0,1,.133-.178.457.457,0,0,1,.228-.006c-.019-.019-.089-.051-.07-.051l.063-.006a.78.78,0,0,0,.127-.013.258.258,0,0,0,.2-.171c.222.19-.247.71.266.666-.159-.209.476-.52.108-.774.209,0,.292.178.2.368.317.051.507-.647.755-.216l.013-.266c.108.051.254.07.431.152.235-.076.666-.564.755-.2.063-.063.615-.209.33-.393-.387-.051-.336.3-.628.019.323.2.482-.184.653-.336l.076.133c.1-.089.381-.146.412-.311-.07.108.006.19.114.2l.063-.247c.45-.241.222.349.666.152l-.3.266c.07-.057.279.1.482-.032.032-.222.133-.5.165-.672.241-.159.178.19.381-.082l-.279.323c-.032.076.317.26.666.171.2-.127.482-.495.1-.514.178-.051.457.013.349.19.381-.171-.108-.2.209-.406.171.1.66.171.97.311l-.285.412.241-.051c-.247.336.2.171.1.488a.87.87,0,0,0,.488-.241c-.577-.342.393-.736.171-1.116.641-.26.622.9,1.173.121-.133-.082.127-.463-.266-.26.419-.038.2-.469.717-.393-.33.241.469.342,0,.691.006-.146-.311-.044-.381.006.2.127.051.419.469.336.247-.089.6-.165.5-.374-.057-.235-.387.1-.266-.171.495-.184.647.159.78-.3a.341.341,0,0,1-.469-.3l.361-.171-.044.171c.628.006.127-.317.723-.374l.33.266c-.1.292-.875.025-.691.444.381-.044.469-.292.85-.235-.076.051-.184.082-.254.133.14-.006.374.545.856.121.26-.178.051-.171.032-.33.6-.159.761-.336,1.154-.419-.038.33.7-.063.311.323a1.241,1.241,0,0,0-1.281.323c.279.342-.488.025-.558.431.488-.076.526.3.641.533.14-.006.254-.133.323-.184.019-.241-.152-.209-.2-.444a2.088,2.088,0,0,0,1.332-.488.2.2,0,0,1-.038.381,7.737,7.737,0,0,1,1.96-.216c-.444-.336.679-.165.374-.45-.342-.051-.66-.285-.495-.476.209,0,.013.165.108.235.241-.235.45.285.672-.07-.584.184-.063.476-.146.78.412-.216.006.209.425.165a5.661,5.661,0,0,1,1.389-.5c.622.235,1.51-.114,2.049-.165.292.127.12.476.425.52.355-.025-.285-.349.247-.222l-.044.07c.152-.089.97.184,1.1-.3l-.146.374c.1.025.184-.057.266-.1.006.121.127.222-.025.3.336.235.679-.07,1.027-.1l-.235-.2c.6-.2,1.008.013,1.592-.076l-.013.209.342-.133c-.082.2.241.33.419.159l-.888.533c-.254-.121.266-.26.108-.463-.14-.178-.679-.114-.755.089.209.019.216-.025.374-.108.076.292-.235.285-.387.482.108-.013.26.076.285-.019a1.347,1.347,0,0,1-.767.19c.235-.127-.133-.178-.051-.266-.019.26-.349.355-.786.3-.323-.285-.806.228-1.313.171a1.665,1.665,0,0,1,.742-.615c-.323-.114-.355.025-.679-.1-.14.2-.235.5-.641.647l-.032-.19c-.368.127-.349.412-.825.393a19.22,19.22,0,0,0-2.271.076l-.044-.19c-.3.45-1.129.273-1.567.507-.812-.1-1.674.412-2.118.133-1.332.323-2.505.666-3.926.882l.184-.323c-.216.254-.2-.127-.438-.038.33.165-.285.355-.425.558a3.318,3.318,0,0,0-1.928.66l-.07-.184c-.469.495-1.211.336-1.909.482a.545.545,0,0,0-.476-.121c-.292.4-.488.438-.977.786a7.111,7.111,0,0,1-1.491.26,6.572,6.572,0,0,1-.7.412l-.368.178-.184.082-.1.038-.044.019-.121.044c-.057.032-.1.051-.159.076-.057.006-.1.057-.133.1l-.266.285-.159.184c-.146.1-.044.3.032.431-.076.019-.152.038-.228.063a2.219,2.219,0,0,0,.228.209c.038.044.063.025.127.1l.19.285a8.169,8.169,0,0,1,.641,1.205,17.632,17.632,0,0,0,1.053,2.182l-.412.051c.063.444.488.863.7.653.057.444.59.92.4,1.3.1.431.374.431.558.748a6.271,6.271,0,0,0,.723,1.909l-.051-.2c-.114-.051-.266,0-.216.2.216.247.317,1.1.641.641.07.92.958,1.846.92,2.778.1-.114.19.082.3.133a7.908,7.908,0,0,0,.748,2.08c-.019.14-.266-.108-.171.19.108.159.159-.051.3.14.66,1.1.653,2.474,1.1,3.526a52.387,52.387,0,0,1,2.182,5.7l-.1.006c.552.5.152,1.567.818,1.89-.038.178.146.571-.057.52.406.412.235,1.452.767,2.074a.288.288,0,0,0-.108-.165c.038.786.514,1.338.571,2.169-.063-.063-.133-.2-.228-.2-.082.349.59.59.209.882a.107.107,0,1,0,.209-.044,21.85,21.85,0,0,0,.755,2.638l.222.685c.051.165.044.114.07.159a.4.4,0,0,0,.07.076c.013.006.07.076.12.127s.1.1.152.146a1.447,1.447,0,0,0,.3.222.67.67,0,0,1-.013.495c-.051.1-.07.152.19.032.025.089.044-.171.038-.076.057-.025.044-.013.133.025a1.061,1.061,0,0,1,.222.152c.14.114.266.209.4.089-.114-.273.184-.152.19-.323.793.178.958.425,1.586.216l-.044.146c.736-.406,1.586-.19,2.207-.66,2.03-.044,4.015-.127,5.987-.216l1.478-.063.717-.032c.1-.006.1-.032.114-.038a.11.11,0,0,0,.032-.076c0-.013-.006-.019-.006-.032l-.006-.393c.089-3.913-.121-7.738.127-11.708a2.66,2.66,0,0,0,.216-2.023c.063.038.076.108.133.038-.311-.051-.032-.717-.33-.818.057-1.471-.025-2.822-.032-4.332.032.241.285.362.266.076l-.2-.279.089-.051c-.044-.2-.2-.406-.3-.2-.273-3.793.355-7.529.279-11.245a16.381,16.381,0,0,0-.051-3.1c.209-1.421.393-2.772.495-4.129l.032-.507.013-.241a.938.938,0,0,0,0-.133.757.757,0,0,0-.114-.4.657.657,0,0,0-.324-.247.883.883,0,0,0-.45-.006,1.093,1.093,0,0,1,.216-.412A.766.766,0,0,1,135.545,5.743Z" transform="translate(-104.6 -3.98)" fill="#fff"/>
                  <path id="Path_534" data-name="Path 534" d="M149.945,6.17c-.1-.152-.431-.235-.171-.45C149.805,5.872,149.977,6.031,149.945,6.17Z" transform="translate(-121.087 -4.616)" fill="#fff"/>
                  <path id="Path_535" data-name="Path 535" d="M135.935,4.584c-.006.044-.133-.051-.165-.07.108-.025.2-.165.292-.1C135.954,4.444,135.979,4.514,135.935,4.584Z" transform="translate(-116 -4.133)" fill="#fff"/>
                  <path id="Path_536" data-name="Path 536" d="M132.43,4.754c.013-.14.488-.323.774-.374Z" transform="translate(-114.779 -4.126)" fill="#fff"/>
                  <path id="Path_537" data-name="Path 537" d="M128.886,4.447c-.2-.082-.159-.159.089-.2C129,4.32,128.931,4.371,128.886,4.447Z" transform="translate(-113.436 -4.079)" fill="#fff"/>
                  <path id="Path_538" data-name="Path 538" d="M128.584,5.029a.465.465,0,0,1-.374-.1C128.242,5.048,128.61,4.788,128.584,5.029Z" transform="translate(-113.235 -4.325)" fill="#fff"/>
                  <path id="Path_539" data-name="Path 539" d="M121.207,5.81c-.108.038-.317.2-.457.076C120.883,5.963,121.245,5.595,121.207,5.81Z" transform="translate(-110.507 -4.624)" fill="#fff"/>
                  <path id="Path_540" data-name="Path 540" d="M118.072,6.882c-.07.006-.108-.013-.171.051-.14-.032-.038-.159.07-.2Z" transform="translate(-109.44 -4.986)" fill="#fff"/>
                  <path id="Path_541" data-name="Path 541" d="M122.59,59.583l-.14-.2.146-.006Z" transform="translate(-111.129 -24.243)" fill="#fff"/>
                  <path id="Path_542" data-name="Path 542" d="M141.04,75.188c.228-.089.159.133.2.152C141.034,75.353,141.313,75.163,141.04,75.188Z" transform="translate(-117.928 -30.017)" fill="#fff"/>
                  <path id="Path_543" data-name="Path 543" d="M154.953,71.76l-.025.076-.247-.146Z" transform="translate(-122.917 -28.745)" fill="#fff"/>
                </g>
              </g>
            </g>
          </g>
        </g>
        <g id="Group_736" data-name="Group 736" transform="translate(16.636 11.721)">
          <g id="Group_735" data-name="Group 735">
            <g id="Group_734" data-name="Group 734">
              <g id="Group_733" data-name="Group 733">
                <g id="Group_732" data-name="Group 732">
                  <path id="Path_544" data-name="Path 544" d="M75.1,35.948c-.742-.507.228.495-.526-.279A.541.541,0,0,1,75.1,35.948Z" transform="translate(-43.91 -24.766)" fill="#fff"/>
                  <path id="Path_545" data-name="Path 545" d="M45.993,20.339a18.8,18.8,0,0,1-4.839.089c-.856-.057-1.712-.127-2.562-.165a16.8,16.8,0,0,0-2.423.044c-.165.006-.2-.1-.292-.19a.438.438,0,0,0-.209-.127,1.181,1.181,0,0,0-.19-.032c-.032.006-.1-.019-.114.013-.006.051-.013.1-.019.165a23.017,23.017,0,0,1-.3,2.746c-.159.932-.387,1.915-.647,2.911a56.207,56.207,0,0,1-1.909,5.784l-.057-.247c-.254.666-.114,1.6-.362,2.321-.076-.013-.038-.26-.184-.121.171.241-.254,1.345-.178,1.693-.165.266-.323.19-.52.533l.133.482c.266,1.319-.831,2.791-1,4.452-.032-.1-.032-.26-.127-.152a26.767,26.767,0,0,1-.584,2.708c-.247.939-.558,1.915-.825,2.778.374.355.7.679,1.072,1.059s.736.742,1.091,1.1c-.146-.025-.342.006-.3.2.3-.076.964.545,1.548,1.059.025.222.311.412.666.622.171.1.362.2.558.311a1.67,1.67,0,0,1,.311.209,2.277,2.277,0,0,1,.247.247h-.1c.71.216.672.78,1.319.863l.2.444c.482-.114.634.78,1.2.989l.032-.07c.476.26.564.59.989.844l.006.063c.964.647,1.357,1.23,1.522.977.165.444-.945-.609-.666.063,3.171,2.131,6.235,4.573,9.3,6.869.273.362.476.558.482.7a11.03,11.03,0,0,0,1.56.9c-.108-.07.108.273.26.406.488.507.812.184,1.345.748-.292-.114-.431-.1-.419.051a10.444,10.444,0,0,1,2.011,1.142c-.133-.032-.3-.114-.33-.019.856.273,1.167,1.008,1.833,1.364l-.323-.051c.748.951.507-.038,1.2.729-.222-.121-.2-.013-.285.013a10.206,10.206,0,0,1,1.5.894,2.347,2.347,0,0,0,1.44.545.07.07,0,0,0-.038.076c.419-.07,1.015-.2,1.452-.323a4.673,4.673,0,0,0,1.313-.533.972.972,0,0,1,.482.063c.159.025.387.038.767-.349a.151.151,0,0,1-.1-.089c-.019-.044-.019-.114-.044-.2-.032-.19-.279-.3-.431-.412-.317-.26-.558-.425-.641-.228-.1-.121-.222-.266-.343-.412-.209-.254-.431-.514-.691-.786a5.627,5.627,0,0,0-.755-.691c.393.2-.019-.628.558-.1l-.266-.571c.165-.038.4.463.393.2a17.162,17.162,0,0,1-1.408-1.268A8.454,8.454,0,0,1,56,62.338c.488.292.051-.5.362-.273l-1.643-.685c-.285-.254.127-.285-.317-.558-.044.089-.247-.013-.425-.051-.063-.1-1.37-.9-1.288-1.319-.051-.216.558.368.292-.013-.3-.235-.45-.355-.609-.482a2.263,2.263,0,0,1-.247-.247.994.994,0,0,1-.235-.526l.044-.025a.887.887,0,0,1,.171-.571c.121-.178.209-.273.3-.387.165-.209.247-.362-.089-.26-.336.247.235.057-.279.374a1.592,1.592,0,0,1,.729-.742,2.483,2.483,0,0,1,1.446-.266c-.343.025-.3.127-.425.228a2.48,2.48,0,0,1,2.188.564l-.044-.044c.362.247.729.507,1.11.767.12-.114-.5-.038-.564-.209.907,1.085,2.391,1.636,3.051,2.645-.165-.1.076-.247.057-.2.495.457.317.615.7.837-.057.133.444.323.812.59.241.076.044.127-.26-.114a19.8,19.8,0,0,1,3.558,2.9c.038-.082.748.254,1.059.482l.07.063c.019.013.032.019.038.032a1.393,1.393,0,0,1-.165.1l-.057-.051L65.3,64.9c.006.006.006.013.013.019l.057.051a.394.394,0,0,0,.222.228c.082.044.165.063.171.159.114-.063.038-.076-.063-.089a.96.96,0,0,1-.45-.178l-.044-.044c-.482-.336-.882-.615-.482-.4.032.133.266.266.5.381l.044.044c.209.1.349.038.228.165.146.076.273.038.482,0a2.277,2.277,0,0,1,.882-.032c-.19-.019-.533.362.025.285a1.262,1.262,0,0,0,.184-.025c.33-.165.051-.1.412-.362a1.642,1.642,0,0,0,.2-.266c-.114-.159.311-.323.013-.323.089.032.165-.127.222-.266s.127-.266.317-.247a1.958,1.958,0,0,1,.273.089.314.314,0,0,0-.07-.323c-.019-.044-.108-.063-.19-.082a2.147,2.147,0,0,0-.216-.051c.013-.025.025-.089.076-.1-.235.07-.3-.013-.381-.121l-.07-.089-.044-.044-.082-.082a.906.906,0,0,0-.387-.216c-.507-.717-1.541-1.56-1.643-2.036a6.11,6.11,0,0,1-1.567-1.3c.133.076.292.216.387.184-.247-.425-.412-.425-.767-.685a8.782,8.782,0,0,0-.761-1.326c-.558-.374-.558-.057-.7-.006-.133-.723-1.51-1.129-1.77-1.928.2.121.825.533.514.076-.133-.723-1.078-.641-1.624-1.471l-.076.412a1.8,1.8,0,0,0-.6-.634c-.241-.19-.431-.381-.26-.457a1.976,1.976,0,0,1-.564-.7c-.184-.311-.292-.691-.431-.533a2.195,2.195,0,0,1,.216-1.4,2.906,2.906,0,0,1,.7-.856,3.286,3.286,0,0,1,1.865-.831,2.836,2.836,0,0,1,1.827.45,2.317,2.317,0,0,1,.552.526.858.858,0,0,1,.133.241,1.351,1.351,0,0,1,.07.209c.2.121.564.564.6.362-.133-.4-.469-.279-.482-.469a.271.271,0,0,0,.3.089c.3.406.558.7.025.564.634.926,1.211.4,2.112,1.484-.146.051-.108.165.2.444l.723.381c.6.679.14.59-.013.774.374.317.786.742,1.066.774l.209.628c-.152-.457.381.184.584.3l-.2-.121c-.006.133.431.488.653.666.057-.152-.3-.6-.495-.85.247.1.507.393.825.539-.241.089.444.679.7.964.279.349.5.2.584.3-.076.1.495.526.133.4-.133-.082-.159-.33-.412-.431.146.273-.032.393.507.717.406.241.241-.406.748.311-.2-.12-.3-.082-.482-.152l.488.66.171-.127c.038.114-.025.076-.013.133.33.013.926.825,1.23.78a2.783,2.783,0,0,1,.4.495c.063.089.12.178.178.266l.152.209L73.1,61a.352.352,0,0,0,.285.273.6.6,0,0,0,.393-.089l-.019.044a1.729,1.729,0,0,0,.964-.178.471.471,0,0,1,.292.146c.044.07.076.152.114.222.063.133.165.216.342.032a.406.406,0,0,0,.14-.063.435.435,0,0,0,.044-.425.259.259,0,0,0-.2-.178.637.637,0,0,0,.12-.14c.063-.1.14-.241.2-.368a3.011,3.011,0,0,0,.209-.5,1.287,1.287,0,0,1,.07-.165l.038-.082c.019-.025.032-.057.006-.076a.677.677,0,0,1-.121-.323c-.127-.006-.146.051-.273-.013-1.11-1.275-2.746-2.493-3.406-3.78.419.3.178-.121.254-.216-.431-.171-.209-.5-.545-.387-.108.165-.2.2.082.609A12.009,12.009,0,0,1,69.9,52.958c.14.273-.057.152-.26.025.273-.159-.235-.748-.717-1.1l-.19.07-.127-.406c-.2-.121-.45.1-.729-.45a.346.346,0,0,0,.025-.26,4.841,4.841,0,0,1-1.649-1.351l-.178-.577c-.216-.184-.66-.406-.374,0-.082-.114-.159-.216-.228-.317a.861.861,0,0,0-.108-.152,2.81,2.81,0,0,0-.342-.317,3.03,3.03,0,0,1-.767-.805l-.12-.089c-.038-.038-.082-.089-.127-.14s-.076-.1-.114-.159a1.47,1.47,0,0,1-.1-.228,1.5,1.5,0,0,1-.013-.958,2.737,2.737,0,0,1,.52-.894,3.516,3.516,0,0,1,1.281-.977,3.468,3.468,0,0,1,1.884-.285,3.273,3.273,0,0,1,1.827.863c.691.615,1.319,1.211,1.915,1.789l-.146.057c.349.507.393.038.634.393-.235-.038.14.526-.317.317.533.7.977.584,1.433.926.19-.076-.412-.222-.171-.317.114.019.774.92,1.066.812.082.228-.178.26-.342.26l.476.266c.247.679-1.471-.584-1.249.165l.387.3c.14.526-1.167-.641-.343.266.482.266,1.085.279.825-.133.856.7.825-.133,1.674.7.127.343-.723-.622-.71-.3.254.545.907.679,1.211,1.072-.33-.457.2-.336.495-.133.349.507-.463-.076.14.526.209-.019.869.431.45-.114.476-.051.583.685,1.11.793.032.374-1.047-.171-.444.564.057-.279,1.072.552.964-.057.222.3.114.469-.184.4.279.469,1.237.545,1.034,1.021l.3-.057c.063.171.2.381.3.66.336.323,1.326.774,1.034,1.021.133.076.894.812.78.336-.374-.564-.685-.381-.71-.888.14.526.717.622,1.059.812l-.057.152c.108.025.12.076.2-.063a.357.357,0,0,0-.07.235,1.233,1.233,0,0,0,.1-.228c.076-.127-.013.45.171.311a.69.69,0,0,1-.159.241c.032-.038.171.152.3,0a1.859,1.859,0,0,0-.057-.336,2.221,2.221,0,0,1,.1-.393c.076-.057.051-.044.057-.051a.02.02,0,0,1,.013.006l.044.044c.032.032.063.038,0-.051a.476.476,0,0,1,.063.127.359.359,0,0,1,.019.114.246.246,0,0,0,.178.133.231.231,0,0,0,.26-.133.485.485,0,0,0-.089-.374.157.157,0,0,0-.266.006c.051-.114.184-.285.317-.152-.038-.336-.209.006-.33-.247a.645.645,0,0,0,.19-.342,2.567,2.567,0,0,0,.038-.634,2.96,2.96,0,0,1,.52.323,3.271,3.271,0,0,0-.133-.33c.45.342.082-.323.463-.178a1.109,1.109,0,0,0-.222-.381,3.8,3.8,0,0,0-.342-.311c.038.469-.222.362-.507.222-.311-.152-.653-.342-.742-.12-.831-.78.285-1.237-1.059-1.7.063.222-.577.019.038.482-.495-.571-.647-.07-1.161-.818.6.342-.209-.805.653-.311-.146.051.311.45.438.533-.108-.336.355-.254-.209-.806-.368-.311-.85-.761-.932-.533-.152.19.545.488.159.45-.748-.6-.615-.977-1.2-.932.469.387.4.672.279.786l-.577-.406.209-.025c-.748-.85-.438-.013-1.211-.78l-.165-.577c.374-.025,1.1,1.161,1.249.7-.514-.495-.837-.488-1.262-1.021.14.07.3.2.431.273-.178-.184.025-.793-.97-1.211-.482-.247-.209.025-.33.14-.894-.717-1.268-.818-1.846-1.281.33-.146-.977-.875-.133-.6a4.269,4.269,0,0,0,1.941,1.5c-.063-.564.641.634,1.085.514-.685-.622-.4-.875-.349-1.161a2.133,2.133,0,0,0-.577-.343c-.235.1.019.323-.121.514a6.43,6.43,0,0,0-2.15-1.471c-.19-.311.044-.419.374-.171-.977-.748-1.966-1.617-2.816-2.416.336.774-1.059-.761-.863-.19.425.463.666,1.015.292.926-.285-.266.114-.121.044-.285-.514-.159-.381-.748-.97-.812.939.622.463-.216.812-.317-.729-.387.165-.14-.457-.653a22.5,22.5,0,0,1-2.315-1.433,16.563,16.563,0,0,0-3.006-2.429c-.317-.45.171-.488-.241-.888-.526-.412.165.6-.52-.146l.114.006c-.285-.127-1.281-1.319-1.814-1.123l.469-.1a1.2,1.2,0,0,0-.457-.247c.07-.1-.032-.317.254-.19-.323-.577-1.034-.774-1.56-1.18l.2.438c-1-.577-1.465-1.224-2.378-1.852l.159-.146-.6-.311c.254-.063-.14-.539-.514-.622l1.662.66c.292.393-.564-.12-.463.228a1.889,1.889,0,0,0,1.18.837,1.653,1.653,0,0,0-.622-.368c.082-.311.539.07.894.1-.165-.121-.343-.368-.431-.323a4.462,4.462,0,0,1,1.268.786c-.425-.2.082.3-.108.254.2-.171.755.165,1.357.742.279.6,1.338.825,2.036,1.49a3.8,3.8,0,0,1-1.51-.469c.387.482.533.412.92.894a2.377,2.377,0,0,1,1.389.33l-.089.178c.615.374.8.146,1.471.761,1.154,1.053,2.4,2.068,3.3,2.841l-.089.178c.774.1,1.8,1.288,2.6,1.719,1.047,1.116,2.638,1.985,3.013,2.746a50.015,50.015,0,0,1,5.93,5.118l-.533-.133c.5.209.121.336.488.66-.235-.558.691.279,1.053.431A19.5,19.5,0,0,0,84.5,52.6a7.688,7.688,0,0,1,.691.958,4.6,4.6,0,0,1,.482,1.047l-.184.089a2.5,2.5,0,0,1,.051,1.725,3.405,3.405,0,0,1-.419.869,3.355,3.355,0,0,1-.717.78l-.362.165-.254.121-.311.159c-.114.057-.235.121-.349.171-.235.013-.564.006-1.078.063a1.366,1.366,0,0,1-1.281-.14,6.607,6.607,0,0,1-.634-.457c-.209-.159-.374-.26-.615-.419A23.482,23.482,0,0,1,77.541,55.6c-2.493-1.738-4.541-4.04-7-5.987l-.006-.317a25.811,25.811,0,0,1-3.216-2.689.69.69,0,0,0-.419-.2.775.775,0,0,0-.241.019.905.905,0,0,0-.3.114,1.187,1.187,0,0,0-.266.19.376.376,0,0,0-.051.051c-.006.006,0,.019-.025.013a2.1,2.1,0,0,0-.78-.469c-.108-.038-.14.038.082-.1a2.508,2.508,0,0,0,.342-.33c.038-.044.038-.057.1-.127l.14-.165h.006c.133.063.266.121.387.184-.133.07-.279.14-.4.216.292.235.8.488,1.2.767.051.032.1.063.146.1s.07.038.1.051a.568.568,0,0,0,.165.057c.1.019.165-.006.178-.1.482.672,1.541,1.332,1.674,1.928.526.647.831.609,1.351,1.072a22.818,22.818,0,0,0,2.638,2.8l-.254-.3c-.184-.063-.311.038-.057.336.482.349,1.414,1.624,1.345.882a14.436,14.436,0,0,0,1.9,2.036c.355.336.7.672,1.015,1.015.165.178.292.323.463.539.247.292.476.577.672.844-.044-.235.469.273.78.469l.285.3c.038.051.114.1.121.152l-.1.184-.393.748c-.26.482-.514.958-.774,1.433-.19.317-.381.628-.558.932a7.359,7.359,0,0,1-.875,1.135c-.355.121-.679.254-1.015.362-.412.025.552-.342-.438-.14-.45.127.006.171-.52.317a5.861,5.861,0,0,1-1.123.108c-.1,0-.2-.006-.3-.006s-.26-.025-.393-.038a3.758,3.758,0,0,1-.786-.2,2.6,2.6,0,0,1-.7-.393,3.913,3.913,0,0,1-.292-.273l-.241-.26-.59-.666c-.774-.894-1.516-1.776-2.3-2.524-1.446-1.275-2.86-2.645-4.237-4.015-.685-.691-1.37-1.376-2.042-2.049-.336-.336-.672-.672-1-1.008l-.241-.235c-.032-.025-.057-.051-.082-.07a.487.487,0,0,0-.152-.076l.038-.082c-.2.127-.279.038-.514.114a.683.683,0,0,0-.152.082c-.006.006-.006,0-.006,0-.032-.025-.171-.1-.2-.127a.825.825,0,0,0-.184-.089c-.051-.019-.07-.032-.114-.044-.114-.038-.14,0,.057-.038l.146-.044c.063-.019.089-.038.178-.07.159-.051.336-.184.33-.159-.127.025.419.552.165.533.825.482,1.77,2.106,2.987,2.873a.915.915,0,0,0-.285-.216c.869,1.161,1.966,1.858,2.9,3.057-.14-.082-.355-.26-.45-.222.285.539,1.256.7,1.167,1.249.241.235.33.013.171-.127.469.52.964,1.04,1.471,1.548.254.254.514.507.774.761.349.336.7.679,1.053,1.021.228.209.406.431.609.647l.3.33.038.044-.019.051-.032.108-.07.209a13.6,13.6,0,0,1-.615,1.693,4.406,4.406,0,0,1-1.1,1.471,4.2,4.2,0,0,1-.717.488,7.153,7.153,0,0,1-.875.381,6.515,6.515,0,0,0-.926.1,4.258,4.258,0,0,1-1.205.032,2.849,2.849,0,0,1-1.313-.647,1.643,1.643,0,0,1-.387-.488l.07.07c-.152-.431.615-.025-.622-.767-.063-.171-.2.057-.159-.032-.653-.4-.564-1.148-1.116-1.313-.019.349-.362-.114-.488.006-1.027-1.123-1.1-1.51-2.137-2.131l.165-.051c-1.326-.6-2.41-1.827-3.615-2.245-.5-.419-1-.844-1.484-1.243l-.089-.082a.449.449,0,0,0-.425-.127.572.572,0,0,0-.184.108c-.019.013-.032.038-.051.051l-.006.006-.615-.615v-.006l-.006-.006-.013-.019c-.019-.019-.038-.044-.057-.063a.506.506,0,0,0-.146-.082c.013-.013-.082-.013.057-.013a.185.185,0,0,0,.057-.013l.025-.013.07-.013a.873.873,0,0,0,.254-.1c.051-.038.209-.1.323-.171a1.055,1.055,0,0,0,.178-.114c.057-.038.127-.1.1-.082a.286.286,0,0,1,.044.044,2.914,2.914,0,0,0,.228.2c.2.159.431.336.7.526s.552.387.869.628l.254.2.285.254.368.349q1.465,1.4,2.918,2.791L60.885,64l.362.349.184.178.044.044.082.089.165.171.666.7.33.349c.133.108.336.2.419.323a2.451,2.451,0,0,1,.387.381l.254.393a4.287,4.287,0,0,1,.235.717.815.815,0,0,1,.044.279,1.868,1.868,0,0,1-.019.355,2.2,2.2,0,0,1-.254.761,3,3,0,0,1-1.167,1.154,9.611,9.611,0,0,1-1.915.812l-.66.19-.552.14-.381.082-.514.1a4.019,4.019,0,0,1-.672.063,4.687,4.687,0,0,1-.666-.1,4.019,4.019,0,0,1-.647-.2,5.446,5.446,0,0,1-.577-.285,10.8,10.8,0,0,1-1.4-.977c-.406-.323-.774-.641-1.129-.958a22.637,22.637,0,0,0-1.973-1.643L49.279,65.8c-2.981-2.2-5.943-4.459-8.86-6.888a9.58,9.58,0,0,0-2.9-2.562c.1,0,.2.063.14-.057-.273.184-1.091-.837-1.421-.723-1.085-.894-2.131-1.751-3.178-2.613l-.793-.647a.586.586,0,0,0-.082-.057,3.042,3.042,0,0,1-.273-.2c-.178-.133-.336-.266-.488-.4a21.693,21.693,0,0,1-1.63-1.6c.349.323.691.317.3-.076l-.539-.285v-.127c-.285-.241-.672-.438-.488-.089-.945-.958-1.9-1.915-2.835-2.867.393-1.135.78-2.277,1.167-3.406.241-.729.488-1.452.729-2.182q.714-2.2,1.427-4.383c.926-2.93,1.8-5.867,2.486-8.848a45.072,45.072,0,0,0,1.249-5.708l.146-.482.216-.844c.146-.577.285-1.154.431-1.731l.1-.419.025-.1c-.006-.051.063-.006.1-.019l.228.019.894.076,1.732.152c.679.07,1.357.146,2.03.216l1.928.184c2.569.228,5.156.368,7.909.355C49.019,19.489,48.264,20.262,45.993,20.339Z" transform="translate(-26.23 -18.481)" fill="#fff"/>
                  <path id="Path_546" data-name="Path 546" d="M76.735,37.13c.051.241.495.7-.032.552C76.748,37.53,76.6,37.2,76.735,37.13Z" transform="translate(-44.68 -25.302)" fill="#fff"/>
                  <path id="Path_547" data-name="Path 547" d="M95.621,55.627c.044-.019.146.2.165.254-.165-.12-.4-.146-.476-.311C95.481,55.691,95.507,55.614,95.621,55.627Z" transform="translate(-51.496 -32.046)" fill="#fff"/>
                  <path id="Path_548" data-name="Path 548" d="M100.112,59.644c-.14.063-.907-.444-1.332-.774Z" transform="translate(-52.765 -33.253)" fill="#fff"/>
                  <path id="Path_549" data-name="Path 549" d="M104.859,64.845c.178.311.063.3-.279-.006C104.605,64.756,104.745,64.832,104.859,64.845Z" transform="translate(-54.887 -35.422)" fill="#fff"/>
                  <path id="Path_550" data-name="Path 550" d="M105.66,64.79a1.213,1.213,0,0,1,.381.552C106.111,65.24,105.419,64.892,105.66,64.79Z" transform="translate(-55.263 -35.418)" fill="#fff"/>
                  <path id="Path_551" data-name="Path 551" d="M114.527,74.47c.1.121.406.355.3.507a.177.177,0,0,0-.044-.133,2.092,2.092,0,0,0-.171-.165C114.508,74.571,114.4,74.476,114.527,74.47Z" transform="translate(-58.504 -38.959)" fill="#fff"/>
                  <path id="Path_552" data-name="Path 552" d="M115.465,77.41c-.025.019-.044.019-.038.07-.082,0-.121-.108-.127-.14C115.357,77.365,115.408,77.391,115.465,77.41Z" transform="translate(-58.808 -40.009)" fill="#fff"/>
                  <path id="Path_553" data-name="Path 553" d="M78.8,76.4l-.355-.26.14-.051Z" transform="translate(-45.326 -39.551)" fill="#fff"/>
                  <path id="Path_554" data-name="Path 554" d="M71.036,77.759c-.647-.1-.419-.228-.526-.279C71.113,77.588,70.275,77.581,71.036,77.759Z" transform="translate(-42.426 -40.06)" fill="#fff"/>
                  <path id="Path_555" data-name="Path 555" d="M81.52,96.826a.432.432,0,0,0,.076-.076l.419.159Z" transform="translate(-46.452 -47.108)" fill="#fff"/>
                </g>
              </g>
            </g>
          </g>
        </g>
      </g>
    </g>
  </g>
</svg>
