<svg xmlns="http://www.w3.org/2000/svg" width="626.373" height="613.051" viewBox="0 0 626.373 613.051">
  <path id="watermark17" d="M646.305,576.073a164.06,164.06,0,0,0,52.587-120.366,159.019,159.019,0,0,0-1.4-21.035c65.676,7.011,117.1,62.871,117.1,130.417a130.989,130.989,0,0,1-43.006,96.995,164.426,164.426,0,0,0-125.275-86.01m111.485,162.9c0,72.22-58.9,131.119-131.118,131.119a129.464,129.464,0,0,1-64.741-17.3A164.091,164.091,0,0,0,607.04,739.912,171.42,171.42,0,0,0,604,708.593a163.484,163.484,0,0,0,79.465,20.568,161.114,161.114,0,0,0,71.753-16.594,142.513,142.513,0,0,1,2.571,26.409m-446.174,1.169a128.514,128.514,0,0,1,2.8-27.112,163.639,163.639,0,0,0,150.75-4.207,160.825,160.825,0,0,0-2.8,30.15,163.714,163.714,0,0,0,46.51,114.29,128.985,128.985,0,0,1-65.909,18c-72.687,0-131.351-58.9-131.351-131.117M254.589,565.088c0-67.546,51.419-123.405,117.094-130.417a153.934,153.934,0,0,0-1.4,21.035,163.783,163.783,0,0,0,53.756,121.3,164.836,164.836,0,0,0-125.976,85.307,130.679,130.679,0,0,1-43.472-97.228m280-240.732a131.461,131.461,0,0,1,120.366,79c-53.288,9.349-97.929,44.64-120.366,92.32a164.3,164.3,0,0,0-120.366-92.32,131.463,131.463,0,0,1,120.366-79m31.319,298.462a130.872,130.872,0,0,1,178.329,58.43,130.872,130.872,0,0,1-178.329-58.43m-62.871.935a130.842,130.842,0,0,1-177.4,57.728,130.844,130.844,0,0,1,177.4-57.728m-97.929-188.38c63.1,9.349,111.952,63.806,111.952,129.715a142.718,142.718,0,0,1-1.636,20.1c-63.105-9.348-111.953-63.806-111.953-129.715a142.776,142.776,0,0,1,1.636-20.1M535.287,832.932a130.665,130.665,0,0,1-1.169-186.977,130.664,130.664,0,0,1,1.169,186.977m130.651-377.46c0,65.676-48.614,120.133-111.953,129.715a142.772,142.772,0,0,1-1.636-20.1c0-65.676,48.614-120.133,111.952-129.715a142.712,142.712,0,0,1,1.637,20.1M847.774,565.088c0-88.58-70.35-161.034-158.23-164.072C666.873,337.209,606.1,291.4,534.587,291.4,463.3,291.4,402.3,337.209,379.63,401.016,291.75,404.288,221.4,476.508,221.4,565.088a163.94,163.94,0,0,0,63.338,129.481,162.749,162.749,0,0,0-6.544,45.576c0,90.684,73.622,164.306,164.307,164.306A164.549,164.549,0,0,0,535.287,875.7a163.088,163.088,0,0,0,91.152,27.58c90.683,0,164.306-73.622,164.306-164.307a157.279,157.279,0,0,0-6.311-44.641c38.564-30.15,63.339-76.893,63.339-129.247" transform="translate(-221.4 -291.401)" fill="#fff" opacity="0.25"/>
</svg>
