<svg xmlns="http://www.w3.org/2000/svg" width="385" height="377" viewBox="0 0 385 377">
  <g id="icon-17" transform="translate(0)">
    <path id="Path_2353" data-name="Path 2353" d="M482.568,466.462a100.913,100.913,0,0,0,32.323-74.02,97.836,97.836,0,0,0-.862-12.936,80.619,80.619,0,0,1,45.539,139.848,101.064,101.064,0,0,0-77-52.892M551.092,566.64A80.766,80.766,0,0,1,470.5,647.272a79.544,79.544,0,0,1-39.793-10.636,100.936,100.936,0,0,0,27.726-69.42,105.466,105.466,0,0,0-1.868-19.26A100.446,100.446,0,0,0,505.409,560.6a98.988,98.988,0,0,0,44.1-10.2,87.682,87.682,0,0,1,1.58,16.241m-274.24.719a79.067,79.067,0,0,1,1.724-16.673,100.536,100.536,0,0,0,92.658-2.587,98.948,98.948,0,0,0-1.724,18.541A100.7,100.7,0,0,0,398.1,636.924a79.25,79.25,0,0,1-40.511,11.067,80.7,80.7,0,0,1-80.735-80.631M241.8,459.706a80.789,80.789,0,0,1,71.972-80.2,94.71,94.71,0,0,0-.862,12.936,100.742,100.742,0,0,0,33.041,74.6,101.315,101.315,0,0,0-77.431,52.46,80.379,80.379,0,0,1-26.72-59.791m172.1-148.04a80.8,80.8,0,0,1,73.983,48.58A101.516,101.516,0,0,0,413.9,417.019a101,101,0,0,0-73.983-56.773,80.8,80.8,0,0,1,73.983-48.58m19.25,183.541a80.417,80.417,0,0,1,109.61,35.932,80.417,80.417,0,0,1-109.61-35.932m-38.643.575a80.4,80.4,0,0,1-109.036,35.5,80.4,80.4,0,0,1,109.036-35.5M334.314,379.937a80.784,80.784,0,0,1,68.811,79.769,87.807,87.807,0,0,1-1.006,12.361A80.784,80.784,0,0,1,333.308,392.3a87.841,87.841,0,0,1,1.006-12.36m80.016,244.482a80.381,80.381,0,0,1-.718-114.983,80.381,80.381,0,0,1,.718,114.983m80.3-232.122c0,40.388-29.881,73.877-68.812,79.769a87.839,87.839,0,0,1-1.006-12.361c0-40.388,29.88-73.876,68.811-79.769a87.8,87.8,0,0,1,1.006,12.36M606.4,459.706a100.961,100.961,0,0,0-97.256-100.9,100.991,100.991,0,0,0-190.488,0,100.942,100.942,0,0,0-58.325,180.523,100.935,100.935,0,0,0,154,111.389A101,101,0,0,0,571.348,566.64a96.765,96.765,0,0,0-3.879-27.453A100.759,100.759,0,0,0,606.4,459.706" transform="translate(-221.4 -291.4)" fill="#fff"/>
  </g>
</svg>
