<?xml version="1.0" encoding="UTF-8"?>
<svg width="387px" height="409px" viewBox="0 0 387 409" version="1.1" xmlns="http://www.w3.org/2000/svg" xmlns:xlink="http://www.w3.org/1999/xlink">
    <!-- Generator: Sketch 54.1 (76490) - https://sketchapp.com -->
    <title>sdg3-target4-watermark</title>
    <desc>Created with Sketch.</desc>
    <g id="Page-1" stroke="none" stroke-width="1" fill="none" fill-rule="evenodd" opacity="0.102515811">
        <g id="sdg3-target4-watermark" fill="#4C9F38" fill-rule="nonzero">
            <path d="M328.977,224.819 C328.982528,234.181158 336.573512,241.767807 345.935671,241.767987 C355.297831,241.768167 362.889106,234.181809 362.894994,224.819651 C362.900881,215.457493 355.319153,207.861595 345.957,207.85 C341.45488,207.847878 337.136384,209.634645 333.951873,212.817094 C330.767361,215.999543 328.977795,220.316879 328.977,224.819 L328.977,224.819 Z" id="Path_13796"></path>
            <path d="M180.986,233.727 C180.994834,242.595027 188.189293,249.777701 197.057323,249.771997 C205.925352,249.766293 213.110565,242.57437 213.107991,233.706339 C213.105418,224.838308 205.916031,217.650557 197.048,217.65 C192.784514,217.646806 188.694951,219.340082 185.681618,222.35623 C182.668285,225.372377 180.978827,229.463519 180.986,233.727 L180.986,233.727 Z" id="Path_13797"></path>
            <path d="M35.71,224.819 C35.712836,231.680579 39.8493481,237.864589 46.1901691,240.486661 C52.5309902,243.108733 59.8269878,241.652323 64.6751359,236.796735 C69.523284,231.941148 70.9685046,224.642925 68.3367127,218.306132 C65.7049207,211.969339 59.5145752,207.842315 52.653,207.85 C48.1553365,207.851323 43.842646,209.640379 40.6647567,212.823145 C37.4868675,216.005911 35.7044268,220.32134 35.71,224.819 Z" id="Path_13798"></path>
            <path d="M133.548,123.161 L136.01,123.161 C139.194497,123.16023 142.004169,121.077638 142.931,118.031 L155.642,75.301 L180.436,174.508 C180.991245,177.646347 183.537014,180.050323 186.702,180.425 C186.989485,180.458433 187.278583,180.476126 187.568,180.478 C190.437873,180.477368 193.035685,178.779372 194.188,176.151 L229.998,105.246 L243.169,141.108 C244.2114,143.94388 246.904656,145.834779 249.926,145.852 L249.963,145.852 C252.974033,145.850699 255.670398,143.98717 256.736,141.171 L301.96,26.807 L314.307,56.307 C315.850636,59.9951576 320.091842,61.7336359 323.78,60.19 C327.468158,58.6463641 329.206636,54.4051576 327.663,50.717 L308.29,4.447 C307.164937,1.75602571 304.533695,0.00409849952 301.617,0.004 L301.49,0.009 C298.525802,0.0585963241 295.891896,1.91176267 294.844,4.685 L250.059,117.885 L237.394,83.386 C236.376918,80.6144325 233.777865,78.7388555 230.827,78.647 C227.883747,78.58612 225.187876,80.2865799 223.975,82.969 L190.512,148.528 L164.112,45.786 C163.527058,42.4919888 160.760511,40.028264 157.421002,39.8273896 C154.081494,39.6265151 151.039572,41.7408551 150.064,44.941 L130.707,108.476 L10.52,108.476 L10.52,123.186 L133.548,123.186 L133.548,123.161 Z" id="Path_13799"></path>
            <path d="M302.244,96.296 C302.222883,102.725017 304.711813,108.908413 309.181,113.53 L342.754,147.151 L376.261,113.558 L376.235,113.558 C380.706661,108.924683 383.198365,102.732186 383.182,96.293 C383.182,82.805 374.533,71.885 361.458,71.885 C354.896,71.885 347.003,79.07 342.719,83.466 C338.429,79.049 331.064,71.875 324.519,71.875 C311.41,71.877 302.244,82.797 302.244,96.296 Z" id="Path_13800"></path>
            <path d="M365.759,248.324 C365.331588,248.267566 364.901107,248.237509 364.47,248.234 L327.398,248.234 C326.979181,248.237443 326.561005,248.267504 326.146,248.324 C314.494687,249.386803 305.5784,259.162319 305.589,270.862 L305.589,317.887 C305.589,321.518272 308.532728,324.462 312.164,324.462 C315.795272,324.462 318.739,321.518272 318.739,317.887 L318.739,277.497 C318.739,275.981 319.156,273.926 321.939,273.926 C323.839,273.926 324.253,275.949 324.316,277.254 L324.316,398.312 C324.316,403.531091 328.546909,407.762 333.766,407.762 C338.985091,407.762 343.216,403.531091 343.216,398.312 L343.216,328.543 C343.168579,327.803205 343.439204,327.078347 343.959847,326.550638 C344.480489,326.022929 345.201633,325.742557 345.942,325.78 L345.958,325.78 C346.693242,325.747791 347.407199,326.031351 347.919991,326.559236 C348.432783,327.087122 348.695518,327.809001 348.642,328.543 L348.642,398.312 C348.747823,403.455332 352.94758,407.569567 358.092,407.569567 C363.23642,407.569567 367.436177,403.455332 367.542,398.312 L367.542,277.254 C367.611,275.954 368.012,273.926 369.925,273.926 C372.699,273.926 373.132,275.981 373.132,277.497 L373.132,317.887 C373.132,321.521034 376.077966,324.467 379.712,324.467 C383.346034,324.467 386.292,321.521034 386.292,317.887 L386.292,270.862 C386.304676,259.170352 377.401264,249.397542 365.759,248.324 Z" id="Path_13801"></path>
            <path d="M242.767,313.592 L229.401,270.112 C229.401,270.112 224.641,257.554 214.075,257.554 L180.025,257.554 C169.464,257.554 164.677,270.112 164.677,270.112 L151.326,313.592 C151.116288,314.399591 150.986992,315.225949 150.94,316.059 C150.520252,315.586235 150.014652,315.197365 149.45,314.913 C145.937,313.127 143.58,315.742 142.725,317.113 C142.725,317.113 136.274,328.054 134.214,330.113 C132.037,332.306 130.088,332.063 130.088,332.063 L113.888,332.063 C113.888,332.063 111.923,332.306 109.757,330.113 C107.67,328.053 101.457,316.942 101.057,316.604 C100.173694,315.154954 98.5791583,314.293125 96.883,314.348 C95.3384812,314.375758 93.9007173,315.141673 93.016,316.408 L93.016,270.862 C93.024474,259.1613 84.1063901,249.386192 72.454,248.324 C72.0423729,248.267258 71.6275072,248.237196 71.212,248.234 L34.141,248.234 C33.7098787,248.237137 33.2793741,248.267195 32.852,248.324 C21.2057681,249.395158 12.2957864,259.166613 12.301,270.862 L12.301,317.887 C12.3356197,320.058591 13.4589843,322.067498 15.291,323.234 L0.054,404.018 C-0.0947426497,404.796671 0.0731224619,405.602511 0.520412233,406.257022 C0.967702004,406.911533 1.6574957,407.360689 2.437,407.505 C2.62127985,407.542866 2.80887128,407.562295 2.997,407.563 C4.43318075,407.560344 5.66344742,406.534351 5.924,405.122 L21.229,323.978 C23.766186,323.0207 25.4509448,320.598735 25.466,317.887 L25.466,277.497 C25.466,275.981 25.91,273.926 28.666,273.926 C30.584,273.926 30.98,275.949 31.066,277.254 L31.066,398.312 C31.066,403.529158 35.2953421,407.7585 40.5125,407.7585 C45.7296579,407.7585 49.959,403.529158 49.959,398.312 L49.959,328.543 C49.9401606,327.562222 50.4526191,326.647775 51.2989971,326.151866 C52.1453752,325.655958 53.1936248,325.655958 54.0400029,326.151866 C54.8863809,326.647775 55.3988394,327.562222 55.38,328.543 L55.38,398.312 C55.4858234,403.455332 59.6855798,407.569567 64.83,407.569567 C69.9744202,407.569567 74.1741766,403.455332 74.28,398.312 L74.28,277.254 C74.333,275.954 74.761,273.926 76.663,273.926 C79.442,273.926 79.863,275.981 79.863,277.497 L79.863,317.887 C79.8480545,320.94768 81.9590971,323.608839 84.9429009,324.290673 C87.9267046,324.972507 90.9840773,323.492391 92.3,320.729 C92.4,321.072 92.485,321.342 92.485,321.342 L105.968,345.742 C106.448149,346.750946 106.727986,347.843465 106.792,348.959 L106.792,352.599 L106.792,352.599 C106.764399,353.989769 106.542243,355.369827 106.132,356.699 L99.681,382.317 L106.792,382.317 L106.792,401.342 L106.819,401.342 C106.819,404.977691 109.766309,407.925 113.402,407.925 C117.037691,407.925 119.985,404.977691 119.985,401.342 L119.985,383.113 C119.962384,382.846813 119.962384,382.579187 119.985,382.313 L123.963,382.313 C123.982534,382.579378 123.980862,382.846887 123.958,383.113 L123.958,401.34 C123.958,404.985079 126.912921,407.94 130.558,407.94 C134.203079,407.94 137.158,404.985079 137.158,401.34 L137.158,382.315 L144.285,382.315 L137.713,356.745 C137.398747,355.646468 137.212512,354.515296 137.158,353.374 L137.158,352.518 L137.163,352.412 L137.158,352.407 L137.158,348.957 C137.221012,347.842464 137.497343,346.750378 137.972,345.74 L150.43,323.218 C150.43,323.218 151.249,321.559 151.587,320.862 C151.651524,320.684745 151.702667,320.502902 151.74,320.318 C152.51917,321.930883 153.971755,323.1166 155.708,323.557 C162.418,325.549 164.467,317.757 164.467,317.757 L175.234,281.472 C175.234,281.472 175.834,278.677 177.913,279.295 C180.021,279.895 179.234,282.877 179.234,282.877 L160.489,350.871 L177.919,350.871 L177.919,399.571 C177.919,404.197213 181.669287,407.9475 186.2955,407.9475 C190.921713,407.9475 194.672,404.197213 194.672,399.571 L194.672,350.871 L199.419,350.871 L199.419,399.571 C199.419,404.191414 203.164586,407.937 207.785,407.937 C212.405414,407.937 216.151,404.191414 216.151,399.571 L216.151,350.871 L233.585,350.871 L214.867,282.877 C214.867,282.877 214.067,279.892 216.151,279.295 C218.251,278.677 218.845,281.472 218.845,281.472 L229.601,317.757 C229.601,317.757 231.646,325.544 238.376,323.557 C245.149,321.564 242.767,313.592 242.767,313.592 Z" id="Path_13802"></path>
            <path d="M260.217,310.348 C260.212552,315.794981 263.489778,320.708279 268.520469,322.796765 C273.55116,324.885251 279.344574,323.73762 283.199175,319.889025 C287.053776,316.040431 288.21044,310.248814 286.129801,305.214872 C284.049162,300.18093 279.140982,296.896047 273.694,296.892 C266.257684,296.888683 260.22528,302.911687 260.217,310.348 Z" id="Path_13803"></path>
            <path d="M300.802,349.877 C292.682,328.977 291.329,329.125 283.97,328.898 C283.859,328.893 263.529,328.893 263.419,328.898 C256.06,329.125 254.712,328.977 246.592,349.877 C245.43,352.888 240.569,364.506 240.516,365.092 C240.516,365.092 238.482,370 243.025,371.611 C246.966,373.011 248.683,368.211 248.683,368.211 L256.968,347.826 C256.968,347.826 257.174,347.372 257.459,347.393 C257.824,347.419 257.771,347.81 257.792,348.048 L257.792,401.17 L257.829,401.17 C257.753277,403.059658 258.448672,404.898968 259.755616,406.265876 C261.06256,407.632784 262.868847,408.409935 264.76,408.419 C268.77,408.419 271.56,405.186 271.56,401.17 L271.56,379.97 C271.56,379.97 271.317,376.716 273.66,376.77 C275.995,376.717 275.752,379.97 275.752,379.97 L275.752,401.17 C275.68073,403.061187 276.379794,404.900369 277.689249,406.266749 C278.998705,407.633129 280.806493,408.409777 282.699,408.419 C286.719,408.419 289.446,405.186 289.446,401.17 L289.483,401.17 L289.483,347.996 C289.483,347.51 289.626,347.373 289.721,347.341 C290.112,347.22 290.307,347.822 290.307,347.822 L297.772,366.122 C297.772,366.122 299.954,371.004 304.064,369.086 C307.864,367.311 306.008,363.005 306.008,363.005 C305.958,362.419 301.959,352.888 300.802,349.877 Z" id="Path_13804"></path>
            <path d="M121.978,296.892 C116.567531,296.887551 111.687545,300.143903 109.614992,305.141674 C107.54244,310.139445 108.685792,315.893647 112.511573,319.719427 C116.337353,323.545208 122.091555,324.68856 127.089326,322.616008 C132.087097,320.543455 135.343449,315.663469 135.339,310.253 C135.34272,306.708303 133.936242,303.307719 131.429762,300.801238 C128.923281,298.294758 125.522697,296.88828 121.978,296.892 L121.978,296.892 Z" id="Path_13805"></path>
        </g>
    </g>
</svg>