<svg xmlns="http://www.w3.org/2000/svg" width="457" height="320" viewBox="0 0 457 320">
  <g id="icon-sdg3" transform="translate(-673.681 -229.045)">
    <path id="Path_2288" data-name="Path 2288" d="M554.374,437.534c0-19.171-12.257-34.725-30.98-34.725-9.3,0-20.58,10.191-26.7,16.547-6.135-6.241-16.635-16.547-25.939-16.547-18.608,0-31.743,15.554-31.743,34.725a34.756,34.756,0,0,0,9.851,24.533l47.729,47.87,47.729-47.87h0a34.1,34.1,0,0,0,10.055-24.533" transform="translate(576.307 -39.218)" fill="#fff"/>
    <path id="Path_2289" data-name="Path 2289" d="M424.227,617.186h-.433a7.811,7.811,0,0,1-7.229-6.458L392.255,469.3l-36.783,68.251a8.025,8.025,0,0,1-8.324,4.051,7.67,7.67,0,0,1-6.351-6.573L325.142,425.808l-28.574,64.2a7.769,7.769,0,0,1-7.115,4.6H178.468a7.885,7.885,0,0,1,0-15.77H284.312l37.547-84.466a7.935,7.935,0,0,1,8.209-4.6,7.678,7.678,0,0,1,6.682,6.688l16.2,112.5,36.236-67.257a7.844,7.844,0,0,1,14.662,2.407L426.29,575.137,508.166,302.8a7.836,7.836,0,0,1,14.56-1.21l43.122,89.4a7.862,7.862,0,1,1-14.128,6.9L517.356,326.68,431.775,611.607a8.083,8.083,0,0,1-7.547,5.579" transform="translate(503.091 -68.14)" fill="#fff"/>
  </g>
</svg>
