<svg xmlns="http://www.w3.org/2000/svg" width="386.294" height="408.414" viewBox="0 0 386.294 408.414">
  <g id="sdg3-4-icon" transform="translate(-14.181 -32.814)">
    <path id="Path_13796" data-name="Path 13796" d="M76.45,89.125A16.959,16.959,0,1,0,93.43,72.156,16.972,16.972,0,0,0,76.45,89.125Z" transform="translate(266.708 168.508)" fill="#4c9f38"/>
    <path id="Path_13797" data-name="Path 13797" d="M48.438,90.088A16.061,16.061,0,1,0,64.5,74.011,16.05,16.05,0,0,0,48.438,90.088Z" transform="translate(146.729 176.453)" fill="#4c9f38"/>
    <path id="Path_13798" data-name="Path 13798" d="M20.94,89.125A16.962,16.962,0,1,0,37.883,72.156,16.948,16.948,0,0,0,20.94,89.125Z" transform="translate(28.951 168.508)" fill="#4c9f38"/>
    <path id="Path_13799" data-name="Path 13799" d="M139.2,155.975h2.462a7.236,7.236,0,0,0,6.921-5.13l12.711-42.73,24.794,99.207a7.226,7.226,0,0,0,6.266,5.917,7.942,7.942,0,0,0,.866.053,7.23,7.23,0,0,0,6.62-4.327L235.65,138.06l13.171,35.862a7.243,7.243,0,0,0,6.757,4.744h.037a7.245,7.245,0,0,0,6.773-4.681L307.612,59.621l12.347,29.5a7.239,7.239,0,1,0,13.356-5.59l-19.373-46.27a7.233,7.233,0,0,0-6.673-4.443l-.127.005a7.234,7.234,0,0,0-6.646,4.676l-44.785,113.2L243.046,116.2a7.235,7.235,0,0,0-6.567-4.739,7.353,7.353,0,0,0-6.852,4.322l-33.463,65.559L169.764,78.6a7.237,7.237,0,0,0-14.048-.845l-19.357,63.535H16.172V156H139.2Z" transform="translate(8.529 0)" fill="#4c9f38"/>
    <path id="Path_13800" data-name="Path 13800" d="M71.39,70.838a24.675,24.675,0,0,0,6.937,17.234L111.9,121.693,145.407,88.1h-.026a24.771,24.771,0,0,0,6.947-17.265c0-13.488-8.649-24.408-21.724-24.408-6.562,0-14.455,7.185-18.739,11.581-4.29-4.417-11.655-11.591-18.2-11.591C80.556,46.419,71.39,57.339,71.39,70.838Z" transform="translate(245.035 58.272)" fill="#4c9f38"/>
    <path id="Path_13801" data-name="Path 13801" d="M132.193,79.89a10.5,10.5,0,0,0-1.289-.09H93.832a9.884,9.884,0,0,0-1.252.09,22.611,22.611,0,0,0-20.557,22.538v47.025a6.575,6.575,0,0,0,13.15,0v-40.39c0-1.516.417-3.571,3.2-3.571,1.9,0,2.314,2.023,2.377,3.328V229.878a9.449,9.449,0,0,0,18.9,0V160.109a2.6,2.6,0,0,1,2.726-2.763h.016a2.578,2.578,0,0,1,2.684,2.763v69.769a9.452,9.452,0,0,0,18.9,0V108.82c.069-1.3.47-3.328,2.383-3.328,2.774,0,3.207,2.055,3.207,3.571v40.39a6.58,6.58,0,0,0,13.16,0V102.428A22.609,22.609,0,0,0,132.193,79.89Z" transform="translate(247.747 201.248)" fill="#4c9f38"/>
    <path id="Path_13802" data-name="Path 13802" d="M256.948,145.158l-13.366-43.48s-4.76-12.558-15.326-12.558h-34.05c-10.561,0-15.348,12.558-15.348,12.558l-13.351,43.48a12.65,12.65,0,0,0-.386,2.467,5,5,0,0,0-1.49-1.146c-3.513-1.786-5.87.829-6.725,2.2,0,0-6.451,10.941-8.511,13-2.177,2.193-4.126,1.95-4.126,1.95h-16.2s-1.965.243-4.131-1.95c-2.087-2.06-8.3-13.171-8.7-13.509a4.71,4.71,0,0,0-4.174-2.256,4.823,4.823,0,0,0-3.867,2.06V102.428A22.615,22.615,0,0,0,86.635,79.89a9.638,9.638,0,0,0-1.242-.09H48.322a10.355,10.355,0,0,0-1.289.09,22.623,22.623,0,0,0-20.551,22.538v47.025a6.461,6.461,0,0,0,2.99,5.347L14.235,235.584a2.978,2.978,0,0,0,2.383,3.487,2.835,2.835,0,0,0,.56.058,2.982,2.982,0,0,0,2.927-2.441L35.41,155.544a6.549,6.549,0,0,0,4.237-6.091v-40.39c0-1.516.444-3.571,3.2-3.571,1.918,0,2.314,2.023,2.4,3.328V229.878a9.446,9.446,0,1,0,18.893,0V160.109a2.711,2.711,0,1,1,5.421,0v69.769a9.452,9.452,0,0,0,18.9,0V108.82c.053-1.3.481-3.328,2.383-3.328,2.779,0,3.2,2.055,3.2,3.571v40.39a6.536,6.536,0,0,0,12.437,2.842c.1.343.185.613.185.613l13.483,24.4a8.638,8.638,0,0,1,.824,3.217v3.64h0a14.905,14.905,0,0,1-.66,4.1l-6.451,25.618h7.111v19.025H121a6.583,6.583,0,1,0,13.166,0V214.679a4.725,4.725,0,0,1,0-.8h3.978a5.04,5.04,0,0,1-.005.8v18.227a6.6,6.6,0,0,0,13.2,0V213.881h7.127l-6.572-25.57a14.829,14.829,0,0,1-.555-3.371v-.856l.005-.106-.005-.005v-3.45a8.724,8.724,0,0,1,.814-3.217l12.458-22.522s.819-1.659,1.157-2.356a3.774,3.774,0,0,0,.153-.544,6.062,6.062,0,0,0,3.968,3.239c6.71,1.992,8.759-5.8,8.759-5.8l10.767-36.285s.6-2.795,2.679-2.177c2.108.6,1.321,3.582,1.321,3.582l-18.745,67.994H192.1v48.7a8.376,8.376,0,0,0,16.753,0v-48.7H213.6v48.7a8.366,8.366,0,0,0,16.732,0v-48.7h17.434l-18.718-67.994s-.8-2.985,1.284-3.582c2.1-.618,2.694,2.177,2.694,2.177l10.756,36.285s2.045,7.787,8.775,5.8C259.33,153.13,256.948,145.158,256.948,145.158Z" transform="translate(0 201.248)" fill="#4c9f38"/>
    <path id="Path_13803" data-name="Path 13803" d="M63.435,102.466A13.467,13.467,0,1,0,76.912,89.01,13.471,13.471,0,0,0,63.435,102.466Z" transform="translate(210.963 240.696)" fill="#4c9f38"/>
    <path id="Path_13804" data-name="Path 13804" d="M120.36,116.051c-8.12-20.9-9.473-20.752-16.832-20.979-.111-.005-20.441-.005-20.551,0-7.359.227-8.707.079-16.827,20.979-1.162,3.011-6.023,14.629-6.076,15.215,0,0-2.034,4.908,2.509,6.519,3.941,1.4,5.658-3.4,5.658-3.4L76.526,114s.206-.454.491-.433c.365.026.312.417.333.655v53.122h.037a6.97,6.97,0,0,0,6.931,7.249c4.01,0,6.8-3.233,6.8-7.249v-21.2s-.243-3.254,2.1-3.2c2.335-.053,2.092,3.2,2.092,3.2v21.2a6.986,6.986,0,0,0,6.947,7.249c4.02,0,6.747-3.233,6.747-7.249h.037V114.17c0-.486.143-.623.238-.655.391-.121.586.481.586.481l7.465,18.3s2.182,4.882,6.292,2.964c3.8-1.775,1.944-6.081,1.944-6.081C125.516,128.593,121.517,119.062,120.36,116.051Z" transform="translate(194.623 266.64)" fill="#4c9f38"/>
    <path id="Path_13805" data-name="Path 13805" d="M48.105,89.01a13.372,13.372,0,1,0,13.361,13.361A13.347,13.347,0,0,0,48.105,89.01Z" transform="translate(88.054 240.696)" fill="#4c9f38"/>
  </g>
</svg>
