<svg xmlns="http://www.w3.org/2000/svg" width="332.965" height="315.82" viewBox="0 0 332.965 315.82">
  <g id="watermark-3-3" transform="translate(-8.938 -31.811)" opacity="0.1">
    <g id="Group_2230" data-name="Group 2230" transform="translate(171.892 31.811)">
      <path id="Path_13729" data-name="Path 13729" d="M56.6,138.456H49.854V119.578H56.6Zm0-35.091H49.854V84.483H56.6Zm0-35.1H49.854V49.384H56.6Z" transform="translate(-49.854 20.603)" fill="#4c9f38"/>
      <path id="Path_13730" data-name="Path 13730" d="M56.6,85.792H49.854V66.91H56.6Zm0-35.1H49.854V31.811H56.6Z" transform="translate(-49.854 -31.811)" fill="#4c9f38"/>
    </g>
    <g id="Group_2231" data-name="Group 2231" transform="translate(183.147 147.79)">
      <path id="Path_13731" data-name="Path 13731" d="M97.615,127.713A33.391,33.391,0,1,0,64.232,94.319,33.37,33.37,0,0,0,97.615,127.713Z" transform="translate(-18.224 -60.932)" fill="#4c9f38"/>
      <path id="Path_13732" data-name="Path 13732" d="M78.543,138.46c0-2.979.82-7.017,6.3-7.017,3.736,0,4.552,3.987,4.684,6.551v63.284h85.03V137.994c.139-2.565.916-6.551,4.688-6.551,5.452,0,6.316,4.038,6.316,7.017v62.818h25.871V125.405a44.486,44.486,0,0,0-40.4-44.331,19.754,19.754,0,0,0-2.533-.2H95.561a18.493,18.493,0,0,0-2.437.2A44.493,44.493,0,0,0,52.68,125.405v75.873H78.543Zm69.179-14.867c2.206,0,4.7,2.421,6.141,3.911,1.45-1.482,4.114-3.907,6.328-3.907,4.413,0,7.332,3.684,7.332,8.236a8.357,8.357,0,0,1-2.346,5.831h.008L153.875,149l-11.331-11.351a8.32,8.32,0,0,1-2.342-5.819C140.2,127.281,143.3,123.593,147.722,123.593Z" transform="translate(-52.68 -1.437)" fill="#4c9f38"/>
    </g>
    <g id="Group_2232" data-name="Group 2232" transform="translate(8.938 145.121)">
      <path id="Path_13733" data-name="Path 13733" d="M21.078,80.352,39.892,61.538A33.436,33.436,0,0,0,21.078,80.352Z" transform="translate(27.271 -56.456)" fill="#4c9f38"/>
      <path id="Path_13734" data-name="Path 13734" d="M29.732,114.944,74.469,70.207a33.531,33.531,0,0,0-3.947-6.165L23.579,110.985A33.36,33.36,0,0,0,29.732,114.944Z" transform="translate(34.731 -48.988)" fill="#4c9f38"/>
      <path id="Path_13735" data-name="Path 13735" d="M34.984,108.808c.319,0,.629-.04.948-.048L68.271,76.421c.008-.339.052-.669.052-1.008a33.286,33.286,0,0,0-1.035-8.121L26.824,107.761A33.394,33.394,0,0,0,34.984,108.808Z" transform="translate(44.41 -39.291)" fill="#4c9f38"/>
      <path id="Path_13736" data-name="Path 13736" d="M50.153,72.54,32.064,90.633A33.46,33.46,0,0,0,50.153,72.54Z" transform="translate(60.039 -23.641)" fill="#4c9f38"/>
      <path id="Path_13737" data-name="Path 13737" d="M62.272,62.057a33.19,33.19,0,0,0-8.4-1.107c-.215,0-.426.028-.641.032L20.522,93.7c0,.215-.032.422-.032.637a33.379,33.379,0,0,0,1.107,8.4Z" transform="translate(25.518 -58.21)" fill="#4c9f38"/>
      <path id="Path_13738" data-name="Path 13738" d="M25.395,112.85,72.382,65.863a33.121,33.121,0,0,0-6.117-3.995L21.408,106.729A33.592,33.592,0,0,0,25.395,112.85Z" transform="translate(28.256 -55.472)" fill="#4c9f38"/>
      <path id="Path_13739" data-name="Path 13739" d="M18.191,186.6,119.537,85.255a44.354,44.354,0,0,0-6.639-3.473L18.191,176.489Z" transform="translate(18.66 3.925)" fill="#4c9f38"/>
      <path id="Path_13740" data-name="Path 13740" d="M34.8,98.583,8.938,124.447v10.111L34.8,108.694Z" transform="translate(-8.938 54.036)" fill="#4c9f38"/>
      <path id="Path_13741" data-name="Path 13741" d="M18.191,169.852,105.9,82.147a44.243,44.243,0,0,0-6.2-1.055,19.872,19.872,0,0,0-2.537-.2h-.127L18.191,159.741Z" transform="translate(18.66 1.282)" fill="#4c9f38"/>
      <path id="Path_13742" data-name="Path 13742" d="M23.75,118.432V108.321L12.643,119.428H22.754Z" transform="translate(2.114 83.081)" fill="#4c9f38"/>
      <path id="Path_13743" data-name="Path 13743" d="M34.8,138.477c0-2.979.82-7.017,6.309-7.017a3.818,3.818,0,0,1,2.987,1.3L95.963,80.9H85.851L8.938,157.809v10.112L34.8,142.058Z" transform="translate(-8.938 1.282)" fill="#4c9f38"/>
      <path id="Path_13744" data-name="Path 13744" d="M51.823,80.9a18.552,18.552,0,0,0-2.441.2c-.984.088-1.944.251-2.911.4L9.527,118.436a44.84,44.84,0,0,0-.589,6.986v3.716L57.18,80.9Z" transform="translate(-8.938 1.282)" fill="#4c9f38"/>
      <path id="Path_13745" data-name="Path 13745" d="M66.459,80.9,8.938,138.417v10.111L76.57,80.9Z" transform="translate(-8.938 1.283)" fill="#4c9f38"/>
      <path id="Path_13746" data-name="Path 13746" d="M34.8,113.563V103.452L8.938,129.316v4.634h5.477Z" transform="translate(-8.938 68.559)" fill="#4c9f38"/>
      <path id="Path_13747" data-name="Path 13747" d="M129.813,88.785a44.571,44.571,0,0,0-4.982-5.13L18.191,190.294V193H25.6Z" transform="translate(18.66 9.511)" fill="#4c9f38"/>
      <path id="Path_13748" data-name="Path 13748" d="M55.232,108.953l-8.588,8.588h8.588Z" transform="translate(103.526 84.967)" fill="#4c9f38"/>
      <path id="Path_13749" data-name="Path 13749" d="M90.72,126.873v-4.986c.139-2.565.92-6.551,4.692-6.551a5.813,5.813,0,0,1,4.859,1.987l24.266-24.266A43.905,43.905,0,0,0,121.18,86.3l-98.8,98.8H32.49Z" transform="translate(31.161 17.406)" fill="#4c9f38"/>
      <path id="Path_13750" data-name="Path 13750" d="M76.2,108.93V98.819L27.25,147.768H37.361Z" transform="translate(45.682 54.741)" fill="#4c9f38"/>
      <path id="Path_13751" data-name="Path 13751" d="M10.253,100.575l18.356-18.36A44.657,44.657,0,0,0,10.253,100.575Z" transform="translate(-5.016 5.216)" fill="#4c9f38"/>
      <path id="Path_13752" data-name="Path 13752" d="M18.191,150.46,87.754,80.9H77.644L18.191,140.349Z" transform="translate(18.661 1.283)" fill="#4c9f38"/>
      <path id="Path_13753" data-name="Path 13753" d="M47.153,118.669V108.558L36.989,118.722H47.1Z" transform="translate(74.727 83.787)" fill="#4c9f38"/>
      <path id="Path_13754" data-name="Path 13754" d="M42.305,124.829,68.172,98.962V98.87a44.486,44.486,0,0,0-.948-9.072L42.305,114.721Z" transform="translate(90.584 27.834)" fill="#4c9f38"/>
      <path id="Path_13755" data-name="Path 13755" d="M61.676,113.8V103.688L32.119,133.245H42.23Z" transform="translate(60.204 69.264)" fill="#4c9f38"/>
      <path id="Path_13756" data-name="Path 13756" d="M42.3,135.279l25.87-25.871V99.3L42.3,125.168Z" transform="translate(90.583 56.169)" fill="#4c9f38"/>
      <path id="Path_13757" data-name="Path 13757" d="M68.175,113.949v-9.782L42.3,130.037v1.781h8Z" transform="translate(90.583 70.691)" fill="#4c9f38"/>
      <path id="Path_13758" data-name="Path 13758" d="M68.175,101v-6.57L42.3,120.3V130.41l25.87-25.87Z" transform="translate(90.583 41.646)" fill="#4c9f38"/>
      <path id="Path_13759" data-name="Path 13759" d="M20.053,67.345a5.377,5.377,0,1,1-5.377-5.381A5.378,5.378,0,0,1,20.053,67.345Z" transform="translate(-7.858 -55.186)" fill="#4c9f38"/>
      <path id="Path_13760" data-name="Path 13760" d="M21.1,74.374A5.169,5.169,0,1,1,15.933,69.2,5.168,5.168,0,0,1,21.1,74.374Z" transform="translate(-3.504 -33.612)" fill="#4c9f38"/>
      <path id="Path_13761" data-name="Path 13761" d="M16.328,78.127a3.68,3.68,0,1,1-3.672-3.672A3.672,3.672,0,0,1,16.328,78.127Z" transform="translate(-8.849 -17.929)" fill="#4c9f38"/>
      <path id="Path_13762" data-name="Path 13762" d="M24.122,72.205a3.431,3.431,0,1,1-3.433-3.433A3.426,3.426,0,0,1,24.122,72.205Z" transform="translate(15.884 -34.88)" fill="#4c9f38"/>
      <path id="Path_13763" data-name="Path 13763" d="M18.453,68.8A2.352,2.352,0,1,1,16.1,66.446,2.357,2.357,0,0,1,18.453,68.8Z" transform="translate(5.412 -41.817)" fill="#4c9f38"/>
      <path id="Path_13764" data-name="Path 13764" d="M19.046,74.512a2.354,2.354,0,1,1-2.354-2.358A2.356,2.356,0,0,1,19.046,74.512Z" transform="translate(7.171 -24.792)" fill="#4c9f38"/>
      <path id="Path_13765" data-name="Path 13765" d="M22.832,76.978a2.356,2.356,0,1,1-2.35-2.358A2.352,2.352,0,0,1,22.832,76.978Z" transform="translate(18.452 -17.437)" fill="#4c9f38"/>
      <path id="Path_13766" data-name="Path 13766" d="M22.832,65.673a2.356,2.356,0,1,1-2.35-2.358A2.352,2.352,0,0,1,22.832,65.673Z" transform="translate(18.452 -51.156)" fill="#4c9f38"/>
      <path id="Path_13767" data-name="Path 13767" d="M43.946,71.8a5.169,5.169,0,1,1,5.165,5.177A5.17,5.17,0,0,1,43.946,71.8Z" transform="translate(95.479 -41.257)" fill="#4c9f38"/>
      <path id="Path_13768" data-name="Path 13768" d="M39.39,71.315a3.433,3.433,0,1,1,3.433,3.437A3.425,3.425,0,0,1,39.39,71.315Z" transform="translate(81.89 -37.522)" fill="#4c9f38"/>
      <path id="Path_13769" data-name="Path 13769" d="M43.267,63.349a3.085,3.085,0,1,1,3.087,3.087A3.082,3.082,0,0,1,43.267,63.349Z" transform="translate(93.453 -60.262)" fill="#4c9f38"/>
      <path id="Path_13770" data-name="Path 13770" d="M42.086,73.108a2.352,2.352,0,1,1,2.35,2.35A2.35,2.35,0,0,1,42.086,73.108Z" transform="translate(89.931 -28.968)" fill="#4c9f38"/>
      <path id="Path_13771" data-name="Path 13771" d="M42.086,66.8a2.352,2.352,0,1,1,2.35,2.358A2.349,2.349,0,0,1,42.086,66.8Z" transform="translate(89.931 -47.759)" fill="#4c9f38"/>
      <path id="Path_13772" data-name="Path 13772" d="M39.241,65.857a2.358,2.358,0,1,1,2.354,2.354A2.353,2.353,0,0,1,39.241,65.857Z" transform="translate(81.445 -50.595)" fill="#4c9f38"/>
      <path id="Path_13773" data-name="Path 13773" d="M39.858,74.887a2.358,2.358,0,1,1,2.354,2.358A2.356,2.356,0,0,1,39.858,74.887Z" transform="translate(83.286 -23.662)" fill="#4c9f38"/>
      <path id="Path_13774" data-name="Path 13774" d="M46.848,65.684A2.358,2.358,0,1,1,49.2,68.041,2.356,2.356,0,0,1,46.848,65.684Z" transform="translate(104.134 -51.111)" fill="#4c9f38"/>
      <path id="Path_13775" data-name="Path 13775" d="M46.257,76.382a2.356,2.356,0,1,1,2.35,2.358A2.352,2.352,0,0,1,46.257,76.382Z" transform="translate(102.371 -19.203)" fill="#4c9f38"/>
      <path id="Path_13776" data-name="Path 13776" d="M45.168,73.692a3.194,3.194,0,1,1,3.186,3.194A3.185,3.185,0,0,1,45.168,73.692Z" transform="translate(99.123 -29.708)" fill="#4c9f38"/>
    </g>
    <g id="Group_2233" data-name="Group 2233" transform="translate(19.902 55.638)">
      <path id="Path_13777" data-name="Path 13777" d="M42.56,41.943,14.354,70.149H24.373L52.579,41.942Z" transform="translate(-3.748 -25.42)" fill="#4c9f38"/>
      <path id="Path_13778" data-name="Path 13778" d="M47.437,41.942,19.23,70.15H29.248L57.456,41.942Z" transform="translate(10.794 -25.421)" fill="#4c9f38"/>
      <path id="Path_13779" data-name="Path 13779" d="M66.725,39.547,28.981,77.292H39L72.41,43.881Z" transform="translate(39.878 -32.563)" fill="#4c9f38"/>
      <path id="Path_13780" data-name="Path 13780" d="M52.313,41.942,24.105,70.151H34.124L62.333,41.942Z" transform="translate(25.336 -25.422)" fill="#4c9f38"/>
      <path id="Path_13781" data-name="Path 13781" d="M40.964,73.914,68.888,45.99,63.2,41.656,33.856,71h7.11Z" transform="translate(54.42 -26.273)" fill="#4c9f38"/>
      <path id="Path_13782" data-name="Path 13782" d="M41.548,40.714,38.3,38.237a1.923,1.923,0,0,0-1.553-.406c-.832.223-1.115.725-1.111,1.8l0,6.986Z" transform="translate(59.723 -37.794)" fill="#4c9f38"/>
      <path id="Path_13783" data-name="Path 13783" d="M31.072,41.946,11.7,61.318l.008,7.316a1.4,1.4,0,0,0,1.195,1.5L41.088,41.942Z" transform="translate(-11.676 -25.42)" fill="#4c9f38"/>
      <path id="Path_13784" data-name="Path 13784" d="M12.961,41.943a1.432,1.432,0,0,0-1.27,1.529l.012,8.451,9.981-9.981Z" transform="translate(-11.691 -25.417)" fill="#4c9f38"/>
      <path id="Path_13785" data-name="Path 13785" d="M74.871,48.309l-.279-.211-5.687-4.333L35.642,77.032l0,2.35c0,1.083.279,1.581,1.115,1.8a1.93,1.93,0,0,0,1.553-.406L55.272,67.422,75.138,51.778a2.048,2.048,0,0,0-.267-3.469Z" transform="translate(59.735 -19.983)" fill="#4c9f38"/>
    </g>
  </g>
</svg>
