<svg xmlns="http://www.w3.org/2000/svg" width="130.063" height="35" viewBox="0 0 130.063 35">
  <g id="sdg3" transform="translate(-668.777 -204.951)">
    <path id="Path_2290" data-name="Path 2290" d="M146.261,174c5.766,0,8.284-3.059,8.284-7.768v-5.008c0-3.113-1.353-5.115-4.224-5.766a5.43,5.43,0,0,0,3.9-5.521v-2.949c0-4.819-2.3-7.768-7.579-7.768-5.927,0-7.957,3.519-7.957,8.527v3.006h5.225v-3.465c0-2.112.648-3.3,2.464-3.3s2.464,1.19,2.464,3.059V150.7c0,1.813-1.19,2.76-3.059,2.76h-2.165v4.359h2.408c2,0,2.814.947,2.814,2.76v5.6c0,1.813-.812,3.059-2.543,3.059-1.948,0-2.653-1.3-2.653-3.3v-4.872h-5.2v4.466c-.028,5.165,2,8.467,7.821,8.467" transform="translate(530.338 65.731)" fill="#fff"/>
    <path id="Path_2291" data-name="Path 2291" d="M244.5,147.767h3.384v7.579h-1.731V153.8a2.127,2.127,0,0,1-2.273,1.706c-2.058,0-3.006-1.624-3.006-3.843v-6.874c0-2.219,1.054-3.843,3.572-3.843,2.653,0,3.412,1.46,3.412,3.572v1.246h-2.137v-1.435c0-.866-.324-1.382-1.19-1.382s-1.246.595-1.246,1.46v7.633c0,.866.352,1.46,1.165,1.46.784,0,1.165-.434,1.165-1.353v-2.518h-1.136v-1.866Z" transform="translate(460.147 64.546)" fill="#fff"/>
    <path id="Path_2292" data-name="Path 2292" d="M272.374,152.035V144.4c0-.866-.378-1.46-1.246-1.46-.84,0-1.218.595-1.218,1.46v7.633c0,.866.378,1.46,1.218,1.46.869,0,1.246-.592,1.246-1.46m-4.844-.378v-6.874c0-2.219,1.083-3.843,3.6-3.843,2.543,0,3.626,1.624,3.626,3.843v6.874c0,2.194-1.083,3.843-3.626,3.843-2.518,0-3.6-1.624-3.6-3.843" transform="translate(441.878 64.553)" fill="#fff"/>
    <path id="Path_2293" data-name="Path 2293" d="M299.634,152.035V144.4c0-.866-.377-1.46-1.246-1.46-.84,0-1.218.595-1.218,1.46v7.633c0,.866.378,1.46,1.218,1.46.869,0,1.246-.592,1.246-1.46m-4.844-.378v-6.874c0-2.219,1.083-3.843,3.6-3.843,2.543,0,3.626,1.624,3.626,3.843v6.874c0,2.194-1.083,3.843-3.626,3.843-2.518,0-3.6-1.624-3.6-3.843" transform="translate(423.198 64.553)" fill="#fff"/>
    <path id="Path_2294" data-name="Path 2294" d="M325.455,153.8c.976,0,1.354-.595,1.354-1.435V144.9c0-.84-.378-1.435-1.354-1.435h-1v10.314h1Zm3.733-8.445v6.578c0,2.166-.894,3.818-3.465,3.818H322.04V141.54h3.683c2.575,0,3.465,1.6,3.465,3.815" transform="translate(404.525 64.141)" fill="#fff"/>
    <path id="Path_2295" data-name="Path 2295" d="M365.2,149.469h-2.3v6.282H360.49V141.54H362.9v6.009h2.3V141.54h2.408v14.211H365.2Z" transform="translate(378.177 64.142)" fill="#fff"/>
    <path id="Path_2296" data-name="Path 2296" d="M387.41,141.54h5.713v1.948h-3.33v4.06h2.383v1.92h-2.383V153.8h3.33v1.951H387.41Z" transform="translate(359.731 64.142)" fill="#fff"/>
    <path id="Path_2297" data-name="Path 2297" d="M411.367,151.228h1.895l-.947-5.713h-.028Zm-2.978,4.523,2.679-14.211H413.8l2.707,14.211h-2.465l-.434-2.6h-2.543l-.406,2.6Z" transform="translate(345.353 64.142)" fill="#fff"/>
    <path id="Path_2298" data-name="Path 2298" d="M437.29,141.54h2.383V153.8h2.842v1.951H437.29Z" transform="translate(325.55 64.142)" fill="#fff"/>
    <path id="Path_2299" data-name="Path 2299" d="M452.17,141.54h6.361v1.948h-1.977v12.263h-2.408V143.488H452.17Z" transform="translate(315.353 64.142)" fill="#fff"/>
    <path id="Path_2300" data-name="Path 2300" d="M480.529,149.469h-2.3v6.282H475.82V141.54h2.408v6.009h2.3V141.54h2.411v14.211h-2.411Z" transform="translate(299.148 64.142)" fill="#fff"/>
    <path id="Path_2301" data-name="Path 2301" d="M242.753,214.466h1.895l-.947-5.713h-.028Zm-3,4.495,2.678-14.211h2.735l2.707,14.211h-2.464l-.434-2.6h-2.543l-.406,2.6Z" transform="translate(460.915 20.826)" fill="#fff"/>
    <path id="Path_2302" data-name="Path 2302" d="M270.645,210.028v8.933h-2V204.75H271l2.571,8.146V204.75h1.973v14.211h-2.084Z" transform="translate(441.118 20.826)" fill="#fff"/>
    <path id="Path_2303" data-name="Path 2303" d="M298.337,217.009c.976,0,1.353-.595,1.353-1.435v-7.441c0-.84-.378-1.435-1.353-1.435h-1v10.314h1Zm3.761-8.445v6.578c0,2.165-.894,3.818-3.466,3.818H294.95V204.75h3.682c2.546,0,3.466,1.624,3.466,3.815" transform="translate(423.088 20.826)" fill="#fff"/>
    <path id="Path_2304" data-name="Path 2304" d="M337.775,210.189l-1.353,8.772H334.2L332.28,204.75h2.3l1.111,9.011h.028l1.19-9.011h1.948l1.328,9.011h.025l1.083-9.011h2l-1.841,14.211h-2.247l-1.407-8.772Z" transform="translate(397.508 20.826)" fill="#fff"/>
    <path id="Path_2305" data-name="Path 2305" d="M370.55,204.75h5.713V206.7h-3.33v4.06h2.383v1.92h-2.383v4.331h3.33v1.952H370.55Z" transform="translate(371.284 20.826)" fill="#fff"/>
    <path id="Path_2306" data-name="Path 2306" d="M392.74,204.75h2.383v12.259h2.842v1.952H392.74Z" transform="translate(356.078 20.826)" fill="#fff"/>
    <path id="Path_2307" data-name="Path 2307" d="M412.87,204.75h2.38v12.259h2.842v1.952H412.87Z" transform="translate(342.284 20.826)" fill="#fff"/>
    <rect id="Rectangle_1163" data-name="Rectangle 1163" width="3.355" height="1.923" transform="translate(760.051 232.233)" fill="#fff"/>
    <path id="Path_2308" data-name="Path 2308" d="M445.349,212.571v4.438H446.4a1.034,1.034,0,0,0,1.165-1.164v-2.137c0-.759-.353-1.165-1.19-1.165h-1.029v.028Zm0-1.841h.84a1.014,1.014,0,0,0,1.136-1.165v-1.731a1.013,1.013,0,0,0-1.165-1.164h-.812v4.06Zm-2.38-5.98h3.465c2.383,0,3.195,1.111,3.195,3.113V209.3a2.081,2.081,0,0,1-1.435,2.272,2.167,2.167,0,0,1,1.788,2.354v1.895c0,2-.894,3.113-3.3,3.113h-3.708l0-14.183Z" transform="translate(321.658 20.826)" fill="#fff"/>
    <path id="Path_2309" data-name="Path 2309" d="M469.02,204.75H474.7V206.7h-3.3v4.06h2.383v1.92H471.4v4.331h3.3v1.952H469.02Z" transform="translate(303.807 20.826)" fill="#fff"/>
    <rect id="Rectangle_1164" data-name="Rectangle 1164" width="2.383" height="14.211" transform="translate(779.811 225.576)" fill="#fff"/>
    <path id="Path_2310" data-name="Path 2310" d="M505.172,210.028v8.933h-2V204.75h2.354L508.1,212.9V204.75h1.977v14.211h-2.087Z" transform="translate(280.405 20.826)" fill="#fff"/>
    <path id="Path_2311" data-name="Path 2311" d="M533.026,210.977h3.383v7.579h-1.731v-1.542a2.127,2.127,0,0,1-2.273,1.706c-2.058,0-3.006-1.624-3.006-3.843V208c0-2.219,1.054-3.843,3.573-3.843,2.653,0,3.412,1.46,3.412,3.572v1.246h-2.194v-1.407c0-.866-.324-1.382-1.19-1.382s-1.246.595-1.246,1.46v7.633c0,.866.352,1.46,1.164,1.46.784,0,1.165-.434,1.165-1.353v-2.518h-1.054v-1.895Z" transform="translate(262.431 21.231)" fill="#fff"/>
  </g>
</svg>
