<svg xmlns="http://www.w3.org/2000/svg" width="307.505" height="307.985" viewBox="0 0 307.505 307.985">
  <g id="circle" transform="translate(0)">
    <path id="Path_15109" data-name="Path 15109" d="M480.765,195.553a.332.332,0,0,0,.223.012C480.835,195.5,480.772,195.509,480.765,195.553Z" transform="translate(-225.66 -156.263)" fill="#4c9f38"/>
    <path id="Path_15110" data-name="Path 15110" d="M417.963,162.35l.875.135A3.636,3.636,0,0,0,417.963,162.35Z" transform="translate(-229.014 -158.034)" fill="#4c9f38"/>
    <path id="Path_15111" data-name="Path 15111" d="M508.026,228.387a.71.71,0,0,0-.084-.073c.383.58.863,1.391,1.606,2.73C509.052,230.151,508.579,229.245,508.026,228.387Z" transform="translate(-224.209 -154.512)" fill="#4c9f38"/>
    <path id="Path_15112" data-name="Path 15112" d="M277.351,205.2l.7-.743C277.733,204.788,277.517,204.994,277.351,205.2Z" transform="translate(-236.523 -155.786)" fill="#4c9f38"/>
    <path id="Path_15113" data-name="Path 15113" d="M355.891,161.269a10.625,10.625,0,0,1-1.237.383A3.876,3.876,0,0,0,355.891,161.269Z" transform="translate(-232.395 -158.092)" fill="#4c9f38"/>
    <path id="Path_15114" data-name="Path 15114" d="M515.753,249.617c-.086-.418-.185-.832-.3-1.238C515.374,248.436,515.5,248.868,515.753,249.617Z" transform="translate(-223.809 -153.44)" fill="#4c9f38"/>
    <path id="Path_15115" data-name="Path 15115" d="M526.74,290.614a.627.627,0,0,0,.037-.122C526.753,290.426,526.744,290.5,526.74,290.614Z" transform="translate(-223.205 -151.192)" fill="#4c9f38"/>
    <path id="Path_15116" data-name="Path 15116" d="M524.977,274l-.372-1.22A4.533,4.533,0,0,0,524.977,274Z" transform="translate(-223.319 -152.137)" fill="#4c9f38"/>
    <path id="Path_15117" data-name="Path 15117" d="M524.429,272.228l.185.578A1.755,1.755,0,0,0,524.429,272.228Z" transform="translate(-223.328 -152.166)" fill="#4c9f38"/>
    <path id="Path_15118" data-name="Path 15118" d="M530.483,311.038a31.007,31.007,0,0,0-.176-3.657Z" transform="translate(-223.015 -150.289)" fill="#4c9f38"/>
    <path id="Path_15119" data-name="Path 15119" d="M242.168,335.206l-.145-.268C242.111,335.2,242.149,335.24,242.168,335.206Z" transform="translate(-238.41 -148.817)" fill="#4c9f38"/>
    <path id="Path_15120" data-name="Path 15120" d="M528.859,309.274l.064-.926A8.9,8.9,0,0,0,528.859,309.274Z" transform="translate(-223.092 -150.237)" fill="#4c9f38"/>
    <path id="Path_15121" data-name="Path 15121" d="M505.1,229.983c-.863-.982-2.091-3.333-2.241-3.212A18.776,18.776,0,0,0,505.1,229.983Z" transform="translate(-224.48 -154.594)" fill="#4c9f38"/>
    <path id="Path_15122" data-name="Path 15122" d="M257.779,360.426l.358.767C257.973,360.824,257.865,360.6,257.779,360.426Z" transform="translate(-237.568 -147.456)" fill="#4c9f38"/>
    <path id="Path_15123" data-name="Path 15123" d="M528.863,309.227l-.075,1.072a3.086,3.086,0,0,0,.106-.32A7.2,7.2,0,0,1,528.863,309.227Z" transform="translate(-223.096 -150.191)" fill="#4c9f38"/>
    <path id="Path_15124" data-name="Path 15124" d="M333.592,441.133l-.048-.019-.3-.08Z" transform="translate(-233.538 -143.152)" fill="#4c9f38"/>
    <path id="Path_15125" data-name="Path 15125" d="M340.873,443.986l-1.67-.5A10.251,10.251,0,0,0,340.873,443.986Z" transform="translate(-233.22 -143.021)" fill="#4c9f38"/>
    <path id="Path_15126" data-name="Path 15126" d="M530.312,307.487l-.1-2.083C530.213,306.154,530.258,306.829,530.312,307.487Z" transform="translate(-223.02 -150.395)" fill="#4c9f38"/>
    <path id="Path_15127" data-name="Path 15127" d="M423.219,445.574l-.769.243A7.982,7.982,0,0,0,423.219,445.574Z" transform="translate(-228.775 -142.909)" fill="#4c9f38"/>
    <path id="Path_15128" data-name="Path 15128" d="M361.6,160.351l.7-.082C362.376,160.211,362.325,160.187,361.6,160.351Z" transform="translate(-232.024 -158.148)" fill="#4c9f38"/>
    <path id="Path_15129" data-name="Path 15129" d="M310.973,184.6l-.019.012,0,0Z" transform="translate(-234.729 -156.846)" fill="#4c9f38"/>
    <path id="Path_15130" data-name="Path 15130" d="M313.5,182.866a11.445,11.445,0,0,0-2.526,1.829A30.115,30.115,0,0,0,313.5,182.866Z" transform="translate(-234.728 -156.939)" fill="#4c9f38"/>
    <path id="Path_15131" data-name="Path 15131" d="M305.609,188l.312-.193C305.8,187.876,305.711,187.934,305.609,188Z" transform="translate(-235.014 -156.675)" fill="#4c9f38"/>
    <path id="Path_15132" data-name="Path 15132" d="M360.26,165.913c0-.006.007-.017,0-.021a.109.109,0,0,0-.032.024Z" transform="translate(-232.097 -157.845)" fill="#4c9f38"/>
    <path id="Path_15133" data-name="Path 15133" d="M348.846,168.488a8.247,8.247,0,0,0-.842.147A6.472,6.472,0,0,0,348.846,168.488Z" transform="translate(-232.75 -157.706)" fill="#4c9f38"/>
    <path id="Path_15134" data-name="Path 15134" d="M283.735,207.368c.008-.012,0-.016,0-.016l-.043.048Z" transform="translate(-236.184 -155.631)" fill="#4c9f38"/>
    <path id="Path_15135" data-name="Path 15135" d="M246.956,315.9c-.042-1.447-.127-2.948-.151-4.491.016-1.542.032-3.124.048-4.734l.021-2.433.147-2.457.3-4.966c.186-1.652.374-3.3.559-4.938l.282-2.443.408-2.392c.276-1.582.547-3.136.81-4.649.33-1.5.685-2.952,1.018-4.352.1-2.551,1.141-6.069,2.051-9.635l.62-.216.818-2.952c.553-1.127-.659,2.259.24.239l.053-1.2c.136-.081.778-1.939,1.267-3.136.536-1.181.811-1.737.09.727,1.421-3.689,2.832-7.385,4.53-10.957,1.122-2.369.161-1.62,1.615-4.144.41-.455-.38.977-.1.85,1.083-1.893,1.85-3.425,2.457-4.776s1.15-2.468,1.622-3.608c.488-1.13.965-2.25,1.586-3.523a47.533,47.533,0,0,1,2.662-4.313l-.313.624c.314-.624.832-1.491,1.266-2.209s.835-1.256.807-1.3c-1.069.544-.6,1.365-2.206,3.289-.262-.431,1.467-2.76,1.105-2.81a37.293,37.293,0,0,0,2.64-3.921c.473-.538.959-1.162,1.462-1.809l1.582-1.925a33.263,33.263,0,0,1,2.839-3.214,37.06,37.06,0,0,1,3.434-4.913c1.693-1.375-.116.577,1.976-1.48l.131-.52c1.689-1.713,1.482-1.388,1.513-1.239a16.074,16.074,0,0,0,1.569-1.872,11.093,11.093,0,0,1,2.051-2.086l-1.118,1.425c1.65-1.719,2.387-2.354,4.8-4.627.049.163-.919,1.072-1.654,1.712,1.569-.953,2.1-2.262,2.888-2.85a12.532,12.532,0,0,0-1.052.7c-.379.279-.646.426-.326-.06,1.261-1.06,2.418-2.578,3.51-3.117l-1.2,1.373c2.485-2.387,1.137-1.506,4.268-3.915-.155.146-.032.134-.065.231a51.968,51.968,0,0,1,7.532-5.715l-.529.464c1.161-.935,1.694-1.605,2.361-2.056-1.806,1.1-1.382.7-1.684.6,2.5-1.289,3.231-2.846,7.229-5.1a4.487,4.487,0,0,1-1.955,1.46,16.005,16.005,0,0,1-3.2,3.351c1.327-1.1,3.044-2.183,2.774-1.814l.226-.64,2.244-1.422c.239-.466-2.012.777-.058-.682,2.235-1.6,1.462-.392,1.721-.791,3.178-2.018,1.126-1.164,4.341-2.854a8.786,8.786,0,0,1-1.166.748c2.3-1.209,5.594-3.095,6.494-3a2.7,2.7,0,0,1-1.182.852v-.086c-2.367,1.621,2.071-1.171,1.483-.362-.3-.149,2.957-1.784,4.5-2.36l-.6-.064c4.608-3.093-.013.674,4.851-1.655,3.088-1.49-1.237.4.626-.592A64.554,64.554,0,0,0,342,172.946c.927-.21,2.808-.653,3.07-.385.947-.394,2.433-.855,3.806-1.306a18.523,18.523,0,0,0,3.181-1.094c-3.466.656-3.239,1.331-7.261,2.21l.982-.687c1.357-.425,2.859-1.053,4.316-1.462,1.447-.436,2.794-.83,3.753-1.04-.4.045-.593.011-.371-.127.968-.308,1.759-.579,2.462-.829l1.955-.6a44.885,44.885,0,0,1,4.419-1.117c.569.184-1.695.652-3.331,1.058a21.279,21.279,0,0,0,2.735-.514l1.448-.356c.6-.117,1.334-.239,2.31-.389.258.238-2.628.423-3.01.83,1.412-.367,2.853-.589,4.278-.891-.015.019.006.034.009.054a4.837,4.837,0,0,1,2.174-.557l1.777-.229c.637-.061,1.3-.139,1.96-.257,6.273-.848,7.194-1.4,10.688-2.046.954.049,1.238.143.847.287-1.57-.081-1.283.054-1.818.213a16.194,16.194,0,0,1,3.005,0c.761.114,1.1.277.512.381,3.392-.215-1.234-.206.836-.4l4.66-.087c-.552-.217-2.2-.225.218-.462a54.206,54.206,0,0,1,5.689.068c-.388.1.83.371-1.167.305a16.893,16.893,0,0,0,4.075-.022c-1.453-.13-.254-.187,1.035-.171s2.676.05,1.6-.212l2.9.431a16.424,16.424,0,0,1-1.724-.027c.8.411,2.386.082,3.409.126a28.54,28.54,0,0,1,3.864.683,14.416,14.416,0,0,1,3.546.61c1.37.1.143-.212.555-.274,1.536.249,3.061.558,4.593.833.21.235.493.831-.209.778,1.763.136.725-.455,3.34.041-1.561.024,3.366,1.073,1.119,1.012a28.136,28.136,0,0,0,3.642,1.07l2.3.538,2.011.516c1.5.12-2.435-.874-2.215-1.117a52.582,52.582,0,0,0,6.59,1.349,24.364,24.364,0,0,1,5.2,1.4l-1.19-.493c2.983.843,2.657.725,4.436,1.12-.465.019.267.58,1.7,1.358.717.389,1.611.831,2.62,1.287l1.593.694c.545.258,1.11.515,1.692.767.468,0-2.443-1.5-1.574-1.434l3.1,1.338c.21.129-.154.033-.571-.1a33.635,33.635,0,0,1,3.64,1.8,6.317,6.317,0,0,0,2.225,1.013l2.477,1.891-.969-.763a32.69,32.69,0,0,1,4.136,1.828,26.111,26.111,0,0,1,5.62,3.489,4.292,4.292,0,0,1-.63-.765c-.037-.152.292-.105,1.451.616-.348.5,4.693,3.279,4.451,3.5.921.6,2.385,1.911,2.64,1.771l-.37.205c.493-.261,3.825,1.985,6.251,3.872-1,.145,2.7,2.03,3.33,3.408.75,0,4.239,3.417,4.927,3.46,1.779,1.565,1.262,1.774,1.6,2.291l.921.625a33.247,33.247,0,0,0,2.428,2.645c1.085,1.155,2.243,2.488,3.1,3.487l2.008,1.478c.163.261.32.527.466.8.338.221,1.72,1.72,1.014.658l.848,1.019c.423-.224,1.328,1.313,3.207,3.217.321.532.133.475-.273.061.814,1.045.275.751.6,1.42-.49-.821,3.615,3.228,1.571.279,0-.315,1.405,1.249,2.148,2.331l.153.882c.45.315.853.668,1.283,1,1.241,1.638,1.527,2.51,2.447,3.888-1.006-1.369-2.848-2.6-.313.952-1.374-1.837-2.219-2.617-2.976-3.529.508.744.734,1.133-.222.1,2.073,2.69.868.773,2.861,3.481-.421.064.053.881,1.5,3.431l-.949-2a1.56,1.56,0,0,1,.312.3c-.412-.725-.491-.955-.477-1.18.374.544,2.506,3.026,2.621,3.622-.665-1.587.23-.4,1.186.93.986,1.316,1.886,2.868,1.506,1.828a9.911,9.911,0,0,1,1.444,2.629c-1.659-2.309.686,2.063.223,1.791.619.857-.86-2.063-.026-.9a16.519,16.519,0,0,1,1.577,3.531l-.382-.59,1.031,2.389c.363.294-.861-2.389.318-.3a27.151,27.151,0,0,1,1.228,2.689c-.753-.9-.688-.007-1.672-1.787l1.836,3.426c.579,1.142,1,1.83.715.764l.818,1.843c-.374-1.218-1.575-4.579.142-.9h-.084l1.425,2.454.327,1.2c.067-.068.36.292.726,1.273-.005.3.314,1.234.143,1.217,1.129,2.814,1.22,2.516,1.468,2.844.648,1.571.807,2.19.305,1.531.742,2.2,2.062,6.035,2.375,7.594,1.011,2.938-.1-.639.644,1.033a37.8,37.8,0,0,0,1.46,6.623c.351,1.387.721,2.847,1.08,4.266.183.71.365,1.409.54,2.085.139.684.274,1.343.4,1.964.328-1.465.308,1.35.992,2.177-.372-1.044.4,4.818-.538.473l.535,2.657c.01,1.866-1.022-4.364-.964-1.545.3,1.482.62,2.7.91,3.993a26.335,26.335,0,0,1,.7,4.443c-.281-.571-.157.106-.042.823.083.721.164,1.48-.095,1.058-.186-.726-.255-1.711-.425-2.708v.629c.484,6.606.656,1.861,1.224,5.311.367,4.042-.09,3.206-.27,3.451a26.085,26.085,0,0,0,.184,3.725c-.313-2.457.144-4.575.432-3.452-.425,1.8.113,6.016.327,7.128.174-2.9.155-3.912.141-4.874-.006-.481-.012-.952.009-1.645.014-.347.031-.749.052-1.237s.015-1.059.024-1.744c-.205-.74-.615-.585-.69-3.862.362,2.033.222-.159.247-.746-.1.326-.165-.239-.231-1.009-.086-.767-.213-1.735-.321-2.225.08-.929.8,1.891.481-1.426l-.645-.551c-.078-1.3.484.5,0-2.235.484,1.443.4-.515.965,3.209a21.752,21.752,0,0,0-.725-5.52c-.431-1.552-.925-2.959-1.333-4.652.1.344.179.369.278.707-.292-.7-.474-2.043-.751-3.035-.381-2.268.655,1.721.652,1.115-.226-1.222-.553-2.424-.824-3.637,0-.078.006-.1.018-.1a7.325,7.325,0,0,1-.5-2.2c.427,1.037.71,1.422,1.024,2.12l-1.268-3.736c.327.362-.557-3.2.341-.547l-1.664-5.577.234-.584c-.447-1.323-.529-1.337-.119.28-.436-1.958-3.429-8.149-2.351-7.416-.9-2.106-1.578-3.511-2.2-5.064-.32-.773-.653-1.574-1.038-2.5l-1.537-3.173c2.075,3.735-1.6-4.635.406-.588-.947-2.481-1.507-2.827-2.531-4.636-.744-1.812-.013-1.21,1.081.616l-1.291-2.137.09.006-1.177-1.824c-.878-2.123.156-.629-.95-2.724l-.554-.283-.626-1.486c.164.6-.592-.581-1.471-2.055l.083-.007c-.369-.59-.722-1.189-1.1-1.771.615.834.4.41.092-.125s-.7-1.182-.337-.846c-.95-1.513-.975-1.545-2.768-4.227l.111.6c-1.208-1.719-1.195-1.78-1.062-1.8s.336.029-.645-1.366l-.1.324a37.538,37.538,0,0,0-3.708-5.28,44.154,44.154,0,0,1-3.426-4.292c1.331,1.595,1.25.989,1.165,1l-1.688-2.051-2.016-2.269a42.288,42.288,0,0,0-4.028-4.13c-.529-1.118-.636-1.4-2.815-3.937a10.272,10.272,0,0,0-2.757-2.287c-.794-.863-2.027-2.012-3.046-2.981-1.047-.939-1.9-1.675-1.849-1.822-.559-.189-1.565-1.416-2.665-2.118l-.132-.266-.019.338c-.344-.4-.689-.764-1.034-1.106-.36-.324-.719-.626-1.08-.911-.719-.572-1.438-1.081-2.158-1.587a48.315,48.315,0,0,1-4.453-3.432l.632.361-1.5-.94c-.159-.257.467.1.625.024l-3.336-2.4c-1.133-.769-2.293-1.5-3.439-2.252l1.25,1.042a40.251,40.251,0,0,1-4.162-2.524c1.487.716.916.344-.064-.275a15.344,15.344,0,0,1-2.587-1.64l1.582.789c-2.1-1.181-2.1-1.181-2.066-.85-2.765-1.455-1.583-1.561-4.276-2.654.611.309,1.214.632,1.8.988.445.447-.922-.134-2.148-.738-.27-.184-1.079-.733-.132-.285-2.245-1.013-5.44-2.884-6.5-3.175-1.179-.625-.7-.617-.01-.383-2.451-.98-2.986-1.236-3.526-1.494a25.059,25.059,0,0,0-3.564-1.415l.14-.108-1.753-.5-2.29-1.249.793.525-2.171-.782c-.706-.219-1.442-.462-2.383-.828l.845.05c-2.335-.726-3.644-1.268-4.935-1.779A31.911,31.911,0,0,0,434.1,164.6c-.295-.127.42,0,.788.068a16.66,16.66,0,0,1-3.644-1.046,15.519,15.519,0,0,0-3.723-.815c.277-.014-.163-.212.016-.237l-1.958-.3L425.8,162l-1.665.076c-.372-.2-.753-.354-1.131-.534l-.785.008a15.158,15.158,0,0,0-3.584-.991c-.674-.13-1.374-.259-2.078-.415-.709-.131-1.425-.27-2.127-.472l.437.445c-7.289-.329-16.569-2.129-25.41-1.56l.152-.308-3.629.45c-1.961-.191,1.162-.29.547-.43a9.949,9.949,0,0,0-2.821.445,16.7,16.7,0,0,1-3.283.488c-2.325-.029.785-.284,1.867-.476-4.232.371-10.413,1.362-13.409,1.645-.06.053-.234.138-.078.129-2.757.659-6.47,1.065-9.488,1.862.044-.154.791-.349,1.542-.552a26.974,26.974,0,0,0-3.514.839l1.086-.519c-1.17.257-2.88.653-4.343,1.07a12.47,12.47,0,0,1-3,.689c.311.034.255.287-1.737.838-1.261-.205-5.3,1.9-8.524,2.723.337-.231,2.638-1.034,1.985-.82a15.877,15.877,0,0,0-2.255.784c-.7.308-1.353.683-2.009,1.012l.351-.34-3.554,1.54-1.775.769c-.586.269-1.16.566-1.74.847-1.234.044-6.622,3.058-6.259,2.588-2.467,1.244,2.154-.871-.931.768-.915.25-2.764,1.522-2.775,1.186l.316-.2-2.162,1.133,1.23-.964c-1.865.987-3.019,2.085-3.011,2.316-1.8.852-4.2,2.356-5.1,2.609.194-.156.391-.307.594-.447-2.344,1.532-4.392,2.629-6.313,3.667a30.694,30.694,0,0,0-5.236,3.683c-.293.157-.3.073.259-.323-.954.654-1.892,1.331-2.794,2.056l.516-.69-4.3,3.819-.037-.163c-1.51,1.146-3.3,2.79-5.245,4.47-.981.828-1.915,1.757-2.847,2.665l-2.728,2.652.477-.554c-.93.952-1.617,1.658-2.152,2.243s-.974.99-1.372,1.375a38.881,38.881,0,0,0-2.758,2.873,1.831,1.831,0,0,1,.235-.34c-.809.844-1.54,1.757-2.314,2.632l.4-.683a24.45,24.45,0,0,1-2.981,3.356c-.97.925-1.52,1.521-.93.967a39.6,39.6,0,0,0-2.344,3.8c-2.332,3.023-.764.592-2.267,2.424-1.611,2.251-1.7,2.783-3.952,5.781l-.084-.151c-.926,1.493-1.423,2.469-2.721,4.538l.33-.651a23.938,23.938,0,0,1-1.287,2.15c-.367.6-.7,1.09-1.013,1.564a12.367,12.367,0,0,0-1.651,3.349c-.988,1.361-2.3,4.256-2.512,3.971-1.036,2.262-2.026,4.233-2.834,6.284-.426,1.014-.852,2.028-1.29,3.072s-.9,2.112-1.3,3.276c-.753.546-.358.994-1.719,3.667l.331-.11c-2.409,6.5-5.521,13.95-6.982,21.533l-.311.152-.058,1.565c-.846,4.055-1.762,8.724-2.293,13.241-.353,2.248-.514,4.462-.68,6.522s-.358,3.962-.36,5.616c.046,1.084.105,2.45.172,3.972.014.761.028,1.56.043,2.384.039.824.062,1.672.06,2.53l-.046-.359c.151,2.987.254,6.055.583,9.179.143,1.563.237,3.148.394,4.74q.269,2.386.541,4.817c-.163-.387-.16.264-.324-.45a12.485,12.485,0,0,1,.454,2.631c.1.933.212,1.847.324,2.539l-.089-1.645a20.522,20.522,0,0,1,.775,5.408c.258.948.531,1.891.862,2.82a1.961,1.961,0,0,1,.009.541l.256.475.005,1.6c.23.694,1.177,4.461,1.893,5.521-.037.3.622,2.959-.018.94.485,1.718.909,3.454,1.446,5.157l1.666,5.092-.417-1.624c.094-.142.438.535.811,1.447.188.455.379.971.555,1.473.2.493.373.973.5,1.37-1-1.952-.423-.036-.265.906.669,1.3-.242-1.263.177-.6.856,1.633,2.3,5.211,2.625,6.127-.179-.32-.375-.632-.54-.958,1.093,2.227,1.153,3.457,2.18,5.683,1.068,1.931,1.713,3.422,1.894,2.826,1.532,2.783.279,1.23.708,2.167a27.623,27.623,0,0,1,1.729,3.158,15.27,15.27,0,0,1,1.231,2.642c.739.581,1.717,2.485,2.7,4.232,1.017,1.725,1.953,3.349,2.366,3.467l1.141,2.373c.173-.015.756.214,2.031,1.9,1.018,1.715.529,1.485.752,2.07l1.235.758c6.213,9.7,16.97,20.55,26.462,28.837,2.272,1.665,4.754,3.659,7.523,5.455l4.13,2.817c1.418.892,2.827,1.794,4.2,2.7l-.651-.331c.907.6,1.793,1.237,2.72,1.807l2.792,1.7c-1.318-.882-2.679-1.687-3.952-2.629,1.221.736,2.271,1.137,3.451,1.849,1.533.92,3.142,2.013,4.94,2.976s3.671,2.006,5.617,3.023c1.986.935,4.028,1.877,6.083,2.794,2.072.88,4.2,1.63,6.275,2.386,1.379.39,2.3.637,2.963.879a9.442,9.442,0,0,1,1.49.691,13.73,13.73,0,0,0,4.27,1.559c-.467-.076-.655-.056-1.076-.125,2.847.787,5.077,1.27,7.286,1.81,2.217.509,4.48.832,7.384,1.328-.4.23.534.471,1.5.609s1.966.228,1.674.349l.532-.173c1.258.389,4.289.987,3.822,1.094.87.06,1.745.066,2.621.061l.185.294c1.711.211,4.405.564,6.9.81a29.453,29.453,0,0,1,5.684.8c4.287.034,9.8.1,15.578-.142,1.446-.008,2.9-.14,4.364-.244l4.375-.311c2.894-.274,5.726-.657,8.394-.956,1.454-.475,4.533-1.048,6.937-1.5.883-.028,1.745-.16,2.62-.239,1.2-.328,2.428-.74,3.636-1.108.6-.185,1.205-.359,1.8-.507.588-.17,1.166-.326,1.737-.432,0,.04-.088.092-.241.154a55.078,55.078,0,0,0,6.949-2.229c2.624-.87,5.232-1.574,4.529-1.021.036-.311,1.452-.707,2.806-1.182,1.365-.446,2.727-.82,2.727-.82l1.5-.578,1.815-.7,2.418-1.069c1.8-.83,4.061-1.717,6.532-3.024l3.988-2.012c1.4-.719,2.827-1.58,4.348-2.428a147.321,147.321,0,0,0,19.946-13.6,154.078,154.078,0,0,0,20.555-20.039,151.182,151.182,0,0,0,17.232-24.957A146.451,146.451,0,0,0,539.8,360.6a139.133,139.133,0,0,0,5.346-24.123c.291-1.777.357-3.51.525-5.143.122-1.638.305-3.187.336-4.658.06-2.941.138-5.517.054-7.675-.231-1.17-.321-4.367-.665-3.153-.037-2.461.456-3.589.205-4.066-.259,3.341-.655-1.033-1.064,2.221l-.012-2.087c-.176-.429.141,2.839-.185,2.323l.476.6a15.552,15.552,0,0,1-.426,3.2,16.165,16.165,0,0,1,.159,6.429l.049-1.051c-.217,3.094-.459,1.866-.589,2.5l.056-.682c-.161.857-.269,1.719-.472,2.569.37-1.946.179-5.227.091-3.524-.416,3.654.192-.941.042,1.816-.1,1.712-.342,1.2-.475,1.113l-.369,3.046c-.214-.132.269-2.013-.123-.807l-.247,3.866c-.606.636-.394,4.2-1.241,5.848.355-2.757-.235.211-.341-.258l-.589,3.344-.748,3.311c-.222.608.228-1.777.025-.767a13.756,13.756,0,0,0-.494,2.746c-.162.264-.384,1.514-.757,2.625-.344,1.118-.69,2.134-.849,1.993a8.841,8.841,0,0,0-.766,3.136,6.479,6.479,0,0,1-.763,2.9c-.393.466,1.021-3.245.2-1.511l-1.343,4.235a5.93,5.93,0,0,1,.5-2.5c-.516,1.407-1.019,2.726-1.507,3.978-.472,1.258-1.065,2.4-1.57,3.52-1.038,2.232-2.01,4.279-3.11,6.231-1.074,1.96-2.03,3.934-3.2,5.939-1.145,2.015-2.187,4.218-3.523,6.583-1,1.191.388-1.045.77-2.075a49.278,49.278,0,0,1-4.872,7.916l-2.361,3.156c-.79,1.106-1.721,2.222-2.665,3.593l.117.23c-5.93,7.154-12.921,15.893-20.866,22.765l1.013-.746a39.529,39.529,0,0,1-3.861,3.925c-.275.085.62-1.184-1.614.878.527-.35,1.553-1.125,1.339-.792-3.549,2.786-9.151,6.99-15.605,11.2a132.877,132.877,0,0,1-20.7,11.065,136.441,136.441,0,0,1-29.11,9.5,156.693,156.693,0,0,1-30.189,3.2c2.981-.095,1.724.5-.533.43a50.394,50.394,0,0,0-8.42-.6c-1.339-.063-2.685-.117-4.085-.225a25.272,25.272,0,0,1-4.39-.637,82.429,82.429,0,0,1-8.26-1.123l-3.973-.761c-1.313-.256-2.591-.626-3.879-.926l-3.838-.929-3.783-1.066c-1.259-.356-2.541-.642-3.8-1.014s-2.528-.735-3.814-1.073l-.105-.321c-1.451-.635-1.938-.545-3.487-1.148l.064-.057c-1.8-.771-3.84-1.514-5.673-2.21-1.8-.771-3.411-1.46-4.411-1.983l-.259.217c-2.136-.95-1.02-.676-3.226-1.613l.13-.1-2.613-1.016c.249-.187-1.234-.907-2.919-1.812-1.67-.931-3.593-1.966-4.341-2.533a94.444,94.444,0,0,1-11.254-7.152c-.577-.658-5.015-4.1-7.689-6.474a133.052,133.052,0,0,1-18.287-18.122l-.159.344c-.5-.588-1.047-1.142-1.517-1.756.079-.022-.082-.293.162-.04-.789-1.665-3.424-4.112-4.332-5.763.421,1.145.95,1.316,1.749,2.368,1.048,1.594-.349.377-1.789-1.76l.091,0-1.163-1.324c.1-.318-.717-1.69-.615-2.008l-1.63-2.219c-.528-.713-.985-1.44-1.467-2.129l-2.788-4.044-2.582-4.235a52.676,52.676,0,0,1-2.591-4.833c.631.589-2.641-5.008-1.444-3.829-2.122-4.219-.061.891-1.284-.92a13.1,13.1,0,0,1-1.163-2.715c.371.515-.152-1.108.334-.148-.433-.96-.923-1.9-1.309-2.875-.072-.3.244.324.412.632-2.689-5.857-3.813-10.742-5.676-16.188-.3-.36.573,2.217.277,1.869-1.933-5.5-1.164-5-2.615-10.223l.506,1.033a18.776,18.776,0,0,1-1.345-5.216c.11-.278.273.312.469,1.133.233.815.5,1.863.723,2.521-.513-1.9-1.413-6.808-1.427-5.261a26.776,26.776,0,0,1-.539-4.474c-.082-.031.188,2.207-.2.865-.208-1.6-.357-3.646-.625-5.766-.293-2.118-.432-4.342-.564-6.306.078.029.172-.253.235.085C246.5,319.927,247.126,320.22,246.956,315.9Z" transform="translate(-238.593 -158.253)" fill="#4c9f38"/>
    <path id="Path_15136" data-name="Path 15136" d="M361.883,165.688l-1.586.236c.013.066-.046.157-.76.36Z" transform="translate(-232.134 -157.856)" fill="#4c9f38"/>
    <path id="Path_15137" data-name="Path 15137" d="M296.74,194.931c-.142.143-.283.282-.4.419C296.638,195.1,296.716,195,296.74,194.931Z" transform="translate(-235.509 -156.294)" fill="#4c9f38"/>
    <path id="Path_15138" data-name="Path 15138" d="M284.243,207.2c.859-1-.007-.206-.51.206C283.757,207.465,283.831,207.495,284.243,207.2Z" transform="translate(-236.182 -155.665)" fill="#4c9f38"/>
    <path id="Path_15139" data-name="Path 15139" d="M402.556,164.016c-.282-.006-.456.013-.417.082C402.518,164.091,402.6,164.059,402.556,164.016Z" transform="translate(-229.859 -157.945)" fill="#4c9f38"/>
    <path id="Path_15140" data-name="Path 15140" d="M497.94,219.483l-.256-.4A2.808,2.808,0,0,0,497.94,219.483Z" transform="translate(-224.757 -155.005)" fill="#4c9f38"/>
    <path id="Path_15141" data-name="Path 15141" d="M494.448,214.289c-.2-.257-.493-.561-.912-1A12.773,12.773,0,0,0,494.448,214.289Z" transform="translate(-224.978 -155.314)" fill="#4c9f38"/>
    <path id="Path_15142" data-name="Path 15142" d="M375.154,163.434a8.783,8.783,0,0,0-1.243.192A6.565,6.565,0,0,0,375.154,163.434Z" transform="translate(-231.367 -157.976)" fill="#4c9f38"/>
    <path id="Path_15143" data-name="Path 15143" d="M492.687,212.408l-1.067-1.282c-.022.006-.046,0-.064.017Z" transform="translate(-225.084 -155.429)" fill="#4c9f38"/>
    <path id="Path_15144" data-name="Path 15144" d="M499.125,221.184l-1.2-1.721A14.215,14.215,0,0,0,499.125,221.184Z" transform="translate(-224.744 -154.984)" fill="#4c9f38"/>
    <path id="Path_15145" data-name="Path 15145" d="M442.714,174.751l-.165-.066C441.308,174.268,442.073,174.553,442.714,174.751Z" transform="translate(-227.737 -157.387)" fill="#4c9f38"/>
    <path id="Path_15146" data-name="Path 15146" d="M487.666,207.552l-.145-.17-.4-.293Z" transform="translate(-225.321 -155.645)" fill="#4c9f38"/>
    <path id="Path_15147" data-name="Path 15147" d="M502.883,226.8a6.707,6.707,0,0,0-.5-.669l.48.813C502.853,226.852,502.863,226.819,502.883,226.8Z" transform="translate(-224.506 -154.628)" fill="#4c9f38"/>
    <path id="Path_15148" data-name="Path 15148" d="M463.273,186.571c.459.159.652.191.7.152C463.5,186.427,463.175,186.278,463.273,186.571Z" transform="translate(-226.595 -156.749)" fill="#4c9f38"/>
  </g>
</svg>
