<svg xmlns="http://www.w3.org/2000/svg" width="122.45" height="35" viewBox="0 0 122.45 35">
  <g id="target3-3" transform="translate(-37.317 -3.317)">
    <g id="Group_2227" data-name="Group 2227" transform="translate(37.317 3.317)">
      <path id="Path_13719" data-name="Path 13719" d="M159.767,38.317H37.317v-35h122.45ZM39.329,36.3H157.754V5.329H39.329Z" transform="translate(-37.317 -3.317)" fill="#4c9f38"/>
    </g>
    <g id="Group_2228" data-name="Group 2228" transform="translate(44.159 10.373)">
      <path id="Path_13720" data-name="Path 13720" d="M40.717,6.943h9.146V9.75H47.026V27.409H43.555V9.75H40.717Z" transform="translate(-40.717 -6.702)" fill="#4c9f38"/>
      <path id="Path_13721" data-name="Path 13721" d="M45.188,27.409,49.052,6.943h3.922l3.894,20.466h-3.53L52.7,23.666H49.052l-.606,3.743Zm4.315-6.49h2.749l-1.36-8.211h-.03Z" transform="translate(-36.19 -6.702)" fill="#4c9f38"/>
      <path id="Path_13722" data-name="Path 13722" d="M55.288,18.021v9.388H51.847V6.943h5.011c3.471,0,4.739,1.721,4.739,4.588v2.626c0,2.2-.785,3.5-2.749,3.954l3.292,9.3H58.516Zm0-8.271V16.12h1.147a1.49,1.49,0,0,0,1.69-1.69V11.411c0-1.117-.513-1.66-1.69-1.66Z" transform="translate(-29.449 -6.702)" fill="#4c9f38"/>
      <path id="Path_13723" data-name="Path 13723" d="M63.039,16.6h4.89V27.531H65.454V25.3a3.1,3.1,0,0,1-3.292,2.475c-2.956,0-4.315-2.355-4.315-5.524v-9.9c0-3.2,1.539-5.524,5.16-5.524,3.805,0,4.922,2.113,4.922,5.132v1.811H64.79V11.683c0-1.268-.483-1.992-1.721-1.992s-1.781.875-1.781,2.113V22.792c0,1.238.513,2.113,1.69,2.113,1.115,0,1.69-.634,1.69-1.962V19.32h-1.63Z" transform="translate(-23.374 -6.823)" fill="#4c9f38"/>
      <path id="Path_13724" data-name="Path 13724" d="M64.206,6.943h8.211V9.75H67.647v5.856H71.06v2.777H67.647V24.6h4.769v2.807H64.206Z" transform="translate(-16.936 -6.702)" fill="#4c9f38"/>
      <path id="Path_13725" data-name="Path 13725" d="M69.08,6.943h9.146V9.75H75.389V27.409H71.917V9.75H69.08Z" transform="translate(-12.002 -6.702)" fill="#4c9f38"/>
    </g>
    <g id="Group_2229" data-name="Group 2229" transform="translate(121.456 10.373)">
      <path id="Path_13726" data-name="Path 13726" d="M88.666,11.5v1.781a3.273,3.273,0,0,1-2.353,3.323c1.719.39,2.534,1.6,2.534,3.469v3.019c0,2.838-1.509,4.679-4.979,4.679-3.5,0-4.741-1.992-4.741-5.1V19.984h3.141v2.928c0,1.207.423,1.992,1.6,1.992,1.055,0,1.537-.755,1.537-1.839V19.682c0-1.087-.483-1.658-1.69-1.658H82.268V15.4h1.3c1.117,0,1.841-.574,1.841-1.658V11.532c0-1.117-.392-1.841-1.479-1.841s-1.477.724-1.477,1.992v2.083H79.308V11.955c0-3.019,1.238-5.132,4.8-5.132C87.277,6.823,88.666,8.6,88.666,11.5Z" transform="translate(-79.127 -6.823)" fill="#4c9f38"/>
      <path id="Path_13727" data-name="Path 13727" d="M88.067,10.828a2.49,2.49,0,0,1,0,4.981,2.49,2.49,0,1,1,0-4.981Z" transform="translate(-72.612 -2.768)" fill="#4c9f38"/>
      <path id="Path_13728" data-name="Path 13728" d="M99.061,11.5v1.781a3.275,3.275,0,0,1-2.355,3.323c1.721.39,2.536,1.6,2.536,3.469v3.019c0,2.838-1.509,4.679-4.981,4.679-3.5,0-4.739-1.992-4.739-5.1V19.984h3.139v2.928c0,1.207.423,1.992,1.6,1.992,1.057,0,1.539-.755,1.539-1.839V19.682c0-1.087-.483-1.658-1.69-1.658H92.661V15.4h1.3c1.117,0,1.841-.574,1.841-1.658V11.532c0-1.117-.392-1.841-1.479-1.841s-1.479.724-1.479,1.992v2.083H89.7V11.955c0-3.019,1.238-5.132,4.8-5.132C97.672,6.823,99.061,8.6,99.061,11.5Z" transform="translate(-68.603 -6.823)" fill="#4c9f38"/>
    </g>
  </g>
</svg>
