<svg xmlns="http://www.w3.org/2000/svg" width="399" height="378.454" viewBox="0 0 399 378.454">
  <g id="icon-3-3" transform="translate(-8.938 -31.811)">
    <g id="Group_2230" data-name="Group 2230" transform="translate(204.21 31.811)">
      <path id="Path_13729" data-name="Path 13729" d="M57.934,156.121h-8.08V133.5h8.08Zm0-42.05h-8.08V91.444h8.08Zm0-42.06h-8.08V49.384h8.08Z" transform="translate(-49.854 34.483)" fill="#4c9f38"/>
      <path id="Path_13730" data-name="Path 13730" d="M57.934,96.5h-8.08V73.871h8.08Zm0-42.06h-8.08V31.811h8.08Z" transform="translate(-49.854 -31.811)" fill="#4c9f38"/>
    </g>
    <g id="Group_2231" data-name="Group 2231" transform="translate(217.697 170.791)">
      <path id="Path_13731" data-name="Path 13731" d="M104.235,140.957a40.013,40.013,0,1,0-40-40.017A39.988,39.988,0,0,0,104.235,140.957Z" transform="translate(-9.1 -60.932)" fill="#4c9f38"/>
      <path id="Path_13732" data-name="Path 13732" d="M83.673,149.88c0-3.57.983-8.409,7.555-8.409,4.477,0,5.455,4.777,5.612,7.851v75.835H198.733V149.321c.167-3.074,1.1-7.851,5.617-7.851,6.534,0,7.569,4.839,7.569,8.409v75.277h31V134.236a53.309,53.309,0,0,0-48.412-53.123,23.671,23.671,0,0,0-3.035-.234H104.065a22.16,22.16,0,0,0-2.921.234A53.317,53.317,0,0,0,52.68,134.236v90.921H83.673Zm82.9-17.816c2.644,0,5.627,2.9,7.359,4.687,1.737-1.775,4.93-4.682,7.584-4.682,5.288,0,8.786,4.415,8.786,9.87a10.014,10.014,0,0,1-2.811,6.987h.01l-13.554,13.587-13.578-13.6a9.97,9.97,0,0,1-2.806-6.973C157.56,136.483,161.269,132.064,166.571,132.064Z" transform="translate(-52.68 14.318)" fill="#4c9f38"/>
    </g>
    <g id="Group_2232" data-name="Group 2232" transform="translate(8.938 167.593)">
      <path id="Path_13733" data-name="Path 13733" d="M21.078,84.083,43.623,61.538A40.068,40.068,0,0,0,21.078,84.083Z" transform="translate(36.86 -55.448)" fill="#4c9f38"/>
      <path id="Path_13734" data-name="Path 13734" d="M30.953,125.039,84.562,71.43a40.181,40.181,0,0,0-4.73-7.388L23.579,120.3A39.976,39.976,0,0,0,30.953,125.039Z" transform="translate(46.295 -46.002)" fill="#4c9f38"/>
      <path id="Path_13735" data-name="Path 13735" d="M36.6,117.042c.382,0,.754-.048,1.136-.057L76.491,78.232c.01-.406.062-.8.062-1.207a39.888,39.888,0,0,0-1.241-9.731L26.824,115.786A40.017,40.017,0,0,0,36.6,117.042Z" transform="translate(58.537 -33.738)" fill="#4c9f38"/>
      <path id="Path_13736" data-name="Path 13736" d="M53.741,72.54,32.064,94.221A40.1,40.1,0,0,0,53.741,72.54Z" transform="translate(78.305 -13.943)" fill="#4c9f38"/>
      <path id="Path_13737" data-name="Path 13737" d="M70.558,62.277A39.773,39.773,0,0,0,60.5,60.95c-.258,0-.511.033-.768.038l-39.2,39.2c0,.258-.038.506-.038.764a40,40,0,0,0,1.327,10.065Z" transform="translate(34.642 -57.667)" fill="#4c9f38"/>
      <path id="Path_13738" data-name="Path 13738" d="M26.185,122.961,82.491,66.655a39.69,39.69,0,0,0-7.331-4.787L21.408,115.625A40.254,40.254,0,0,0,26.185,122.961Z" transform="translate(38.105 -54.203)" fill="#4c9f38"/>
      <path id="Path_13739" data-name="Path 13739" d="M18.191,207.389,139.637,85.944a53.151,53.151,0,0,0-7.956-4.162L18.191,195.272Z" transform="translate(25.969 20.922)" fill="#4c9f38"/>
      <path id="Path_13740" data-name="Path 13740" d="M39.931,98.583,8.938,129.576v12.117L39.931,110.7Z" transform="translate(-8.938 84.304)" fill="#4c9f38"/>
      <path id="Path_13741" data-name="Path 13741" d="M18.191,187.495l105.1-105.1a53.018,53.018,0,0,0-7.426-1.265,23.814,23.814,0,0,0-3.04-.234h-.153L18.191,175.377Z" transform="translate(25.969 17.58)" fill="#4c9f38"/>
      <path id="Path_13742" data-name="Path 13742" d="M25.953,120.437V108.321L12.643,121.63H24.759Z" transform="translate(5.041 121.041)" fill="#4c9f38"/>
      <path id="Path_13743" data-name="Path 13743" d="M39.931,149.9c0-3.57.983-8.409,7.56-8.409a4.575,4.575,0,0,1,3.579,1.561L113.222,80.9H101.1L8.938,173.063V185.18l30.993-30.993Z" transform="translate(-8.938 17.58)" fill="#4c9f38"/>
      <path id="Path_13744" data-name="Path 13744" d="M60.328,80.9a22.231,22.231,0,0,0-2.926.234c-1.179.105-2.329.3-3.489.482l-44.27,44.27a53.733,53.733,0,0,0-.706,8.371v4.453L66.747,80.9Z" transform="translate(-8.938 17.58)" fill="#4c9f38"/>
      <path id="Path_13745" data-name="Path 13745" d="M77.867,80.9,8.938,149.825v12.116L89.983,80.9Z" transform="translate(-8.938 17.581)" fill="#4c9f38"/>
      <path id="Path_13746" data-name="Path 13746" d="M39.931,115.568V103.452L8.938,134.446V140H15.5Z" transform="translate(-8.938 102.672)" fill="#4c9f38"/>
      <path id="Path_13747" data-name="Path 13747" d="M151.95,89.8a53.411,53.411,0,0,0-5.97-6.147L18.191,211.443v3.241h8.877Z" transform="translate(25.969 27.988)" fill="#4c9f38"/>
      <path id="Path_13748" data-name="Path 13748" d="M56.936,108.953,46.644,119.245H56.936Z" transform="translate(133.308 123.426)" fill="#4c9f38"/>
      <path id="Path_13749" data-name="Path 13749" d="M104.273,134.919v-5.975c.167-3.073,1.1-7.851,5.622-7.851,2.921,0,4.7.993,5.822,2.382L144.8,94.4a52.613,52.613,0,0,0-4.023-8.094L22.382,204.7H34.495Z" transform="translate(41.779 37.974)" fill="#4c9f38"/>
      <path id="Path_13750" data-name="Path 13750" d="M85.906,110.935V98.819L27.25,157.475H39.367Z" transform="translate(60.146 85.196)" fill="#4c9f38"/>
      <path id="Path_13751" data-name="Path 13751" d="M10.253,104.216l22-22A53.513,53.513,0,0,0,10.253,104.216Z" transform="translate(-3.977 22.556)" fill="#4c9f38"/>
      <path id="Path_13752" data-name="Path 13752" d="M18.191,164.256,101.55,80.9H89.434L18.191,152.14Z" transform="translate(25.97 17.581)" fill="#4c9f38"/>
      <path id="Path_13753" data-name="Path 13753" d="M49.169,120.674V108.558L36.989,120.738H49.1Z" transform="translate(96.883 121.933)" fill="#4c9f38"/>
      <path id="Path_13754" data-name="Path 13754" d="M42.305,131.777l31-31v-.11A53.308,53.308,0,0,0,72.167,89.8L42.305,119.664Z" transform="translate(116.939 51.162)" fill="#4c9f38"/>
      <path id="Path_13755" data-name="Path 13755" d="M67.538,115.8V103.688L32.119,139.107H44.235Z" transform="translate(78.514 103.564)" fill="#4c9f38"/>
      <path id="Path_13756" data-name="Path 13756" d="M42.3,142.415l31-31V99.3l-31,31Z" transform="translate(116.938 87.001)" fill="#4c9f38"/>
      <path id="Path_13757" data-name="Path 13757" d="M73.306,115.889V104.167l-31,31V137.3h9.588Z" transform="translate(116.938 105.369)" fill="#4c9f38"/>
      <path id="Path_13758" data-name="Path 13758" d="M73.306,102.3V94.429l-31,31v12.116l31-31Z" transform="translate(116.938 68.633)" fill="#4c9f38"/>
      <path id="Path_13759" data-name="Path 13759" d="M22.186,68.412a6.443,6.443,0,1,1-6.443-6.448A6.444,6.444,0,0,1,22.186,68.412Z" transform="translate(-7.572 -53.841)" fill="#4c9f38"/>
      <path id="Path_13760" data-name="Path 13760" d="M23.149,75.4a6.195,6.195,0,1,1-6.19-6.2A6.193,6.193,0,0,1,23.149,75.4Z" transform="translate(-2.065 -26.555)" fill="#4c9f38"/>
      <path id="Path_13761" data-name="Path 13761" d="M17.788,78.855a4.41,4.41,0,1,1-4.4-4.4A4.4,4.4,0,0,1,17.788,78.855Z" transform="translate(-8.825 -6.719)" fill="#4c9f38"/>
      <path id="Path_13762" data-name="Path 13762" d="M25.483,72.886a4.112,4.112,0,1,1-4.114-4.114A4.105,4.105,0,0,1,25.483,72.886Z" transform="translate(22.457 -28.158)" fill="#4c9f38"/>
      <path id="Path_13763" data-name="Path 13763" d="M19.385,69.267a2.818,2.818,0,1,1-2.821-2.821A2.824,2.824,0,0,1,19.385,69.267Z" transform="translate(9.211 -36.933)" fill="#4c9f38"/>
      <path id="Path_13764" data-name="Path 13764" d="M19.98,74.979a2.821,2.821,0,1,1-2.821-2.825A2.823,2.823,0,0,1,19.98,74.979Z" transform="translate(11.437 -15.399)" fill="#4c9f38"/>
      <path id="Path_13765" data-name="Path 13765" d="M23.767,77.445a2.823,2.823,0,1,1-2.816-2.825A2.819,2.819,0,0,1,23.767,77.445Z" transform="translate(25.705 -6.096)" fill="#4c9f38"/>
      <path id="Path_13766" data-name="Path 13766" d="M23.767,66.14a2.823,2.823,0,1,1-2.816-2.825A2.819,2.819,0,0,1,23.767,66.14Z" transform="translate(25.705 -48.745)" fill="#4c9f38"/>
      <path id="Path_13767" data-name="Path 13767" d="M43.946,72.829a6.195,6.195,0,1,1,6.19,6.2A6.2,6.2,0,0,1,43.946,72.829Z" transform="translate(123.13 -36.224)" fill="#4c9f38"/>
      <path id="Path_13768" data-name="Path 13768" d="M39.39,72A4.114,4.114,0,1,1,43.5,76.114,4.1,4.1,0,0,1,39.39,72Z" transform="translate(105.942 -31.5)" fill="#4c9f38"/>
      <path id="Path_13769" data-name="Path 13769" d="M43.267,63.961a3.7,3.7,0,1,1,3.7,3.7A3.693,3.693,0,0,1,43.267,63.961Z" transform="translate(120.568 -60.262)" fill="#4c9f38"/>
      <path id="Path_13770" data-name="Path 13770" d="M42.086,73.575A2.818,2.818,0,1,1,44.9,76.39,2.816,2.816,0,0,1,42.086,73.575Z" transform="translate(116.113 -20.681)" fill="#4c9f38"/>
      <path id="Path_13771" data-name="Path 13771" d="M42.086,67.27A2.818,2.818,0,1,1,44.9,70.1,2.815,2.815,0,0,1,42.086,67.27Z" transform="translate(116.113 -44.448)" fill="#4c9f38"/>
      <path id="Path_13772" data-name="Path 13772" d="M39.241,66.324a2.825,2.825,0,1,1,2.821,2.821A2.82,2.82,0,0,1,39.241,66.324Z" transform="translate(105.38 -48.035)" fill="#4c9f38"/>
      <path id="Path_13773" data-name="Path 13773" d="M39.858,75.354a2.825,2.825,0,1,1,2.821,2.825A2.823,2.823,0,0,1,39.858,75.354Z" transform="translate(107.708 -13.97)" fill="#4c9f38"/>
      <path id="Path_13774" data-name="Path 13774" d="M46.848,66.151a2.825,2.825,0,1,1,2.821,2.825A2.823,2.823,0,0,1,46.848,66.151Z" transform="translate(134.077 -48.688)" fill="#4c9f38"/>
      <path id="Path_13775" data-name="Path 13775" d="M46.257,76.849a2.823,2.823,0,1,1,2.816,2.825A2.819,2.819,0,0,1,46.257,76.849Z" transform="translate(131.848 -8.33)" fill="#4c9f38"/>
      <path id="Path_13776" data-name="Path 13776" d="M45.168,74.324a3.828,3.828,0,1,1,3.818,3.828A3.817,3.817,0,0,1,45.168,74.324Z" transform="translate(127.74 -21.617)" fill="#4c9f38"/>
    </g>
    <g id="Group_2233" data-name="Group 2233" transform="translate(22.077 60.363)">
      <path id="Path_13777" data-name="Path 13777" d="M48.154,41.943l-33.8,33.8H26.359l33.8-33.8Z" transform="translate(-1.644 -22.143)" fill="#4c9f38"/>
      <path id="Path_13778" data-name="Path 13778" d="M53.031,41.942l-33.8,33.8H31.235l33.8-33.8Z" transform="translate(16.749 -22.144)" fill="#4c9f38"/>
      <path id="Path_13779" data-name="Path 13779" d="M74.21,39.547l-45.23,45.23H40.987L81.023,44.74Z" transform="translate(53.534 -31.177)" fill="#4c9f38"/>
      <path id="Path_13780" data-name="Path 13780" d="M57.908,41.942l-33.8,33.8H36.111l33.8-33.8Z" transform="translate(35.142 -22.146)" fill="#4c9f38"/>
      <path id="Path_13781" data-name="Path 13781" d="M42.373,80.311,75.835,46.849l-6.813-5.193L33.856,76.822h8.52Z" transform="translate(71.927 -23.222)" fill="#4c9f38"/>
      <path id="Path_13782" data-name="Path 13782" d="M42.721,41.294l-3.894-2.969a2.3,2.3,0,0,0-1.861-.487c-1,.267-1.336.869-1.332,2.162l0,8.371Z" transform="translate(78.634 -37.794)" fill="#4c9f38"/>
      <path id="Path_13783" data-name="Path 13783" d="M34.914,41.947,11.7,65.16l.01,8.767a1.675,1.675,0,0,0,1.432,1.8l33.78-33.785Z" transform="translate(-11.672 -22.144)" fill="#4c9f38"/>
      <path id="Path_13784" data-name="Path 13784" d="M13.213,41.943a1.716,1.716,0,0,0-1.522,1.833L11.705,53.9l11.96-11.96Z" transform="translate(-11.691 -22.14)" fill="#4c9f38"/>
      <path id="Path_13785" data-name="Path 13785" d="M82.652,49.21l-.334-.253L75.5,43.765,35.643,83.63l0,2.816c0,1.3.334,1.895,1.336,2.162a2.313,2.313,0,0,0,1.861-.487L59.166,72.114,82.972,53.367a2.454,2.454,0,0,0-.32-4.157Z" transform="translate(78.649 -15.267)" fill="#4c9f38"/>
    </g>
  </g>
</svg>
