<svg height="35" viewBox="0 0 130.063 35" width="130.063" xmlns="http://www.w3.org/2000/svg"><g fill="#fff"><path d="m146.261 174c5.766 0 8.284-3.059 8.284-7.768v-5.008c0-3.113-1.353-5.115-4.224-5.766a5.43 5.43 0 0 0 3.9-5.521v-2.949c0-4.819-2.3-7.768-7.579-7.768-5.927 0-7.957 3.519-7.957 8.527v3.006h5.225v-3.465c0-2.112.648-3.3 2.464-3.3s2.464 1.19 2.464 3.059v3.653c0 1.813-1.19 2.76-3.059 2.76h-2.165v4.359h2.408c2 0 2.814.947 2.814 2.76v5.6c0 1.813-.812 3.059-2.543 3.059-1.948 0-2.653-1.3-2.653-3.3v-4.872h-5.2v4.466c-.028 5.165 2 8.467 7.821 8.467" transform="translate(-138.439 -139.22)"/><path d="m244.5 147.767h3.384v7.579h-1.731v-1.546a2.127 2.127 0 0 1 -2.273 1.706c-2.058 0-3.006-1.624-3.006-3.843v-6.874c0-2.219 1.054-3.843 3.572-3.843 2.653 0 3.412 1.46 3.412 3.572v1.246h-2.137v-1.435c0-.866-.324-1.382-1.19-1.382s-1.246.595-1.246 1.46v7.633c0 .866.352 1.46 1.165 1.46.784 0 1.165-.434 1.165-1.353v-2.518h-1.136v-1.866z" transform="translate(-208.63 -140.405)"/><path d="m272.374 152.035v-7.635c0-.866-.378-1.46-1.246-1.46-.84 0-1.218.595-1.218 1.46v7.633c0 .866.378 1.46 1.218 1.46.869 0 1.246-.592 1.246-1.46m-4.844-.378v-6.874c0-2.219 1.083-3.843 3.6-3.843 2.543 0 3.626 1.624 3.626 3.843v6.874c0 2.194-1.083 3.843-3.626 3.843-2.518 0-3.6-1.624-3.6-3.843" transform="translate(-226.899 -140.398)"/><path d="m299.634 152.035v-7.635c0-.866-.377-1.46-1.246-1.46-.84 0-1.218.595-1.218 1.46v7.633c0 .866.378 1.46 1.218 1.46.869 0 1.246-.592 1.246-1.46m-4.844-.378v-6.874c0-2.219 1.083-3.843 3.6-3.843 2.543 0 3.626 1.624 3.626 3.843v6.874c0 2.194-1.083 3.843-3.626 3.843-2.518 0-3.6-1.624-3.6-3.843" transform="translate(-245.579 -140.398)"/><path d="m325.455 153.8c.976 0 1.354-.595 1.354-1.435v-7.465c0-.84-.378-1.435-1.354-1.435h-1v10.314h1zm3.733-8.445v6.578c0 2.166-.894 3.818-3.465 3.818h-3.683v-14.211h3.683c2.575 0 3.465 1.6 3.465 3.815" transform="translate(-264.252 -140.81)"/><path d="m365.2 149.469h-2.3v6.282h-2.41v-14.211h2.41v6.009h2.3v-6.009h2.408v14.211h-2.408z" transform="translate(-290.6 -140.809)"/><path d="m387.41 141.54h5.713v1.948h-3.33v4.06h2.383v1.92h-2.383v4.332h3.33v1.951h-5.713z" transform="translate(-309.046 -140.809)"/><path d="m411.367 151.228h1.895l-.947-5.713h-.028zm-2.978 4.523 2.679-14.211h2.732l2.707 14.211h-2.465l-.434-2.6h-2.543l-.406 2.6z" transform="translate(-323.424 -140.809)"/><path d="m437.29 141.54h2.383v12.26h2.842v1.951h-5.225z" transform="translate(-343.227 -140.809)"/><path d="m452.17 141.54h6.361v1.948h-1.977v12.263h-2.408v-12.263h-1.976z" transform="translate(-353.424 -140.809)"/><path d="m480.529 149.469h-2.3v6.282h-2.409v-14.211h2.408v6.009h2.3v-6.009h2.411v14.211h-2.411z" transform="translate(-369.629 -140.809)"/><path d="m242.753 214.466h1.895l-.947-5.713h-.028zm-3 4.495 2.678-14.211h2.735l2.707 14.211h-2.464l-.434-2.6h-2.543l-.406 2.6z" transform="translate(-207.862 -184.125)"/><path d="m270.645 210.028v8.933h-2v-14.211h2.355l2.571 8.146v-8.146h1.973v14.211h-2.084z" transform="translate(-227.659 -184.125)"/><path d="m298.337 217.009c.976 0 1.353-.595 1.353-1.435v-7.441c0-.84-.378-1.435-1.353-1.435h-1v10.314h1zm3.761-8.445v6.578c0 2.165-.894 3.818-3.466 3.818h-3.682v-14.21h3.682c2.546 0 3.466 1.624 3.466 3.815" transform="translate(-245.689 -184.125)"/><path d="m337.775 210.189-1.353 8.772h-2.222l-1.92-14.211h2.3l1.111 9.011h.028l1.19-9.011h1.948l1.328 9.011h.025l1.083-9.011h2l-1.841 14.211h-2.247l-1.407-8.772z" transform="translate(-271.269 -184.125)"/><path d="m370.55 204.75h5.713v1.95h-3.33v4.06h2.383v1.92h-2.383v4.331h3.33v1.952h-5.713z" transform="translate(-297.493 -184.125)"/><path d="m392.74 204.75h2.383v12.259h2.842v1.952h-5.225z" transform="translate(-312.699 -184.125)"/><path d="m412.87 204.75h2.38v12.259h2.842v1.952h-5.222z" transform="translate(-326.493 -184.125)"/><path d="m91.274 27.282h3.355v1.923h-3.355z"/><path d="m445.349 212.571v4.438h1.051a1.034 1.034 0 0 0 1.165-1.164v-2.137c0-.759-.353-1.165-1.19-1.165h-1.029v.028zm0-1.841h.84a1.014 1.014 0 0 0 1.136-1.165v-1.731a1.013 1.013 0 0 0 -1.165-1.164h-.812v4.06zm-2.38-5.98h3.465c2.383 0 3.195 1.111 3.195 3.113v1.437a2.081 2.081 0 0 1 -1.435 2.272 2.167 2.167 0 0 1 1.788 2.354v1.895c0 2-.894 3.113-3.3 3.113h-3.708v-14.183z" transform="translate(-347.119 -184.125)"/><path d="m469.02 204.75h5.68v1.95h-3.3v4.06h2.383v1.92h-2.383v4.331h3.3v1.952h-5.68z" transform="translate(-364.97 -184.125)"/><path d="m111.034 20.625h2.383v14.211h-2.383z"/><path d="m505.172 210.028v8.933h-2v-14.211h2.354l2.574 8.15v-8.15h1.977v14.211h-2.087z" transform="translate(-388.372 -184.125)"/><path d="m533.026 210.977h3.383v7.579h-1.731v-1.542a2.127 2.127 0 0 1 -2.273 1.706c-2.058 0-3.006-1.624-3.006-3.843v-6.877c0-2.219 1.054-3.843 3.573-3.843 2.653 0 3.412 1.46 3.412 3.572v1.246h-2.194v-1.407c0-.866-.324-1.382-1.19-1.382s-1.246.595-1.246 1.46v7.633c0 .866.352 1.46 1.164 1.46.784 0 1.165-.434 1.165-1.353v-2.518h-1.054v-1.895z" transform="translate(-406.346 -183.72)"/></g></svg>