<svg xmlns="http://www.w3.org/2000/svg" width="451.605" height="300.263" viewBox="0 0 451.605 300.263">
  <g id="watermark-3-1-2" transform="translate(-62 -2725)">
    <g id="Group_2255" data-name="Group 2255" transform="translate(30.49 2693.202)" opacity="0.1">
      <g id="Group_2208" data-name="Group 2208" transform="translate(31.51 31.798)">
        <path id="Path_13677" data-name="Path 13677" d="M69.411,82.52A25.361,25.361,0,1,0,44.042,57.17,25.323,25.323,0,0,0,69.411,82.52Z" transform="translate(3.394 -31.798)" fill="#4c9f38"/>
        <path id="Path_13678" data-name="Path 13678" d="M176.442,136.867,155.373,68.26s-7.533-19.827-24.21-19.827H77.447c-16.674,0-24.218,19.827-24.218,19.827l-21.08,68.607s-3.751,12.571,6.923,15.709c10.61,3.153,13.831-9.13,13.831-9.13L69.9,86.187s.927-4.406,4.239-3.452S76.2,88.4,76.2,88.4L46.624,195.7H74.135v76.848a13.2,13.2,0,0,0,26.406,0V195.7h7.5v76.848a13.214,13.214,0,0,0,26.428,0V195.7h27.492L132.408,88.4s-1.245-4.709,2.059-5.666,4.243,3.452,4.243,3.452l16.984,57.259s3.236,12.283,13.835,9.13C180.216,149.438,176.442,136.867,176.442,136.867ZM97.925,79.585c3.717,0,5.133,3.99,6.541,5.443,1.416-1.45,3.547-5.443,6.715-5.439,4.319,0,6.617,3.6,6.617,8.036a8.132,8.132,0,0,1-2.286,5.685l.011.008-11.045,11.064L93.421,93.307a8.143,8.143,0,0,1-2.29-5.682C91.13,83.181,93.61,79.585,97.925,79.585Zm39.995,67.252a33.456,33.456,0,1,1-33.458-33.45A33.457,33.457,0,0,1,137.92,146.837Z" transform="translate(-31.51 14.534)" fill="#4c9f38"/>
      </g>
      <path id="Path_13679" data-name="Path 13679" d="M73.805,70.48c-4.417,0-7.389,5.568-9.365,7.589-1.965-2.029-3.94-7.593-9.122-7.593-6.019,0-9.478,5.019-9.478,11.212a11.371,11.371,0,0,0,3.195,7.93l15.421,15.447,15.41-15.432-.015-.011a11.367,11.367,0,0,0,3.187-7.934C83.037,75.5,79.827,70.487,73.805,70.48Z" transform="translate(39.912 107.727)" fill="#4c9f38"/>
    </g>
    <g id="Group_2256" data-name="Group 2256" transform="translate(201.349 2794.518)" opacity="0.1">
      <g id="Group_2210" data-name="Group 2210" transform="translate(205.745 148.217)">
        <path id="Path_13680" data-name="Path 13680" d="M84.225,98.648v11.095c0,6.286-3.141,10.362-10.826,10.362-7.755,0-10.495-4.411-10.495-11.3v-5.144h6.949v5.682c0,2.67.939,4.408,3.546,4.408,2.338,0,3.207-1.668,3.207-4.073V98.718c0-2.475-.935-4.08-3.274-4.08-2.139,0-3.344,1.473-3.344,4.146v1H63.037V74.256H83.09v6.212h-13.1v11.3h.066c1.2-2.069,3.41-3.141,6.418-3.141C80.55,88.624,84.225,91.5,84.225,98.648Z" transform="translate(-62.904 -73.718)" fill="#4c9f38"/>
        <path id="Path_13681" data-name="Path 13681" d="M86.968,102.326V119.57H79.349V102.326l-8.491-28.07h7.954L83.426,91.43h.066l4.614-17.174H95.39Z" transform="translate(-41.569 -73.718)" fill="#4c9f38"/>
        <path id="Path_13682" data-name="Path 13682" d="M86.069,98.784V119.57H78.45V74.256H89.545c7.685,0,10.495,3.808,10.495,10.156v5.814c0,4.879-1.738,7.755-6.083,8.757l7.284,20.588H93.22Zm0-18.316v14.1h2.541c2.6,0,3.741-1.337,3.741-3.741V84.147c0-2.475-1.138-3.679-3.741-3.679Z" transform="translate(-21.205 -73.718)" fill="#4c9f38"/>
        <path id="Path_13683" data-name="Path 13683" d="M85.423,110.2v-6.083h7.085v6.216c0,2.537,1.138,4.01,3.745,4.01,2.4,0,3.472-1.605,3.472-4.01V108.6c0-2.607-1.068-4.209-3.406-6.418l-4.478-4.474c-4.345-4.279-6.352-6.886-6.352-12.1V84.071c0-5.616,3.277-9.961,10.693-9.961,7.619,0,10.631,3.745,10.631,10.3v3.675H99.861V84.137c0-2.607-1.2-3.877-3.609-3.877-2.139,0-3.612,1.2-3.612,3.741v.935c0,2.544,1.407,4.014,3.612,6.149l4.879,4.813c4.143,4.213,6.149,6.75,6.149,11.765v2.206c0,6.216-3.344,10.627-11.1,10.627S85.423,116.151,85.423,110.2Z" transform="translate(-2.501 -74.11)" fill="#4c9f38"/>
      </g>
      <g id="Group_2211" data-name="Group 2211" transform="translate(9.651 46.482)">
        <path id="Path_13684" data-name="Path 13684" d="M60.695,134.862a4.527,4.527,0,0,0-.155-.49,5.794,5.794,0,0,0-.383-.976,6.287,6.287,0,0,0-.427-.788c-.118-.191-.232-.372-.331-.512-.133-.177-.295-.346-.42-.523-.055-.04-.309-.309-.733-.766-2.931-3.112-13.695-14.534-14.869-15.816-1.911-2.092-.545-3.126-.545-3.126L55.68,98.709,35.729,78.092s-13.017,13.238-18.4,18.6c-8.5,8.506,0,17.414,0,17.414l29.02,29.02.048.055a8.463,8.463,0,0,0,6,2.467h.07a7.166,7.166,0,0,0,.847-.088,3.043,3.043,0,0,0,.446-.044,8.576,8.576,0,0,0,7.166-8.4c0-.07-.029-.162-.029-.239A6.268,6.268,0,0,0,60.695,134.862Z" transform="translate(0.811 38.306)" fill="#4c9f38"/>
        <path id="Path_13685" data-name="Path 13685" d="M53.06,78.092,33.124,98.709l12.844,13.157s1.359,1.035-.556,3.126c-1.178,1.281-11.923,12.7-14.865,15.816-.416.457-.678.725-.722.766-.151.177-.306.346-.435.523-.1.14-.214.32-.324.512-.162.25-.306.523-.442.788a6.937,6.937,0,0,0-.368.976,2.009,2.009,0,0,0-.158.49,6.823,6.823,0,0,0-.2,2.022c0,.077-.033.169-.033.239a8.512,8.512,0,0,0,5.932,8.09,7.976,7.976,0,0,0,1.245.306,2.806,2.806,0,0,0,.442.044,7.311,7.311,0,0,0,.851.088h.055a8.483,8.483,0,0,0,6.01-2.467l.059-.055,29.006-29.02s8.5-8.908,0-17.414C66.077,91.33,53.06,78.092,53.06,78.092Z" transform="translate(39.197 38.306)" fill="#4c9f38"/>
        <path id="Path_13686" data-name="Path 13686" d="M45.21,96.134A24.826,24.826,0,1,0,20.4,71.308,24.838,24.838,0,0,0,45.21,96.134Z" transform="translate(19.178 -46.482)" fill="#4c9f38"/>
        <path id="Path_13687" data-name="Path 13687" d="M312.046,99.963l-.114-.118-.173-.184-18.714-14.2-.092-.092-.015-.015a.861.861,0,0,0-.6-.243.85.85,0,0,0-.854.784.393.393,0,0,0-.015.07v0l0,.015v.405l-.011,7.331v2.416h-44.1V88.4h-3.719v7.729h-44.7a4.6,4.6,0,0,0-4.352,3.108l-13.168,38.373L162.231,54.7a4.6,4.6,0,0,0-4.36-3.564,4.677,4.677,0,0,0-4.544,3.321l-21.059,72.446c-9.467-9.467-31.451-31.447-34.68-34.684A8.1,8.1,0,0,0,91.6,89.568H56.49a8.088,8.088,0,0,0-5.98,2.655c-4.15,4.172-38.4,38.4-38.4,38.4a11.071,11.071,0,0,0-1.617,2.452,8.387,8.387,0,0,0-.331.784,7.646,7.646,0,0,0-.516,2.681,7.855,7.855,0,0,0,7.854,7.847,7.689,7.689,0,0,0,4.352-1.318,7.782,7.782,0,0,0,.733-.644l1.263-1.315,19.358-19.947s2.979-3.019,3.645.328v17.933h54.384V121.49c.667-3.347,3.646-.328,3.646-.328l19.358,19.947,1.256,1.315a7.6,7.6,0,0,0,.736.644,7.834,7.834,0,0,0,11.618-3.594,2.195,2.195,0,0,0,.261-.67l19.141-64.775,18.809,81.316a4.6,4.6,0,0,0,4.249,3.557c.077,0,.158.007.239.007A4.6,4.6,0,0,0,184.9,155.8l17.318-50.462h41.415v7.733h3.719v-7.733h44.088v2.721l0,7.236.007.258a.863.863,0,0,0,.858.814.854.854,0,0,0,.545-.191l.158-.122,18.806-14.541.177-.191a1.049,1.049,0,0,0,.265-.722A1.135,1.135,0,0,0,312.046,99.963Z" transform="translate(-9.651 -33.998)" fill="#4c9f38"/>
      </g>
    </g>
  </g>
</svg>
