<svg xmlns="http://www.w3.org/2000/svg" width="147.567" height="109.09" viewBox="0 0 147.567 109.09">
  <g id="heart" transform="translate(0 0.003)">
    <path id="Colour_-_Disease" data-name="Colour - Disease" d="M108.635,1.847a44.318,44.318,0,0,0-20.222.945A76.627,76.627,0,0,0,78.3,6.571c-1.808.757-3.59,1.607-5.385,2.456-.757.377-2.172,1.322-3.4,1.984A39.707,39.707,0,0,0,53.352,3.159a50.655,50.655,0,0,0-21.64-.178A29.632,29.632,0,0,0,8.375,32.465C8.088,66.483,46.36,76.6,65.166,97.954a4.857,4.857,0,0,0,2.363,1.511,5.6,5.6,0,0,0,7.922-.165l.111-.119c10.773-11.055,23.151-20.405,34.02-31.28,10.205-10.112,20.79-22.49,21.544-37.515A27.33,27.33,0,0,0,108.635,1.847Z" transform="translate(13.25 1.749)" fill="#fff"/>
    <g id="Icon_-_Disease" data-name="Icon - Disease" transform="translate(0 -0.004)">
      <g id="Group_837" data-name="Group 837" transform="translate(23.735)">
        <g id="Group_836" data-name="Group 836">
          <g id="Group_835" data-name="Group 835">
            <g id="Group_834" data-name="Group 834">
              <g id="Group_833" data-name="Group 833">
                <g id="Group_832" data-name="Group 832">
                  <path id="Path_1018" data-name="Path 1018" d="M9.218,13.8c.313.537.1-.178.08-.839Z" transform="translate(-9.143 20.518)" fill="#4c9f38"/>
                  <path id="Path_1019" data-name="Path 1019" d="M9.252,13.32l.062-.589A1.679,1.679,0,0,0,9.252,13.32Z" transform="translate(-9.097 20.162)" fill="#4c9f38"/>
                  <path id="Path_1020" data-name="Path 1020" d="M9.618,10.844c.054,1.271-.411,2.735-.062,3.549A6.573,6.573,0,0,0,9.618,10.844Z" transform="translate(-8.815 17.175)" fill="#4c9f38"/>
                  <path id="Path_1021" data-name="Path 1021" d="M9.329,12.152l.2.17-.214-1.136Z" transform="translate(-8.996 17.716)" fill="#4c9f38"/>
                  <path id="Path_1022" data-name="Path 1022" d="M9.211,13.035l.09-.152c0-.581-.036-1.17-.036-1.762C9.237,11.764,9.237,12.4,9.211,13.035Z" transform="translate(-9.154 17.613)" fill="#4c9f38"/>
                  <path id="Path_1023" data-name="Path 1023" d="M10.434,9.249c-.108.4-.16.821-.24,1.235-.545,1.09-.2-.85-.563-.124-.349,1.55.457.653,0,2.565a4.636,4.636,0,0,0,.429-1.55c.16-.705.367-1.341.517-1.137C11.116,8.7,10.354,10.117,10.434,9.249Z" transform="translate(-8.633 14.65)" fill="#4c9f38"/>
                  <path id="Path_1024" data-name="Path 1024" d="M33.232,5.266c.062-.036.108-.062.16-.09C33.312,5.2,33.232,5.225,33.232,5.266Z" transform="translate(28.87 8.203)" fill="#4c9f38"/>
                  <path id="Path_1025" data-name="Path 1025" d="M40.359.879c.3-.044.607-.108.9-.17A1.6,1.6,0,0,0,40.878.7Z" transform="translate(40.152 1.103)" fill="#4c9f38"/>
                  <path id="Path_1026" data-name="Path 1026" d="M30.4,4.391c-.214-.225-.429-.411-.617-.581A2.493,2.493,0,0,0,30.4,4.391Z" transform="translate(23.406 6.04)" fill="#4c9f38"/>
                  <path id="Path_1027" data-name="Path 1027" d="M48.312,26.533a.193.193,0,0,0,0-.16.056.056,0,0,0-.036.018l-.09.24Z" transform="translate(52.54 41.757)" fill="#4c9f38"/>
                  <path id="Path_1028" data-name="Path 1028" d="M49.924,1.217c.331.142.661.276.966.385A4.8,4.8,0,0,0,49.924,1.217Z" transform="translate(55.293 1.936)" fill="#4c9f38"/>
                  <path id="Path_1029" data-name="Path 1029" d="M27.566,2.436c.09.057.181.111.276.16-.08-.062-.2-.152-.331-.24l.036.062Z" transform="translate(19.815 3.739)" fill="#4c9f38"/>
                  <path id="Path_1030" data-name="Path 1030" d="M37.656,1.846c.287-.116.545-.225.752-.331A7.209,7.209,0,0,0,37.656,1.846Z" transform="translate(35.873 2.407)" fill="#4c9f38"/>
                  <path id="Path_1031" data-name="Path 1031" d="M14.134,3.788a3.051,3.051,0,0,0,.723-.517A1.515,1.515,0,0,0,14.134,3.788Z" transform="translate(-1.361 5.187)" fill="#4c9f38"/>
                  <path id="Path_1032" data-name="Path 1032" d="M16.66,2.208l-.044.018C16.678,2.26,16.7,2.244,16.66,2.208Z" transform="translate(2.568 3.504)" fill="#4c9f38"/>
                  <path id="Path_1033" data-name="Path 1033" d="M18.43,1.754l-.08.026C18.412,1.808,18.44,1.808,18.43,1.754Z" transform="translate(5.312 2.786)" fill="#4c9f38"/>
                  <path id="Path_1034" data-name="Path 1034" d="M14.414,4.253c.6-.189,1.02.214,1.395-.69h-.178a7.386,7.386,0,0,0,1.449-.876.687.687,0,0,0-.24-.036c-.258.116-.573.258-1.09.483C15.119,3.356,14.879,3.788,14.414,4.253Z" transform="translate(-0.918 4.206)" fill="#4c9f38"/>
                  <path id="Path_1035" data-name="Path 1035" d="M33.235,5.271" transform="translate(28.875 8.353)" fill="#4c9f38"/>
                  <path id="Path_1036" data-name="Path 1036" d="M32.089,5.614l.313.313A1.125,1.125,0,0,0,32.089,5.614Z" transform="translate(27.061 8.896)" fill="#4c9f38"/>
                  <path id="Path_1037" data-name="Path 1037" d="M23.781.775A.569.569,0,0,0,23.9.819C23.941.775,23.843.757,23.781.775Z" transform="translate(13.909 1.225)" fill="#4c9f38"/>
                  <path id="Path_1038" data-name="Path 1038" d="M32.472,5.993l-.258-.258A1.023,1.023,0,0,0,32.472,5.993Z" transform="translate(27.259 9.088)" fill="#4c9f38"/>
                  <path id="Path_1039" data-name="Path 1039" d="M26.526,1.823a.644.644,0,0,0,.09.054A.324.324,0,0,0,26.526,1.823Z" transform="translate(18.255 2.895)" fill="#4c9f38"/>
                  <path id="Path_1040" data-name="Path 1040" d="M20.787,29.215a5.143,5.143,0,0,1,.8.974c1.033.447-1.55-1.5-.214-.7a6.645,6.645,0,0,0-.922-.734l.225.715C21.435,30.011,20.327,28.965,20.787,29.215Z" transform="translate(8.63 45.532)" fill="#4c9f38"/>
                  <path id="Path_1041" data-name="Path 1041" d="M46.747,27.966l.178-.124c-.225-.018-.16-.152-.806.349-.323.661.723.189.054,1.235a4.224,4.224,0,0,1,.672-.617C46.318,28.976,46.5,28.467,46.747,27.966Z" transform="translate(49.169 44.035)" fill="#4c9f38"/>
                  <path id="Path_1042" data-name="Path 1042" d="M46.355,28.414a.085.085,0,0,1,.036,0,.789.789,0,0,0,.189-.054,3.508,3.508,0,0,1,.375-.3A2.711,2.711,0,0,0,46.355,28.414Z" transform="translate(49.643 44.419)" fill="#4c9f38"/>
                  <path id="Path_1043" data-name="Path 1043" d="M25.1,33.369c.134.152.258.287.375.4A1.166,1.166,0,0,0,25.1,33.369Z" transform="translate(15.993 52.831)" fill="#4c9f38"/>
                  <path id="Path_1044" data-name="Path 1044" d="M49.076,2.741c-.225-.044-.439-.09-.617-.108A1.94,1.94,0,0,0,49.076,2.741Z" transform="translate(52.974 4.177)" fill="#4c9f38"/>
                  <path id="Path_1045" data-name="Path 1045" d="M49.664,25.26a4.308,4.308,0,0,0,.385-.3l.072-.062a.481.481,0,0,1,.072-.054c.08-.08.142-.152.24-.258l-.331.287-.036.036-.036.036Z" transform="translate(54.881 38.92)" fill="#4c9f38"/>
                  <path id="Path_1046" data-name="Path 1046" d="M40.651,36.371c0-.589-.207.24-.966.643l-.4.69A13.079,13.079,0,0,0,40.651,36.371Z" transform="translate(38.447 57.26)" fill="#4c9f38"/>
                  <path id="Path_1047" data-name="Path 1047" d="M20.466,28.738a.049.049,0,0,1-.036.018l.054.036Z" transform="translate(8.605 45.5)" fill="#4c9f38"/>
                  <path id="Path_1048" data-name="Path 1048" d="M32.877,42.286c-.2-.026-.375-.054-.563-.09A3.812,3.812,0,0,0,32.877,42.286Z" transform="translate(27.417 66.804)" fill="#4c9f38"/>
                  <path id="Path_1049" data-name="Path 1049" d="M47.677,28.255l2.128-2.02-.69.517C48.966,27.191,47.793,27.79,47.677,28.255Z" transform="translate(51.736 41.538)" fill="#4c9f38"/>
                  <path id="Path_1050" data-name="Path 1050" d="M97.451,85.124h.367c1.725-2.415,4.667-4.184,5.812-6.339,3.174-1.824,1.126-2.19,4.024-3.874l-.17-.018c3-2.782,6.062-5.623,9.11-8.449l-.178.16,2.11-1.922,1.736-1.976c1.137-1.322,2.325-2.619,3.335-4s2-2.782,2.88-4.21a32.252,32.252,0,0,0,2.325-4.489l.152.1a47.036,47.036,0,0,0,2.4-5.92,33,33,0,0,0,1.449-6.367,28.747,28.747,0,0,0,.214-3.3c0-1.072-.018-2.11-.1-3.164a42.312,42.312,0,0,0-.839-6.32,32.066,32.066,0,0,0-5.114-11.882,30.237,30.237,0,0,0-9.7-8.764c-1.519-.625-.839.189-2.154-.258-.537-.258-1.78-.775-1.707-.974,1.126.331.589-.09.992-.018a21.054,21.054,0,0,0-5.871-1.9c.447.189.886.421,1.322.635a22.386,22.386,0,0,1-2.252-.517c.276-.09-.517-.581,0-.537a8.931,8.931,0,0,1-3.133-.385A6.469,6.469,0,0,0,101.809,0c-.643.573-4.391.775-6.832,1.55-.439,0-.876,0-1.3.026,1.718-.232-.108-.465,2.066-.672a23.728,23.728,0,0,0-5.135.9c.356.062.323.258-.313.517a14.369,14.369,0,0,0-2.325.313c.349-.189.69-.375,1.054-.555a5.461,5.461,0,0,0-2.048.839c-.313-.16-1.984.5-1.808.124-1.333.984-1.932,1.064-3.345,2.11,1.7-.661-.24.517.044.6.563-.367,1.126-.715,1.707-1.054-2.583,1.188.775-.483.421-.741,1.291-.411-1.333,1.439.643.4-1.144.672-1.842,1.072-2.531,1.493a15.444,15.444,0,0,0-2.35,1.78c1.271-.948-.1.4.679.036-1.653,1.126-.5.152-1.162.258-.894.625-1.369.653-2.012,1.5-1.519.938.026-.421-.806-.036.356-.661,4.283-2.521,3.358-3.022a22.758,22.758,0,0,1,2.885-2.128c-.573.232-1.291.517-1.994.876a11.046,11.046,0,0,0-1.046.6,6.9,6.9,0,0,0-.894.679l.232.483c-.9.625-.886,1.054-1.565,1.475.258-.367-.5-.116-1.2.439.258-.09.517-.3.5-.178-1.315,1-1.291,1.421-2.772,2.71a23.019,23.019,0,0,1,3.076-1.653c-.108.537-.821.661-1.5,1.235.072-.116.214-.24-.036-.142l-.635.715c-1.671,1.118-.142-.589-1.55.313-1.09.491-1.1,1.144-1.878,1.591a1.175,1.175,0,0,0,.189-.044,3.378,3.378,0,0,1-.349.258H71.3c-.2.189-.385.375-.581.563a2.472,2.472,0,0,0-.178.189,1.542,1.542,0,0,0-.116.142,1.18,1.18,0,0,0-.287.589c-.08-.09-.341.356-.517.653h-.026a2.21,2.21,0,0,1-1.341-1.291l.054.044c-.948-.93-1.653-1.707-1.333-1.635-.517-.491-1.054-.984-1.591-1.457l.411-.134a7.344,7.344,0,0,0-2.888-1.351,17.139,17.139,0,0,0-3.944-2.629,5.118,5.118,0,0,0-.653-.421l.607.563a17.359,17.359,0,0,0-2.092-1.1c.16.134.178.17-.276-.16l-.491-.3A1.275,1.275,0,0,1,56.5,6.1l-.1-.207c-.9-.938-1.769-.7-2.9-1.359.116.036.323.108.447.16-.625-.4-1.421-1.291-1.824-1.1a1.51,1.51,0,0,0-.679-.152l-.5-.232c.207.09.356.17.491.232-.356-.018-.7,0-.715-.09-.581-.225-1.18-.439-1.787-.635a4.38,4.38,0,0,0-1.217-.276l-.261-.2c-.69-.134-.672-.214-.581-.24A7.445,7.445,0,0,0,43.8,1.416a24.693,24.693,0,0,1-3.27-.16c-.483.258.581.356.661.483-.4.207-1.852.385-2.565.581a19.792,19.792,0,0,0-2.7-.3c-.966-.062-1.725-.16-1.485-.447-2.128.287.705.2-.331.517l-.235.028a4.725,4.725,0,0,1,1.751.178c.189.258-1.635.555-2.2.6l.331-.447c-1.9.465-1.377.984-2.449,1.609-1.5.225-.752-.323-1.144-.573-.517.17-1.033.341-1.529.545l-.09-.276a19.575,19.575,0,0,1-2.521,1.17c.876-.679-2.128.653-.93-.287-.806.24-.759.876-1.315.715-.367.537.723-.214,1.144-.287.483.258-1.55.948-2.307,1.573-.189-.152.439-.563-.653-.108a2.287,2.287,0,0,1-1.322.974c.17.24-1.033.806-1.55,1.224.607-.439,1.6-.868,1.359-.385a13.978,13.978,0,0,1-1.743,1.55l.775-.457a2.739,2.739,0,0,1-1.144,1.01,4.344,4.344,0,0,0-1.449,1.144c.323-.589.6-.876.886-1.4-.457.581-1.271,1.718-1.886,2.666-.393.225-.759.483-1.137.741.054.24-.886,1.17-.635,1.341-1.064,1.224.429-1.291.411-1.511a4.028,4.028,0,0,0-.974,1.55,3.926,3.926,0,0,1-1,1.467l.108-.7c-.385.545-.85,1.808-1.01,1.808.09.044.207-.258.4-.635.276.617-.966,2.888-.294,2.914.116-.258.258-.517.393-.775a23.343,23.343,0,0,1-.922,3.2c-.439.69-.207-.653-.2-1.155-.439,1.206.258,1.18-.2,2.6.3-.734.465-.517.491-.036.24-.821.956-2.449.617-2.245l-.152.276c-.124-.124-.018-.589,0-.832.439-1.1.457-.411.643-.581.868-1.736-.491-.385.287-2.012l.214-.152c.258-.85.93-2.012.752-2.415.752-.465,1.046-1.808,1.787-2.361.385.207-.116.775-.7,1.5a5.5,5.5,0,0,0-1.291,2.136c.635-.723.072.661.08,1.1.17-.465.349-.922.563-1.369s.4-.9.643-1.341c.225-.142,1.054-.589,1.144-1.18l-.152.17c.635-.984.189-.948.938-1.653.16-.072.054.258.054.356.661-.653.375-.705.759-1.217.705-.617-.08.581.517.08.545-.984,1.291-1.126,1.984-1.718-.3-.062.3-.775.814-1.333s.868-.992-.1-.563a22.552,22.552,0,0,1,1.78-1.55c.385-.072.116.258-.142.635s-.473.775-.1.775a16.507,16.507,0,0,0-1.485,1.01c.294.142.984-.483,1.824-1.118a11.689,11.689,0,0,1,1.322-.858,2.715,2.715,0,0,1,1.206-.349A9.126,9.126,0,0,1,26,6.484a9.426,9.426,0,0,1,1.55-.4l-.517-.4c.93-.225,1.3-.054,1.377.026a10.616,10.616,0,0,1,1.475-.465,1.812,1.812,0,0,1-.573.367c.741.054.912-.072,1.108-.294a4.215,4.215,0,0,1,1.457-.483l-.465.3c.341-.116.752-.258.775-.375a5.547,5.547,0,0,0,.672-.2,3.1,3.1,0,0,0-1.475-.232,19.965,19.965,0,0,1,5.786-.375c-.054.16-.814.421-.573.421.922-.018,1.914-.349,1.808-.573.214-.026.375-.044.517-.054a1.49,1.49,0,0,0,.85.258,1.577,1.577,0,0,0,.589.1c.152-.214.679-.276,1.206-.3a7,7,0,0,0,1.253-.072,8.835,8.835,0,0,0-1.431-.062c.734-.276,1.439-.573,2-.294-1.395.16,1.421.555-.643.517,1.387.643.775-.341,2.3.044.313.124.625.258.938.385-.207.258-1.6-.108-1.387.044l.679.062A17.808,17.808,0,0,1,43.2,4.35a10.206,10.206,0,0,0-2.746.2,23.389,23.389,0,0,1,3.12.258,20.088,20.088,0,0,1,6.2,1.2c2.066.69,3.988,1.529,5.641,2.084l-.134-.077c.062,0,.116-.036.225-.108l.1.142.705.142c.517.635,1.718,1.5,2.637,2.4-.545-.607-.555-.6-.491-.839.3-.17.483-.207,1.395.563-.116.189-.715-.232-.09.4-.313-.349.108-.24.545.036.465.5,1.341,1.18,1.224,1.359a1.961,1.961,0,0,1-.589-.491c-.276-.134.894.894.054.5l.992.661c.447.563-.545-.044-.393.214,1.663,1.064,2.753,1.3,4.21,2.379-.142.036-.473.385-.367.294a5.2,5.2,0,0,0,.734.635l.447.313c.214.16.429.313.653.473.858.625,1.653,1.18,2.379,1.808l.411-.439a2.318,2.318,0,0,1-.411.537c-.258-.232-.617-.589-.938-.839.323.341.643.672.938.974.6-.563,1.18-1.108,1.751-1.653s1.271-1.155,1.583-1.413c.8-.672,1.583-1.291,2.387-1.9a42.22,42.22,0,0,1,5.15-3.288l.7-1.072,1.17-.375C84.4,8.31,86.21,7.416,88.044,6.613a30.35,30.35,0,0,1,5.812-1.958c1.322-.24.85.225,1.485.276,1.449-.124,2.3-.258,3.247-.385a15.78,15.78,0,0,1,3.309-.225c-.411.116-1.108.491.116.617a1.264,1.264,0,0,1,1.188-.17l-.411.116c.679.3,1.395.152,2.815.517,2.549.439,4.972.775,7.17,1.137,2.092.984-.439.393-.072.679-1.4-.8-1.064-.331-1.449-.3.839.142,1.808.5,2.048.992.517.258.894.439,1.291.6a10.954,10.954,0,0,0,1.322.517c-.563-.189-.894-.6-.341-.465.393.276,1.1.752,1.671,1.17s.966.85.775.992a26.206,26.206,0,0,1,3.12,2.815A25.309,25.309,0,0,1,123.779,17a27.564,27.564,0,0,1,3.358,8.234c.457.93-.09-.775.2-.258.635,1.369.1,1.17.555,2.288l-.331-.439c.276,1.725.948,3.541,1.235,5.285-.287-.276-.16,1.431-.393,0,.09.85-1.144,1.914-.894,2.5.393-.287.775-.607,1.155-.93.124.054.054,1.235.124,1.108a13.7,13.7,0,0,0-.625,2.066c-.313.207-.124-1.01-.108-1.681-.457-.116-.473,2.216-.839,1.224-.062,1.4.276-.178.367.69-.08.411-.178.814-.276,1.217l.3-.93a4.972,4.972,0,0,1-.258,2.815c.044.517.072,1.033.09,1.55-.411.044-.375,1.02-.715,1.743l-.08-.545a6.707,6.707,0,0,1-.876,1.9c-.116-.661.4-.85.178-1.2l-.491,1.02c.207.072.116.806.517.09a7.1,7.1,0,0,1-1.033,4.21c-.858.894.258-1.291-.287-1.01a7.937,7.937,0,0,0-.956,2.728,4.735,4.735,0,0,1-.672,2.038c-1.291,1.663-.93,1.751-2.172,3.495.207-.69-1.118,1.033-1.55,1.17l.313-.821c-.331.555-.806.966-.821.705.349.124-1.519,2.288-2.325,3.513h.385a12.71,12.71,0,0,1-2.539,2.924.8.8,0,0,0-.062.072l-.072.062c-1.18,1.271-.734,1.2-1.519,2.387-.752.356-.9.072-.938-.341a17.862,17.862,0,0,0,1.645-1.377c.232-.276.447-.555.653-.832l.09-.08c.517-.715,1-1.377,1.493-2.048a12.176,12.176,0,0,1,1.62-2.136c.1-1.217-.922,1.217-1.808,1.886a.348.348,0,0,1,.08-.2c-.062.072-.124.134-.189.2.457-.679,1.217-1.751,1.09-2.165-.806,1.054-.1,1.253-1.413,2.263a4.355,4.355,0,0,1-1.653,1.217l-.178.152a5.352,5.352,0,0,0-.679.439c-.429.775-.062,1.224-1.653,2.6l.385-.93c-1.718,1.645-.4,1.2-2,2.717.589-.5-.258.806.806-.214a12.155,12.155,0,0,1-2.441,2.549c-.178.258.044.142.1.276,1.144-.723,1.322-1.645,2.379-2.118l.333-.93c.992-.741,1.322-.581.9.062a3.384,3.384,0,0,1,.653-.635c.6.323-1.224.858-1.155,1.55l.6-.635c.563.036-1.206,1.682-2.038,2.441-1.054.741-1.94,1.493-2.208,1.341l1.136-1.291c-.806.439-1.467,1.62-2.19,2.3a.883.883,0,0,0-.258.124c.054-.018.1-.018.116,0a1.464,1.464,0,0,1-.491.294c-.635.589-1.431,1.62-2.084,2.11l.258.124-.026-.189c.581-.545,1.475-1.18,1.18-.617a3.041,3.041,0,0,1-2.263,1.387c0-.589,1.271-1.217,1.824-1.958-.679.09-1.351,1.242-2.87,2.325.214-.839,1.55-1.493,1.55-2.066-1.136.984-1.188,1.485-2.4,2.5,0-.287,1.09-1.369.832-1.493l-.814.607c1.769-1.743-.705-.1.617-1.529-.775.5-.661,1.155-1.808,1.852.393-.108,1.395-.573.625.421l-1.108.886c-.573.258.723-1.359-.062-.858l-.956,1.136c.124.062.69-.375.491.062-.715.483-.643,1.341-1.224,2.183a4.633,4.633,0,0,1-1.369,1.046c-1.17,1.681-3.014,3.443-4.086,5,.723-1.072-.356-.294-1.046.08,1.01-1.054.723-1.359.457-1.485-.607.643-.715,1.359-.294,1.155-1.188.9-.517.922-1.663,1.619-.705.483,0-.589-.3-.5-1.162,1.1.044.672-1.271,1.808.026-.108.134-.232-.026-.189a3.84,3.84,0,0,0-1.322,1.718c-1.1.294-1.984,1.994-2.216,1.475-1.529,1.682.447-.026.258.421A10.252,10.252,0,0,1,82,93.914a9.129,9.129,0,0,1,1.108-1.17l-.607.062c-2.216,1.769-.7,1.842-2.888,3.505.876-1.108.134-.517.457-1.2-.24.356-1.852,1.769-.715,1.072-.759.69-1.315,1.137-1.867,1.573a12.035,12.035,0,0,0-1.4,2.03,14.941,14.941,0,0,1-2.611,1.878,20.775,20.775,0,0,1-1.55,1.609l-.752.705a1.928,1.928,0,0,1-.491.3,2.594,2.594,0,0,1-1.162.178,3.056,3.056,0,0,1-1.162-.276l.09.09c-.258-.189-.375-.287-.439-.287s-.026.124-.018.225.044.207-.026.214-.16-.018-.653-.5c.563-.09-.886-1.291-1.315-2.03-2.092-2.343-4.133-3.523-6.008-5.75.08-.054.294,0,.705.375-1.485-1.635-2.841-2.8-4.246-4.2l.1.018a61.6,61.6,0,0,0-6.884-6.375c.232.142.4.072.6.17a18.777,18.777,0,0,0-4.133-3.629c-1.108-1.689-1.033-.814-2.565-2.88-.044-.16.232.124.367.225-.8-.974-1.467-1.55-2.325-2.467a29.961,29.961,0,0,1-5.329-4.159c.313-.555,1.55,1.271,1.94.966A5.417,5.417,0,0,1,36.643,72.8c.555.2.189-.026.617.062-.375-.589-2.433-1.449-2.379-1.475-.108.062,0,.258.483.7-.814-.258-2.325-2.183-3.549-3.164.356.356,1.431,1.55.8,1.351a13.2,13.2,0,0,0-3.577-2.459c-1.2-1.55,1.395.617,1.439.054-.124-.341-.439-1.126.258-.679a33.656,33.656,0,0,0-3.513-2.864l.116-.054c-.4-.367-.832-.715-1.26-1.064s-.821-.69-1.224-1.02A10.614,10.614,0,0,1,22.8,60.062l.517.8a11.871,11.871,0,0,0-1.55-1.3c.2-.09-.555-1.26-.062-.938-1.162-.258-3.3-3.5-4.409-4.014-.189-.563.287-.331.517-.287.741,1.108.886,1.565,1.529,1.958-.679-.876-1-1.645-.775-1.591-1-.635-2.557-2.772-3.182-3.058-.258-.8-.517-1.529-.09-1.449-1.787-2.888-.124,2-1.932-1.421-.465-1.736,1.137,1.351.2-.886l.207.421c.036-1.932-1.1-.832-1.842-2.7.341-.411.839,1.144.635-.232a12.385,12.385,0,0,0-1.155-1.922,5.443,5.443,0,0,1-.821-2.066l.258.232a32.2,32.2,0,0,1-.759-4.489c.09-.062.09.108.134.323-.018-2.118-.341-.868-.08-2.611l-.258-.491a15.516,15.516,0,0,0-.17,1.762,6.381,6.381,0,0,0,.287,1.922c-.421-1.082-.331,1.824-.806,1.351l.2.2a24.917,24.917,0,0,0,2.521,10.489c1.55,1.922,1.86,3.73,3.616,5.714.7,0,.367.341,1.787,2.066-.775-.894-.429.152-.018.775a6.842,6.842,0,0,1,1.118,1.033,9.341,9.341,0,0,0,2.611,3.386c.775,1.126-.349-.116-.635-.258.16.6.912.672,1.072,1.137,0,0-.062.026-.178-.062.723.752,1.291,1.369,1.852,2.012S24.258,67.08,25,67.85c.517-.258,1.645,1.3,2.467,1.824-.349-.09.715.974,1.082,1.467l1.1.5c1.054.537.956,1.26,2.136,2.136l-.189-.313A17.724,17.724,0,0,1,34.814,77.2c7.86,6.036,10.569,10.954,18.241,17.936.6.349-.16-.537.385-.349.806.69.956.868,1.653,1.529-.517-.69-.537-.465-.349-.5l-1.162-.912c-.026-.08.108.026.062-.134a10.9,10.9,0,0,1-1.322-1.09c.752.517,1.217.421,2,1.387a1.71,1.71,0,0,1-.491-.331c.715.734.886.635,1.369,1.242.617.715.537.465.5.679l1.958,2.183a8.622,8.622,0,0,1,2.673,2.6c-.483.036-1.475-1.271-2.245-1.511l.573.922.258-.16,1.033,1.1-.1-.018a.815.815,0,0,1,.625.429c.018.072.072.232-.062.124l.886.635c-.661-.225.617.715.258.85a27.584,27.584,0,0,0,2.9,2.648c.207.17.4.341.607.517a8.545,8.545,0,0,0,.974.775,7.763,7.763,0,0,0,2.888,1.217c-.375-.134.036-.2.643-.287a14.418,14.418,0,0,0,2.165-.491c.806-.214,1.033-.287.6.08a6.2,6.2,0,0,0,1.511-1.18,3.519,3.519,0,0,0,.356-.214l.258-.152a5.739,5.739,0,0,0,.491-.341,10.7,10.7,0,0,0,.93-.814c.617-.589,1.271-1.291,2.154-2l.018.189a11.325,11.325,0,0,1,1.984-2.288l.044.375c1.26-.922.4-1.291,1.769-2.325-.232-.225-1.126.4-1.467.294.517-.044,1.878-1.291,1.4-1.155,1.136-1.291.858-.814,1.02-.858l.581-.839c.876-.821.573.036.385.483a10.61,10.61,0,0,1,2.557-2.539l-.258.465,1.242-1.118a13.423,13.423,0,0,1,2.8-2.888l-.4.984c.868-.517.258-.457.4-.69A4.575,4.575,0,0,1,92.3,90.006C93.778,87.968,96.369,87.072,97.451,85.124ZM47.435,2.328l.214.116C47.112,2.39,46.792,2.4,47.435,2.328ZM60.1,8.3c-1.475-.8-.93-.661-.966-.832,1.291,1.01,2.128,1.421,3.229,2.379a.724.724,0,0,1-.124-.429c.465.356.876.775.9,1.072C62.331,10.392,59.657,7.685,60.1,8.3ZM30.519,5.208a2.055,2.055,0,0,1,.152-.142h0Zm7.8-1.62a1.233,1.233,0,0,0,.563.152.624.624,0,0,0-.566-.152ZM53.471,7a5.227,5.227,0,0,0,1.55.886A13.716,13.716,0,0,0,53.471,7Zm75.608,26.682c-.08-.483-.276-1.377-.393-.555.16.385-.08,1.162.142,1.485a.4.4,0,0,0-.018.08,6.455,6.455,0,0,0,.266-1.01ZM105.859,73.69c-.062-.189.072-.581-.2-.517a.915.915,0,0,0,.108-.09c-.134.044-.24.08-.2-.018a4.658,4.658,0,0,0-.8.734c.31.506-.227,1.152,1.077-.111Z" transform="translate(-9.189 0.004)" fill="#4c9f38"/>
                  <path id="Path_1051" data-name="Path 1051" d="M50.591,23.542c-.116.142-.2.258-.258.341A2.193,2.193,0,0,1,50.591,23.542Z" transform="translate(55.94 37.275)" fill="#4c9f38"/>
                  <path id="Path_1052" data-name="Path 1052" d="M46.22,28.907a3.879,3.879,0,0,0,.821-.581A2.556,2.556,0,0,0,46.22,28.907Z" transform="translate(49.429 44.848)" fill="#4c9f38"/>
                  <path id="Path_1053" data-name="Path 1053" d="M10.026,8.938c.036-.16.08-.323.124-.473-.178.287-.341.573-.5.868-.356,1.62-.08,1.78.072,2.234a7.514,7.514,0,0,1,.4-1.9c.178-.607.457-1.242.775-2.118Z" transform="translate(-8.737 11.954)" fill="#4c9f38"/>
                  <path id="Path_1054" data-name="Path 1054" d="M10.5,8.6a2.734,2.734,0,0,0,.545-.6l-.062-.276C10.8,8.009,10.659,8.3,10.5,8.6Z" transform="translate(-7.115 12.233)" fill="#4c9f38"/>
                  <path id="Path_1055" data-name="Path 1055" d="M16.031,3.225c-.439.178-.868.375-1.291.563C14.429,4.147,15.959,3.556,16.031,3.225Z" transform="translate(-0.469 5.114)" fill="#4c9f38"/>
                  <path id="Path_1056" data-name="Path 1056" d="M12.748,4.131l-.473.7c.643-.393,1.351-1.072,1.359-1.322C12.947,4.229,13.365,3.578,12.748,4.131Z" transform="translate(-4.304 5.559)" fill="#4c9f38"/>
                  <path id="Path_1057" data-name="Path 1057" d="M16.558,3.078c.294-.5,1.395-.3,1.573-.715C17.81,2.577,16.485,2.712,16.558,3.078Z" transform="translate(2.471 3.75)" fill="#4c9f38"/>
                  <path id="Path_1058" data-name="Path 1058" d="M17.05,1.609c-.581-.1-1.253.473-2.172.868C15.619,2.069,16.836,1.958,17.05,1.609Z" transform="translate(-0.184 2.538)" fill="#4c9f38"/>
                  <path id="Path_1059" data-name="Path 1059" d="M21.106,1.584c-.044.258-.661.313-1.359.367A2.51,2.51,0,0,1,20.4,1.62c-1.126.356-1.206.356-2.092.625.948,0,2.325-.116,2.227.225C21.173,2.152,21.982,1.692,21.106,1.584Z" transform="translate(5.248 2.517)" fill="#4c9f38"/>
                  <path id="Path_1060" data-name="Path 1060" d="M18,1.269a9.533,9.533,0,0,0-2.307.517c.232.1.625.2,1.707-.232-.1.134-.2.258-.294.411C18.19,1.806,16.571,1.726,18,1.269Z" transform="translate(1.11 2.018)" fill="#4c9f38"/>
                  <path id="Path_1061" data-name="Path 1061" d="M23.19,1.784c-.16-.044-.313-.08-.473-.116a11.535,11.535,0,0,0-3.014.705A29.507,29.507,0,0,0,23.19,1.784Z" transform="translate(7.454 2.65)" fill="#4c9f38"/>
                  <path id="Path_1062" data-name="Path 1062" d="M18.907,1.342,18.98.913c-1.137.189.108.116-.276.294a2.9,2.9,0,0,0-1.033.214C18.925,1.063,17.82,1.709,18.907,1.342Z" transform="translate(4.236 1.455)" fill="#4c9f38"/>
                  <path id="Path_1063" data-name="Path 1063" d="M19.882,1.074l1.449-.3L20.143.439C18.423.775,20.078.679,19.882,1.074Z" transform="translate(6.901 0.704)" fill="#4c9f38"/>
                  <path id="Path_1064" data-name="Path 1064" d="M20.261,1.1l.17.072C21.147.944,21.87.686,22.6.487A11.4,11.4,0,0,0,20.261,1.1Z" transform="translate(8.337 0.78)" fill="#4c9f38"/>
                  <path id="Path_1065" data-name="Path 1065" d="M29.43,5.027c.294,0-.581-.894-.258-.429C28.893,4.572,30.091,5.724,29.43,5.027Z" transform="translate(22.327 7.076)" fill="#4c9f38"/>
                  <path id="Path_1066" data-name="Path 1066" d="M28.3,2.549a21.878,21.878,0,0,0,3.076,1.787C30.46,3.792,28.321,2.281,28.3,2.549Z" transform="translate(21.055 3.995)" fill="#4c9f38"/>
                  <path id="Path_1067" data-name="Path 1067" d="M29.813,3.4c-.062-.036-.189-.1-.323-.17A2.568,2.568,0,0,0,29.813,3.4Z" transform="translate(22.947 5.114)" fill="#4c9f38"/>
                  <path id="Path_1068" data-name="Path 1068" d="M40.543.483A1.648,1.648,0,0,0,40.8.367,2.318,2.318,0,0,1,40.543.483Z" transform="translate(40.443 0.59)" fill="#4c9f38"/>
                  <path id="Path_1069" data-name="Path 1069" d="M41.381.774a4.683,4.683,0,0,0-1.932.9c.9-.429,1.725-.759,2.826-1.271C41.846.549,41.283.585,41.381.774Z" transform="translate(38.711 0.654)" fill="#4c9f38"/>
                  <path id="Path_1070" data-name="Path 1070" d="M44.336.065c-.447.1-1.126.054-.956.214C43.665.349,44.641.189,44.336.065Z" transform="translate(44.892 0.112)" fill="#4c9f38"/>
                  <path id="Path_1071" data-name="Path 1071" d="M54.956,15.445c-.258.705-.3,1.155,0,1.02C55.144,15.652,54.886,16.052,54.956,15.445Z" transform="translate(62.923 24.458)" fill="#4c9f38"/>
                  <path id="Path_1072" data-name="Path 1072" d="M55.038,16.21l-.152.062-.331.421Z" transform="translate(62.623 25.669)" fill="#4c9f38"/>
                  <path id="Path_1073" data-name="Path 1073" d="M53.951,18.3a.753.753,0,0,1,.026-.331C53.886,18.244,53.817,18.495,53.951,18.3Z" transform="translate(61.548 28.452)" fill="#4c9f38"/>
                  <path id="Path_1074" data-name="Path 1074" d="M53.955,17.91c-.018.044-.026.1-.044.142A.9.9,0,0,0,53.955,17.91Z" transform="translate(61.604 28.36)" fill="#4c9f38"/>
                  <path id="Path_1075" data-name="Path 1075" d="M54.139,17.865l-.1-.108a3.388,3.388,0,0,1-.108.393C53.976,18.015,54.048,17.881,54.139,17.865Z" transform="translate(61.637 28.118)" fill="#4c9f38"/>
                  <path id="Path_1076" data-name="Path 1076" d="M53.634,19.28c.258-.24.517-.491.775-.741.258-1.033-.672,1-.617-.108Z" transform="translate(61.165 28.876)" fill="#4c9f38"/>
                  <path id="Path_1077" data-name="Path 1077" d="M54.469,19.831c-.617.759-.9,2.27-1.6,2.467-1.431,2.4,1.02-.08-.759,2.611,2-2.325.232-1.743,1.94-3.81C53.11,22.021,54.355,20.26,54.469,19.831Z" transform="translate(58.75 31.401)" fill="#4c9f38"/>
                  <path id="Path_1078" data-name="Path 1078" d="M53.9,19.855c-.108-.258-.775.806-.876,1.206C53.254,20.767,53.861,20.4,53.9,19.855Z" transform="translate(60.208 31.376)" fill="#4c9f38"/>
                  <path id="Path_1079" data-name="Path 1079" d="M52.309,21.6l-.661.573-.018.258Z" transform="translate(57.993 34.206)" fill="#4c9f38"/>
                  <path id="Path_1080" data-name="Path 1080" d="M51.207,23.04l.331-.8C51.434,22.513,50.621,23.442,51.207,23.04Z" transform="translate(56.99 35.221)" fill="#4c9f38"/>
                  <path id="Path_1081" data-name="Path 1081" d="M50.108,23.749c-.563.411-.635,1.315.375.178l-.258.225C50.214,24.018,49.491,24.41,50.108,23.749Z" transform="translate(54.938 37.603)" fill="#4c9f38"/>
                  <path id="Path_1082" data-name="Path 1082" d="M47.312,27.478c.411-.375.832-.894.661-.9l-1.02,1.155Z" transform="translate(50.59 42.075)" fill="#4c9f38"/>
                  <path id="Path_1083" data-name="Path 1083" d="M47.552,28.275c.625-.09,1.01-1.02,1.834-1.635A16.953,16.953,0,0,0,47.552,28.275Z" transform="translate(51.538 42.179)" fill="#4c9f38"/>
                  <path id="Path_1084" data-name="Path 1084" d="M46.462,27.87a4.033,4.033,0,0,1,1.01-1.02C47.185,26.835,46.48,27.6,46.462,27.87Z" transform="translate(49.812 42.511)" fill="#4c9f38"/>
                  <path id="Path_1085" data-name="Path 1085" d="M47.285,28.973c-.465.24-.062-.225-.411-.036a7.046,7.046,0,0,0-1.984,1.994c.313-.08.886-.044.7.393,1.144-1.291,1.291-2.387,2.263-2.583l.581-1.457C47.373,28.16,47.991,28.338,47.285,28.973Z" transform="translate(47.326 43.199)" fill="#4c9f38"/>
                  <path id="Path_1086" data-name="Path 1086" d="M47.919,27.346l-.814.483c.276.026-.2.537-.5.922C47.105,28.929,47.56,27.731,47.919,27.346Z" transform="translate(50.037 43.297)" fill="#4c9f38"/>
                  <path id="Path_1087" data-name="Path 1087" d="M44.063,30.572,42.73,32l.483-.421Z" transform="translate(43.905 48.403)" fill="#4c9f38"/>
                  <path id="Path_1088" data-name="Path 1088" d="M43.485,30.9l-.124-.062-.9,1.217Z" transform="translate(43.473 48.831)" fill="#4c9f38"/>
                  <path id="Path_1089" data-name="Path 1089" d="M42.246,31.993l.178-.142.741-.876Z" transform="translate(43.139 49.041)" fill="#4c9f38"/>
                  <path id="Path_1090" data-name="Path 1090" d="M41.089,33.135l.393-.108c.323-.375,1.188-.9.93-1.033A4.192,4.192,0,0,1,41.089,33.135Z" transform="translate(41.307 50.653)" fill="#4c9f38"/>
                  <path id="Path_1091" data-name="Path 1091" d="M39,37.616c.16-.341-.072-.276-.3-.214l-.17.625C38.634,37.895,38.848,37.644,39,37.616Z" transform="translate(37.245 59.136)" fill="#4c9f38"/>
                  <path id="Path_1092" data-name="Path 1092" d="M38.38,38.693l-.775,1.291a28.182,28.182,0,0,0,2.2-2.539c-.517.341-.956,1.137-1.583,1.6Z" transform="translate(35.792 59.283)" fill="#4c9f38"/>
                  <path id="Path_1093" data-name="Path 1093" d="M30.129,40.4c.258-.09,0-.287.894.341-1.17-.912-2.038-1.824-3.28-2.968.1.313-1-.367-.483.036l1.457,1.2-.323-.072C29.21,39.976,29.21,39.323,30.129,40.4Z" transform="translate(19.195 59.655)" fill="#4c9f38"/>
                  <path id="Path_1094" data-name="Path 1094" d="M9.893,16.841c.16.134.207-.108.258-.349C9.707,15.472,9.976,17.037,9.893,16.841Z" transform="translate(-8.085 25.565)" fill="#4c9f38"/>
                </g>
              </g>
            </g>
          </g>
        </g>
      </g>
      <g id="Group_842" data-name="Group 842" transform="translate(0 23.124)">
        <g id="Group_841" data-name="Group 841">
          <g id="Group_840" data-name="Group 840">
            <g id="Group_839" data-name="Group 839">
              <g id="Group_838" data-name="Group 838">
                <path id="Path_1095" data-name="Path 1095" d="M.439,21.806c-.672.124.367.457-.439.207C.09,21.8.225,21.635.439,21.806Z" transform="translate(0 11.29)" fill="#4c9f38"/>
                <path id="Path_1096" data-name="Path 1096" d="M117.363,32.862c-2.183,1.369-5.042-.018-7.431.858-.276.054.072-.752-.555-.563a14.168,14.168,0,0,1-8.782-.393l.17-.214c-.537-.152-1.17.545-1.842.447-.036-.142.189-.2,0-.393-.108.421-1.2.2-1.333.517a3.166,3.166,0,0,1-.517-.411.307.307,0,0,0-.3-.026c.018.258.036.517.072.775a2.072,2.072,0,0,1-.617,1.808,2.984,2.984,0,0,0-.956,1.565c-.062-.108-.072-.258-.214-.24a32.683,32.683,0,0,1-2.942,6.044.748.748,0,0,0-.537-.4c.367.367.1,1.01-.142,1.565-.581-.062-.152,1.108-.775,1.55l-.062-.116c.178.734-.679.473-.356,1.17l-.517.054c.491.589-.723.421-.643.974l.134.072c-.072.439-.491.411-.589.775l-.09-.018c-.313.839-.93,1.033-.439,1.333-.545,0,.287-.821-.537-.775a48.377,48.377,0,0,1-4.691,8.092c-.2-.124-.3-.09-.323-.447a15.719,15.719,0,0,0-.832,2c.054-.108-.026-.5-.1-.447-.189-.09-.517,1.762-.775,1.932a1.244,1.244,0,0,0,0-.2.393.393,0,0,0,.062-.1A7.87,7.87,0,0,0,81.2,58.34c-.036.116-.072.232-.116.367-.258.393-.367-.356-.563-.625a.947.947,0,0,0,.232-.517c-.207.258-.258-.134-.294-.517s-.044-.775-.207-.775l.258-.393c.08-1.55-.5.956-.517-.258.116.036.189-.258.287-.429-.276.134-.465-.24-.607-.69a9.546,9.546,0,0,0-.429-1.271c.044,0,.116-.1.116-.1a13.681,13.681,0,0,0-.715-2.637c.072-.393.775-.16.5-.93-.643.17-.563-1.322-1.2-.69A5.8,5.8,0,0,0,77.6,46.59c.313.258.723-.517.9.054l.294-.517c.276,0,0,.465.313.258a5.516,5.516,0,0,1-.473-1.351c-.517-.447-1.359-.775-1.627-1.635.341.356.661-.385.839-.134l-1.5-.948c-.09-.287.5-.17.24-.555-.17.062-.313-.1-.473-.2.054-.124-.421-1.162.2-1.431.225-.178.232.439.393.072-.124-.537-.341-.517-.465-1.033l.08-.026c.018-.375-.491-.984-.775-.517.036.258.367-.178.258.225-.429-.17-.661-.775-.775-1.291.142.16.3.1.5.134a6.791,6.791,0,0,1-1.359-2.092c-.3.054.617.178.483.331.207-1.118-1.046-1.994-.617-2.978.08.124-.411.17-.331.142-.072-.5.375-.573.142-.858.258-.09-.17-.385-.323-.705-.225-.134.108-.116.2.17A6.052,6.052,0,0,1,72.76,28.4c-.178.018-.69-.142-.679-.225l.393-.134c.2-.232-.124-.393.189-.635-.258.018-.1.214.072.429s.367.483.134.323c.152-.108-.036-.214-.189-.258s-.258-.072,0-.178c-.08-.3-.517-.17-.258-.734-.044.116.517-.232.447-.483-.16-.4-.189.044-.375-.16a1.39,1.39,0,0,0-.178-.018c-.3.465-.026-.393-.341.294.232-.491-.24-.17.232-1.126l.375-.723c-.072-.16-.447.517-.625.8.026-.1.09-.323.142-.457-.258.661-.258.563-.258.385s0-.439-.189.1a14.757,14.757,0,0,1,.08-2.11c-.178.313-.341.93-.323.189a2.784,2.784,0,0,0,.142-.617c.054-.85-.044-.323-.124-.09,0-.072.026-.2.036-.367a8.583,8.583,0,0,0-.08-1.26,23.59,23.59,0,0,0-.323,2.728c.036-.956-.09-.421-.178.072s-.16.956-.225.287a5.728,5.728,0,0,0,.09-1.485c-.062-.759-.152-.258-.214.323s-.116,1.224-.24,1.046l.142,1.18c-.062-.331-.108-.018-.142.178s-.054.313-.134-.276c.018.5-.258.062-.036,1.01-.207-.178-.349.258-.473.537s-.287.429-.821.232c.036.17-.17.331.124.473.349.09-.108-.356.116-.258-.026.09.108.225.17.287-.189.054-.313.207-.661-.287-.294.142-.108.385.026.759a.966.966,0,0,1-.044,1.144c-.214-.16-.341-.134-.439.16l.142.723c-.4.563-.705.08-1.118-.1-.09.356-.313.752-.09,1.046l-.7.152c.517-.108.108.393.124.589l-.018-.207c-.2-.026-.287.411-.331.625.258.08.563-.258.741-.439.09.258-.08.491.018.821-.356-.258-.545.393-.715.635-.232.258.189.517.124.589-.207-.09-.276.473-.447.1-.018-.134.313-.134.214-.393-.258.124-.589-.08-.537.457.044.4.814.3.276.775-.018-.207-.16-.3-.24-.491l-.473.447.349.2c-.124.026-.134-.036-.2-.026.294.349-.3.894.062,1.224-.1.294-.537.457-.705.7v-.062a.969.969,0,0,0-.341,1.1l-.072-.054a1.278,1.278,0,0,0-.17.93c-.491.313-1.421-.517-1.217.2a.737.737,0,0,0,.462.932.833.833,0,0,0,.155.034,3.547,3.547,0,0,0-.617,1.271,3.115,3.115,0,0,1-.976,1.395c.044.276.189.214.062.672a19.119,19.119,0,0,0-1.064,2.227,8.532,8.532,0,0,1-3.874-.349c.581-.17.018-.393.018-.625-.367.356-.393-.367-.517.24.036.356,0,.537.375.679a3.616,3.616,0,0,1-2.433-.142c.225.17.054.276-.124.385.054-.573-.517-.661-.966-.457l-.062.349-.287-.356c-.17.108-.189.734-.625.393a.881.881,0,0,0-.124-.375c-.457.287-1.1.775-1.6.473l-.4-.517c-.214.054-.573.367-.2.517-.85-.3-1.395-.349-1.663-.775A8.457,8.457,0,0,1,43.075,46l.054-.258c-.457-.24-.232.457-.555.276.142-.258-.349-.545,0-.85-.653-.276-.839.457-1.26.573-.062.341.341-.225.258.214-.072.124-.9-.258-1,.258-.16-.207-.036-.589.054-.8l-.4.258c-.483-.607,1.108-1.082.6-1.834l-.367.08c-.349-.545.974-.617.054-.806-.4.258-.741,1.01-.385,1.242-.832.142-.385,1.242-1.291,1.2-.24-.3.715-.072.545-.5-.421-.421-.85.232-1.217.09.421.2.062.723-.207.814-.457-.24.294-.491-.349-.545-.108.3-.7.517-.189.734-.232.679-.672-.189-1.02.341-.214-.473.661-1.108-.044-1.351.116.465-.876.625-.5,1.315a.515.515,0,0,1-.155-.713.389.389,0,0,1,.046-.062c-.393-.287-.966.839-1.09-.072l-.134.473c-.124-.152-.3-.258-.5-.517-.349,0-1.126.635-1.09-.072-.116.072-.912.044-.6.537.491.3.573-.356.85.3-.349-.545-.715.072-1,.258l-.044-.276c-.17.108-.563.044-.672.349a.257.257,0,0,0-.008-.364.229.229,0,0,0-.065-.046l-.178.421c-.7.207-.16-.734-.839-.617l.517-.323c-.116.072-.341-.323-.661-.189-.124.385-.356.839-.465,1.137-.385.17-.17-.429-.545-.036l.491-.465c.072-.124-.331-.635-.839-.625-.323.134-.832.69-.313.894-.258,0-.607-.225-.411-.517-.581.134.072.411-.421.653-.207-.258-.839-.617-1.224-.992l.517-.643-.411.018c.447-.517-.225-.393.026-.93-.232-.09-.517.1-.752.24.69.868-.775,1.18-.573,1.976-.948.214-.589-1.922-1.573-.69.16.207-.3.806.294.581-.589-.09-.4.8-1.09.465.517-.323-.555-.806.189-1.271-.054.258.411.2.517.124-.24-.3.054-.8-.555-.8-.367.072-.868.09-.8.5.018.457.563-.044.323.411-.734.16-.858-.517-1.155.258.465-.062.581.4.573.715l-.537.189.108-.3c-.858-.214-.258.545-1.09.465l-.393-.589c.2-.517,1.217.225,1.064-.607-.545-.036-.723.385-1.235.17.116-.072.258-.09.385-.17-.2-.026-.385-1.126-1.162-.483-.4.258-.108.294-.116.607-.868.1-1.137.411-1.689.465.116-.607-.992-.062-.375-.679a1.44,1.44,0,0,0,1.86-.258c-.323-.723.69.1.876-.625-.7-.018-.661-.723-.775-1.188-.2-.036-.385.16-.5.232-.08.439.17.429.189.886a2.324,2.324,0,0,0-1.958.555.4.4,0,0,1,.134-.7,10.15,10.15,0,0,1-2.8-.062c.573.715-.984.17-.6.759.473.16.876.672.617.992-.294-.044,0-.313-.116-.465-.375.393-.581-.625-.956,0,.85-.232.16-.868.323-1.431-.607.313.026-.393-.581-.393a7.662,7.662,0,0,1-2.038.679c-.85-.517-2.154,0-2.914,0-.393-.287-.124-.912-.563-1.033-.517,0,.375.679-.375.393l.072-.124c-.225.142-1.377-.429-1.591.483l.232-.69c-.142-.062-.258.1-.385.17,0-.225-.17-.429.062-.573-.465-.473-.974.072-1.475.1l.323.4c-.858.323-1.439-.08-2.27.062l.026-.393L1.3,43.61A.341.341,0,0,0,.7,43.3l1.291-.974c.356.232-.393.483-.17.868.189.341.966.232,1.082-.152-.294-.044-.313.044-.537.189-.1-.555.349-.517.573-.9-.152.026-.375-.142-.411.026a1.531,1.531,0,0,1,1.118-.323c-.341.214.189.341.054.5.044-.483.517-.635,1.144-.5.447.563,1.17-.356,1.9-.207A2.619,2.619,0,0,1,5.629,42.9c.457.258.517-.018.966.232.225-.367.375-.93.966-1.155l.036.367c.537-.189.537-.723,1.224-.625a31.459,31.459,0,0,0,3.273.225l.036.356c.5-.775,1.653-.287,2.325-.635,1.144.349,2.477-.349,3.058.276a27.811,27.811,0,0,1,5.856-.421l-.349.517c.375-.385.24.3.607.225-.421-.421.517-.545.775-.868a3.881,3.881,0,0,0,2.942-.4l.036.367c.832-.679,1.824-.08,2.862.026.116.152.3.491.617.447.563-.589.858-.545,1.682-.912a7.356,7.356,0,0,1,2.19.375,49.165,49.165,0,0,1,6.93-.8l.17.429c2.281-.912,5.088-.08,7.036-.555l-.189.734c.607.225,1.395-.189,1.235-.705.607.225,1.529-.356,1.914.24.625.134.775-.341,1.291-.439a6.94,6.94,0,0,0,2.9.08l-.294-.044c-.134.16-.142.473.152.517a4.092,4.092,0,0,1,.922-.09c.2-.036.178-.152.108-.589a.366.366,0,0,0,.509.1.309.309,0,0,0,.054-.044c.036-.24.054-.356.4-.331-.214-.108-.214-.207-.349-.3l.062-.108.108-.178.232-.356c.16-.232.323-.465.473-.69a2.751,2.751,0,0,0,.563-1.387c.189-.108.232.429.457.036.036-.276-.276-.142-.258-.5.4-1.808,2.03-3.048,2.648-4.551A29.741,29.741,0,0,1,63.5,27.691c.331-.672.672-1.333.992-1.984.563-1.144,1.126-2.281,1.671-3.389l.09.214a5.321,5.321,0,0,1,1.17-2.423,4.613,4.613,0,0,0,.992-2.637c.232-.09.7-1.217.643-.367a6.6,6.6,0,0,1,1.1-2.281,9.305,9.305,0,0,0,1.315-2.914,2.338,2.338,0,0,0-.214.653,20.131,20.131,0,0,0,1.886-3.616,14.789,14.789,0,0,1,.189,1.467c-.072.026-.17-.152-.258.3,0,.832.16.69.294.741s.232.258.08,1.55c.09.367.258-.806.2-1a48.511,48.511,0,0,0,1.341,6.269c.517,1.932,1.155,3.944,1.718,6.153.116,1.769-.214,1.9-.421,1.958s-.3-.044.24.974c-.116.225.341.062.178.134.356.555-.734,1.072-.214,1.377.473-.258.341.2.643.142-.09,1.18-.5,1.5.072,2.3h-.276c.974.868.821,2.146,1.878,2.841.69,2.826,1.439,5.571,2.183,8.3.367,1.369.734,2.728,1.1,4.094l.517,2.048.062.258a.751.751,0,0,0,.044.17h.018l.026.018c-.054.134,0,.232.036.225.08-.178,0-.044.323-.08l.116.054a.814.814,0,0,0,.189-.09,3.956,3.956,0,0,0,.341-.214,2.166,2.166,0,0,0,.465-.4,5,5,0,0,0,.672-1.351c.062.116.036.207.178.178-.447-.385.517-.894.124-1.315,1.235-1.7,2.154-3.415,3.327-5.23-.134.323.178.723.367.367l-.08-.563.17.026c.08-.276,0-.69-.313-.555A37.2,37.2,0,0,1,91.43,35.7c.5-.7,1.02-1.387,1.55-2.066l.2-.258.108-.142.178-.258.715-1.01,1.4-1.976,2.8.059,1.3.044.723.036c.966.044,1.922.062,2.88.036a18.6,18.6,0,0,0,4.435-.1,35.655,35.655,0,0,0,11.882.868A2.985,2.985,0,0,1,117.363,32.862Z" transform="translate(1.102 -8.949)" fill="#4c9f38"/>
                <path id="Path_1097" data-name="Path 1097" d="M.494,21.742c.142.294.617.457.24.85C.68,22.305.44,22,.494,21.742Z" transform="translate(0.769 11.302)" fill="#4c9f38"/>
                <path id="Path_1098" data-name="Path 1098" d="M5.505,22.922c.018-.09.178.116.225.17-.152.018-.3.258-.429.116C5.451,23.18,5.422,23.046,5.505,22.922Z" transform="translate(8.391 13.134)" fill="#4c9f38"/>
                <path id="Path_1099" data-name="Path 1099" d="M7.33,22.977c-.044.258-.741.465-1.144.5Z" transform="translate(9.792 13.257)" fill="#4c9f38"/>
                <path id="Path_1100" data-name="Path 1100" d="M7.892,23.393c.258.225.189.341-.16.331C7.706,23.589,7.823,23.517,7.892,23.393Z" transform="translate(12.234 13.915)" fill="#4c9f38"/>
                <path id="Path_1101" data-name="Path 1101" d="M7.88,23.161a.612.612,0,0,1,.5.294C8.373,23.241,7.8,23.6,7.88,23.161Z" transform="translate(12.461 13.548)" fill="#4c9f38"/>
                <path id="Path_1102" data-name="Path 1102" d="M10.417,23.515c.16-.018.5-.24.643.054C10.9,23.373,10.29,23.9,10.417,23.515Z" transform="translate(16.462 13.954)" fill="#4c9f38"/>
                <path id="Path_1103" data-name="Path 1103" d="M11.583,23.3c.1.018.134.062.258,0,.178.116,0,.313-.16.341Z" transform="translate(18.335 13.771)" fill="#4c9f38"/>
                <path id="Path_1104" data-name="Path 1104" d="M27.758,15.2l-.054.4-.018-.537C27.7,15.1,27.738,15.151,27.758,15.2Z" transform="translate(43.826 0.726)" fill="#4c9f38"/>
                <path id="Path_1105" data-name="Path 1105" d="M29.378,19.952c.232.287-.189.276-.214.341C29.07,20.006,29.5,20.327,29.378,19.952Z" transform="translate(46.143 8.468)" fill="#4c9f38"/>
                <path id="Path_1106" data-name="Path 1106" d="M30.8,24.9l-.026-.1.517-.08Z" transform="translate(48.719 16.019)" fill="#4c9f38"/>
              </g>
            </g>
          </g>
        </g>
      </g>
    </g>
  </g>
</svg>
