<svg xmlns="http://www.w3.org/2000/svg" width="738.805" height="516.901" viewBox="0 0 738.805 516.901">
  <g id="sdg3-watermark" transform="translate(-673.681 -229.045)" opacity="0.25">
    <path id="Path_2288" data-name="Path 2288" d="M625.512,458.9c0-30.967-19.815-56.091-50.083-56.091-15.041,0-33.271,16.462-43.168,26.729-9.918-10.082-26.893-26.729-41.934-26.729-30.082,0-51.317,25.125-51.317,56.091a56.118,56.118,0,0,0,15.926,39.629l77.16,77.326,77.16-77.326h0A55.059,55.059,0,0,0,625.512,458.9" transform="translate(786.974 43.57)" fill="#fff"/>
    <path id="Path_2289" data-name="Path 2289" d="M580.631,814.087h-.7a12.624,12.624,0,0,1-11.687-10.432L528.944,575.2,469.479,685.445a12.976,12.976,0,0,1-13.457,6.544,12.394,12.394,0,0,1-10.267-10.618l-25.309-176.42-46.193,103.7a12.56,12.56,0,0,1-11.5,7.427H183.327a12.737,12.737,0,0,1,0-25.474H354.438l60.7-136.439a12.83,12.83,0,0,1,13.272-7.428,12.408,12.408,0,0,1,10.8,10.8L465.4,639.272l58.58-108.642a12.684,12.684,0,0,1,23.7,3.889l36.276,211.646L716.33,306.248a12.671,12.671,0,0,1,23.539-1.955l69.712,144.4a12.708,12.708,0,1,1-22.839,11.151l-55.556-115.02L592.832,805.075a13.066,13.066,0,0,1-12.2,9.012" transform="translate(503.091 -68.14)" fill="#fff"/>
  </g>
</svg>
