<svg xmlns="http://www.w3.org/2000/svg" width="122.45" height="35" viewBox="0 0 122.45 35">
  <g id="target3.1" transform="translate(-37.317 22.697)">
    <g id="Group_2201" data-name="Group 2201" transform="translate(37.317 -22.697)">
      <path id="Path_13657" data-name="Path 13657" d="M159.767,12.3H37.317v-35h122.45ZM39.329,10.291H157.754V-20.685H39.329Z" transform="translate(-37.317 22.697)" fill="#4c9f38"/>
    </g>
    <g id="Group_2202" data-name="Group 2202" transform="translate(44.159 -15.672)">
      <path id="Path_13658" data-name="Path 13658" d="M40.717-19.086h9.146v2.807H47.026V1.38H43.555V-16.279H40.717Z" transform="translate(-40.717 19.327)" fill="#4c9f38"/>
      <path id="Path_13659" data-name="Path 13659" d="M45.188,1.38,49.05-19.086h3.924L56.868,1.38H53.336L52.7-2.363H49.05l-.6,3.743ZM49.5-5.11H52.25l-1.36-8.211h-.028Z" transform="translate(-36.19 19.327)" fill="#4c9f38"/>
      <path id="Path_13660" data-name="Path 13660" d="M55.288-8.008V1.38H51.847V-19.086h5.011c3.471,0,4.737,1.721,4.737,4.588v2.626c0,2.2-.783,3.5-2.747,3.954l3.292,9.3H58.516Zm0-8.271v6.369h1.147a1.49,1.49,0,0,0,1.69-1.69v-3.019c0-1.117-.513-1.66-1.69-1.66Z" transform="translate(-29.449 19.327)" fill="#4c9f38"/>
      <path id="Path_13661" data-name="Path 13661" d="M63.039-9.426h4.888V1.5H65.454V-.732a3.1,3.1,0,0,1-3.292,2.475c-2.958,0-4.315-2.355-4.315-5.524v-9.9c0-3.2,1.537-5.524,5.16-5.524,3.805,0,4.92,2.113,4.92,5.132v1.811H64.79v-2.083c0-1.268-.483-1.992-1.723-1.992s-1.779.875-1.779,2.113V-3.237c0,1.238.513,2.113,1.688,2.113,1.117,0,1.69-.634,1.69-1.962V-6.709H63.039Z" transform="translate(-23.374 19.206)" fill="#4c9f38"/>
      <path id="Path_13662" data-name="Path 13662" d="M64.206-19.086h8.211v2.807H67.647v5.856h3.411v2.777H67.647v6.218h4.769V1.38H64.206Z" transform="translate(-16.936 19.327)" fill="#4c9f38"/>
      <path id="Path_13663" data-name="Path 13663" d="M69.08-19.086h9.146v2.807H75.389V1.38H71.917V-16.279H69.08Z" transform="translate(-12.002 19.327)" fill="#4c9f38"/>
    </g>
    <g id="Group_2203" data-name="Group 2203" transform="translate(125.048 -15.672)">
      <path id="Path_13664" data-name="Path 13664" d="M90.451-14.527v1.781A3.272,3.272,0,0,1,88.1-9.426c1.719.392,2.536,1.6,2.536,3.471v3.019c0,2.838-1.509,4.679-4.981,4.679-3.5,0-4.739-1.992-4.739-5.1V-6.045h3.139v2.928c0,1.207.423,1.99,1.6,1.99,1.057,0,1.539-.755,1.539-1.839V-6.347c0-1.087-.483-1.66-1.69-1.66H84.051v-2.626h1.3c1.115,0,1.841-.574,1.841-1.658V-14.5c0-1.117-.394-1.841-1.481-1.841s-1.477.724-1.477,1.992v2.083H81.091v-1.811c0-3.019,1.24-5.132,4.8-5.132C89.06-19.206,90.451-17.425,90.451-14.527Z" transform="translate(-80.912 19.206)" fill="#4c9f38"/>
      <path id="Path_13665" data-name="Path 13665" d="M89.851-15.2a2.528,2.528,0,0,1,2.475,2.475,2.512,2.512,0,0,1-2.475,2.5,2.5,2.5,0,0,1-2.505-2.5A2.513,2.513,0,0,1,89.851-15.2Z" transform="translate(-74.398 23.261)" fill="#4c9f38"/>
      <path id="Path_13666" data-name="Path 13666" d="M97.073-19.086V1.38H93.631V-14.286H93.6l-2.415,2.505h-.03v-3.592l3.17-3.713Z" transform="translate(-70.541 19.327)" fill="#4c9f38"/>
    </g>
  </g>
</svg>
