<svg xmlns="http://www.w3.org/2000/svg" width="122.452" height="35" viewBox="0 0 122.452 35">
  <g id="target3.2" transform="translate(0 0)">
    <g id="Group_2204" data-name="Group 2204">
      <path id="Path_13667" data-name="Path 13667" d="M225.32,12.3H102.868v-35H225.32ZM104.88,10.291H223.307V-20.685H104.88Z" transform="translate(-102.868 22.697)" fill="#4c9f38"/>
    </g>
    <g id="Group_2205" data-name="Group 2205" transform="translate(6.844 7.056)">
      <path id="Path_13668" data-name="Path 13668" d="M106.269-19.07h9.146v2.807h-2.838V1.394h-3.471V-16.263h-2.838Z" transform="translate(-106.269 19.314)" fill="#4c9f38"/>
      <path id="Path_13669" data-name="Path 13669" d="M110.74,1.394,114.6-19.07h3.922L122.42,1.394h-3.53l-.636-3.743H114.6L114,1.394Zm4.315-6.49H117.8l-1.36-8.211h-.03Z" transform="translate(-101.742 19.314)" fill="#4c9f38"/>
      <path id="Path_13670" data-name="Path 13670" d="M120.84-7.994V1.394H117.4V-19.07h5.011c3.471,0,4.739,1.721,4.739,4.586v2.626c0,2.2-.785,3.5-2.749,3.954l3.292,9.3h-3.624Zm0-8.269V-9.9h1.147a1.49,1.49,0,0,0,1.69-1.69V-14.6c0-1.117-.513-1.658-1.69-1.658Z" transform="translate(-95.001 19.314)" fill="#4c9f38"/>
      <path id="Path_13671" data-name="Path 13671" d="M128.591-9.411h4.89V1.517h-2.475V-.717a3.1,3.1,0,0,1-3.292,2.475c-2.956,0-4.315-2.355-4.315-5.524v-9.9c0-3.2,1.54-5.524,5.16-5.524,3.805,0,4.922,2.113,4.922,5.132v1.811h-3.139v-2.081c0-1.27-.483-1.994-1.721-1.994s-1.781.875-1.781,2.115V-3.222c0,1.238.513,2.113,1.69,2.113,1.115,0,1.69-.634,1.69-1.962V-6.694h-1.63Z" transform="translate(-88.926 19.191)" fill="#4c9f38"/>
      <path id="Path_13672" data-name="Path 13672" d="M129.758-19.07h8.211v2.807H133.2v5.854h3.413v2.777H133.2v6.218h4.769V1.394h-8.211Z" transform="translate(-82.488 19.314)" fill="#4c9f38"/>
      <path id="Path_13673" data-name="Path 13673" d="M134.632-19.07h9.146v2.807h-2.838V1.394h-3.469V-16.263h-2.84Z" transform="translate(-77.554 19.314)" fill="#4c9f38"/>
    </g>
    <g id="Group_2206" data-name="Group 2206" transform="translate(84.685 7.056)">
      <path id="Path_13674" data-name="Path 13674" d="M154.488-14.51v1.779a3.275,3.275,0,0,1-2.355,3.323c1.721.39,2.536,1.6,2.536,3.469v3.019c0,2.84-1.509,4.681-4.981,4.681-3.5,0-4.739-1.994-4.739-5.1V-6.028h3.139V-3.1c0,1.205.423,1.99,1.6,1.99,1.057,0,1.539-.755,1.539-1.839V-6.332c0-1.087-.483-1.658-1.69-1.658h-1.449v-2.628h1.3c1.117,0,1.841-.574,1.841-1.658v-2.206c0-1.115-.392-1.841-1.479-1.841s-1.479.726-1.479,1.994v2.083H145.13v-1.813c0-3.019,1.238-5.132,4.8-5.132C153.1-19.191,154.488-17.41,154.488-14.51Z" transform="translate(-144.949 19.191)" fill="#4c9f38"/>
      <path id="Path_13675" data-name="Path 13675" d="M153.888-15.186a2.529,2.529,0,0,1,2.475,2.477,2.512,2.512,0,0,1-2.475,2.5,2.5,2.5,0,0,1-2.505-2.5A2.514,2.514,0,0,1,153.888-15.186Z" transform="translate(-138.435 23.246)" fill="#4c9f38"/>
      <path id="Path_13676" data-name="Path 13676" d="M155.374-2.254c0-2.022.692-3.353,2.564-5.345L159.87-9.65a4.057,4.057,0,0,0,1.27-3.532v-1.69c0-1.268-.574-1.542-1.238-1.542-.726,0-1.33.364-1.33,1.6v2.568h-3.137v-2.477c0-2.868,1.537-4.468,4.556-4.468,3.081,0,4.5,1.391,4.5,4.319v1.99a6.441,6.441,0,0,1-2.171,5.164L160.111-5.4a3.913,3.913,0,0,0-1.449,3.141v.964h5.645V1.519h-8.933Z" transform="translate(-134.395 19.191)" fill="#4c9f38"/>
    </g>
  </g>
</svg>
