<svg xmlns="http://www.w3.org/2000/svg" width="150" height="150" viewBox="0 0 150 150">
  <g id="Group_2419" data-name="Group 2419" transform="translate(-169 -1597.396)">
    <g id="Group_2410" data-name="Group 2410" transform="translate(-615.13 300)">
      <g id="Down_arrow_-_OFF" data-name="Down arrow - OFF" transform="translate(934.13 1297.396) rotate(90)">
        <ellipse id="Ellipse_266" data-name="Ellipse 266" cx="67.797" cy="70.746" rx="67.797" ry="70.746" transform="translate(2.686 142.022) rotate(-90)" fill="#4c9f38"/>
        <g id="Group_1058" data-name="Group 1058">
          <path id="Path_2276" data-name="Path 2276" d="M.489,1.144C.489-.572-.381,2,.2,0,.489.286.779.572.489,1.144Z" transform="translate(146.612 75.639)" fill="#4c9f38"/>
          <path id="Path_2277" data-name="Path 2277" d="M146.521,70.491a16.393,16.393,0,0,1-1.45-4c-.29-1.43-.58-2.86-.87-4.576a26.479,26.479,0,0,0-1.16-4.576,9.958,9.958,0,0,0-1.74-4c-.29-.572,1.45-.286.58-1.716-.87-1.144-1.739-2.574-2.609-4a25.2,25.2,0,0,1-2.319-4.862c-1.74-3.146-3.189-6.864-4.639-10.01h.58c-.58-1.144-2.319-1.716-3.189-2.86.29-.286.58,0,.58-.286-.87.286-2.029-1.716-2.9-1.716-.29-.572.29-.858,0-1.716h-1.16c-2.9,0-3.769-3.718-6.668-4.862.29,0,.58,0,.58-.286-4.639-2-9.277-5.434-14.206-7.15.29-.286.87-.572.58-1.144-.58.572-2.319.286-3.479-.286-.29-1.144-2.609,0-3.769-1.144l.29-.286c-1.45.572-1.45-1.144-2.9-.286l-.87-.572c-.87,1.144-1.45-1.144-2.609-.572v.286c-.87,0-1.45-.572-2.319-.572V9c-2.029-.286-3.189-1.144-3.189,0-.58-.858,2.029,0,1.16-1.43a169.436,169.436,0,0,0-20.874,0c-.87-.286-1.45-.286-1.45-.572-.58.286-2.609.572-3.189,1.144.29,0-.58-.572-.87-.572-1.45-.286-1.16,1.144-2.609,1.144a.7.7,0,0,0,.29-1.144c-.87,1.144-2.609,1.43-3.769,2,.29-.286.58-.286.29-.572-1.16,1.144-2.9.572-3.769,1.43l.29-.858c-2.319,0-.29,1.43-2.029,1.716.29-.286,0-.572,0-.858-1.16,1.43-4.059,2.288-5.218,3.432v-.286c-1.45.858-3.479,1.43-5.218,2.86-.87.286-.58-1.43-2.029-.286.58.858-2.609,2.288-.87,2.574a18.134,18.134,0,0,0-4.639,2.86c.29-.858-1.45-.572-.58-1.43h-1.16c-.29-.572.87-.572.29-.858a18.678,18.678,0,0,1-2.609,2.288c-.29,1.716-.29,3.432-1.739,4.862.29-.858-1.45-.572-.87-1.144a14.31,14.31,0,0,0-.58,3.718c-.29.572-.87-.572-1.16.286.29.286,0,.572,0,1.144-.29,0-1.739,2.288-2.9,1.716-.58,0,.58-.858-.29-.572-.87.858-.58,1.43-1.45,2.288h0c-.58.572-1.16,2.288,0,2,.29-.572-.58-.286,0-.858.29.858-.29,2-1.16,3.146,0-.572-.29-.572-.29-.858a37.688,37.688,0,0,1-1.45,5.434c.58.286-.58-1.144,0-1.144a6.791,6.791,0,0,0-1.739,3.146,4.549,4.549,0,0,1-1.45,2.86c0-.286.87.286.58,0-.58.858-1.16.572-1.45,1.43-.58,0-.29.858-.29,1.716.29.572-.29,0,0-.572a22.083,22.083,0,0,1-2.029,7.436c.29,0,.58,1.716.58,2.288l-.58-.286c-.58.286-.29,1.716-1.16,1.716.58,1.43.58-4.862.58-2.86-.58.286.58,2.574-.29,2-.29,1.144.29,2.288-.58,3.432.29-.286-.87-1.144-.87-.286,0,1.716.29.572.29,2l.29.858c.58.286-.29,1.43.58.858-.58,0,0,2.288-1.16,2l-.87-.286c0,.858.87,1.144,1.16,1.716l-.29.286c1.45.286-.29,1.716.87,2.574-.29.858-.29,1.716-.58,2.574a2.391,2.391,0,0,1-.58,2c0,.572.58,1.716.29,2.86a.619.619,0,0,0-.58-.572c-.29.858,0,1.144.29,1.716-.29,0-.58,1.716-.87,2.574.58,1.144,1.16.858,1.739.858-1.16,1.144,1.16,2.86.29,4.29-.29-.286-1.16-1.43-1.16-.572-1.16,1.43,1.45,1.716,1.16,3.432l1.16-.572c-.58.858,1.16,2.288,0,2.288.58.286.29,2,1.16,1.43,0,1.43.87,2.86,1.16,4.29.58,1.43,1.16,2.574.58,3.718.29.286.58,1.144,1.16.858.29-.858-.87-.572-.58-1.144a.9.9,0,0,0,.58.286c0,.858.29,1.43-.87,1.144.58,2.574,2.9,1.43,3.769,3.432q-.87,0,0,.858l1.45.572c.58,1.43-.58,1.43-1.16,1.716.58.572,1.16,1.43,1.739,1.43l-.29,1.43c0-1.144.87.286,1.16.572l-.29-.286c-.29.286.58.858.87,1.43.29-.286,0-1.43-.29-1.716.58,0,.87.572,1.45.858-.87.286.29,1.43.58,2,.29.858,1.16.286,1.16.286-.29.286.87.858,0,.858-.29,0,0-.572-.58-.858,0,.572-.58.858.58,1.43.87.286,1.16-1.144,1.739.286-.29-.286-.58,0-1.16,0l.58,1.43.58-.572c0,.286,0,.286-.29.286.87-.286,1.74,1.43,2.319,1.144.58.286.87,1.43,1.16,1.716h0a2.516,2.516,0,0,0,2.029,1.43h0a3.323,3.323,0,0,0,1.739.858c.58,1.144-1.45,2.288.29,2.288.87.572,2.319,0,2.029-.572a9.012,9.012,0,0,0,2.609,2c.87.572,1.739.858,2.319,2,.29,0,.29-.286.87-.286,2.319,2,5.8,2,7.538,4.576-.87,0-.29.572-.58.858.87-.286.58.858,1.16,0,.29-.572.29-.858-.29-1.43,1.739.286,4.349,1.144,4.929,2-.29-.572,0-.572.58-.572-.58.858.87,1.43,1.739,1.43l.29-.572.58.858c.29,0,.87-1.144,1.45-.286v.572a5.679,5.679,0,0,1,3.769,0l.87,1.144c.58,0,1.45-.572.58-.858,1.739.858,2.9,1.144,3.479,2a62.382,62.382,0,0,1,12.466-.858v.572c1.16.286.58-.858,1.16-.572-.29.572.87.858,0,1.43,1.45.572,1.74-.858,2.609-1.43,0-.572-.58.572-.58-.286,0-.286,2.029.286,2.029-.858a1.284,1.284,0,0,1,0,1.43l.87-.572c1.16.858-2.319,2.288-.87,3.432l.87-.286c.87.858-2.029,1.43,0,1.43.87-.572,1.45-2,.58-2.288,1.74-.572.58-2.288,2.609-2.574.58.572-1.45.572-1.16,1.144,1.16.572,1.739-.858,2.609-.858-.87,0-.29-1.144,0-1.43,1.16.286-.29,1.144.87.858,0-.572,1.16-1.144,0-1.43.29-1.144,1.45,0,2.029-1.144.58.572-.87,2.288.87,2.288-.58-.572,1.45-1.716.29-2.574.58,0,.87.572.58,1.144.87.286,1.45-2,2.319-.572v-.858c.29.286.87.286,1.45.572.87-.286,2.029-2,2.319-.858.29-.286,1.739-.858.87-1.43-1.16,0-.87,1.144-2.029.286,1.16.572,1.45-.858,1.739-1.43l.29.286c.29-.286,1.16-.572,1.16-1.144a.619.619,0,0,0,.58.572v-.858c1.16-.858.87,1.144,2.029.286a3.954,3.954,0,0,0-.87,1.144c.29-.286.87.286,1.45-.286v-2.288c.58-.572.58.572,1.16-.572l.29,1.144c0,.286,1.16.572,2.029,0,.58-.572.87-2-.29-1.716.58-.286,1.45-.286,1.16.286.87-.858-.58-.572.29-1.43.58.286,2.029-.286,3.189-.286l-.29,1.716.58-.572c-.29,1.43.87.286.87,1.43a2.863,2.863,0,0,0,1.16-1.43c-2.319-.286,0-2.574-1.16-3.432,1.45-1.43,3.189,1.716,3.479-1.43-.58,0-.58-1.43-1.16-.286,1.16-.858-.29-1.716,1.16-2.288-.58,1.144,2.029.286,1.16,2-.29-.286-.87.286-1.16.572.87,0,.87,1.144,1.739.286.58-.572,1.45-1.43.87-1.716-.58-.572-.87.858-1.16,0,1.16-1.144,2.029-.572,1.45-2-.58.858-1.45.286-1.74,0,.29-.286.29-.858.58-1.144l.29.572c1.45-1.144-.29-1.144.87-2.288h1.45c.29.858-2.029,1.716-.87,2.574.87-.858.58-1.716,1.739-2.288,0,.286-.29.572-.29.858.29-.286,2.029.572,2.319-1.43.29-.858-.29-.572-.58-.858,1.16-1.716.87-2.574,1.739-3.432.58.858,1.45-1.716,1.45,0-.87.286-2.609,2.288-2.029,3.718q.87,0,0,.858c-.29.286-.87.858-.58,1.43,1.16-1.144,2.029-.286,2.9,0a1.7,1.7,0,0,0,.29-1.144c-.58-.572-.87-.286-1.45-.572,1.16-1.43,2.029-2.86,2.029-4a.636.636,0,0,1,.87.858c1.16-1.716,2.319-3.718,3.479-5.434-1.739.572.87-2-.58-1.716-.87.858-2.029,1.144-2.319.286.29-.572.58.286.87.286-.29-1.144,1.74-.572,1.16-1.716-.58,2,1.16,1.144,2.029,1.716,0-1.43.58.286,1.16-.858a25.443,25.443,0,0,1,.87-4.576c1.45-1.43,1.739-4.576,2.319-6.292.58-.858,1.739.286,2.029-.858s-1.45.572-.58-1.144l.29.286c0-.572,1.45-2.86,0-3.718l1.16.858c.29-.286,0-.572,0-.858.29,0,.87-.286.87.286,1.16-.858.29-2.288.58-3.432l-.87.572c-.29-2,.58-3.146.58-5.148h.58l-.29-1.144c.58.286,1.16-.572.58-1.43a15.226,15.226,0,0,1,1.45,3.146c-.58.858-.87-1.144-1.45-.572-.58.286-.87,2.288,0,2.574.29-.572,0-.858,0-1.43.87,0,.87.858,1.45,1.43,0-.286.29-.858,0-.858a7.867,7.867,0,0,1,.29,2.86c-.29-.858-.58.286-.87,0,.87.286.87,1.43.58,2.86-1.16.858,0,2.86-.87,4.576a5.947,5.947,0,0,1-1.16-3.146c-.58.858-.29,1.144-.87,2a3.908,3.908,0,0,1,1.45,2.86h-.58c0,1.43.87,1.716,0,3.146-.58,1.43-1.16,2.574-1.74,4l-1.739,3.432-.58-.286c.87,1.716-1.45,3.718-1.74,5.434a16.18,16.18,0,0,0-2.319,3.718,4.463,4.463,0,0,1-2.319,2.288,19.2,19.2,0,0,1-2.029,3.146c-.58.858-1.45,2-2.029,2.86a25.072,25.072,0,0,0-2.319,2.86,26.018,26.018,0,0,1-2.9,2.574v-1.144c-.29,1.144-.87,0-1.45.572,1.16,0-.29,1.43-.29,2.288-2.319.858-4.059,3.146-5.508,4.862l-.29-.572c-1.16,2-3.769,2.574-6.088,3.718-.29,0-1.16-.286-1.739,0-.87,1.43-1.45,1.716-3.189,3.146-1.45.858-3.769,1.144-5.218,1.43C95.206,148,89.118,148.284,83.319,150l-.29-1.43a25.091,25.091,0,0,1-9.277,1.144c-3.189-.286-6.088-.286-8.7-.572l.58-1.144c-1.45-.572-3.479-.286-3.189.858a8.131,8.131,0,0,0-2.609-.286c-.87-.286-1.74-.286-2.029-.858-1.45-.572-2.029,0-3.479,0a68.448,68.448,0,0,0-6.958-2.574l.58.286c.29-.286.58-.572,0-.858-1.16,0-3.769-2-3.189,0-1.16-1.144-3.189-1.716-4.929-2.288a9.6,9.6,0,0,1-4.349-2.86c0,.572-.58.286-1.16.286-.58-.286-1.16-.858-1.739-1.144-.58-.572-1.16-.858-1.45-1.43a9.812,9.812,0,0,0-3.189-2c-.29-.572,1.16,0,0-.858-.58-.286-.29.286-1.16,0-2.029-1.144-3.479-2.86-5.218-4.576-1.45-1.716-2.609-3.718-4.059-5.148C12,119.4,8.231,112.533,5.332,106.241h.29c-2.029-1.716-.87-5.72-3.189-6.864,0-.572-.29-2,.29-2a6.036,6.036,0,0,1-.87-3.432c-.29-1.43-.29-2.86-1.16-4.29,0,.286,0,.286.29.572a18.633,18.633,0,0,0-.29-4c-.58-2-.87-3.146-.58-4.576.29.286.29.858.58.858.58-1.144-1.45-2.574,0-3.146,0-.572-.87-.286-.58,0,.29-6.292,0-13.156.87-19.734,2.029-4.29,2.609.286,2.319-3.432.29-.286-.58-.286-.29-.286,0-1.43,2.319-1.716,1.739-2.86-1.16,0-.29-.858-.87-.858,1.45-2.574,2.609-2.86,2.609-5.148l.29.286c0-2.86,1.739-5.434,1.739-8.008,7.248-12.87,17.395-24.024,30.731-30.888C45.92,5,52.878,2.994,59.836,1.278A63.229,63.229,0,0,1,81.87.706c3.189,1.716,3.479,1.716,7.248,1.716l-.29.286c.29-1.144,2.609.572,3.189-.286,2.609.858,5.218,1.43,7.828,2.288a58.572,58.572,0,0,1,7.538,2.86c-.87-.286-1.74.286-.58.572h1.16v.286c1.45,0,2.319,0,1.739-.572A57,57,0,0,1,127.1,19.868c2.609,2.288,4.639,5.148,6.958,7.722l2.9,4.29a37.225,37.225,0,0,1,2.9,4.29c.58,1.43,1.74,3.146,2.609,4.862s2.029,3.432,2.9,5.148c2.9,10.3,3.479,19.448,4.639,29.744A7.23,7.23,0,0,1,146.521,70.491Z" fill="#4c9f38"/>
          <path id="Path_2278" data-name="Path 2278" d="M1.45,0C.87.286.58,1.43,0,.572.58.572,1.16,0,1.45,0Z" transform="translate(145.651 78.785)" fill="#4c9f38"/>
          <path id="Path_2279" data-name="Path 2279" d="M.58.572A1.016,1.016,0,0,1,0,.858C0,.572,0,0,.29,0,0,.286.29.286.58.572Z" transform="translate(134.055 105.383)" fill="#4c9f38"/>
          <path id="Path_2280" data-name="Path 2280" d="M.079,2.574C-.211,2.288.369.858.659,0Z" transform="translate(130.497 109.387)" fill="#4c9f38"/>
          <path id="Path_2281" data-name="Path 2281" d="M.48.572C-.1.858-.1.572.19,0,.48,0,.48.286.48.572Z" transform="translate(124.587 115.68)" fill="#4c9f38"/>
          <path id="Path_2282" data-name="Path 2282" d="M1.16.136A2.21,2.21,0,0,1,0,.708C.29.994.58-.436,1.16.136Z" transform="translate(124.487 116.973)" fill="#4c9f38"/>
          <path id="Path_2283" data-name="Path 2283" d="M1.16.271C.87.557.58,1.129,0,1.129.58.843,1.16-.587,1.16.271Z" transform="translate(112.891 125.991)" fill="#4c9f38"/>
          <path id="Path_2284" data-name="Path 2284" d="M.915.286c-.29,0-.29,0-.58.286C-.245.572.045,0,.335,0Z" transform="translate(108.207 130.266)" fill="#4c9f38"/>
          <path id="Path_2285" data-name="Path 2285" d="M0,0,.58.572H0Z" transform="translate(9.971 91.369)" fill="#4c9f38"/>
          <path id="Path_2286" data-name="Path 2286" d="M0,.473C.29-.385.58.187.87.187.58.759.58-.1,0,.473Z" transform="translate(19.248 38.558)" fill="#4c9f38"/>
          <path id="Path_2287" data-name="Path 2287" d="M.58.572V.858L0,0Z" transform="translate(38.962 16.436)" fill="#4c9f38"/>
        </g>
      </g>
    </g>
    <g id="Group_2211" data-name="Group 2211" transform="translate(-339.654 1117.347)">
      <g id="Path_13684" data-name="Path 13684" transform="translate(559.068 563.781)">
        <path id="Path_14403" data-name="Path 14403" d="M621.551,692.549c-.162,0-.5.1-.394.233q.3-.013.609-.009A2.384,2.384,0,0,0,621.551,692.549Z" transform="translate(-596.629 -664.898)" fill="#fff"/>
        <path id="Path_14404" data-name="Path 14404" d="M619.9,694.223a1.728,1.728,0,0,0,.584.2,1.783,1.783,0,0,0,.772.024,1.993,1.993,0,0,1-.479-.13,1.782,1.782,0,0,0-.547-.212c-.071-.134.179-.258.4-.254-.155-.037.1-.266-.282-.287-.424.27-.427.427-.051.683A.875.875,0,0,1,619.9,694.223Z" transform="translate(-595.95 -665.453)" fill="#fff"/>
        <path id="Path_14405" data-name="Path 14405" d="M602.347,696.08l0,.1A.133.133,0,0,0,602.347,696.08Z" transform="translate(-586.323 -666.834)" fill="#fff"/>
        <path id="Path_14406" data-name="Path 14406" d="M591.286,683.946a.131.131,0,0,0,.15-.03C591.371,683.906,591.314,683.9,591.286,683.946Z" transform="translate(-580.256 -660.159)" fill="#fff"/>
        <path id="Path_14407" data-name="Path 14407" d="M590.353,680.988a.553.553,0,0,0,.023.081C590.4,681.011,590.4,680.969,590.353,680.988Z" transform="translate(-579.744 -658.554)" fill="#fff"/>
        <path id="Path_14408" data-name="Path 14408" d="M602.252,695.754l0-.269C602.1,695.609,602.214,695.656,602.252,695.754Z" transform="translate(-586.227 -666.508)" fill="#fff"/>
        <path id="Path_14409" data-name="Path 14409" d="M622.149,699.6a.345.345,0,0,0-.094-.194.551.551,0,0,1,.01.151Z" transform="translate(-597.132 -668.661)" fill="#fff"/>
        <path id="Path_14410" data-name="Path 14410" d="M607.888,699.821l.032.022c.049-.049.1-.111.164-.182Z" transform="translate(-589.362 -668.798)" fill="#fff"/>
        <path id="Path_14411" data-name="Path 14411" d="M611.177,700.87c-.029-.016-.013.488-.041.71a1.042,1.042,0,0,1,.07-.353C611.2,701.13,611.192,701.015,611.177,700.87Z" transform="translate(-591.143 -669.461)" fill="#fff"/>
        <path id="Path_14412" data-name="Path 14412" d="M617.523,699.015l-.033-.088C617.5,698.951,617.507,698.984,617.523,699.015Z" transform="translate(-594.628 -668.396)" fill="#fff"/>
        <path id="Path_14413" data-name="Path 14413" d="M605.608,697.31a1.109,1.109,0,0,0,.116-.14A.764.764,0,0,0,605.608,697.31Z" transform="translate(-588.111 -667.432)" fill="#fff"/>
        <path id="Path_14414" data-name="Path 14414" d="M619.7,684.39l-.066.062C619.683,684.427,619.713,684.406,619.7,684.39Z" transform="translate(-595.805 -660.423)" fill="#fff"/>
        <path id="Path_14415" data-name="Path 14415" d="M618.816,693.262l-.037-.029-.276.071Z" transform="translate(-595.184 -665.273)" fill="#fff"/>
        <path id="Path_14416" data-name="Path 14416" d="M587.754,676.359a.07.07,0,0,0,0,.014C587.839,676.376,587.807,676.359,587.754,676.359Z" transform="translate(-578.319 -656.018)" fill="#fff"/>
        <path id="Path_14417" data-name="Path 14417" d="M590.14,645.609c-.491-.148-.139-.688-.752-.786C589.553,644.939,589.72,645.614,590.14,645.609Z" transform="translate(-579.215 -638.721)" fill="#fff"/>
        <path id="Path_14418" data-name="Path 14418" d="M621.987,699.966a.62.62,0,0,1-.052.132A.18.18,0,0,0,621.987,699.966Z" transform="translate(-597.066 -668.966)" fill="#fff"/>
        <path id="Path_14419" data-name="Path 14419" d="M589.312,644.812l0,0-.06-.007Z" transform="translate(-579.139 -638.71)" fill="#fff"/>
        <path id="Path_14420" data-name="Path 14420" d="M579.151,668.838a1.322,1.322,0,0,0-.15.168A1.048,1.048,0,0,0,579.151,668.838Z" transform="translate(-573.518 -651.893)" fill="#fff"/>
        <path id="Path_14421" data-name="Path 14421" d="M583.975,675.682l-.021-.117A.175.175,0,0,0,583.975,675.682Z" transform="translate(-576.234 -655.582)" fill="#fff"/>
        <path id="Path_14422" data-name="Path 14422" d="M576.2,666.554c.022-.054.083-.091,0-.119a.375.375,0,0,0-.052.038C576.221,666.468,576.26,666.48,576.2,666.554Z" transform="translate(-571.954 -650.575)" fill="#fff"/>
        <path id="Path_14423" data-name="Path 14423" d="M575.443,663.311c-.039.008-.067.018-.1.028l.029.049Z" transform="translate(-571.511 -648.861)" fill="#fff"/>
        <path id="Path_14424" data-name="Path 14424" d="M609.214,674.286a2.727,2.727,0,0,1-.268.381C609.189,674.4,609.5,674.54,609.214,674.286Z" transform="translate(-589.942 -654.881)" fill="#fff"/>
        <path id="Path_14425" data-name="Path 14425" d="M621.674,699.608c.113.063.162.11.169.162a.552.552,0,0,0,.013-.1A.412.412,0,0,0,621.674,699.608Z" transform="translate(-596.923 -668.769)" fill="#fff"/>
        <path id="Path_14426" data-name="Path 14426" d="M567.833,669.2l-.094-.471A1.347,1.347,0,0,0,567.833,669.2Z" transform="translate(-567.341 -651.836)" fill="#fff"/>
        <path id="Path_14427" data-name="Path 14427" d="M613.312,649.281a.312.312,0,0,1,.116.032A.075.075,0,0,0,613.312,649.281Z" transform="translate(-592.337 -641.158)" fill="#fff"/>
        <path id="Path_14428" data-name="Path 14428" d="M566.858,665.171a.938.938,0,0,0,.31-.317.55.55,0,0,0-.138-.044Z" transform="translate(-566.858 -649.683)" fill="#fff"/>
        <path id="Path_14429" data-name="Path 14429" d="M608.939,675.133l0,0Z" transform="translate(-589.938 -655.343)" fill="#fff"/>
        <path id="Path_14430" data-name="Path 14430" d="M588.325,651.909c-.211-.245-.583.333-.911.543-.4-.153.238-.463.4-.791-.295-.056-.871.225-.975.077.072-.084.077-.137.206-.2-.564.174-.537-.533-1.23-.3a.656.656,0,0,1,.1-.141,5.23,5.23,0,0,1-.643.654c-.108-.1-.494.089-.211-.246.052.074.186-.04.315-.1l-.243.017c.367-.524.3,0,.643-.31-.353-.078-.972.022-1-.264.419-.45.516.247.71-.343l.068.415c.528-.851.1.2.689-.68a.484.484,0,0,0-.385-.311c-.176-.073-.221-.007-.193-.108-.3.177-.4.309-.714.474-.381.042-.1-.221.232-.4.316-.189.668-.3.207-.2-.444.122-1.349.3-.989.061.284-.029.561-.066.835-.111.007-.049-.3-.023-.557-.023s-.468-.026-.2-.137c.348.035.331.115.424.087.653-.118-.522-.041-.532-.163l.78.017c-.06-.067-.172-.139-.26-.242a.4.4,0,0,1-.113-.36,2.15,2.15,0,0,0,.531.261.139.139,0,0,1,.011-.172.2.2,0,0,1,.075-.048.374.374,0,0,0,.146-.064,5,5,0,0,1,1.053-.4l-.207-.546c.044-.036.245.091.275.207.319-.039-.231-.244-.3-.476.073-.128.349.078.4.254-.012-.631.188-1.578.92-1.515l.049.175c.179-.029.138-.377.06-.635s-.15-.474.231-.51l.011.123a10.785,10.785,0,0,0,1.338-1.287,4.782,4.782,0,0,1,1.808-1.155c-.126-.022-.192-.054-.214-.1-.312-.121-.365-.324-.514-.512s-.375-.341-.952-.278c.09-.287.2-.432.259-.6s.059-.363-.166-.849c-.174-.25-.951-.026-1.267-.193l.483-.3q-.429-.023-.819-.005.188-.285.353-.593l-.346-.153a.4.4,0,0,1-.128.457.536.536,0,0,1-.173-.1.385.385,0,0,1-.105-.129.621.621,0,0,1-.042-.3,1,1,0,0,1,.2-.565l-.843-.194c.172-.144.312-.11.481-.14-.677.117.372-.458-.248-.351-.058.122-.256.212-.343.285a.638.638,0,0,0-.468-.768l.316-.226c-.3-.454-.921-.686-1.336-1.125.023.279-.49.707-.659.624l.373-.46c-.341.171-.031.287-.514.428-.108-.209.376-.574.6-.615l-.337-.055c.115-.134.226-.152.4-.3-.341.173.1-.75-.473-.426l.115-.133a12.2,12.2,0,0,0-1.115-.825c-.372.346-.424.13-.821.31a2.437,2.437,0,0,1-.082-.308.963.963,0,0,0-.079-.212l-.111-.243a3.018,3.018,0,0,0-.638-.922c-.488-.141-.317.291-.609.423.2-.461-.335-.949.062-1.017a7.754,7.754,0,0,0-.775-.627,3.539,3.539,0,0,0-.879-.41c.063.338.134.53.074.694-.124-.019-.26-.548-.235-.841l.038-.03a.324.324,0,0,1-.16-.023.474.474,0,0,1-.079-.041l-.08.1a1.1,1.1,0,0,1-.333.271,3.305,3.305,0,0,1-.771.224,1.558,1.558,0,0,0-1.353,1.24l.017-.085q-.255.614-.435,1.154c-.182.126-.194.016-.207-.132s-.023-.334-.245-.313a2.736,2.736,0,0,1-.144.456.882.882,0,0,0-.056.145.6.6,0,0,1-.048.1.784.784,0,0,1-.285.262c-.216.133-.444.232-.452.606-1.265-.661-.981,1.128-2,.917l.251.2c.12.326-.255,0-.383.021.188.165.317.09.377.278-.6,1.156-2.136,1.491-3.236,2.191-.388.27.99,1.363.034,1.238l-.3-.54a1.588,1.588,0,0,1-.283.723,7.279,7.279,0,0,1-.608.721,3.352,3.352,0,0,0-.573.789,1.846,1.846,0,0,0-.266.969c-.092-.13-.251-.212-.193-.33a.494.494,0,0,0-.383.529.556.556,0,0,0,.277.554c-.1.186-.317-.056-.526.017-.164.107-.084.332-.013.52s.126.345-.092.386c-.072.014-.13-.109-.148-.17.167.229-.172.9.347.769a.848.848,0,0,0-.047.716.8.8,0,0,1-.031.642c.3.1.256.3.247.492s.012.354.41.3c-.81.133-.428,1,.051,1.108-.266-.006-.149.33-.508.348.132.33.417.53.766.3-.319.486.016.674.284.816s.5.249.076.747l.675.4c.108.063.223.128.353.211.065.041.131.08.2.116l.134.051a7.956,7.956,0,0,1,.981.456c-.594.558-.577-.462-1.162.162.683.208,1.436-.028,1.739.554.035.193-.316.184-.453.243.684.209.808.913,1.52,1a.39.39,0,0,1-.242.071c.1.06.1.266.351,0l-.148-.005c.258-.5,1.11-.478,1.327-.663-.889.612.2.579-.965,1.309a.651.651,0,0,0,.456-.242c.025.127-.054.252-.332.372.424.139.605-.237.853.023-.129.125-.229.122-.406.244.377-.116.757-.233.863.088-.09.063-.166.186-.228.12.406.33,1.294-.023,1.456.618-.677.424-.046.316-.508.808l.361.077.147-.315c.182.2.7.024.708.342l-.341.052.448.268-.018-.38c.442-.049.592-.614.711-.23-.1,0,.185.2,0,.572h0c.249-.055.508-.115.529.142-.118.186-.566.489-.645.612.5-.3.558.337,1.108.038a1.574,1.574,0,0,0-.437.365l.408-.24c-.018.19-.056.252-.273.433.2.323.532-.677.581-.107-.051,0-.089.06-.191.057.178.449.821.41.949.857-.4.555-.374-.139-.689.355.507.333,1.455.306,1.745.821l-.021-.127c.75-.6-.041.629.491.522a.958.958,0,0,0-.36.24c.166.383.738.405,1.378.62l-.231.116c0,.314.339.518.434.771.231-.116.3.013.5-.294-.238.753.159.884.569.987a1.411,1.411,0,0,1,.549.209c.148.12.158.263.163.669-.088-.079-.368-.056-.3.016l.206.118.185.085c.122.053.246.1.37.143.2-.37.068-.262.155-.606a.645.645,0,0,1,.592-.115c-.382.076-.38.556-.366.836.047-.121.159-.217.216-.335-.047.822.452-.7.616-.063l-.112.19c.21-.028.448-.249.591-.138-.07.484-.238.16-.385.527.14.035.341-.142.5-.271s.285-.2.357.051c-.131.116-.289.083-.434.182.13.618.217.485.413.609l-.019-.016a5.088,5.088,0,0,0,.5.307l-.126-.163c.179-.454.29-.6.438-.655s.284-.022.432-.092l-.065.006a.492.492,0,0,0,.3-.381c-.124.424-.2.531-.13.613a.554.554,0,0,1,.2.391c.155.125.4.247.372.409.079-.241.2-.181.334-.16s.291.02.341-.353c.079.158.258-.087.38.341.267-.264-.2-.247-.255-.465.108-.371.424-.322.782-.37.352-.033.744-.189.718-.732a1.428,1.428,0,0,0-.055-.88,3.13,3.13,0,0,1-.2-.757.5.5,0,0,1,.361.227.826.826,0,0,1,.112.222c.369-.084.438-.322.356-.635a.62.62,0,0,0,.475.112c.048-.23-.541-.363-.209-.538a2.445,2.445,0,0,1,.6.442,5.394,5.394,0,0,0-.409-.952c.317-.015.423.247.592.4-.042-.357-.135-.89-.622-1l-.183.166c-.018-.1.421-.02.5.074.342.314-.22.354-.4.326l-.086-.194c-.52.017-.5.159-.392.378s.314.521.216.68c-.213-.14-.426-.272-.65-.4a4.969,4.969,0,0,1,.447.547c-.209-.01-.6-.162-.645-.34-.415.023.151.291-.293.252a.155.155,0,0,1-.109-.072,2.87,2.87,0,0,1,.086.283c-.112-.117-.461-.265-.309-.3-.266.018-.216.188-.19.35s.046.3-.2.149l-.016-.051a.449.449,0,0,0,.149.491,1.023,1.023,0,0,1,.362.68,9.921,9.921,0,0,1-1.046-.908l.288.474c-.05.018-.16.031-.265-.162.05.415.16.183.256.543-.24-.138-.36-.017-.49.065s-.268.084-.44-.319c.059.428.334.212.184.588-.2-.433-.245-.377-.3-.249s-.14.316-.3.129c-.026-.494.2-.277-.083-.662.018.235-.013.33-.064.349s-.079-.058-.111-.133l-.117.011c-.1-.117-.176-.26-.226-.184.037.669-.341.284-.648.445.047-.2-.451-.473-.543-.8l.052-.1c-.317.584-.517.346-.755.342a1.711,1.711,0,0,1,.517-.535c-.043-.025-.086-.051-.127-.08-.153.154-.26.212-.4.2l.343-.361a.329.329,0,0,0-.177-.021c-.064.005-.114.054-.209.024-.191-.048-.356-.134-.375-.386-.353.3-.719,1.1-1.238,1.019.172-.182.473-.485.624-.478-.049,0-.242.052-.214-.072l.424-.17c.008-.253-.323.174-.4.046.262-.242.111-.249.332-.428.051,0-.019.19.122.132a.776.776,0,0,1,.1-.671c-.138.148-.35.329-.468.276-.236-.2.238-.368.246-.62-.233.117-.184-.2-.576.164-.061-.065.108-.247.188-.371-.283.049-.573-.478-.859.037l0,.055c-.014,0-.02,0-.035,0h0c-.753,0-.544-.97-1.074-1.178l.13-.122c-.365-.078-.572-.4-1-.293-.064-.065.084-.376.266-.5-.264-.074-.427.046-.455-.4.392-.048.142-.248.336.014-.1-.322.053-.569-.532-.464.409-.237.253-.561.051-.569l-.084.378a.661.661,0,0,1-.31-.328l.49-.36c.084-.95-1.7.063-1.151-1.122-.42.175.028.446-.432.682-.145-.26.264-1.071.2-1.136-.04-.511-.892.349-1.02-.1-.116.186-.492.619-.855.542-.146-.258.4-.876.648-.867.062.036.037.107-.018.156a.283.283,0,0,0,.36-.209l-.181.123c.056-.253-.241-.518.077-.7-.3-.012-.318.179-.284.37-.039-.478-.4-.415-.521-.829-.042.125-.183.34-.224.3-.2-.58-.465.11-.8-.092.082-.38.613-.49.148-.568-.006-.319.372-.432.562-.489-.541.043-.265-.648-.351-.842l.253.009a.356.356,0,0,1-.276-.136l-.232.374c-.023-.128-.086-.194.043-.317-.279.119-.449.559-.879.673.055-.253-.475-.144-.1-.577.18.454.372-.436.707-.23-.1,0-.162-.07-.184-.2a.167.167,0,0,1,.139-.074c.058-.661-.6.311-.9-.014.269-.185.36-.5.26-.5.123.132-.32.436-.612.492-.024-.378-.352-.09-.437-.216l.037.2c-.269.184-.34.054-.553-.016.166-.187.25.007.278-.12-.557.24.061-.764-.427-.715.053-.254.418-.434.433-.626-.54.048.047-.575-.455-.59-.231.377-.144.316-.623.431l.638.209-.716.17c.123.132.461.079.486.206-.379.118-.289.056-.482.369.284-.63-.613-.08-.5-.59l.762-.746c.033-.639-.927-.153-1.131-.737l0,.258c-.177.124-.248.073-.306-.009-.074-.1-.045-.136-.158-.137a2.166,2.166,0,0,0,.466-.548c-.2.173-.154-.24-.76.132.086-.145.181-.289.277-.429-.015-.2-.28-.143-.557-.106s-.581.073-.6-.13c.395-.074.553-.323.9-.251-.047-.1-.025-.214-.25-.109.176-.145-.576-.093-.292-.322-.163.012-.519.126-.54-.015a.626.626,0,0,1,.167-.056c-.172.061-.294-.131-.636.107.489-.364.379-.579.318-.822a.613.613,0,0,1-.052-.351c.039-.112.141-.215.378-.285-.031-.056-.065-.117-.093-.181s-.037-.127-.052-.192a1.173,1.173,0,0,1-.046-.372c.1.035.174.037.126.068.4-.191-.94-.427-.479-.71.6.018.238.288.481.248.559.16.543.072.506-.069s-.128-.349.215-.285l.042.077c.2.02.158-.1.093-.279s-.147-.4-.036-.495a.756.756,0,0,0,.141.107,1.4,1.4,0,0,1-.1-1.347c.241.407.069.284.435.57.066-.162-.563-.5-.428-.819a2.256,2.256,0,0,1,.945.422l-.2.237c.566.344.263-.3.456-.332l.184.214c.265-.4-.232-.9.158-1.226l-.187-.114c-.3-.692.442.116.265-.449l.563.445a4.416,4.416,0,0,1,.094-1.265,3.767,3.767,0,0,1,.224,1.356c.13-.124.393-.472.21-.787,0,.1.057.289-.071.262-.242-.553-.233-.954.028-1.2.935,1.02.9-.419,1.849.153.084-.811,1.041-.741,1.5-1.325-.948-.571.131-.175-.686-.92.071-.172.13-.206.192-.167l.836.093c.316.138.058.288.245.451.326-.209.444.217.828.245-.317-.241-.31-.491-.051-.538l-.575-.143c-.023-.394.221-.312.467-.23.205.123.342.316.2.046a3.129,3.129,0,0,0,.2.294c-.056-.089-.036-.106-.053-.208s-.057-.3-.166-.822a2.731,2.731,0,0,1,.167.556c.063.031.05-.291.121-.625.016-.082.035-.162.056-.231l.033-.095a.04.04,0,0,1,.032,0c.043.013.085.107.1.315l-.046.34c.025-.086.129-.6.113-.221a2.826,2.826,0,0,0-.06.349c.021-.112.187-.488.182-.265-.044.1-.085.2-.123.31-.006.248.078.068.257-.109s.431-.377.6-.338a4.373,4.373,0,0,0-.492.7,1.475,1.475,0,0,0,.08.573l-.087.072c.443.6,1.346.444,2.047.719-.325.905.741,1.285.868,2.113a.768.768,0,0,1,.6-.387c0,.227.7-.065.163.424l-.03-.051c-.43.584-.064.688.1.887L584.4,641c-.265.724.134.952.518,1.14l.142.07c.038.015.052.006.077.013a.121.121,0,0,1,.093.051c.028.056-.031.159-.3.33a2.341,2.341,0,0,1,.571-.092l-.528.19c-.066.119-.143.132.086.194-.166,0-.329.011-.488.021-.01,0,.176,0,.45,0s.635.007.963.025c.357.021.628.063.6.11q-.526-.007-1.036-.032a1.116,1.116,0,0,1-.447.117c-.137.027-.144.042.115.271a2.565,2.565,0,0,1-.317-.195c-.084.056-.511-.216.259.495-.133-.107-.181-.187-.251-.163s-.1.091-.128.191a3.332,3.332,0,0,0-.028.725l-.328-.385c.286.628.406.756.29,1.13-.1.013-.339-.23-.17-.218-.381.013.191.486-.233.538l-.143-.314c-.226.176-.087.28.073.653.02.268-.466.295-.82.007.172.221.329.591.118.619a.485.485,0,0,1-.188-.28c-.3.058-.283.252-.367.526-.061.248-.091.436-.459.465a.6.6,0,0,0-.314-.1,3.62,3.62,0,0,1,.737-.666,1,1,0,0,0-.518-.218c-.169-.052-.335-.139-.414-.521-.032.289-.023.683-.046,1.007a1.4,1.4,0,0,1-.087.432.629.629,0,0,1-.289.265,1.083,1.083,0,0,1-.2-.025l-.015-.06a.218.218,0,0,0-.13.26.953.953,0,0,0-.369.26.374.374,0,0,0-.421.2c-.068.135-.112.3-.154.4.53.088.336.287.869.158-.049.019-.051-.042,0-.161,0-.029.009-.062-.012-.086l.04.023a2.638,2.638,0,0,1,.243-.442c.167.231.3.406-.1.519.285.16.579.3.706.367a2.1,2.1,0,0,0-1.034.332,2.372,2.372,0,0,1-.668.38,3.3,3.3,0,0,0,.621,1.017,1.613,1.613,0,0,0,1.3.451c.224.079-.139.261-.234.382-.167-.04-.233-.148-.4-.143.469.206.878.829,1.467.49.062.5-.671.181-.146.581l-.216.067c0,.1.037.213.042.274a.511.511,0,0,0,.05.168.43.43,0,0,0,.228.2,2.247,2.247,0,0,0,.745.085c.543.012,1.066.058.9.883a.382.382,0,0,1,.092-.244c.334,1.235,2.014,1.316,2.079,2.781.076.363.412.1.781.019l-.352.422.687-.187c.659.028-.421,1.506.624,1.346l.216-.307c.046.1.2.183.343.317s.21.243.065.395c.042-.02.157-.115.22-.117l-.174-.176c.033,0,.045.026.009.088l-.229.171c.12.022.257.055.361.066s.211.025.317.046c-.009.2-.267.32-.5.452s-.418.273-.41.39a3.031,3.031,0,0,0,.407.01l.036.107h0a3.838,3.838,0,0,0,.652-.094c0-.05.1-.17.32-.276h0l-.01-.029a.284.284,0,0,1,.069-.029l.01.006.008.023h0q.09.054.186.119c.373-.09.762-.14,1.111-.242a1.088,1.088,0,0,0,.823-.683h0l.05.149a.828.828,0,0,0,.092-.227,5.752,5.752,0,0,0-.685-.335c.1-.111.195-.217.289-.331a3.526,3.526,0,0,1,.218.429c.126-.2.089-.325-.014-.389a1.364,1.364,0,0,0-.419-.1.669.669,0,0,0,.278-.425,5.568,5.568,0,0,0-.94.016,1.365,1.365,0,0,1,.409-.238.4.4,0,0,0,.159-.124.276.276,0,0,0,.04-.094.261.261,0,0,0,.023-.09c-.393.107-.509.541-.861.5a2.547,2.547,0,0,1,.241-.31l-1.392.962c1.454-2.009.92-1.272,1.041-1.445a.105.105,0,0,0,.017-.037c0-.01-.029.014-.1.073a3.844,3.844,0,0,1,.293-.327.3.3,0,0,1-.161.1l-.043.018a.464.464,0,0,0-.093,0,.552.552,0,0,0-.242.092c.227-.447-.488-.34.106-.871-.177.091-.665.205-.8.113.895-.439-.365-.47.435-1.11-.773.428-.807-.3-1.415-.255.064-.031.194-.094.184-.04-.093-.2.053-.425.078-.635-.537.462-.883.33-1.326.5.322-.655.718-.449,1.142-.955-.411.4-.731.059-1.02.448a1.6,1.6,0,0,1,.392-.739c-.673.576-.238-.034-.75.215.122-.507.558-.617.143-.666C587.9,651.917,588.325,651.909,588.325,651.909Zm-3.707-3.156.01,0-.03.072A.61.61,0,0,0,584.618,648.754Zm.232-.249a.332.332,0,0,0-.121.1c-.159-.088-.3-.2-.266-.223C584.546,648.459,584.7,648.448,584.85,648.5Zm-4.262-.466c0-.155.137-.172.254-.156a.837.837,0,0,0-.072.244l.057.031A1.043,1.043,0,0,1,580.587,648.038Z" transform="translate(-566.908 -631.309)" fill="#fff"/>
        <path id="Path_14431" data-name="Path 14431" d="M598.423,669.141c0,.019.019.033.011.055.06-.013.112-.027.158-.042l-.141-.077Z" transform="translate(-584.171 -652.024)" fill="#fff"/>
        <path id="Path_14432" data-name="Path 14432" d="M602.314,696.326v-.018a.229.229,0,0,1-.033.07C602.292,696.354,602.3,696.344,602.314,696.326Z" transform="translate(-586.287 -666.959)" fill="#fff"/>
        <path id="Path_14433" data-name="Path 14433" d="M615.479,650.88l-.112.069.167.012Z" transform="translate(-593.464 -642.044)" fill="#fff"/>
        <path id="Path_14434" data-name="Path 14434" d="M605.63,704.666a.262.262,0,0,0-.016.142A.389.389,0,0,0,605.63,704.666Z" transform="translate(-588.113 -671.544)" fill="#fff"/>
        <path id="Path_14435" data-name="Path 14435" d="M609.561,706.332c.083.071.168.143.258.212A1.257,1.257,0,0,0,609.561,706.332Z" transform="translate(-590.28 -672.457)" fill="#fff"/>
        <path id="Path_14436" data-name="Path 14436" d="M612.929,706.576a.922.922,0,0,0,.009-.22l0,0Z" transform="translate(-592.127 -672.469)" fill="#fff"/>
        <path id="Path_14437" data-name="Path 14437" d="M578.62,681.216a.084.084,0,0,0-.048-.015C578.428,681.2,578.506,681.218,578.62,681.216Z" transform="translate(-573.24 -658.673)" fill="#fff"/>
        <path id="Path_14438" data-name="Path 14438" d="M588.891,688a1.352,1.352,0,0,1-.3.042C588.635,688.137,588.682,688.2,588.891,688Z" transform="translate(-578.78 -662.402)" fill="#fff"/>
        <path id="Path_14439" data-name="Path 14439" d="M567.957,669.828l.009,0c-.008-.017-.012-.033-.019-.05Z" transform="translate(-567.455 -652.407)" fill="#fff"/>
        <path id="Path_14440" data-name="Path 14440" d="M588.208,687.678a.159.159,0,0,0,.174.187C588.35,687.785,588.32,687.682,588.208,687.678Z" transform="translate(-578.568 -662.226)" fill="#fff"/>
        <path id="Path_14441" data-name="Path 14441" d="M623.079,696.628l.031-.076a.25.25,0,0,1-.081-.017Z" transform="translate(-597.666 -667.084)" fill="#fff"/>
        <path id="Path_14442" data-name="Path 14442" d="M622.962,696.424l-.055-.092C622.905,696.371,622.907,696.406,622.962,696.424Z" transform="translate(-597.599 -666.973)" fill="#fff"/>
        <path id="Path_14443" data-name="Path 14443" d="M622.647,695.917l.118.187C622.77,696.042,622.79,695.964,622.647,695.917Z" transform="translate(-597.457 -666.745)" fill="#fff"/>
        <path id="Path_14444" data-name="Path 14444" d="M621.231,701.04l.149.112A.627.627,0,0,0,621.231,701.04Z" transform="translate(-596.68 -669.555)" fill="#fff"/>
        <path id="Path_14445" data-name="Path 14445" d="M620.55,701.739c.117-.094.549-.1.562-.362l-.118-.09c.1.113-.062.166-.22.211S620.469,701.591,620.55,701.739Z" transform="translate(-596.294 -669.69)" fill="#fff"/>
        <path id="Path_14446" data-name="Path 14446" d="M613.81,700.757c.109-.005.229,0,.342-.018-.149-.137-.326-.336-.249-.442C613.326,699.95,614.191,700.646,613.81,700.757Z" transform="translate(-592.549 -669.095)" fill="#fff"/>
        <path id="Path_14447" data-name="Path 14447" d="M611.769,700.986a.513.513,0,0,0-.007-.191c-.006-.053,0-.014,0-.025v0l-.206-.086a.291.291,0,0,0,.043.262l.167-.016A.311.311,0,0,0,611.769,700.986Z" transform="translate(-591.364 -669.361)" fill="#fff"/>
        <path id="Path_14448" data-name="Path 14448" d="M598.7,691.039l.349-.3C598.888,690.666,598.921,690.858,598.7,691.039Z" transform="translate(-584.324 -663.895)" fill="#fff"/>
        <path id="Path_14449" data-name="Path 14449" d="M592.132,692.448l-.1.31.359-.24Z" transform="translate(-580.667 -664.842)" fill="#fff"/>
        <path id="Path_14450" data-name="Path 14450" d="M595.688,685.757l.1,0-.313-.076Z" transform="translate(-582.552 -661.133)" fill="#fff"/>
        <path id="Path_14451" data-name="Path 14451" d="M575.878,663.828l-.568.077C575.423,663.979,576.053,663.92,575.878,663.828Z" transform="translate(-571.494 -649.145)" fill="#fff"/>
        <path id="Path_14452" data-name="Path 14452" d="M580.972,654.146c.25.152.506.154.386-.123C581.229,654.1,580.971,654.042,580.972,654.146Z" transform="translate(-574.599 -643.767)" fill="#fff"/>
        <path id="Path_14453" data-name="Path 14453" d="M604.662,654.379l-.226.04.282.063Z" transform="translate(-587.468 -643.962)" fill="#fff"/>
      </g>
      <g id="Path_13685" data-name="Path 13685" transform="translate(583.019 564.869)">
        <path id="Path_14454" data-name="Path 14454" d="M651.786,634.587c-.142.077-.376.342-.24.38l.487-.358Z" transform="translate(-637.236 -634.195)" fill="#fff"/>
        <path id="Path_14455" data-name="Path 14455" d="M651.48,636.593a2.285,2.285,0,0,0,1.112-.792c-.509.3-.362.11-.957.481-.136-.038-.013-.286.158-.425-.139.077-.039-.227-.353-.01-.219.437-.09.593.33.475A.96.96,0,0,1,651.48,636.593Z" transform="translate(-637.143 -634.842)" fill="#fff"/>
        <path id="Path_14456" data-name="Path 14456" d="M668.5,657.609l.011-.094A.119.119,0,0,0,668.5,657.609Z" transform="translate(-646.557 -646.771)" fill="#fff"/>
        <path id="Path_14457" data-name="Path 14457" d="M667.178,669.941c.018-.044-.019-.1-.06-.131C667.125,669.869,667.131,669.917,667.178,669.941Z" transform="translate(-645.8 -653.514)" fill="#fff"/>
        <path id="Path_14458" data-name="Path 14458" d="M664.529,670.813a.585.585,0,0,0,.081-.023C664.551,670.771,664.51,670.769,664.529,670.813Z" transform="translate(-644.377 -654.044)" fill="#fff"/>
        <path id="Path_14459" data-name="Path 14459" d="M668.442,657.724a2.36,2.36,0,0,1-.057.25C668.548,657.871,668.461,657.815,668.442,657.724Z" transform="translate(-646.495 -646.885)" fill="#fff"/>
        <path id="Path_14460" data-name="Path 14460" d="M656.262,637.938a.371.371,0,0,0-.187.034.614.614,0,0,1,.116.027Z" transform="translate(-639.743 -636.031)" fill="#fff"/>
        <path id="Path_14461" data-name="Path 14461" d="M662.626,653.4l-.043-.042c-.06.036-.131.082-.207.136Z" transform="translate(-643.199 -644.492)" fill="#fff"/>
        <path id="Path_14462" data-name="Path 14462" d="M658.889,649.138c.024.056.4-.288.571-.429-.171.125-.271.165-.334.158A2.644,2.644,0,0,0,658.889,649.138Z" transform="translate(-641.286 -641.941)" fill="#fff"/>
        <path id="Path_14463" data-name="Path 14463" d="M654,642.023h-.1C653.927,642.02,653.963,642.027,654,642.023Z" transform="translate(-638.549 -638.273)" fill="#fff"/>
        <path id="Path_14464" data-name="Path 14464" d="M665.409,656.444a1.106,1.106,0,0,0-.112.144A.757.757,0,0,0,665.409,656.444Z" transform="translate(-644.801 -646.183)" fill="#fff"/>
        <path id="Path_14465" data-name="Path 14465" d="M641.976,637.392l.065.063C642.014,637.409,641.991,637.38,641.976,637.392Z" transform="translate(-632.01 -635.732)" fill="#fff"/>
        <path id="Path_14466" data-name="Path 14466" d="M650.428,636.655l-.009.048.2.2Z" transform="translate(-636.641 -635.329)" fill="#fff"/>
        <path id="Path_14467" data-name="Path 14467" d="M659.912,673.381h.014C659.928,673.3,659.911,673.329,659.912,673.381Z" transform="translate(-641.847 -655.444)" fill="#fff"/>
        <path id="Path_14468" data-name="Path 14468" d="M630.173,698.407a.8.8,0,0,1-.365.375.637.637,0,0,0-.354.438,5.032,5.032,0,0,1,.386-.341A1.131,1.131,0,0,0,630.173,698.407Z" transform="translate(-625.141 -669.199)" fill="#fff"/>
        <path id="Path_14469" data-name="Path 14469" d="M656.485,638.147a.332.332,0,0,1,.075.069C656.539,638.171,656.516,638.15,656.485,638.147Z" transform="translate(-639.968 -636.148)" fill="#fff"/>
        <path id="Path_14470" data-name="Path 14470" d="M629.438,700.208l0,0-.01.055Z" transform="translate(-625.126 -670.187)" fill="#fff"/>
        <path id="Path_14471" data-name="Path 14471" d="M652.082,682.235a1.03,1.03,0,0,0,.194.12A.7.7,0,0,0,652.082,682.235Z" transform="translate(-637.553 -660.329)" fill="#fff"/>
        <path id="Path_14472" data-name="Path 14472" d="M659.255,677.179l-.117.021A.173.173,0,0,0,659.255,677.179Z" transform="translate(-641.423 -657.556)" fill="#fff"/>
        <path id="Path_14473" data-name="Path 14473" d="M649.821,686.58c-.065.01-.127-.028-.13.073a.33.33,0,0,0,.059.028C649.72,686.613,649.722,686.565,649.821,686.58Z" transform="translate(-636.241 -662.71)" fill="#fff"/>
        <path id="Path_14474" data-name="Path 14474" d="M646.638,689.909a1.04,1.04,0,0,0,.1.045l.029-.067Z" transform="translate(-634.567 -664.526)" fill="#fff"/>
        <path id="Path_14475" data-name="Path 14475" d="M632.349,647.981a2.819,2.819,0,0,1,.4.246C632.464,648,632.59,647.685,632.349,647.981Z" transform="translate(-626.73 -641.475)" fill="#fff"/>
        <path id="Path_14476" data-name="Path 14476" d="M656.041,638.217c.1-.081.158-.112.2-.108a.347.347,0,0,0-.069-.032A.542.542,0,0,0,656.041,638.217Z" transform="translate(-639.724 -636.109)" fill="#fff"/>
        <path id="Path_14477" data-name="Path 14477" d="M655.7,693.052l-.293.188A.758.758,0,0,0,655.7,693.052Z" transform="translate(-639.375 -666.262)" fill="#fff"/>
        <path id="Path_14478" data-name="Path 14478" d="M636.31,673.2l.009-.1C636.289,673.116,636.281,673.146,636.31,673.2Z" transform="translate(-628.892 -655.32)" fill="#fff"/>
        <path id="Path_14479" data-name="Path 14479" d="M653.473,695.031a.884.884,0,0,0-.381-.115.611.611,0,0,0,.064.122Z" transform="translate(-638.107 -667.284)" fill="#fff"/>
        <path id="Path_14480" data-name="Path 14480" d="M633.232,648.676l0,0Z" transform="translate(-627.212 -641.921)" fill="#fff"/>
        <path id="Path_14481" data-name="Path 14481" d="M626.614,638.026c-.235.223.364.563.591.879-.132.41-.477-.213-.814-.355-.041.3.27.855.127.967-.089-.067-.142-.07-.212-.195.2.552-.508.563-.236,1.24a.668.668,0,0,1-.146-.087,5.283,5.283,0,0,1,.69.6c-.093.112.116.487-.236.223.071-.055-.05-.183-.119-.307l.03.241c-.545-.337-.011-.3-.345-.623-.03.177-.011.419-.022.62s-.042.358-.226.421a.311.311,0,0,1-.167-.258.764.764,0,0,1,.06-.209c.039-.1.062-.176-.239-.256l.413-.09c-.883-.479.2-.107-.719-.649a.471.471,0,0,0-.218.184.5.5,0,0,0-.046.106l-.08.163a1.448,1.448,0,0,1-.568.683c.168.316.471.239.65.543-.065.508-.545.449-1.041.444s-.969,0-.824.44c.291.287,1.162.5.319.784q-.366-.119-.714-.259c-.643.567.975.426-.148.916-.285-.1.087-.421-.1-.345-.884.275-.156.295.028.418a.506.506,0,0,1,.224.11l-.783.078a10.406,10.406,0,0,0,1.288.861,12.122,12.122,0,0,1,1.226.781c-.21.047-.513.011-.554.238a4.223,4.223,0,0,1,1.271,1.257c.038.058.1.136.117.181l.057.128q.054.131.1.266c.061.18.113.365.16.544l.551-.195c.036.045-.1.243-.214.271.031.32.25-.226.483-.285.126.076-.087.348-.264.394.631,0,1.573.225,1.492.955l-.176.045c.049.2.317.09.554-.007.2-.136.4-.217.267,0l-.1.035a.493.493,0,0,0,.172.274c.1.089.214.179.241.278s-.059.215-.428.294c.489,0,.367.1.276.151s-.135.1.473.23a3.231,3.231,0,0,1-.79-.028c-.191-.028-.362-.044-.569-.083-.06-.008.566.368.586.51l-.466-.317a3.151,3.151,0,0,1,.4.432q-.28-.188-.538-.4l-.028.238a.515.515,0,0,1,.407.166c-.025.394-.8.281-1.011.093l-.15.847c-.154-.164-.127-.3-.166-.471.153.668-.479-.347-.339.265.125.051.226.244.3.326a.64.64,0,0,0-.745.5l-.243-.3c-.44.326-.641.95-1.059,1.385.279-.036.733.452.659.625l-.48-.348c.189.33.289.016.456.489-.2.118-.595-.344-.647-.568l-.038.338c-.14-.107-.164-.217-.317-.382.191.33-.757-.057-.4.493l-.139-.108a12.259,12.259,0,0,0-.77,1.151c.366.352.152.415.353.8-.363.149-.941.181-1.192.512.012.361.262.351.4.647a.578.578,0,0,0-.2-.122l-.048-.047c-.009-.006-.011-.017-.023-.018l-.064.028-.125.063a.509.509,0,0,1-.082.023c-.154.059-.268.082-.24-.193-.1.128-.137.194-.187.27a1.507,1.507,0,0,0-.125.215,2.262,2.262,0,0,0-.167.4l-.051.2c-.023.083-.045.17-.064.266a4.418,4.418,0,0,0-.04.7c.218-.047.336-.124.462-.014.007.108-.1.19-.234.225l.079-.208a.305.305,0,0,1-.3.02l-.014-.1c-.006.125-.015.245-.028.363l-.021.176c0,.048,0,.037,0,.063a1.831,1.831,0,0,1-.107.418c-.051.14-.116.284-.183.434l-.1.23c-.034.084-.067.146-.1.146a1.062,1.062,0,0,0-.233.442,1.75,1.75,0,0,0-.107.508.78.78,0,0,0,.412.79l-.061-.037a5.177,5.177,0,0,0,.786.692c.105.411-.424-.085-.549.321a2.01,2.01,0,0,1,.934.959,1.183,1.183,0,0,0,.851.753c-.211.722.341,1.122.956,1.325.313.107.63.171.9.268a1.3,1.3,0,0,1,.722.489l.01-.327c.25-.261.313.25.627.347-.04-.249-.417-.33-.155-.478l.277-.008-.3-.028c.242-.013.527.009.788,0l.743-.03a11.655,11.655,0,0,0,1.479-.156,6.669,6.669,0,0,0,1.515-.449,5.772,5.772,0,0,0,.716-.377c.229-.146.341-.2.48-.289.391-.269-.968-1.383-.018-1.248l.3.547c.169-1.181,1.382-1.347,1.611-2.436.057.137.181.267.116.329.44.172.525-.5.28-.751.13-.073.247.205.435.271.317.045-.039-.744.335-.508.062.038.06.14.057.189-.056-.241.458-.382.022-.654.412-.075.313-.628.716-.612-.264-.527.608-.227.1-.833.554.6.89.041.776-.389.121.229.314.048.493.353a.457.457,0,0,0-.1-.724c1.01.372.1-1.216,1.164-.506a9.051,9.051,0,0,1,.833-2.145c.555.6-.465.58.156,1.169.213-.688-.02-1.444.562-1.748.194-.036.184.316.242.454.212-.686.918-.814,1-1.527a.39.39,0,0,1,.071.242c.06-.1.267-.1,0-.352l-.006.148c-.5-.257-.479-1.109-.666-1.324.615.886.581-.2,1.315.959a.645.645,0,0,0-.242-.454c.127-.026.253.053.374.33.139-.424-.238-.6.022-.852.125.128.123.228.246.4-.117-.377-.235-.754.087-.862.063.089.187.164.122.227.331-.409-.028-1.29.616-1.456.431.67.319.043.817.5l.076-.36-.319-.144c.175-.153.089-.767.4-.823a3.589,3.589,0,0,1,.06.366,6.181,6.181,0,0,0,.276-.561c-.134.041-.267.079-.4.112-.084-.457-.689-.5-.314-.69.014.1.168-.22.582-.138v0c-.1-.239-.223-.475.025-.578.217.054.629.4.773.438-.412-.394.2-.74-.282-1.148a1.431,1.431,0,0,0,.508.261l-.379-.293c.185-.077.26-.074.516.048.233-.387-.85-.164-.329-.515.023.049.094.052.131.152a1.083,1.083,0,0,0,.159-.737,1.06,1.06,0,0,1,.091-.723c.7-.084.1.451.695.354a3,3,0,0,0-.37-1.179,4.113,4.113,0,0,1-.266-.534,1.551,1.551,0,0,1-.075-.258.993.993,0,0,1-.046-.257l-.039.141c-.48.058-.393-.073-.26-.271s.325-.476.033-.549a.86.86,0,0,0,.433-.068,1.1,1.1,0,0,0-.41-.671,7.59,7.59,0,0,0-.853-.546l.248-.069c.042-.372-.334-.64-.442-.935-.241.1-.317-.048-.513.269a1.307,1.307,0,0,0,.055-.494.492.492,0,0,0-.112-.284.972.972,0,0,0-.522-.248c-.4-.1-.823-.173-.65-.828.06.057.289-.013.244-.06l-.57-.254c-.263.327-.125.233-.269.549-.227.122-.479.141-.58.038.38-.009.473-.475.558-.72-.077.1-.2.176-.29.275.312-.741-.63.557-.569-.092l.171-.139c-.189-.032-.495.071-.569-.093.293-.39.276-.041.565-.314-.186-.148-.976.315-.785-.177.166-.023.269.077.434.054.238-.565.117-.483.06-.669l0,.021-.1-.465-.037.181c-1.1.678-.586-.265-1.45.033.825-.275.365-.273.774-.637.036-.179.049-.409.189-.486-.445.177.026-.468-.618-.2.117-.133-.129-.155.214-.437-.27-.076-.177.257-.348.4-.692.156-.1-1.142-1.071-.946-.57-.093-1.053.264-1.569.163.1-.3.54-.366.54-.366.018-.35-.14-.442-.44-.459a.76.76,0,0,0,.294-.387c-.158-.095-.54.365-.521.016a4,4,0,0,1,.629-.371c-.264-.035-.644.048-.91,0,.178-.256.424-.233.621-.32a1.068,1.068,0,0,0-1.044.032l-.013.233c-.079-.047.265-.326.375-.341.419-.118.093.333-.025.466l-.189-.031c-.624.838.556.326.733.59l-.626.435.669-.21c-.091.186-.357.513-.545.483-.107.42.329-.047.17.381a.136.136,0,0,1-.1.086h.313c-.142.08-.352.4-.369.227-.032.584.846.054.545.559l-.056.01c.564.209.429-.351,1.177-.516l-.773,1.153.429-.35c.026.054.075.163-.1.3.415-.117.145-.194.484-.359-.166.546.692.365.111,1.027.365-.226.047-.412.457-.412-.613.724.349.123.216.6-.4.289-.381-.059-.516.424.689-.475.21.47.469.507.472-.456.513.129.914.224-.172.14.208.723.268,1.122l-.084.071c.514-.424.661-.1.931-.019a1.09,1.09,0,0,1-.649.384l.164.161a.528.528,0,0,1,.477-.087l-.391.309c.235.2.847.026.889.54.343-.311.691-1.133,1.2-1.055-.166.187-.457.5-.606.5.048,0,.236-.056.211.07l-.414.179c0,.258.315-.182.388-.052-.254.25-.106.255-.32.441-.05,0,.016-.193-.121-.133a.815.815,0,0,1-.089.686c.134-.154.34-.34.456-.289.233.2-.229.378-.233.635.112-.062.163-.01.221,0s.13,0,.324-.188c.049.06-.123.241-.211.36.255-.062.45.408.8-.056l0-.05c.013,0,.019,0,.034,0h0c.367.01.424.289.465.541l.023.192a1.651,1.651,0,0,0,0,.19.4.4,0,0,0,.148.3l-.166.066a.8.8,0,0,1,.3.315.694.694,0,0,0,.409.275c.012.085-.3.243-.512.242.148.16.368.182.088.47-.313-.172-.261.07-.242-.174-.121.246-.44.264.054.532a.527.527,0,0,0-.441.032.121.121,0,0,0-.028.2c.116-.034.232-.073.349-.116a.4.4,0,0,1-.065.338l-.584-.161c-.187.067-.225.15-.191.256a2.305,2.305,0,0,0,.239.364c.166.255.274.539-.367.442.325.295.382-.115.783.186-.185.2-1.049.014-1.084.06-.421.076.615.691.233.86.2.09.706.365.7.723-.232.18-.9-.312-.944-.526.019-.052.089-.034.146.012a.314.314,0,0,0-.276-.305l.155.151c-.244-.03-.4.193-.626-.088.1.2.22.282.382.266-.32-.093-.319.314-.721.426.126.041.344.18.3.221-.58.2.114.461-.086.794-.382-.08-.5-.606-.571-.145-.32.007-.436-.368-.495-.557.048.537-.647.264-.84.349l.006-.251a.348.348,0,0,1-.134.274l.376.23c-.128.023-.193.086-.317-.042.12.277.563.446.679.872-.255-.054-.142.473-.578.1.453-.18-.438-.37-.235-.7,0,.1-.069.161-.2.183a.168.168,0,0,1-.075-.138c-.661-.057.315.6-.009.9-.186-.267-.5-.359-.5-.259.131-.122.438.319.494.609-.377.024-.088.351-.214.436l.2-.037c.185.268.055.339-.015.551-.188-.165.007-.249-.121-.278.241.556-.763-.062-.713.425-.253-.053-.433-.418-.625-.434.049.539-.573-.049-.586.452.377.232.315.145.43.624l.208-.636.171.716c.131-.123.078-.461.205-.485.118.379.056.289.369.483-.629-.286-.08.613-.588.5l-.743-.765c-.636-.037-.152.926-.733,1.128l.257.006c.245.354-.2.284-.207.534a1.442,1.442,0,0,0-.619-.383c.192.182-.3.27.16.813l-.5-.16c-.452.18.351,1.086-.039,1.3-.18-.368-.495-.41-.485-.812-.1.1-.241.144-.069.322-.216-.1.055.625-.276.476.067.155.314.436.179.529a.526.526,0,0,1-.123-.126c.123.126-.011.35.365.532-1.092-.482-.819.934-1.76.523a4.139,4.139,0,0,1-.508.877c-.062-.089-.124-.128-.06-.139-.509.041.544.9-.031.955-.564-.251-.05-.391-.3-.447-.862-.8-.27.5-.96.219l0-.1c-.441-.123-.087.716-.411.922a.556.556,0,0,0-.121-.129,1.912,1.912,0,0,1-.112,1.473c-.24-.41-.053-.291-.426-.578-.069.162.555.5.417.827a2.218,2.218,0,0,1-.935-.434l.2-.235c-.559-.352-.264.3-.456.328l-.181-.217c-.262.389.21.927-.158,1.214l.178.125c.288.691-.393-.173-.237.368-.16-.177-.316-.359-.468-.542a2.514,2.514,0,0,1-.026.518,1.084,1.084,0,0,1-.223.541c-.036-.549.068-.907.007-1.244a.493.493,0,0,0-.2.559c.019-.086,0-.263.085-.186.121.563-.033.932-.338.986-.138-.678-.307-.724-.482-.756s-.325-.059-.311-.6a.6.6,0,0,1-.046.062l-.284.634a.028.028,0,0,0-.006-.006h0c-.085.5.116-.679.1-.558h-.014a.256.256,0,0,1-.124-.013.438.438,0,0,1-.211-.164c-.131-.159-.179-.347-.328-.4-.489.965-.107-.031-.745.862-.143-.024-.175-.068-.135-.131a3.1,3.1,0,0,1,.222-.707c.2-.258.242-.1.413-.278-.048-.172.3-.365.487-.6-.3.259-.481.3-.4.154a3.545,3.545,0,0,0-.347.393c-.314.065-.164-.127.019-.282s.375-.284.066-.259c.112-.022.232-.053.343-.086-.114.006-.14-.071-.243-.13a1.677,1.677,0,0,0-.733-.146,1.151,1.151,0,0,1,.508-.048.125.125,0,0,0-.006-.1.255.255,0,0,0-.034-.049.974.974,0,0,1-.031-.122c-.025-.107-.05-.137-.074-.144l-.078-.048a1.014,1.014,0,0,1-.151-.118c-.043-.053-.087-.068-.1-.156v-.05h0l-.868-.191h0v0l0-.007a.028.028,0,0,0,0-.018l.875.111a.2.2,0,0,1,.193-.062l.246.112c-.065-.047-.453-.271-.173-.193a1.407,1.407,0,0,0,.252.134.628.628,0,0,1-.164-.224c-.047-.1-.069-.158.014-.149q.109.115.223.219l.037,0s.012,0,.013,0l-.158-.123-.154-.124-.075-.062-.037-.032-.019-.015-.009-.008h0l.489.353h0a.074.074,0,0,0,.019-.012c.019-.018.035-.059-.016-.058-.006,0,0-.023-.017-.015a.494.494,0,0,1-.06.027l-.031.01s.011-.027.016-.039l.039-.089c.079-.443-.1-.938.041-1.259a1.216,1.216,0,0,0,1.379.259l.076.083c.579-.472.378-1.363.617-2.074.924.276,1.251-.8,2.075-.973-.178-.022-.443-.433-.419-.576.228-.008-.1-.7.416-.184l-.049.033c.608.4.694.028.885-.146l-.671-.678c1.517.412.7-1.486,2.283-1.359-.012-.331.218-.578.151-.877l.489.223a2.325,2.325,0,0,0,.926-1.738c.112.067.228.14.334.212.071-.256-.283-.446-.649-.593s-.745-.263-.792-.447c.248-.059.494-.121.74-.19-.033-.157-.061-.3-.082-.432l-.076-.445a1.41,1.41,0,0,0-.558-.871,2.357,2.357,0,0,0-.706-.3c.107-.049.316-.147.452-.047-.146-.17-.349-.572-.613-.847-.132-.137-.281-.244-.375-.2a.9.9,0,0,0-.424.322c.484-.481-.346-.45-.768-.451l.392-.319c-.634.271-.766.388-1.136.263-.011-.1.237-.333.222-.164,0-.381-.491.18-.532-.247l.317-.135c-.17-.229-.278-.093-.655.057-.269.014-.284-.473.013-.82-.225.166-.6.314-.622.1a.486.486,0,0,1,.285-.182c-.073-.32-.189-.229-.367-.229-.163.016-.331,0-.174-.2a1.612,1.612,0,0,0,.255-.168c.111.132.192.253.155.268.177-.151.26-.26.377-.367a5.886,5.886,0,0,1,.529-.4,2.251,2.251,0,0,1-.616.312c-.221.07-.414.066-.345-.02.042-.022.083-.043.153-.073l.06-.013c.032-.033-.024-.029-.121-.017.058-.05.108-.079.1-.1.422-.117.181-.111.175-.144a6.683,6.683,0,0,0-1.045.14.187.187,0,0,1,.145.031.292.292,0,0,0,.084.011l-.056.006a1.469,1.469,0,0,1,.164.119c-.32.042-.638.026-.367-.1-.419.037-.879.047-1.1.042a6.2,6.2,0,0,1,1.494-.354c.107-.01.207-.013.307-.014-.148-.052-.142-.126-.23-.223a2.684,2.684,0,0,0-.688-.47c-.063-.112.353.029.52.071.069.067.022.094.152.157-.162-.185.158-.3-.378-.705.4.016.442.426.534.174l.14.148a.718.718,0,0,0,.279.05.387.387,0,0,0,.173-.223,2.217,2.217,0,0,0,.045-.745c-.017-.54,0-1.062.838-.943a.386.386,0,0,1-.25-.079c1.22-.395,1.215-2.07,2.678-2.208.359-.094.077-.414-.021-.779l.44.33-.222-.675c0-.658,1.528.346,1.315-.687l-.318-.2c.2-.105.315-.637.593-.317-.033-.062-.226-.316-.03-.243l.21.194.013-.717c.431-.148.77.833,1.222.445.075-.235-.16-1.029-.355-1.1-.072.054-.286.04-.5-.154l.033-.248c-.579-.611-1.09-1.321-1.857-1.374l.13.605-.37-.2.183-.227c-.391-.149-.219.163-.133.409a.9.9,0,0,0-.424-.208l.342.8c-.265-.2-.363-.563-.652-.526.158.373.636.4.629.762-.39-.147-.58-.4-.48-.032a.567.567,0,0,1-.26-.378c.067.3-.238.4.021.779-.459-.2-.317.5-.877-.061.1.171.238.652.152.79-.484-.871-.452.387-1.134-.378.467.75-.264.821-.186,1.424-.034-.062-.1-.188-.049-.181-.2.1-.428-.031-.64-.045.49.512.375.863.564,1.3-.673-.287-.487-.692-1.016-1.089.421.39.1.725.5.993a1.615,1.615,0,0,1-.761-.353c.612.641-.022.238.253.736-.515-.095-.647-.522-.675-.107C626.643,638.447,626.614,638.026,626.614,638.026Zm-2.188,8-.01,0-.19-.153Zm.656.661a2.092,2.092,0,0,0-.263-.3c.136-.111.325-.177.375-.112C625.057,646.306,625.11,646.5,625.083,646.689Zm2.715-2.255c.1,0-.008.031-.122.064a.539.539,0,0,0-.108-.023l-.075.011Z" transform="translate(-619.904 -633.719)" fill="#fff"/>
        <path id="Path_14482" data-name="Path 14482" d="M635.326,657.657a.3.3,0,0,1-.059-.007,1.023,1.023,0,0,0-.116.044l.2-.02Z" transform="translate(-628.266 -646.845)" fill="#fff"/>
        <path id="Path_14483" data-name="Path 14483" d="M668.536,657.421v.016a.246.246,0,0,1,.04-.064C668.561,657.4,668.549,657.405,668.536,657.421Z" transform="translate(-646.577 -646.693)" fill="#fff"/>
        <path id="Path_14484" data-name="Path 14484" d="M636.489,672.341l.107.073-.084-.074Z" transform="translate(-629 -654.902)" fill="#fff"/>
        <path id="Path_14485" data-name="Path 14485" d="M666.024,649.157a.322.322,0,0,0,.06-.124A.42.42,0,0,0,666.024,649.157Z" transform="translate(-645.2 -642.118)" fill="#fff"/>
        <path id="Path_14486" data-name="Path 14486" d="M663.817,646.411l-.022-.28A.817.817,0,0,0,663.817,646.411Z" transform="translate(-643.976 -640.527)" fill="#fff"/>
        <path id="Path_14487" data-name="Path 14487" d="M662.224,644.526a1.928,1.928,0,0,0-.17.137v0Z" transform="translate(-643.022 -639.646)" fill="#fff"/>
        <path id="Path_14488" data-name="Path 14488" d="M664.8,682.394a.087.087,0,0,0-.015.048C664.781,682.587,664.8,682.508,664.8,682.394Z" transform="translate(-644.52 -660.416)" fill="#fff"/>
        <path id="Path_14489" data-name="Path 14489" d="M671.558,671.388a1.2,1.2,0,0,1,.093.3C671.744,671.614,671.8,671.545,671.558,671.388Z" transform="translate(-648.235 -654.38)" fill="#fff"/>
        <path id="Path_14490" data-name="Path 14490" d="M656.087,693l-.006-.007a.3.3,0,0,1-.027.027Z" transform="translate(-639.731 -666.229)" fill="#fff"/>
        <path id="Path_14491" data-name="Path 14491" d="M671.379,672.279a.191.191,0,0,0,.173-.233C671.477,672.1,671.37,672.159,671.379,672.279Z" transform="translate(-648.137 -654.74)" fill="#fff"/>
        <path id="Path_14492" data-name="Path 14492" d="M654.843,636.171l-.024-.055a.381.381,0,0,1-.063.053Z" transform="translate(-639.019 -635.034)" fill="#fff"/>
        <path id="Path_14493" data-name="Path 14493" d="M654.651,636.23l-.087,0C654.584,636.248,654.6,636.263,654.651,636.23Z" transform="translate(-638.914 -635.095)" fill="#fff"/>
        <path id="Path_14494" data-name="Path 14494" d="M654.159,636.168l.183,0C654.311,636.139,654.283,636.088,654.159,636.168Z" transform="translate(-638.692 -635.039)" fill="#fff"/>
        <path id="Path_14495" data-name="Path 14495" d="M656.975,638.882l.144-.116A.872.872,0,0,0,656.975,638.882Z" transform="translate(-640.236 -636.487)" fill="#fff"/>
        <path id="Path_14496" data-name="Path 14496" d="M657.516,639.065c-.048-.109.083-.475-.109-.5l-.114.093C657.539,638.512,657.221,639.208,657.516,639.065Z" transform="translate(-640.411 -636.374)" fill="#fff"/>
        <path id="Path_14497" data-name="Path 14497" d="M656.574,645.834l-.172-.382c-.091.186-.214.437-.374.343C655.961,646.559,656.268,645.413,656.574,645.834Z" transform="translate(-639.712 -640.154)" fill="#fff"/>
        <path id="Path_14498" data-name="Path 14498" d="M658.349,648.64c-.213-.086-.2.2-.287.273C658.283,648.882,658.338,648.873,658.349,648.64Z" transform="translate(-640.833 -641.894)" fill="#fff"/>
        <path id="Path_14499" data-name="Path 14499" d="M669.186,662.281l-.459.05C668.8,662.428,668.9,662.309,669.186,662.281Z" transform="translate(-646.682 -649.384)" fill="#fff"/>
        <path id="Path_14500" data-name="Path 14500" d="M674.725,665.8l.313-.143-.4-.163Z" transform="translate(-649.923 -651.148)" fill="#fff"/>
        <path id="Path_14501" data-name="Path 14501" d="M667.22,665.986l-.045-.068.093.235Z" transform="translate(-645.831 -651.379)" fill="#fff"/>
        <path id="Path_14502" data-name="Path 14502" d="M646.538,688.542l.432.372C646.976,688.764,646.546,688.29,646.538,688.542Z" transform="translate(-634.512 -663.748)" fill="#fff"/>
        <path id="Path_14503" data-name="Path 14503" d="M637.067,699.318a.724.724,0,0,0-.294-.144c-.061-.01-.073.035-.012.164C636.848,699.32,637.073,699.415,637.067,699.318Z" transform="translate(-629.128 -669.619)" fill="#fff"/>
        <path id="Path_14504" data-name="Path 14504" d="M641.858,681.312l.052.223.049-.284Z" transform="translate(-631.945 -659.789)" fill="#fff"/>
      </g>
      <g id="Path_13686" data-name="Path 13686" transform="translate(571.017 508.19)">
        <path id="Path_14505" data-name="Path 14505" d="M622.141,565.822c.037-.155.019-.506-.091-.442l-.086.593Z" transform="translate(-609.032 -539.553)" fill="#fff"/>
        <path id="Path_14506" data-name="Path 14506" d="M620.472,563.838a2.7,2.7,0,0,0-.287,1.335,9.732,9.732,0,0,0,.365-1c.108-.065.177.2.151.42.043-.151.168.14.234-.233-.131-.47-.289-.5-.5-.124A1.113,1.113,0,0,1,620.472,563.838Z" transform="translate(-608.053 -538.712)" fill="#fff"/>
        <path id="Path_14507" data-name="Path 14507" d="M603.642,552.169l-.022.089A.121.121,0,0,0,603.642,552.169Z" transform="translate(-598.971 -532.311)" fill="#fff"/>
        <path id="Path_14508" data-name="Path 14508" d="M600.208,540.334c.016.042.077.055.13.053C600.3,540.352,600.259,540.322,600.208,540.334Z" transform="translate(-597.099 -525.819)" fill="#fff"/>
        <path id="Path_14509" data-name="Path 14509" d="M601.571,538.284a.448.448,0,0,0-.043.051C601.584,538.317,601.616,538.3,601.571,538.284Z" transform="translate(-597.823 -524.696)" fill="#fff"/>
        <path id="Path_14510" data-name="Path 14510" d="M603.625,551.891l.063-.229C603.521,551.764,603.616,551.807,603.625,551.891Z" transform="translate(-598.954 -532.033)" fill="#fff"/>
        <path id="Path_14511" data-name="Path 14511" d="M617.192,566.445a.375.375,0,0,0,.129-.139.543.543,0,0,1-.105.047Z" transform="translate(-606.415 -540.065)" fill="#fff"/>
        <path id="Path_14512" data-name="Path 14512" d="M608.124,555.316l.033.029c.054-.043.116-.1.184-.161Z" transform="translate(-601.441 -533.966)" fill="#fff"/>
        <path id="Path_14513" data-name="Path 14513" d="M611.047,557.656c-.024-.04-.293.391-.419.573.127-.167.2-.237.256-.251C610.933,557.894,610.986,557.791,611.047,557.656Z" transform="translate(-602.814 -535.319)" fill="#fff"/>
        <path id="Path_14514" data-name="Path 14514" d="M617.059,561.864l.069-.055C617.11,561.827,617.082,561.841,617.059,561.864Z" transform="translate(-606.342 -537.599)" fill="#fff"/>
        <path id="Path_14515" data-name="Path 14515" d="M606.225,553.1a1.488,1.488,0,0,0,.124-.133A1.009,1.009,0,0,0,606.225,553.1Z" transform="translate(-600.399 -532.747)" fill="#fff"/>
        <path id="Path_14516" data-name="Path 14516" d="M628.792,568.172l-.019-.089C628.769,568.137,628.772,568.173,628.792,568.172Z" transform="translate(-612.765 -541.04)" fill="#fff"/>
        <path id="Path_14517" data-name="Path 14517" d="M622.36,563.036l.033-.029.006-.285Z" transform="translate(-609.249 -538.1)" fill="#fff"/>
        <path id="Path_14518" data-name="Path 14518" d="M603.407,535.009l-.01,0C603.448,535.064,603.441,535.04,603.407,535.009Z" transform="translate(-598.848 -522.9)" fill="#fff"/>
        <path id="Path_14519" data-name="Path 14519" d="M626.624,517.89c-.072-.488.4-.5.251-1.057C626.851,517.033,626.484,517.548,626.624,517.89Z" transform="translate(-611.57 -512.93)" fill="#fff"/>
        <path id="Path_14520" data-name="Path 14520" d="M616.968,566.435a.291.291,0,0,1-.1-.01A.089.089,0,0,0,616.968,566.435Z" transform="translate(-606.238 -540.13)" fill="#fff"/>
        <path id="Path_14521" data-name="Path 14521" d="M627.2,516.763v0l-.017-.054Z" transform="translate(-611.894 -512.861)" fill="#fff"/>
        <path id="Path_14522" data-name="Path 14522" d="M605.585,527.488a1.359,1.359,0,0,0-.206-.1A1.043,1.043,0,0,0,605.585,527.488Z" transform="translate(-599.935 -518.722)" fill="#fff"/>
        <path id="Path_14523" data-name="Path 14523" d="M601.731,532.38l.09-.046A.142.142,0,0,0,601.731,532.38Z" transform="translate(-597.935 -521.432)" fill="#fff"/>
        <path id="Path_14524" data-name="Path 14524" d="M606.619,524.034c.055,0,.114.037.1-.05a.433.433,0,0,0-.056-.031C606.7,524.016,606.708,524.057,606.619,524.034Z" transform="translate(-600.616 -516.836)" fill="#fff"/>
        <path id="Path_14525" data-name="Path 14525" d="M609.034,521.724c-.03-.026-.057-.042-.086-.063l-.023.051Z" transform="translate(-601.88 -515.578)" fill="#fff"/>
        <path id="Path_14526" data-name="Path 14526" d="M641.019,561.094a2.5,2.5,0,0,1-.366-.284C640.91,561.064,640.758,561.373,641.019,561.094Z" transform="translate(-619.282 -537.051)" fill="#fff"/>
        <path id="Path_14527" data-name="Path 14527" d="M617.185,565.992c-.035.124-.064.184-.1.205a.281.281,0,0,0,.072-.016A.575.575,0,0,0,617.185,565.992Z" transform="translate(-606.356 -539.893)" fill="#fff"/>
        <path id="Path_14528" data-name="Path 14528" d="M600.279,517.676l.289-.2A.768.768,0,0,0,600.279,517.676Z" transform="translate(-597.138 -513.281)" fill="#fff"/>
        <path id="Path_14529" data-name="Path 14529" d="M650.626,530.779l.078.059C650.708,530.806,650.687,530.783,650.626,530.779Z" transform="translate(-624.752 -520.58)" fill="#fff"/>
        <path id="Path_14530" data-name="Path 14530" d="M602.5,515.8a.909.909,0,0,0,.372.138.632.632,0,0,0-.054-.127Z" transform="translate(-598.355 -512.366)" fill="#fff"/>
        <path id="Path_14531" data-name="Path 14531" d="M640.645,560.8l0,0Z" transform="translate(-619.278 -537.046)" fill="#fff"/>
        <path id="Path_14532" data-name="Path 14532" d="M613.529,534.217c.3-.164-.2-.642-.337-1.006.222-.357.409.326.707.544.124-.279-.067-.887.084-.973.074.082.125.094.171.231-.109-.58.6-.475.4-1.17a.724.724,0,0,1,.134.1,5.4,5.4,0,0,1-.617-.676c.091-.1-.1-.48.225-.183-.067.044.042.181.1.311l-.021-.237c.506.387,0,.292.3.646.083-.349-.036-.942.237-.951.459.411-.228.486.358.691l-.408.053c.837.548-.2.092.666.7.47-.2.187-.573.634-.782-.174-.314-.384-.327-.561-.639-.039-.865,1.486.66,1.2-.241-.233-.36-.816-.88-.3-.884l.48.516c.326-.32-.647-.8,0-.885.176.22-.018.408.089.4.625.077-.193-.4-.062-.576l.536.305c.166-.469.079-1.122.2-1.621.15.108.28.279.5.256a1.469,1.469,0,0,1,.419-.947,5.975,5.975,0,0,1,.8-.8l-.421-.4c.025-.051.257-.031.341.06.258-.187-.318-.111-.487-.287,0-.144.34-.095.47.037a2.75,2.75,0,0,1-.353-.96.73.73,0,0,1,.328-.8l.142.113c.268-.331-1.016-.54-.48-.791l.084.07a3.5,3.5,0,0,0,.127-1.136,1.3,1.3,0,0,1,.462-1.038c-.384-.035-.308-.225-.271-.412s.014-.362-.514-.321c.46-.49.669-.393.919-1.088.024-.182-.7-.117-.858-.285l.541-.129q-.32-.073-.636-.134l.607-.31-.187-.153c-.012.085-.2.225-.358.255-.159-.111-.11-.308.009-.5a1.041,1.041,0,0,1,.426-.413q-.348-.274-.691-.522c.214-.067.327.019.495.061-.666-.163.522-.28-.089-.43-.1.093-.317.1-.423.136a.61.61,0,0,0-.185-.872l.37-.116c-.138-.557-.713-.94-1.024-1.461-.034.286-.624.6-.764.49l.455-.383c-.36.108-.092.274-.58.33-.065-.211.466-.5.7-.5l-.33-.1a2.954,2.954,0,0,1,.442-.23c-.363.124.184-.743-.425-.5l.129-.12c-.363-.514-.737-.566-1.086-.922-.375.342-.424.122-.81.307-.136-.347-.162-.911-.517-1.171-.393,0-.342.275-.636.426.276-.371-.094-.6.288-.724a3.221,3.221,0,0,0-.561-.268,2.328,2.328,0,0,0-.775-.1c-.042.2-.023.305-.142.417-.135.006-.114-.3.015-.479l.051-.025c-.487.111-.648-.4-.888-.834s-.488-.891-.953-.534l.049-.033q-.382.125-.743.261c-.232-.169.272-.27.173-.611a.88.88,0,0,1-.523.147.785.785,0,0,1-.365-.115c-.218-.119-.425-.268-.741-.083-.051-.731-.455-.75-.861-.731a2.8,2.8,0,0,1-.6.009.6.6,0,0,1-.491-.325l.013.322c-.167.307-.168-.193-.278-.272.005.25.148.3.047.466a4.077,4.077,0,0,1-1.914-.094c-.333-.075-.675-.134-1.024-.2-.174-.031-.35-.06-.526-.082s-.347-.013-.519-.007c-.508.041.163,1.673-.607,1.082l-.01-.614a2.3,2.3,0,0,1-1.268.8,2.051,2.051,0,0,0-1.166.842c-.019-.148-.1-.309-.021-.346-.385-.29-.646.358-.459.656-.143.04-.195-.256-.366-.362-.312-.107-.126.719-.447.425-.054-.047-.035-.15-.023-.2.012.248-.521.317-.129.648-.42.02-.395.562-.788.511.233.542-.62.2-.129.819-.53-.62-.914-.071-.767.363-.129-.225-.314-.037-.5-.335a.448.448,0,0,0,.136.717c-.519-.153-.538.15-.526.418s0,.477-.579.21q-.037.324-.08.617c-.018.2-.037.4-.061.582-.039.375-.126.7-.168,1.035-.725-.409.271-.659-.477-1.062a3.306,3.306,0,0,0,.15,1.008.8.8,0,0,1-.141.8c-.17.1-.286-.221-.388-.329a2.16,2.16,0,0,1-.205.9,1.048,1.048,0,0,0-.058.871.4.4,0,0,1-.182-.177c0,.113-.18.213.179.3l-.07-.13c.555,0,.976.707,1.25.783-.985-.432-.384.424-1.621-.154a.629.629,0,0,0,.445.249c-.1.084-.245.088-.494-.078.1.422.534.364.465.7a2.559,2.559,0,0,1-.436-.186c.316.241.636.459.444.718-.1-.031-.249-.016-.233-.1-.038.514.848.912.478,1.407-.771-.179-.265.172-.941.2a3.154,3.154,0,0,0,.2.3l.322-.12c0,.258.5.459.292.68l-.287-.172.153.465.241-.282c.359.224.85-.08.679.245-.07-.057,0,.231-.37.4h0c.232.094.473.179.334.375-.206.078-.743.074-.88.125.578.033.237.56.863.584a1.759,1.759,0,0,0-.564.081l.473,0c-.116.139-.181.172-.46.217,0,.355.806-.3.547.175-.044-.021-.107.01-.191-.037-.083.449.466.678.391,1.088-.6.33-.271-.258-.769.046a3,3,0,0,0,.7.653c.254.2.508.382.544.654l.025-.12c.891-.362-.26.56.267.592a1.059,1.059,0,0,0-.407.144c.056.391.59.539,1.128.813l-.243.085c-.055.295.231.524.282.777.236-.095.281.033.515-.252-.35.722.064.854.431.949s.759.121.6.758c-.057-.048-.28.036-.236.078l.552.2c.241-.345.112-.239.246-.556.212-.142.44-.194.53-.112-.342.06-.435.517-.5.761.067-.109.184-.2.26-.3-.248.742.56-.629.535-.023l-.148.163c.177-.007.446-.168.522-.032-.231.43-.245.1-.486.414.194.107.842-.5.733-.014-.148.068-.257,0-.4.059-.156.593-.04.478.042.638l-.006-.019.181.411v-.181c.446-.466.582-.45.706-.378s.237.2.581-.1c-.663.545-.261.375-.536.849.013.175.068.391-.038.51.354-.319.124.447.623-.03-.062.165.163.1-.05.485.268-.026.071-.305.18-.5.275-.193.392.034.55.259s.358.43.721.123c.515-.2.747-.767,1.166-.961a.786.786,0,0,1-.251.6c.141.3.31.307.542.14a.819.819,0,0,0-.03.482c.172-.02.222-.614.383-.326a3.807,3.807,0,0,1-.28.672c.225-.129.463-.425.675-.554.014.313-.178.444-.279.631.248-.1.622-.183.732-.675l-.121-.181c.079-.018,0,.42-.07.5-.233.35-.254-.208-.239-.385l.149-.092c-.006-1.045-.548.084-.829-.02l.245-.722q-.186.287-.386.571c-.02-.2.031-.619.177-.708-.1-.4-.215.224-.278-.217a.166.166,0,0,1,.036-.126l-.223.173c.071-.144.1-.522.176-.39-.182-.5-.634.418-.591-.158l.038-.038c-.488.115-.2.521-.725,1.022q.106-.685.238-1.361l-.228.5c-.036-.035-.106-.1-.012-.3-.292.295-.058.234-.278.533-.014-.274-.179-.266-.3-.308s-.209-.127-.047-.536c-.246.346.056.386-.278.548.34-.885-.317.026-.31-.452.279-.407.322-.1.347-.57-.486.685-.251-.321-.45-.268-.335.564-.439.053-.791.095.125-.163-.221-.6-.269-.933l.073-.083c-.438.494-.586.25-.812.221a1.4,1.4,0,0,1,.575-.467c-.044-.035-.085-.074-.128-.111a.516.516,0,0,1-.416.162l.36-.342c-.174-.13-.748.124-.721-.328-.349.3-.74,1.1-1.2,1.05.171-.184.472-.488.6-.494-.043,0-.219.067-.182-.051l.394-.192c.039-.232-.3.188-.354.075.262-.242.13-.236.348-.416.044,0-.042.172.088.108a.77.77,0,0,1,.189-.6c-.144.143-.358.32-.455.283-.178-.157.271-.339.322-.554-.231.122-.115-.157-.533.174-.039-.057.149-.222.247-.331-.254.051-.382-.4-.76.041l-.011.047c-.013,0-.017,0-.031,0h0c-.341-.006-.409-.23-.417-.476s.008-.5-.2-.61l.156-.086c-.3-.106-.338-.414-.765-.4-.032-.067.222-.29.429-.35-.2-.107-.407-.047-.22-.406.35.052.235-.161.273.086.063-.278.317-.417-.225-.479.457-.081.485-.349.319-.4l-.255.252a.37.37,0,0,1-.1-.319l.592-.126c.287-.315-.048-.407-.341-.532s-.533-.267.053-.55c-.43-.041-.255.3-.753.29.047-.24.865-.594.858-.65.294-.308-.921-.139-.721-.472-.212.057-.778.159-.992-.076.067-.243.884-.329,1.062-.208.02.049-.046.078-.119.081a.328.328,0,0,0,.4.043l-.215-.01c.214-.121.177-.4.531-.347a.31.31,0,0,0-.46.069c.3-.275-.03-.415.2-.684-.12.04-.375.077-.37.032.287-.4-.4-.192-.476-.488.334-.14.776.11.516-.189.228-.148.568.019.739.093-.412-.279.33-.405.415-.514l.153.14a.178.178,0,0,1-.069-.2l-.434,0c.085-.06.1-.12.272-.09-.266-.121-.713-.054-1.068-.275.232-.062-.188-.366.386-.283-.247.274.561.082.612.353-.06-.06-.05-.12.036-.176a.232.232,0,0,1,.142.059c.565-.163-.6-.259-.506-.56.3.115.607.083.552.021-.035.112-.532-.076-.74-.257.29-.129-.124-.267-.069-.366l-.143.087c-.3-.134-.232-.227-.27-.4.241.067.116.181.239.165-.475-.339.68-.155.4-.49.237-.017.564.21.73.184-.309-.385.5-.056.288-.412-.421-.12-.334-.057-.633-.4l.09.506q-.229-.243-.451-.5c-.063.121.119.36.029.406-.276-.261-.174-.208-.535-.288.674.092-.177-.5.316-.514l.954.478c.28-.026.2-.2.133-.409s-.145-.434.073-.535l-.225.013c-.334-.268.08-.247,0-.453a2.018,2.018,0,0,0,.653.288c-.221-.145.189-.208-.364-.657l.485.136c.338-.129-.582-.937-.254-1.108.227.326.513.387.584.72.072-.073.182-.1,0-.262.2.107-.159-.539.155-.381-.084-.141-.342-.411-.238-.484a.694.694,0,0,1,.125.124c-.129-.126-.03-.307-.389-.511.524.276.677.11.824-.077a.624.624,0,0,1,.245-.229.535.535,0,0,1,.454.14,2.258,2.258,0,0,1,.435-.645c.047.1.1.148.043.138.43.128-.4-.953.1-.826.448.4,0,.362.212.491.327.488.386.406.437.256s.095-.374.357-.112l-.015.083c.328.286.159-.567.454-.617a.777.777,0,0,0,.071.162,1.377,1.377,0,0,1,.426-1.2c.069.464-.038.273.168.694.094-.1-.29-.692-.087-.9a2.279,2.279,0,0,1,.565.829,2.2,2.2,0,0,0-.2.1c.3.568.264-.112.415-.032l.063.274c.292-.168.13-.859.516-.907l-.083-.2c.073-.738.251.358.365-.191l.182.694a2.927,2.927,0,0,1,.623-.92,5.932,5.932,0,0,1-.462,1.188.517.517,0,0,0,.456-.48c-.047.076-.093.26-.157.159.092-.592.306-.866.592-.87.015.691.192.77.393.807s.436.066.507.6a.483.483,0,0,1,.671-.056c.215.144.418.34.672.335.013-1.085.153-.008.336-1.1.144-.049.188-.009.184.061q.122.373.219.738c0,.333-.172.207-.22.451.224.145-.014.48.06.8.074-.389.237-.523.33-.346q-.02-.266-.051-.537c.534-.477.012.976.524.536l-.22.289c.238-.131.587.213,1.118-.494-.023.13-.114.422-.219.46.161.16.491.032.785,0s.567-.025.569.295l-.177.209c.11-.023.41-.354.339-.061-.068.089-.179.2-.159.238.085-.052.45-.252.447-.057l-.255.188c.064.27.3.215.593.116a1.674,1.674,0,0,1,.814-.157,1.382,1.382,0,0,0-.444,1.206l-.084.075c.122.212.377.247.683.259a3.012,3.012,0,0,1,.9.127.822.822,0,0,0-.093.871c.1.25.267.486.135.805a1.026,1.026,0,0,1,.665-.229c-.1.168.637.051-.033.339l0-.042c-.616.376-.338.477-.309.65l.9-.325c-.57.483-.336.692-.122.924s.433.45-.142.7c.267.053.282.191.532.26l-.5.084a.977.977,0,0,0,.038.817l-.367-.041c-.026.194,1.481.148,1.522.37l-.759.093c.052.4-.67.72.013,1.134-.112-.015-.331-.045-.359-.106-.009.181-.592.58.458.671-.679-.094-.118.365.134.645l-.484-.134c.585.3.754.35.861.646-.079.044-.4-.049-.258-.094-.305.127.42.278.1.45l-.286-.179c-.09.188.088.222.4.447.144.192-.264.348-.7.214.252.12.557.364.391.437a.644.644,0,0,1-.29-.171c-.419.192.321.714-.226.732a.945.945,0,0,0-.287-.1c.129-.239.251-.424.275-.392-.428-.18-.591-.033-1.107-.435.255.271.81.87.524.965a1.176,1.176,0,0,1-.154-.05l-.037-.043c-.061.021-.04.079.01.152-.1.019-.172.027-.211.076-.347-.17-.3.094-.371.172.437.259.294.338.719.446-.04,0-.041-.05-.021-.123a.113.113,0,0,0-.021-.067l.034.029a2.25,2.25,0,0,1,.113-.249c.18.2.316.393.01.354.25.217.5.451.614.568a10.971,10.971,0,0,1-1.539-.43c.03.415-.275.717.284,1.489.023.156-.284-.094-.42-.168-.034-.105.022-.144-.062-.255.055.3-.307.479.136.981-.386-.026-.339-.527-.5-.21l-.11-.175c-.611-.167-.495.3-.459.795.033.467-.032.943-.721.609a.433.433,0,0,1,.2.14,1.2,1.2,0,0,0-.649.2c-.184.116-.331.3-.515.43a1.053,1.053,0,0,1-1.312.214c-.283-.1-.164.309-.208.67l-.213-.5c-.015.225-.037.443-.064.667-.118.268-.365-.014-.588-.249s-.426-.42-.57.034l.122.354c-.173-.044-.492.293-.52-.13-.007.069-.005.388-.093.207l-.039-.283a5.388,5.388,0,0,1-.355.525c-.33-.19-.042-1.132-.468-1.167a1.972,1.972,0,0,0-.384,1.043c.069.01.179.169.191.454l-.164.157c-.019.842-.193,1.71.307,2.276q.165-.265.317-.53l.13.4-.285.04c.179.376.272.031.369-.207a.893.893,0,0,0,.175.44c.093-.273.18-.545.26-.819.075.322-.086.666.16.819.113-.393-.223-.713,0-.992.2.356.2.672.339.32a.571.571,0,0,1-.027.459c.134-.282.435-.177.444-.631.122.22.259.168.377.159s.221.009.3.4c.015-.2.154-.683.29-.752-.039.994.573-.09.787.909-.034-.866.633-.622.82-1.192.005.07.017.213-.03.184.224-.006.379.211.574.311-.247-.664-.019-.952-.056-1.419.519.508.216.818.561,1.38-.25-.516.168-.716-.125-1.105.365.293.242.111.606.586-.382-.8.1-.21-.022-.775.457.234.475.682.613.285C613.621,533.8,613.529,534.217,613.529,534.217Zm4.062-6.4.009,0-.039.146Zm.252-.541a.92.92,0,0,0-.13.225c-.167-.058-.319-.157-.286-.206C617.52,527.379,617.671,527.3,617.844,527.28Zm-3.617-.666c-.027-.094.072-.063.167-.019a.384.384,0,0,0-.011.134l.049.038A2.35,2.35,0,0,1,614.227,526.615Z" transform="translate(-593.323 -508.19)" fill="#fff"/>
        <path id="Path_14533" data-name="Path 14533" d="M640.739,549.946c0,.015.019.031.016.045a1.1,1.1,0,0,0,.12.022l-.123-.1Z" transform="translate(-619.33 -531.072)" fill="#fff"/>
        <path id="Path_14534" data-name="Path 14534" d="M603.561,552.381l0-.015a.284.284,0,0,1-.046.06C603.535,552.406,603.547,552.4,603.561,552.381Z" transform="translate(-598.915 -532.419)" fill="#fff"/>
        <path id="Path_14535" data-name="Path 14535" d="M651.4,532.165l-.125.03.123.029Z" transform="translate(-625.109 -521.34)" fill="#fff"/>
        <path id="Path_14536" data-name="Path 14536" d="M605.244,559.8a.323.323,0,0,0-.049.126A.437.437,0,0,0,605.244,559.8Z" transform="translate(-599.835 -536.498)" fill="#fff"/>
        <path id="Path_14537" data-name="Path 14537" d="M607.643,561.8l.073.256A.777.777,0,0,0,607.643,561.8Z" transform="translate(-601.177 -537.592)" fill="#fff"/>
        <path id="Path_14538" data-name="Path 14538" d="M609.425,563.265a2.005,2.005,0,0,0,.121-.183v0Z" transform="translate(-602.154 -538.295)" fill="#fff"/>
        <path id="Path_14539" data-name="Path 14539" d="M594.441,530.223a.088.088,0,0,0-.01-.049C594.366,530.045,594.38,530.124,594.441,530.223Z" transform="translate(-593.907 -520.211)" fill="#fff"/>
        <path id="Path_14540" data-name="Path 14540" d="M595.715,541.76a1.248,1.248,0,0,1-.261-.133C595.427,541.72,595.429,541.79,595.715,541.76Z" transform="translate(-594.486 -526.529)" fill="#fff"/>
        <path id="Path_14541" data-name="Path 14541" d="M600.207,517.945l.006.006a.321.321,0,0,1,.027-.029Z" transform="translate(-597.099 -513.528)" fill="#fff"/>
        <path id="Path_14542" data-name="Path 14542" d="M595.383,541.109c-.1.1-.07.172,0,.234C595.416,541.266,595.464,541.176,595.383,541.109Z" transform="translate(-594.418 -526.245)" fill="#fff"/>
        <path id="Path_14543" data-name="Path 14543" d="M619.345,566.984l.051.028a.415.415,0,0,1,.014-.081Z" transform="translate(-607.595 -540.409)" fill="#fff"/>
        <path id="Path_14544" data-name="Path 14544" d="M619.49,566.864l.065-.056C619.528,566.806,619.5,566.808,619.49,566.864Z" transform="translate(-607.675 -540.34)" fill="#fff"/>
        <path id="Path_14545" data-name="Path 14545" d="M619.769,566.541l-.135.121C619.676,566.665,619.728,566.684,619.769,566.541Z" transform="translate(-607.754 -540.194)" fill="#fff"/>
        <path id="Path_14546" data-name="Path 14546" d="M616.177,565.994l-.057.176A.928.928,0,0,0,616.177,565.994Z" transform="translate(-605.827 -539.894)" fill="#fff"/>
        <path id="Path_14547" data-name="Path 14547" d="M615.272,565.791c.089.066.164.447.337.373l.046-.14C615.522,566.273,615.443,565.515,615.272,565.791Z" transform="translate(-605.361 -539.749)" fill="#fff"/>
        <path id="Path_14548" data-name="Path 14548" d="M613.39,559.4c.073.086.152.161.23.243.02-.2.057-.468.2-.466C613.693,558.506,613.728,559.612,613.39,559.4Z" transform="translate(-604.329 -536.035)" fill="#fff"/>
        <path id="Path_14549" data-name="Path 14549" d="M611.811,558.056c.185-.013.132-.252.194-.345C611.835,557.823,611.79,557.847,611.811,558.056Z" transform="translate(-603.461 -535.351)" fill="#fff"/>
        <path id="Path_14550" data-name="Path 14550" d="M602.061,547.694l.429-.175C602.378,547.441,602.325,547.591,602.061,547.694Z" transform="translate(-598.116 -529.749)" fill="#fff"/>
        <path id="Path_14551" data-name="Path 14551" d="M595.733,546.854l-.233.227.428-.062A2.267,2.267,0,0,1,595.733,546.854Z" transform="translate(-594.517 -529.396)" fill="#fff"/>
        <path id="Path_14552" data-name="Path 14552" d="M602.456,543.155l.076.032-.211-.143Z" transform="translate(-598.258 -527.307)" fill="#fff"/>
        <path id="Path_14553" data-name="Path 14553" d="M608.83,522.429l-.389-.417C608.447,522.147,608.846,522.644,608.83,522.429Z" transform="translate(-601.615 -515.771)" fill="#fff"/>
        <path id="Path_14554" data-name="Path 14554" d="M617.8,517.438c.109.26.267.424.295.137C617.983,517.55,617.834,517.348,617.8,517.438Z" transform="translate(-606.746 -513.25)" fill="#fff"/>
        <path id="Path_14555" data-name="Path 14555" d="M640.732,532.016l-.207-.013.2.095Z" transform="translate(-619.212 -521.251)" fill="#fff"/>
      </g>
      <g id="Path_13687" data-name="Path 13687" transform="translate(552.654 536.114)">
        <path id="Path_14556" data-name="Path 14556" d="M682.107,611.01c-.174.052-.369.346-.135.48l.555-.288Z" transform="translate(-623.523 -592.508)" fill="#fff"/>
        <path id="Path_14557" data-name="Path 14557" d="M682.672,613.986a1.4,1.4,0,0,0,1.34-.474c-.642.1-.5-.1-1.229.089a.345.345,0,0,1,.055-.568c-.172.036-.168-.384-.536-.224-.109.555.126.847.691.94C682.947,613.9,682.77,613.931,682.672,613.986Z" transform="translate(-623.748 -593.475)" fill="#fff"/>
        <path id="Path_14558" data-name="Path 14558" d="M655.7,607.288l.133.213A.727.727,0,0,0,655.7,607.288Z" transform="translate(-609.171 -590.466)" fill="#fff"/>
        <path id="Path_14559" data-name="Path 14559" d="M643.64,622.745a.1.1,0,0,0,.072-.128C643.662,622.656,643.618,622.693,643.64,622.745Z" transform="translate(-602.554 -598.874)" fill="#fff"/>
        <path id="Path_14560" data-name="Path 14560" d="M638.541,621.415c.053.019.1.028.146.041C638.631,621.4,638.575,621.369,638.541,621.415Z" transform="translate(-599.761 -598.203)" fill="#fff"/>
        <path id="Path_14561" data-name="Path 14561" d="M655.265,606.641c-.116-.184-.235-.362-.357-.533C654.908,606.36,655.095,606.438,655.265,606.641Z" transform="translate(-608.738 -589.819)" fill="#fff"/>
        <path id="Path_14562" data-name="Path 14562" d="M689.441,620.739a.671.671,0,0,0-.233-.243,2.2,2.2,0,0,1,.137.247A.841.841,0,0,1,689.441,620.739Z" transform="translate(-627.551 -597.711)" fill="#fff"/>
        <path id="Path_14563" data-name="Path 14563" d="M667.722,617.959l.083.084a1.8,1.8,0,0,0,.243-.1Z" transform="translate(-615.766 -596.311)" fill="#fff"/>
        <path id="Path_14564" data-name="Path 14564" d="M674.65,625.619c-.061-.1-.454.228-.643.35a.48.48,0,0,1,.419-.065A1.361,1.361,0,0,0,674.65,625.619Z" transform="translate(-619.213 -600.511)" fill="#fff"/>
        <path id="Path_14565" data-name="Path 14565" d="M685.332,623.9l-.05-.119C685.3,623.807,685.31,623.858,685.332,623.9Z" transform="translate(-625.397 -599.51)" fill="#fff"/>
        <path id="Path_14566" data-name="Path 14566" d="M662.256,611.765a.489.489,0,0,0,.069-.189A.363.363,0,0,0,662.256,611.765Z" transform="translate(-612.768 -592.818)" fill="#fff"/>
        <path id="Path_14567" data-name="Path 14567" d="M675.37,600.354c-.028.023-.041.042-.064.064C675.362,600.4,675.395,600.382,675.37,600.354Z" transform="translate(-619.926 -586.663)" fill="#fff"/>
        <path id="Path_14568" data-name="Path 14568" d="M680.034,613.121l-.075-.036c-.074.062-.147.122-.213.189Z" transform="translate(-622.361 -593.646)" fill="#fff"/>
        <path id="Path_14569" data-name="Path 14569" d="M628.516,619.963a.113.113,0,0,0,.02.01C628.655,619.915,628.588,619.925,628.516,619.963Z" transform="translate(-594.263 -597.401)" fill="#fff"/>
        <path id="Path_14570" data-name="Path 14570" d="M565.274,625.776a.471.471,0,0,1-.108.518.382.382,0,0,0-.019.563c-.013-.1.119-.293.179-.5A.647.647,0,0,0,565.274,625.776Z" transform="translate(-559.442 -600.607)" fill="#fff"/>
        <path id="Path_14571" data-name="Path 14571" d="M689.659,621.479a2.39,2.39,0,0,1,.052.3A.748.748,0,0,0,689.659,621.479Z" transform="translate(-627.798 -598.25)" fill="#fff"/>
        <path id="Path_14572" data-name="Path 14572" d="M565.287,628.172v0l.05.05Z" transform="translate(-559.583 -601.921)" fill="#fff"/>
        <path id="Path_14573" data-name="Path 14573" d="M605.416,620.677a.667.667,0,0,0,.106.222A.437.437,0,0,0,605.416,620.677Z" transform="translate(-581.593 -597.81)" fill="#fff"/>
        <path id="Path_14574" data-name="Path 14574" d="M622.391,622.194l-.192-.068A.452.452,0,0,0,622.391,622.194Z" transform="translate(-590.798 -598.605)" fill="#fff"/>
        <path id="Path_14575" data-name="Path 14575" d="M598.879,622.179c-.023-.039.023-.109-.106-.041a.362.362,0,0,0-.033.062C598.828,622.131,598.885,622.1,598.879,622.179Z" transform="translate(-577.931 -598.596)" fill="#fff"/>
        <path id="Path_14576" data-name="Path 14576" d="M598.259,616.678c-.039.044-.068.1-.1.142l.027.194Z" transform="translate(-577.611 -595.617)" fill="#fff"/>
        <path id="Path_14577" data-name="Path 14577" d="M654.892,580.794a1.669,1.669,0,0,1-.192.453C654.914,580.952,655.442,581.3,654.892,580.794Z" transform="translate(-608.624 -575.935)" fill="#fff"/>
        <path id="Path_14578" data-name="Path 14578" d="M689.11,621.105a.243.243,0,0,1,.248.134,1.092,1.092,0,0,0-.067-.2A.213.213,0,0,0,689.11,621.105Z" transform="translate(-627.497 -598.01)" fill="#fff"/>
        <path id="Path_14579" data-name="Path 14579" d="M590.343,630.487l-.74-.047.028-.484c-.018.145-.033.3-.045.5C589.787,630.477,590.062,630.487,590.343,630.487Z" transform="translate(-572.91 -602.899)" fill="#fff"/>
        <path id="Path_14580" data-name="Path 14580" d="M588.5,581.953l.064-.15A.137.137,0,0,0,588.5,581.953Z" transform="translate(-572.313 -576.489)" fill="#fff"/>
        <path id="Path_14581" data-name="Path 14581" d="M589.52,620.569a2.666,2.666,0,0,0,.351-.77.52.52,0,0,0-.131-.142Z" transform="translate(-572.874 -597.251)" fill="#fff"/>
        <path id="Path_14582" data-name="Path 14582" d="M654.693,581.8a.01.01,0,0,1,0,0A.01.01,0,0,0,654.693,581.8Z" transform="translate(-608.62 -576.485)" fill="#fff"/>
        <path id="Path_14583" data-name="Path 14583" d="M602.694,577.612c-.438-.458-.68.244-1.049.415-.671-.4.105-.59.168-1.009-.461-.211-1.158-.042-1.389-.309.06-.095.041-.171.2-.21-.735.015-1.067-1.031-1.96-.981a.421.421,0,0,1,.065-.169,2.694,2.694,0,0,1-.6.7c-.21-.194-.678-.082-.439-.46.114.132.252.021.407-.016l-.347-.08c.262-.624.444.138.779-.184-.558-.27-1.412-.39-1.6-.828.378-.49.886.594.859-.2l.318.65c.326-1.042.248.342.653-.716-.512-.764-.943-.5-1.453-1.263-.391.092-.317.4-.708.488-.682-.25-.563-.672-.478-1.1s.043-.964-.825-1.059c-.279.064-.541.251-.806.33s-.518.047-.9-.29a6.935,6.935,0,0,1,.554-.542.972.972,0,0,0-1.141.112c-.216.169-.448.265-1.031.032.047-.136.349-.194.546-.207s.358,0,.263-.057c-.424-.328-.636-.22-.743-.057-.089.167-.159.4-.389.4l-.1-.614c-.936.1-1.968.54-3.006.652.057-.182.235-.375-.007-.563a8.373,8.373,0,0,1-4.055-.439l-.482.53a.213.213,0,0,1-.087-.342c-.492-.2-.025.336-.261.544a.262.262,0,0,1-.192-.464c-.868.449-2.472.969-3.387.4l.178-.158c-.712-.215-.8,1.087-1.464.592l.127-.094a17.171,17.171,0,0,0-2.354-.058l-.656-.014c-.266,0-.527.014-.784.031l-1.51.122c.017.419-.5.607-.954.938a2.545,2.545,0,0,0-.31.256.871.871,0,0,0-.172.236.466.466,0,0,0,.143.5c-1.005.259-.965-.05-2.1.582-.269.2.132.808-.077,1.174l-.41-.378.029.8-.69-.251-.168.37a.45.45,0,0,1,.509.07,1.345,1.345,0,0,1-1.53.578l-.664,1.33c-.139-.177-.026-.4,0-.631-.126.93-.519-.31-.635.542.157.022.2.266.273.355-.487.011-1.046.566-1.356,1.076l-.2-.346c-.814.676-1.436,1.7-2.276,2.527.427-.175.835.359.636.648l-.519-.313c.1.412.415-.1.409.535-.361.265-.689-.257-.647-.57l-.233.522c-.148-.1-.125-.254-.262-.434.106.411-1.076.242-.847.91l-.146-.1c-.838.831-1.072,1.351-1.731,2.052.349.37,0,.556.092,1.048a8.355,8.355,0,0,0-2.026,1.293c-.244.6.182.427.205.829-.359-.294-.93.337-.854-.209a9.349,9.349,0,0,0-1.506,2.168c.233.035.4-.019.457.15a.428.428,0,0,1-.649.06l.01-.078a1.509,1.509,0,0,1-.3.5c-.094.1-.2.216-.3.328l-.28.295a10.622,10.622,0,0,0-1.144,1.29,3.824,3.824,0,0,0-.723,1.75,2.633,2.633,0,0,0,.048.9,1.706,1.706,0,0,0,.365.711l-.072-.09a5.17,5.17,0,0,0,1.169,1.517c.188.363.06.312-.126.25s-.4-.165-.341.2c.917.655,1.481,1.132,2.11,1.579a2.858,2.858,0,0,0,2.194.608,1.593,1.593,0,0,0,1.327.561,3.848,3.848,0,0,0,1.8-.517,5.714,5.714,0,0,0,.884-.594l.379-.36.188-.173.134-.139a1.57,1.57,0,0,1,.894-.5l-.276-.177c-.026-.425.375-.122.576-.224-.2-.152-.425.023-.426-.226a11.953,11.953,0,0,1,2.7-2.6c.514-.384,1.044-.755,1.567-1.129l.778-.567.191-.144.095-.073c.03-.023.072-.058.065-.043a.2.2,0,0,1,.042.043,3.605,3.605,0,0,1-.294-.706,1.164,1.164,0,0,1-.074-.446c.014-.093.089-.121.191.05a5.578,5.578,0,0,0,.094.759,1.045,1.045,0,0,1,.117-.562.793.793,0,0,1,.213-.255,1.272,1.272,0,0,1,.258-.157.8.8,0,0,0,.375-.186c-.138.2-.317.518-.315.481-.217.43-.222.454-.129.36s.284-.3.461-.524a5.7,5.7,0,0,1-.5.692c-.128.181.01.034.127-.04s.211-.107,0,.083c-.07.061-.141.108-.174.136.21-.158-.053.11.447-.2-.119.135-.064.154-.015.214.048.1.09-.039-.058.55.279.31.212.809.174,1.3s-.048.917.348.778a1.281,1.281,0,0,0-.566,1.106,3.685,3.685,0,0,0,.116,1.437,4.525,4.525,0,0,0,.659-.176c-.478.247.424.256-.155.6.94-.011,1.851-.163,1.912-.582a1.408,1.408,0,0,0,1.029.309,5.762,5.762,0,0,0,1.149-.179l.484-.1a.658.658,0,0,1,.27-.024c.171.026.323.151.45.464a28.228,28.228,0,0,1,4.108-.927c-.047.815-1.446.081-1.39.936,1.241-.335,1.957-1.035,3.188-.838.319.112-.181.354-.288.492,1.24-.335,2.4.074,3.5-.369,0,.076-.122.159-.234.221.218-.026.506.12.481-.25l-.212.1c-.347-.537.864-1.122.9-1.406-.369,1.062,1.09.267.5,1.608a.494.494,0,0,0,.29-.493c.212.072.28.217.065.5.779-.2.5-.6,1.208-.587,0,.179-.145.248-.218.459.357-.349.716-.7,1.313-.548-.036.108.033.249-.144.246,1.024-.054,1.746-.931,2.869-.593-.331.779.382.256.442.93l.6-.2-.243-.327a2,2,0,0,0,.754-.208,1.018,1.018,0,0,1,.787-.051l-.271.139a1.647,1.647,0,0,0-.211.139c.13-.021.42-.042.649-.064l.705-.064q-.44-.128-.83-.256a.42.42,0,0,0,.255-.534c-.015-.146-.008-.226.41-.132-.13.069.565.008,1.142.406h0a.712.712,0,0,1,.917-.273c.326.215.566.746.781.889-.03-.136.042-.216.17-.266-.159-.687-.035-1.461-.49-2.031a1.244,1.244,0,0,0,.568.432q-.229-.289-.458-.543c.146-.238.218-.276.5-.1.042-.536-.172-.509-.35-.511s-.321-.009-.137-.525c.037.1.106.064.175.274a4.134,4.134,0,0,0,.039-.874l-.014-.159-.02-.105-.05-.215a1.354,1.354,0,0,1-.02-.844c.678.287.166.509.738.64-.061-.264-.265-.675-.433-1.24a3.429,3.429,0,0,1-.221-1.435.513.513,0,0,0-.075.02c-.479-.836-.36-.847-.179-.713.222.132.507.416.492-.126a3.488,3.488,0,0,0,.3.918.942.942,0,0,0,.56-.06.739.739,0,0,1,.565-.071q-.019.157-.029.323a7.635,7.635,0,0,0,.713,1.078c.11-.239.242-.046.259-.543a2.155,2.155,0,0,0,.322,1.039c.15.174.312.195.679.418.644.352,1.294.668,1.343,1.556-.114-.113-.421-.125-.333-.032l.96.663c.237-.355.077-.283.143-.682a.947.947,0,0,1,.839.234c-.558-.177-.479.469-.492.79.066-.116.221-.159.3-.263-.118.945.674-.512.882.422l-.187.121c.293.141.7.142.882.422-.252.433-.389-.077-.69.184.342.313,1.295.02,1.24.655-.234-.048-.432-.249-.666-.3-.09.721.05.659.221.964l-.014-.033.361.74-.029-.25c.656-.229.9-.056,1.123.172a1.036,1.036,0,0,0,1.119.428c-.54.137-.679.177-.657.29s.144.25-.03.464c.164.292.478.6.309.7a.8.8,0,0,1,.72.183.928.928,0,0,0,.385.125.873.873,0,0,0,.518-.185c.016.182.544.042.424.479.7-.159-.174-.3-.1-.531a4.07,4.07,0,0,1,1.709-.229,1.778,1.778,0,0,0,1.666-1.169,2.028,2.028,0,0,0,.285-1.091,7.288,7.288,0,0,0-.117-.882,5.013,5.013,0,0,0-.073-.517.29.29,0,0,1,.415.1.852.852,0,0,1,.15.306,1.245,1.245,0,0,0,.307-.728,1.4,1.4,0,0,0-.21-.743c.168.085.282-.032.447-.247-.058-.236-.252-.256-.389-.31s-.238-.119-.212-.4a1.641,1.641,0,0,1,.8.182,6.085,6.085,0,0,0-1.172-1.113c.208-.264.543.035.806.116-.366-.486-.969-1.111-1.453-.959l.037.368c-.12-.139.293-.313.447-.242.572.184.2.655.054.753l-.263-.224c-.352.408-.176.638.125.888.145.127.319.263.474.412a1.1,1.1,0,0,1,.289.513,5.769,5.769,0,0,0-.8-.08,3.178,3.178,0,0,1,.745.535.608.608,0,0,1-.381.16.375.375,0,0,1-.355-.17c-.144.212-.1.284-.034.369s.13.173-.114.307a.094.094,0,0,1-.128-.033,2.486,2.486,0,0,1,.147.41c-.135-.113-.52-.1-.374-.263a.983.983,0,0,0-.21.257c-.107.321.118.915-.354.774l0-.068c-.18.4-.138.508,0,.646a.66.66,0,0,1,.189.806,5.048,5.048,0,0,1-1.135-.892c.06.174.116.351.167.53-.1.029-.29.06-.336-.162-.206.473.145.2.056.612a1.6,1.6,0,0,0-.918-.014c-.292.029-.546-.039-.53-.483-.232.393.424.382-.137.6-.01-.474-.134-.461-.338-.4s-.489.122-.59-.172c.343-.375.531-.009.381-.555-.272.331-.441.192-.492-.013-.017-.1-.034-.227-.053-.325a.408.408,0,0,0-.191-.277c-.486.438-.815-.454-1.451-.793.189-.122-.64-1.177-.913-1.8l.092-.063c-.563.372-.932-.188-1.365-.436a.766.766,0,0,1,.78-.247l-.317-.321a.721.721,0,0,1-.663-.109l.435-.263c-.437-.412-1.261-.461-1.561-1.246-.363.291-.5,1.337-1.287.966.159-.2.444-.515.667-.433-.072-.028-.323-.034-.344-.21l.529-.059c-.112-.381-.38.112-.548-.116.26-.244.038-.326.269-.494.075.028.065.279.241.258a1.513,1.513,0,0,1-.2-.484,1.616,1.616,0,0,1-.089-.595c-.1.186-.316.364-.552.187-.565-.545.046-.569-.226-1.112-.259.089-.556-.587-.742-.013-.161-.17-.121-.485-.153-.726-.19-.021-.553-.393-.835-.565s-.454-.173-.3.351l.069.113c-.013,0-.028-.009-.044-.007l0,0,0,0c-.427-.019-.82-.486-1.248-.939a2.982,2.982,0,0,0-.673-.6.851.851,0,0,0-.753-.128l-.063-.168a1.091,1.091,0,0,0-.4.352,2.214,2.214,0,0,0-.129.232l-.081.244a2.98,2.98,0,0,0,.089,1.09c-.009.174-.29.046-.445-.261,0,.278.058.532.06.716a.706.706,0,0,1-.043.273.983.983,0,0,1-.179.316c-.229-.861-.295-.1-.14-.79-.067.118-.126.228-.187.313a.647.647,0,0,0-.128.294,2.425,2.425,0,0,0,.251,1.234c-.228-.323-.372-.271-.442-.036a1.877,1.877,0,0,0,0,.877,5.54,5.54,0,0,1,.326-.463,5.139,5.139,0,0,1-.013,1.281q-.3-.2-.6-.424a2.985,2.985,0,0,0-.133,1.47,1.1,1.1,0,0,0,.061.229.475.475,0,0,0,.08.063,1.672,1.672,0,0,1,.187.154.676.676,0,0,1,.236.392c0,.124-.1.2-.41.053.21.228.284.223.367.193s.175-.075.42.167c-.057.239-.5.106-.756-.071a2.813,2.813,0,0,0-.274-.189c-.263-.167-.121.053-.055.285s.091.479-.185.365c.121.214.508.786.026.988-.555-.079-.6-.9-.44-1.071.066-.018.113.05.125.123.092-.078.169-.17,0-.4l.021.214a1.55,1.55,0,0,0-.308-.224c-.02-.032-.14-.07-.186-.12a.156.156,0,0,1-.02-.2c-.426.2-.182.351.133.462-.723-.31-1.13-.009-1.874-.218.118.118.228.37.11.367-1.092-.266-.481.407-1.221.5-.42-.327.151-.78-.594-.506-.455-.221-.1-.569.084-.744-.679.413-1.268-.271-1.655-.347l.357-.173a1.165,1.165,0,0,1-.567.1l.2.429c-.21-.075-.388-.076-.384-.255-.216.281.166.713-.264,1.1-.28-.218-.852.234-.949-.335.88.193-.1-.572.648-.663a.679.679,0,0,1-.529-.01c-.032-.064.03-.118.087-.151-.842-.508-.387.643-1.26.63.111-.321-.2-.608-.345-.54.352.006.168.535-.154.78-.56-.249-.608.186-.9.157l.334.117c-.113.321-.393.279-.783.38-.033-.25.354-.172.215-.282-.433.563-.978-.583-1.583-.2-.28-.217-.027-.6-.273-.75-.677.416-.733-.439-1.444-.1.2.431.241.326-.26.745l1.169-.3-.75.627c.353.006.745-.271.956-.2-.358.351-.321.244-.152.6-.483-.647-.958.377-1.516-.06l.017-1.067c-.839-.476-1.491.547-2.581.279l.35.186c-.146.424-.673.059-1.026.231.033-.357-.188-.486-.339-.708.019.265-.8-.024-.9.688l-.486-.47a.792.792,0,0,0-.3-.012.693.693,0,0,0-.128.033.367.367,0,0,0-.052.054c-.067.084-.141.214-.232.345-.175.263-.451.535-.735.474a1.6,1.6,0,0,0,.3-.5,1.176,1.176,0,0,1,.323-.418c-.115,0-.176-.069-.31.179.021-.112-.124.008-.3.114s-.384.2-.3.028a2.957,2.957,0,0,1-.665.486c-.014-.005-.019-.03-.015-.07a1.026,1.026,0,0,1,.176-.167c-.176.182-.239-.129-.634.423a3.343,3.343,0,0,0,.471-.93,1.449,1.449,0,0,0,.025-.577c-.01-.089-.021-.179-.025-.27a1.317,1.317,0,0,1,0-.134l.019-.166.043-.235a2.031,2.031,0,0,1,.34-.763c-.121-.9-.232-1.877-.263-2.624.108-.051.18-.165.143.022.078-.349.04-.5-.042-.545s-.22.018-.348.074c-.257.105-.48.229-.367-.424.4-1.106.337.141.474-.39a1.57,1.57,0,0,0,.344-.773.405.405,0,0,0-.163-.345.879.879,0,0,1-.243-.313,1.331,1.331,0,0,1-.05-.588l.1.039c.009-.354-.226-.477-.621-.531a1.743,1.743,0,0,0-.639.069c-.205.056-.389.138-.549.165a.485.485,0,0,0,.058-.194l-.5.586-.507.618c-.34.407-.7.816-.989,1.2.2-.8.3-.572.2-1.123-.3.329.018.967-.486,1.625-.17-.2-.606-.063-.791-.586.2-.218.4-.451.609-.65-.186-.291-.415-.043-.609.26s-.36.673-.542.781l-.052-.351a3.918,3.918,0,0,0-.8,1.441,3.859,3.859,0,0,1-.247.6,2.216,2.216,0,0,1-.2.3,1.741,1.741,0,0,1-.224.251l.224.075c.129.876-.6.05-.6.8l-.626-.379a9.486,9.486,0,0,1-.722,1.926,5.317,5.317,0,0,1,.294-1.9c-.25.25-.8.9-.673,1.274.05-.15.049-.4.226-.424a2.005,2.005,0,0,1-.6,1.8c-.907-1.05-1.528,1.073-2.654.694a2.5,2.5,0,0,1-.519.8,4.32,4.32,0,0,1-.345.325l-.187.152c-.059.045-.147.118-.159.112a.971.971,0,0,1-.355.043,1.972,1.972,0,0,0-.408.059c.4,1.029-.179.058-.083,1.146-.247.074-.348.038-.362-.029a2.111,2.111,0,0,1-.46-.784c.013-.335.235-.177.289-.416-.122-.092-.1-.208-.047-.346a3.761,3.761,0,0,0,.149-.439c-.166.36-.363.447-.371.242a1.779,1.779,0,0,0-.126.536c-.36.117-.324-.166-.2-.383.1-.231.273-.386-.062-.387a2.03,2.03,0,0,0,.349-.091c-.129,0-.181-.118-.294-.233a1.023,1.023,0,0,0-.236-.2c-.113-.039-.256-.142-.467-.233.134-.03.437-.007.5.082.05-.1.027-.193.039-.394a2.822,2.822,0,0,1,.052-.64,1.614,1.614,0,0,1,.041-.163c.009-.044.007-.074.018-.109-.007-.017.055-.1.1-.163s.1-.126.147-.184a1.49,1.49,0,0,1,.7-.488l.122.259c.113-.224-.065-.652.338-.671.068.09.123.258.212.191.024-.155.113-.782.448-.894l.024.405c1.134-.634.83-1.876,1.437-2.745.564.561,1.442.048,1.88-.209l.068.091c1.1-.96,1.277-2.209,2-3.378,1.208.013,2.259-1.748,3.556-2.361-.249.045-.421-.455-.31-.679.338-.111.219-1,.708-.457l-.089.07c.682.329,1-.261,1.375-.606l-.628-.721c1.935.027,2.081-2.8,3.489-2.453.053-.391.335-.668.386-1.057l.358.365a11.383,11.383,0,0,0,.895-.71c.133-.12.264-.251.406-.405l.1-.117.065-.087.074-.117a3.194,3.194,0,0,0,.188.321c.063-.036-.122-.356-.244-.724s-.194-.769-.019-.854c.127.223.245.453.35.685a.57.57,0,0,1,.365.008c.068.02.1.046.188.071.135.027.27.052.4.072a2.177,2.177,0,0,0,1.6-.272c-.018.112-.049.332-.223.363.505.02,1.954.517,1.77-.531.013.682,1.107.066,1.687-.234l-.09.5c.489-.643.5-.82,1.188-1,.162.065.142.4-.073.274.54.264.42-.477,1.075-.209l-.244.321c.555.039.511-.134.816-.508a.9.9,0,0,1,1.135.582c.075-.277.379-.648.706-.517a.321.321,0,0,1-.134.331c.928.343,1.38-.585,2.018-.091a.438.438,0,0,0,.108.3,6.011,6.011,0,0,1-1.275-.076c0,.464.6.545.121,1.186.478-.35,1.3-1.11,1.876-.892a.6.6,0,0,1,.077.161l-.06.052a.394.394,0,0,0,.367-.075,1.3,1.3,0,0,0,.481.14c.069.384.683.207.98.226-.024-.508.364-.426,0-.846.047.037-.056.061-.253.082a.323.323,0,0,0-.127.052l.02-.045c-.2.015-.449.026-.738.034.235-.258.48-.475.808-.193.153-.326.32-.662.415-.819.406.708,1.189,1.091,1.3,1.527.545-.294.95-.034,1.882-.468.227.038-.026.354-.082.511-.157-.028-.218-.1-.345-.032a.534.534,0,0,1,.312.126c.142.1.287.208.432.3a.767.767,0,0,0,.87.108c.242.668-.7.165.009.722l-.232.055c.476,1.982,3.248.844,3.641,3.17-.035-.154-.055-.228.006-.326,1.139,1.992,3.642,2.843,4.509,5.062.3.576.655.326,1.154.368l-.293.478.908.019c.98.328.177,2.069,1.622,2.283l.155-.365c.247.345,1.093.787.743,1.034.078-.017.369-.172.349.079l-.194.21,1.075.384c.419.71-.891.711-.106,1.575.384.229,1.46.285,1.48.035a.519.519,0,0,1,0-.653l.385.175c.646-.544,1.469-.938,1.2-2.039l-.842-.114.135-.442.42.384c.044-.5-.341-.4-.668-.4a.691.691,0,0,0,.118-.517l-1.039.1c.177-.289.673-.25.487-.693-.484.043-.312.731-.85.539.042-.5.331-.65-.17-.689a.377.377,0,0,1,.445-.191c-.423-.056-.71-.554-1.15-.363.1-.57-.894-.72-.3-1.256a1.744,1.744,0,0,1-1.108-.178c1.079-.268-.781-.86.053-1.471-.908.3-1.342-.8-2.207-1,.078-.018.234-.057.249.02-.244-.346-.145-.612-.219-.915-.544.457-1.12.109-1.681.166.126-.839.815-.36,1.17-.931-.392.419-1.039-.23-1.258.227.025-.572-.092-.382.186-.934-.683.569-.366-.154-.985,0-.088-.7.492-.68-.142-.934C602.078,577.438,602.694,577.612,602.694,577.612ZM588.546,571.2v-.01l.307-.029Zm-1.248.008a3.932,3.932,0,0,0,.541.02c.044.175,0,.356-.129.346C587.778,571.462,587.484,571.361,587.3,571.213Zm2.639,3.518c-.2.072-.264-.028-.291-.132a2.422,2.422,0,0,0,.345-.061l.023-.062A.9.9,0,0,1,589.937,574.731Z" transform="translate(-552.654 -570.033)" fill="#fff"/>
        <path id="Path_14584" data-name="Path 14584" d="M635.883,578.779c.028-.011.044-.032.081-.037a.986.986,0,0,0-.118-.114l-.07.159Z" transform="translate(-598.245 -574.747)" fill="#fff"/>
        <path id="Path_14585" data-name="Path 14585" d="M656.016,607.8l-.023-.036a.669.669,0,0,1,.047.142C656.026,607.854,656.026,607.832,656.016,607.8Z" transform="translate(-609.333 -590.725)" fill="#fff"/>
        <path id="Path_14586" data-name="Path 14586" d="M590.275,579.5l.094.088,0-.154Z" transform="translate(-573.288 -575.189)" fill="#fff"/>
        <path id="Path_14587" data-name="Path 14587" d="M665.028,622.586a.252.252,0,0,0-.031.155A.31.31,0,0,0,665.028,622.586Z" transform="translate(-614.27 -598.857)" fill="#fff"/>
        <path id="Path_14588" data-name="Path 14588" d="M669.462,627.477l.162.427A1.787,1.787,0,0,0,669.462,627.477Z" transform="translate(-616.72 -601.54)" fill="#fff"/>
        <path id="Path_14589" data-name="Path 14589" d="M673.231,631.635a.723.723,0,0,0,.171-.151l0-.006Z" transform="translate(-618.788 -603.734)" fill="#fff"/>
        <path id="Path_14590" data-name="Path 14590" d="M622.74,629.8a.254.254,0,0,0-.088.023C622.445,629.921,622.585,629.882,622.74,629.8Z" transform="translate(-590.989 -602.813)" fill="#fff"/>
        <path id="Path_14591" data-name="Path 14591" d="M647.49,627.172a1.013,1.013,0,0,1-.326.24C647.442,627.451,647.657,627.461,647.49,627.172Z" transform="translate(-604.491 -601.372)" fill="#fff"/>
        <path id="Path_14592" data-name="Path 14592" d="M591.393,631.142l.01-.009h-.14Z" transform="translate(-573.83 -603.545)" fill="#fff"/>
        <path id="Path_14593" data-name="Path 14593" d="M645.665,627.635a.914.914,0,0,0,.677.009A1.4,1.4,0,0,0,645.665,627.635Z" transform="translate(-603.668 -601.604)" fill="#fff"/>
        <path id="Path_14594" data-name="Path 14594" d="M687.329,615.677l-.053-.117a.167.167,0,0,1-.077.032Z" transform="translate(-626.449 -595.003)" fill="#fff"/>
        <path id="Path_14595" data-name="Path 14595" d="M687.044,615.529l-.128-.084C686.952,615.5,686.986,615.544,687.044,615.529Z" transform="translate(-626.293 -594.941)" fill="#fff"/>
        <path id="Path_14596" data-name="Path 14596" d="M686.316,615.071c.092.051.181.108.271.166C686.532,615.151,686.473,615.038,686.316,615.071Z" transform="translate(-625.964 -594.732)" fill="#fff"/>
        <path id="Path_14597" data-name="Path 14597" d="M689.554,624.29l.175.072A.328.328,0,0,0,689.554,624.29Z" transform="translate(-627.74 -599.792)" fill="#fff"/>
        <path id="Path_14598" data-name="Path 14598" d="M688.824,625.677a1.548,1.548,0,0,1,.139-.18,1.275,1.275,0,0,0,.494-.987l-.138-.062c.185.215-.3.712-.483,1A.3.3,0,0,0,688.824,625.677Z" transform="translate(-627.33 -599.879)" fill="#fff"/>
        <path id="Path_14599" data-name="Path 14599" d="M679.215,627.8a2.541,2.541,0,0,0,.61.049c-.161-.162-.319-.394-.111-.493-.368-.206-.3-.129-.25.046S679.6,627.808,679.215,627.8Z" transform="translate(-622.07 -601.406)" fill="#fff"/>
        <path id="Path_14600" data-name="Path 14600" d="M675.954,626.577c.219.056.156-.23.25-.306a1.67,1.67,0,0,0-.2.087C675.958,626.394,675.955,626.46,675.954,626.577Z" transform="translate(-620.281 -600.878)" fill="#fff"/>
        <path id="Path_14601" data-name="Path 14601" d="M647.047,606.929l-.358-.555C646.646,606.785,646.834,606.574,647.047,606.929Z" transform="translate(-604.227 -589.965)" fill="#fff"/>
        <path id="Path_14602" data-name="Path 14602" d="M652.11,617.958a1.415,1.415,0,0,1,.287-.078q-.211-.1-.423-.224Q652.042,617.819,652.11,617.958Z" transform="translate(-607.129 -596.153)" fill="#fff"/>
        <path id="Path_14603" data-name="Path 14603" d="M644.907,619.863l-.066-.054a.872.872,0,0,1,.167.223A1.163,1.163,0,0,0,644.907,619.863Z" transform="translate(-603.216 -597.334)" fill="#fff"/>
        <path id="Path_14604" data-name="Path 14604" d="M598.686,619.144l-.569.1c.051.085.236.079.387.074a.893.893,0,0,0,.18-.027c.019-.009.03,0,.031-.028A.251.251,0,0,0,598.686,619.144Z" transform="translate(-577.589 -596.969)" fill="#fff"/>
        <path id="Path_14605" data-name="Path 14605" d="M580.891,613.154c-.3-.1-.676.025-.626.375C580.489,613.355,580.844,613.308,580.891,613.154Z" transform="translate(-567.796 -593.666)" fill="#fff"/>
        <path id="Path_14606" data-name="Path 14606" d="M592.326,591.6l-.041.31.221-.446Z" transform="translate(-574.391 -581.79)" fill="#fff"/>
      </g>
    </g>
  </g>
</svg>
