<svg xmlns="http://www.w3.org/2000/svg" width="469.943" height="353.724" viewBox="0 0 469.943 353.724">
  <g id="sdg5-10-icon" transform="translate(-146.9 -215.322)">
    <g id="Group_2241" data-name="Group 2241" transform="translate(146.9 215.322)">
      <path id="Path_2312" data-name="Path 2312" d="M354.892,482.226a67.782,67.782,0,1,1,67.782-67.782,67.826,67.826,0,0,1-67.782,67.782M485.007,285.9h-70.3a.856.856,0,0,0-.838.943V310.1a.924.924,0,0,0,.838.943h27.972l-31.115,31.115A92.03,92.03,0,1,0,342.844,505.8v26.924H315.082a.924.924,0,0,0-.943.838V558.6a.939.939,0,0,0,.943.943h27.762v26.505a.924.924,0,0,0,.838.943H368.72a.939.939,0,0,0,.943-.943v-26.61h27.762a.939.939,0,0,0,.943-.943V533.455a.856.856,0,0,0-.943-.838H369.873V505.274a92,92,0,0,0,60.344-143.735l30.591-30.591v26.191a.939.939,0,0,0,.943.943h23.362a.939.939,0,0,0,.943-.943v-70.3a1.114,1.114,0,0,0-1.048-.943" transform="translate(-262.7 -285.9)" fill="#ff3a21"/>
      <path id="Path_2313" data-name="Path 2313" d="M393.977,382.1H311.843a.924.924,0,0,0-.943.838v19.905a.924.924,0,0,0,.943.838h82.134a.856.856,0,0,0,.943-.838V382.938a.924.924,0,0,0-.943-.838" transform="translate(-260.404 -281.318)" fill="#ff3a21"/>
      <path id="Path_2314" data-name="Path 2314" d="M393.977,416H311.843a.924.924,0,0,0-.943.838v19.905a.924.924,0,0,0,.943.838h82.134a.856.856,0,0,0,.943-.838V416.838a.924.924,0,0,0-.943-.838" transform="translate(-260.404 -279.704)" fill="#ff3a21"/>
    </g>
    <g id="Group_2242" data-name="Group 2242" transform="translate(355.905 308.015)">
      <path id="Path_2347" data-name="Path 2347" d="M391.61,436H299.618a1.05,1.05,0,0,0-1.018,1.111v27.672a1.05,1.05,0,0,0,1.018,1.11H391.61a1.05,1.05,0,0,0,1.018-1.11V437.111A1.111,1.111,0,0,0,391.61,436" transform="translate(-215.099 -291.047)" fill="#dd1367"/>
      <path id="Path_2348" data-name="Path 2348" d="M391.61,372.5H299.618a1.05,1.05,0,0,0-1.018,1.111v27.672a1.05,1.05,0,0,0,1.018,1.111H391.61a1.05,1.05,0,0,0,1.018-1.111V373.611a1.051,1.051,0,0,0-1.018-1.111" transform="translate(-215.099 -286.315)" fill="#dd1367"/>
      <path id="Path_2349" data-name="Path 2349" d="M390.483,323.728l-44.145-44.145a.842.842,0,0,0-1.111,0l-44.145,44.145a.756.756,0,0,0,.555,1.3h88.29a.766.766,0,0,0,.555-1.3" transform="translate(-215.267 -279.375)" fill="#dd1367"/>
      <path id="Path_2350" data-name="Path 2350" d="M442.3,461.484l44.145-44.145a.842.842,0,0,0,0-1.111L442.3,372.083a.776.776,0,0,0-1.3.555v88.291a.776.776,0,0,0,1.3.555" transform="translate(-225.711 -286.268)" fill="#dd1367"/>
      <path id="Path_2351" data-name="Path 2351" d="M301.083,513.4l44.145,44.145a.842.842,0,0,0,1.111,0L390.484,513.4a.756.756,0,0,0-.555-1.3H301.639a.776.776,0,0,0-.555,1.3" transform="translate(-215.268 -296.718)" fill="#dd1367"/>
      <path id="Path_2352" data-name="Path 2352" d="M252.728,372.083l-44.145,44.145a.842.842,0,0,0,0,1.11l44.145,44.145a.776.776,0,0,0,1.3-.555V372.639a.776.776,0,0,0-1.3-.555" transform="translate(-208.375 -286.268)" fill="#dd1367"/>
    </g>
  </g>
</svg>
