<svg xmlns="http://www.w3.org/2000/svg" width="85.108" height="35" viewBox="0 0 85.108 35">
  <g id="sdg5" transform="translate(-3024.792 -8133.697)">
    <path id="Path_2315" data-name="Path 2315" d="M148.552,137.221a4.983,4.983,0,0,0-4.607,2.244h-.06v-8.107h9.423V126.9H138.92v18.338h5v-.718c0-1.915.868-2.991,2.393-2.991,1.675,0,2.363,1.167,2.363,2.932v7.868c0,1.735-.628,2.932-2.3,2.932-1.885,0-2.543-1.256-2.543-3.171V148.02H138.8v3.71c0,4.936,1.974,8.107,7.539,8.107,5.534,0,7.778-2.932,7.778-7.449V144.43c0-5.145-2.633-7.209-5.564-7.209" transform="translate(2885.992 8006.797)" fill="#ff3a21"/>
    <path id="Path_2316" data-name="Path 2316" d="M245.54,134.821H248.8v7.269h-1.645v-1.5a2.074,2.074,0,0,1-2.184,1.645c-1.974,0-2.872-1.556-2.872-3.68V131.98c0-2.124,1.017-3.68,3.44-3.68,2.543,0,3.261,1.406,3.261,3.41v1.2h-2.094v-1.376c0-.838-.329-1.316-1.137-1.316s-1.2.6-1.2,1.406v7.3c0,.838.329,1.406,1.137,1.406.748,0,1.137-.419,1.137-1.316v-2.393H245.57v-1.795Z" transform="translate(2813.594 8005.816)" fill="#ff3a21"/>
    <path id="Path_2317" data-name="Path 2317" d="M268.8,128.9h5.445v1.855h-3.171v3.889h2.274V136.5h-2.274v4.128h3.171v1.885H268.8Z" transform="translate(2794.882 8005.396)" fill="#ff3a21"/>
    <path id="Path_2318" data-name="Path 2318" d="M293.044,133.956v8.556H291.1V128.9h2.244l2.483,7.808V128.9h1.915v13.611h-2Z" transform="translate(2779.253 8005.396)" fill="#ff3a21"/>
    <g id="Group_1078" data-name="Group 1078" transform="translate(3078.28 8134.295)">
      <path id="Path_2319" data-name="Path 2319" d="M320.861,140.627a1.2,1.2,0,0,0,1.316-1.376v-7.12a1.2,1.2,0,0,0-1.316-1.376H319.9v9.872Zm3.59-8.077v6.312c0,2.094-.868,3.65-3.321,3.65H317.6V128.9h3.53c2.453,0,3.321,1.556,3.321,3.65" transform="translate(-317.6 -128.9)" fill="#ff3a21"/>
    </g>
    <path id="Path_2320" data-name="Path 2320" d="M344.8,128.9h5.474v1.855H347.1v3.889h2.273V136.5H347.1v4.128h3.171v1.885H344.8Z" transform="translate(2741.617 8005.396)" fill="#ff3a21"/>
    <g id="Group_1079" data-name="Group 1079" transform="translate(3093.118 8134.295)">
      <path id="Path_2321" data-name="Path 2321" d="M369.474,130.755V135h.778a1,1,0,0,0,1.137-1.137v-2c0-.748-.329-1.107-1.137-1.107Zm0,5.5v6.252H367.2V128.9h3.32c2.3,0,3.141,1.137,3.141,3.051v1.735c0,1.466-.509,2.333-1.825,2.633l2.184,6.192h-2.393Z" transform="translate(-367.2 -128.9)" fill="#ff3a21"/>
    </g>
    <path id="Path_2322" data-name="Path 2322" d="M242,192.6h5.474v1.855H244.3v3.919h2.244V200.2H244.3v4.158h3.171v1.855H242Z" transform="translate(2813.665 7960.751)" fill="#ff3a21"/>
    <g id="Group_1080" data-name="Group 1080" transform="translate(3062.156 8153.202)">
      <path id="Path_2323" data-name="Path 2323" d="M268.337,202.839v-7.419c0-.838-.359-1.406-1.2-1.406-.808,0-1.167.568-1.167,1.406v7.419c0,.808.359,1.406,1.167,1.406.838,0,1.2-.628,1.2-1.406m-2.034,3.949v-.927c-1.825-.329-2.6-1.675-2.6-3.5V195.78c0-2.124,1.047-3.68,3.44-3.68,2.423,0,3.47,1.556,3.47,3.68v6.581a3.212,3.212,0,0,1-1.675,3.2l1.675.329V207.6Z" transform="translate(-263.7 -192.1)" fill="#ff3a21"/>
      <path id="Path_2324" data-name="Path 2324" d="M297.841,192.6v10.291c0,2.094-.9,3.47-3.231,3.47-2.423,0-3.41-1.376-3.41-3.47V192.6h2.274v10.53c0,.808.329,1.346,1.137,1.346s1.137-.538,1.137-1.346V192.6Z" transform="translate(-282.973 -192.45)" fill="#ff3a21"/>
    </g>
    <path id="Path_2325" data-name="Path 2325" d="M318.372,201.9H320.2l-.9-5.474h-.03Zm-2.872,4.308,2.573-13.611h2.6l2.573,13.611h-2.333l-.419-2.483h-2.423l-.389,2.483Z" transform="translate(2762.152 7960.751)" fill="#ff3a21"/>
    <path id="Path_2326" data-name="Path 2326" d="M344.6,192.6h2.3v11.757h2.722v1.855H344.6Z" transform="translate(2741.757 7960.751)" fill="#ff3a21"/>
    <rect id="Rectangle_1166" data-name="Rectangle 1166" width="2.303" height="13.611" transform="translate(3092.43 8153.351)" fill="#ff3a21"/>
    <path id="Path_2327" data-name="Path 2327" d="M376.1,192.6h6.073v1.855h-1.885v11.757h-2.3V194.455H376.1Z" transform="translate(2719.68 7960.751)" fill="#ff3a21"/>
    <path id="Path_2328" data-name="Path 2328" d="M403.546,201.036v5.175h-2.3v-5.175L398.7,192.6h2.393l1.376,5.175h.03l1.376-5.175h2.184Z" transform="translate(2703.841 7960.751)" fill="#ff3a21"/>
  </g>
</svg>
