<svg xmlns="http://www.w3.org/2000/svg" width="232" height="232" viewBox="0 0 232 232">
  <g id="Group_2494" data-name="Group 2494" transform="translate(-164.336 -2009.166)">
    <g id="circle" transform="translate(-619.794 711.77)">
      <g id="Down_arrow_-_OFF" data-name="Down arrow - OFF" transform="translate(1016.13 1297.396) rotate(90)">
        <ellipse id="Ellipse_266" data-name="Ellipse 266" cx="104.859" cy="109.42" rx="104.859" ry="109.42" transform="translate(4.154 219.661) rotate(-90)" fill="#ff3a21"/>
        <g id="Group_1058" data-name="Group 1058" transform="translate(0 0)">
          <path id="Path_2276" data-name="Path 2276" d="M.757,1.769C.757-.885-.589,3.1.308,0,.757.442,1.205.885.757,1.769Z" transform="translate(226.759 116.988)" fill="#ff3a21"/>
          <path id="Path_2277" data-name="Path 2277" d="M226.619,109.026a25.356,25.356,0,0,1-2.242-6.193c-.448-2.212-.9-4.424-1.345-7.078a40.955,40.955,0,0,0-1.794-7.078,15.4,15.4,0,0,0-2.69-6.193c-.448-.885,2.242-.442.9-2.654-1.345-1.769-2.69-3.981-4.036-6.193a38.975,38.975,0,0,1-3.587-7.52c-2.69-4.866-4.932-10.616-7.174-15.482h.9c-.9-1.769-3.587-2.654-4.932-4.424.448-.442.9,0,.9-.442-1.345.442-3.139-2.654-4.484-2.654-.448-.885.448-1.327,0-2.654h-1.794c-4.484,0-5.829-5.751-10.313-7.52.448,0,.9,0,.9-.442-7.174-3.1-14.349-8.4-21.972-11.059.448-.442,1.345-.885.9-1.769-.9.885-3.587.442-5.381-.442-.448-1.769-4.036,0-5.829-1.769l.448-.442c-2.242.885-2.242-1.769-4.484-.442l-1.345-.885c-1.345,1.769-2.242-1.769-4.036-.885v.442c-1.345,0-2.242-.885-3.587-.885V13.92c-3.139-.442-4.932-1.769-4.932,0-.9-1.327,3.139,0,1.794-2.212-10.762-.442-21.523-.885-32.285,0-1.345-.442-2.242-.442-2.242-.885-.9.442-4.036.885-4.932,1.769.448,0-.9-.885-1.345-.885-2.242-.442-1.794,1.769-4.036,1.769A1.088,1.088,0,0,0,93,11.708c-1.345,1.769-4.036,2.212-5.829,3.1.448-.442.9-.442.448-.885-1.794,1.769-4.484.885-5.829,2.212l.448-1.327c-3.587,0-.448,2.212-3.139,2.654.448-.442,0-.885,0-1.327-1.794,2.212-6.278,3.539-8.071,5.308V21c-2.242,1.327-5.381,2.212-8.071,4.424-1.345.442-.9-2.212-3.139-.442.9,1.327-4.036,3.539-1.345,3.981a28.048,28.048,0,0,0-7.174,4.424c.448-1.327-2.242-.885-.9-2.212H48.6c-.448-.885,1.345-.885.448-1.327a28.889,28.889,0,0,1-4.036,3.539c-.448,2.654-.448,5.308-2.69,7.52.448-1.327-2.242-.885-1.345-1.769a22.134,22.134,0,0,0-.9,5.751c-.448.885-1.345-.885-1.794.442.448.442,0,.885,0,1.769-.448,0-2.69,3.539-4.484,2.654-.9,0,.9-1.327-.448-.885-1.345,1.327-.9,2.212-2.242,3.539h0c-.9.885-1.794,3.539,0,3.1.448-.885-.9-.442,0-1.327.448,1.327-.448,3.1-1.794,4.866,0-.885-.448-.885-.448-1.327a58.291,58.291,0,0,1-2.242,8.4c.9.442-.9-1.769,0-1.769a10.5,10.5,0,0,0-2.69,4.866c-.448,1.769-.9,3.539-2.242,4.424,0-.442,1.345.442.9,0-.9,1.327-1.794.885-2.242,2.212-.9,0-.448,1.327-.448,2.654.448.885-.448,0,0-.885,0,1.769-1.345,8.4-3.139,11.5.448,0,.9,2.654.9,3.539l-.9-.442c-.9.442-.448,2.654-1.794,2.654.9,2.212.9-7.52.9-4.424-.9.442.9,3.981-.448,3.1-.448,1.769.448,3.539-.9,5.308.448-.442-1.345-1.769-1.345-.442,0,2.654.448.885.448,3.1l.448,1.327c.9.442-.448,2.212.9,1.327-.9,0,0,3.539-1.794,3.1l-1.345-.442c0,1.327,1.345,1.769,1.794,2.654l-.448.442c2.242.442-.448,2.654,1.345,3.981-.448,1.327-.448,2.654-.9,3.981,0,1.327,0,2.212-.9,3.1,0,.885.9,2.654.448,4.424a.958.958,0,0,0-.9-.885c-.448,1.327,0,1.769.448,2.654-.448,0-.9,2.654-1.345,3.981.9,1.769,1.794,1.327,2.69,1.327-1.794,1.769,1.794,4.424.448,6.635-.448-.442-1.794-2.212-1.794-.885-1.794,2.212,2.242,2.654,1.794,5.308l1.794-.885c-.9,1.327,1.794,3.539,0,3.539.9.442.448,3.1,1.794,2.212,0,2.212,1.345,4.424,1.794,6.635.9,2.212,1.794,3.981.9,5.751.448.442.9,1.769,1.794,1.327.448-1.327-1.345-.885-.9-1.769a1.4,1.4,0,0,0,.9.442c0,1.327.448,2.212-1.345,1.769.9,3.981,4.484,2.212,5.829,5.308q-1.345,0,0,1.327l2.242.885c.9,2.212-.9,2.212-1.794,2.654.9.885,1.794,2.212,2.69,2.212l-.448,2.212c0-1.769,1.345.442,1.794.885l-.448-.442c-.448.442.9,1.327,1.345,2.212.448-.442,0-2.212-.448-2.654.9,0,1.345.885,2.242,1.327-1.345.442.448,2.212.9,3.1.448,1.327,1.794.442,1.794.442-.448.442,1.345,1.327,0,1.327-.448,0,0-.885-.9-1.327,0,.885-.9,1.327.9,2.212,1.345.442,1.794-1.769,2.69.442-.448-.442-.9,0-1.794,0l.9,2.212.9-.885c0,.442,0,.442-.448.442,1.345-.442,2.69,2.212,3.587,1.769.9.442,1.345,2.212,1.794,2.654h0a3.892,3.892,0,0,0,3.139,2.212h0A5.14,5.14,0,0,0,50.4,194.4c.9,1.769-2.242,3.539.448,3.539,1.345.885,3.587,0,3.139-.885.9,1.327,2.69,2.212,4.036,3.1s2.69,1.327,3.587,3.1c.448,0,.448-.442,1.345-.442,3.587,3.1,8.968,3.1,11.658,7.078-1.345,0-.448.885-.9,1.327,1.345-.442.9,1.327,1.794,0,.448-.885.448-1.327-.448-2.212,2.69.442,6.726,1.769,7.623,3.1-.448-.885,0-.885.9-.885-.9,1.327,1.345,2.212,2.69,2.212l.448-.885.9,1.327c.448,0,1.345-1.769,2.242-.442v.885c1.794-.442,4.036-.885,5.829,0l1.345,1.769c.9,0,2.242-.885.9-1.327,2.69,1.327,4.484,1.769,5.381,3.1,6.278-1.327,13.452-1.327,19.281-1.327v.885c1.794.442.9-1.327,1.794-.885-.448.885,1.345,1.327,0,2.212,2.242.885,2.69-1.327,4.036-2.212,0-.885-.9.885-.9-.442,0-.442,3.139.442,3.139-1.327a1.986,1.986,0,0,1,0,2.212l1.345-.885c1.794,1.327-3.587,3.539-1.345,5.308l1.345-.442c1.345,1.327-3.139,2.212,0,2.212,1.345-.885,2.242-3.1.9-3.539,2.69-.885.9-3.539,4.036-3.981.9.885-2.242.885-1.794,1.769,1.794.885,2.69-1.327,4.036-1.327-1.345,0-.448-1.769,0-2.212,1.794.442-.448,1.769,1.345,1.327,0-.885,1.794-1.769,0-2.212.448-1.769,2.242,0,3.139-1.769.9.885-1.345,3.539,1.345,3.539-.9-.885,2.242-2.654.448-3.981.9,0,1.345.885.9,1.769,1.345.442,2.242-3.1,3.587-.885v-1.327c.448.442,1.345.442,2.242.885,1.345-.442,3.139-3.1,3.587-1.327.448-.442,2.69-1.327,1.345-2.212-1.794,0-1.345,1.769-3.139.442,1.794.885,2.242-1.327,2.69-2.212l.448.442c.448-.442,1.794-.885,1.794-1.769a.958.958,0,0,0,.9.885v-1.327c1.794-1.327,1.345,1.769,3.139.442a6.115,6.115,0,0,0-1.345,1.769c.448-.442,1.345.442,2.242-.442v-3.539c.9-.885.9.885,1.794-.885l.448,1.769c0,.442,1.794.885,3.139,0,.9-.885,1.345-3.1-.448-2.654.9-.442,2.242-.442,1.794.442,1.345-1.327-.9-.885.448-2.212.9.442,3.139-.442,4.932-.442l-.448,2.654.9-.885c-.448,2.212,1.345.442,1.345,2.212a4.428,4.428,0,0,0,1.794-2.212c-3.587-.442,0-3.981-1.794-5.308,2.242-2.212,4.932,2.654,5.381-2.212-.9,0-.9-2.212-1.794-.442,1.794-1.327-.448-2.654,1.794-3.539-.9,1.769,3.139.442,1.794,3.1-.448-.442-1.345.442-1.794.885,1.345,0,1.345,1.769,2.69.442.9-.885,2.242-2.212,1.345-2.654-.9-.885-1.345,1.327-1.794,0,1.794-1.769,3.139-.885,2.242-3.1-.9,1.327-2.242.442-2.69,0,.448-.442.448-1.327.9-1.769l.448.885c2.242-1.769-.448-1.769,1.345-3.539h2.242c.448,1.327-3.139,2.654-1.345,3.981,1.345-1.327.9-2.654,2.69-3.539,0,.442-.448.885-.448,1.327.448-.442,3.139.885,3.587-2.212.448-1.327-.448-.885-.9-1.327,1.794-2.654,1.345-3.981,2.69-5.308.9,1.327,2.242-2.654,2.242,0-1.345.442-4.036,3.539-3.139,5.751q1.345,0,0,1.327c-.448.442-1.345,1.327-.9,2.212,1.794-1.769,3.139-.442,4.484,0a2.632,2.632,0,0,0,.448-1.769c-.9-.885-1.345-.442-2.242-.885,1.794-2.212,3.139-4.424,3.139-6.193a.984.984,0,0,1,1.345,1.327c1.794-2.654,3.587-5.751,5.381-8.4-2.69.885,1.345-3.1-.9-2.654-1.345,1.327-3.139,1.769-3.587.442.448-.885.9.442,1.345.442-.448-1.769,2.69-.885,1.794-2.654-.9,3.1,1.794,1.769,3.139,2.654,0-2.212.9.442,1.794-1.327,0-2.212.9-4.866,1.345-7.078,2.242-2.212,2.69-7.078,3.587-9.732.9-1.327,2.69.442,3.139-1.327s-2.242.885-.9-1.769l.448.442c0-.885,2.242-4.424,0-5.751l1.794,1.327c.448-.442,0-.885,0-1.327.448,0,1.345-.442,1.345.442,1.794-1.327.448-3.539.9-5.308l-1.345.885c-.448-3.1.9-4.866.9-7.962h.9l-.448-1.769c.9.442,1.794-.885.9-2.212a23.552,23.552,0,0,1,2.242,4.866c-.9,1.327-1.345-1.769-2.242-.885-.9.442-1.345,3.539,0,3.981.448-.885,0-1.327,0-2.212,1.345,0,1.345,1.327,2.242,2.212,0-.442.448-1.327,0-1.327a12.169,12.169,0,0,1,.448,4.424c-.448-1.327-.9.442-1.345,0,1.345.442,1.345,2.212.9,4.424-1.794,1.327,0,4.424-1.345,7.078a9.2,9.2,0,0,1-1.794-4.866c-.9,1.327-.448,1.769-1.345,3.1a6.045,6.045,0,0,1,2.242,4.424h-.9c0,2.212,1.345,2.654,0,4.866-.9,2.212-1.794,3.981-2.69,6.193l-2.69,5.308-.9-.442c1.345,2.654-2.242,5.751-2.69,8.4a25.024,25.024,0,0,0-3.587,5.751,6.9,6.9,0,0,1-3.587,3.539,29.7,29.7,0,0,1-3.139,4.866c-.9,1.327-2.242,3.1-3.139,4.424a38.777,38.777,0,0,0-3.587,4.424,40.246,40.246,0,0,1-4.484,3.981v-1.769c-.448,1.769-1.345,0-2.242.885,1.794,0-.448,2.212-.448,3.539-3.587,1.327-6.278,4.866-8.52,7.52l-.448-.885c-1.794,3.1-5.829,3.981-9.416,5.751-.448,0-1.794-.442-2.69,0-1.345,2.212-2.242,2.654-4.932,4.866-2.242,1.327-5.829,1.769-8.071,2.212-7.623,5.308-17.039,5.751-26.007,8.4l-.448-2.212a38.807,38.807,0,0,1-14.349,1.769c-4.932-.442-9.416-.442-13.452-.885l.9-1.769c-2.242-.885-5.381-.442-4.932,1.327a12.575,12.575,0,0,0-4.036-.442c-1.345-.442-2.69-.442-3.139-1.327-2.242-.885-3.139,0-5.381,0a105.859,105.859,0,0,0-10.762-3.981l.9.442c.448-.442.9-.885,0-1.327-1.794,0-5.829-3.1-4.932,0-1.794-1.769-4.932-2.654-7.623-3.539a14.84,14.84,0,0,1-6.726-4.424c0,.885-.9.442-1.794.442-.9-.442-1.794-1.327-2.69-1.769-.9-.885-1.794-1.327-2.242-2.212-1.794-1.327-3.139-2.654-4.932-3.1-.448-.885,1.794,0,0-1.327-.9-.442-.448.442-1.794,0-3.139-1.769-5.381-4.424-8.071-7.078-2.242-2.654-4.036-5.751-6.278-7.962-8.52-7.962-14.349-18.579-18.833-28.311H8.7c-3.139-2.654-1.345-8.847-4.932-10.616,0-.885-.448-3.1.448-3.1A9.335,9.335,0,0,1,2.866,145.3c-.448-2.212-.448-4.424-1.794-6.635,0,.442,0,.442.448.885a28.819,28.819,0,0,0-.448-6.193c-.9-3.1-1.345-4.866-.9-7.078.448.442.448,1.327.9,1.327.9-1.769-2.242-3.981,0-4.866,0-.885-1.345-.442-.9,0,.448-9.732,0-20.348,1.345-30.522,3.139-6.635,4.036.442,3.587-5.308.448-.442-.9-.442-.448-.442,0-2.212,3.587-2.654,2.69-4.424-1.794,0-.448-1.327-1.345-1.327,2.242-3.981,4.036-4.424,4.036-7.962l.448.442c0-4.424,2.69-8.4,2.69-12.386C24.39,40.9,40.084,23.652,60.71,13.035c10.313-5.308,21.075-8.4,31.837-11.059a97.794,97.794,0,0,1,34.079-.885c4.932,2.654,5.381,2.654,11.21,2.654l-.448.442c.448-1.769,4.036.885,4.932-.442,4.036,1.327,8.071,2.212,12.107,3.539a90.591,90.591,0,0,1,11.658,4.424c-1.345-.442-2.69.442-.9.885h1.794v.442c2.242,0,3.587,0,2.69-.885a88.162,88.162,0,0,1,26.9,18.579c4.036,3.539,7.174,7.962,10.762,11.944l4.484,6.635a57.574,57.574,0,0,1,4.484,6.635c.9,2.212,2.69,4.866,4.036,7.52s3.139,5.308,4.484,7.962c4.484,15.925,5.381,30.08,7.174,46A11.182,11.182,0,0,1,226.619,109.026Z" fill="#ff3a21"/>
          <path id="Path_2278" data-name="Path 2278" d="M2.242,0C1.345.442.9,2.212,0,.885.9.885,1.794,0,2.242,0Z" transform="translate(225.274 121.854)" fill="#ff3a21"/>
          <path id="Path_2279" data-name="Path 2279" d="M.9.885a1.572,1.572,0,0,1-.9.442C0,.885,0,0,.448,0,0,.442.448.442.9.885Z" transform="translate(207.338 162.993)" fill="#ff3a21"/>
          <path id="Path_2280" data-name="Path 2280" d="M.122,3.981c-.448-.442.448-2.654.9-3.981Z" transform="translate(201.835 169.186)" fill="#ff3a21"/>
          <path id="Path_2281" data-name="Path 2281" d="M.743.885c-.9.442-.9,0-.448-.885C.743,0,.743.442.743.885Z" transform="translate(192.694 178.918)" fill="#ff3a21"/>
          <path id="Path_2282" data-name="Path 2282" d="M1.794.211A3.418,3.418,0,0,1,0,1.1C.448,1.538.9-.674,1.794.211Z" transform="translate(192.54 180.918)" fill="#ff3a21"/>
          <path id="Path_2283" data-name="Path 2283" d="M1.794.419C1.345.861.9,1.746,0,1.746.9,1.3,1.794-.908,1.794.419Z" transform="translate(174.604 194.866)" fill="#ff3a21"/>
          <path id="Path_2284" data-name="Path 2284" d="M1.415.442c-.448,0-.448,0-.9.442C-.379.885.069,0,.518,0Z" transform="translate(167.361 201.478)" fill="#ff3a21"/>
          <path id="Path_2285" data-name="Path 2285" d="M0,0,.9.885H0Z" transform="translate(15.422 141.318)" fill="#ff3a21"/>
          <path id="Path_2286" data-name="Path 2286" d="M0,.731C.448-.6.9.289,1.345.289.9,1.174.9-.153,0,.731Z" transform="translate(29.77 59.636)" fill="#ff3a21"/>
          <path id="Path_2287" data-name="Path 2287" d="M.9.885v.442L0,0Z" transform="translate(60.262 25.421)" fill="#ff3a21"/>
        </g>
      </g>
    </g>
    <g id="icon" transform="translate(34.3 2057.708)">
      <g id="Group_2390" data-name="Group 2390" transform="translate(197.7 0.355)">
        <path id="Path_13892" data-name="Path 13892" d="M237.668,3.552c-.168-.25.146-1.1-.268-1.484a4.087,4.087,0,0,0-.109,3.318c-.144.263-.315.007-.436-.052.317.835.877,1.8,1.479,1.259-.629-.828-.367-1.028-1.117-1.918C237.14,3.964,237.427,3.433,237.668,3.552Z" transform="translate(-139.836 2.177)" fill="#fff"/>
        <path id="Path_13893" data-name="Path 13893" d="M227.777,15.83l.362,1.08C228.367,16.878,228.01,16.328,227.777,15.83Z" transform="translate(-153.251 22.514)" fill="#fff"/>
        <path id="Path_13894" data-name="Path 13894" d="M237.6,7.623A2.29,2.29,0,0,0,237.424,7l.069.585Z" transform="translate(-138.995 9.464)" fill="#fff"/>
        <path id="Path_13895" data-name="Path 13895" d="M231.917,9.69l.359-.359.436-.813Z" transform="translate(-147.133 11.708)" fill="#fff"/>
        <path id="Path_13896" data-name="Path 13896" d="M229.829.5c-.012.04,0,.067,0,.1C229.915.546,229.94.506,229.829.5Z" transform="translate(-150.226 -0.139)" fill="#fff"/>
        <path id="Path_13897" data-name="Path 13897" d="M236.8,1.615l-.233.03a1.393,1.393,0,0,0-.052.312Z" transform="translate(-140.331 1.507)" fill="#fff"/>
        <path id="Path_13898" data-name="Path 13898" d="M237.367,7.295a.444.444,0,0,1,.24.372l-.03-.416C237.5,7.215,237.417,7.205,237.367,7.295Z" transform="translate(-139.079 9.797)" fill="#fff"/>
        <path id="Path_13899" data-name="Path 13899" d="M294.615,21.81c-.03-.178-.062-.349-.087-.553a.538.538,0,0,1,.087-.159c.292-.4.617.855.617.855a9.157,9.157,0,0,0,.012-3.707c.169.263.31-.007.528-.4-.052-1.041-.7-.7-.419-2.069a3.487,3.487,0,0,1,.776,1.041c-.178-1.227-.538-2.438-.714-3.707.337-.337.513.766.731,1.214-.151-1.427-.3-3.7-.837-4.138l-.191.917c-.025-.52.458-.268.555.116.419,1.222-.183,1.762-.379,1.831l-.124-.9c-1.132.929.183,3.63.117,5.451l-.671-.619-.154-.141.154.419.533,1.45c-.131.243-.349.4-.533.312-.114-.057-.218-.2-.268-.543-.406,1.3.295,1.155-.161,2.275-.069.124-.109.067-.141-.047l.245,1.274c-.173-.248-.582.213-.463-.57-.476,2.287.617,3.689-.007,4.549l-.05-.191c.208,2.374.444,1.37.845,1.707a2.119,2.119,0,0,1,.471.981l-.471.5-1.023,1.1.6.312c-.02.335-.067.847-.307.7.414,1.13.263-.129.654.629a3.378,3.378,0,0,0-.208,1.155c0,.2.015.483-.223.58a3.142,3.142,0,0,1-.644.042c-.845.012-1.616-.027-1.789-.508-.471.461,1.415.354-.094.674-.468-1.036-1.943.178-3.38-.3.444-.535,1.806-.253.367-.731-.374.453-1.269.4-1.744.263-.543-.141-.882-.374-1.323-.287a.685.685,0,0,1-.624.278c-.057-.022-.057-.092-.084-.139a6.3,6.3,0,0,0,.709-.139,2.09,2.09,0,0,0,.248-.394c-.139-.025-.684.377-.961.523a1.987,1.987,0,0,1-.1-.607c-.015-.776.03-1.4-.089-2.75.24.178.394-4.9.654-8.125l.121-.159c-.364.441-.513,0-.587-.709-.657.726-1.425,1.573-2.079,2.3a7.368,7.368,0,0,1,1.514-2.651l-1.378,1.383a12.8,12.8,0,0,1-1.685,2.3l.4-1.172c-1.876,1.918-3.724,4.631-5.32,5.714.181.3,1.15.079,1.306.5.074.2-.017.533-.491,1.16a.887.887,0,0,1-.367-.3.536.536,0,0,1,.082-.624,2.621,2.621,0,0,1-.741.9l.357-1.013c-.88.6-.112.659-.733,1.219-.265-.287-.634.24-.768-.064.124-.178.629-.4.746-.736a5.957,5.957,0,0,1-2.158,1.313c.216.1.372.372-.079.9-1.239,1.279-.763.1-1.643.691-.245.629-1.695,1.682-1.105,1.92a3.242,3.242,0,0,1-1.316.7,2.693,2.693,0,0,0-.151.23c.585.671,1.417,1.868,2.044,2.733.51.716.8.971.823.446l-.084-.221.1.114c2.044,2.285,2.522,5.627,3.59,8.321l-.188.052c.731,1.606,1.108,3.719,1.7,4.894.059.523-.216,1.274-.471,1.085a6.9,6.9,0,0,1,.364,3.382c-.389-1.316-.218.468-.342-1.348,0,1.73-.419,2.1.173,3.95-.255-.32-.409,0-.478.5a5.913,5.913,0,0,0-.134,1.573l.466-1.167a19.136,19.136,0,0,1-.238,2.52l-.62-.508a15.075,15.075,0,0,0-.55,4.713c-.141,1.457-.3,2.879-1.378,3.89.042.5.3.1.56-.327.223-.434.461-.887.6-.4-.58,1.536-2.166,2.691-2.319,3.147-1.259,1.777-.025,2.25-1.35,4.168.359-.126,1.065-.062.287,1.546-.981,1.353-1.908,1.132-1.514.176.193-.335.357-.451.414-.391.213-.486.5-1.108-.064-.711l.084.3c-.61.558-1.836,2.366-1.868,1.7-.565,1.068-.015.637.644,0-1.569,1.378-1.933,2.567-3.613,3.885.325-.149.743-.186.508.055-2.369,2.029-.607,1.336-2.146,2.822-1.155.515-.233-.929-1.65.684-1.152.627-.582-.31-.332-.79-1.207,1.541-3.03,1.851-3.955,2.342a6.53,6.53,0,0,0,.721-.691,4.41,4.41,0,0,1-1.269.9l.736.126c-.553.216-.984.456-1.07.282-.374.565.8.446-.057,1.412-.778.225-2.047,1.36-2.572.88,2.356-.825-.491-.414,1.318-1.427a3.21,3.21,0,0,1-1.326.624c-.109-.03.02-.151.151-.248-2.364.4-.664,1.137-2.971,1.992.173-.426-.761-.456-1.11-.263.927-.292.644.406-.146.947-1.581.238-1.581.738-2.413.87l.964-.082a1.219,1.219,0,0,1-.731.468l-.654.2-1.016.282c-.273-.221,1.323-.478.726-.473a6.51,6.51,0,0,1-3.02.619l-.243.015c-.055.027-.035.116-.057.173l-.067.4c-.042.275-.079.565-.1.875a8.608,8.608,0,0,0,.055,1.977c-.238,1.036-.662.139-.823.914.456,2.009-.483,2.176-.107,4.289.473-.61.359-.716.82.771l-.335-3.471.689,2.228c.007-1.048-.3-2.21-.218-2.84.387,1.063.27.954.662.451a3.325,3.325,0,0,0-.119,2.168,5.8,5.8,0,0,1,.052,2.572l-1.17.208a22.132,22.132,0,0,0-.079,4.16,60.416,60.416,0,0,1,7.411-.384l-1.041-.2c.436-.466,2-.064,3.048-.255-.1.392.557.535,1,.778-.059-.144.719-.139.823-.193a1.654,1.654,0,0,0,.942-.562c.129.178.337.282.124.711-.107.6.171.686.461,1.17a5.689,5.689,0,0,1,.52,2.711c-.426-.758-.7.384-1.008-1.3,0,.838-.074,1.593.2,1.606A3.315,3.315,0,0,0,256.07,115l.129.664c.015.159-.005.3-.1.362a1.63,1.63,0,0,1,.55,1.179c-.079,0-.193-.164-.193-.164a.483.483,0,0,1,.052.567c-.089.112-.144.235.387.441-2.292-1.2-6.271.092-9.413-.951-1.038.047-2.163.1-3.231.151.047,1.7.094,3.338.134,4.71-.116-.134-.2.055-.154-.382-.364,2.413,1.122,1.442.716,4.078-.632,1.333-.342-1.385-.58-.555-.644.168-.6,1-.491,1.9.1.409.315,1.251-.114,1.308a.568.568,0,0,0-.05-.243c-.181.193-.513.1-.8.32a2.157,2.157,0,0,1-.776.243,9.3,9.3,0,0,1-1.591.084s.107-.114.012-.193a12.268,12.268,0,0,1-2.993.706c-.451.079-.88.144-1.368.2l-.723.079c-.23.052-.535.032-.582-.2a1.155,1.155,0,0,0,.733-.114c.134-.067.156-.136.263-.391-.29-.035-.411.092-.654.29-.243.168-.461.255-.533-.53l.151-.426a2.49,2.49,0,0,1,.912-1.492l.03,1.078v.022l.03-.035c.33-.421.317-.441.235-.919a6.87,6.87,0,0,1-.166-1.608l.31.121c-.1-2.83-.88-2.4-.823-6.46l-.235.548a1.884,1.884,0,0,1-.211-1.42c-.344-.129-.587-.411-1.96-.072a3.256,3.256,0,0,0-.332-.783l-1.549.2-1.437.268c-1.031.183-2.166.362-3.112.436a24.065,24.065,0,0,1,4.74-1.222c-1.2,0-3.6.057-4.183.444a3.3,3.3,0,0,1,1.37-.146,11.388,11.388,0,0,1-4.678.9c.3-.379.213-.592.027-.719-.322-.089-.079-.724-.1-1.09.042-.565.087-1.165.126-1.7a3.729,3.729,0,0,1,.525-1.779c-.087-.577-.141-1.152-.171-1.727l-.027-.612,0-.332a2,2,0,0,1,.094-.595c.2-.094.471.04.674.052a20.844,20.844,0,0,0,3.655.156c-1.526-1.179,1.256-.032.991-1.244a3.575,3.575,0,0,1,1.467.017l.012,0h0c1.353.243,2.946.483,4.762.724,1.516.354-1.306.268-.991.54.912.022,1.516.062,1.928.114.171-1.12.476.094.721-1.94-.434.322-.619-1.853-.456-3.89l-.557,2.872a14.475,14.475,0,0,1-.124-2.867,4.455,4.455,0,0,1,.31-1.105,4.334,4.334,0,0,0,.193-2.882l.379.979c-.112-.956-.109-1.675-.2-4.921l-.089-1.943c.094-.424-.287-.364-.57-.394l-.838-.069a11.367,11.367,0,0,0-2.691.062c-.32-.2-.778-.617.337-.508l-2.084-.391-1.38-.287a23.848,23.848,0,0,1-2.817-.577,12.045,12.045,0,0,1-4.671-1.985l.382-.146c-.647-.186-1.281-.077-1.858-.753.1-.082.379-.116.124-.29a5.416,5.416,0,0,1-2.421-1.13l.8.166a18.555,18.555,0,0,0-3.618-2.4l-1.729-.924A13.354,13.354,0,0,1,212.25,83.2c.325-.3.03-.979-.382-1.749a21.49,21.49,0,0,0-1.313-2.215l.129-.04c-2.262-3.256-4.3-5.327-6.038-8.757a31.547,31.547,0,0,0-.885-5.27,21.485,21.485,0,0,1-.466-6.279c-.131.572-.684-.062-.8-.736.1-.877-.513-2.475.25-2.3l-.03.312c.835-.632.632-2.416.942-3.789l-1-.384a26.905,26.905,0,0,0,1.972-6.224,20.4,20.4,0,0,1,.961-2.921,4.089,4.089,0,0,1,1.38-1.734,21.745,21.745,0,0,1,.959-2.758l.453.335a24.8,24.8,0,0,1,1.863-2.515c.61-.776,1.189-1.665,2.2-2.795l-.114.719c1.174-1.187.206-2.753,1.43-3.851l.927.29c2.2-2.128,5.129-3.132,7.3-5.278a.645.645,0,0,1-.342.664c1.231-.711,5.082-1.824,4.22-2.639.31.7,2.9-1.056,4.46-1.69l-.109.6c1.162-1.011,1.157-1.3,3.07-1.762.471,0,.471.377-.159.33,1.563.084,1.112-.768,3.02-.627l-.662.389a3.209,3.209,0,0,0,2.3-.679c1-.317,3.05.074,3.248.6a2.242,2.242,0,0,1,2.054-.414c.109.2-.243.282-.419.322,2.567.642,4.031-.1,5.7.862a.437.437,0,0,0,.216.394c-2.024-.535-3.694-.8-3.531-.813-.067.488,1.539.877.129,1.336,1.338-.176,3.8-.468,5.3.28a.752.752,0,0,1,.151.235l-.178,0a2.794,2.794,0,0,0,1,.245,8.422,8.422,0,0,0,1.212.612c.022.463,1.665.937,2.4,1.328.178-.538,1.13.03.4-.835.1.092-.173-.007-.691-.225a1.971,1.971,0,0,0-.349-.1l.072-.02-1.95-.771a2.789,2.789,0,0,1,2.2.7,11.781,11.781,0,0,1,1.469-.3c.728,1.224,2.436,2.691,2.418,3.281a13.743,13.743,0,0,1,2.168,1.249l1.5,1.016.729.483.357.233c.114,0,.211-.2.312-.282.815-.917,1.556-1.791,2.131-2.567l.394-.558.2-.394A3.969,3.969,0,0,0,266.7,25c.446-.637.835-.411,1.155-.5-.238.387-.622.746-.684,1.023.892-1.274,3.132-3.283,2.874-4.059,1.6-1.13-.292,1.244,1.5-.716l-.1.411a15.575,15.575,0,0,0,2.463-2.076,30.97,30.97,0,0,0,2.205-2.4c1.256-1.526,1.975-2.713,2.78-3.816a22.232,22.232,0,0,1-7.406-.235c.5.092.733.136.738.258-1.695-.144-4.185-.2-5.077-.2l-1.378.025c-.277.087-.436-.186-.387-.409l-.035-.684-.047-.932-.04-1.43-.025-2.81a14.428,14.428,0,0,1,.119-1.806c.191-.273.622-.03.9-.037a8.723,8.723,0,0,1,.865.188A3.169,3.169,0,0,0,268,4.84a3.069,3.069,0,0,0,.741-.136c.421-.134.753-.339,1.318-.518l.4.6,1.93-.691c2.736-.505,4.738,1.469,8.2.513l-.448-.4c1.244.077,3.942-.238,3.734.225a.814.814,0,0,1,.895-.208l.037.312L287.866,4c2.369.225-.369,1.241,3.087,1.3,1.283-.121,3.66-.912,3.177-1.122-.518-.015-1.326-.193-1.365-.508l1.177-.164c.012-.057.035-.116.052-.173a3.925,3.925,0,0,0,.238-.947,1.686,1.686,0,0,1,1.187,1.1l.082.109.012.139.6.461-.072-.461-.017-.218a1.845,1.845,0,0,0-1.784-1.5c-.027.017-.032.045-.052.064-.141-.406-.644-.781-2.012-1.085l-2.01.565-.649-.448,1.692-.027a2.554,2.554,0,0,0-2.25.206A1.313,1.313,0,0,0,288.113.8l-1.972.882c-.24-.362.885-.716-.441-.914-.924.409.887.808-.642,1.078-.964-.419-.681-.761-1.811-.4-.159-.238.082-.389.528-.493-1,.285-2.659.121-3.177.612-1-.518-3.392.134-3.293-.741a7.889,7.889,0,0,1-2.693.724C276.3.494,271.158,1.477,271.6.355a5.814,5.814,0,0,1-3,.627c-.79.027-1.618.052-2.426.079a4.6,4.6,0,0,0-2.651.55.9.9,0,0,1,.622-.394,3.424,3.424,0,0,0-1.769.724,3.048,3.048,0,0,0-.837,1.142,7.083,7.083,0,0,1,.741,2.418,8.762,8.762,0,0,0,.6,2.292c-.751,1.524-.912-.927-1.633-.448.629-.077.629,2.649,1.152,2.131l-.367,1.016c-.077.151-.178.287-.5.892.61.168.518.805.513,1.685a1.654,1.654,0,0,0,.5,1.311,2.8,2.8,0,0,0,.292,1.125,1.921,1.921,0,0,1,.129.4c.092.131.069.453,1.687.538.719.159.327.332-.3.424a3.471,3.471,0,0,1-1.281-.119,2.7,2.7,0,0,0,1.668.235c.377-.074.535-.178.607-.295.139-.233-.007-.52.394-.731a9.651,9.651,0,0,1,1.774,0c.213.047.3.131.335.235.077.208-.035.488.349.676.473-.05.434-.129.491-.218a1.576,1.576,0,0,1,.27-.285,1.3,1.3,0,0,1,.719-.335.877.877,0,0,1-.3.315c.763-.429,1.2-.243,2.1-.4-.01.094.077.154.32.183a3.986,3.986,0,0,1-.444.186c.828-.307,1.648-.6,2.166-.741-.377.391-.032.686-1.016.991.3-.278-.02-.235-.183-.28a2.1,2.1,0,0,1-.055.349c-1.469.5.141-.481-.83-.228a4.1,4.1,0,0,1-.28.924,2.84,2.84,0,0,1-.909,1.113c-.61-.342.959-1.281-.28-.887.282-.161.6-.362.964-.6-1.977.476.369-.263-1.65.149-.6.327.59-.107-1.774,1.982-.166.694.533.25.369.944a3.971,3.971,0,0,1-2.669,1.987,3.008,3.008,0,0,0-1.023.352,2.081,2.081,0,0,0-.491.441c-.141.171-.416.53-.32.595a2,2,0,0,1,.144.934,1.045,1.045,0,0,1-.206.5.824.824,0,0,1-.2.191c-.079.017-.181-.176-.275-.295a2.233,2.233,0,0,0,.173-.835c-.248-.178-.379.012-.6.139a.392.392,0,0,1-.4.02,7.033,7.033,0,0,1-1.2-.922,3.22,3.22,0,0,1,1.16.448c.448.265.372.2.382.151-1.013-1.412-1.286-.332-2.441-1.051l.084-.728a40.985,40.985,0,0,0-8.868-3.112c.225-.139.823-.166.159-.6A90.073,90.073,0,0,0,238.7,16l-1.5.657c-.349.01-.669-.228-.292-.362-1.568-.139-.057.372-.781.639-.865.084-1.187-.273-.647-.476-2.711.763-7.416,2.233-10.243,2.8l.466-.354c-2.21.543-1.91,1.948-3.95,2.359l.307-.263c-4.51,1.806-8.412,5.426-11.616,7.391.126,1.078-3.566,3.266-2.758,4.324-2.076,1.851-1.9,1.013-4.252,4.183-.617.865-.126,1.715-.572,2.911l-.562-.24L202.12,41.4a11.4,11.4,0,0,0-1.031.572l-.273,1.2c.2-.441.61-.86.746-.726a9.537,9.537,0,0,1-1.17,2.763c-.439.82-.833,1.432-1,1.412a30.138,30.138,0,0,0-.436,4.487c-.228-.136-.2-.892-.258-1.511.248,2.478-.7.33-.473,2.6.181-.273.337.206.451.268-.582,1.023-.637,3.548-.548,5.379l-.434-.352a39.756,39.756,0,0,0,1.606,10.682c-.121-1.36.664-1.217.979-.2l-.523.592c.55.57-.032-1.16.781.094.362,1.313-.406,1.1-.865.392l.753,1.539c-.151.156-.374-.188-.642-.211.575.53.342,3.04,1.454,3.687l-.136.166a36.28,36.28,0,0,0,4.42,7.3c.466-.258,1.065.776,2,1.174a24.656,24.656,0,0,0,4.648,5.7c1.606,1.023.724,0,1.568.295-.263.53,1.948,2.049.6,1.526a26.124,26.124,0,0,0,7.206,3.828c-.3-.377-.7-.669-.394-.714.686.24,1.393.907,1.2,1.085l-.2-.037c2.2.629,4.487,1.863,6.859,2.8,1.474.595,1.638.728,2.079.865.168.072.491.074.577.119a.7.7,0,0,0,.255.176l-.052-.03a1.341,1.341,0,0,1,.139.206.606.606,0,0,1,.069.161l.067.446.278,1.782c-.089,1.643-.382-.984-.7.23a15.417,15.417,0,0,1,.282,1.759l.062.805.02.51a4.316,4.316,0,0,1-.1.81,1.272,1.272,0,0,0-.892.173,5.963,5.963,0,0,0-3.038-.667c-1.383-.04-2.188.05-5.255.1a3.909,3.909,0,0,0-1.928.58,2.17,2.17,0,0,0-.691.629,4.518,4.518,0,0,0-.4.738,5.107,5.107,0,0,0-.357,1.925c-.05.674-.116,1.318-.211,1.935l.352-.342a3.619,3.619,0,0,1,.114.714,1,1,0,0,1-.094.387,2.424,2.424,0,0,0-.3.748c.275-.089.317-.929.51-.4l.092,2.317.012,2.926a8.209,8.209,0,0,0,.1,1.953,2.994,2.994,0,0,0,.714,1.442,3.5,3.5,0,0,0,1.462.691,11.842,11.842,0,0,0,2.009.136l1.7.062,1.194.072,2.394.156c2.233.107,1.611.218,1.754.317a.587.587,0,0,1-.1.144.117.117,0,0,1-.045.03l-.02.007h-.01l-.007.213c-.094,2.728,1.824,1.521.981,4.99-.218-.367-.436-.662-.654-.994l.077.582a7.622,7.622,0,0,1,.067.781l.1,2.136a3.561,3.561,0,0,0,1.026,2.408,3.891,3.891,0,0,0,2.567.748l4.577.015c1.457-.01,2.909-.02,4.349-.027a4.287,4.287,0,0,0,2.6-.612,2.691,2.691,0,0,0,1.008-2.168c.057.56.248.741-.062,1.388a2.329,2.329,0,0,0,.642-1.6c.027-.823,0-1.757-.052-2.6-.1-1.016-.312-1.71-.508-1.742.045-.838.352-.2.55-.709a4.819,4.819,0,0,0-.139-1.93,6.438,6.438,0,0,1-.134-.895c-.012-.114.02-.126.139-.141.077,0,.154.077.191.1-.23-.144.059-.409-.491-.756l.042-.064a1.2,1.2,0,0,0,.686-.037,1.065,1.065,0,0,1,.238-.03l.607-.007a6.4,6.4,0,0,1,1.165.114c1.048-.614,3.449.295,3.781-.572-.211.414,1.432.7,3.256.57a2.492,2.492,0,0,0,1.858-1.219,3.546,3.546,0,0,0,.265-1.955c.268.88.292-1.811.662-.838l-.012-1.006-.03-.788a6.626,6.626,0,0,0-.109-.862c-.1-.483-.258-.753-.488-.627a5.079,5.079,0,0,0,.337-1.995,8.874,8.874,0,0,0-.067-.966c-.037-.2-.084-.971-.129-1.407a9.962,9.962,0,0,0-.387-2.584,6.408,6.408,0,0,0-.325-.912,6.207,6.207,0,0,1-.431-.778,4.518,4.518,0,0,0-2.441-.275l-1.323.069-.627.032-.367.037-2.879.265-1.407.114c-.446.037-1.036.072-1.11.1-.394.067-.835.126-1.313.178l-.042-.354c.238-.156.357-.119.419-.02.57-.171,1.142.079,1.229-.61-.357.124-.572.295-1.078.456a1.678,1.678,0,0,1-.4-.857,3.566,3.566,0,0,1-.059-.592l-.032-.783c-.012-.535,0-1.1.032-1.7.121-.947.389.538.54.857-.092-.919-.131-1.826-.149-2.716l-.01-1.484c-.114-.384.292-.317.543-.434.05-.052,1.137-.322,1.9-.657.015.092-.317.28-.647.411.664-.141,1.551-.335,1.368-.679l-.6.31c-1.162-.243,2.178-2,2.161-2.324-.337.716.476.545,1.224.4.724-.2,1.41-.332.847.719.384-.253.823-.657.622-.865.632-.191.894-.131.4.424,2.136-1.209,1.194-1.157,3.1-2.225.087.178-.26.461-.352.778a10.685,10.685,0,0,1,3.2-2.594c-.025.164.238.169-.218.483,2.614-1.861,3.764-3.927,6.4-6.088-.1,1.333,1.013-.647,1.687-.282a12.8,12.8,0,0,0,1.078-1.559l-.741.354c1.008-1.3,1.546-2.686,2.5-3.712a9.523,9.523,0,0,1-.449,1.165c.592-.83,1.056-1.749,1.586-2.614l-1.172,1.288c.57-1.578-.87-.377.453-2.042-.149.409.87-1.321,1.588-1.886v.007a6.538,6.538,0,0,1,.979-2.624c.332-.191.654.565.875.444-.29-.989,1.333-3.583.892-4.772.055.362.421.5.525.416l-.292-.783c.364-.667.471-.753.736-.553.7-2.151-1.056.456-.02-2.022,0,.213.092.131.084.577a26.866,26.866,0,0,0,.679-3.838,23.617,23.617,0,0,1,.31-3.719c.808-.7-.01,2.166.691,1.375a29.877,29.877,0,0,0-.387-5.5c-.411-1.809-.652-3.59-.917-5.29l.035.644c-1.1-.26.032-2.614-.959-4.178.2.384.716.379.575.3-.505-2.329-1.722-4.581-3.655-7.57l.449.265a12.91,12.91,0,0,0-1.083-2.309l-.491-.85c-.124-.218-.243-.419-.322-.59a1.742,1.742,0,0,1-.315-.191c-.03-.188.151-.4-.406-.273a6.965,6.965,0,0,0,2.339-1.576,24.681,24.681,0,0,0,2.091-2.4c1.261-1.6,2.783-3.5,3.744-3.556-.223.225-.4.738-.253.59l1.415-1.769c.05-.7-.082-.307-.409-.486a8.81,8.81,0,0,1,1.611-2.294c-1.182,1.613-.362,1.4-.332,1.734.057-.255.3-.714.387-1,.079.211.144.208.268.025.126-.01.989-2.233.577.322l-.24.332a4.2,4.2,0,0,1,.372,1.908c-.528.894-.245-.607-.681-.067.015.473.265.719.446,1.189a2.23,2.23,0,0,1,.03,1.7c-.149-.493-.151-1.2-.3-1.571a4.2,4.2,0,0,0-.562,2.047l.012-.1a29.028,29.028,0,0,0-.22,3.174,5.782,5.782,0,0,1,.109-.9,5.392,5.392,0,0,1,.761,1.219.72.72,0,0,0,.434.53c.245.052.486.055.743.089a7.949,7.949,0,0,0,3.481-.349c-2.322.857-.372.5-.545,1.1.592.166,1.492.352,1.234.52a2.584,2.584,0,0,1,1.519-.079,4.547,4.547,0,0,0,2.19-.245c.156.2,1.715,0,1.591.478,1.886-.525-.637-.2-.6-.555l1.013-.29c.312-.124.672-.1.947-.453a5.87,5.87,0,0,0,.582-2.4l.111-1.516c.03-.364.05-.738.05-1.115a8.3,8.3,0,0,0-.307-2.324C295.535,24.506,294.96,23.86,294.615,21.81Zm-40.827,2.1.089-.037a.718.718,0,0,1-.312.173c-.538-.139-.667-.312-.694-.446ZM251.062,19l.909.26-.912-.25Zm-2.109-.54c.084.218-.107.377-.476.28.23-.072-.614-.4-1.147-.669Z" transform="translate(-197.7 -0.355)" fill="#fff"/>
        <path id="Path_13900" data-name="Path 13900" d="M232.151,12.411c-.067.335-.134,1.093-.2,1.658Z" transform="translate(-147.08 17.462)" fill="#fff"/>
        <path id="Path_13901" data-name="Path 13901" d="M233.906,14.574a.607.607,0,0,0,.134-.238l-.015,0Z" transform="translate(-144.194 20.299)" fill="#fff"/>
        <path id="Path_13902" data-name="Path 13902" d="M228.762,30.943a9.757,9.757,0,0,1-.258,1.063C228.814,31.508,229.034,31.107,228.762,30.943Z" transform="translate(-152.177 44.849)" fill="#fff"/>
        <path id="Path_13903" data-name="Path 13903" d="M228.987,31.372a11.89,11.89,0,0,0-.81,1.3A3.237,3.237,0,0,0,228.987,31.372Z" transform="translate(-152.66 45.483)" fill="#fff"/>
        <path id="Path_13904" data-name="Path 13904" d="M237.577,4.7a.1.1,0,0,1-.089-.04l.064.364Z" transform="translate(-138.9 6.013)" fill="#fff"/>
        <path id="Path_13905" data-name="Path 13905" d="M237.544,4.973a1.173,1.173,0,0,0-.139-.763Z" transform="translate(-139.023 5.342)" fill="#fff"/>
        <path id="Path_13906" data-name="Path 13906" d="M237.486,11.1a10.716,10.716,0,0,0,.3-2.54l-.161-.084C237.929,8.9,237.146,10.481,237.486,11.1Z" transform="translate(-139.032 11.643)" fill="#fff"/>
        <path id="Path_13907" data-name="Path 13907" d="M236.17,14.253c.25.03.684.116.716-.216l.079-.788c-.213.208-.5.27-.555-.354-.322.6-.2.545-.012.659a.518.518,0,0,1,.292.253C236.829,13.956,236.767,14.384,236.17,14.253Z" transform="translate(-140.848 18.177)" fill="#fff"/>
        <path id="Path_13908" data-name="Path 13908" d="M233.956,13.141c-.4.2-.607.248-.1.436C234.585,13.476,233.867,13.262,233.956,13.141Z" transform="translate(-144.71 18.54)" fill="#fff"/>
        <path id="Path_13909" data-name="Path 13909" d="M229.832,21.625l-.515-.055C229.49,22.46,229.513,21.555,229.832,21.625Z" transform="translate(-150.975 30.997)" fill="#fff"/>
        <path id="Path_13910" data-name="Path 13910" d="M230.586,26.383l.4-.916-.422-.5Z" transform="translate(-149.134 36.018)" fill="#fff"/>
        <path id="Path_13911" data-name="Path 13911" d="M228.584,28.813l.2-1.087.04-.392Z" transform="translate(-152.059 39.516)" fill="#fff"/>
      </g>
      <g id="Group_2391" data-name="Group 2391" transform="translate(212.847 31.779)">
        <path id="Path_13912" data-name="Path 13912" d="M215.42,33.372c-.208.087-.377-.191-.349-.434-.067.171-.322-.129-.426.29.282.493.647.5.981.059.087.139.022.315.01.436a1.694,1.694,0,0,0,.265-1.494C215.709,32.869,215.638,32.609,215.42,33.372Z" transform="translate(-187.807 15.327)" fill="#fff"/>
        <path id="Path_13913" data-name="Path 13913" d="M224.44,24.075a.164.164,0,0,0,.131.164C224.534,24.14,224.5,24.058,224.44,24.075Z" transform="translate(-173.33 3.272)" fill="#fff"/>
        <path id="Path_13914" data-name="Path 13914" d="M222.878,29.084c-.161-.141-.24.057-.384.171Z" transform="translate(-176.206 10.606)" fill="#fff"/>
        <path id="Path_13915" data-name="Path 13915" d="M216.165,32.068a.431.431,0,0,0-.144.2,1.232,1.232,0,0,1,.151-.092Z" transform="translate(-185.772 15.087)" fill="#fff"/>
        <path id="Path_13916" data-name="Path 13916" d="M221.07,31.054l-.082.077a2.342,2.342,0,0,0,.1.265Z" transform="translate(-178.432 13.589)" fill="#fff"/>
        <path id="Path_13917" data-name="Path 13917" d="M214.518,32.962l-.071.026-.017.311Z" transform="translate(-188.122 16.409)" fill="#fff"/>
        <path id="Path_13918" data-name="Path 13918" d="M224.846,21.3l-.007.022C224.918,21.431,224.9,21.367,224.846,21.3Z" transform="translate(-172.741 -0.818)" fill="#fff"/>
        <path id="Path_13919" data-name="Path 13919" d="M212.312,13.231c.543.374-.577.805.2,1.177C212.4,14.212,212.934,13.407,212.312,13.231Z" transform="translate(-191.38 -12.75)" fill="#fff"/>
        <path id="Path_13920" data-name="Path 13920" d="M221.964,16.636c-.037-.1,0-.181-.151-.23a.235.235,0,0,0-.02.077C221.88,16.465,221.952,16.49,221.964,16.636Z" transform="translate(-177.242 -8.058)" fill="#fff"/>
        <path id="Path_13921" data-name="Path 13921" d="M220.671,15.409l-.01.133.12.052Z" transform="translate(-178.914 -9.531)" fill="#fff"/>
        <path id="Path_13922" data-name="Path 13922" d="M208.865,30.42c.216-.339.672-.111.206-.491A2.575,2.575,0,0,1,208.865,30.42Z" transform="translate(-196.347 11.926)" fill="#fff"/>
        <path id="Path_13923" data-name="Path 13923" d="M216.193,32.091l-.112.047a.389.389,0,0,0,.052.2C216.129,32.2,216.144,32.128,216.193,32.091Z" transform="translate(-185.682 15.121)" fill="#fff"/>
        <path id="Path_13924" data-name="Path 13924" d="M219.986,17.383a1,1,0,0,0,.027-.5.507.507,0,0,0-.136.069Z" transform="translate(-180.073 -7.347)" fill="#fff"/>
        <path id="Path_13925" data-name="Path 13925" d="M256.415,35.226a1.11,1.11,0,0,1-.193-.55l-.434.273c.05-.218.025-.391.218-.419-.337-.161-.748.28-1.227-.057.188-.307-.362-.751.211-.964-.052.88.6-.223.823.483a.634.634,0,0,1-.072-.52c.059-.045.136,0,.178.052.349-.939-.783-.23-.976-1.053.369.02.6-.359.488-.478.082.342-.528.3-.865.077.129-.6-.342-.51-.382-.788l-.042.347c-.362,0-.382-.273-.622-.58.248-.116.292.255.362.094-.724-.183.287-1.083-.3-1.489.129-.339.607-.265.674-.553-.642-.451.159-.857-.481-1.348-.342.384-.225.359-.85.121l.79.882-.939-.372c.131.3.59.513.58.738-.478-.168-.372-.171-.659.121.453-.694-.763-.632-.553-1.3l1.058-.5c.121-1-1.189-1.011-1.484-2.042l0,.394c-.471.124-.389-.513-.724-.7.344-.188.354-.448.476-.709-.228.178-.444-.644-1.132-.258l.134-.681c-.352-.815-1.432-.092-1.863-.746.483-.1.444-.555,1.043-.347-.181-.206-.292-.436-.5-.26.074-.285-.892-.2-.785-.634-.2.035-.523.292-.7.05a.347.347,0,0,1,.139-.134c-.131.126-.513-.139-.632.344.228-1.41-1.675-1.482-1.611-2.674a15.131,15.131,0,0,1-1.63-.847c.094-.079.112-.161.173-.074-.429-.689-.991.709-1.464-.052-.032-.761.55-.067.451-.406.558-1.155-.934-.391-1.073-1.293l.159-.007c-.2-.58-1.179-.03-1.764-.411a.361.361,0,0,0,.082-.176,4.292,4.292,0,0,1-2.285.23c.359-.4.372-.146.426-.671-.307-.035-.2.8-.793.738-.089-.325-.411-.711-.312-1.234.186.035.364.1.548.156-.055-.785-.714-.213-.966-.4l.121-.287c-.892-.129-1.09.627-1.97.342l.045.253c-.637.644-.332-.5-.929-.02l-.02-.8a11.213,11.213,0,0,1-1.863.649c.384-.562,1.12-.728,1.616-1.008-.337-.057-1.157-.116-1.365.243.139-.057.332-.221.451-.079a2.016,2.016,0,0,1-1.67.776c.191-1.511-1.687-.488-2.205-1.586-1.177.582-2.418-.082-3.833.258.706,1.085-.4.1-.084,1.274-.28.119-.394.144-.444.084l-.017-.01,0,0-1.11-.461c-.32-.282.235-.337.141-.595-.731.092-.424-.421-.991-.607.213.391-.079.662-.533.61l.726.389c-.783.857-1.147-.711-1.928.233l.181-.471c-.426.387-1.888.676-1.923,1.821-.141-.087-.4-.332-.22-.513-1.261.389-1.972,2.2-3.092,2.2l-.082-.3c-.154.2-.045.664-.441.6-.059-.109-.092-.3-.191-.248-.045.159-.2.793-.545.838l.015-.426c-1.246.419-1,1.774-1.573,2.6-.572-.642-1.512-.221-1.938.052l-.077-.1c-1.078,1-1.132,2.3-1.593,3.551-1.288.077-1.871,2.059-2.926,2.991.23-.112.59.339.57.585-.295.2.183,1.013-.523.637l.062-.094c-.808-.116-.927.548-1.1,1.021l.947.463a1.964,1.964,0,0,0-1.177,1.965c-.042.8-.035,1.492-.788,1.69.166.359.107.741.32,1.093l-.55-.116a5.6,5.6,0,0,0-.4,2.364l-.389-.258c-.069.624,1.573.9,1.578,1.427l-.845.129c-.084,1.031-.7,2.153.1,3.144-.124-.007-.367-.017-.409-.188-.042.5-.335,2.007.771,1.663-.733.116.082,1.1.513,1.564l-.562.027c.808.32,1,.285,1.348.862-.022.121-.225.193-.295.129.015.364.577.2.463.8l-.4-.124c.1.523.253.436.746.58.322.235.206.966-.235,1.219.312-.037.79.087.761.426a.362.362,0,0,1-.382.012c-.062.994,1.117.937.867,1.712a.519.519,0,0,0-.25.238,4.952,4.952,0,0,1-.456-1.137c-.468.2-.295.768-1.142.627.565.29,1.658.637,1.687,1.246a.856.856,0,0,1-.124.151l-.077-.027a.342.342,0,0,0,.233.282,1.123,1.123,0,0,0,.109.478c-.332.265.154.691.287.951.463-.312.58.055.788-.488-.01.059-.084-.01-.2-.161-.037-.027-.072-.067-.114-.074l.052-.007-.4-.587c.364.055.686.129.585.555l.966-.141c-.473.733-.419,1.611-.728,1.96.8.518,1.393,1.591,2.579,1.279.265.089-.04.4-.1.58-.173-.037-.275-.171-.441-.131.533.191,1.063,1.016,1.665.59.181.676-.726.228-.047.743l-.243.082c.216.989,1.066,1.13,1.851,1.266.825.112,1.6.2,1.9,1.363-.052-.154-.077-.225-.027-.342,1.407,1.742,3.908,1.677,5.454,3.3.488.4.7-.017,1.142-.233l-.059.612.785-.5c.934-.312,1.1,1.868,2.4,1.073l-.069-.416c.374.134,1.251-.05,1.125.4.05-.067.181-.4.3-.166l-.027.315a8.171,8.171,0,0,0,1.006-.444c.726.265-.216,1.234.9,1.353.434-.1,1.194-.855,1.036-1.073a.544.544,0,0,1-.416-.528l.359-.146c0-.057.012-.114.017-.173.032-.317.057-.629.059-.934.035.074.084.126.168.089l.136-.664-.31.193-.01.04a1.606,1.606,0,0,0-.535-1.09l-.575.535-.154-.456.463,0c-.243-.436-.421-.072-.627.176a.823.823,0,0,0-.193-.5l-.622.85c-.027-.369.31-.684-.022-.929-.3.367.156.842-.3,1.043-.218-.458-.092-.783-.448-.476a.481.481,0,0,1,.211-.468c-.31.24-.731.01-.959.473-.181-.535-.956-.025-.743-.89a1.421,1.421,0,0,1-.88.518c.709-.9-.909-.3-.476-1.341-.6.835-1.256-.007-2.012.287.059-.057.178-.176.211-.112-.292-.191-.278-.486-.409-.721-.337.7-.889.627-1.363.932-.062-.862.622-.714.8-1.425-.243.58-.912.258-1.021.788-.082-.555-.151-.322,0-.964-.5.833-.344.032-.855.406-.161-.659.352-.852-.225-.857-.047-.377.5-.446.5-.446-.414-.27-.567.493-.877.8-.642-.146.04-.607.064-1.031-.424-.017-1.048.377-1.256.168.052-.112.032-.181.171-.265-.664.225-.976-.686-1.816-.416a.586.586,0,0,1,.069-.181,3.945,3.945,0,0,1-.585.823c-.188-.154-.642.042-.4-.382.1.112.238-.025.387-.092l-.325-.015c.282-.671.411.055.741-.335-.5-.151-1.313-.124-1.464-.523.409-.538.8.424.845-.347l.25.572c.387-1.083.2.285.664-.83-.387-.634-.855-.27-1.212-.939-.379.139-.359.429-.741.562-1.227-.352.7-1.747-.488-1.715-.468.136-1.177.6-1.162-.134l.714-.315c-.359-.61-1.12.327-1.165-.585.327-.062.548.307.555.169.2-.736-.558-.025-.788-.332l.513-.441c-.453-.592-1.368-1.031-1.853-1.757.2-.05.446-.017.545-.29a3.352,3.352,0,0,1-.751-1.477,9.556,9.556,0,0,1-.064-1.69l-.689-.183c-.025-.089.208-.24.337-.178.114-.446-.357.089-.624-.032-.094-.211.248-.384.451-.295-.647-.518-1.559-1.725-1.008-2.579l.193.116c.146-.6-1.284-.491-.83-1.108l.119.094c.151-1.284-.448-2.726.525-3.652-.832-.245.431-1.2-.686-1.407.686-.654.865-.419,1.4-1.333.082-.25-.637-.53-.674-.89l.6.129-.51-.592.768-.05-.074-.342a.487.487,0,0,1-.5.121c-.159-.567.721-1.041,1.038-.939l-.092-1.251c.221.114.233.327.33.52-.374-.793.637.131.292-.595-.154.017-.322-.176-.434-.235a1.387,1.387,0,0,0,.785-1.172l.339.265c.416-.716.657-1.635,1.15-2.446-.337.181-.914-.275-.823-.562l.6.258c-.238-.379-.359.121-.567-.476.277-.26.748.218.8.5l.074-.476c.173.092.2.23.382.391-.218-.377.959-.2.553-.815l.166.1c.53-.758.711-1.162,1.184-1.769-.394-.4-.1-.535-.263-1.028a5.5,5.5,0,0,0,1.8-.87c.2-.528-.191-.456-.225-.85.349.372.875-.079.81.424a9.15,9.15,0,0,0,1.44-1.638c-.211-.116-.374-.124-.409-.3.126-.173.5-.052.6.171l-.017.069c.671-1.348,3.063.015,3.459-1.291l-.03.067.724-.85c.453-.074-.126.451.29.634.711-1.207,1.611-.325,2.292-1.12.929,1.348,2.319-.555,3.318.409l-.072-.349c.208-.357.29.186.458.26-.035-.273-.265-.3-.129-.5,1.985-.56,4.069.607,5.825,1.373.654.265.867-1.66,1.546-.622l-.443.562a3.854,3.854,0,0,1,2.218.4,5.191,5.191,0,0,0,2.131.726c-.146.087-.24.253-.367.193.042.555.944.6,1.16.268.173.156-.136.327-.124.565.1.4,1-.124.86.374-.022.082-.154.074-.223.077.29-.074.7.6.872.04.273.543,1,.421,1.127.961.612-.27.493.85,1.147.27-.639.642.221,1.145.738,1.14-.273.1,0,.416-.367.575.268.278.634.429.934.074-.312,1.2,1.608.615.771,1.774a9.28,9.28,0,0,1,2.634,2.29c-.778.367-.657-1-1.452-.486.862.627,1.727.877,2,1.876,0,.285-.421.02-.6.007.753.776.639,1.821,1.373,2.532a.393.393,0,0,1-.28-.116c.072.164-.025.434.362.3l-.149-.139c.491-.456,1.363.367,1.677.335-1.207-.015-.052.974-1.608.833a.605.605,0,0,0,.587.109c-.032.188-.173.273-.52.171.382.565.721.27.815.852-.2.032-.287-.072-.523-.089.421.218.845.461.756.981-.121-.015-.265.062-.285-.084.22.813,1.15,1.37.845,2.356-.867-.258-.263.33-1,.387a3.771,3.771,0,0,1,.218.5l.369-.2c-.037.436.483.855.22,1.231l-.287-.347.1.842.3-.456c.357.483.937.01.7.612-.074-.134-.02.471-.51.654h0c.2.248.411.518.176.833-.248.05-.8-.193-.964-.161.572.312.03,1.063.6,1.469a1.134,1.134,0,0,0-.592-.2l.444.285c-.211.171-.292.183-.587.082-.245.585.964.017.384.654-.025-.067-.1-.059-.149-.2-.389.669-.04,1.509-.543,2.081-.773-.059.032-.622-.642-.607-.188.939.144,2.235-.476,3.025l.151-.126c.88.585-.768.424-.555,1.075,0-.141-.436-.416-.347-.332-.488.468-.446,1.264-.726,2.3l-.149-.253c-.431.173-.724.733-1.07.994.139.263-.04.431.354.558-1.98-.015-1.018,2.48-2.812,2.337.1-.094.079-.392,0-.32l-.55.838c.354.295.273.124.664.253a.839.839,0,0,1-.178.813c.139-.545-.471-.55-.785-.642.114.089.161.25.263.349-.924-.325.506.773-.414.776l-.114-.213c-.141.255-.154.664-.429.783-.4-.359.087-.374-.156-.736-.3.255-.059,1.318-.681,1.058.067-.211.28-.339.33-.57-.664-.273-.627-.149-.924-.072l.032,0-.716.107.23.057c.275,1.425-.706.781-.907,1.848.2-1.048-.134-.486-.362-1.043-.23-.072-.543-.131-.555-.312-.064.567-.619-.124-.711.706-.1-.168-.307.126-.439-.347-.295.312.218.268.287.5-.327.887-1.645-.235-2.173.942-.59.528-.634,1.12-1.162,1.613-.042.037-.064.082-.114.119-.03-.022-.027-.052-.047-.079-.186-.253.082-.657.082-.657a.912.912,0,0,0-1.058.243c.042-.178-.064-.3-.218-.5-.282.094-.072.724-.518.5a3.485,3.485,0,0,1,.164-.81c-.31.228-.6.637-.941.865-.139-.317.154-.54.245-.776-.377.208-1,.473-1.08.986l.287.176c-.151.035-.124-.446-.025-.558.3-.468.523.107.57.295l-.248.164c.416,1.083,1.048-.344,1.566-.357l-.062.689-.012.156.094-.168.33-.587a.956.956,0,0,1,.2.5.309.309,0,0,1-.109.29c.476.325.28-.367.711,0a.1.1,0,0,1,.017.141l.322-.335c-.032.186.2.548-.062.493.818.28.947-.882,1.378-.349l-.045.064c.639-.414.282-.545.248-.964a1.024,1.024,0,0,1,.129-.548l.3.391.652.85-.116-.6c.1-.012.3-.04.357.2.206-.515-.154-.223-.089-.664.669.369,1.115-.726,1.6.094-.035-.493-.562-.124-.233-.637.572.877.458-.416,1.06-.181.124.535-.394.471.23.7-.168-.914.885-.208,1.13-.58a.387.387,0,0,1,0-.439.546.546,0,0,1,0,.439,1.716,1.716,0,0,0,.235.317c.1-.035-.141-.528-.233-.761.176-.263.679-.409.966-.778.114.253,1.194-.357,1.836-.518l.059.107c-.357-.657.238-.882.461-1.306a.892.892,0,0,1,.258.842l.32-.285a.737.737,0,0,1,.087-.674l.282.481c.4-.421.424-1.219,1.182-1.487-.235-.255-.768-.446-1.021-.778a.6.6,0,0,1-.114-.577,2.865,2.865,0,0,1,.352.317.486.486,0,0,1,.171.379c.017-.072-.01-.325.159-.339l.134.54c.364-.1-.164-.392.04-.553.28.273.332.05.535.29-.017.074-.273.057-.228.235a1.2,1.2,0,0,1,.966-.171c-.186-.129-.394-.352-.287-.545.357-.434.486.166.865.05-.109-.27.327-.387-.124-.761.1-.131.332.015.5.062-.025-.4.768-1.15.064-1.249l-.077.035.007-.052c.116-1.053,1.336-1.457,1.635-2.386l.168.1c.092-.592.444-1.187.243-1.717.072-.146.493-.2.674-.04.045-.456-.107-.565.4-1.028.166.538.332-.027.077.515.349-.463.691-.483.4-1.241.4.372.743-.193.7-.5l-.478.26a2.057,2.057,0,0,1,.3-.783l.58.337c1.093-.964-.748-2.381.716-2.971-.4-.391-.416.57-.9.188.166-.5,1.187-.9,1.217-1.075.466-.706-.83-.818-.51-1.549a.838.838,0,0,1-1.06-.466c.111-.5,1.016-.582,1.187-.23.015.131-.064.188-.144.176.077.178.166.416.431.223l-.23-.089c.253-.248.265-1,.644-.808-.206-.426-.379-.191-.515.107.362-.686.1-1.085.273-1.806-.124.119-.4.228-.4.114.24-1.051-.468-.444-.6-1.127.337-.419.86.084.523-.6.22-.458.617-.154.818.012-.461-.622.139-1.269.181-1.675ZM207.881,51.835c-.169-.126-.109-.238-.022-.317a1.811,1.811,0,0,0,.233.255l.069-.015A1,1,0,0,1,207.881,51.835Zm2.778-2.981.139.216-.149-.211Zm-.473-.937a2.576,2.576,0,0,0,.178.419c-.156.119-.352.168-.389.067C210.114,48.4,210.106,48.125,210.186,47.917Z" transform="translate(-203.813 -13.037)" fill="#fff"/>
        <path id="Path_13926" data-name="Path 13926" d="M205.818,28.731c.022.017.052.02.074.047l.05-.161-.186.032Z" transform="translate(-200.942 9.988)" fill="#fff"/>
        <path id="Path_13927" data-name="Path 13927" d="M222.49,29.154a.249.249,0,0,1-.094,0l.069.017Z" transform="translate(-176.351 10.774)" fill="#fff"/>
        <path id="Path_13928" data-name="Path 13928" d="M206.307,21.527l-.137-.03.1.112Z" transform="translate(-200.331 -0.535)" fill="#fff"/>
        <path id="Path_13929" data-name="Path 13929" d="M218.6,31.281a1.182,1.182,0,0,0,.077.225l0,0Z" transform="translate(-181.964 13.924)" fill="#fff"/>
        <path id="Path_13930" data-name="Path 13930" d="M222.793,20.971a.154.154,0,0,0-.042-.062C222.6,20.781,222.677,20.875,222.793,20.971Z" transform="translate(-175.95 -1.496)" fill="#fff"/>
        <path id="Path_13931" data-name="Path 13931" d="M223.707,24.663a1.8,1.8,0,0,1-.216-.325C223.424,24.5,223.394,24.62,223.707,24.663Z" transform="translate(-174.797 3.664)" fill="#fff"/>
        <path id="Path_13932" data-name="Path 13932" d="M220.561,17.72l.008-.006-.039-.044Z" transform="translate(-179.109 -6.19)" fill="#fff"/>
        <path id="Path_13933" data-name="Path 13933" d="M223.53,24.166a.361.361,0,0,0-.032.426A.522.522,0,0,0,223.53,24.166Z" transform="translate(-174.804 3.41)" fill="#fff"/>
        <path id="Path_13934" data-name="Path 13934" d="M215.364,32.148a.267.267,0,0,1,0,.089l.094-.082Z" transform="translate(-186.743 15.206)" fill="#fff"/>
        <path id="Path_13935" data-name="Path 13935" d="M215.244,32.363l.2-.151C215.37,32.214,215.279,32.2,215.244,32.363Z" transform="translate(-186.92 15.3)" fill="#fff"/>
        <path id="Path_13936" data-name="Path 13936" d="M217.17,32.088c-.191,0-.548-.3-.761-.116l.012.161C216.466,31.81,217.083,32.462,217.17,32.088Z" transform="translate(-185.199 14.854)" fill="#fff"/>
        <path id="Path_13937" data-name="Path 13937" d="M218.772,32.5l-.728.1c.193.156.461.367.168.53C219.315,33.409,217.861,32.758,218.772,32.5Z" transform="translate(-182.782 15.726)" fill="#fff"/>
        <path id="Path_13938" data-name="Path 13938" d="M219.46,32.61c.129-.292.154-.367-.191-.389C218.964,32.479,219.42,32.494,219.46,32.61Z" transform="translate(-181.126 15.314)" fill="#fff"/>
        <path id="Path_13939" data-name="Path 13939" d="M223.595,27.489l.446.243C224.108,27.427,223.863,27.65,223.595,27.489Z" transform="translate(-174.579 8.321)" fill="#fff"/>
        <path id="Path_13940" data-name="Path 13940" d="M223.249,26.008l-.374.156.4.258A2.607,2.607,0,0,0,223.249,26.008Z" transform="translate(-175.643 6.132)" fill="#fff"/>
        <path id="Path_13941" data-name="Path 13941" d="M224.622,25.919l.037.149-.051-.545Z" transform="translate(-173.081 5.415)" fill="#fff"/>
        <path id="Path_13942" data-name="Path 13942" d="M221.216,15.429l-.325.54C221.111,16.021,221.6,15.511,221.216,15.429Z" transform="translate(-178.575 -9.502)" fill="#fff"/>
        <path id="Path_13943" data-name="Path 13943" d="M216.326,13.5c.26.082.476.362.622.325C216.891,13.478,216.589,13.23,216.326,13.5Z" transform="translate(-185.321 -12.522)" fill="#fff"/>
        <path id="Path_13944" data-name="Path 13944" d="M204.7,19.972l-.11-.308v.5Z" transform="translate(-202.662 -3.244)" fill="#fff"/>
      </g>
    </g>
  </g>
</svg>
