<svg height="337.793" viewBox="0 0 448.779 337.793" width="448.779" xmlns="http://www.w3.org/2000/svg"><g opacity=".1"><path d="m350.74 473.385a64.729 64.729 0 1 1 64.729-64.729 64.771 64.771 0 0 1 -64.729 64.729m124.26-187.485h-67.13a.817.817 0 0 0 -.8.9v22.21a.882.882 0 0 0 .8.9h26.712l-29.714 29.714a87.886 87.886 0 1 0 -65.629 156.271v25.712h-26.516a.882.882 0 0 0 -.9.8v23.911a.9.9 0 0 0 .9.9h26.512v25.311a.882.882 0 0 0 .8.9h23.911a.9.9 0 0 0 .9-.9v-25.411h26.512a.9.9 0 0 0 .9-.9v-23.911a.817.817 0 0 0 -.9-.8h-26.312v-26.113a87.859 87.859 0 0 0 57.626-137.262l29.213-29.213v25.011a.9.9 0 0 0 .9.9h22.315a.9.9 0 0 0 .9-.9v-67.13a1.064 1.064 0 0 0 -1-.9" fill="#ff3a21" transform="translate(-262.7 -285.9)"/><path d="m390.236 382.1h-78.436a.882.882 0 0 0 -.9.8v19.009a.882.882 0 0 0 .9.8h78.435a.817.817 0 0 0 .9-.8v-19.009a.882.882 0 0 0 -.9-.8" fill="#ff3a21" transform="translate(-262.678 -285.857)"/><path d="m390.236 416h-78.436a.882.882 0 0 0 -.9.8v19.009a.882.882 0 0 0 .9.8h78.435a.817.817 0 0 0 .9-.8v-19.009a.882.882 0 0 0 -.9-.8" fill="#ff3a21" transform="translate(-262.678 -285.842)"/><g fill="#dd1367"><path d="m387.422 436h-87.85a1 1 0 0 0 -.972 1.061v26.426a1 1 0 0 0 .972 1.06h87.85a1 1 0 0 0 .972-1.06v-26.426a1.061 1.061 0 0 0 -.972-1.061" transform="translate(-19.266 -209.057)"/><path d="m387.422 372.5h-87.85a1 1 0 0 0 -.972 1.061v26.426a1 1 0 0 0 .972 1.061h87.85a1 1 0 0 0 .972-1.061v-26.426a1 1 0 0 0 -.972-1.061" transform="translate(-19.266 -201.679)"/><path d="m386.446 321.731-42.157-42.157a.8.8 0 0 0 -1.061 0l-42.157 42.157a.722.722 0 0 0 .53 1.237h84.314a.732.732 0 0 0 .53-1.237" transform="translate(-19.529 -190.857)"/><path d="m442.237 457.449 42.157-42.157a.8.8 0 0 0 0-1.061l-42.157-42.157a.741.741 0 0 0 -1.237.53v84.314a.741.741 0 0 0 1.237.53" transform="translate(-35.813 -201.606)"/><path d="m301.074 513.337 42.157 42.157a.8.8 0 0 0 1.061 0l42.157-42.157a.722.722 0 0 0 -.53-1.237h-84.319a.741.741 0 0 0 -.53 1.237" transform="translate(-19.531 -217.9)"/><path d="m250.731 372.074-42.157 42.157a.8.8 0 0 0 0 1.06l42.157 42.157a.741.741 0 0 0 1.237-.53v-84.318a.741.741 0 0 0 -1.237-.53" transform="translate(-8.782 -201.606)"/></g></g></svg>