<svg xmlns="http://www.w3.org/2000/svg" width="448.779" height="337.793" viewBox="0 0 448.779 337.793">
  <g id="watermark" transform="translate(-146.9 -215.322)" opacity="0.1">
    <g id="Group_2241" data-name="Group 2241" transform="translate(146.9 215.322)">
      <path id="Path_2312" data-name="Path 2312" d="M350.74,473.385a64.729,64.729,0,1,1,64.729-64.729,64.771,64.771,0,0,1-64.729,64.729M475,285.9h-67.13a.817.817,0,0,0-.8.9v22.21a.882.882,0,0,0,.8.9h26.712l-29.714,29.714a87.886,87.886,0,1,0-65.629,156.271v25.712H312.723a.882.882,0,0,0-.9.8v23.911a.9.9,0,0,0,.9.9h26.512v25.311a.882.882,0,0,0,.8.9h23.911a.9.9,0,0,0,.9-.9V547.118h26.512a.9.9,0,0,0,.9-.9V522.307a.817.817,0,0,0-.9-.8H365.046V495.394a87.859,87.859,0,0,0,57.626-137.262l29.213-29.213v25.011a.9.9,0,0,0,.9.9H475.1a.9.9,0,0,0,.9-.9V286.8a1.064,1.064,0,0,0-1-.9" transform="translate(-262.7 -285.9)" fill="#ff3a21"/>
      <path id="Path_2313" data-name="Path 2313" d="M390.236,382.1H311.8a.882.882,0,0,0-.9.8v19.009a.882.882,0,0,0,.9.8h78.435a.817.817,0,0,0,.9-.8V382.9a.882.882,0,0,0-.9-.8" transform="translate(-262.678 -285.857)" fill="#ff3a21"/>
      <path id="Path_2314" data-name="Path 2314" d="M390.236,416H311.8a.882.882,0,0,0-.9.8v19.009a.882.882,0,0,0,.9.8h78.435a.817.817,0,0,0,.9-.8V416.8a.882.882,0,0,0-.9-.8" transform="translate(-262.678 -285.842)" fill="#ff3a21"/>
    </g>
    <g id="Group_2242" data-name="Group 2242" transform="translate(346.493 303.84)">
      <path id="Path_2347" data-name="Path 2347" d="M387.422,436h-87.85a1,1,0,0,0-.972,1.061v26.426a1,1,0,0,0,.972,1.06h87.85a1,1,0,0,0,.972-1.06V437.061a1.061,1.061,0,0,0-.972-1.061" transform="translate(-218.859 -297.575)" fill="#dd1367"/>
      <path id="Path_2348" data-name="Path 2348" d="M387.422,372.5h-87.85a1,1,0,0,0-.972,1.061v26.426a1,1,0,0,0,.972,1.061h87.85a1,1,0,0,0,.972-1.061V373.561a1,1,0,0,0-.972-1.061" transform="translate(-218.859 -290.197)" fill="#dd1367"/>
      <path id="Path_2349" data-name="Path 2349" d="M386.446,321.731l-42.157-42.157a.8.8,0,0,0-1.061,0l-42.157,42.157a.722.722,0,0,0,.53,1.237h84.314a.732.732,0,0,0,.53-1.237" transform="translate(-219.122 -279.375)" fill="#dd1367"/>
      <path id="Path_2350" data-name="Path 2350" d="M442.237,457.449l42.157-42.157a.8.8,0,0,0,0-1.061l-42.157-42.157a.741.741,0,0,0-1.237.53v84.314a.741.741,0,0,0,1.237.53" transform="translate(-235.406 -290.124)" fill="#dd1367"/>
      <path id="Path_2351" data-name="Path 2351" d="M301.074,513.337l42.157,42.157a.8.8,0,0,0,1.061,0l42.157-42.157a.722.722,0,0,0-.53-1.237H301.6a.741.741,0,0,0-.53,1.237" transform="translate(-219.124 -306.418)" fill="#dd1367"/>
      <path id="Path_2352" data-name="Path 2352" d="M250.731,372.074l-42.157,42.157a.8.8,0,0,0,0,1.06l42.157,42.157a.741.741,0,0,0,1.237-.53V372.6a.741.741,0,0,0-1.237-.53" transform="translate(-208.375 -290.124)" fill="#dd1367"/>
    </g>
  </g>
</svg>
