<svg xmlns="http://www.w3.org/2000/svg" width="88" height="88" viewBox="0 0 88 88">
  <g id="uhc-icon2" transform="translate(32.089 21.95)">
    <g id="circle" transform="translate(55.911 -21.95) rotate(90)">
      <ellipse id="Ellipse_266" data-name="Ellipse 266" cx="39.774" cy="41.504" rx="39.774" ry="41.504" transform="translate(1.576 83.32) rotate(-90)" fill="#1fad8e"/>
      <g id="Group_1058" data-name="Group 1058" transform="translate(0 0)">
        <path id="Path_2276" data-name="Path 2276" d="M.287.671c0-1.007-.51.5-.17-.671C.287.168.457.336.287.671Z" transform="translate(86.012 44.375)" fill="#1fad8e"/>
        <path id="Path_2277" data-name="Path 2277" d="M85.959,41.355a9.617,9.617,0,0,1-.85-2.349c-.17-.839-.34-1.678-.51-2.685a15.535,15.535,0,0,0-.68-2.685A5.842,5.842,0,0,0,82.9,31.287c-.17-.336.85-.168.34-1.007-.51-.671-1.02-1.51-1.531-2.349a14.785,14.785,0,0,1-1.361-2.852c-1.021-1.846-1.871-4.027-2.721-5.873h.34c-.34-.671-1.361-1.007-1.871-1.678.17-.168.34,0,.34-.168-.51.168-1.191-1.007-1.7-1.007-.17-.336.17-.5,0-1.007h-.68c-1.7,0-2.211-2.181-3.912-2.852.17,0,.34,0,.34-.168-2.721-1.175-5.443-3.188-8.334-4.195.17-.168.51-.336.34-.671-.34.336-1.361.168-2.041-.168-.17-.671-1.531,0-2.211-.671l.17-.168c-.85.336-.85-.671-1.7-.168l-.51-.336c-.51.671-.85-.671-1.531-.336v.168c-.51,0-.85-.336-1.361-.336V5.28c-1.191-.168-1.871-.671-1.871,0-.34-.5,1.191,0,.68-.839a99.4,99.4,0,0,0-12.246,0c-.51-.168-.85-.168-.85-.336-.34.168-1.531.336-1.871.671.17,0-.34-.336-.51-.336-.85-.168-.68.671-1.531.671a.413.413,0,0,0,.17-.671c-.51.671-1.531.839-2.211,1.175.17-.168.34-.168.17-.336-.68.671-1.7.336-2.211.839l.17-.5c-1.361,0-.17.839-1.191,1.007.17-.168,0-.336,0-.5-.68.839-2.381,1.342-3.062,2.013V7.965a19.071,19.071,0,0,0-3.062,1.678c-.51.168-.34-.839-1.191-.168.34.5-1.531,1.342-.51,1.51a10.639,10.639,0,0,0-2.721,1.678c.17-.5-.85-.336-.34-.839h-.68c-.17-.336.51-.336.17-.5a10.958,10.958,0,0,1-1.531,1.342,4.518,4.518,0,0,1-1.021,2.852c.17-.5-.85-.336-.51-.671a8.4,8.4,0,0,0-.34,2.181c-.17.336-.51-.336-.68.168.17.168,0,.336,0,.671-.17,0-1.021,1.342-1.7,1.007-.34,0,.34-.5-.17-.336-.51.5-.34.839-.85,1.342h0c-.34.336-.68,1.342,0,1.175.17-.336-.34-.168,0-.5.17.5-.17,1.175-.68,1.846,0-.336-.17-.336-.17-.5a22.11,22.11,0,0,1-.85,3.188c.34.168-.34-.671,0-.671a3.984,3.984,0,0,0-1.021,1.846,2.669,2.669,0,0,1-.85,1.678c0-.168.51.168.34,0-.34.5-.68.336-.85.839-.34,0-.17.5-.17,1.007.17.336-.17,0,0-.336A12.956,12.956,0,0,1,6.36,33.8c.17,0,.34,1.007.34,1.342l-.34-.168c-.34.168-.17,1.007-.68,1.007.34.839.34-2.852.34-1.678-.34.168.34,1.51-.17,1.175-.17.671.17,1.342-.34,2.013.17-.168-.51-.671-.51-.168,0,1.007.17.336.17,1.175l.17.5c.34.168-.17.839.34.5-.34,0,0,1.342-.68,1.175l-.51-.168c0,.5.51.671.68,1.007L5,41.69c.85.168-.17,1.007.51,1.51-.17.5-.17,1.007-.34,1.51a1.4,1.4,0,0,1-.34,1.175A4.616,4.616,0,0,1,5,47.563a.363.363,0,0,0-.34-.336c-.17.5,0,.671.17,1.007-.17,0-.34,1.007-.51,1.51.34.671.68.5,1.021.5-.68.671.68,1.678.17,2.517-.17-.168-.68-.839-.68-.336-.68.839.85,1.007.68,2.013l.68-.336c-.34.5.68,1.342,0,1.342.34.168.17,1.175.68.839A13.828,13.828,0,0,0,7.55,58.8c.34.839.68,1.51.34,2.181.17.168.34.671.68.5.17-.5-.51-.336-.34-.671a.53.53,0,0,0,.34.168c0,.5.17.839-.51.671.34,1.51,1.7.839,2.211,2.013q-.51,0,0,.5l.85.336c.34.839-.34.839-.68,1.007.34.336.68.839,1.021.839l-.17.839c0-.671.51.168.68.336l-.17-.168c-.17.168.34.5.51.839.17-.168,0-.839-.17-1.007.34,0,.51.336.85.5-.51.168.17.839.34,1.175.17.5.68.168.68.168-.17.168.51.5,0,.5-.17,0,0-.336-.34-.5,0,.336-.34.5.34.839.51.168.68-.671,1.021.168-.17-.168-.34,0-.68,0l.34.839.34-.336c0,.168,0,.168-.17.168.51-.168,1.021.839,1.361.671.34.168.51.839.68,1.007h0a1.476,1.476,0,0,0,1.191.839h0a1.95,1.95,0,0,0,1.021.5c.34.671-.85,1.342.17,1.342.51.336,1.361,0,1.191-.336a5.287,5.287,0,0,0,1.531,1.175c.51.336,1.021.5,1.361,1.175.17,0,.17-.168.51-.168,1.361,1.175,3.4,1.175,4.422,2.685-.51,0-.17.336-.34.5.51-.168.34.5.68,0,.17-.336.17-.5-.17-.839a5.752,5.752,0,0,1,2.891,1.175c-.17-.336,0-.336.34-.336-.34.5.51.839,1.021.839l.17-.336.34.5c.17,0,.51-.671.85-.168v.336a3.332,3.332,0,0,1,2.211,0l.51.671c.34,0,.85-.336.34-.5,1.02.5,1.7.671,2.041,1.175a36.6,36.6,0,0,1,7.314-.5v.336c.68.168.34-.5.68-.336-.17.336.51.5,0,.839.85.336,1.021-.5,1.531-.839,0-.336-.34.336-.34-.168,0-.168,1.191.168,1.191-.5a.753.753,0,0,1,0,.839l.51-.336c.68.5-1.361,1.342-.51,2.013l.51-.168c.51.5-1.191.839,0,.839.51-.336.85-1.175.34-1.342,1.021-.336.34-1.342,1.531-1.51.34.336-.85.336-.68.671.68.336,1.021-.5,1.531-.5-.51,0-.17-.671,0-.839.68.168-.17.671.51.5,0-.336.68-.671,0-.839.17-.671.85,0,1.191-.671.34.336-.51,1.342.51,1.342-.34-.336.85-1.007.17-1.51.34,0,.51.336.34.671.51.168.85-1.175,1.361-.336v-.5c.17.168.51.168.85.336.51-.168,1.191-1.175,1.361-.5.17-.168,1.02-.5.51-.839-.68,0-.51.671-1.191.168.68.336.85-.5,1.021-.839l.17.168c.17-.168.68-.336.68-.671a.363.363,0,0,0,.34.336v-.5c.68-.5.51.671,1.191.168a2.32,2.32,0,0,0-.51.671c.17-.168.51.168.85-.168V76.758c.34-.336.34.336.68-.336l.17.671c0,.168.68.336,1.191,0,.34-.336.51-1.175-.17-1.007.34-.168.85-.168.68.168.51-.5-.34-.336.17-.839.34.168,1.191-.168,1.871-.168l-.17,1.007.34-.336c-.17.839.51.168.51.839a1.68,1.68,0,0,0,.68-.839c-1.361-.168,0-1.51-.68-2.013.85-.839,1.871,1.007,2.041-.839-.34,0-.34-.839-.68-.168.68-.5-.17-1.007.68-1.342-.34.671,1.191.168.68,1.175-.17-.168-.51.168-.68.336.51,0,.51.671,1.021.168.34-.336.85-.839.51-1.007-.34-.336-.51.5-.68,0,.68-.671,1.191-.336.85-1.175-.34.5-.85.168-1.021,0,.17-.168.17-.5.34-.671l.17.336c.85-.671-.17-.671.51-1.342h.85c.17.5-1.191,1.007-.51,1.51.51-.5.34-1.007,1.021-1.342,0,.168-.17.336-.17.5.17-.168,1.191.336,1.361-.839.17-.5-.17-.336-.34-.5.68-1.007.51-1.51,1.02-2.013.34.5.85-1.007.85,0-.51.168-1.531,1.342-1.191,2.181q.51,0,0,.5c-.17.168-.51.5-.34.839.68-.671,1.191-.168,1.7,0a1,1,0,0,0,.17-.671c-.34-.336-.51-.168-.85-.336a4.383,4.383,0,0,0,1.191-2.349.373.373,0,0,1,.51.5c.68-1.007,1.361-2.181,2.041-3.188-1.021.336.51-1.175-.34-1.007-.51.5-1.191.671-1.361.168.17-.336.34.168.51.168-.17-.671,1.021-.336.68-1.007-.34,1.175.68.671,1.191,1.007,0-.839.34.168.68-.5a14.928,14.928,0,0,1,.51-2.685c.85-.839,1.02-2.685,1.361-3.691.34-.5,1.021.168,1.191-.5s-.85.336-.34-.671l.17.168c0-.336.85-1.678,0-2.181l.68.5c.17-.168,0-.336,0-.5.17,0,.51-.168.51.168.68-.5.17-1.342.34-2.013l-.51.336c-.17-1.175.34-1.846.34-3.02h.34l-.17-.671c.34.168.68-.336.34-.839a8.933,8.933,0,0,1,.85,1.846c-.34.5-.51-.671-.85-.336-.34.168-.51,1.342,0,1.51.17-.336,0-.5,0-.839.51,0,.51.5.85.839,0-.168.17-.5,0-.5a4.616,4.616,0,0,1,.17,1.678c-.17-.5-.34.168-.51,0,.51.168.51.839.34,1.678-.68.5,0,1.678-.51,2.685a3.489,3.489,0,0,1-.68-1.846c-.34.5-.17.671-.51,1.175a2.293,2.293,0,0,1,.85,1.678h-.34c0,.839.51,1.007,0,1.846-.34.839-.68,1.51-1.021,2.349l-1.02,2.013L81.877,63c.51,1.007-.85,2.181-1.021,3.188A9.492,9.492,0,0,0,79.5,68.369a2.618,2.618,0,0,1-1.361,1.342,11.266,11.266,0,0,1-1.191,1.846c-.34.5-.85,1.175-1.191,1.678a14.709,14.709,0,0,0-1.361,1.678,15.263,15.263,0,0,1-1.7,1.51v-.671c-.17.671-.51,0-.85.336.68,0-.17.839-.17,1.342a8.8,8.8,0,0,0-3.232,2.852l-.17-.336c-.68,1.175-2.211,1.51-3.572,2.181-.17,0-.68-.168-1.021,0a6.424,6.424,0,0,1-1.871,1.846,10.434,10.434,0,0,1-3.062.839c-2.891,2.013-6.463,2.181-9.865,3.188l-.17-.839a14.72,14.72,0,0,1-5.443.671c-1.871-.168-3.572-.168-5.1-.336l.34-.671c-.85-.336-2.041-.168-1.871.5a4.77,4.77,0,0,0-1.531-.168c-.51-.168-1.021-.168-1.191-.5-.85-.336-1.191,0-2.041,0a40.153,40.153,0,0,0-4.082-1.51l.34.168c.17-.168.34-.336,0-.5-.68,0-2.211-1.175-1.871,0a7.64,7.64,0,0,0-2.891-1.342,5.629,5.629,0,0,1-2.551-1.678c0,.336-.34.168-.68.168-.34-.168-.68-.5-1.021-.671-.34-.336-.68-.5-.85-.839a5.756,5.756,0,0,0-1.871-1.175c-.17-.336.68,0,0-.5-.34-.168-.17.168-.68,0a15.228,15.228,0,0,1-3.062-2.685c-.85-1.007-1.531-2.181-2.381-3.02C7.04,70.047,4.829,66.02,3.128,62.328H3.3c-1.191-1.007-.51-3.356-1.871-4.027,0-.336-.17-1.175.17-1.175a3.541,3.541,0,0,1-.51-2.013A6.957,6.957,0,0,0,.407,52.6c0,.168,0,.168.17.336a10.931,10.931,0,0,0-.17-2.349A5.286,5.286,0,0,1,.067,47.9c.17.168.17.5.34.5.34-.671-.85-1.51,0-1.846,0-.336-.51-.168-.34,0,.17-3.691,0-7.718.51-11.577,1.191-2.517,1.531.168,1.361-2.013.17-.168-.34-.168-.17-.168,0-.839,1.361-1.007,1.021-1.678-.68,0-.17-.5-.51-.5.85-1.51,1.531-1.678,1.531-3.02l.17.168c0-1.678,1.021-3.188,1.021-4.7C9.251,15.515,15.2,8.971,23.028,4.944A54.29,54.29,0,0,1,35.1.75,37.094,37.094,0,0,1,48.03.414a6.212,6.212,0,0,0,4.252,1.007l-.17.168c.17-.671,1.531.336,1.871-.168,1.531.5,3.062.839,4.592,1.342A34.362,34.362,0,0,1,63,4.441c-.51-.168-1.021.168-.34.336h.68v.168c.85,0,1.361,0,1.021-.336a33.441,33.441,0,0,1,10.205,7.047,51.98,51.98,0,0,1,4.082,4.53l1.7,2.517a21.839,21.839,0,0,1,1.7,2.517c.34.839,1.021,1.846,1.531,2.852s1.191,2.013,1.7,3.02c1.7,6.04,2.041,11.41,2.721,17.45A4.241,4.241,0,0,1,85.959,41.355Z" transform="translate(0 0)" fill="#1fad8e"/>
        <path id="Path_2278" data-name="Path 2278" d="M.85,0C.51.168.34.839,0,.336.34.336.68,0,.85,0Z" transform="translate(85.449 46.221)" fill="#1fad8e"/>
        <path id="Path_2279" data-name="Path 2279" d="M.34.336A.6.6,0,0,1,0,.5C0,.336,0,0,.17,0,0,.168.17.168.34.336Z" transform="translate(78.645 61.825)" fill="#1fad8e"/>
        <path id="Path_2280" data-name="Path 2280" d="M.046,1.51C-.124,1.342.216.5.387,0Z" transform="translate(76.558 64.174)" fill="#1fad8e"/>
        <path id="Path_2281" data-name="Path 2281" d="M.282.336C-.058.5-.058.336.112,0,.282,0,.282.168.282.336Z" transform="translate(73.091 67.865)" fill="#1fad8e"/>
        <path id="Path_2282" data-name="Path 2282" d="M.68.08A1.3,1.3,0,0,1,0,.416C.17.583.34-.256.68.08Z" transform="translate(73.033 68.624)" fill="#1fad8e"/>
        <path id="Path_2283" data-name="Path 2283" d="M.68.159c-.17.168-.34.5-.68.5C.34.494.68-.345.68.159Z" transform="translate(66.229 73.915)" fill="#1fad8e"/>
        <path id="Path_2284" data-name="Path 2284" d="M.537.168c-.17,0-.17,0-.34.168C-.144.336.026,0,.2,0Z" transform="translate(63.482 76.423)" fill="#1fad8e"/>
        <path id="Path_2285" data-name="Path 2285" d="M0,0,.34.336H0Z" transform="translate(5.85 53.603)" fill="#1fad8e"/>
        <path id="Path_2286" data-name="Path 2286" d="M0,.277C.17-.226.34.11.51.11.34.445.34-.058,0,.277Z" transform="translate(11.292 22.621)" fill="#1fad8e"/>
        <path id="Path_2287" data-name="Path 2287" d="M.34.336V.5L0,0Z" transform="translate(22.858 9.643)" fill="#1fad8e"/>
      </g>
    </g>
    <g id="icon">
      <path id="Path_14608" data-name="Path 14608" d="M43.373,21.583c.515.2-.141-.365.37.074a.248.248,0,0,1-.349-.043.173.173,0,0,1-.021-.031" transform="translate(-25.849 -0.52)" fill="#fff"/>
      <path id="Path_14609" data-name="Path 14609" d="M-10.3-43.843a3.061,3.061,0,0,1,.345.119,3.525,3.525,0,0,1,.313.177,4.212,4.212,0,0,1,.6.446,5.853,5.853,0,0,1,.963,1.24c.548.924.931,1.923,1.376,2.842.082.219-.4.035-.205.516a4.865,4.865,0,0,1,.258,3.446,6.79,6.79,0,0,1-1.927,3.208l-.015-.176a1.418,1.418,0,0,0-.316.622,1.57,1.57,0,0,1-.356.646c-.06-.049.014-.185-.136-.173.1.247-.475.689-.5.944-.195.063-.309-.081-.545,0,0,.118-.007.247-.016.369a1.342,1.342,0,0,1-.893.963,7.1,7.1,0,0,0-1.362.664c.027-.074.1-.152.009-.182-.333.238-.8.376-1.162.64a1.373,1.373,0,0,0-.567,1.194c.039.971.081,1.966.118,2.906-.089-.118-.26-.226-.367-.158a.706.706,0,0,1,.258.542,1.147,1.147,0,0,1-.222.773c-.184-.009-.307.177-.535.333a1.147,1.147,0,0,1-.9.2l.042-.065-.064.044a.774.774,0,0,1-.552.024.4.4,0,0,0-.44.118l-.276-.225c-.187.406-.624-.208-.978,0l.011.083c-.334.1-.5-.1-.865-.035l-.025-.047a2.243,2.243,0,0,1-.937-.049c-.206-.054-.316-.1-.4.038-.053-.17.141-.09.328-.08s.357-.029.247-.228a1.063,1.063,0,0,1-.809-.391,1.6,1.6,0,0,1-.3-.863c-.03-.306-.044-.656-.061-.95l-.034-.9a6.844,6.844,0,0,1,.012-.824,3.755,3.755,0,0,0,.018-.4.442.442,0,0,0-.049-.194.36.36,0,0,0-.154-.125,3.684,3.684,0,0,0-.782-.183c-.273-.047-.5-.093-.818-.164-.237-.185-.4-.268-.429-.4a5.167,5.167,0,0,0-1.142-.089c.08.016-.1-.2-.22-.252-.381-.245-.563.188-.977-.1.209-.017.3-.095.28-.226a3.612,3.612,0,0,1-1.455-.222c.089-.022.21-.009.229-.108-.6.067-.871-.414-1.37-.45l.237-.09c-.558-.512-.378.255-.928-.186.184.037.177-.049.249-.094a1.307,1.307,0,0,1-1.045-.575,2.12,2.12,0,0,1-.136-1.169c.017.041.069.029.069.029a3.986,3.986,0,0,1,.118-.533l.148-.491a5.108,5.108,0,0,0,.216-1.041c.153-.238.408.2.535-.486-.357-.07.185-1.188-.327-.91a2.872,2.872,0,0,1,.666-1.038,7.63,7.63,0,0,1,.832-.646c-.119.132.013.195.093.266s.118.139-.082.269a1.82,1.82,0,0,1,.4.067c.008.158-.323.084-.151.222a1.914,1.914,0,0,1,.449-.238.731.731,0,0,1,.494-.024,1.764,1.764,0,0,1,.748-.179,2.51,2.51,0,0,1,.917.135c-.371-.007.018.449-.222.413.41-.074.812-.168,1.2-.275.229.061-.05.294.31.313.014-.1.175-.107.3-.15.072.072.963.184.981.555.07.164-.4-.023-.172.168.439.1.485-.013.922.073v.049c.283.112.883,0,.6-.25-.2-.046.039.228-.237.072a2.047,2.047,0,0,1,1.188-.1c-.152.039-.15.136-.222.23.619-.2,1.188-.263,1.763-.44,0-.169-.192.331-.292.244a1.761,1.761,0,0,0,1.146-.2,2.126,2.126,0,0,1,1.016-.3c-.08.074-.148-.2-.118-.158.323-.134.435.1.586-.1.044.058.11.009.166-.07s.1-.184.151-.255c-.017-.13.1.021-.031.135a2.721,2.721,0,0,0,.312-.651,2.157,2.157,0,0,0,.012-.851.614.614,0,0,1-.271-.037c-.119-.032-.189-.034-.246-.1l.212-.106c0-.093-.088-.185-.168-.271s-.172-.168-.118-.252c-.118-.012-.1.034-.011.1.055.043.112.082.17.12l.19.135c.238.16.41.326.226.223.047-.089-.092-.138-.238-.179s-.255-.076-.119-.15c-.255-.237-.672-.255-.831-.615.06.085.427-.085.167-.246-.476-.258-.186,0-.6-.152l-.287-.05c-.118.186-.423-.238-.349.067.029-.195-.782-.238-.588-.544l.189-.23c-.237-.083-.5.118-.732.154-.02-.038-.06-.119-.029-.154-.2.389-.547-.266-.959-.065-.441-.341-1.281-.53-1.415-.888a2.346,2.346,0,0,1-1.281-.356c.107,0,.238.051.3-.023-.227-.25-.344-.173-.633-.238.086-.03-.448-.506-.668-.815-.44-.1-.432.177-.542.282-.069-.286-.357-.393-.679-.5s-.645-.247-.732-.563c.159.055.651.2.414-.1-.059-.577-.844-.226-1.211-.831l-.118.376c-.074-.357-.875-.542-.56-.755-.254-.076-.446-.67-.661-.393-.257-.528-.676-1.08-.987-1.65a1.865,1.865,0,0,1-.266-1.58c-.106-.136-.15-.536-.3-.416-.126.314.238.325.135.459a.2.2,0,0,0-.2-.144c-.026-.368-.035-.639.309-.384a.9.9,0,0,0-.343-.754,1.08,1.08,0,0,1-.345-.951c.15.041.194-.038.168-.324l-.238-.554c.1-.634.357-.331.6-.331-.016-.327.037-.713-.112-.893l.37-.34c-.27.237-.1-.292-.119-.457l.024.164c.118-.037.141-.417.158-.612-.157,0-.31.37-.405.571-.065-.191.023-.448-.044-.706.21.137.332-.482.449-.728.168-.267-.065-.407-.02-.49.112.039.23-.464.284-.168,0,.119-.206.176-.174.381.172-.153.341-.046.387-.488.04-.337-.465-.14-.041-.622-.025.175.047.247.066.4a5.1,5.1,0,0,1,.387-.431l-.175-.134c.088-.037.076.018.119,0-.051-.131.044-.334.153-.521s.219-.369.157-.5c.162-.255.523-.374.722-.565l-.022.052a1.638,1.638,0,0,0,.713-.81l.018.046a2.3,2.3,0,0,0,.581-.64c.475-.13.594.581.853.09.372-.237.408-.712.176-.745a8.6,8.6,0,0,0,1.156-.594,2.889,2.889,0,0,1,.586-.254,1.393,1.393,0,0,1,.584-.074c.042-.109,0-.155.106-.247.206-.03.428-.169.41-.4a1,1,0,0,1,.035-.287,4.229,4.229,0,0,1,.205-.712c.086.389.218.04.343.047-.191-.326.208-.334-.128-.492-.2,0-.293-.049-.378.324a9.786,9.786,0,0,1-.05-1.4A2.008,2.008,0,0,1-21-64.53c-.188.186-.165-.037-.1-.264.108.131.252.043.436-.1s.429-.328.64-.475l-.038-.194a3.26,3.26,0,0,1,.441.07c.084-.055.1-.157.172-.245s.238-.154.526-.076a.5.5,0,0,0,.2.2,7.141,7.141,0,0,1,.841-.262,2.87,2.87,0,0,1,.475-.068.829.829,0,0,1,.334.05,3.03,3.03,0,0,0,.448.289c.247-.035.782-.158.287-.277,1.15.21,1.72.538,1.81.925a1.755,1.755,0,0,1,1.011,1.026,5.993,5.993,0,0,1,.329,1.748l.027.292.011.136.008.053.021.155a.426.426,0,0,0,.064.249l-.132.107c-.009.182.246-.182.228-.071-.139.108-.1.3-.319.414.071.105.2.062.295-.012s.168-.182.26-.2c.065-.182-.152.1-.055-.13.006-.015.026-.012.053,0a.535.535,0,0,0,.129.044c.21.044.421.064.494-.067.128.138-.028.324-.128.424l.381-.067c.357.407-1.084.4-.713.895l.318.013c.231.348-.867.185-.125.426.356-.076.733-.415.458-.606.724.086.487-.594,1.262-.367.166.219-.634-.131-.543.141.3.315.76.074,1.057.255-.321-.214.064-.4.316-.372.348.261-.335.17.2.387.143-.126.694-.056.295-.324.165-.141.3-.061.446.032a1.347,1.347,0,0,0,.771.253c.077.178-.238.206-.435.271s-.287.156.093.391c0-.141.311-.1.6-.053s.551.1.462-.2c.282.3.14.449-.186.4a4.672,4.672,0,0,0,.7.524c.23.185.364.4.164.581.106.019.2.044.307.071a2.371,2.371,0,0,1-.15.74,3.224,3.224,0,0,1-.015,1.188c-.058.171-.136.266-.258.226-.023.237-.276.973.073.77a1.018,1.018,0,0,0,.18-.535.582.582,0,0,1,.218-.436l.091-.074-.064.077a1.116,1.116,0,0,0-.238.7c0,.182.051.373.049.533H-6.67c0,.2-.16.587-.05.772-.034-.176-.151-.148-.226-.026l.146.294c-.135.786-.41-.036-.569.682l.008-.609c0,.133-.258.237-.295.594.138.247.269.647.364.871-.028.231-.091.237-.138.248s-.059.02-.088.322a3.663,3.663,0,0,0-.014-.7c-.015-.061-.118-.035-.224.065a1.918,1.918,0,0,0-.185.214c-.082.1-.168.22-.252.348-.138.385-.5,1.051.064.713-.23.251-.714.366-.55.092-.3.222-.273.249-.205.295s.149.1-.155.273a3.673,3.673,0,0,1-.767-.129,2.928,2.928,0,0,1-.877-.445,2.723,2.723,0,0,0,.56-.237A3.251,3.251,0,0,1-10.5-51.4c.44-.177-.248-.3-.018-.542a1.65,1.65,0,0,0-.725-.151c.31.386.125.494-.222.518-.168.012-.368.009-.523.033a.237.237,0,0,0-.19.237c-.393-.094-.389-.368-.435-.594s-.128-.381-.579-.16c.082.142-.334.364.12.369-.4-.167-.393.335-.824.041.4-.084-.294-.527.3-.649-.07.131.272.182.367.168-.134-.207.158-.418-.3-.532-.286-.029-.669-.1-.658.139-.036.244.421.061.195.271-.545-.024-.584-.405-.869,0a.345.345,0,0,1,.363.327.336.336,0,0,1-.017.127c-.13.01-.262.029-.391.044l.1-.153c-.594-.2-.217.267-.795.17-.084-.119-.169-.231-.259-.345.167-.286.863.2.808-.266-.4-.065-.549.16-.919.022.086-.036.2-.041.288-.077-.137-.02-.266-.649-.868-.292-.3.141-.076.164-.084.336a4.162,4.162,0,0,0-1.123.334c-.01-.356-.517.087-.277-.327a.852.852,0,0,0,.574.032,1.068,1.068,0,0,0,.662-.3c-.25-.393.52.047.672-.345-.542-.021-.523-.4-.618-.661a.782.782,0,0,0-.4.144c-.053.245.15.238.169.475a1.345,1.345,0,0,0-1.3.475.207.207,0,0,1-.148-.253.206.206,0,0,1,.116-.137,3.6,3.6,0,0,0-1.413.95c.254-.027.19.1.151.22s-.074.25.109.22a.4.4,0,0,1,.56.034c0,.005.009.01.012.015-.05.054-.147-.088-.237-.1.063.1-.029.1-.108.119s-.146.067,0,.15a.315.315,0,0,0-.28-.221,1.425,1.425,0,0,1-.461-.089c.107.39-.228-.075-.272.318a2.682,2.682,0,0,0,.7,1.069,1.131,1.131,0,0,0,.649.757c.348.208.726.348.985.483.2.284-.154.494.13.713.37.175-.1-.475.367-.061l-.082.038c.191.012.927.672,1.3.278l-.323.277c.094.076.228.036.332.036-.043.119.041.271-.166.272.257.389.763.27,1.153.422l-.162-.31a10.471,10.471,0,0,1,1.759.72l-.108.192.432.053c-.18.151.106.432.377.367-.4,0-.8.02-1.2.041-.218-.238.4-.111.323-.383-.069-.237-.684-.443-.862-.287a.648.648,0,0,0,.454.083c-.049.313-.384.152-.634.267.118.038.253.2.316.119a1.773,1.773,0,0,1-.919-.2c.307,0-.071-.238.064-.272-.136.238-.535.157-.987-.111-.222-.43-.983-.179-1.527-.531a2.372,2.372,0,0,1,1.1-.169c-.3-.272-.393-.157-.682-.44a1.291,1.291,0,0,1-1.023.2l.071-.19c-.453-.137-.612.119-1.1-.262-.205-.172-.4-.334-.607-.526a4.644,4.644,0,0,1-.577-.64,3.125,3.125,0,0,1-.594-1.457l.191-.063a1.19,1.19,0,0,1-.185-1.142,6.9,6.9,0,0,1,.54-1.2A7.129,7.129,0,0,1-19.279-54.2a1.635,1.635,0,0,1,1.265-.209,11.564,11.564,0,0,1,2.556-.256,9.216,9.216,0,0,1,2.581.4l-.37.21c.368-.13.165.21.476.254-.289-.325.506-.172.783-.263a3.049,3.049,0,0,0,1.02.444.681.681,0,0,0,.57-.074l.086.246c.136-.188.248-.356.356-.5a2.886,2.886,0,0,0,.413-.746c.1-.027.3-.049.342-.281a4.251,4.251,0,0,1-.129-1.341,1.666,1.666,0,0,1,.077-.212,1.545,1.545,0,0,0,.231-.713,1.831,1.831,0,0,0-.744-.237l-.18-.044-.312-.1-.638-.2a11.983,11.983,0,0,0-1.3-.32c-.22-.042-.442-.07-.665-.092-.166-.013-.567-.039-.969-.084-.05-.089-.094-.178-.133-.265a2.912,2.912,0,0,1-1.1-.256,1.678,1.678,0,0,1-.8-.8,3.145,3.145,0,0,1-.285-1.166c-.009-.21-.023-.43-.021-.623v-.5c0-.163,0-.324.013-.482a1.415,1.415,0,0,0-.013-.263.294.294,0,0,0-.109-.209.31.31,0,0,0-.238-.03,4.122,4.122,0,0,1,.312-.37.329.329,0,0,0-.389-.008.386.386,0,0,0-.2.343.264.264,0,0,0-.174-.028l-.436.035a.463.463,0,0,1-.483-.146.476.476,0,0,0-.213,0,.317.317,0,0,0-.074.031A.164.164,0,0,0-18.2-63c-.03.064-.035.145-.076.18-.2-.066-.318.034-.327.146a.577.577,0,0,0,0,.179l.008.051.01.119c.009.082.016.167.025.261l.026-.174c-.088-.1-.259-.16-.285.027.11.307-.119,1.046.369.8a3.476,3.476,0,0,0-.107,1.024,3.43,3.43,0,0,1-.336,1.46,2.4,2.4,0,0,1-1.092,1,4.3,4.3,0,0,1-.7.253,1.743,1.743,0,0,1-.284.062,1.788,1.788,0,0,1-.237.023c.118.1-.088.2-.145.321-.746.288-1.627.451-2.02.983-.136.018.037-.3-.229-.128-.119.15.093.144-.049.335-.422.461-.893.813-1.335,1.212a3.819,3.819,0,0,0-1.025,1.377,11.856,11.856,0,0,0-.487,3,6.006,6.006,0,0,0,.488,2.764l-.1.02a.831.831,0,0,1,.306.389c.081.147.119.323.192.486.129.327.315.633.687.639.029.17.356.448.147.5a.94.94,0,0,1,.383.262c.129.119.256.265.393.415a2.057,2.057,0,0,0,1.053.668.335.335,0,0,0-.2-.065c.569.629,1.333.713,2.058,1.263-.1,0-.262-.042-.328.033.237.317.914-.028.907.475.188.076.224-.158.106-.194a20.825,20.825,0,0,0,2.952,1.209,10.72,10.72,0,0,1,3.353,1.68c.653.784.515,1.028.41,1.06-.054.026-.1.027-.05.1a7.494,7.494,0,0,1,.524.587c-.01.17.217.031.141.093a1.016,1.016,0,0,1,.1.9,1.006,1.006,0,0,0-.065.7c.3-.179.133.346.277.392a2.473,2.473,0,0,1-.476.81,3.67,3.67,0,0,1-.48.465,10.88,10.88,0,0,0-.938.842l-.021-.167a3.412,3.412,0,0,1-1.332,1,8.274,8.274,0,0,0-1.41.731,9.77,9.77,0,0,1-2.5.082c-.75-.07-1.467-.17-2.2-.31a19.363,19.363,0,0,1-2.167-.548c-.357-.111-.713-.238-1.062-.374-.175-.071-.35-.138-.523-.213l-.259-.112-.128-.059c-.03-.013-.02,0-.032-.012a.155.155,0,0,0-.183.12l0,.009a.068.068,0,0,0,0,.022c0,.01.01-.008-.015.087l-.18.687-.368,1.371-.119.39-.059.188a.081.081,0,0,0-.012.03c0,.023.022.036.041.044l.5.222q.357.151.736.293c.5.188,1.011.363,1.527.527s1.033.311,1.544.442l.382.093c.151.033.173.047.524.112a8.18,8.18,0,0,1,1.618.4,2.448,2.448,0,0,1,1.111.95,2.589,2.589,0,0,1,.357,1.434c-.014.289-.037.58-.062.87l-.017.517-.017.5-.01.252v.158c-.393.17-.4.491-.052.4-.046.061-.075.068-.091.132.107-.155.144-.154.186-.16s.085-.011.119-.165l.026.006h.07l.363.006h.722c.43,0,1.141-.012,1.036-.022a.126.126,0,0,0,.13-.118c.034.032.279.249.274.161a1.084,1.084,0,0,0-.2-.155l.091.026a.573.573,0,0,0-.311-.119c-.009-.007-.018.011-.023.019s0,.014,0,0v-.127l-.008-.252-.02-1.01v-.5a4.979,4.979,0,0,1,.024-.619,3.537,3.537,0,0,1,.537-1.529,3.4,3.4,0,0,1,1.175-1.1,4.272,4.272,0,0,1,.753-.334c.238-.073.446-.125.668-.189a6.066,6.066,0,0,0,1.144-.419,7.276,7.276,0,0,0,2.1-1.654l.257-.283.208-.265a4.849,4.849,0,0,0,.4-.538l.339-.575c.093-.2.17-.408.256-.611a2.429,2.429,0,0,0,.272-.634,2.987,2.987,0,0,0,.159-.745c.015-.129.039-.258.046-.386s0-.259,0-.386v-.371l-.045-.357a6.534,6.534,0,0,0-3.856-6.836,1.322,1.322,0,0,1,.524-.193,2.116,2.116,0,0,1,.639-.009,2.328,2.328,0,0,1,.766.32" transform="translate(29.706 65.948)" fill="#fff"/>
      <path id="Path_14610" data-name="Path 14610" d="M40.365,19.121c-.032-.2-.346-.448.029-.506-.031.154.073.394-.029.506" transform="translate(-23.446 1.662)" fill="#fff"/>
      <path id="Path_14611" data-name="Path 14611" d="M12.406-5.048c-.049-.013.068-.069.1-.077-.007.066.141.127.046.167-.006-.052-.083-.052-.15-.09" transform="translate(-2.299 19.71)" fill="#fff"/>
      <path id="Path_14612" data-name="Path 14612" d="M15.6-9.315c.026.142-.209.406-.3.529a1.47,1.47,0,0,1,.3-.529" transform="translate(-4.506 22.895)" fill="#fff"/>
      <path id="Path_14613" data-name="Path 14613" d="M24.255-8.18c.19.119.137.187-.118.185-.016-.076.062-.115.118-.185" transform="translate(-11.224 22.032)" fill="#fff"/>
      <path id="Path_14614" data-name="Path 14614" d="M25.266-9.552a.463.463,0,0,1,.367.168c0-.125-.428.07-.367-.168" transform="translate(-12.08 23.075)" fill="#fff"/>
      <path id="Path_14615" data-name="Path 14615" d="M45.551-3.259c.238.1.712.131.919.386a1.621,1.621,0,0,0-.618-.2c-.229-.049-.412-.121-.3-.183" transform="translate(-27.48 18.291)" fill="#fff"/>
      <path id="Path_14616" data-name="Path 14616" d="M60.817-7.306a.611.611,0,0,0,.176-.281c.165-.168.131.148.016.328Z" transform="translate(-39.11 21.618)" fill="#fff"/>
      <path id="Path_14617" data-name="Path 14617" d="M-13.926,28.949l-.274-.141.126-.08Z" transform="translate(17.918 -6.026)" fill="#fff"/>
      <path id="Path_14618" data-name="Path 14618" d="M12.592,62.074c-.248.066-.151-.152-.188-.177.209.009-.1.169.188.177" transform="translate(-2.306 -31.241)" fill="#fff"/>
      <path id="Path_14619" data-name="Path 14619" d="M-26.82,68.461l.018-.081.276.108Z" transform="translate(27.512 -36.17)" fill="#fff"/>
    </g>
  </g>
</svg>
